<?xml version="1.0" encoding="UTF-8"?>
<!DOCTYPE svg PUBLIC "-//W3C//DTD SVG 1.1//EN" "http://www.w3.org/Graphics/SVG/1.1/DTD/svg11.dtd">
<!-- Creator: CorelDRAW 2019 (64-Bit) -->
<svg xmlns="http://www.w3.org/2000/svg" xml:space="preserve" width="65px" height="54px" version="1.1" style="shape-rendering:geometricPrecision; text-rendering:geometricPrecision; image-rendering:optimizeQuality; fill-rule:evenodd; clip-rule:evenodd"
viewBox="0 0 13.08 10.95"
 xmlns:xlink="http://www.w3.org/1999/xlink"
 xmlns:xodm="http://www.corel.com/coreldraw/odm/2003">
 <defs>
  <style type="text/css">
   <![CDATA[
    .fil1 {fill:#1F48A5}
    .fil0 {fill:#372E68}
   ]]>
  </style>
 </defs>
 <g id="Слой_x0020_1">
  <metadata id="CorelCorpID_0Corel-Layer"/>
  <path class="fil0" d="M0.48 6.19l2.34 -1.22 -0.75 -0.5 -1.31 0.58c-0.27,0.12 -0.59,0 -0.71,-0.27l0 0c-0.12,-0.27 0,-0.59 0.27,-0.72l1.54 -0.69c0.02,-0.01 0.04,-0.01 0.06,-0.02 0.16,-0.06 0.35,-0.05 0.5,0.05l1.59 1.06c0.43,-0.02 0.84,0.2 1.05,0.6l0.59 1.13 -5.17 0zm7.74 -4.29c0,-1.04 0.84,-1.88 1.87,-1.9l0 1c-0.52,0.01 -0.94,0.44 -0.94,0.97 0,0.67 0,0.33 0,1.01l2.31 0c0,-0.7 0,-0.38 0,-1.08 0,-0.95 0.7,-1.74 1.62,-1.88l0 1.02c-0.4,0.12 -0.69,0.49 -0.69,0.93 0,1.98 0,2.95 0,4.93 0,0.26 -0.21,0.47 -0.47,0.47l0 0c-0.25,0 -0.46,-0.21 -0.46,-0.47l0 -1.01 -2.31 0 0 1.01c0,0.26 -0.21,0.47 -0.46,0.47l0 0c-0.26,0 -0.47,-0.21 -0.47,-0.47l0 -3.29c0,-0.91 0,-0.8 0,-1.71zm3.24 3.06l0 -1.05 -2.31 0 0 1.05 2.31 0zm-5.56 -2.17c0.63,0 1.14,0.51 1.14,1.14 0,0.63 -0.51,1.14 -1.14,1.14 -0.63,0 -1.14,-0.51 -1.14,-1.14 0,-0.63 0.51,-1.14 1.14,-1.14z"/>
  <path class="fil1" d="M0.25 8.94c0.36,0.12 0.69,0.24 0.97,0.35 1.05,0.39 1.46,0.55 3.01,-0.05 0.86,-0.33 1.44,-0.55 2.13,-0.58 0.68,-0.03 1.39,0.13 2.46,0.56l0.01 0.01c1.51,0.66 2.03,0.45 3.13,0.01 0.33,-0.13 0.7,-0.28 1.12,-0.42l0 1.35c-0.25,0.09 -0.46,0.17 -0.65,0.25 -1.43,0.57 -2.12,0.84 -4.09,-0.02 -0.89,-0.36 -1.44,-0.5 -1.93,-0.47 -0.49,0.02 -0.99,0.21 -1.73,0.49 -2,0.77 -2.53,0.57 -3.9,0.06 -0.16,-0.06 -0.33,-0.13 -0.53,-0.2l0 -1.34zm0 -2.33c0.36,0.12 0.69,0.25 0.97,0.36 1.05,0.39 1.46,0.54 3.01,-0.06 0.86,-0.33 1.44,-0.55 2.13,-0.58 0.68,-0.03 1.39,0.13 2.46,0.57l0.01 0c1.51,0.66 2.03,0.45 3.13,0.02 0.33,-0.14 0.7,-0.28 1.12,-0.43l0 1.35c-0.25,0.09 -0.46,0.18 -0.65,0.25 -1.43,0.57 -2.12,0.85 -4.09,-0.02 -0.89,-0.35 -1.44,-0.49 -1.93,-0.47 -0.49,0.02 -0.99,0.21 -1.73,0.5 -2,0.77 -2.53,0.57 -3.9,0.05 -0.16,-0.06 -0.33,-0.12 -0.53,-0.19l0 -1.35z"/>
 </g>
</svg>
