<?xml version="1.0" encoding="UTF-8"?>
<!DOCTYPE svg PUBLIC "-//W3C//DTD SVG 1.1//EN" "http://www.w3.org/Graphics/SVG/1.1/DTD/svg11.dtd">
<!-- Creator: CorelDRAW 2019 (64-Bit) -->
<svg xmlns="http://www.w3.org/2000/svg" xml:space="preserve" width="65px" height="65px" version="1.1" style="shape-rendering:geometricPrecision; text-rendering:geometricPrecision; image-rendering:optimizeQuality; fill-rule:evenodd; clip-rule:evenodd"
viewBox="0 0 13.75 13.75"
 xmlns:xlink="http://www.w3.org/1999/xlink"
 xmlns:xodm="http://www.corel.com/coreldraw/odm/2003">
 <defs>
  <style type="text/css">
   <![CDATA[
    .fil1 {fill:#1F48A5}
    .fil0 {fill:#372E68}
   ]]>
  </style>
 </defs>
 <g id="Слой_x0020_1">
  <metadata id="CorelCorpID_0Corel-Layer"/>
  <path class="fil0" d="M5.82 2.28l0 -0.46c0,-1 0.82,-1.82 1.82,-1.82l0 0c1,0 1.82,0.82 1.82,1.82l0 0.42 -0.89 0 0 -0.36c0,-0.51 -0.42,-0.93 -0.93,-0.93l0 0c-0.51,0 -0.93,0.42 -0.93,0.93l0 0.36 0 0.04c0,0.79 0,-0.25 0,0.54l3.8 0c0,-0.79 0,0.25 0,-0.54l0 -0.04 0 -0.42c0,-1 0.82,-1.82 1.82,-1.82l0 0 0.03 0 0 0.96 -0.03 -0.01 0 0c-0.52,0 -0.93,0.42 -0.93,0.93l0 0.4c0,2.04 0,2.72 0,4.76 0,0.24 -0.2,0.44 -0.45,0.44l0 0c-0.24,0 -0.44,-0.2 -0.44,-0.44l0 -1.44 -3.8 0 0 0.71c0,0.24 -0.2,0.44 -0.44,0.44l0 0c-0.25,0 -0.45,-0.2 -0.45,-0.44l0 -2.89 0 -1.14zm4.69 2.43l0 -1.01 -3.8 0 0 1.01 3.8 0z"/>
  <polygon class="fil0" points="13.75,4.82 13.75,13.75 0,13.75 0,4.82 1.32,4.82 1.32,12.42 12.43,12.42 12.43,4.82 "/>
  <path class="fil1" d="M1.8 6.63c0.9,0.32 1.32,0.43 2.75,-0.09 0.82,-0.3 1.38,-0.5 2.03,-0.53 0.66,-0.03 1.33,0.12 2.36,0.51l0.02 0.01c1.44,0.6 1.94,0.41 3,0.01l0 0.21 0 0.3 0 0.41 0 2.74 0 1.74 -10.16 0 0 -3.02 0 -1.06 0 -0.23 0 -0.11 0 -0.89z"/>
 </g>
</svg>
