<?xml version="1.0" encoding="UTF-8"?>
<!DOCTYPE svg PUBLIC "-//W3C//DTD SVG 1.1//EN" "http://www.w3.org/Graphics/SVG/1.1/DTD/svg11.dtd">
<!-- Creator: CorelDRAW 2019 (64-Bit) -->
<svg xmlns="http://www.w3.org/2000/svg" xml:space="preserve" width="53px" height="65px" version="1.1" style="shape-rendering:geometricPrecision; text-rendering:geometricPrecision; image-rendering:optimizeQuality; fill-rule:evenodd; clip-rule:evenodd"
viewBox="0 0 9.78 11.88"
 xmlns:xlink="http://www.w3.org/1999/xlink"
 xmlns:xodm="http://www.corel.com/coreldraw/odm/2003">
 <defs>
  <style type="text/css">
   <![CDATA[
    .fil1 {fill:#1F48A5}
    .fil0 {fill:#372E68}
   ]]>
  </style>
 </defs>
 <g id="Слой_x0020_1">
  <metadata id="CorelCorpID_0Corel-Layer"/>
  <path class="fil0" d="M8.7 6.79l0 1.12c0,0.55 -0.45,1 -1,1l-1.4 0 0 0.26 -5.75 0 0 -2.11 5.75 0 0 1.18 1.1 0c0.35,0 0.63,-0.29 0.63,-0.63l0 -0.82 0.67 0zm-1.33 -2.44l2.09 0c0.18,0 0.32,0.15 0.32,0.32l0 1.57c0,0.18 -0.14,0.32 -0.32,0.32l-2.09 0c-0.18,0 -0.32,-0.14 -0.32,-0.32l0 -1.57c0,-0.17 0.14,-0.32 0.32,-0.32zm1.05 0.28c0.45,0 0.82,0.37 0.82,0.83 0,0.46 -0.37,0.83 -0.82,0.83 -0.46,0 -0.83,-0.37 -0.83,-0.83 0,-0.46 0.37,-0.83 0.83,-0.83zm0 0.33c0.27,0 0.49,0.23 0.49,0.5 0,0.27 -0.22,0.49 -0.49,0.49 -0.28,0 -0.5,-0.22 -0.5,-0.49 0,-0.27 0.22,-0.5 0.5,-0.5z"/>
  <path class="fil1" d="M0.32 6.47l6.22 0c0.17,0 0.32,0.14 0.32,0.3l0 0c0,0.16 -0.15,0.29 -0.32,0.29l-6.22 0c-0.18,0 -0.32,-0.13 -0.32,-0.29l0 0c0,-0.16 0.14,-0.3 0.32,-0.3zm0 3.23l6.22 0c0.17,0 0.32,-0.12 0.32,-0.27l0 0c0,-0.14 -0.15,-0.26 -0.32,-0.26l-6.22 0c-0.18,0 -0.32,0.12 -0.32,0.26l0 0c0,0.15 0.14,0.27 0.32,0.27zm3.5 2.18l0.61 0c1.03,0 1.88,-0.71 1.88,-1.56l0 0c0,-0.03 0,-0.06 -0.01,-0.09l0 -0.43 -5.75 0 0 0.52 0 0c0,0.85 0.84,1.56 1.87,1.56l0.57 0 0.83 0zm-0.36 -10.38c-0.02,0.04 -0.04,0.07 -0.06,0.11 -0.2,0.36 -0.31,0.73 -0.35,1.13l0.65 0c0.04,-0.34 0.14,-0.65 0.32,-0.95l0 0 -0.56 -0.29zm3.19 -1.5c-0.3,-0.01 -0.61,0.01 -0.9,0.06l0.12 0.59c0.25,-0.05 0.5,-0.06 0.76,-0.05l0.02 -0.6zm-1.58 0.24c-0.45,0.16 -0.85,0.4 -1.18,0.72l0.47 0.41c0.26,-0.26 0.58,-0.45 0.94,-0.58l-0.23 -0.55zm-2.08 3.35l0.83 0 0 0.46 0.61 0c1.03,0 1.88,0.78 1.88,1.73l0 0c0,0.04 0,0.07 -0.01,0.1l0 0.48 -5.75 0 0 -0.58 0 0c0,-0.95 0.84,-1.73 1.87,-1.73l0.57 0 0 -0.46zm0.02 -0.85l0.78 0c0.22,0 0.41,0.17 0.41,0.38l0 0c0,0.2 -0.19,0.37 -0.41,0.37l-0.78 0c-0.22,0 -0.4,-0.17 -0.4,-0.37l0 0c0,-0.21 0.18,-0.38 0.4,-0.38z"/>
 </g>
</svg>
