<?xml version="1.0" encoding="UTF-8"?>
<!DOCTYPE svg PUBLIC "-//W3C//DTD SVG 1.1//EN" "http://www.w3.org/Graphics/SVG/1.1/DTD/svg11.dtd">
<!-- Creator: CorelDRAW 2019 (64-Bit) -->
<svg xmlns="http://www.w3.org/2000/svg" xml:space="preserve" width="63px" height="65px" version="1.1" style="shape-rendering:geometricPrecision; text-rendering:geometricPrecision; image-rendering:optimizeQuality; fill-rule:evenodd; clip-rule:evenodd"
viewBox="0 0 11.68 12.03"
 xmlns:xlink="http://www.w3.org/1999/xlink"
 xmlns:xodm="http://www.corel.com/coreldraw/odm/2003">
 <defs>
  <style type="text/css">
   <![CDATA[
    .fil0 {fill:#1F48A5}
    .fil1 {fill:#372E68}
   ]]>
  </style>
 </defs>
 <g id="Слой_x0020_1">
  <metadata id="CorelCorpID_0Corel-Layer"/>
  <path class="fil0" d="M6.95 10.26l0 -6.12c0,-0.25 0.2,-0.46 0.45,-0.46l3.83 0c0.25,0 0.45,0.21 0.45,0.46l0 6.12c0,0.25 -0.2,0.45 -0.45,0.45l-3.83 0c-0.25,0 -0.45,-0.2 -0.45,-0.45zm0.75 -1.21c0,-0.38 0.31,-0.68 0.68,-0.68 0.38,0 0.68,0.3 0.68,0.68 0,0.37 -0.3,0.67 -0.68,0.67 -0.37,0 -0.68,-0.3 -0.68,-0.67zm1.87 -3.7c0,-0.37 0.3,-0.68 0.68,-0.68 0.37,0 0.68,0.31 0.68,0.68 0,0.38 -0.31,0.68 -0.68,0.68 -0.38,0 -0.68,-0.3 -0.68,-0.68zm0 1.86c0,-0.38 0.3,-0.68 0.68,-0.68 0.37,0 0.68,0.3 0.68,0.68 0,0.37 -0.31,0.68 -0.68,0.68 -0.38,0 -0.68,-0.31 -0.68,-0.68zm0 1.84c0,-0.38 0.3,-0.68 0.68,-0.68 0.37,0 0.68,0.3 0.68,0.68 0,0.37 -0.31,0.67 -0.68,0.67 -0.38,0 -0.68,-0.3 -0.68,-0.67zm-1.87 -3.7c0,-0.37 0.31,-0.68 0.68,-0.68 0.38,0 0.68,0.31 0.68,0.68 0,0.38 -0.3,0.68 -0.68,0.68 -0.37,0 -0.68,-0.3 -0.68,-0.68zm0 1.86c0,-0.38 0.31,-0.68 0.68,-0.68 0.38,0 0.68,0.3 0.68,0.68 0,0.37 -0.3,0.68 -0.68,0.68 -0.37,0 -0.68,-0.31 -0.68,-0.68z"/>
  <path class="fil1" d="M6.02 12.03l-5.55 0c-0.26,0 -0.47,-0.23 -0.47,-0.51l0 -4.46c0,-0.26 0.01,-0.49 0.01,-0.75 0.03,-1.69 0.29,-4.89 2.16,-4.89l2.69 0 0 1.01c0.2,1.71 0.81,3.13 1.63,3.89l0 5.2c0,0.28 -0.21,0.51 -0.47,0.51zm-4.21 -3.8c-0.11,-0.2 -0.04,-0.46 0.16,-0.58 0.21,-0.11 0.46,-0.04 0.57,0.17 0.02,0.02 0.03,0.04 0.04,0.06 0.09,0.12 0.22,0.17 0.36,0.17 0.19,0.01 0.39,-0.05 0.57,-0.15 0.05,-0.03 0.09,-0.06 0.14,-0.09 0.22,-0.17 0.48,-0.36 0.79,-0.47 0.37,-0.11 0.76,-0.11 1.19,0.16 0.19,0.13 0.25,0.39 0.13,0.59 -0.13,0.2 -0.39,0.26 -0.58,0.13 -0.18,-0.11 -0.34,-0.11 -0.48,-0.06 -0.19,0.06 -0.38,0.2 -0.55,0.33 -0.08,0.06 -0.15,0.11 -0.24,0.15 -0.29,0.17 -0.65,0.28 -0.99,0.26 -0.39,-0.01 -0.75,-0.16 -1.01,-0.51 -0.03,-0.05 -0.07,-0.1 -0.1,-0.16zm0 1.77c-0.11,-0.2 -0.04,-0.46 0.16,-0.58 0.21,-0.11 0.46,-0.04 0.57,0.17 0.02,0.02 0.03,0.04 0.04,0.06 0.09,0.12 0.22,0.17 0.36,0.17 0.19,0.01 0.39,-0.05 0.57,-0.15 0.05,-0.03 0.09,-0.06 0.14,-0.09 0.22,-0.17 0.48,-0.36 0.79,-0.47 0.37,-0.11 0.76,-0.11 1.19,0.16 0.19,0.13 0.25,0.39 0.13,0.59 -0.13,0.2 -0.39,0.26 -0.58,0.13 -0.18,-0.11 -0.34,-0.11 -0.48,-0.07 -0.19,0.07 -0.38,0.21 -0.55,0.34 -0.08,0.06 -0.15,0.11 -0.24,0.15 -0.29,0.17 -0.65,0.28 -0.99,0.26 -0.39,-0.01 -0.75,-0.16 -1.01,-0.51 -0.03,-0.05 -0.07,-0.1 -0.1,-0.16zm2.88 -10l-2.23 0c-0.1,0 -0.19,0.09 -0.19,0.21l0 0.95 2.61 0 0 -0.95c0,-0.12 -0.08,-0.21 -0.19,-0.21zm-4.02 6.68l0.95 0c0.3,0 0.55,-0.27 0.55,-0.6l0 -3.64 0 -0.27c-1.26,0.01 -1.47,2.94 -1.5,4.51z"/>
 </g>
</svg>
