<?xml version="1.0" encoding="UTF-8"?>
<!DOCTYPE svg PUBLIC "-//W3C//DTD SVG 1.1//EN" "http://www.w3.org/Graphics/SVG/1.1/DTD/svg11.dtd">
<!-- Creator: CorelDRAW 2019 (64-Bit) -->
<svg xmlns="http://www.w3.org/2000/svg" xml:space="preserve" width="65px" height="35px" version="1.1" style="shape-rendering:geometricPrecision; text-rendering:geometricPrecision; image-rendering:optimizeQuality; fill-rule:evenodd; clip-rule:evenodd"
viewBox="0 0 11.82 6.35"
 xmlns:xlink="http://www.w3.org/1999/xlink"
 xmlns:xodm="http://www.corel.com/coreldraw/odm/2003">
 <defs>
  <style type="text/css">
   <![CDATA[
    .fil0 {fill:#1F48A5}
    .fil1 {fill:#372E68}
   ]]>
  </style>
 </defs>
 <g id="Слой_x0020_1">
  <metadata id="CorelCorpID_0Corel-Layer"/>
  <path class="fil0" d="M8.88 6.35l0 0c-1.9,0 -2.55,-4.28 -2.55,-4.9l0.7 0 3.69 0 0.7 0c0,1.04 -0.65,4.9 -2.54,4.9zm-0.81 -1.59l0.53 0 0 -0.58 -0.53 0 0 0.58zm1.08 0l0.53 0 0 -0.58 -0.53 0 0 0.58zm0.53 0.55l-0.53 0 0 0.44c0.19,-0.07 0.37,-0.21 0.53,-0.4l0 -0.04zm-1.08 0l-0.51 0c0.16,0.2 0.33,0.35 0.51,0.43l0 -0.43zm-1.3 -1.68l0.22 0 0 -0.52 -0.37 0c0.05,0.17 0.1,0.35 0.15,0.52zm0.77 0l0.53 0 0 -0.52 -0.53 0 0 0.52zm1.08 0l0.53 0 0 -0.52 -0.53 0 0 0.52zm1.08 0l0.27 0c0.05,-0.17 0.09,-0.35 0.13,-0.52l-0.4 0 0 0.52zm0.08 0.55l-0.08 0 0 0.21c0.03,-0.07 0.06,-0.14 0.08,-0.21zm-2.79 0l-0.03 0 0.03 0.07 0 -0.07zm-0.5 -1.62l0.5 0 0 -0.56 -0.6 0c0.03,0.17 0.06,0.36 0.1,0.56zm1.05 0l0.53 0 0 -0.56 -0.53 0 0 0.56zm1.08 0l0.53 0 0 -0.56 -0.53 0 0 0.56zm1.08 0l0.52 0c0.03,-0.2 0.06,-0.39 0.08,-0.56l-0.6 0 0 0.56z"/>
  <path class="fil1" d="M0.68 0l2.65 0c0.27,0 0.5,0.16 0.61,0.39l1.64 0 0 0.56 -1.62 0c-0.11,0.25 -0.35,0.42 -0.63,0.42l-2.65 0c-0.37,0 -0.68,-0.31 -0.68,-0.69l0 0c0,-0.37 0.31,-0.68 0.68,-0.68zm5.71 0.2l4.97 0c0.25,0 0.46,0.21 0.46,0.47l0 0c0,0.26 -0.21,0.47 -0.46,0.47l-4.97 0c-0.25,0 -0.46,-0.21 -0.46,-0.47l0 0c0,-0.26 0.21,-0.47 0.46,-0.47z"/>
 </g>
</svg>
