<?xml version="1.0" encoding="UTF-8"?>
<!DOCTYPE svg PUBLIC "-//W3C//DTD SVG 1.1//EN" "http://www.w3.org/Graphics/SVG/1.1/DTD/svg11.dtd">
<!-- Creator: CorelDRAW 2019 (64-Bit) -->
<svg xmlns="http://www.w3.org/2000/svg" xml:space="preserve" width="65px" height="50px" version="1.1" style="shape-rendering:geometricPrecision; text-rendering:geometricPrecision; image-rendering:optimizeQuality; fill-rule:evenodd; clip-rule:evenodd"
viewBox="0 0 12.66 9.61"
 xmlns:xlink="http://www.w3.org/1999/xlink"
 xmlns:xodm="http://www.corel.com/coreldraw/odm/2003">
 <defs>
  <style type="text/css">
   <![CDATA[
    .fil1 {fill:#372E68}
    .fil0 {fill:#1F48A5;fill-rule:nonzero}
   ]]>
  </style>
 </defs>
 <g id="Слой_x0020_1">
  <metadata id="CorelCorpID_0Corel-Layer"/>
  <path class="fil0" d="M0 7.72c0.8,-0.98 1.73,-1.75 2.76,-2.33 1.36,-0.77 2.89,-1.19 4.54,-1.33l0.09 1.14c-1.49,0.12 -2.86,0.5 -4.07,1.18 -1.12,0.63 -2.52,1.98 -3.32,3.23l0 -0.19 0 -1.34 0 -0.36zm0 -4.43c0.6,-0.5 1.24,-0.91 1.92,-1.24 1.4,-0.69 2.95,-1.03 4.6,-1.07l0.02 1.14c-1.49,0.03 -2.88,0.34 -4.13,0.95 -0.87,0.43 -1.69,1.01 -2.41,1.77l0 -1.55zm0 2.15c0.65,-0.65 1.36,-1.18 2.13,-1.61 1.36,-0.77 2.89,-1.19 4.54,-1.32l0.08 1.13c-1.48,0.12 -2.85,0.5 -4.07,1.18 -1.01,0.56 -1.91,1.34 -2.68,2.35l0 -1.73z"/>
  <path class="fil1" d="M10.05 5.96c0.01,0.03 0.02,0.05 0.03,0.07 0.04,0.05 0.07,0.09 0.09,0.1 0.01,0 0.05,-0.01 0.12,-0.05l0 0 0.06 -0.02c0.54,-0.29 0.64,-0.34 0.98,0.31l0.29 0.56c0.24,-0.01 0.47,0.11 0.59,0.33l0.39 0.75c0.15,0.3 0.03,0.67 -0.27,0.83l0 0c-0.3,0.15 -0.67,0.03 -0.83,-0.27l-0.38 -0.74c-0.12,-0.22 -0.08,-0.49 0.07,-0.67l-0.29 -0.56c-0.12,-0.23 -0.15,-0.21 -0.33,-0.12l-0.05 0.03 0 0c-0.2,0.11 -0.37,0.13 -0.51,0.08 -0.15,-0.06 -0.25,-0.16 -0.34,-0.32 -0.02,-0.02 -0.03,-0.05 -0.05,-0.08l0.43 -0.23zm-4.09 -4.9l0.89 -0.47 0.24 -0.12 0.9 -0.47 3.22 3.17c0.04,0.03 0.08,0.07 0.11,0.11l0 0c0.07,0.08 0.13,0.16 0.18,0.26 0.32,0.62 0.08,1.38 -0.53,1.7 -0.04,0.02 -0.08,0.03 -0.12,0.05l0 0 -0.9 0.47 -0.05 -0.09c-0.06,-0.14 -0.13,-0.27 -0.17,-0.36l-1.33 -2.57c-0.07,-0.11 -0.21,-0.16 -0.33,-0.1 -0.12,0.06 -0.17,0.21 -0.1,0.33l1.33 2.56c0.07,0.14 0.12,0.24 0.17,0.35l0.05 0.1 -0.89 0.46 0 0c-0.03,0.02 -0.07,0.04 -0.1,0.06 -0.62,0.32 -1.38,0.08 -1.7,-0.53 -0.05,-0.1 -0.09,-0.2 -0.11,-0.3l0 0c-0.01,-0.05 -0.02,-0.1 -0.03,-0.16l-0.73 -4.45z"/>
 </g>
</svg>
