<?xml version="1.0" encoding="UTF-8"?>
<!DOCTYPE svg PUBLIC "-//W3C//DTD SVG 1.1//EN" "http://www.w3.org/Graphics/SVG/1.1/DTD/svg11.dtd">
<!-- Creator: CorelDRAW 2019 (64-Bit) -->
<svg xmlns="http://www.w3.org/2000/svg" xml:space="preserve" width="65px" height="63px" version="1.1" style="shape-rendering:geometricPrecision; text-rendering:geometricPrecision; image-rendering:optimizeQuality; fill-rule:evenodd; clip-rule:evenodd"
viewBox="0 0 13.97 13.56"
 xmlns:xlink="http://www.w3.org/1999/xlink"
 xmlns:xodm="http://www.corel.com/coreldraw/odm/2003">
 <defs>
  <style type="text/css">
   <![CDATA[
    .fil1 {fill:#1F48A5}
    .fil0 {fill:#372E68}
   ]]>
  </style>
 </defs>
 <g id="Слой_x0020_1">
  <metadata id="CorelCorpID_0Corel-Layer"/>
  <path class="fil0" d="M13.97 5.18l0 8.38 -13.97 0 0 -8.38 1.34 0 0 7.13 11.29 0 0 -7.13 1.34 0zm-8.04 -0.36l0 0c0.43,0 0.81,0.21 1.06,0.52l1.75 -2.42c0.18,-0.25 0.53,-0.31 0.79,-0.13l0 0c0.25,0.19 0.31,0.54 0.12,0.79l-2.37 3.3 0 2.89c0,0.74 -0.61,1.35 -1.35,1.35l0 0c-0.75,0 -1.36,-0.61 -1.36,-1.35l0 -2.86 -2.39 -3.33c-0.18,-0.25 -0.13,-0.6 0.13,-0.79l0 0c0.25,-0.18 0.6,-0.12 0.78,0.13l1.76 2.44c0.25,-0.33 0.64,-0.54 1.08,-0.54zm0 -2.62c0.67,0 1.22,0.55 1.22,1.23 0,0.68 -0.55,1.23 -1.22,1.23 -0.68,0 -1.23,-0.55 -1.23,-1.23 0,-0.68 0.55,-1.23 1.23,-1.23z"/>
  <path class="fil1" d="M6.78 6.42c0.05,0 0.09,0 0.14,0l5.23 0c0,2 0,3.29 0,5.3l-10.32 0c0,-2.01 0,-3.3 0,-5.3l4.95 0zm5.06 -3.21c0.06,-0.11 0.02,-0.25 -0.09,-0.31 -0.11,-0.06 -0.25,-0.02 -0.31,0.09l-0.58 1.06c-0.06,0.11 -0.02,0.25 0.1,0.31 0.11,0.06 0.25,0.02 0.31,-0.09l0.57 -1.06zm1.15 -2.05c0.06,-0.11 0.02,-0.25 -0.09,-0.31 -0.11,-0.06 -0.25,-0.02 -0.31,0.09l-0.76 1.39c-0.06,0.11 -0.02,0.25 0.1,0.32 0.11,0.06 0.25,0.01 0.31,-0.1l0.75 -1.39zm-0.36 -0.65c0.09,-0.09 0.08,-0.24 -0.01,-0.32 -0.1,-0.09 -0.24,-0.08 -0.33,0.01l-0.98 1.08c-0.08,0.09 -0.08,0.24 0.02,0.33 0.09,0.08 0.24,0.07 0.33,-0.02l0.97 -1.08zm-0.83 -0.09c0.1,-0.07 0.13,-0.21 0.06,-0.32 -0.07,-0.1 -0.21,-0.13 -0.32,-0.06l-0.98 0.65c-0.11,0.08 -0.14,0.22 -0.07,0.32 0.08,0.11 0.22,0.14 0.33,0.07l0.98 -0.66zm-1.54 1.12c0.11,-0.07 0.14,-0.21 0.07,-0.32 -0.07,-0.1 -0.22,-0.13 -0.32,-0.06l-0.99 0.65c-0.1,0.08 -0.13,0.22 -0.06,0.33 0.07,0.1 0.22,0.13 0.32,0.06l0.98 -0.66zm0.89 0.67c0.08,-0.1 0.08,-0.24 -0.02,-0.33 -0.09,-0.08 -0.24,-0.08 -0.32,0.02l-0.74 0.8c-0.08,0.1 -0.08,0.24 0.02,0.33 0.09,0.09 0.24,0.08 0.33,-0.02l0.73 -0.8z"/>
 </g>
</svg>
