<?xml version="1.0" encoding="UTF-8"?>
<!DOCTYPE svg PUBLIC "-//W3C//DTD SVG 1.1//EN" "http://www.w3.org/Graphics/SVG/1.1/DTD/svg11.dtd">
<!-- Creator: CorelDRAW 2019 (64-Bit) -->
<svg xmlns="http://www.w3.org/2000/svg" xml:space="preserve" width="66px" height="52px" version="1.1" style="shape-rendering:geometricPrecision; text-rendering:geometricPrecision; image-rendering:optimizeQuality; fill-rule:evenodd; clip-rule:evenodd"
viewBox="0 0 14.06 11.34"
 xmlns:xlink="http://www.w3.org/1999/xlink"
 xmlns:xodm="http://www.corel.com/coreldraw/odm/2003">
 <defs>
  <style type="text/css">
   <![CDATA[
    .fil0 {fill:#1F48A5}
    .fil1 {fill:#372E68}
   ]]>
  </style>
 </defs>
 <g id="Слой_x0020_1">
  <metadata id="CorelCorpID_0Corel-Layer"/>
  <path class="fil0" d="M0 9.14c0.4,0.13 0.76,0.26 1.07,0.38 1.15,0.43 1.59,0.6 3.29,-0.06 0.95,-0.36 1.58,-0.6 2.33,-0.63 0.75,-0.04 1.53,0.14 2.7,0.62l0.02 0c1.65,0.73 2.22,0.5 3.43,0.02 0.36,-0.15 0.77,-0.31 1.22,-0.47l0 1.48c-0.27,0.1 -0.5,0.19 -0.71,0.28 -1.57,0.62 -2.32,0.92 -4.48,-0.02 -0.98,-0.4 -1.58,-0.55 -2.12,-0.52 -0.53,0.02 -1.08,0.23 -1.89,0.54 -2.19,0.84 -2.78,0.62 -4.27,0.06 -0.18,-0.06 -0.37,-0.13 -0.59,-0.21l0 -1.47zm0 -2.55c0.4,0.13 0.76,0.26 1.07,0.38 1.15,0.43 1.59,0.6 3.29,-0.05 0.95,-0.37 1.58,-0.61 2.33,-0.64 0.75,-0.03 1.53,0.14 2.7,0.62l0.02 0.01c1.65,0.72 2.22,0.49 3.43,0.01 0.36,-0.15 0.77,-0.31 1.22,-0.46l0 1.48c-0.27,0.09 -0.5,0.19 -0.71,0.27 -1.57,0.62 -2.32,0.92 -4.48,-0.02 -0.98,-0.4 -1.58,-0.54 -2.12,-0.52 -0.53,0.02 -1.08,0.23 -1.89,0.54 -2.19,0.85 -2.78,0.63 -4.27,0.07 -0.18,-0.07 -0.37,-0.14 -0.59,-0.22l0 -1.47z"/>
  <path class="fil1" d="M0.07 5.72c0.39,-1.6 1.26,-3.02 2.49,-4.06 1.27,-1.07 2.83,-1.66 4.47,-1.66 1.63,0 3.2,0.59 4.47,1.66 1.22,1.04 2.1,2.46 2.49,4.06l0.07 0.29 -1.53 0 -0.05 -0.17c-0.33,-1.14 -0.99,-2.16 -1.88,-2.91 -1.02,-0.86 -2.27,-1.32 -3.57,-1.32 -1.31,0 -2.56,0.46 -3.57,1.32 -0.89,0.75 -1.55,1.77 -1.89,2.91l-0.05 0.17 -1.52 0 0.07 -0.29z"/>
 </g>
</svg>
