<?xml version="1.0" encoding="UTF-8"?>
<!DOCTYPE svg PUBLIC "-//W3C//DTD SVG 1.1//EN" "http://www.w3.org/Graphics/SVG/1.1/DTD/svg11.dtd">
<!-- Creator: CorelDRAW 2019 (64-Bit) -->
<svg xmlns="http://www.w3.org/2000/svg" xml:space="preserve" width="65px" height="57px" version="1.1" style="shape-rendering:geometricPrecision; text-rendering:geometricPrecision; image-rendering:optimizeQuality; fill-rule:evenodd; clip-rule:evenodd"
viewBox="0 0 12.95 11.43"
 xmlns:xlink="http://www.w3.org/1999/xlink"
 xmlns:xodm="http://www.corel.com/coreldraw/odm/2003">
 <defs>
  <style type="text/css">
   <![CDATA[
    .fil1 {fill:#1F48A5}
    .fil0 {fill:#372E68}
   ]]>
  </style>
 </defs>
 <g id="Слой_x0020_1">
  <metadata id="CorelCorpID_0Corel-Layer"/>
  <path class="fil0" d="M12.95 3.03l0 8.4 -12.95 0 0 -8.4 1.25 0 0 7.16 10.45 0 0 -7.16 1.25 0zm-9.25 -0.6l0 0c0.69,0 1.26,0.56 1.26,1.25l0 3.33c0,0.69 -0.57,1.25 -1.26,1.25l0 0c-0.69,0 -1.25,-0.56 -1.25,-1.25l0 -3.33c0,-0.69 0.56,-1.25 1.25,-1.25zm0 -2.43c0.63,0 1.14,0.51 1.14,1.14 0,0.62 -0.51,1.13 -1.14,1.13 -0.62,0 -1.13,-0.51 -1.13,-1.13 0,-0.63 0.51,-1.14 1.13,-1.14z"/>
  <path class="fil1" d="M6.28 4.82c0.05,0 0.09,0 0.13,0l4.85 0c0,1.86 0,3.05 0,4.91l-9.57 0c0,-1.86 0,-3.05 0,-4.91l4.59 0zm0.29 -0.36c-0.15,-0.39 -0.25,-0.67 -0.26,-0.99 -0.02,-0.34 0.06,-0.7 0.28,-1.24l0 -0.01c0.25,-0.55 0.26,-0.84 0.16,-1.17l0.67 0c0.09,0.39 0.05,0.76 -0.24,1.42 -0.18,0.45 -0.25,0.73 -0.23,0.97 0.01,0.25 0.1,0.5 0.25,0.88l0.05 0.14 -0.68 0zm2.42 0c-0.15,-0.4 -0.25,-0.68 -0.27,-1.01 -0.01,-0.35 0.07,-0.7 0.29,-1.24l0 -0.01c0.33,-0.76 0.23,-1.03 0.01,-1.58l-0.05 -0.12 0.68 0c0.26,0.64 0.36,1 -0.05,1.95 -0.18,0.45 -0.25,0.73 -0.24,0.97 0.01,0.25 0.11,0.5 0.25,0.87l0.06 0.17 -0.68 0zm-1.2 0c-0.16,-0.4 -0.26,-0.68 -0.27,-1.01 -0.02,-0.35 0.06,-0.7 0.28,-1.24l0.01 -0.01c0.33,-0.76 0.22,-1.03 0,-1.58 -0.06,-0.17 -0.14,-0.35 -0.21,-0.56l0.68 0c0.05,0.12 0.09,0.23 0.13,0.32 0.28,0.73 0.42,1.07 -0.01,2.07 -0.19,0.45 -0.25,0.73 -0.24,0.97 0.01,0.25 0.1,0.5 0.25,0.87l0.06 0.17 -0.68 0z"/>
 </g>
</svg>
