<?xml version="1.0"?>
<svg xmlns="http://www.w3.org/2000/svg" xmlns:xlink="http://www.w3.org/1999/xlink" xmlns:svgjs="http://svgjs.com/svgjs" version="1.1" width="512" height="512" x="0" y="0" viewBox="0 0 48 48" style="enable-background:new 0 0 512 512" xml:space="preserve" class=""><g><path xmlns="http://www.w3.org/2000/svg" d="M8.3,39.71l5,5a1,1,0,0,0,1.41,0L24,35.41l9.3,9.29a1,1,0,0,0,1.41,0l5-5a1,1,0,0,0,0-1.41L30.41,29l6.83-6.83A6,6,0,0,0,39,17.93v-6a6,6,0,0,0-2-4.48C34.67,5.42,30.53,3,24,3S13.33,5.42,11,7.46a6,6,0,0,0-2,4.48v6a6,6,0,0,0,1.76,4.24L17.59,29,8.3,38.29A1,1,0,0,0,8.3,39.71ZM35.83,20.76,29,27.59,25.41,24l7.9-7.9a15.32,15.32,0,0,1,3.26,3.46l.05.06A4,4,0,0,1,35.83,20.76ZM24,22.59,16.38,15A15,15,0,0,1,24,13a15,15,0,0,1,7.62,2ZM11,11.94a4,4,0,0,1,1.33-3C14.39,7.15,18.09,5,24,5s9.61,2.15,11.67,4a4,4,0,0,1,1.33,3v4.93A16.82,16.82,0,0,0,24,11a16.82,16.82,0,0,0-13,5.86Zm1.17,8.82a4,4,0,0,1-.79-1.15l.05-.05a15.32,15.32,0,0,1,3.26-3.46L37.59,39,34,42.59,19.71,28.3h0ZM19,30.41,22.59,34,14,42.59,10.41,39Z" fill="#d30c0c" data-original="#000000" style="" class=""/></g></svg>
