<?xml version="1.0"?>
<svg xmlns="http://www.w3.org/2000/svg" xmlns:xlink="http://www.w3.org/1999/xlink" xmlns:svgjs="http://svgjs.com/svgjs" version="1.1" width="512" height="512" x="0" y="0" viewBox="0 0 512 512" style="enable-background:new 0 0 512 512" xml:space="preserve"><g>
<g xmlns="http://www.w3.org/2000/svg">
	<g>
		<path d="M383.75,230.5h-39.583V212c0-6.341-5.159-11.5-11.5-11.5h-36c-6.341,0-11.5,5.159-11.5,11.5v18.5H192.5v-14.58    c9.157-2.988,17.697-7.791,25.075-14.211c3.125-2.719,3.453-7.457,0.734-10.581c-2.721-3.126-7.458-3.453-10.581-0.734    C197.274,199.49,183.876,204.5,170,204.5c-31.706,0-57.5-25.794-57.5-57.5v-17.5h115V147c0,6.942-1.222,13.724-3.631,20.159    c-1.452,3.879,0.515,8.201,4.394,9.654c3.879,1.451,8.202-0.514,9.654-4.394c3.041-8.123,4.583-16.674,4.583-25.418V92    c0-4.142-3.358-7.5-7.5-7.5H105c-4.142,0-7.5,3.358-7.5,7.5v55c0,32.123,21.008,59.417,50,68.908V230.5H83.034    c-0.001,0-0.003,0-0.004,0H83c-0.268,0-0.532,0.015-0.793,0.043c-0.039,0.004-0.078,0.013-0.118,0.018    c-0.234,0.028-0.464,0.066-0.69,0.115c-0.014,0.003-0.029,0.004-0.043,0.007L8.979,246.944C3.692,248.132,0,252.746,0,258.164    v7.672c0,5.418,3.692,10.032,8.979,11.22l72.377,16.262c0.014,0.003,0.029,0.004,0.043,0.007c0.211,0.046,0.425,0.08,0.642,0.107    c0.052,0.007,0.104,0.018,0.156,0.024c0.264,0.028,0.532,0.044,0.803,0.044h20.833c4.142,0,7.5-3.358,7.5-7.5    c0-4.142-3.358-7.5-7.5-7.5H90.5v-33h293.25v0c4.142,0,7.5-3.358,7.5-7.5C391.25,233.858,387.892,230.5,383.75,230.5z M112.5,99.5    h115v15h-115V99.5z M75.5,276.628L15,263.035v-2.07l60.5-13.593V276.628z M177.5,230.5h-15v-11.387    c2.466,0.255,4.968,0.387,7.5,0.387c2.516,0,5.018-0.146,7.5-0.404V230.5z M329.167,230.5h-29v-15h29V230.5z" fill="#0b5609" data-original="#000000" style=""/>
	</g>
</g>
<g xmlns="http://www.w3.org/2000/svg">
	<g>
		<path d="M480.5,230.5H416c-4.142,0-7.5,3.358-7.5,7.5c0,4.142,3.358,7.5,7.5,7.5h11.5v33H136.167c-4.142,0-7.5,3.358-7.5,7.5    c0,4.142,3.358,7.5,7.5,7.5h11.25V326c0,4.142,3.358,7.5,7.5,7.5h30c4.142,0,7.5-3.358,7.5-7.5v-32.5H220v12.59    c0,9.6,7.81,17.41,17.41,17.41H291v59.919c-4.111,1.755-7,5.836-7,10.581v22c0,6.341,5.159,11.5,11.5,11.5h36    c6.341,0,11.5-5.159,11.5-11.5v-22c0-4.745-2.889-8.827-7-10.581V293.5h144.5c17.369,0,31.5-14.131,31.5-31.5    C512,244.631,497.869,230.5,480.5,230.5z M177.417,318.5h-15v-25h15V318.5z M237.41,308.5c-1.329,0-2.41-1.081-2.41-2.41V293.5h86    v15h-22.5H237.41z M321,323.5v59h-15v-59H321z M328,412.5h-29v-15h29V412.5z M480.5,278.5h-38v-33h38    c9.098,0,16.5,7.402,16.5,16.5S489.598,278.5,480.5,278.5z" fill="#0b5609" data-original="#000000" style=""/>
	</g>
</g>
<g xmlns="http://www.w3.org/2000/svg">
</g>
<g xmlns="http://www.w3.org/2000/svg">
</g>
<g xmlns="http://www.w3.org/2000/svg">
</g>
<g xmlns="http://www.w3.org/2000/svg">
</g>
<g xmlns="http://www.w3.org/2000/svg">
</g>
<g xmlns="http://www.w3.org/2000/svg">
</g>
<g xmlns="http://www.w3.org/2000/svg">
</g>
<g xmlns="http://www.w3.org/2000/svg">
</g>
<g xmlns="http://www.w3.org/2000/svg">
</g>
<g xmlns="http://www.w3.org/2000/svg">
</g>
<g xmlns="http://www.w3.org/2000/svg">
</g>
<g xmlns="http://www.w3.org/2000/svg">
</g>
<g xmlns="http://www.w3.org/2000/svg">
</g>
<g xmlns="http://www.w3.org/2000/svg">
</g>
<g xmlns="http://www.w3.org/2000/svg">
</g>
</g></svg>
