<?xml version="1.0"?>
<svg xmlns="http://www.w3.org/2000/svg" xmlns:xlink="http://www.w3.org/1999/xlink" xmlns:svgjs="http://svgjs.com/svgjs" version="1.1" width="512" height="512" x="0" y="0" viewBox="0 0 512 512" style="enable-background:new 0 0 512 512" xml:space="preserve"><g><path xmlns="http://www.w3.org/2000/svg" d="m394.366 381.856-60.358-34.849a40.666 40.666 0 0 0 -55.488 14.868l-2.383 4.125a24.764 24.764 0 0 1 -36.309 7.427 509.369 509.369 0 0 1 -54.128-47.127 509.16 509.16 0 0 1 -47.127-54.128 24.763 24.763 0 0 1 7.427-36.309l4.125-2.381a40.669 40.669 0 0 0 14.868-55.49l-34.847-60.36a40.387 40.387 0 0 0 -50.026-17.5l-.749.294c-29.811 11.7-50.013 20.037-58.834 28.86-24.773 24.772-27.214 67.323-6.873 119.814 18.7 48.25 54.817 100.646 101.7 147.532s99.287 83.006 147.536 101.704c23.539 9.122 45.078 13.664 63.912 13.664 23.166 0 42.238-6.87 55.9-20.534 8.823-8.821 17.155-29.023 28.86-58.835l.294-.749a40.378 40.378 0 0 0 -17.5-50.026zm-12.286 38.329-.294.75c-5.428 13.827-16.724 42.6-21.7 47.9-15.043 15.041-46.25 14.92-85.624-.337-44.191-17.125-92.656-50.684-136.462-94.498s-77.373-92.271-94.5-136.463c-15.258-39.373-15.381-70.581-.365-85.6 5.328-5 34.1-16.3 47.928-21.726l.75-.294a8.9 8.9 0 0 1 3.253-.627 8.459 8.459 0 0 1 7.364 4.341l34.848 60.359a8.632 8.632 0 0 1 -3.157 11.777l-4.121 2.383a56.762 56.762 0 0 0 -17.02 83.228 541.1 541.1 0 0 0 50.094 57.548 541.342 541.342 0 0 0 57.549 50.1 56.763 56.763 0 0 0 83.226-17.026l2.383-4.126a8.633 8.633 0 0 1 11.776-3.156l60.358 34.849a8.465 8.465 0 0 1 3.714 10.618zm17.92-295.376a16.011 16.011 0 0 0 -17.755 4.9l-76.187 92.583a16 16 0 0 0 12.354 26.167h60.188v17.71a16 16 0 0 0 32 0v-17.71h2.981a16 16 0 0 0 0-32h-2.981v-76.588a16 16 0 0 0 -10.6-15.062zm-21.4 91.644h-26.3l26.3-31.96zm-108.439-31.595c2.942-10.773 1.2-18.79-5.162-23.827-7.411-5.865-19.754-6.9-28.1-2.355-6.01 3.274-8.553 8.8-7.775 16.887a16 16 0 1 1 -31.853 3.064c-2.022-21.019 6.844-38.534 24.324-48.053 19.7-10.729 45.711-8.524 63.261 5.361 16.637 13.165 22.533 34.065 16.175 57.354-4.332 15.856-19.307 27.543-35.162 39.916-6.764 5.278-13.949 10.884-20.467 16.958h46.486a16 16 0 0 1 0 32h-79.062a16 16 0 0 1 -14.395-22.985c10.884-22.43 31.326-38.384 47.752-51.2 10.001-7.806 22.449-17.52 23.978-23.12zm241.839 23.519a207.006 207.006 0 0 1 -61.034 147.343 16 16 0 0 1 -22.627-22.627 175.216 175.216 0 0 0 51.661-124.716c0-97.253-79.124-176.377-176.378-176.377a175.221 175.221 0 0 0 -124.716 51.661 16 16 0 0 1 -22.626-22.627 207.006 207.006 0 0 1 147.342-61.034c114.899 0 208.378 93.479 208.378 208.377z" fill="#164bcb" data-original="#000000" style=""/></g></svg>
