<?xml version="1.0"?>
<svg xmlns="http://www.w3.org/2000/svg" xmlns:xlink="http://www.w3.org/1999/xlink" xmlns:svgjs="http://svgjs.com/svgjs" version="1.1" width="512" height="512" x="0" y="0" viewBox="0 0 512 512" style="enable-background:new 0 0 512 512" xml:space="preserve"><g><g xmlns="http://www.w3.org/2000/svg"><path d="m378.397 170.063c-6.028-.318-11.907.548-17.397 2.486v-97.549c0-24.813-20.187-45-45-45-5.857 0-11.449 1.136-16.586 3.181-5.205-19.096-22.691-33.181-43.414-33.181s-38.209 14.085-43.414 33.181c-5.137-2.045-10.729-3.181-16.586-3.181-24.813 0-45 20.187-45 45v7.58c-4.695-1.665-9.741-2.58-15-2.58-24.813 0-45 20.187-45 45v237.984c0 24.039 8.271 47.615 23.287 66.386 10.777 13.473 16.713 30.393 16.713 47.646v19.984c0 8.284 6.716 15 15 15h220c8.284 0 15-6.716 15-15v-19.984c0-17.252 5.936-34.173 16.713-47.646 15.016-18.771 23.287-42.347 23.287-66.386v-146.287c0-24.9-18.713-45.384-42.603-46.634zm12.603 192.921c0 17.252-5.936 34.173-16.713 47.646-15.016 18.771-23.287 42.347-23.287 66.386v4.984h-190v-4.984c0-24.039-8.271-47.615-23.287-66.386-10.777-13.473-16.713-30.393-16.713-47.646v-237.984c0-8.271 6.729-15 15-15s15 6.729 15 15v90c0 8.284 6.716 15 15 15s15-6.716 15-15v-140c0-8.271 6.729-15 15-15s15 6.729 15 15v140c0 8.284 6.716 15 15 15s15-6.716 15-15v-170c0-8.271 6.729-15 15-15s15 6.729 15 15v170c0 8.284 6.716 15 15 15s15-6.716 15-15v-140c0-8.271 6.729-15 15-15s15 6.729 15 15v230c0 8.284 6.716 15 15 15s15-6.716 15-15v-90c0-4.156 1.661-8.021 4.678-10.883 3.013-2.858 6.956-4.313 11.151-4.095 7.813.409 14.171 7.89 14.171 16.675z" fill="#e10f0f" data-original="#000000" style=""/><circle cx="286" cy="305" r="15" fill="#e10f0f" data-original="#000000" style=""/><circle cx="196" cy="265" r="15" fill="#e10f0f" data-original="#000000" style=""/><circle cx="166" cy="345" r="15" fill="#e10f0f" data-original="#000000" style=""/><circle cx="226" cy="375" r="15" fill="#e10f0f" data-original="#000000" style=""/><circle cx="336" cy="375" r="15" fill="#e10f0f" data-original="#000000" style=""/><circle cx="276" cy="435" r="15" fill="#e10f0f" data-original="#000000" style=""/></g></g></svg>
