<?xml version="1.0"?>
<svg xmlns="http://www.w3.org/2000/svg" xmlns:xlink="http://www.w3.org/1999/xlink" xmlns:svgjs="http://svgjs.com/svgjs" version="1.1" width="512" height="512" x="0" y="0" viewBox="0 0 64 64" style="enable-background:new 0 0 512 512" xml:space="preserve" class=""><g><path xmlns="http://www.w3.org/2000/svg" d="M10.618,21.244l1.015.42a21.187,21.187,0,0,0,.33,14.572l-1.326.55a1,1,0,0,0,.766,1.848l1.37-.569A21.606,21.606,0,0,0,22.9,47.949L20.337,54H12a1,1,0,0,0,0,2H52a1,1,0,0,0,0-2H43.663L41.1,47.949a21.6,21.6,0,0,0,10.137-9.914l1.377.569a1,1,0,0,0,.764-1.848l-1.334-.551a21.17,21.17,0,0,0,.307-14.573l1.009-.419a1,1,0,0,0-.768-1.846l-.967.4A21.606,21.606,0,0,0,41.291,9.141l.313-.759a1,1,0,1,0-1.848-.764l-.306.74a21.115,21.115,0,0,0-14.932.012l-.3-.734a1,1,0,0,0-1.846.768l.312.752A21.607,21.607,0,0,0,12.357,19.8l-.975-.4a1,1,0,1,0-.764,1.848ZM12.5,28.5a19.4,19.4,0,0,1,.981-6.072l9.76,4.034a8.8,8.8,0,0,0,.264,4.983L13.81,35.469A19.355,19.355,0,0,1,12.5,28.5Zm19.5-7a7.021,7.021,0,1,1-6.628,4.766l0,0v-.006A7.007,7.007,0,0,1,32,21.5Zm0,16a8.954,8.954,0,0,0,2.375-.328l4.1,9.7a19.144,19.144,0,0,1-12.954,0l4.1-9.7A8.954,8.954,0,0,0,32,37.5Zm-17.379-.2,9.75-4.047a9.052,9.052,0,0,0,3.393,3.186l-4.089,9.67A19.6,19.6,0,0,1,14.621,37.3ZM41.491,54H22.509l2.235-5.287a21.1,21.1,0,0,0,14.512,0Zm-1.166-7.893-4.089-9.67a9.068,9.068,0,0,0,3.4-3.2l9.755,4.032A19.591,19.591,0,0,1,40.325,46.107ZM51.5,28.5a19.381,19.381,0,0,1-1.3,6.941l-9.7-4.01a8.79,8.79,0,0,0,.256-4.979L50.509,22.4A19.392,19.392,0,0,1,51.5,28.5Zm-1.719-7.964-9.7,4.03A9.043,9.043,0,0,0,36.5,20.72l4.023-9.73A19.589,19.589,0,0,1,49.781,20.536ZM32,9a19.37,19.37,0,0,1,6.686,1.206l-4.011,9.7a9.009,9.009,0,0,0-5.364.005l-4.026-9.7A19.387,19.387,0,0,1,32,9Zm-8.554,2,4.039,9.724a9.052,9.052,0,0,0-3.572,3.849l-9.707-4.013A19.6,19.6,0,0,1,23.446,11Z" fill="#10970b" data-original="#000000" style=""/></g></svg>
