<?xml version="1.0"?>
<svg xmlns="http://www.w3.org/2000/svg" xmlns:xlink="http://www.w3.org/1999/xlink" xmlns:svgjs="http://svgjs.com/svgjs" version="1.1" width="512" height="512" x="0" y="0" viewBox="0 0 512 512" style="enable-background:new 0 0 512 512" xml:space="preserve" class=""><g><g xmlns="http://www.w3.org/2000/svg"><path d="m453.731 370.428-28.167-9.39v-5.844c0-5.545-4.511-10.056-10.056-10.056h-22.074c-8.111-20.003-25.557-35.321-46.671-40.603l-37.23-9.305-4.447-7.413c-2.38-3.967-6.878-6.089-11.449-5.409-2.914.433-5.465 1.946-7.224 4.146-5.556-4.854-8.826-11.87-8.826-19.403v-14.521c17.195-13.027 29.505-32.259 33.467-54.45 20.286-4.644 34.938-22.627 34.938-44.021 0-14.71-11.966-26.676-26.675-26.676h-3.192l1.8-28.205c1.659-26.009-7.247-50.799-25.079-69.806-17.836-19.005-42.009-29.472-68.071-29.472-12.309 0-24.265 2.355-35.537 6.998-3.83 1.578-5.656 5.962-4.078 9.792 1.578 3.829 5.961 5.654 9.792 4.077 9.45-3.894 19.484-5.867 29.822-5.867 21.873 0 42.162 8.785 57.128 24.736 14.966 15.952 22.441 36.757 21.048 58.586l-3.125 48.974-11.149-27.874c-.776-1.94-1.169-3.982-1.169-6.071v-21.342c0-20.284-16.503-36.787-36.787-36.787h-51.872c-20.284 0-36.786 16.503-36.786 36.787v21.344c0 2.088-.394 4.131-1.169 6.071l-11.168 27.92-3.128-49.02c-1.398-21.902 6.535-43.531 21.766-59.34 2.874-2.983 2.785-7.731-.198-10.605-2.985-2.873-7.732-2.786-10.605.198-18.146 18.836-27.598 44.605-25.933 70.702l1.801 28.22h-3.187c-14.706 0-26.671 11.964-26.671 26.671 0 21.388 14.648 39.365 34.927 44.01 3.963 22.201 16.282 41.441 33.489 54.468v14.505c0 7.578-3.301 14.574-8.827 19.403-1.759-2.2-4.31-3.712-7.224-4.146-4.575-.679-9.069 1.442-11.449 5.409l-4.445 7.409-37.239 9.31c-30.389 7.598-51.613 34.782-51.613 66.105v132.849c0 4.687 3.813 8.5 8.5 8.5 353.162 0 363.239.009 366.32.009 7.366 0 13.359-5.992 13.359-13.359v-57.31c0-7.366-5.993-13.359-13.359-13.359h-13.123v-12.611h2.62c5.545 0 10.056-4.511 10.056-10.056v-5.844l28.168-9.39c4.235-1.412 7.08-5.361 7.079-9.825 0-4.462-2.845-8.409-7.078-9.819zm-152.821-.629 11.094 22.187-46.942 37.554 31.636-126.543c1.163 1.938 25.647 42.746 27.933 46.556l-20.367 10.183c-1.779.89-3.132 2.449-3.761 4.336-.629 1.888-.483 3.948.407 5.727zm-55.711 77.342c-.201.677-.309 1.394-.309 2.136v47.713h-40.215v-47.654c.005-.663-.078-1.347-.259-2.019l-4.525-18.099c-1.004-4.018-5.08-6.461-9.095-5.457-3.081.771-5.236 3.343-5.621 6.312l-47.608-38.086 11.094-22.188c1.852-3.704.351-8.209-3.355-10.062l-20.367-10.183 27.934-46.556 23.426 93.704c1.004 4.018 5.078 6.458 9.095 5.457 4.019-1.005 6.462-5.077 5.457-9.096l-22.863-91.454c.69-.435 1.367-.889 2.028-1.364 13.962 15.536 33.824 24.409 54.769 24.409s40.806-8.874 54.768-24.409c.662.475 1.338.93 2.028 1.364zm74.115-304.657c6.437 0 11.675 5.238 11.675 11.675 0 12.469-7.447 23.204-18.343 27.798.075-1.171 2.441-38.258 2.519-39.473zm-200.743 11.685c0-6.435 5.235-11.67 11.67-11.67h4.144c.041.646 2.462 38.581 2.518 39.457-10.889-4.594-18.332-15.324-18.332-27.787zm33.71 33.218-.333-5.211 22.874-57.183c1.487-3.72 2.242-7.636 2.242-11.641v-21.343c0-12.013 9.773-21.786 21.786-21.786h51.872c12.013 0 21.786 9.773 21.786 21.786v21.344c0 4.006.754 7.922 2.242 11.641l22.855 57.136-.335 5.258c-2.426 38.011-34.148 68.015-72.494 68.015-38.396 0-70.073-30.053-72.495-68.016zm72.494 83.016c13.494 0 26.329-3.087 37.809-8.608v5.356c0 7.948 2.303 15.631 6.578 22.198-11.151 12.907-27.311 20.303-44.375 20.303s-33.225-7.397-44.376-20.303c4.275-6.567 6.578-14.249 6.578-22.198v-5.345c11.473 5.514 24.3 8.597 37.786 8.597zm-158.584 100.239c0-24.428 16.552-45.627 40.251-51.552l22.686-5.671-21.217 35.362c-1.075 1.791-1.354 3.949-.77 5.955s1.978 3.678 3.847 4.612l20.903 10.452-10.452 20.902c-1.581 3.164-.738 7.002 2.024 9.211l66.213 52.97v44.108h-67.833v-47.713c0-4.143-3.358-7.5-7.5-7.5s-7.5 3.358-7.5 7.5v47.713h-40.65v-126.349zm193.699 82.245 66.219-52.975c2.762-2.209 3.605-6.048 2.023-9.211l-10.451-20.902 20.902-10.452c1.869-.934 3.263-2.606 3.847-4.612.585-2.006.305-4.164-.77-5.955l-21.216-35.36 22.679 5.668c14.43 3.61 26.663 13.23 33.726 26.051h-14.009c-4.142 0-7.5 3.358-7.5 7.5v7.61c0 4.143 3.358 7.5 7.5 7.5s7.5-3.358 7.5-7.5v-.109h40.221v40.221h-40.221v-5.111c0-4.143-3.358-7.5-7.5-7.5s-7.5 3.358-7.5 7.5v12.611c0 4.143 3.358 7.5 7.5 7.5h7.435v13.584c-8.646 2.715-14.935 10.803-14.935 20.333v47.712h-12.61v-47.712c0-4.143-3.358-7.5-7.5-7.5s-7.5 3.358-7.5 7.5v47.712h-67.84zm116.756-9.914h6.305v26.416h-6.305c-3.477 0-6.305-2.829-6.305-6.306v-13.805c0-3.477 2.829-6.305 6.305-6.305zm-6.305 40.464c1.993.619 4.111.952 6.305.952h6.305v12.61h-12.61zm54.028 13.562h-26.416v-26.416h13.612c4.142 0 7.5-3.358 7.5-7.5 0-4.143-3.358-7.5-7.5-7.5h-13.612v-12.61h26.416zm-26.482-69.027c-2.293 0-4.409-.046-7.129 1.209-1.787-.846-3.558-1.209-5.482-1.209v-12.611h12.61v12.611zm27.676-44.323v-6.799l10.198 3.399z" fill="#097e31" data-original="#000000" style="" class=""/><path d="m259.375 217.919c2.929-2.929 2.929-7.678 0-10.607-2.928-2.929-7.678-2.93-10.607-.001-13.225 13.223-34.742 13.225-47.965 0-2.929-2.928-7.678-2.929-10.607.001-2.929 2.929-2.929 7.677 0 10.607 19.071 19.068 50.104 19.073 69.179 0z" fill="#097e31" data-original="#000000" style="" class=""/><path d="m217.668 195.287h1.913c10.918 0 19.8-8.882 19.8-19.8v-16.127c0-4.143-3.358-7.5-7.5-7.5s-7.5 3.358-7.5 7.5v16.127c0 2.647-2.153 4.799-4.8 4.799h-1.913c-4.142 0-7.5 3.358-7.5 7.5s3.358 7.501 7.5 7.501z" fill="#097e31" data-original="#000000" style="" class=""/><path d="m252.1 332.836c-17.389 5.801-36.609 6.012-54.633-.001-3.93-1.312-8.178.811-9.489 4.741-1.311 3.929.812 8.177 4.741 9.488 20.376 6.798 42.924 7.074 64.127.001 3.929-1.311 6.052-5.559 4.741-9.488-1.309-3.93-5.556-6.053-9.487-4.741z" fill="#097e31" data-original="#000000" style="" class=""/></g></g></svg>
