<?xml version="1.0" encoding="UTF-8"?>
<svg width="32px" height="32px" viewBox="0 0 32 32" version="1.1" xmlns="http://www.w3.org/2000/svg" xmlns:xlink="http://www.w3.org/1999/xlink">
    <!-- Generator: Sketch 44.1 (41455) - http://www.bohemiancoding.com/sketch -->
    <title>Metarubrick / B2B / automatisation</title>
    <desc>Created with Sketch.</desc>
    <defs></defs>
    <g id="Page-1" stroke="none" stroke-width="1" fill="none" fill-rule="evenodd">
        <g id="New-meta-draft" transform="translate(-484.000000, -3784.000000)">
            <g id="Slice" transform="translate(84.000000, 84.000000)"></g>
            <g id="Icon" transform="translate(51.000000, 42.000000)" stroke="#8345FE" stroke-width="2">
                <g id="B2B" transform="translate(12.000000, 3693.000000)">
                    <g id="Automatisation" transform="translate(423.000000, 52.000000)">
                        <path d="M0,26 L28,26" id="Stroke-1"></path>
                        <path d="M11,26 L11,16 C11,14.896 10.104,14 9,14 L5,14 C3.896,14 3,14.896 3,16 L3,26" id="Stroke-3"></path>
                        <polyline id="Stroke-5" points="5 14 5 0 9 0 9 14"></polyline>
                        <path d="M0,3 L5,3" id="Stroke-7"></path>
                        <path d="M22,6 L22,14" id="Stroke-9"></path>
                        <path d="M12,3 L19,3" id="Stroke-11"></path>
                        <path d="M25,3 C25,1.343 23.657,0 22,0 C20.343,0 19,1.343 19,3 C19,4.657 20.343,6 22,6 C23.657,6 25,4.657 25,3 Z" id="Stroke-13"></path>
                        <path d="M20,20 L18.74,18.74 C17.779,17.779 17.779,16.221 18.74,15.26 L20,14 L24,14 L25.26,15.26 C26.221,16.221 26.221,17.779 25.26,18.74 L24,20" id="Stroke-15"></path>
                    </g>
                </g>
            </g>
        </g>
    </g>
</svg>