<?xml version="1.0"?>
<svg xmlns="http://www.w3.org/2000/svg" xmlns:xlink="http://www.w3.org/1999/xlink" xmlns:svgjs="http://svgjs.com/svgjs" version="1.1" width="512" height="512" x="0" y="0" viewBox="0 0 128 128" style="enable-background:new 0 0 512 512" xml:space="preserve" class=""><g><g xmlns="http://www.w3.org/2000/svg"><path d="m103.212 38.073c0-5.542-1.15-8.988-3.622-10.844-3.729-2.8-9.3-1.187-16.342.857-5.748 1.666-12.254 3.554-19.248 3.554s-13.5-1.888-19.248-3.554c-7.046-2.044-12.611-3.656-16.342-.857-2.472 1.856-3.622 5.3-3.622 10.844a39.044 39.044 0 0 0 13.637 29.705 26.73 26.73 0 1 0 51.15 0 39.045 39.045 0 0 0 13.637-29.705zm-39.212 60.693a23.223 23.223 0 0 1 -14.526-41.348 15.616 15.616 0 0 0 1.306 2.508 20.459 20.459 0 1 0 33.681 15.609 20.3 20.3 0 0 0 -7.239-15.612 15.628 15.628 0 0 0 1.3-2.506 23.224 23.224 0 0 1 -14.522 41.349zm16.961-23.231a16.961 16.961 0 1 1 -33.922 0 16.811 16.811 0 0 1 .126-2.049 39.238 39.238 0 0 0 33.674.006 17.28 17.28 0 0 1 .122 2.043zm-16.961-1.75a35.784 35.784 0 0 1 -16.014-3.8 17.048 17.048 0 0 1 4.987-7.327 15.653 15.653 0 0 0 22.06 0 16.843 16.843 0 0 1 5 7.323 35.766 35.766 0 0 1 -16.033 3.804zm0-10.085a12.191 12.191 0 1 1 12.19-12.19 12.2 12.2 0 0 1 -12.19 12.19zm15.508-9.924a15.69 15.69 0 1 0 -31.016 0 26.739 26.739 0 0 0 -8.738 10.507 35.551 35.551 0 0 1 -11.466-26.21c0-4.23.748-6.937 2.224-8.046 2.332-1.751 7.4-.282 13.265 1.42 5.673 1.645 12.732 3.693 20.223 3.693s14.55-2.048 20.223-3.693c5.866-1.7 10.934-3.171 13.265-1.42 1.476 1.109 2.224 3.816 2.224 8.046a35.552 35.552 0 0 1 -11.466 26.21 26.722 26.722 0 0 0 -8.738-10.507z" fill="#1b7d93" data-original="#000000" style=""/><circle cx="39.215" cy="42.375" r="2.375" fill="#1b7d93" data-original="#000000" style=""/><circle cx="88.785" cy="42.375" r="2.375" fill="#1b7d93" data-original="#000000" style=""/></g></g></svg>
