<?xml version="1.0"?>
<svg xmlns="http://www.w3.org/2000/svg" xmlns:xlink="http://www.w3.org/1999/xlink" xmlns:svgjs="http://svgjs.com/svgjs" version="1.1" width="512" height="512" x="0" y="0" viewBox="0 0 512 512" style="enable-background:new 0 0 512 512" xml:space="preserve" class=""><g>
<g xmlns="http://www.w3.org/2000/svg">
	<g>
		<path d="M485.167,139.661h-39.674c-2.701-11.751-13.238-20.543-25.796-20.543h-9.851c-14.599,0-26.476,11.876-26.476,26.476v0.891    h-12.055c-6.626,0-12.016,5.391-12.016,12.016v66.048H231.967c-4.329,0-7.837,3.508-7.837,7.837s3.508,7.837,7.837,7.837h127.331    v31.555H152.701v-31.556h29.111c4.329,0,7.837-3.508,7.837-7.837c0-4.329-3.508-7.837-7.837-7.837h-29.111v-66.048    c0-6.626-5.391-12.016-12.016-12.016H128.63v-0.891c0-14.599-11.876-26.476-26.476-26.476h-9.851    c-12.559,0-23.095,8.793-25.796,20.543H26.833C12.037,139.661,0,151.698,0,166.494v103.612c0,4.329,3.508,7.837,7.837,7.837    c4.329,0,7.837-3.508,7.837-7.837V166.494c0-6.153,5.006-11.159,11.16-11.159h38.995v201.331H26.833    c-6.153,0-11.16-5.006-11.16-11.159v-24.2c0-4.329-3.508-7.837-7.837-7.837c-4.329,0-7.837,3.508-7.837,7.837v24.2    c0,14.796,12.037,26.833,26.833,26.833h39.674c2.701,11.75,13.238,20.543,25.796,20.543h9.851    c14.599,0,26.476-11.876,26.476-26.476v-0.891h12.055c6.626,0,12.016-5.391,12.016-12.016v-66.047h206.597v9.644    c0,4.329,3.508,7.837,7.837,7.837c4.329,0,7.837-3.508,7.837-7.837V162.158h8.398v187.685h-8.398v-7.815    c0-4.329-3.508-7.837-7.837-7.837c-4.329,0-7.837,3.508-7.837,7.837v11.472c0,6.626,5.391,12.016,12.016,12.016h12.055v0.891    c0,14.599,11.876,26.476,26.476,26.476h9.851c12.559,0,23.095-8.793,25.796-20.543h39.674c14.796,0,26.833-12.037,26.833-26.833    V166.494C512,151.698,499.963,139.661,485.167,139.661z M112.957,154.26c0,0.021-0.003,0.041-0.003,0.061    c0,0.02,0.003,0.041,0.003,0.061v203.236c0,0.021-0.003,0.041-0.003,0.061c0,0.02,0.003,0.041,0.003,0.061v8.666    c0,5.957-4.846,10.803-10.802,10.803h-9.851c-5.956,0-10.802-4.846-10.802-10.802v-1.884c0-0.007,0.001-0.014,0.001-0.02    c0-0.006-0.001-0.014-0.001-0.02V147.518c0-0.007,0.001-0.014,0.001-0.02s-0.001-0.014-0.001-0.02v-1.884    c0-5.956,4.846-10.802,10.802-10.802h9.851c5.956,0,10.802,4.846,10.802,10.802V154.26z M137.028,349.842h-8.398V162.158h8.398    V349.842z M430.499,147.479c0,0.007-0.001,0.014-0.001,0.02c0,0.006,0.001,0.014,0.001,0.02v216.964    c0,0.007-0.001,0.014-0.001,0.02s0.001,0.014,0.001,0.02v1.884c0,5.956-4.846,10.802-10.802,10.802h-9.851    c-5.956,0-10.802-4.846-10.802-10.802v-8.666c0-0.021,0.003-0.041,0.003-0.061c0-0.02-0.003-0.041-0.003-0.061V154.383    c0-0.021,0.003-0.041,0.003-0.061s-0.003-0.041-0.003-0.061v-8.666c0-5.956,4.846-10.802,10.802-10.802h9.851    c5.956,0,10.802,4.846,10.802,10.802V147.479z M496.327,345.506c0,6.153-5.006,11.159-11.16,11.159h-38.995V155.335h38.995    c6.153,0,11.16,5.006,11.16,11.159V345.506z" fill="#727610" data-original="#000000" style=""/>
	</g>
</g>
<g xmlns="http://www.w3.org/2000/svg">
</g>
<g xmlns="http://www.w3.org/2000/svg">
</g>
<g xmlns="http://www.w3.org/2000/svg">
</g>
<g xmlns="http://www.w3.org/2000/svg">
</g>
<g xmlns="http://www.w3.org/2000/svg">
</g>
<g xmlns="http://www.w3.org/2000/svg">
</g>
<g xmlns="http://www.w3.org/2000/svg">
</g>
<g xmlns="http://www.w3.org/2000/svg">
</g>
<g xmlns="http://www.w3.org/2000/svg">
</g>
<g xmlns="http://www.w3.org/2000/svg">
</g>
<g xmlns="http://www.w3.org/2000/svg">
</g>
<g xmlns="http://www.w3.org/2000/svg">
</g>
<g xmlns="http://www.w3.org/2000/svg">
</g>
<g xmlns="http://www.w3.org/2000/svg">
</g>
<g xmlns="http://www.w3.org/2000/svg">
</g>
</g></svg>
