<svg id="outline" height="512" viewBox="0 0 512 512" width="512" xmlns="http://www.w3.org/2000/svg"><g><path d="m483.788 278.801c1.288.798 2.749 1.199 4.212 1.199 1.34 0 2.681-.336 3.893-1.011 2.535-1.412 4.107-4.087 4.107-6.989v-51c0-2.77-1.433-5.343-3.788-6.801l-36.212-22.427v-79.772c0-4.418-3.582-8-8-8h-48c-4.418 0-8 3.582-8 8v40.136l-75.788-46.937c-2.58-1.599-5.844-1.599-8.424 0l-115.863 71.756c.235-1.95-.235-3.953-1.415-5.605l-80-112c-1.502-2.102-3.926-3.35-6.51-3.35s-5.008 1.248-6.51 3.35l-80 112c-1.742 2.438-1.975 5.646-.604 8.311s4.117 4.339 7.114 4.339h30.165l-36.675 51.351c-1.742 2.438-1.975 5.646-.604 8.31 1.372 2.664 4.117 4.339 7.114 4.339h30.165l-36.675 51.351c-1.742 2.438-1.975 5.646-.604 8.31 1.372 2.664 4.117 4.339 7.114 4.339h56v72 8h-16v-8c0-2.122-.843-4.157-2.343-5.657l-16-16c-3.125-3.124-8.189-3.124-11.314 0l-16 16c-1.5 1.5-2.343 3.535-2.343 5.657v64c0 4.418 3.582 8 8 8h32c4.418 0 8-3.582 8-8v-8h16v8c0 4.418 3.582 8 8 8h32c4.418 0 8-3.582 8-8v-8h16v8c0 4.418 3.582 8 8 8h336c4.418 0 8-3.582 8-8v-22.28c0-9.771-7.949-17.72-17.72-17.72h-22.28v-146.408zm-435.788 161.199h-16v-52.687l8-8 8 8zm32-16h-16v-16h16zm328-304h32v16h-32zm0 32h32v29.863l-32-19.818zm-296 288h-16v-52.687l8-8 8 8zm0-75.314-2.343-2.343c-3.125-3.124-8.189-3.124-11.314 0l-2.343 2.343v-52.686h16zm-72.455-68.686 36.675-51.351c1.742-2.438 1.975-5.646.604-8.31-1.372-2.664-4.117-4.339-7.114-4.339h-30.165l36.675-51.351c1.742-2.438 1.975-5.646.604-8.31-1.372-2.664-4.117-4.339-7.114-4.339h-30.164l64.454-90.236 64.454 90.236h-30.164c-2.996 0-5.742 1.675-7.113 4.339-1.371 2.665-1.139 5.872.603 8.31l16.614 23.266-16.605 10.284c-2.356 1.458-3.789 4.031-3.789 6.801v51c0 2.902 1.572 5.577 4.107 6.989s5.638 1.341 8.104-.188l27.789-17.209v34.408zm141.004-112-18.524 11.472-8.192-11.472zm-36.549 240h-16v-16h16zm2.343-45.657c-1.5 1.5-2.343 3.535-2.343 5.657v8h-16v-8-72h40v48c-2.047 0-4.095.781-5.657 2.343zm29.657 61.657h-16v-52.687l8-8 2.341 2.341c.001.001.003.003.004.004l5.655 5.655zm104 0h-64v-96h64zm160 0h-80v-14.28c0-.949.771-1.72 1.72-1.72h78.28zm0-32h-78.28c-9.771 0-17.72 7.949-17.72 17.72v14.28h-48v-104c0-4.418-3.582-8-8-8h-80c-4.418 0-8 3.582-8 8v104h-8v-56c0-2.122-.843-4.157-2.343-5.657l-5.657-5.657v-121.003l128-79.272 128 79.272zm38.28 16c.948 0 1.72.771 1.72 1.72v14.28h-24v-16zm-162.068-267.801c-1.29-.799-2.751-1.199-4.212-1.199s-2.922.399-4.212 1.199l-163.788 101.436v-32.18l168-104.045 168 104.045v32.18z"/><path d="m312 296v32 64c0 4.418 3.582 8 8 8h96c4.418 0 8-3.582 8-8v-64-32c0-4.418-3.582-8-8-8h-96c-4.418 0-8 3.582-8 8zm16 8h80v16h-80zm0 32h80v48h-80z"/><path d="m264.02 400c4.419 0 8-3.582 8-8s-3.581-8-8-8h-.01c-4.418 0-7.995 3.582-7.995 8s3.587 8 8.005 8z"/><path d="m272 240v32c0 4.418 3.582 8 8 8h64c4.418 0 8-3.582 8-8v-32c0-22.056-17.944-40-40-40s-40 17.944-40 40zm32 24h-16v-24c0-10.429 6.689-19.321 16-22.624zm16-46.624c9.311 3.303 16 12.195 16 22.624v24h-16z"/></g></svg>