<?xml version="1.0" encoding="UTF-8"?>
<svg width="32px" height="32px" viewBox="0 0 32 32" version="1.1" xmlns="http://www.w3.org/2000/svg" xmlns:xlink="http://www.w3.org/1999/xlink">
    <!-- Generator: Sketch 44.1 (41455) - http://www.bohemiancoding.com/sketch -->
    <title>Metarubrick / Beauty / beauty_salons</title>
    <desc>Created with Sketch.</desc>
    <defs></defs>
    <g id="Page-1" stroke="none" stroke-width="1" fill="none" fill-rule="evenodd">
        <g id="New-meta-draft" transform="translate(-284.000000, -984.000000)">
            <g id="Slice" transform="translate(84.000000, 84.000000)"></g>
            <g id="Icon" transform="translate(51.000000, 42.000000)" stroke="#7B41EF" stroke-width="2">
                <g id="Beauty" transform="translate(0.000000, 893.000000)">
                    <g id="Cosmetologist" transform="translate(236.000000, 51.000000)">
                        <path d="M22,9 C22,4.029 17.971,0 13,0 C8.029,0 4,4.029 4,9 C4,13.971 8.029,18 13,18 C17.971,18 22,13.971 22,9 Z" id="Stroke-1"></path>
                        <path d="M13,5 C10.791,5 9,6.791 9,9" id="Stroke-3"></path>
                        <path d="M0,8 L0,9 C0,16.18 5.82,22 13,22 C20.18,22 26,16.18 26,9 L26,8" id="Stroke-5"></path>
                        <path d="M13,22 L13,27" id="Stroke-7"></path>
                        <path d="M6,27 L20,27" id="Stroke-9"></path>
                    </g>
                </g>
            </g>
        </g>
    </g>
</svg>