<?xml version="1.0"?>
<svg xmlns="http://www.w3.org/2000/svg" xmlns:xlink="http://www.w3.org/1999/xlink" xmlns:svgjs="http://svgjs.com/svgjs" version="1.1" width="512" height="512" x="0" y="0" viewBox="0 0 512 512" style="enable-background:new 0 0 512 512" xml:space="preserve" class=""><g>
<g xmlns="http://www.w3.org/2000/svg">
	<g>
		<path d="M421,210c-11.274,0-21.829,3.131-30.849,8.561c-0.07-0.199-0.14-0.399-0.218-0.594C408.953,201.453,421,177.107,421,150    c0-49.626-40.374-90-90-90c-3.367,0-6.745,0.225-10.237,0.69C303.712,23.898,267.14,0,226,0s-77.712,23.898-94.763,60.69    C127.745,60.225,124.367,60,121,60c-49.626,0-90,40.374-90,90c0,26.595,11.599,50.529,30,67.02V437c0,41.355,33.645,75,75,75h180    c38.534,0,70.359-29.215,74.524-66.655l63.758-42.505C471.012,391.686,481,373.023,481,352.917V270    C481,236.916,454.084,210,421,210z M361,437c0,24.813-20.187,45-45,45H136c-24.813,0-45-20.187-45-45V234.852    c9.388,3.329,19.485,5.148,30,5.148v15c0,19.555,12.541,36.228,30,42.42V407c0,8.284,6.716,15,15,15s15-6.716,15-15V297.42    c17.459-6.192,30-22.865,30-42.42v-16.521c4.916,1.007,9.942,1.521,15,1.521c18.557,0,36.306-6.963,49.926-19.159    C291.646,233.155,311.01,240,331,240c10.515,0,20.612-1.819,30-5.148C361,250.12,361,427.851,361,437z M331,210    c-17.182,0-33.074-7.276-44.751-20.486c-3.038-3.438-7.469-5.297-12.065-5.043c-4.581,0.253-8.795,2.588-11.438,6.34    C254.282,202.826,240.546,210,226,210c-7.897,0-15.659-2.091-22.446-6.047c-4.64-2.704-10.37-2.722-15.027-0.047    c-4.655,2.676-7.526,7.636-7.526,13.006V255c0,8.271-6.729,15-15,15s-15-6.729-15-15v-31.533c0-8.281-6.72-15-15-15    c-3.378,0-6.517,1.534-15,1.534c-33.084,0-60-26.916-60-60S87.916,90,121,90c4.692,0,9.671,0.76,15.669,2.391    c7.753,2.11,15.801-2.272,18.233-9.936C164.861,51.08,193.434,30,226,30s61.139,21.08,71.098,52.455    c2.434,7.663,10.474,12.046,18.233,9.936C321.329,90.76,326.308,90,331,90c33.084,0,60,26.916,60,60S364.084,210,331,210z     M451,352.917c0,10.053-4.994,19.385-13.358,24.961L391,408.972V270c0-16.542,13.458-30,30-30s30,13.458,30,30V352.917z" fill="#dbac1f" data-original="#000000" style="" class=""/>
	</g>
</g>
<g xmlns="http://www.w3.org/2000/svg">
	<g>
		<path d="M286,270c-8.284,0-15,6.716-15,15v122c0,8.284,6.716,15,15,15s15-6.716,15-15V285C301,276.716,294.284,270,286,270z" fill="#dbac1f" data-original="#000000" style="" class=""/>
	</g>
</g>
<g xmlns="http://www.w3.org/2000/svg">
</g>
<g xmlns="http://www.w3.org/2000/svg">
</g>
<g xmlns="http://www.w3.org/2000/svg">
</g>
<g xmlns="http://www.w3.org/2000/svg">
</g>
<g xmlns="http://www.w3.org/2000/svg">
</g>
<g xmlns="http://www.w3.org/2000/svg">
</g>
<g xmlns="http://www.w3.org/2000/svg">
</g>
<g xmlns="http://www.w3.org/2000/svg">
</g>
<g xmlns="http://www.w3.org/2000/svg">
</g>
<g xmlns="http://www.w3.org/2000/svg">
</g>
<g xmlns="http://www.w3.org/2000/svg">
</g>
<g xmlns="http://www.w3.org/2000/svg">
</g>
<g xmlns="http://www.w3.org/2000/svg">
</g>
<g xmlns="http://www.w3.org/2000/svg">
</g>
<g xmlns="http://www.w3.org/2000/svg">
</g>
</g></svg>
