<?xml version="1.0"?>
<svg xmlns="http://www.w3.org/2000/svg" xmlns:xlink="http://www.w3.org/1999/xlink" xmlns:svgjs="http://svgjs.com/svgjs" version="1.1" width="512" height="512" x="0" y="0" viewBox="0 0 512 512" style="enable-background:new 0 0 512 512" xml:space="preserve" class=""><g>
<g xmlns="http://www.w3.org/2000/svg">
	<g>
		<g>
			<path d="M437.016,74.984C388.663,26.63,324.376,0.001,256,0.001c-49.732,0-97.957,14.278-139.463,41.292l8.204,12.607     C163.8,28.477,209.188,15.042,256,15.042c132.865,0,240.959,108.094,240.959,240.959S388.865,496.959,256,496.959     S15.041,388.865,15.041,256.001c0-74.959,33.997-144.36,93.275-190.407L99.09,53.715c-30.158,23.426-55.106,53.805-72.149,87.855     C9.064,177.284,0,215.783,0,256.001c0,68.376,26.63,132.663,74.983,181.017C123.337,485.371,187.623,512,256,512     s132.663-26.63,181.017-74.982C485.371,388.663,512,324.377,512,256.001S485.37,123.337,437.016,74.984z" fill="#e31313" data-original="#000000" style="" class=""/>
			<path d="M405.653,275.661c22.059-22.516,34.208-52.271,34.208-83.785c0-66.024-53.713-119.737-119.737-119.737     s-119.737,53.713-119.737,119.737S254.1,311.614,320.124,311.614c24.63,0,48.292-7.426,68.428-21.477l-8.608-12.335     c-17.599,12.28-38.285,18.77-59.821,18.77c-57.729,0-104.696-46.967-104.696-104.696c0-57.729,46.967-104.697,104.696-104.697     c57.729,0,104.696,46.967,104.696,104.696c0,27.554-10.623,53.572-29.911,73.259L405.653,275.661z" fill="#e31313" data-original="#000000" style="" class=""/>
			<path d="M351.691,159.815c0-12.987-10.565-23.552-23.551-23.552h-16.03c-12.987,0-23.552,10.565-23.552,23.552v16.03     c0,6.189,2.403,11.823,6.319,16.031c-3.917,4.208-6.319,9.843-6.319,16.031v16.031c0,12.986,10.565,23.551,23.552,23.551h16.03     c12.987,0,23.551-10.565,23.551-23.551v-16.031c0-6.189-2.403-11.823-6.319-16.031c3.917-4.208,6.319-9.843,6.319-16.031V159.815     z M303.598,159.815c0-4.693,3.818-8.51,8.51-8.51h16.03c4.693,0,8.51,3.818,8.51,8.51v16.03c0,4.693-3.818,8.51-8.51,8.51h-16.03     c-4.693,0-8.51-3.818-8.51-8.51V159.815z M336.65,223.939c0,4.693-3.818,8.509-8.51,8.509h-16.03c-4.693,0-8.51-3.817-8.51-8.509     v-16.031c0-4.693,3.818-8.51,8.51-8.51h16.03c4.693,0,8.51,3.818,8.51,8.51V223.939z" fill="#e31313" data-original="#000000" style="" class=""/>
			<path d="M79.165,256.001H64.124c0,105.801,86.076,191.876,191.876,191.876v-15.041     C158.493,432.835,79.165,353.508,79.165,256.001z" fill="#e31313" data-original="#000000" style="" class=""/>
			<rect x="64.124" y="223.934" width="15.041" height="16.03" fill="#e31313" data-original="#000000" style="" class=""/>
			<rect x="64.124" y="191.876" width="15.041" height="16.031" fill="#e31313" data-original="#000000" style="" class=""/>
			<rect x="247.989" y="184.355" width="16.03" height="15.041" fill="#e31313" data-original="#000000" style="" class=""/>
			<rect x="376.23" y="184.355" width="16.03" height="15.041" fill="#e31313" data-original="#000000" style="" class=""/>
		</g>
	</g>
</g>
<g xmlns="http://www.w3.org/2000/svg">
</g>
<g xmlns="http://www.w3.org/2000/svg">
</g>
<g xmlns="http://www.w3.org/2000/svg">
</g>
<g xmlns="http://www.w3.org/2000/svg">
</g>
<g xmlns="http://www.w3.org/2000/svg">
</g>
<g xmlns="http://www.w3.org/2000/svg">
</g>
<g xmlns="http://www.w3.org/2000/svg">
</g>
<g xmlns="http://www.w3.org/2000/svg">
</g>
<g xmlns="http://www.w3.org/2000/svg">
</g>
<g xmlns="http://www.w3.org/2000/svg">
</g>
<g xmlns="http://www.w3.org/2000/svg">
</g>
<g xmlns="http://www.w3.org/2000/svg">
</g>
<g xmlns="http://www.w3.org/2000/svg">
</g>
<g xmlns="http://www.w3.org/2000/svg">
</g>
<g xmlns="http://www.w3.org/2000/svg">
</g>
</g></svg>
