<?xml version="1.0"?>
<svg xmlns="http://www.w3.org/2000/svg" xmlns:xlink="http://www.w3.org/1999/xlink" xmlns:svgjs="http://svgjs.com/svgjs" version="1.1" width="512" height="512" x="0" y="0" viewBox="0 0 512 512" style="enable-background:new 0 0 512 512" xml:space="preserve" class=""><g><g xmlns="http://www.w3.org/2000/svg"><g><path d="m357.017 373c-17.504 0-31.744 14.24-31.744 31.744s14.24 31.744 31.744 31.744c17.503 0 31.743-14.24 31.743-31.744s-14.24-31.744-31.743-31.744zm0 48.488c-9.232 0-16.744-7.512-16.744-16.744s7.511-16.744 16.744-16.744 16.743 7.512 16.743 16.744-7.511 16.744-16.743 16.744z" fill="#0d9936" data-original="#000000" style=""/><path d="m504.5 408.356h-59.251c.049-1.199.08-2.402.08-3.612 0-48.695-39.617-88.312-88.312-88.312-48.696 0-88.313 39.617-88.313 88.312 0 1.21.031 2.414.08 3.612h-17.404v-16.746c0-8.591-6.989-15.58-15.58-15.58h-91.5v-62.42c0-1.534.551-3.017 1.559-4.181l7.53-8.729c6.257-7.223 6.937-17.834 1.651-25.807l-7.96-12c-1.162-1.752-1.393-3.958-.614-5.904l5.756-14.419c.498-1.244 1.35-2.281 2.468-3.002l7.742-5.001c2.998-1.938 5.481-4.618 7.172-7.737 1.705-3.126 2.606-6.664 2.606-10.231 0-3.523 2.866-6.39 6.39-6.39h97.6c2.548 0 4.921-1.293 6.302-3.434l68.88-106.76c6.087-9.435 16.423-15.066 27.648-15.066h35.14c4.143 0 7.5-3.357 7.5-7.5s-3.357-7.5-7.5-7.5h-35.14c-16.343 0-31.391 8.199-40.252 21.934l-66.665 103.327h-93.513c-11.794 0-21.39 9.596-21.39 21.39 0 1.065-.268 2.12-.783 3.065-.505.931-1.244 1.729-2.136 2.305l-7.735 4.997c-3.74 2.411-6.596 5.878-8.262 10.033l-5.759 14.427c-2.604 6.517-1.839 13.903 2.045 19.759l7.959 11.998c1.576 2.379 1.376 5.544-.498 7.707l-7.533 8.732c-3.358 3.882-5.208 8.85-5.208 13.987v62.42h-4.62c-8.591 0-15.58 6.989-15.58 15.58v26.27c0 8.591 6.989 15.58 15.58 15.58h20.561c4.143 0 7.5-3.357 7.5-7.5s-3.357-7.5-7.5-7.5h-20.561c-.32 0-.58-.26-.58-.58v-26.27c0-.32.26-.58.58-.58h111.12c.32 0 .58.26.58.58v26.27c0 .32-.26.58-.58.58h-55.56c-4.143 0-7.5 3.357-7.5 7.5s3.357 7.5 7.5 7.5h55.56c6.662 0 12.344-4.21 14.567-10.104h20.316c8.57 39.788 44.021 69.701 86.333 69.701s77.763-29.913 86.333-69.701h61.151c4.143 0 7.5-3.357 7.5-7.5s-3.357-7.5-7.5-7.5zm-147.483 69.702c-40.425 0-73.313-32.889-73.313-73.313s32.889-73.312 73.313-73.312 73.312 32.888 73.312 73.312-32.888 73.313-73.312 73.313z" fill="#0d9936" data-original="#000000" style=""/><path d="m504.5 217.89h-117.32c-4.143 0-7.5 3.357-7.5 7.5s3.357 7.5 7.5 7.5h117.32c4.143 0 7.5-3.357 7.5-7.5s-3.357-7.5-7.5-7.5z" fill="#0d9936" data-original="#000000" style=""/><path d="m504.5 102.28h-125.47c-5.311 0-10.203 2.665-13.092 7.134l-54.995 85.237c-2.469 3.836-3.773 8.269-3.773 12.818v9.84c0 8.591 6.989 15.58 15.58 15.58h29.43c4.143 0 7.5-3.357 7.5-7.5s-3.357-7.5-7.5-7.5h-29.43c-.325 0-.58-.255-.58-.58v-9.84c0-1.665.479-3.291 1.382-4.693l54.987-85.225c.116-.18.281-.271.491-.271h125.47c4.143 0 7.5-3.357 7.5-7.5s-3.357-7.5-7.5-7.5z" fill="#0d9936" data-original="#000000" style=""/><path d="m451.972 265.312h32.325c4.143 0 7.5-3.357 7.5-7.5s-3.357-7.5-7.5-7.5h-32.325c-4.143 0-7.5 3.357-7.5 7.5s3.357 7.5 7.5 7.5z" fill="#0d9936" data-original="#000000" style=""/><path d="m449.17 84.95h55.33c4.143 0 7.5-3.357 7.5-7.5s-3.357-7.5-7.5-7.5h-55.33c-4.143 0-7.5 3.357-7.5 7.5s3.357 7.5 7.5 7.5z" fill="#0d9936" data-original="#000000" style=""/><path d="m120.481 121.257c3.038 3.037 7.028 4.556 11.018 4.556s7.98-1.519 11.019-4.556l22.856-22.857c2.943-2.942 4.564-6.855 4.564-11.018s-1.621-8.075-4.563-11.019l-52.857-52.857c-2.943-2.942-6.856-4.563-11.019-4.563s-8.075 1.621-11.018 4.563l-22.857 22.857c-6.075 6.075-6.075 15.961 0 22.036l9.696 9.696-70.39 70.39c-4.468 4.47-6.93 10.412-6.93 16.733s2.462 12.264 6.931 16.731c4.469 4.47 10.411 6.932 16.732 6.932 6.32 0 12.263-2.462 16.731-6.931l70.391-70.39zm-42.25-64.286 22.857-22.858c.042-.042.17-.17.41-.17.241 0 .369.128.411.171l52.857 52.857c.043.042.171.17.171.411 0 .24-.128.368-.171.41l-22.857 22.857c-.227.228-.595.226-.821 0l-52.857-52.857c-.227-.227-.227-.595 0-.821zm-48.444 114.373c-1.636 1.636-3.811 2.537-6.124 2.537-2.314 0-4.489-.901-6.126-2.538-1.636-1.636-2.537-3.811-2.537-6.125 0-2.313.901-4.489 2.538-6.125l70.39-70.39 12.25 12.25z" fill="#0d9936" data-original="#000000" style=""/><path d="m95.376 177.699c-2.929 2.93-2.929 7.678 0 10.607l11.429 11.429c1.465 1.464 3.385 2.196 5.304 2.196s3.839-.732 5.304-2.196c2.929-2.93 2.929-7.678 0-10.607l-11.429-11.429c-2.93-2.928-7.678-2.928-10.608 0z" fill="#0d9936" data-original="#000000" style=""/><path d="m132.64 170.239v16.162c0 4.143 3.357 7.5 7.5 7.5s7.5-3.357 7.5-7.5v-16.162c0-4.143-3.357-7.5-7.5-7.5s-7.5 3.358-7.5 7.5z" fill="#0d9936" data-original="#000000" style=""/><path d="m111.578 222.463c0-4.143-3.357-7.5-7.5-7.5h-16.162c-4.143 0-7.5 3.357-7.5 7.5s3.357 7.5 7.5 7.5h16.162c4.143 0 7.5-3.358 7.5-7.5z" fill="#0d9936" data-original="#000000" style=""/><path d="m172.543 336.154c1.433 1.287 3.224 1.921 5.009 1.921 2.055 0 4.102-.839 5.582-2.488l15.154-16.87c1.723-1.917 4.188-3.017 6.766-3.017h12.758c6.437 0 12.487-2.507 17.037-7.057l9.877-9.877c2.929-2.93 2.929-7.678 0-10.607-2.93-2.928-7.678-2.928-10.607 0l-9.877 9.878c-1.717 1.718-4 2.663-6.43 2.663h-12.758c-6.828 0-13.361 2.913-17.924 7.993l-15.154 16.87c-2.769 3.082-2.515 7.824.567 10.591z" fill="#0d9936" data-original="#000000" style=""/><path d="m207.71 283.818c6.435 0 12.484-2.506 17.037-7.056l9.877-9.877c2.929-2.93 2.929-7.678 0-10.607-2.93-2.928-7.678-2.928-10.607 0l-9.876 9.877c-1.718 1.717-4.002 2.663-6.431 2.663h-20.157c-4.143 0-7.5 3.357-7.5 7.5s3.357 7.5 7.5 7.5z" fill="#0d9936" data-original="#000000" style=""/></g></g></g></svg>
