<?xml version="1.0"?>
<svg xmlns="http://www.w3.org/2000/svg" xmlns:xlink="http://www.w3.org/1999/xlink" xmlns:svgjs="http://svgjs.com/svgjs" version="1.1" width="512" height="512" x="0" y="0" viewBox="0 0 399.463 399.463" style="enable-background:new 0 0 512 512" xml:space="preserve" class=""><g>
<g xmlns="http://www.w3.org/2000/svg">
	<g id="Layer_1_66_">
		<g>
			<path d="M358.468,138.171c-9.26-30.963-24.047-68.785-53.213-85.385c-28.479-17.752-68.779-12.762-100.418-6.172     C144.761,59.126,85.286,78.198,26.966,97.165c-12.834,4.174-26.715,14.682-26.963,29.523     c-0.246,14.807,15.314,22.66,28.434,21.943c33.426-1.822,66.469-9.023,99.77-12.445c15.549-1.598,55.201-5.826,87.143-3.941     c12.908,0.672,30.289,2.354,49.965,6.318c40.414,8.139,76.176,23.18,105.279,44.07     C366.871,167.689,362.857,152.849,358.468,138.171z" fill="#e31414" data-original="#000000" style="" class=""/>
			<path d="M398.646,318.668c-6.23-33.961-12.607-68.256-20.129-102.24c-32.695-31.092-73.34-46.721-105.447-54.563     c18.828,27.434,36.492,70.455,43.082,86.328c12.836,30.916,22.227,63.406,36.527,93.672c5.613,11.879,19.926,21.828,32.83,14.564     C398.447,349.15,401.084,331.941,398.646,318.668z" fill="#e31414" data-original="#000000" style="" class=""/>
		</g>
	</g>
</g>
<g xmlns="http://www.w3.org/2000/svg">
</g>
<g xmlns="http://www.w3.org/2000/svg">
</g>
<g xmlns="http://www.w3.org/2000/svg">
</g>
<g xmlns="http://www.w3.org/2000/svg">
</g>
<g xmlns="http://www.w3.org/2000/svg">
</g>
<g xmlns="http://www.w3.org/2000/svg">
</g>
<g xmlns="http://www.w3.org/2000/svg">
</g>
<g xmlns="http://www.w3.org/2000/svg">
</g>
<g xmlns="http://www.w3.org/2000/svg">
</g>
<g xmlns="http://www.w3.org/2000/svg">
</g>
<g xmlns="http://www.w3.org/2000/svg">
</g>
<g xmlns="http://www.w3.org/2000/svg">
</g>
<g xmlns="http://www.w3.org/2000/svg">
</g>
<g xmlns="http://www.w3.org/2000/svg">
</g>
<g xmlns="http://www.w3.org/2000/svg">
</g>
</g></svg>
