<?xml version="1.0"?>
<svg xmlns="http://www.w3.org/2000/svg" xmlns:xlink="http://www.w3.org/1999/xlink" xmlns:svgjs="http://svgjs.com/svgjs" version="1.1" width="512" height="512" x="0" y="0" viewBox="0 0 512 512" style="enable-background:new 0 0 512 512" xml:space="preserve"><g><path xmlns="http://www.w3.org/2000/svg" d="m307.18 160.283c-6.525-6.8-10.773-15.964-10.85-25.45.227-12.392-2.132-30.48 6.37-40.84 23.306-31.945 2.264-81.2-36.621-87.08-34.191-6.521-66.81 20.82-66.519 55.58-.847 22.547 14.114 31.335 16 49.319.1 5.8.5 23.028-.4 28.611a39.225 39.225 0 0 1 -10.351 19.92c-33.08 35.09-53.64 102.65-53.64 176.29 2.306 59.36 10.517 168.988 78.637 169.361h52.384c21.58 0 41.45-12.29 50.64-31.3 43.697-82.629 35.57-253.315-25.65-314.411zm-75.36-25.46v-15.94h48.38v16.18h-48.39c0-.07.01-.17.01-.24zm-1.75-103.26c22.352-20.077 61.145-6 65.629 23.671 4.357 21.5-10.056 29.279-14.249 47.519h-51.05a63.471 63.471 0 0 0 -8.39-18.9c-10.902-16.371-7.152-39.907 8.06-52.29zm88.24 436.11c-6.5 13.48-20.68 22.19-36.11 22.19h-52.38c-52.246 1.847-61.5-106.082-62.522-153.19 0-69.68 18.882-133 49.282-165.29a56.783 56.783 0 0 0 12.43-20.24h54a56.856 56.856 0 0 0 12.42 20.2c56.647 56.457 63.67 219.606 22.88 296.33z" fill="#e31894" data-original="#000000" style=""/></g></svg>
