<?xml version="1.0"?>
<svg xmlns="http://www.w3.org/2000/svg" xmlns:xlink="http://www.w3.org/1999/xlink" xmlns:svgjs="http://svgjs.com/svgjs" version="1.1" width="512" height="512" x="0" y="0" viewBox="0 0 512 512" style="enable-background:new 0 0 512 512" xml:space="preserve" class=""><g><g xmlns="http://www.w3.org/2000/svg"><g><path d="m423.985 319.618c42.419-60.597 31.735-157.622 4.33-217.461l-13.182 7.16c24.655 54.166 34.671 139.347.361 195.139z" fill="#b1900b" data-original="#000000" style="" class=""/><path d="m256.383 271.138c48.944-1.286 48.934-72.956-.001-74.234-48.943 1.286-48.933 72.955.001 74.234zm0-59.234c29.165.767 29.159 43.472-.001 44.234-29.163-.766-29.157-43.472.001-44.234z" fill="#b1900b" data-original="#000000" style="" class=""/><path d="m481 496.021h30.937v15h-30.937z" fill="#b1900b" data-original="#000000" style="" class=""/><path d="m451 496.021h15v15h-15z" fill="#b1900b" data-original="#000000" style="" class=""/><path d="m436.052 376.436-48.256-90.415h-191.775v14.777c0 16.665 13.558 30.223 30.223 30.223h54.146l15.432 14.936h-166.588c-33.757-33.941-52.319-78.86-52.319-126.846-.033-40.347 21.995-89.392 36.188-131.387 15.277-38.925 6.652-49.655-5.968-86.746h-15.858l13.518 39.359c4.37 13.357-.894 27.887-5.894 42.561-4.421 13.004-9.416 26.356-14.121 39.392l-84.78-84.78v21.213l79.235 79.235c-29.094 71.378-20.908 150.461 29.578 207.999h-17.824v127.521h74.873v37.542h270.138v-15h-255.138v-22.542h74.798v-15c-39.181 0-110.644 0-149.67 0v-22.553h149.67v-15h-149.67v-22.447h150.01v-15h-150.011v-22.521h207.663l.149-18.472-27.341-26.464h-60.216c-8.32 0-15.102-6.708-15.222-15h167.776l48.256 90.415h84.946v-15z" fill="#b1900b" data-original="#000000" style="" class=""/></g><g><g><g><path d="m115.745 120.81h15v15h-15z" transform="matrix(.342 -.94 .94 .342 -39.462 200.277)" fill="#b1900b" data-original="#000000" style="" class=""/></g></g><g><g><path d="m137.891 109.623-14.172-4.916c1.737-5.006 3.292-9.518 4.733-14.035l14.29 4.559c-1.494 4.684-3.081 9.289-4.851 14.392z" fill="#b1900b" data-original="#000000" style="" class=""/></g></g></g></g></g></svg>
