<?xml version="1.0"?>
<svg xmlns="http://www.w3.org/2000/svg" xmlns:xlink="http://www.w3.org/1999/xlink" xmlns:svgjs="http://svgjs.com/svgjs" version="1.1" width="512" height="512" x="0" y="0" viewBox="0 0 512 512" style="enable-background:new 0 0 512 512" xml:space="preserve" class=""><g>
<g xmlns="http://www.w3.org/2000/svg">
	<g>
		<path d="M256,266c-5.52,0-10,4.48-10,10c0,5.52,4.48,10,10,10s10-4.48,10-10C266,270.48,261.52,266,256,266z" fill="#173fb5" data-original="#000000" style="" class=""/>
	</g>
</g>
<g xmlns="http://www.w3.org/2000/svg">
	<g>
		<path d="M372.65,18.209C341.337,6.467,299.909,0,256,0s-85.336,6.467-116.65,18.209C104.947,31.11,86,49.503,86,70v372    c0,20.497,18.947,38.89,53.35,51.791C170.664,505.533,212.091,512,256,512s85.337-6.467,116.65-18.209    C407.054,480.89,426,462.497,426,442V70C426,49.503,407.054,31.11,372.65,18.209z M406,442c0,23.603-64.148,50-150,50    c-85.851,0-150-26.397-150-50v-28.895C141.792,440.773,210.159,449,256,449c45.643,0,114.172-8.2,150-35.895V442z M406,379    c0,23.603-64.148,50-150,50c-85.851,0-150-26.397-150-50V174.017C143.475,192.559,196.893,203,256,203    c59.106,0,112.524-10.441,150-28.982V379z M406,151.329C371.449,171.499,317.244,183,256,183s-115.449-11.501-150-31.671v-47.224    C141.792,131.773,210.159,140,256,140c45.643,0,114.172-8.2,150-35.895V151.329z M256,120c-85.851,0-150-26.397-150-50    c0-23.603,64.149-50,150-50c85.852,0,150,26.397,150,50C406,93.603,341.852,120,256,120z" fill="#173fb5" data-original="#000000" style="" class=""/>
	</g>
</g>
<g xmlns="http://www.w3.org/2000/svg">
	<g>
		<path d="M216,40c-20.527,0-70,7.851-70,30c0,22.052,49.513,30,70,30c28.505,0,50-12.897,50-30C266,52.897,244.505,40,216,40z     M239.812,75.199C233.709,78.25,225.03,80,216,80c-17.801,0-39.017-5.492-47.403-10C176.983,65.492,198.2,60,216,60    c9.03,0,17.709,1.75,23.812,4.801C244.925,67.356,246,69.653,246,70S244.925,72.644,239.812,75.199z" fill="#173fb5" data-original="#000000" style="" class=""/>
	</g>
</g>
<g xmlns="http://www.w3.org/2000/svg">
	<g>
		<path d="M256,226c-49.626,0-90,40.374-90,90c0,49.626,40.374,90,90,90c49.626,0,90-40.374,90-90C346,266.374,305.626,226,256,226z     M256,386c-38.598,0-70-31.402-70-70c0-38.598,31.402-70,70-70s70,31.402,70,70C326,354.598,294.598,386,256,386z" fill="#173fb5" data-original="#000000" style="" class=""/>
	</g>
</g>
<g xmlns="http://www.w3.org/2000/svg">
	<g>
		<path d="M299.284,290.989c-2.768-4.779-8.886-6.41-13.665-3.644c-4.779,2.768-6.41,8.886-3.644,13.665    c2.633,4.547,4.024,9.73,4.024,14.989c0,16.542-13.458,30-30,30c-5.522,0-10,4.478-10,10c0,5.522,4.479,10.001,10.001,10.001    c27.57,0,50-22.43,50-50C306,307.227,303.678,298.577,299.284,290.989z" fill="#173fb5" data-original="#000000" style="" class=""/>
	</g>
</g>
<g xmlns="http://www.w3.org/2000/svg">
</g>
<g xmlns="http://www.w3.org/2000/svg">
</g>
<g xmlns="http://www.w3.org/2000/svg">
</g>
<g xmlns="http://www.w3.org/2000/svg">
</g>
<g xmlns="http://www.w3.org/2000/svg">
</g>
<g xmlns="http://www.w3.org/2000/svg">
</g>
<g xmlns="http://www.w3.org/2000/svg">
</g>
<g xmlns="http://www.w3.org/2000/svg">
</g>
<g xmlns="http://www.w3.org/2000/svg">
</g>
<g xmlns="http://www.w3.org/2000/svg">
</g>
<g xmlns="http://www.w3.org/2000/svg">
</g>
<g xmlns="http://www.w3.org/2000/svg">
</g>
<g xmlns="http://www.w3.org/2000/svg">
</g>
<g xmlns="http://www.w3.org/2000/svg">
</g>
<g xmlns="http://www.w3.org/2000/svg">
</g>
</g></svg>
