<?xml version="1.0"?>
<svg xmlns="http://www.w3.org/2000/svg" xmlns:xlink="http://www.w3.org/1999/xlink" xmlns:svgjs="http://svgjs.com/svgjs" version="1.1" width="512" height="512" x="0" y="0" viewBox="0 0 512 512" style="enable-background:new 0 0 512 512" xml:space="preserve"><g><g xmlns="http://www.w3.org/2000/svg" id="outline"><path d="M208,136h16a8,8,0,0,0,0-16H208a8,8,0,0,0,0,16Z" fill="#5a0b42" data-original="#000000" style=""/><circle cx="232.004" cy="340" r="8.004" fill="#5a0b42" data-original="#000000" style=""/><path d="M479.155,228.422l-32-64A8,8,0,0,0,440,160h-.007L424,160.015V134.833a31.826,31.826,0,0,0-17.689-28.622l-16.567-8.283L368.735,61.163A42.091,42.091,0,0,0,332.269,40H215.638a41.951,41.951,0,0,0-31.889,14.667L148.32,96H145.7L89.231,70.9a30.459,30.459,0,0,0-33.707,6.259l-5.181,5.18A8,8,0,0,0,61.657,93.657l5.18-5.181a14.367,14.367,0,0,1,15.9-2.951L106.3,96H106a58.066,58.066,0,0,0-58,58v14a8,8,0,0,0,8,8H88.805a39.835,39.835,0,0,0,7.217,16H40a8,8,0,0,0-8,8v32a8,8,0,0,0,8,8l60.691,0,99.316,99.316c0,.226-.007.453-.007.679,0,.387.016.77.03,1.153L108.505,440H40a8,8,0,0,0-8,8v32a8,8,0,0,0,8,8H432a8,8,0,0,0,8-7.98l.394-156.722,37.292-37.67A8,8,0,0,0,480,280V232A7.994,7.994,0,0,0,479.155,228.422ZM344,420.687l-80.007-80.008c0-.226.007-.453.007-.679,0-.387-.016-.77-.029-1.153l45.943-49.619L344,323.314ZM231.117,307.8,163.323,240.01l130.348.011-61.615,66.544A7.979,7.979,0,0,0,231.117,307.8ZM304,252.415v19.65l-45.853,49.521a32.258,32.258,0,0,0-9.791-9.076ZM280,160H167.2a39.837,39.837,0,0,0-7.2-15.974V112H280ZM167.2,176H304.819a40.2,40.2,0,0,0,7.215,16H159.978A39.835,39.835,0,0,0,167.2,176Zm159.538,8.646A23.992,23.992,0,1,1,366.624,160H344a8,8,0,0,0-7.155,4.422ZM376,224.022V208h32v16.022ZM408,192H376V176h32Zm0,48.022a16,16,0,0,1-16,15.989h-.007A16.02,16.02,0,0,1,376,240.022Zm0-105.189V160H383.2a40,40,0,0,0-78.39,0H296V112h86.111l17.044,8.522A15.912,15.912,0,0,1,408,134.833ZM354.843,69.1,370.214,96H296V56h36.269A26.055,26.055,0,0,1,354.843,69.1ZM195.9,65.079A25.971,25.971,0,0,1,215.638,56H280V96H169.394ZM64,154a42.047,42.047,0,0,1,42-42h37.958l.038,0h0V131.35A39.979,39.979,0,0,0,88.805,160H64Zm40,14a24,24,0,1,1,24,24A24.028,24.028,0,0,1,104,168ZM48,208H315.056l-8.011,16.022L48,224Zm75.32,32.007H140.7l81.935,81.936a8.007,8.007,0,0,0,6.885,2.248A16.318,16.318,0,0,1,232,324a16.014,16.014,0,0,1,15.808,18.486,8,8,0,0,0,2.249,6.884L340.687,440H323.313L241.37,358.057a8,8,0,0,0-6.884-2.249,16.013,16.013,0,0,1-18.294-18.293,8,8,0,0,0-2.248-6.885ZM232.883,372.2l67.8,67.8H170.31l61.634-66.565A7.979,7.979,0,0,0,232.883,372.2Zm-27.029-13.784a32.257,32.257,0,0,0,9.79,9.077L148.505,440H130.31ZM48,456H344v16H48ZM464,276.71l-37.283,37.662a8,8,0,0,0-2.315,5.608L424.02,472H392V336h8a8,8,0,0,0,0-16H384a8,8,0,0,0-8,8V472H360V320a8,8,0,0,0-2.343-5.657L320,276.686v-42.8L348.944,176H360v64.011a32.04,32.04,0,0,0,31.986,32H392a32,32,0,0,0,32-32v-64L435.058,176,464,233.889Z" fill="#5a0b42" data-original="#000000" style=""/></g></g></svg>
