<?xml version="1.0" encoding="UTF-8"?>
<svg width="32px" height="32px" viewBox="0 0 32 32" version="1.1" xmlns="http://www.w3.org/2000/svg" xmlns:xlink="http://www.w3.org/1999/xlink">
    <!-- Generator: Sketch 43.2 (39069) - http://www.bohemiancoding.com/sketch -->
    <title>Metarubrick / Carservice / Car_repair</title>
    <desc>Created with Sketch.</desc>
    <defs></defs>
    <g id="Page-1" stroke="none" stroke-width="1" fill="none" fill-rule="evenodd">
        <g id="New-meta-draft" transform="translate(-84.000000, -784.000000)">
            <g id="Slice" transform="translate(84.000000, 84.000000)"></g>
            <g id="Icon" transform="translate(51.000000, 42.000000)" stroke="#319CFE" stroke-width="2">
                <g id="Car-Service" transform="translate(14.000000, 697.000000)">
                    <g id="Car-repair" transform="translate(20.000000, 52.000000)">
                        <path d="M26,15 L28,15 L28,15 C29.105,15 30,14.105 30,13 L30,10 L30,10 C30,8.343 28.657,7 27,7 L26,7" id="Stroke-1"></path>
                        <path d="M20,3.5 L18.576,1.008 C18.22,0.385 17.557,0 16.839,0 L3,0 L0,8 L0,13 C0,14.105 0.895,15 2,15 L2,15 L4,15" id="Stroke-3"></path>
                        <path d="M30,2 L30,2 C28.895,0.895 27.105,0.895 26,2 L21,7 L4,7" id="Stroke-5"></path>
                        <path d="M10,15 C10,13.343 8.657,12 7,12 C5.343,12 4,13.343 4,15 C4,16.657 5.343,18 7,18 C8.657,18 10,16.657 10,15 Z" id="Stroke-7"></path>
                        <path d="M26,15 C26,13.343 24.657,12 23,12 C21.343,12 20,13.343 20,15 C20,16.657 21.343,18 23,18 C24.657,18 26,16.657 26,15 Z" id="Stroke-9"></path>
                        <path d="M10,15 L20,15" id="Stroke-11"></path>
                    </g>
                </g>
            </g>
        </g>
    </g>
</svg>