<?xml version="1.0"?>
<svg xmlns="http://www.w3.org/2000/svg" xmlns:xlink="http://www.w3.org/1999/xlink" xmlns:svgjs="http://svgjs.com/svgjs" version="1.1" width="512" height="512" x="0" y="0" viewBox="0 0 60 60" style="enable-background:new 0 0 512 512" xml:space="preserve"><g><path xmlns="http://www.w3.org/2000/svg" d="m56 29h-3v-5a3 3 0 0 0 -3-3h-4a3 3 0 0 0 -3 3v5h-4v-15.142a4 4 0 0 0 3-3.858v-6a4 4 0 0 0 -4-4h-34a4 4 0 0 0 -4 4v6a4 4 0 0 0 3 3.858v43.142a3 3 0 0 0 3 3h30a3 3 0 0 0 3-3v-6h17a4 4 0 0 0 4-4v-14a4 4 0 0 0 -4-4zm-11-5a1 1 0 0 1 1-1h4a1 1 0 0 1 1 1v5h-6zm-43-14v-6a2 2 0 0 1 2-2h34a2 2 0 0 1 2 2v6a2 2 0 0 1 -2 2h-34a2 2 0 0 1 -2-2zm35 47a1 1 0 0 1 -1 1h-30a1 1 0 0 1 -1-1v-43h32zm21-10a2 2 0 0 1 -2 2h-17v-18h17a2 2 0 0 1 2 2z" fill="#0f7c49" data-original="#000000" style=""/><path xmlns="http://www.w3.org/2000/svg" d="m5 10a1 1 0 0 0 1-1v-4a1 1 0 0 0 -2 0v4a1 1 0 0 0 1 1z" fill="#0f7c49" data-original="#000000" style=""/><path xmlns="http://www.w3.org/2000/svg" d="m9 10a1 1 0 0 0 1-1v-4a1 1 0 0 0 -2 0v4a1 1 0 0 0 1 1z" fill="#0f7c49" data-original="#000000" style=""/><path xmlns="http://www.w3.org/2000/svg" d="m13 10a1 1 0 0 0 1-1v-4a1 1 0 0 0 -2 0v4a1 1 0 0 0 1 1z" fill="#0f7c49" data-original="#000000" style=""/><path xmlns="http://www.w3.org/2000/svg" d="m17 10a1 1 0 0 0 1-1v-4a1 1 0 0 0 -2 0v4a1 1 0 0 0 1 1z" fill="#0f7c49" data-original="#000000" style=""/><path xmlns="http://www.w3.org/2000/svg" d="m21 10a1 1 0 0 0 1-1v-4a1 1 0 0 0 -2 0v4a1 1 0 0 0 1 1z" fill="#0f7c49" data-original="#000000" style=""/><path xmlns="http://www.w3.org/2000/svg" d="m25 10a1 1 0 0 0 1-1v-4a1 1 0 0 0 -2 0v4a1 1 0 0 0 1 1z" fill="#0f7c49" data-original="#000000" style=""/><path xmlns="http://www.w3.org/2000/svg" d="m29 10a1 1 0 0 0 1-1v-4a1 1 0 0 0 -2 0v4a1 1 0 0 0 1 1z" fill="#0f7c49" data-original="#000000" style=""/><path xmlns="http://www.w3.org/2000/svg" d="m33 10a1 1 0 0 0 1-1v-4a1 1 0 0 0 -2 0v4a1 1 0 0 0 1 1z" fill="#0f7c49" data-original="#000000" style=""/><path xmlns="http://www.w3.org/2000/svg" d="m37 10a1 1 0 0 0 1-1v-4a1 1 0 0 0 -2 0v4a1 1 0 0 0 1 1z" fill="#0f7c49" data-original="#000000" style=""/></g></svg>
