<?xml version="1.0"?>
<svg xmlns="http://www.w3.org/2000/svg" xmlns:xlink="http://www.w3.org/1999/xlink" xmlns:svgjs="http://svgjs.com/svgjs" version="1.1" width="512" height="512" x="0" y="0" viewBox="0 0 512 512" style="enable-background:new 0 0 512 512" xml:space="preserve"><g><g xmlns="http://www.w3.org/2000/svg"><path d="m444.186 378.782c-19.884 0-36.06 16.177-36.06 36.061 0 3.391.472 6.749 1.402 9.984 1.145 3.979 5.298 6.279 9.281 5.135 3.981-1.146 6.28-5.3 5.135-9.281-.543-1.887-.818-3.851-.818-5.838 0-11.613 9.447-21.061 21.06-21.061s21.061 9.447 21.061 21.061c0 12.115-10.248 21.764-22.358 21.021-4.152-.237-7.686 2.909-7.931 7.043-.245 4.135 2.908 7.686 7.042 7.932 20.987 1.219 38.247-15.475 38.247-35.995 0-19.885-16.177-36.062-36.061-36.062z" fill="#146ebd" data-original="#000000" style=""/><path d="m44.309 76.1c4.142 0 7.5-3.357 7.5-7.5s-3.358-7.5-7.5-7.5c-17.992 0-32.629 14.638-32.629 32.63 0 17.991 14.638 32.629 32.629 32.629 17.992 0 32.63-14.638 32.63-32.629 0-1.508-.104-3.026-.311-4.512-.568-4.102-4.351-6.971-8.458-6.398-4.103.568-6.968 4.355-6.399 8.459.111.805.168 1.63.168 2.451 0 9.721-7.909 17.629-17.63 17.629s-17.629-7.908-17.629-17.629 7.908-17.63 17.629-17.63z" fill="#146ebd" data-original="#000000" style=""/><path d="m477.46 185.31c-1.604-1.324-2.399-3.419-2.126-5.603 2.611-20.871-4.364-41.529-19.234-56.645-12.449-12.653-28.98-19.937-46.547-20.507-22.71-.725-44.271 9.771-57.679 28.11-1.475 2.018-4.077 2.894-6.474 2.188-18.645-5.517-39.602-5.236-59.183 2.179-1.564.592-3.271.508-4.808-.236-1.542-.747-2.671-2.039-3.179-3.64-12.453-39.263-49.976-65.81-91.19-64.619-31.892.939-61.655 18.855-77.676 46.757-.607 1.058-1.785 1.734-3.1 1.675-27.617-.445-47.225 26.471-38.748 52.392.562 1.717-.36 3.571-2.145 4.312-19.533 8.109-36.054 21.741-47.777 39.422-12.037 18.153-18.11 39.321-17.56 61.216.685 27.305 11.827 53.023 31.373 72.419 19.544 19.395 45.348 30.341 72.659 30.823 14.476.237 28.55-2.356 41.839-7.764 2.949-1.201 6.546.353 7.856 3.39 11.426 26.483 37.442 43.596 66.282 43.596 22.931 0 44.714-11.062 58.271-29.592 2.011-2.748 5.89-3.418 8.569-1.407 14.407 10.816 31.569 16.534 49.632 16.534 30.436 0 58.341-16.646 72.827-43.442 1.145-2.116 3.359-3.373 5.748-3.354 33.394.741 64.548-16.145 82.505-44.839 2.197-3.511 1.132-8.139-2.379-10.336-3.509-2.196-8.138-1.132-10.336 2.379-14.733 23.543-40.485 38.363-69.485 37.8-8.011-.17-15.417 4.135-19.247 11.216-11.863 21.944-34.712 35.576-59.632 35.576-14.789 0-28.837-4.679-40.626-13.53-9.314-6.993-22.694-5.004-29.681 4.547-10.743 14.683-28 23.448-46.165 23.448-22.846 0-43.457-13.557-52.509-34.537-4.542-10.53-16.782-15.618-27.284-11.342-11.4 4.639-23.491 6.873-35.919 6.659-48.036-.848-88.097-40.603-89.302-88.621-.952-37.949 21.065-71.866 56.092-86.408 8.943-3.712 13.622-13.739 10.65-22.827-5.257-16.083 6.804-33.006 24.214-32.731 6.798.118 13.052-3.399 16.385-9.204 13.444-23.412 38.393-38.444 65.11-39.231 34.578-1.029 66.013 21.252 76.451 54.16 3.642 11.485 16.314 17.643 27.597 13.368 15.954-6.04 33.538-6.58 49.614-1.823 8.454 2.502 17.635-.598 22.84-7.718 10.479-14.334 27.324-22.528 45.083-21.971 28.088.912 51.323 24.525 51.794 52.638.043 2.564-.095 5.141-.41 7.658-.915 7.307 1.874 14.422 7.46 19.033 22.635 18.689 32.369 47.152 28.121 74.084-.645 4.092 2.149 7.932 6.241 8.576 4.086.645 7.931-2.148 8.577-6.24.765-4.852 1.152-9.812 1.151-14.747-.007-28.428-12.596-55.122-34.54-73.241z" fill="#146ebd" data-original="#000000" style=""/><path d="m364.957 321.899c7.958 4.744 17.188 7.117 26.822 6.648 24.008-1.186 43.901-20.44 45.252-44.995.096-1.746 1.004-3.415 2.431-4.462 15.084-11.076 18.531-31.933 8.188-47.184-2.325-3.428-6.989-4.323-10.417-1.997-3.428 2.325-4.322 6.988-1.997 10.417 5.887 8.681 3.818 20.453-4.653 26.674-5.076 3.728-8.185 9.461-8.529 15.732-.911 16.772-14.505 30.018-31.015 30.832-6.505.319-12.869-1.253-18.402-4.551-3.558-2.121-8.161-.955-10.283 2.603-2.12 3.559-.955 8.162 2.603 10.283z" fill="#146ebd" data-original="#000000" style=""/><path d="m64.093 255.791c-4.179-.132-7.594 3.14-7.714 7.28-.33 11.407 3.861 22.19 11.801 30.363 7.942 8.175 18.591 12.677 29.987 12.677 3.367 0 6.719-.402 9.961-1.196 4.362-1.066 8.959.09 12.002 3.015 9.291 8.933 21.508 13.853 34.4 13.853 13.875 0 27.213-5.868 36.595-16.1 2.799-3.053 2.594-7.797-.459-10.597s-7.797-2.595-10.597.46c-6.548 7.141-15.856 11.236-25.539 11.236-8.996 0-17.521-3.433-24.004-9.666-6.812-6.549-16.516-9.082-25.963-6.771-2.078.509-4.229.767-6.396.767-7.307 0-14.135-2.887-19.228-8.129-5.091-5.24-7.778-12.157-7.566-19.478.12-4.141-3.14-7.594-7.28-7.714z" fill="#146ebd" data-original="#000000" style=""/><path d="m331.034 281.463c-1.73 2.268-2.024 5.319-.759 7.876 1.265 2.556 3.87 4.173 6.722 4.173h27.958c4.142 0 7.5-3.357 7.5-7.5s-3.358-7.5-7.5-7.5h-12.804l15.56-20.396c3.06-4.01 4.745-8.996 4.745-14.041 0-11.844-9.635-21.479-21.479-21.479s-21.479 9.636-21.479 21.479c0 4.143 3.358 7.5 7.5 7.5s7.5-3.357 7.5-7.5c0-3.573 2.907-6.479 6.479-6.479s6.479 2.906 6.479 6.479c0 1.775-.593 3.53-1.67 4.942z" fill="#146ebd" data-original="#000000" style=""/><path d="m206.822 210.767c2.929 2.928 7.678 2.928 10.606 0 2.929-2.93 2.929-7.678 0-10.607-16.506-16.506-43.363-16.505-59.87.001-16.505 16.507-16.505 43.364 0 59.87 16.505 16.504 43.363 16.507 59.87 0 2.929-2.93 2.929-7.678 0-10.607-2.929-2.928-7.678-2.928-10.606 0-10.657 10.659-27.999 10.658-38.657 0-10.657-10.657-10.657-27.999 0-38.656 10.659-10.661 28-10.659 38.657-.001z" fill="#146ebd" data-original="#000000" style=""/><path d="m277.163 187.761c-23.343 0-42.334 18.991-42.334 42.334s18.991 42.334 42.334 42.334 42.334-18.991 42.334-42.334-18.991-42.334-42.334-42.334zm0 69.668c-15.072 0-27.334-12.262-27.334-27.334s12.262-27.334 27.334-27.334 27.334 12.262 27.334 27.334-12.262 27.334-27.334 27.334z" fill="#146ebd" data-original="#000000" style=""/></g></g></svg>
