<?xml version="1.0" encoding="UTF-8"?>
<svg width="32px" height="32px" viewBox="0 0 32 32" version="1.1" xmlns="http://www.w3.org/2000/svg" xmlns:xlink="http://www.w3.org/1999/xlink">
    <!-- Generator: Sketch 43.2 (39069) - http://www.bohemiancoding.com/sketch -->
    <title>Metarubrick / Carservice / Carwash</title>
    <desc>Created with Sketch.</desc>
    <defs></defs>
    <g id="Page-1" stroke="none" stroke-width="1" fill="none" fill-rule="evenodd">
        <g id="New-meta-draft" transform="translate(-184.000000, -784.000000)">
            <g id="Slice" transform="translate(84.000000, 84.000000)"></g>
            <g id="Icon" transform="translate(51.000000, 42.000000)" stroke="#319CFE" stroke-width="2">
                <g id="Car-Service" transform="translate(14.000000, 697.000000)">
                    <g id="Carwash" transform="translate(124.000000, 45.000000)">
                        <path d="M11,0 L11,2" id="Stroke-1"></path>
                        <path d="M20,5 C17.854,3.778 14.619,3 11,3 C7.381,3 4.146,3.778 2,5" id="Stroke-3"></path>
                        <path d="M11,7 L11,10" id="Stroke-5"></path>
                        <path d="M16,7 L17,10" id="Stroke-7"></path>
                        <path d="M6,7 L5,10" id="Stroke-9"></path>
                        <path d="M11,29 L17,29 L17,30 C17,30.553 17.447,31 18,31 L20,31 C21.104,31 22,30.104 22,29 L22,23.236 C22,21.865 21.226,20.613 20,20 L19.23,15.384 C19.091,14.547 18.443,13.889 17.606,13.743 C15.905,13.447 13.006,13 11,13 C8.994,13 6.095,13.447 4.394,13.743 C3.557,13.889 2.909,14.547 2.77,15.384 L2,20 C0.774,20.613 0,21.865 0,23.236 L0,29 C0,30.104 0.896,31 2,31 L4,31 C4.553,31 5,30.553 5,30 L5,29 L11,29 Z" id="Stroke-11"></path>
                        <path d="M5,20 L17,20" id="Stroke-13"></path>
                        <path d="M3,24 L7,24" id="Stroke-15"></path>
                        <path d="M15,24 L19,24" id="Stroke-17"></path>
                    </g>
                </g>
            </g>
        </g>
    </g>
</svg>