<?xml version="1.0"?>
<svg xmlns="http://www.w3.org/2000/svg" xmlns:xlink="http://www.w3.org/1999/xlink" xmlns:svgjs="http://svgjs.com/svgjs" version="1.1" width="512" height="512" x="0" y="0" viewBox="0 0 511.897 511.897" style="enable-background:new 0 0 512 512" xml:space="preserve" class=""><g><g xmlns="http://www.w3.org/2000/svg"><g><path d="m314.678 293.966c24.08 0 44.392-17.322 49.006-40.153 8.089-.822 15.228-4.898 20.091-10.893.28-.304 122.786-172.007 122.786-172.007 4.446-6.233 6.2-13.825 4.937-21.376-1.264-7.552-5.393-14.159-11.626-18.604l-13.574-9.684c-12.868-9.178-30.802-6.177-39.98 6.691l-108.44 152.026h-62.186c-5.522 0-10 4.478-10 10s4.478 10 10 10h84.961c5.386 0 9.768 4.381 9.768 9.767v14.466c0 5.386-4.382 9.768-9.768 9.768h-240.466c-5.386 0-9.767-4.382-9.767-9.768v-14.466c0-5.386 4.381-9.767 9.767-9.767h65.505c5.522 0 10-4.478 10-10s-4.478-10-10-10h-65.505c-16.413 0-29.767 13.354-29.767 29.767v14.466c0 3.162.5 6.209 1.418 9.07-8.426-2.263-14.733-9.922-14.853-19.022l-.887-67.551 32.643-13.302c9.875-4.025 14.756-15.381 10.879-25.315l-7.539-19.319c-1.927-4.937-5.668-8.807-10.536-10.898-4.869-2.093-10.252-2.142-15.158-.144l-74.177 30.226c-9.875 4.024-14.755 15.381-10.879 25.314l7.538 19.319c.001 0 .001.001.001.001 1.927 4.937 5.669 8.807 10.537 10.898 2.492 1.071 5.118 1.607 7.747 1.607 2.507 0 5.016-.488 7.41-1.464l21.639-8.818.784 59.707c.286 21.757 18.221 39.457 39.979 39.457h20.222c4.678 22.751 24.965 40 48.975 40h26.258v128h-55.81c-25.47 0-46.19 20.721-46.19 46.19v17.81c0 5.522 4.478 10 10 10h280c5.522 0 10-4.478 10-10v-17.81c0-25.47-20.721-46.19-46.19-46.19h-55.81v-128h26.257zm-287.313-149.009-7.27-18.63 73.49-29.948 7.271 18.63zm335.04 35.065 100.194-140.469c2.773-3.888 8.193-4.795 12.084-2.022l13.574 9.684c1.884 1.344 3.131 3.34 3.514 5.622.382 2.282-.148 4.577-1.493 6.462l-101.14 141.795c-3.549-11.677-14.093-20.334-26.733-21.072zm-224.507 73.944h205.045c-4.149 11.623-15.295 20-28.266 20h-148.514c-12.963 0-24.114-8.379-28.265-20zm232.523 214.191v7.81h-260v-7.81c0-14.441 11.749-26.19 26.19-26.19h207.619c14.442-.001 26.191 11.748 26.191 26.19zm-102-46.191h-56v-128h56z" fill="#e31818" data-original="#000000" style="" class=""/><circle cx="230.688" cy="189.966" r="10" fill="#e31818" data-original="#000000" style="" class=""/></g></g></g></svg>
