<?xml version="1.0"?>
<svg xmlns="http://www.w3.org/2000/svg" xmlns:xlink="http://www.w3.org/1999/xlink" xmlns:svgjs="http://svgjs.com/svgjs" version="1.1" width="512" height="512" x="0" y="0" viewBox="0 0 16.933333 16.933334" style="enable-background:new 0 0 512 512" xml:space="preserve"><g><g xmlns="http://www.w3.org/2000/svg" id="layer1" transform="translate(0 -280.067)"><path id="path13403" d="m10.847917 281.65416c-.723729.00041-1.3713364.42519-1.6727674 1.06867-.05922-.006-.118695-.0101-.1788009-.0103-.679939 0-1.2772311.36796-1.5988689.91623-.1918521.30759.281424.58523.456303.26768.2295129-.39123.6525898-.65436 1.1410159-.65474.09619.00034.1924259.0114.2862869.0326.1442672.0343.2883032-.0566.3198791-.20258.1855229-.53154.6828183-.88799 1.2469523-.88831.605089.00059 1.129935.40859 1.280025.99477.04772.19788.236225.23621.373621.17208.144248-.0707.302388-.10813.46302-.10852.587634 0 1.058334.4707 1.058334 1.05833-.00053.16078-.03749.31919-.108522.46354-.112543.20676.05238.38047.224793.39171.556734.16786.941442.67583.942062 1.26194-.000794.24579-.07015.48596-.199988.69453-.110781.17782.0036.34573.152963.39274-.000132.00082-.000242.00071-.000529.002.342154.0973.576371.40703.576709.76274-.000116.21353-.0861.41759-.238744.56689-.16306.15409-.07621.3629.07338.43564.269211.19901.429813.51291.429948.84956v1.32291c-.005.35779.534212.35779.529166 0v-1.32291c-.000172-.43081-.177947-.83701-.480591-1.13275.138335-.2128.215877-.46161.216019-.71935-.000529-.48266-.266578-.91534-.673343-1.14618.09256-.22308.143523-.4621.144177-.70538v-.001c-.000794-.74578-.449778-1.40886-1.118278-1.69757.03766-.13599.05957-.27636.05994-.41858 0-.87387-.713628-1.5875-1.587501-1.5875-.142131.00029-.282607.0215-.418579.0589-.288956-.66805-.952098-1.11651-1.697567-1.11724zm-.0078 2.44378c-.200869-.004-.332917.20825-.240296.38654.279699.55939.985597.69206 1.462962.37724.302256-.19252.0061-.64399-.290891-.44339-.218737.14426-.56688.0946-.699182-.17001-.043-.0899-.132893-.14806-.232546-.15038zm-3.4302333.49041c-.7799811.10472-1.3241499.79899-1.3244669 1.56373-.0000852.68373.4402058 1.27781 1.069702 1.50585.09435.88787.8242509 1.58531 1.7383948 1.65985.3326601.63558.9628031 1.06675 1.6893034 1.06763h.00053c.333327-.00016.658-.0917.942062-.25993.297918.3293.722364.52427 1.174604.52451h.000529c.255294-.00053.505455-.0632.729674-.17983.03708.0396.07962.0806.12919.12041.163272.13112.407009.25702.728121.30385v.54932c-.005.35779.534212.35779.529166 0v-.77204c.01042-.14049-.07581-.28895-.264583-.28629-.337849 0-.535863-.10677-.660943-.20722-.125079-.10046-.160713-.17725-.160713-.17725-.06913-.13276-.237109-.21661-.39584-.0935-.182904.13791-.405546.21283-.634601.21343-.35782-.00019-.689414-.18121-.8847-.48008-.0738-.13115-.245777-.20955-.400492-.0791-.235238.19036-.528381.29429-.830972.29455-.555093-.00068-1.0361502-.34428-1.2712383-.87901-.030059-.10038-.113284-.18312-.2542479-.18087-.770123.002-1.3592972-.56512-1.382861-1.28881.024024-.14108-.068466-.27569-.208775-.30386-.4982451-.11204-.8522042-.54673-.8521441-1.05161.0002119-.51263.363845-.94813.8681651-1.04025.3250399-.0539.2757718-.57029-.07286-.52348zm2.6432483 1.62677c-.09637.005-.1825042.0616-.2247923.14831-.1323001.26461-.4783781.31635-.6971141.17209-.2927819-.18839-.5802599.2446-.2930049.44131.4773639.31483 1.1853283.18423 1.4650273-.37517.09508-.18226-.0449-.39859-.250116-.38654zm3.183269 1.25574c-.105948-.002-.202732.0598-.245978.15658-.125862.26773-.472887.32599-.69505.18707-.299831-.18684-.579399.26274-.27957.44958.484844.30319 1.187062.15363 1.453142-.41238.08503-.17379-.0391-.37709-.232544-.38085zm-12.44316824 4.7656c-.14611998.00058-.26410701.1195-.26355.26562v2.64686c.00058208.14532.118237.26297.26355.26355h12.70103324c.353121 0 .353121-.52968 0-.52968h-9.2614493v-2.36265c.011054-.1531-.1100481-.28346-.2635509-.2837zm4.23436584 0c-.3450439.008-.3450439.52152 0 .52917h9.2599014v2.38331h.0011c.000608.14571.118875.26352.264583.26355h1.58595c.146119.00056.265031-.11743.265615-.26355v-2.64686c.000556-.14695-.118713-.2662-.265656-.26562zm-3.9687488.52917h2.644282v2.11718h-2.644282zm13.7578172 0h1.058849v2.11718h-1.058849z" font-variant-ligatures="normal" font-variant-position="normal" font-variant-caps="normal" font-variant-numeric="normal" font-variant-alternates="normal" font-feature-settings="normal" text-indent="0" text-align="start" text-decoration-line="none" text-decoration-style="solid" text-decoration-color="rgb(0,0,0)" text-transform="none" text-orientation="mixed" white-space="normal" shape-padding="0" isolation="auto" mix-blend-mode="normal" solid-color="rgb(0,0,0)" solid-opacity="1" vector-effect="none" fill="#6f15c9" data-original="#000000" style=""/></g></g></svg>
