<?xml version="1.0" encoding="UTF-8"?>
<svg width="32px" height="32px" viewBox="0 0 32 32" version="1.1" xmlns="http://www.w3.org/2000/svg" xmlns:xlink="http://www.w3.org/1999/xlink">
    <!-- Generator: Sketch 43.2 (39069) - http://www.bohemiancoding.com/sketch -->
    <title>Metarubrick / Entertainment / Cinema</title>
    <desc>Created with Sketch.</desc>
    <defs></defs>
    <g id="Page-1" stroke="none" stroke-width="1" fill="none" fill-rule="evenodd">
        <g id="New-meta-draft" transform="translate(-384.000000, -1184.000000)">
            <g id="Slice" transform="translate(84.000000, 84.000000)"></g>
            <g id="Icon" transform="translate(51.000000, 42.000000)" stroke="#FF8D00" stroke-width="2">
                <g id="Entertainment-" transform="translate(22.000000, 1093.000000)">
                    <g id="Cinema" transform="translate(314.000000, 51.000000)">
                        <path d="M10,5 C10,7.762 7.762,10 5,10 C2.238,10 0,7.762 0,5 C0,2.238 2.238,-3.55271368e-15 5,-3.55271368e-15 C7.762,-3.55271368e-15 10,2.238 10,5 Z" id="Stroke-1"></path>
                        <path d="M20,5 C20,7.762 17.762,10 15,10 C12.238,10 10,7.762 10,5 C10,3.364 10.785,1.912 12,1 C12.836,0.372 13.874,-3.55271368e-15 15,-3.55271368e-15 C17.762,-3.55271368e-15 20,2.238 20,5 Z" id="Stroke-3"></path>
                        <path d="M20,12 L20,21 C20,22.104 19.104,23 18,23 L2,23 C0.896,23 0,22.104 0,21 L0,12" id="Stroke-5"></path>
                        <polyline id="Stroke-7" points="20 15 26 13 26 21 20 19"></polyline>
                        <path d="M6,17 L14,17" id="Stroke-9"></path>
                        <path d="M14,29 L12,23" id="Stroke-11"></path>
                        <path d="M8,23 L6,29" id="Stroke-13"></path>
                    </g>
                </g>
            </g>
        </g>
    </g>
</svg>