<?xml version="1.0"?>
<svg xmlns="http://www.w3.org/2000/svg" xmlns:xlink="http://www.w3.org/1999/xlink" xmlns:svgjs="http://svgjs.com/svgjs" version="1.1" width="512" height="512" x="0" y="0" viewBox="0 0 512 512" style="enable-background:new 0 0 512 512" xml:space="preserve" class=""><g><path xmlns="http://www.w3.org/2000/svg" d="m235.104 119.537c2.93 2.929 7.678 2.928 10.606 0l31.186-31.186c2.929-2.93 2.929-7.678 0-10.607-2.928-2.928-7.677-2.928-10.606 0l-31.186 31.186c-2.93 2.929-2.93 7.677 0 10.607z" fill="#644916" data-original="#000000" style="" class=""/><path xmlns="http://www.w3.org/2000/svg" d="m474.159 93c4.142 0 7.5-3.357 7.5-7.5v-40.506c0-24.809-20.185-44.994-44.995-44.994h-361.328c-24.81 0-44.995 20.185-44.995 44.994v119.955c0 17.132 13.396 31.187 30.262 32.259v237.134c-17.219 3.346-30.262 18.533-30.262 36.715v21.305c0 10.828 8.81 19.638 19.638 19.638h412.041c10.829 0 19.638-8.81 19.638-19.638v-21.305c0-18.183-13.042-33.37-30.262-36.715v-237.134c16.866-1.072 30.262-15.127 30.262-32.259v-44.236c0-4.143-3.358-7.5-7.5-7.5s-7.5 3.357-7.5 7.5v44.236c0 9.557-7.775 17.332-17.332 17.332h-386.653c-9.557 0-17.332-7.775-17.332-17.332v-119.955c0-16.539 13.456-29.994 29.995-29.994h361.328c16.539 0 29.995 13.455 29.995 29.994v40.506c0 4.143 3.358 7.5 7.5 7.5zm-234.398 153.267h32.478v14.185c0 .548-.446.994-.995.994h-30.489c-.548 0-.994-.446-.994-.994zm-17.704-15c-6.293 0-11.414-5.12-11.414-11.413v-22.572h90.714v22.572c0 6.293-5.12 11.413-11.414 11.413zm0 15h2.705v14.185c0 8.819 7.175 15.994 15.994 15.994h30.489c8.819 0 15.995-7.175 15.995-15.994v-14.185h2.705c14.564 0 26.414-11.849 26.414-26.413v-22.572h120.04v236.368h-117.476l2.299-15.137h18.32c9.274 0 17.377-6.27 19.705-15.248l7.618-29.382c1.593-6.144.279-12.547-3.605-17.566s-9.752-7.898-16.1-7.898h-15.293l1.662-10.941c2.6-17.118-10.666-32.523-27.957-32.523h-99.142c-17.314 0-30.553 15.429-27.957 32.523l2.971 19.567 11.634 76.605h-117.475v-236.369h120.04v22.572c0 14.565 11.849 26.414 26.414 26.414zm-13.808 187.382-10.666-70.231h12.147c4.142 0 7.5-3.357 7.5-7.5s-3.358-7.5-7.5-7.5h-14.425l-2.003-13.193c-1.221-8.039 5.008-15.271 13.127-15.271h99.142c8.131 0 14.346 7.244 13.127 15.271l-2.003 13.193c-26.516 0-56.797 0-71.901 0-4.142 0-7.5 3.357-7.5 7.5s3.358 7.5 7.5 7.5h69.623l-10.665 70.231zm121.339-70.231h17.571c2.287 0 3.636 1.302 4.236 2.078s1.522 2.409.949 4.623l-7.618 29.381c-.613 2.362-2.745 4.013-5.185 4.013h-16.042zm137.071 107.64v21.305c0 2.558-2.081 4.638-4.638 4.638h-412.042c-2.558 0-4.638-2.08-4.638-4.638v-21.305c0-12.355 10.052-22.408 22.408-22.408h376.501c12.356-.001 22.409 10.052 22.409 22.408z" fill="#644916" data-original="#000000" style="" class=""/><path xmlns="http://www.w3.org/2000/svg" d="m195.643 98.641c0 33.281 27.076 60.357 60.357 60.357s60.357-27.076 60.357-60.357-27.076-60.358-60.357-60.358-60.357 27.076-60.357 60.358zm105.714 0c0 25.01-20.347 45.357-45.357 45.357s-45.357-20.348-45.357-45.357 20.347-45.358 45.357-45.358 45.357 20.348 45.357 45.358z" fill="#644916" data-original="#000000" style="" class=""/><path xmlns="http://www.w3.org/2000/svg" d="m88.258 69.068c-9.754 0-17.69 7.937-17.69 17.691v23.763c0 9.755 7.936 17.69 17.69 17.69h63.3c9.755 0 17.691-7.936 17.691-17.69v-23.762c0-9.755-7.936-17.691-17.691-17.691h-63.3zm65.991 17.692v23.763c0 1.483-1.207 2.69-2.691 2.69h-63.3c-1.483 0-2.69-1.207-2.69-2.69v-23.763c0-1.484 1.207-2.691 2.69-2.691h63.3c1.484-.001 2.691 1.206 2.691 2.691z" fill="#644916" data-original="#000000" style="" class=""/><path xmlns="http://www.w3.org/2000/svg" d="m423.742 69.068h-63.3c-9.755 0-17.691 7.937-17.691 17.691v23.763c0 9.755 7.936 17.69 17.691 17.69h63.3c9.754 0 17.69-7.936 17.69-17.69v-23.762c.001-9.755-7.935-17.692-17.69-17.692zm2.691 41.454c0 1.483-1.207 2.69-2.69 2.69h-63.3c-1.484 0-2.691-1.207-2.691-2.69v-23.762c0-1.484 1.207-2.691 2.691-2.691h63.3c1.483 0 2.69 1.207 2.69 2.691z" fill="#644916" data-original="#000000" style="" class=""/></g></svg>
