<?xml version="1.0" encoding="UTF-8"?>
<svg width="32px" height="32px" viewBox="0 0 32 32" version="1.1" xmlns="http://www.w3.org/2000/svg" xmlns:xlink="http://www.w3.org/1999/xlink">
    <!-- Generator: Sketch 43.2 (39069) - http://www.bohemiancoding.com/sketch -->
    <title>Metarubrick / Entertainment / Culture</title>
    <desc>Created with Sketch.</desc>
    <defs></defs>
    <g id="Page-1" stroke="none" stroke-width="1" fill="none" fill-rule="evenodd">
        <g id="New-meta-draft" transform="translate(-84.000000, -1184.000000)">
            <g id="Slice" transform="translate(84.000000, 84.000000)"></g>
            <g id="Icon" transform="translate(51.000000, 42.000000)" stroke="#FF8D00" stroke-width="2">
                <g id="Entertainment-" transform="translate(22.000000, 1093.000000)">
                    <g id="Culture" transform="translate(14.000000, 52.000000)">
                        <path d="M26,18 L26,8.735 C26,7.777 25.223,7 24.265,7 C24.093,7 23.93,7.023 23.766,7.073 C23.004,7.305 20.502,8 18,8 C15.498,8 12.996,7.305 12.234,7.073 C12.07,7.023 11.907,7 11.735,7 C10.777,7 10,7.777 10,8.735 L10,18 C10,22.418 13.582,26 18,26 C22.418,26 26,22.418 26,18 Z" id="Stroke-1"></path>
                        <path d="M16,5 L16,1.735 C16,0.777 15.223,0 14.265,0 C14.093,0 13.93,0.023 13.766,0.073 C13.004,0.305 10.502,1 8,1 C5.498,1 2.996,0.305 2.234,0.073 C2.07,0.023 1.907,0 1.735,0 C0.777,0 0,0.777 0,1.735 L0,11 C0,15.079 3.054,18.446 7,18.938" id="Stroke-3"></path>
                        <path d="M14,18 C15,19 16,20 18,20 C20,20 21,19 22,18" id="Stroke-5"></path>
                        <path d="M14,13 L17,13" id="Stroke-7"></path>
                        <path d="M19,13 L22,13" id="Stroke-9"></path>
                        <path d="M7,11.0938 C5.635,11.3648 4.818,12.1828 4,12.9998" id="Stroke-11"></path>
                        <path d="M4,6 L7,6" id="Stroke-13"></path>
                    </g>
                </g>
            </g>
        </g>
    </g>
</svg>