<?xml version="1.0"?>
<svg xmlns="http://www.w3.org/2000/svg" xmlns:xlink="http://www.w3.org/1999/xlink" xmlns:svgjs="http://svgjs.com/svgjs" version="1.1" width="512" height="512" x="0" y="0" viewBox="0 0 512 512" style="enable-background:new 0 0 512 512" xml:space="preserve"><g><g xmlns="http://www.w3.org/2000/svg"><path d="m484.35 273.497-88.799-28.042c-25.638-8.097-49.849-19.899-72.02-35.079l.219-.257c2.684-3.155 2.302-7.888-.854-10.572-3.155-2.684-7.888-2.303-10.572.854l-1.153 1.356-13.8-9.659.022-.026c2.684-3.155 2.302-7.888-.854-10.572-3.155-2.684-7.889-2.303-10.572.854l-.939 1.104-13.811-9.668c2.475-3.151 2.046-7.718-1.034-10.337-3.155-2.684-7.888-2.303-10.572.854l-.725.853-13.825-9.678c2.251-3.138 1.76-7.529-1.234-10.076-3.155-2.684-7.888-2.302-10.572.854l-.511.601-15.815-11.071c-15.079-10.556-35.217-9.387-48.974 2.841l-10.41 9.253c-24.871 22.107-58.821 29.847-90.818 20.707l-36.728-10.494c-7.165-2.047-14.687-.648-20.636 3.84-5.951 4.485-9.363 11.333-9.363 18.785v179.148c0 12.976 10.557 23.532 23.532 23.532h112.226c11.929 0 21.813-8.923 23.331-20.444 5.885 1.334 11.667 2.671 17.322 3.978 38.229 8.836 71.245 16.466 103.637 16.466 58.657 0 167.759-15.419 211.944-22.048 11.593-1.739 20.008-11.524 20.008-23.267v-26.862c0-17.344-11.112-32.505-27.65-37.728zm-465.956-99.587c2.158-1.627 4.885-2.135 7.482-1.392l36.728 10.494c10.219 2.919 20.604 4.349 30.899 4.348 26.938-.001 53.22-9.791 74.006-28.267l10.41-9.253c8.54-7.591 21.044-8.318 30.407-1.764l14.655 10.258-12.074 14.194c-2.684 3.155-2.302 7.888.854 10.572 1.411 1.2 3.138 1.787 4.856 1.787 2.123 0 4.232-.896 5.716-2.641l12.992-15.273 13.8 9.66-11.86 13.942c-2.684 3.155-2.302 7.888.854 10.572 1.411 1.2 3.138 1.787 4.856 1.787 2.123 0 4.232-.896 5.716-2.641l12.777-15.021 13.799 9.659-11.646 13.69c-2.684 3.155-2.302 7.888.854 10.572 1.411 1.2 3.138 1.787 4.856 1.787 2.123 0 4.233-.896 5.716-2.641l12.563-14.769 13.799 9.66-11.431 13.438c-2.684 3.155-2.302 7.888.854 10.572 1.411 1.2 3.138 1.787 4.856 1.787 2.123 0 4.233-.896 5.716-2.641l12.357-14.527c17.23 11.935 35.646 21.919 54.982 29.824v78.543c-37.938 4.055-67.697 6.108-88.693 6.108-30.635 0-62.793-7.438-100.031-16.05-9.087-2.102-18.401-4.256-27.986-6.369l76.187-89.562c2.684-3.155 2.302-7.888-.854-10.572-3.155-2.683-7.888-2.302-10.572.854l-81.429 95.725c-35.598-7.317-75.025-13.431-120.365-14.046v-115.592c0-2.702 1.237-5.185 3.394-6.812zm478.606 164.177c0 4.258-3.042 7.804-7.233 8.433-34.214 5.133-150.453 21.882-209.718 21.882-30.682 0-62.925-7.452-100.259-16.081-8.522-1.969-17.333-4.006-26.377-6.008-2.218-.492-4.543.051-6.316 1.474-1.773 1.424-2.805 3.575-2.805 5.849v6.234c0 4.705-3.828 8.532-8.532 8.532h-112.228c-4.705 0-8.532-3.828-8.532-8.532v-48.56c63.478.891 115.521 12.927 161.638 23.592 38.132 8.819 71.064 16.436 103.411 16.436 26.956 0 67.713-3.268 121.14-9.712 4.112-.496 7.043-4.232 6.547-8.345-.496-4.112-4.223-7.046-8.344-6.547-5.349.645-10.562 1.257-15.649 1.837v-71.235c2.42.835 4.847 1.651 7.292 2.423l88.799 28.042c10.267 3.243 17.166 12.656 17.166 23.424v2.135c-11.145 1.703-35.937 5.408-65.624 9.327-4.106.542-6.996 4.311-6.454 8.417.542 4.107 4.313 6.996 8.417 6.454 27.921-3.686 51.559-7.188 63.661-9.025z" fill="#5c5011" data-original="#000000" style=""/></g></g></svg>
