<?xml version="1.0"?>
<svg xmlns="http://www.w3.org/2000/svg" xmlns:xlink="http://www.w3.org/1999/xlink" xmlns:svgjs="http://svgjs.com/svgjs" version="1.1" width="512" height="512" x="0" y="0" viewBox="0 0 128 128" style="enable-background:new 0 0 512 512" xml:space="preserve"><g><g xmlns="http://www.w3.org/2000/svg"><path d="m121.5 62.25h-41.213a7.742 7.742 0 0 0 -6.187 3.05 7.585 7.585 0 0 0 -1.331 6.625 42.282 42.282 0 0 1 1.472 9.938 10.533 10.533 0 0 1 -9.8 10.875 10.261 10.261 0 0 1 -10.691-10.238 42.215 42.215 0 0 1 1.458-10.5 7.752 7.752 0 0 0 -1.343-6.77 7.6 7.6 0 0 0 -6.065-2.98h-41.3a1.75 1.75 0 0 0 -1.75 1.75v39.808a1.75 1.75 0 0 0 1.75 1.75h115a1.75 1.75 0 0 0 1.75-1.75v-39.808a1.75 1.75 0 0 0 -1.75-1.75zm-44.621 5.184a4.265 4.265 0 0 1 3.408-1.684h39.463v9.421a13.3 13.3 0 0 1 -3.425-.824 18.777 18.777 0 0 0 -12.648 0 15.274 15.274 0 0 1 -10.348 0 18.788 18.788 0 0 0 -12.649 0 13.289 13.289 0 0 1 -3.625.839c-.244-1.388-.533-2.781-.9-4.163a4.108 4.108 0 0 1 .724-3.589zm-29.079-1.684a4.12 4.12 0 0 1 3.291 1.618 4.278 4.278 0 0 1 .734 3.737c-.361 1.359-.64 2.721-.879 4.078a13.287 13.287 0 0 1 -3.608-.837 16.862 16.862 0 0 0 -6.327-1.1 16.831 16.831 0 0 0 -6.324 1.1 13.3 13.3 0 0 1 -5.174.9 13.328 13.328 0 0 1 -5.179-.9 16.848 16.848 0 0 0 -6.328-1.1 16.841 16.841 0 0 0 -6.327 1.1 13.34 13.34 0 0 1 -3.429.824v-9.42zm-39.55 36.308v-23.38a16.714 16.714 0 0 0 4.577-1.025 13.328 13.328 0 0 1 5.179-.9 13.33 13.33 0 0 1 5.18.9 16.841 16.841 0 0 0 6.327 1.1 16.836 16.836 0 0 0 6.324-1.1 13.3 13.3 0 0 1 5.174-.9 13.35 13.35 0 0 1 5.179.9 16.8 16.8 0 0 0 4.278 1c-.129 1.311-.218 2.6-.218 3.847a13.761 13.761 0 0 0 14.35 13.737 14.053 14.053 0 0 0 13.143-14.443c-.021-1.021-.1-2.075-.2-3.14a16.726 16.726 0 0 0 4.287-1 15.294 15.294 0 0 1 10.352 0 18.777 18.777 0 0 0 12.648 0 15.274 15.274 0 0 1 10.348 0 16.706 16.706 0 0 0 4.575 1.025v23.38z" fill="#e7c50c" data-original="#000000" style=""/><path d="m14.25 87.561v-5.644a1.75 1.75 0 0 0 -3.5 0v5.644a1.75 1.75 0 0 0 3.5 0z" fill="#e7c50c" data-original="#000000" style=""/><path d="m62.351 90.079a8.088 8.088 0 0 0 1.639.17 7.752 7.752 0 0 0 7.41-10.058 31.136 31.136 0 0 1 -1.625-8.639c-.175-11.572.545-29.11 4.925-46.942a1.75 1.75 0 0 0 -3.281-1.165c-.381.806-9.36 20.077-12.777 49.275a30.889 30.889 0 0 1 -1.907 7.08 7.845 7.845 0 0 0 -.3 4.4 7.762 7.762 0 0 0 5.916 5.879zm-2.336-9.057a34.158 34.158 0 0 0 2.1-7.9 188.808 188.808 0 0 1 5.41-27.83 210.615 210.615 0 0 0 -1.251 26.308 34.391 34.391 0 0 0 1.785 9.63 4.254 4.254 0 1 1 -8.2 2.229 4.3 4.3 0 0 1 .156-2.437z" fill="#e7c50c" data-original="#000000" style=""/><g><circle cx="15.586" cy="96.058" r="2.75" fill="#e7c50c" data-original="#000000" style=""/><circle cx="24.192" cy="86.56" r="2.75" fill="#e7c50c" data-original="#000000" style=""/><circle cx="41.5" cy="86.56" r="2.75" fill="#e7c50c" data-original="#000000" style=""/><path d="m34.583 92.726a2.749 2.749 0 1 0 1.222 1.714 2.752 2.752 0 0 0 -1.222-1.714z" fill="#e7c50c" data-original="#000000" style=""/><path d="m47.61 94.726a2.749 2.749 0 1 0 1.222 1.714 2.742 2.742 0 0 0 -1.222-1.714z" fill="#e7c50c" data-original="#000000" style=""/><circle cx="83.333" cy="96.058" r="2.75" fill="#e7c50c" data-original="#000000" style=""/><circle cx="98.883" cy="96.058" r="2.75" fill="#e7c50c" data-original="#000000" style=""/><circle cx="112.625" cy="95.058" r="2.75" fill="#e7c50c" data-original="#000000" style=""/><circle cx="90.875" cy="86.56" r="2.75" fill="#e7c50c" data-original="#000000" style=""/><circle cx="106.25" cy="85.56" r="2.75" fill="#e7c50c" data-original="#000000" style=""/></g></g></g></svg>
