<?xml version="1.0"?>
<svg xmlns="http://www.w3.org/2000/svg" xmlns:xlink="http://www.w3.org/1999/xlink" xmlns:svgjs="http://svgjs.com/svgjs" version="1.1" width="512" height="512" x="0" y="0" viewBox="0 0 512 512" style="enable-background:new 0 0 512 512" xml:space="preserve" class=""><g><g xmlns="http://www.w3.org/2000/svg"><path d="m497.004 106.881c0-4.138 3.374-7.512 7.512-7.512 4.139 0 7.484 3.374 7.484 7.512v225.017c0 10.063-4.11 19.219-10.744 25.853-6.633 6.633-15.789 10.772-25.88 10.772h-169.146l14.06 65.566h32.429c7.654 0 14.57 3.118 19.588 8.136 5.017 5.017 8.135 11.934 8.135 19.559s-3.118 14.57-8.135 19.588c-5.018 5.017-11.934 8.135-19.588 8.135h-193.438c-7.626 0-14.57-3.118-19.588-8.135-5.017-5.018-8.135-11.963-8.135-19.588s3.118-14.542 8.135-19.559c5.018-5.018 11.962-8.136 19.588-8.136h32.429l14.088-65.566h-169.174c-10.091 0-19.248-4.139-25.88-10.772-6.634-6.633-10.744-15.79-10.744-25.853v-53.405c0-4.139 3.374-7.484 7.512-7.484s7.483 3.345 7.483 7.484v16.781h482.009zm-104.656 21.827c-4.139 0-7.484-3.373-7.484-7.512s3.345-7.512 7.484-7.512h80.59c4.139 0 7.483 3.373 7.483 7.512s-3.345 7.512-7.483 7.512zm0-60.151c-4.139 0-7.484-3.345-7.484-7.483 0-4.167 3.345-7.512 7.484-7.512h80.59c4.139 0 7.483 3.345 7.483 7.512 0 4.139-3.345 7.483-7.483 7.483zm0 29.112c-4.139 0-7.484-3.345-7.484-7.483 0-4.139 3.345-7.512 7.484-7.512h80.59c4.139 0 7.483 3.373 7.483 7.512s-3.345 7.483-7.483 7.483zm0 60.152c-4.139 0-7.484-3.374-7.484-7.513 0-4.138 3.345-7.483 7.484-7.483h61.172c4.139 0 7.483 3.345 7.483 7.483 0 4.139-3.345 7.513-7.483 7.513zm-36.51 60.237c-4.139 0-7.513-3.373-7.513-7.512s3.374-7.483 7.513-7.483h80.561c4.138 0 7.512 3.345 7.512 7.483s-3.374 7.512-7.512 7.512zm0 29.112c-4.139 0-7.513-3.345-7.513-7.483 0-4.167 3.374-7.512 7.513-7.512h61.143c4.139 0 7.512 3.345 7.512 7.512 0 4.139-3.373 7.483-7.512 7.483zm.368 14.599c4.139 0 7.483 3.373 7.483 7.512s-3.345 7.512-7.483 7.512h-80.816c-4.139 0-7.513-3.373-7.513-7.512v-88.329c0-4.139 3.373-7.512 7.513-7.512h195.592c4.139 0 7.512 3.373 7.512 7.512v88.329c0 4.139-3.373 7.512-7.512 7.512h-80.817c-4.138 0-7.483-3.373-7.483-7.512s3.345-7.512 7.483-7.512h73.333v-73.333h-180.625v73.333zm-80.816-148.084h87.846c4.139 0 7.512 3.373 7.512 7.512v29.112c0 4.139-3.374 7.513-7.512 7.513h-87.846c-4.139 0-7.513-3.374-7.513-7.513v-7.058h-38.835l-26.674 13.947c3.146 3.827 4.876 7.909 4.904 12.246v11.31 21.629c0 7.427-3.062 14.201-7.937 19.077-5.075 5.074-11.906 7.909-19.078 7.909h-27.553c-1.644 11.537-7.03 21.884-14.882 29.736-9.524 9.524-22.678 15.42-37.22 15.42s-27.695-5.896-37.219-15.42c-7.852-7.852-13.238-18.199-14.882-29.736h-33.505v15.166c0 4.139-3.345 7.484-7.483 7.484-4.139 0-7.512-3.345-7.512-7.484 0-61.825 0-123.62 0-185.417-.001-10.092 4.109-19.248 10.743-25.882 6.633-6.633 15.789-10.743 25.88-10.743h438.752c10.091 0 19.247 4.11 25.88 10.743 6.634 6.634 10.744 15.79 10.744 25.881v13.776c0 4.139-3.345 7.512-7.484 7.512-4.138 0-7.512-3.374-7.512-7.512v-13.776c0-5.924-2.438-11.338-6.35-15.25-3.912-3.94-9.326-6.378-15.279-6.378h-438.751c-5.925 0-11.339 2.438-15.25 6.378-3.94 3.912-6.378 9.326-6.378 15.25v30.274c3.685 2.807 7.37 5.613 11.055 8.362 11.423 8.504 21.487 15.137 29.027 15.42 16.668.539 46.092 4.762 62.108 8.306l104.854-52.525c1.049-.539 2.183-.822 3.345-.822h42.492v-7.058c0-4.167 3.373-7.512 7.513-7.512h87.846c4.139 0 7.512 3.345 7.512 7.512v29.112c0 4.139-3.374 7.483-7.512 7.483h-87.846c-4.139 0-7.513-3.345-7.513-7.483v-7.059h-40.791l-87.676 43.938c16.752 4.677 35.604 10.828 50.4 19.842l33.988-17.773c1.077-.567 2.268-.878 3.458-.878h40.621v-7.059c0-4.139 3.373-7.512 7.513-7.512zm80.334 15.023h-72.851v14.117h72.851zm0-60.151h-72.851v14.117h72.851zm-185.445 85.069v19.645h21.969v-3.827c0-5.642-19.304-14.628-21.969-15.818zm134.704 280.463-14.088-65.566h-69.79l-14.06 65.566h31.975c4.139 0 7.512 3.345 7.512 7.484 0 4.138-3.373 7.512-7.512 7.512h-79.74c-3.487 0-6.662 1.417-8.958 3.742-2.324 2.296-3.742 5.471-3.742 8.957s1.417 6.661 3.742 8.986c2.296 2.296 5.471 3.742 8.958 3.742h193.438c3.487 0 6.662-1.446 8.986-3.742 2.296-2.325 3.742-5.5 3.742-8.986 0-3.487-1.446-6.662-3.742-8.957-2.325-2.325-5.5-3.742-8.986-3.742h-79.74c-4.139 0-7.483-3.374-7.483-7.512 0-4.139 3.345-7.484 7.483-7.484zm-138.757-94.707c-4.167 0-7.512-3.345-7.512-7.483 0-4.139 3.345-7.512 7.512-7.512h12.614c4.139 0 7.483 3.373 7.483 7.512s-3.345 7.483-7.483 7.483zm166.962 0c-4.139 0-7.512-3.345-7.512-7.483 0-4.139 3.373-7.512 7.512-7.512h12.614c4.138 0 7.483 3.373 7.483 7.512s-3.345 7.483-7.483 7.483zm-41.754 0c-4.139 0-7.483-3.345-7.483-7.483 0-4.139 3.345-7.512 7.483-7.512h12.614c4.139 0 7.512 3.373 7.512 7.512s-3.373 7.483-7.512 7.483zm-41.727 0c-4.139 0-7.512-3.345-7.512-7.483 0-4.139 3.373-7.512 7.512-7.512h12.614c4.139 0 7.483 3.373 7.483 7.512s-3.345 7.483-7.483 7.483zm-41.755 0c-4.139 0-7.483-3.345-7.483-7.483 0-4.139 3.345-7.512 7.483-7.512h12.614c4.139 0 7.512 3.373 7.512 7.512s-3.373 7.483-7.512 7.483zm-192.956-29.112v21.628c0 5.925 2.438 11.339 6.378 15.25 3.912 3.94 9.326 6.35 15.25 6.35h438.752c5.953 0 11.367-2.41 15.279-6.35 3.912-3.912 6.35-9.326 6.35-15.25v-21.628zm0-95.841h33.506c1.644-11.537 7.03-21.884 14.882-29.736 9.524-9.525 22.678-15.421 37.219-15.421 14.542 0 27.695 5.896 37.22 15.421 7.852 7.852 13.238 18.199 14.882 29.736h27.553c3.288 0 6.293-1.389 8.476-3.571s3.515-5.188 3.515-8.476v-14.117h-29.48c-4.139 0-7.484-3.373-7.484-7.512v-33.109c-4.451-1.531-9.156-3.004-13.975-4.45-27.213-8.136-58.507-13.833-79.257-14.854-1.333 4.847-3.94 9.212-7.398 12.699-5.244 5.216-12.444 8.447-20.382 8.447h-19.277v16.214h14.088c4.139 0 7.484 3.374 7.484 7.512s-3.345 7.483-7.484 7.483h-14.088zm0-79.937h19.275c3.798 0 7.257-1.56 9.78-4.054 1.049-1.077 1.927-2.296 2.608-3.657-9.95-2.92-20.382-10.177-31.664-18.652v26.363zm297.471 66.813c2.58-3.232 7.257-3.771 10.488-1.219 3.26 2.551 3.799 7.257 1.248 10.488l-6.123 7.739 8.618 3.798c3.77 1.672 5.499 6.094 3.827 9.865-.34.793-.822 1.502-1.389 2.098l-11.735 14.826c-2.552 3.26-7.257 3.798-10.489 1.247-3.231-2.551-3.77-7.257-1.219-10.488l6.123-7.739-8.617-3.799c-4.422-1.956-5.868-7.653-2.835-11.48zm-211.864-5.811c7.285 0 13.89 2.948 18.681 7.739 4.762 4.762 7.71 11.367 7.71 18.652s-2.948 13.89-7.71 18.681c-4.791 4.762-11.396 7.738-18.681 7.738s-13.89-2.976-18.68-7.738c-4.763-4.791-7.711-11.396-7.711-18.681s2.948-13.89 7.711-18.652c4.79-4.791 11.395-7.739 18.68-7.739zm8.079 18.34c-2.069-2.069-4.933-3.345-8.079-3.345s-6.009 1.275-8.05 3.345c-2.069 2.069-3.345 4.904-3.345 8.05 0 3.147 1.275 6.01 3.345 8.079 2.041 2.069 4.904 3.345 8.05 3.345s6.01-1.275 8.079-3.345c2.041-2.069 3.316-4.933 3.316-8.079s-1.275-5.981-3.316-8.05zm18.539-18.539c-6.831-6.832-16.215-11.026-26.618-11.026s-19.786 4.224-26.618 11.026c-6.803 6.804-10.999 16.215-10.999 26.589 0 10.403 4.195 19.815 10.999 26.618 6.832 6.803 16.215 11.027 26.618 11.027s19.787-4.224 26.618-11.027c6.803-6.803 10.998-16.215 10.998-26.618 0-10.374-4.195-19.785-10.998-26.589z" fill="#2b1dd1" data-original="#000000" style=""/></g></g></svg>
