<?xml version="1.0"?>
<svg xmlns="http://www.w3.org/2000/svg" xmlns:xlink="http://www.w3.org/1999/xlink" xmlns:svgjs="http://svgjs.com/svgjs" version="1.1" width="512" height="512" x="0" y="0" viewBox="0 0 256 256" style="enable-background:new 0 0 512 512" xml:space="preserve" class=""><g><path xmlns="http://www.w3.org/2000/svg" d="m138.0976 121.3553c-1.1481 3.5576-3.1305 6.7889-5.7819 9.4241-1.0205 1.0615-2.0966 2.0681-3.2239 3.0154-2.1731 1.8449-2.9207 4.874-1.8555 7.5181 1.2018 3.2961 4.2989 5.5204 7.8062 5.6064h8.1836c5.9548.0047 11.8058-1.5589 16.9644-4.5336.9175.6879 3.497 3.3018 14.747-.2607 13.125-4.5 19.1542-16.12 20.5625-24.3804h28.728c5.147-.0571 10.0239-2.3595 13.1672-7.1508 4.7489-7.2592 2.7139-16.9937-4.5453-21.7426-1.7471-1.1429-3.7045-1.9261-5.7577-2.3037l.0001-.0001-13.4189-2.4849c-1.3729-28.5281-24.8847-50.9629-53.4458-50.9976h-17.0147c-15.8008.0022-31.3777 3.7355-45.4629 10.896-12.4593-13.135-32.3944-15.7972-47.8638-6.3921l-7.8955 4.84c-3.1934 2.0692-4.7941 5.8826-4.0346 9.6112.5058 3.0175 2.887 5.372 5.91 5.8438 12.4517 1.91 17.7568 7.1167 21.1782 12.7627-14.2026 17.7587-21.945 39.8186-21.9561 62.5581l-.1239 58.9937-12.6041 4.59c-9.343 3.4024-14.1587 13.7346-10.7563 23.0776 0 0 1.439 3.95 1.439 3.95.5645 1.5555 2.283 2.3589 3.8385 1.7944.0022-.0008.0044-.0016.0067-.0024l27.4341-9.9907c1.7698-.648 3.3537-1.7201 4.6129-3.1224 1.2593 1.4023 2.8433 2.4744 4.6132 3.1224l27.4336 9.9907c1.5563.5671 3.2777-.2349 3.8447-1.7912.0002-.0004 1.439-3.9513 1.439-3.9513 3.3905-9.3422-1.4212-19.6659-10.7559-23.0771l-11.2787-4.1076c.2547-1.2623.8603-3.8127.8677-3.8423 4.9683-20.3768 16.6251-38.2977 32.8446-51.0613 14.8692-11.9446 32.1543-16.4018 32.1543-16.4018zm-84.163 83.3669c-.0052 2.341-1.4682 4.4311-3.666 5.2373l-24.6152 8.9644-.4121-1.1313c-2.2604-6.229.948-13.1123 7.1719-15.3867l19.7944-7.209c1.1674-.3844 1.7321.7879 1.7271 1.209zm27.522-2.3164c6.229 2.2688 9.4395 9.1576 7.1709 15.3867l-.4121 1.1309-24.6143-8.9639c-2.1981-.806-3.6613-2.8961-3.6665-5.2373v-8.3164c.0029-.5308.6904-1.5308 1.7261-1.209zm84.9053-64.5487c5.7556-5.283 9.5204-12.3838 10.6636-20.1124h12.3732c-2.355 11.0793-11.7411 19.2739-23.0369 20.1124zm-97.943 45.2474c-3.6425-3.5526-5.1127-8.7788-3.8567-13.7094l7.39-28.9912c3.2939-12.9584 11.2784-24.2339 22.4078-31.6439l6.8623-4.5752c18.3196-12.1721 41.3381-14.9004 61.9956-7.3481l4.938 1.814c6.6695 2.4486 13.5478 4.2858 20.55 5.4888l39.4471 6.771c-.0214.0095-1.9655.9645-3.9247.8333h-49.9026c-1.5833 0-2.8941 1.2304-2.9941 2.8105-1.2691 12.8207-8.6441 21.3207-19.6777 25.0657-2.7942.7943-5.5981 1.3567-8.4279 1.2986h-8.183c-.9832-.0968-2.793-1.6061-2.0757-2.5435 7.4521-6.3037 11.2456-12.9282 11.9375-20.8467.1441-1.6506-1.0298-3.9659-4.9803-2.7752-13.4777 3.071-24.9446 9.7727-24.9446 9.7727-18.2422 10.2345-32.8751 26.0666-41.614 45.3243-1.6159 3.5248-3.3963 8.1752-4.947 13.2543zm164.8117-77.4097-43.51-7.4682c-6.6427-1.1416-13.1679-2.8846-19.4951-5.2075l-4.9385-1.814c-22.4561-8.2071-47.4773-5.2415-67.3926 7.9878l-6.8623 4.5752c-12.3643 8.2318-21.2351 20.7579-24.8955 35.1538l-7.39 28.9912c-2.0743 8.1617 1.1223 16.7549 8.0262 21.5769-.0815.3644-.1718.726-.2492 1.0917l-2.8092-1.0231c-2.2338-.8123-4.6714-.4355-6.7769.9414-1.8125-1.4375-4.5493-1.7538-6.7837-.9413l-1.1857.4318.1193-56.8c.0088-22.054 7.7539-43.4061 21.8862-60.337.789-.9432.9224-2.2724.3364-3.3535-5.5195-10.1816-13.7031-15.6-26.5351-17.5674-1.8582-1.0993-.6845-3.6493.3516-4.4086l7.8955-4.84c13.7062-8.3434 31.4555-5.392 41.7241 6.938.9126 1.1058 2.4802 1.4112 3.7412.729 13.7437-7.4082 29.1124-11.2863 44.7256-11.2861h17.0146c26.2234.0296 47.4743 21.2805 47.5039 47.5039-.0001 1.4462 1.0316 2.6866 2.4536 2.95l15.815 2.928c5.2787.9721 8.7699 6.0393 7.7978 11.318-.1218.6612-.3118 1.308-.5671 1.93z" fill="#19760c" data-original="#000000" style="" class=""/><path xmlns="http://www.w3.org/2000/svg" d="m183.6611 75.5352c-3.6547-.0001-6.6175 2.9625-6.6176 6.6172s2.9625 6.6175 6.6172 6.6176c3.6546.0001 6.6174-2.9625 6.6176-6.6171-.0042-3.6529-2.9643-6.6132-6.6172-6.6177zm0 7.2349c-.341.0001-.6175-.2762-.6176-.6172s.2762-.6175.6172-.6176.6175.2762.6176.6172v.0004c-.0005.3406-.2766.6167-.6172.6171z" fill="#19760c" data-original="#000000" style="" class=""/></g></svg>
