<?xml version="1.0"?>
<svg xmlns="http://www.w3.org/2000/svg" xmlns:xlink="http://www.w3.org/1999/xlink" xmlns:svgjs="http://svgjs.com/svgjs" version="1.1" width="512" height="512" x="0" y="0" viewBox="0 0 430.474 430.474" style="enable-background:new 0 0 512 512" xml:space="preserve"><g>
<path xmlns="http://www.w3.org/2000/svg" id="XMLID_189_" d="M427.677,173.861c-2.771-28.668-7.117-57.709-12.621-91.016C411,58.267,387.502,38.167,362.675,38.041  c-9.592-0.048-46.734-0.004-55.888-0.047c-16.446-11.438-58.638-15.578-91.551-15.578c-32.625,0-74.364,4.067-91.109,15.278  c-6.567,0.04-44.12,0.284-56.329,0.347c-24.823,0.126-48.321,20.225-52.382,44.803C9.132,120.881,4.357,153.35,1.715,186.045  c-0.166,2.054-0.779,10.613-0.867,12.077c-2.24,37.398,0.348,74.73,3.226,106.607c0.368,3.73,1.464,14.356,1.464,14.356  c0.62,6.006,3.6,11.352,7.959,15.168l4.362,28.324c0.677,4.39,4.454,7.63,8.896,7.63l46.971,0c1.474,0,2.95-0.297,4.256-0.98  c3.573-1.87,5.363-5.676,4.791-9.39l-3.698-24.008c0.019-0.021,0.037-0.042,0.055-0.063c3.879-4.569,2.97-10.093,2.306-14.125  c-0.223-1.35-1.199-15.42-1.357-18.293c-1.572-30.648-2.879-60.682-1.608-91.159c1.161-27.856,3.867-56.104,6.479-81.771  c0.17-0.277,3.597-1.656,3.597-1.656c-2.151,44.145-3.734,87.493-1.828,131.013c1.268,28.962,5.976,101.853,5.976,101.853  c1.285,20.043,3.433,31.537,11.605,38.737c8.116,7.149,19.416,7.577,37.18,7.684c4.251,0.025,33.948,0,38.179,0  c13.1,0,23.757-10.665,23.757-23.774v-1.985c3.516-1.292,20.102-1.313,23.648,0v1.985c0,13.125,10.638,23.774,23.763,23.774  c4.239,0,29.627-0.046,38.068,0c16.502,0.094,27.934-0.395,36.391-7.657c8.944-7.681,11.427-20.748,12.533-39.344  c0.628-10.563,1.313-21.317,1.976-31.716c1.45-22.771,2.949-46.315,3.964-69.557c1.905-43.503,0.323-86.858-1.827-131.013  c0,0,3.309-0.763,3.594,1.65c3.02,29.728,5.383,55.36,6.483,81.776c1.269,30.476-0.099,61.744-1.606,91.121  c-0.152,2.738-2.057,22.57-1.926,24.934c0.14,2.537,0.865,5.158,2.873,7.523c0.018,0.021,0.035,0.041,0.053,0.062l-3.676,23.865  c-0.224,1.456-0.155,2.958,0.322,4.352c1.305,3.814,4.794,6.162,8.551,6.162h47.122c4.441,0,8.219-3.24,8.896-7.63l4.364-28.325  c4.359-3.816,7.339-9.164,7.96-15.172c0,0,1.089-10.572,1.471-14.428c2.591-28.719,4.953-61.944,3.738-95.656  C429.963,203.922,428.268,179.975,427.677,173.861z M18.404,207.386c6.203,2.1,13.07,3.472,20.218,3.997  c7.715,0.566,15.184,0.107,21.92-1.307c-0.02,0.455-0.688,32.953-0.304,48.642c-5.674,1.997-13.021,2.814-20.683,2.249  c-7.846-0.577-15.295-2.554-20.914-5.505C17.95,239.806,17.739,223.61,18.404,207.386z M23.443,317.24  c0,0-1.091-10.576-1.449-14.205c-0.798-8.836-1.573-18.101-2.226-27.67c5.7,1.857,11.964,3.074,18.467,3.553  c8.012,0.59,15.749,0.011,22.607-1.644c0.362,9.134,2.306,43.828,2.462,44.934c-4.842,0.003-27.518,0.033-34.019,0.033  C26.499,322.241,23.713,319.856,23.443,317.24z M34.474,352.207l-1.843-11.967c5.394-0.002,24.66-0.028,28.905-0.031l1.848,11.998  H34.474z M61.57,191.192c-6.011,2.013-13.664,2.823-21.628,2.239c-7.486-0.551-14.639-2.296-20.368-4.912  c1.402-17.651,3.447-35.263,6.032-53.777c6.509,2.333,13.797,3.85,21.398,4.408c6.632,0.489,13.086,0.217,19.051-0.769  C64.374,155.301,62.735,173.149,61.57,191.192z M185.413,384.273c0,3.13-2.637,5.774-5.757,5.774c-4.242,0-29.636,0.051-38.071,0  c-12.832-0.076-22.164-0.35-25.389-3.19c-3.586-3.159-6.322-38.516-6.322-38.516c10.364,3.17,22.651,5.211,35.637,5.867  c14.586,0.738,28.479-0.354,39.902-3.088V384.273z M185.413,332.477c-10.187,3.128-24.321,4.495-38.994,3.755  c-14.368-0.727-28.021-3.411-37.802-7.41c-1.059-16.571-2.093-33.373-2.968-50.125c11.174,3.967,25.066,6.514,39.86,7.26  c14.582,0.738,28.478-0.353,39.903-3.087V332.477z M185.413,264.226c-10.188,3.129-24.327,4.493-38.994,3.754  c-9.794-0.495-19.256-1.9-27.387-4.011c-4.408-1.145-13.107-4.387-14.321-5.034c-0.001-0.026-0.904-37.475-0.812-49.129  c11.454,4.333,26.031,7.114,41.611,7.901c14.591,0.737,28.479-0.354,39.902-3.088V264.226z M185.413,195.975  c-10.187,3.128-24.321,4.496-38.994,3.755c-15.105-0.764-41.182-8.606-42.23-9.107c0.068-3.044,0.145-5.76,0.231-8.809  c0.37-13.117,0.899-26.283,1.505-39.522c11.126,3.912,24.911,6.423,39.585,7.163c14.592,0.736,28.478-0.354,39.903-3.087V195.975z   M185.413,127.724c-10.188,3.129-24.328,4.495-38.994,3.754c-15.104-0.763-29.42-3.691-39.277-8.036  c-0.102-0.045,0.929-12.318-9.182-12.729l-21.019,0.105c-7.204,0.388-8.954,8.526-8.977,8.749  c-5.668,1.564-12.532,2.157-19.639,1.632c-7.342-0.54-14.366-2.229-20.041-4.764c1.501-9.86,3.137-20.037,4.892-30.658  c2.649-16.036,18.546-29.654,34.714-29.736c12.218-0.063,50.038-0.309,56.731-0.35c0.886,0,60.791,21.178,60.791,21.178V127.724z   M233.1,62.012c-3.616,1.26-6.039,4.67-6.039,8.499v293.537c-3.017-1.208-19.13-1.261-23.648,0.001V70.511  c0-3.812-2.4-7.209-5.992-8.482L152.57,46.127c14.217-3.159,35.549-5.711,62.667-5.711c27.423,0,48.928,2.609,63.144,5.817  L233.1,62.012z M245.061,146.367c11.425,2.733,25.316,3.823,39.899,3.087c14.676-0.74,28.462-3.252,39.589-7.163  c0.746,16.313,1.375,32.524,1.734,48.661c-4.964,2.171-27.124,8.014-42.23,8.777c-14.671,0.741-28.806-0.626-38.992-3.755V146.367z   M319.847,359.978c-0.926,15.563-2.866,23.814-6.291,26.755c-3.696,3.174-12.902,3.366-24.566,3.314c-4.245-0.022-33.941,0-38.172,0  c-3.175,0-5.757-2.591-5.757-5.774v-8.599c0.003-0.139,0.003-0.278,0-0.417V351.12c11.424,2.733,25.312,3.829,39.9,3.088  c12.966-0.655,25.238-2.691,35.593-5.854C320.314,352.234,320.077,356.117,319.847,359.978z M321.828,328.186  c-0.014,0.222-0.028,0.442-0.042,0.664c-9.775,3.983-23.398,6.657-37.732,7.382c-14.671,0.739-28.806-0.626-38.992-3.755v-49.607  c11.425,2.734,25.318,3.824,39.899,3.087c14.791-0.746,28.678-3.291,39.85-7.255C323.922,295.307,322.862,311.944,321.828,328.186z   M325.761,259.257c-2.316,1.616-26.604,7.96-41.709,8.723c-14.666,0.742-28.804-0.624-38.991-3.754v-49.607  c11.424,2.732,25.312,3.825,39.9,3.088c15.58-0.787,30.157-3.568,41.611-7.901C326.703,226.243,325.765,259.167,325.761,259.257z   M353.531,110.818l-21.017-0.105c-0.015,0-0.029-0.001-0.044,0c-11.108,0.41-8.884,11.551-8.832,12.6  c-0.103,0.041-0.205,0.084-0.308,0.129c-9.857,4.345-24.174,7.273-39.278,8.036c-14.669,0.742-28.805-0.625-38.991-3.754V76.905  l60.035-20.919c9.733,0.051,47.952,0.006,57.487,0.055c16.17,0.082,32.066,13.699,34.713,29.737  c1.755,10.619,3.391,20.797,4.893,30.657c-5.675,2.534-12.698,4.224-20.042,4.764c-7.105,0.523-13.972-0.066-19.64-1.632  C362.485,119.344,362.237,110.436,353.531,110.818z M383.468,139.15c7.603-0.559,14.891-2.075,21.399-4.408  c2.585,18.512,4.63,36.125,6.032,53.777c-5.731,2.616-12.885,4.361-20.368,4.912c-7.96,0.588-15.612-0.225-21.622-2.237  c-1.098-17.041-2.648-34.204-4.496-52.813C370.379,139.367,376.833,139.641,383.468,139.15z M395.998,352.207h-28.91l1.848-11.998  c4.244,0.003,23.513,0.029,28.906,0.031L395.998,352.207z M407.032,317.235c-0.271,2.62-3.057,5.006-5.844,5.006  c-6.503,0-29.178-0.03-34.019-0.033c0.155-1.104,2.1-35.81,2.462-44.934c6.86,1.653,14.599,2.232,22.609,1.644  c6.503-0.479,12.766-1.695,18.465-3.552C410.055,284.913,407.032,317.235,407.032,317.235z M411.834,255.464  c-5.619,2.95-13.067,4.926-20.913,5.503c-7.665,0.565-15.009-0.253-20.685-2.248c0.383-15.682,0.409-31.544-0.246-47.28  c-0.019-0.453-0.038-0.908-0.058-1.362c6.738,1.414,14.212,1.873,21.92,1.307c7.146-0.525,14.015-1.897,20.218-3.997  C412.736,223.616,412.524,239.811,411.834,255.464z" fill="#279b0e" data-original="#000000" style=""/>
<g xmlns="http://www.w3.org/2000/svg">
</g>
<g xmlns="http://www.w3.org/2000/svg">
</g>
<g xmlns="http://www.w3.org/2000/svg">
</g>
<g xmlns="http://www.w3.org/2000/svg">
</g>
<g xmlns="http://www.w3.org/2000/svg">
</g>
<g xmlns="http://www.w3.org/2000/svg">
</g>
<g xmlns="http://www.w3.org/2000/svg">
</g>
<g xmlns="http://www.w3.org/2000/svg">
</g>
<g xmlns="http://www.w3.org/2000/svg">
</g>
<g xmlns="http://www.w3.org/2000/svg">
</g>
<g xmlns="http://www.w3.org/2000/svg">
</g>
<g xmlns="http://www.w3.org/2000/svg">
</g>
<g xmlns="http://www.w3.org/2000/svg">
</g>
<g xmlns="http://www.w3.org/2000/svg">
</g>
<g xmlns="http://www.w3.org/2000/svg">
</g>
</g></svg>
