<?xml version="1.0" encoding="UTF-8"?>
<svg width="32px" height="32px" viewBox="0 0 32 32" version="1.1" xmlns="http://www.w3.org/2000/svg" xmlns:xlink="http://www.w3.org/1999/xlink">
    <!-- Generator: Sketch 43.2 (39069) - http://www.bohemiancoding.com/sketch -->
    <title>Metacategory / Eat</title>
    <desc>Created with Sketch.</desc>
    <defs></defs>
    <g id="Page-1" stroke="none" stroke-width="1" fill="none" fill-rule="evenodd">
        <g id="New-meta-draft" transform="translate(-84.000000, -84.000000)">
            <g id="Slice" transform="translate(84.000000, 84.000000)"></g>
            <g id="Icon" transform="translate(51.000000, 42.000000)" stroke="#FF8D00" stroke-width="2">
                <g id="Meta" transform="translate(28.000000, 0.000000)">
                    <g id="Eat" transform="translate(10.000000, 44.000000)">
                        <path d="M8,0 L8,8 C8,9 8,10 6,12 L6.825,26.033 C6.92,27.643 5.64,29 4.028,29 L3.972,29 C2.36,29 1.08,27.643 1.175,26.033 L2,12 C0,10 0,9 0,8 L0,0" id="Stroke-1"></path>
                        <path d="M4,8 L4,0" id="Stroke-3"></path>
                        <path d="M17,1 C14,1 12,4 12,8 C12,10 13,12 15,13 C15,14.409 14.503,21.778 14.21,26.007 C14.098,27.627 15.382,29 17.006,29 L17.006,29 C18.626,29 19.909,27.631 19.802,26.014 C19.511,21.584 19,13.715 19,13 C21,12 22,10 22,8 C22,4 20,1 17,1 Z" id="Stroke-5"></path>
                    </g>
                </g>
            </g>
        </g>
    </g>
</svg>