<?xml version="1.0" encoding="UTF-8"?>
<svg width="32px" height="32px" viewBox="0 0 32 32" version="1.1" xmlns="http://www.w3.org/2000/svg" xmlns:xlink="http://www.w3.org/1999/xlink">
    <!-- Generator: Sketch 44.1 (41455) - http://www.bohemiancoding.com/sketch -->
    <title>Metarubrick / Education / professional_education</title>
    <desc>Created with Sketch.</desc>
    <defs></defs>
    <g id="Page-1" stroke="none" stroke-width="1" fill="none" fill-rule="evenodd">
        <g id="New-meta-draft" transform="translate(-584.000000, -2984.000000)">
            <g id="Slice" transform="translate(84.000000, 84.000000)"></g>
            <g id="Icon" transform="translate(51.000000, 42.000000)" stroke="#8345FE" stroke-width="2">
                <g id="Education" transform="translate(28.000000, 2895.000000)">
                    <g transform="translate(506.000000, 50.000000)">
                        <path d="M21.9995,9.7209 L29.0995,7.3539 C29.7005,7.1539 29.9995,6.6539 29.9995,6.0539 C29.9995,5.4539 29.5995,4.9539 29.0995,4.7539 L14.9995,0.0539 L0.8995,4.7539 C0.2995,4.9539 -0.0005,5.4539 -0.0005,6.0539 C-0.0005,6.6539 0.3995,7.1539 0.8995,7.3539 L14.9995,12.0539" id="Stroke-1"></path>
                        <polyline id="Stroke-3" points="15 6.0541 19 11.0541 19 18.0541"></polyline>
                        <path d="M19,26.0541 L17,26.0541 L17,20.0541 C17,18.9541 17.9,18.0541 19,18.0541 C20.1,18.0541 21,18.9541 21,20.0541 L21,26.0541 L19,26.0541 Z" id="Stroke-5"></path>
                        <path d="M16.9995,20.9685 C16.3735,21.0235 15.7065,21.0545 15.0005,21.0545 C14.6575,21.0545 14.3235,21.0465 14.0005,21.0335 C7.7135,20.7675 5.0005,18.0545 5.0005,18.0545 L5.0005,8.7205" id="Stroke-7"></path>
                        <path d="M25,8.7208 L25,18.0538 C25,18.0538 23.756,19.2988 21,20.1838" id="Stroke-9"></path>
                    </g>
                </g>
            </g>
        </g>
    </g>
</svg>