<?xml version="1.0"?>
<svg xmlns="http://www.w3.org/2000/svg" xmlns:xlink="http://www.w3.org/1999/xlink" xmlns:svgjs="http://svgjs.com/svgjs" version="1.1" width="512" height="512" x="0" y="0" viewBox="0 0 512 512" style="enable-background:new 0 0 512 512" xml:space="preserve"><g><g xmlns="http://www.w3.org/2000/svg"><path d="m75 80c-8.284 0-15 6.716-15 15v40c0 8.284 6.716 15 15 15s15-6.716 15-15v-40c0-8.284-6.716-15-15-15z" fill="#1a830b" data-original="#000000" style=""/><path d="m75 240c-8.284 0-15 6.716-15 15v80c0 8.284 6.716 15 15 15s15-6.716 15-15v-80c0-8.284-6.716-15-15-15z" fill="#1a830b" data-original="#000000" style=""/><path d="m467 102h-157v-57c0-24.813-20.187-45-45-45h-220c-24.813 0-45 20.187-45 45v422c0 24.813 20.187 45 45 45h422c24.813 0 45-20.187 45-45v-320c0-24.813-20.187-45-45-45zm15 45v55h-270v-55c0-8.271 6.729-15 15-15h240c8.271 0 15 6.729 15 15zm-452-102c0-8.271 6.729-15 15-15h220c8.271 0 15 6.729 15 15v57h-53c-24.813 0-45 20.187-45 45v33h-152zm0 422v-257h152v257c0 5.259.915 10.305 2.58 15h-139.58c-8.271 0-15-6.729-15-15zm452 0c0 8.271-6.729 15-15 15h-240c-8.271 0-15-6.729-15-15v-235h270z" fill="#1a830b" data-original="#000000" style=""/><circle cx="437" cy="167" r="15" fill="#1a830b" data-original="#000000" style=""/><circle cx="377" cy="167" r="15" fill="#1a830b" data-original="#000000" style=""/><path d="m347 452c52.383 0 95-42.617 95-95s-42.617-95-95-95-95 42.617-95 95 42.617 95 95 95zm0-160c35.841 0 65 29.159 65 65s-29.159 65-65 65-65-29.159-65-65 29.159-65 65-65z" fill="#1a830b" data-original="#000000" style=""/></g></g></svg>
