<?xml version="1.0"?>
<svg xmlns="http://www.w3.org/2000/svg" xmlns:xlink="http://www.w3.org/1999/xlink" xmlns:svgjs="http://svgjs.com/svgjs" version="1.1" width="512" height="512" x="0" y="0" viewBox="0 0 512.001 512.001" style="enable-background:new 0 0 512 512" xml:space="preserve"><g>
<g xmlns="http://www.w3.org/2000/svg">
	<rect x="262.409" y="219.592" transform="matrix(0.7071 -0.7071 0.7071 0.7071 -84.6309 264.868)" width="30" height="30" fill="#bc1ac1" data-original="#000000" style=""/>
	<rect x="219.982" y="262.019" transform="matrix(-0.7071 -0.7071 0.7071 -0.7071 205.2618 639.0589)" width="30" height="30" fill="#bc1ac1" data-original="#000000" style=""/>
	<path d="M453.991,0L353.277,52.658L94.592,311.343l-1.12,3.359c-13.145,39.436-35.629,75.816-65.023,105.21L0,448.361l63.64,63.64   l28.448-28.449c29.394-29.394,65.774-51.878,105.21-65.023l3.359-1.12l258.686-258.685L512.001,58.01L453.991,0z M165.551,398.506   c-9.729,4.139-19.24,8.798-28.484,13.943l-37.516-37.515c5.145-9.244,9.804-18.755,13.943-28.484L165.551,398.506z    M128.916,319.445l190.919-190.919l63.64,63.64L192.556,383.085L128.916,319.445z M341.048,107.313L362.261,86.1l63.64,63.64   l-21.214,21.213L341.048,107.313z M70.875,462.339l-7.235,7.235l-21.213-21.213l7.235-7.235   c12.333-12.333,23.567-25.777,33.566-40.089l27.737,27.737C96.653,438.772,83.209,450.006,70.875,462.339z M443.282,124.695   l-55.976-55.976l61.055-31.922l26.843,26.843L443.282,124.695z" fill="#bc1ac1" data-original="#000000" style=""/>
</g>















</g></svg>
