<?xml version="1.0" encoding="iso-8859-1"?>
<!-- Generator: Adobe Illustrator 19.0.0, SVG Export Plug-In . SVG Version: 6.00 Build 0)  -->
<svg version="1.1" id="Capa_1" xmlns="http://www.w3.org/2000/svg" xmlns:xlink="http://www.w3.org/1999/xlink" x="0px" y="0px"
	 viewBox="0 0 512 512" style="enable-background:new 0 0 512 512;" xml:space="preserve">
<g>
	<g>
		<path d="M458.667,320L458.667,320l-16.235,0c-1.12-3.179-2.411-6.283-3.851-9.312l11.477-11.488c8.32-8.309,8.32-21.856,0-30.165
			l-15.083-15.083c-4.032-4.032-9.387-6.251-15.083-6.251c-0.011,0-0.011,0-0.021,0c-5.696,0-11.051,2.219-15.061,6.251
			l-11.488,11.488c-3.029-1.451-6.133-2.731-9.312-3.861v-16.245c0-11.765-9.568-21.333-21.333-21.333h-21.333
			c-11.765,0-21.333,9.568-21.333,21.333v16.235c-3.179,1.12-6.283,2.411-9.312,3.861l-11.477-11.477
			c-4.021-4.032-9.376-6.251-15.072-6.261c-0.011,0-0.011,0-0.021,0c-5.696,0-11.051,2.219-15.083,6.251l-15.083,15.083
			c-8.32,8.309-8.32,21.856,0,30.165l11.477,11.488c-1.451,3.029-2.731,6.133-3.851,9.312h-16.256
			c-11.765,0-21.333,9.568-21.333,21.333v21.333c0,11.765,9.568,21.333,21.333,21.333h16.235c1.12,3.179,2.411,6.283,3.851,9.312
			l-11.467,11.477c-4.032,4.021-6.261,9.376-6.261,15.072c0,5.707,2.219,11.072,6.251,15.104l15.083,15.083
			c4.032,4.032,9.387,6.251,15.083,6.251h0.021c5.696,0,11.051-2.229,15.061-6.251l11.488-11.477
			c3.029,1.451,6.133,2.731,9.312,3.851v16.256c0,11.765,9.568,21.333,21.333,21.333h21.333c11.765,0,21.333-9.568,21.333-21.333
			v-16.235c3.179-1.12,6.283-2.411,9.312-3.851l11.477,11.467c4.021,4.032,9.376,6.261,15.072,6.261h0.021
			c5.696,0,11.051-2.219,15.083-6.251l15.083-15.083c4.032-4.032,6.251-9.397,6.251-15.104c0-5.696-2.229-11.051-6.251-15.061
			l-11.477-11.488c1.451-3.029,2.731-6.133,3.851-9.312h16.256c11.765,0,21.333-9.568,21.333-21.333v-21.333
			C480,329.568,470.432,320,458.667,320z M434.539,362.667c-4.864,0-9.109,3.296-10.325,8c-1.749,6.763-4.427,13.216-7.957,19.189
			c-2.464,4.192-1.792,9.536,1.643,12.971l17.067,17.067l-15.083,15.083l-17.067-17.067c-3.435-3.424-8.779-4.096-12.971-1.643
			c-5.973,3.531-12.427,6.208-19.189,7.957c-4.693,1.216-7.989,5.451-7.989,10.315v24.128h-21.333v-24.128
			c0-4.864-3.296-9.109-8-10.325c-6.763-1.749-13.216-4.427-19.189-7.957c-1.685-0.992-3.563-1.483-5.429-1.483
			c-2.763,0-5.493,1.077-7.541,3.125l-17.067,17.067l-15.083-15.083l17.067-17.067c3.435-3.435,4.117-8.779,1.643-12.971
			c-3.531-5.973-6.208-12.427-7.957-19.189c-1.216-4.693-5.451-7.989-10.315-7.989h-24.128v-21.333h24.128
			c4.864,0,9.109-3.296,10.325-8c1.749-6.763,4.427-13.216,7.957-19.189c2.464-4.192,1.792-9.536-1.643-12.971l-17.067-17.067
			l15.083-15.083l17.067,17.067c3.435,3.435,8.789,4.107,12.971,1.643c5.973-3.531,12.427-6.208,19.189-7.957
			c4.704-1.216,8-5.461,8-10.325v-24.117h21.333v24.128c0,4.864,3.296,9.109,8,10.325c6.763,1.749,13.216,4.427,19.189,7.957
			c4.192,2.453,9.536,1.792,12.971-1.643l17.067-17.067l15.083,15.083l-17.067,17.067c-3.435,3.435-4.117,8.779-1.643,12.971
			c3.531,5.973,6.208,12.427,7.957,19.189c1.216,4.704,5.461,8,10.325,8h24.107l0,21.323H434.539z"/>
	</g>
</g>
<g>
	<g>
		<path d="M352,309.333c-23.531,0-42.667,19.136-42.667,42.667c0,23.531,19.136,42.667,42.667,42.667
			c23.531,0,42.667-19.136,42.667-42.667S375.531,309.333,352,309.333z M352,373.333c-11.765,0-21.333-9.568-21.333-21.333
			c0-11.765,9.568-21.333,21.333-21.333c11.765,0,21.333,9.568,21.333,21.333C373.333,363.765,363.765,373.333,352,373.333z"/>
	</g>
</g>
<g>
	<g>
		<path d="M266.667,128h-16.235c-1.12-3.168-2.421-6.283-3.851-9.312l11.477-11.488c8.32-8.32,8.32-21.856,0-30.176l-15.083-15.083
			c-4.032-4.032-9.387-6.251-15.083-6.251c-0.011,0-0.011,0-0.021,0c-5.696,0-11.051,2.219-15.061,6.251l-11.488,11.477
			c-3.04-1.429-6.144-2.72-9.323-3.851V53.333C192,41.568,182.432,32,170.667,32h-21.333C137.568,32,128,41.568,128,53.333v16.235
			c-3.179,1.12-6.283,2.411-9.312,3.851l-11.477-11.467c-4.021-4.032-9.376-6.251-15.072-6.251c-0.011,0-0.011,0-0.021,0
			c-5.696,0-11.051,2.219-15.083,6.251L61.952,77.035c-8.32,8.32-8.32,21.856,0,30.176l11.477,11.488
			c-1.44,3.019-2.731,6.133-3.861,9.301H53.333C41.568,128,32,137.568,32,149.333v21.333C32,182.432,41.568,192,53.333,192h16.235
			c1.12,3.168,2.421,6.283,3.851,9.312L61.952,212.8c-8.32,8.32-8.32,21.856,0,30.176l15.083,15.083
			c4.032,4.032,9.387,6.251,15.083,6.251h0.021c5.696,0,11.051-2.219,15.061-6.251l11.488-11.477
			c3.029,1.44,6.133,2.731,9.312,3.851v16.235c0,11.765,9.568,21.333,21.333,21.333h21.333c11.765,0,21.333-9.568,21.333-21.333
			v-16.235c3.179-1.12,6.283-2.411,9.312-3.851l11.477,11.467c4.021,4.032,9.376,6.251,15.072,6.261h0.021
			c5.696,0,11.051-2.219,15.083-6.251l15.083-15.083c8.32-8.32,8.32-21.856,0-30.176l-11.477-11.488
			c1.44-3.029,2.731-6.144,3.851-9.312h16.245c11.765,0,21.333-9.568,21.333-21.333v-21.333C288,137.568,278.432,128,266.667,128z
			 M266.667,170.667h-24.128c-4.864,0-9.109,3.285-10.325,8c-1.749,6.763-4.427,13.227-7.957,19.2
			c-2.464,4.192-1.792,9.525,1.643,12.96l17.067,17.067l-15.083,15.083l-17.067-17.056c-3.435-3.445-8.768-4.117-12.971-1.643
			c-5.963,3.52-12.416,6.187-19.189,7.936c-4.693,1.205-7.989,5.461-7.989,10.325v24.128h-21.333v-24.128
			c0-4.864-3.296-9.109-8-10.325c-6.773-1.749-13.227-4.416-19.189-7.936c-1.685-1.003-3.563-1.483-5.429-1.483
			c-2.752,0-5.493,1.067-7.541,3.125l-17.067,17.056l-15.083-15.093l17.067-17.056c3.435-3.435,4.117-8.768,1.643-12.96
			c-3.531-5.973-6.208-12.437-7.957-19.2c-1.216-4.715-5.451-8-10.315-8H53.333v-21.333h24.128c4.864,0,9.109-3.285,10.325-8
			c1.749-6.763,4.427-13.227,7.957-19.2c2.464-4.192,1.792-9.525-1.643-12.96L77.035,92.107l15.083-15.083l17.067,17.056
			c3.445,3.456,8.779,4.139,12.971,1.643c5.963-3.52,12.416-6.187,19.189-7.936c4.693-1.205,7.989-5.461,7.989-10.325V53.333h21.333
			v24.128c0,4.864,3.296,9.109,8,10.325c6.773,1.749,13.227,4.416,19.189,7.936c4.181,2.475,9.525,1.803,12.971-1.643l17.067-17.056
			l15.083,15.093l-17.067,17.056c-3.435,3.435-4.117,8.768-1.643,12.96c3.531,5.973,6.208,12.437,7.957,19.2
			c1.216,4.704,5.461,8,10.325,8h24.117V170.667z"/>
	</g>
</g>
<g>
	<g>
		<path d="M160,117.333c-23.531,0-42.667,19.136-42.667,42.667c0,23.531,19.136,42.667,42.667,42.667s42.667-19.136,42.667-42.667
			S183.531,117.333,160,117.333z M160,181.333c-11.765,0-21.333-9.568-21.333-21.333s9.568-21.333,21.333-21.333
			s21.333,9.568,21.333,21.333S171.765,181.333,160,181.333z"/>
	</g>
</g>
<g>
	<g>
		<path d="M256,0c-5.899,0-10.667,4.779-10.667,10.667S250.101,21.333,256,21.333c129.397,0,234.667,105.269,234.667,234.667
			c0,5.888,4.768,10.667,10.667,10.667S512,261.888,512,256C512,114.848,397.152,0,256,0z"/>
	</g>
</g>
<g>
	<g>
		<path d="M256,490.667C126.603,490.667,21.333,385.397,21.333,256c0-5.888-4.768-10.667-10.667-10.667
			C4.768,245.333,0,250.112,0,256c0,141.152,114.848,256,256,256c5.899,0,10.667-4.768,10.667-10.667S261.899,490.667,256,490.667z"
			/>
	</g>
</g>
<g>
	<g>
		<path d="M330.667,128H320c-5.899,0-10.667,4.779-10.667,10.667s4.768,10.667,10.667,10.667h10.667
			c5.899,0,10.667-4.779,10.667-10.667S336.565,128,330.667,128z"/>
	</g>
</g>
<g>
	<g>
		<path d="M384,128h-10.667c-5.899,0-10.667,4.779-10.667,10.667s4.768,10.667,10.667,10.667H384
			c5.899,0,10.667-4.779,10.667-10.667S389.899,128,384,128z"/>
	</g>
</g>
<g>
	<g>
		<path d="M330.667,170.667H320c-5.899,0-10.667,4.779-10.667,10.667S314.101,192,320,192h10.667
			c5.899,0,10.667-4.779,10.667-10.667S336.565,170.667,330.667,170.667z"/>
	</g>
</g>
<g>
	<g>
		<path d="M192,362.667h-10.667c-5.899,0-10.667,4.768-10.667,10.667S175.435,384,181.333,384H192
			c5.899,0,10.667-4.768,10.667-10.667S197.899,362.667,192,362.667z"/>
	</g>
</g>
<g>
	<g>
		<path d="M138.667,362.667H128c-5.899,0-10.667,4.768-10.667,10.667S122.101,384,128,384h10.667
			c5.899,0,10.667-4.768,10.667-10.667S144.565,362.667,138.667,362.667z"/>
	</g>
</g>
<g>
	<g>
		<path d="M192,320h-10.667c-5.899,0-10.667,4.768-10.667,10.667c0,5.899,4.768,10.667,10.667,10.667H192
			c5.899,0,10.667-4.768,10.667-10.667C202.667,324.768,197.899,320,192,320z"/>
	</g>
</g>
<g>
</g>
<g>
</g>
<g>
</g>
<g>
</g>
<g>
</g>
<g>
</g>
<g>
</g>
<g>
</g>
<g>
</g>
<g>
</g>
<g>
</g>
<g>
</g>
<g>
</g>
<g>
</g>
<g>
</g>
</svg>
