<?xml version="1.0"?>
<svg xmlns="http://www.w3.org/2000/svg" xmlns:xlink="http://www.w3.org/1999/xlink" xmlns:svgjs="http://svgjs.com/svgjs" version="1.1" width="512" height="512" x="0" y="0" viewBox="0 0 512.064 512.064" style="enable-background:new 0 0 512 512" xml:space="preserve" class=""><g><g xmlns="http://www.w3.org/2000/svg"><path d="m511.662 328.559-4.573-19.97c-1.575-6.874-7.847-11.654-14.872-11.329l-14.874.653c-3.917-5.379-8.532-10.155-13.784-14.265l1.578-13.867c.796-7.006-3.516-13.58-10.251-15.632l-19.564-5.96c-6.729-2.052-13.973.993-17.235 7.233l-6.936 13.268c-6.642.735-13.07 2.353-19.284 4.853l-11.179-8.25c-5.661-4.177-13.511-3.719-18.661 1.095l-14.993 14.008c-5.141 4.804-6.144 12.6-2.385 18.536l7.977 12.602c-2.658 5.977-4.474 12.225-5.438 18.662l-75.898-89.144c-4.43-5.2-13.211-1.973-13.211 4.862v73.831c-15.087-12.858-34.096-20.145-54.431-20.561l-26.185-13.676v-3.595c36.3-13.072 62.665-47.121 64.4-87.448h6.114c20.443 0 32.043-24.74 18.742-40.432 3.407-3.598 5.513-8.44 5.513-13.775v-14.688c0-12.708-11.641-20.81-23.491-20.068-1.644-20.024-9.824-38.927-23.48-53.874-14.144-15.482-33.018-25.521-53.566-28.615v-2.946c-.002-11.065-9.005-20.067-20.07-20.067h-14.688c-11.065 0-20.067 9.002-20.067 20.068v2.948c-12.018 1.823-23.658 6.057-34.015 12.431-8.467 5.212-.059 17.651 7.863 12.774 7.999-4.923 16.916-8.316 26.151-10.001v52.498c0 8.153-6.633 14.786-14.786 14.786h-47.203c.893-8.977 3.364-17.785 7.291-25.826 4.255-8.713-9.225-15.297-13.479-6.582-4.921 10.078-7.942 21.153-8.878 32.408-11.893-1.153-23.484 7.495-23.484 20.068v14.688c0 5.479 2.212 10.448 5.784 14.073-12.928 15.751-1.276 40.133 18.996 40.133h6.115c1.734 40.3 28.066 74.331 64.328 87.422v3.62l-26.176 13.671c-47.215.905-85.346 39.589-85.346 87.017v.314 117.99c0 9.697 15 9.697 15 0v-117.988c0-35.726 26.034-65.467 60.123-71.298l-19.833 45.453c-1.106 2.537-.727 5.477.988 7.648l18.527 23.458-19.177 34.058c-1.43 2.539-1.26 5.675.437 8.044l53.67 74.99c5.862 8.192 17.697-1.047 12.197-8.73l-50.891-71.106 19.302-34.278c1.493-2.651 1.236-5.941-.649-8.328l-18.858-23.876 14.769-33.847 50.885 175.962c.206 9.729 15.581 9.727 15.784-.002l50.918-175.883 14.734 33.768-18.857 23.876c-1.886 2.387-2.143 5.677-.649 8.328l19.301 34.278-50.89 71.106c-5.5 7.683 6.335 16.922 12.197 8.729l53.669-74.99c1.696-2.369 1.866-5.506.437-8.044l-19.176-34.058 18.526-23.458c1.715-2.171 2.095-5.111.988-7.648l-19.866-45.532c17.482 2.853 33.176 12.003 44.443 26.119v163.249c0 4.142 3.357 7.5 7.5 7.5h117.866c9.697 0 9.697-15 0-15h-110.368v-230.707l135.207 158.804c.006.007.011.013.017.02l61.202 71.883h-47.157c-9.697 0-9.697 15 0 15h63.393c5.702 0 10.104-7.202 5.711-12.362l-68.381-80.315 3.377-6.46c6.642-.735 13.07-2.353 19.284-4.853l11.179 8.249c5.663 4.178 13.512 3.718 18.66-1.095l14.992-14.007c5.141-4.803 6.145-12.598 2.387-18.537l-7.978-12.601c2.728-6.132 4.575-12.549 5.519-19.165l12.771-5.604c6.435-2.822 9.969-9.842 8.401-16.691zm-385.108-42.587c5.833 1.094 11.845 1.672 17.99 1.672 6.12 0 12.108-.573 17.918-1.658v2.292l-17.954 35.778-17.954-35.778zm51.616 74.34-24.328-21.414 19.404-38.667 19.372 10.118zm-33.662-9.647 29.056 25.576-29.282 101.261-29.19-100.943zm103.468-171.199h-6.017v-19.139h6.017c12.37 0 12.37 19.139 0 19.139zm-33.791-117.719c11.123 12.175 17.901 27.492 19.503 43.757h-47.21c-8.152 0-14.785-6.633-14.785-14.786v-52.5c16.284 2.953 31.193 11.16 42.492 23.529zm-182.855 63.824c0-2.794 2.273-5.068 5.067-5.068h65.686c16.424 0 29.786-13.362 29.786-29.786v-70.65c0-2.794 2.273-5.068 5.067-5.068h14.688c2.795 0 5.068 2.273 5.068 5.068v70.65c0 16.424 13.361 29.786 29.785 29.786h65.686c2.794 0 5.067 2.273 5.067 5.068v14.688c0 2.794-2.273 5.067-5.067 5.067h-215.766c-2.794 0-5.067-2.273-5.067-5.067zm.211 44.326c0-5.277 4.293-9.57 9.569-9.57h6.018v19.139h-6.018c-5.276 0-9.569-4.293-9.569-9.569zm30.587 20.331v-29.9h164.832v29.9c0 45.444-36.972 82.416-82.416 82.416s-82.416-36.972-82.416-82.416zm53.641 110.002 19.404 38.667-24.664 21.709-14.354-50.132zm364.732 38.627c-2.53 1.11-4.245 3.521-4.463 6.276-.607 7.674-2.723 15.055-6.287 21.94-1.226 2.368-1.103 5.208.323 7.46l10.04 15.858-14.562 13.605-14.41-10.633c-2.231-1.646-5.189-1.927-7.692-.73-6.823 3.267-14.566 5.225-22.104 5.598-2.656.131-5.044 1.66-6.275 4.016l-2.488 4.759-54.979-64.574c2.244-1.198 3.751-3.448 3.954-6.01.607-7.671 2.723-15.053 6.288-21.94 1.225-2.367 1.102-5.207-.324-7.458l-10.039-15.859 14.562-13.605 14.409 10.633c2.231 1.647 5.189 1.929 7.691.73 6.824-3.267 14.566-5.224 22.106-5.598 2.656-.131 5.044-1.66 6.275-4.017l8.719-16.679 18.952 5.773-2.034 17.87c-.313 2.757.921 5.462 3.209 7.032 6.357 4.363 11.679 9.855 15.814 16.325 1.441 2.254 3.973 3.569 6.648 3.453l18.706-.822 4.436 19.368z" fill="#2012c9" data-original="#000000" style="" class=""/><path d="m438.845 308.689c-8.551-5.342-18.675-7.021-28.508-4.732-20.274 4.722-32.988 25.071-28.341 45.363 4.601 20.091 25.192 32.95 45.264 28.279 20.274-4.722 32.988-25.071 28.341-45.364-2.255-9.842-8.206-18.204-16.756-23.546zm-14.988 54.3c-12.011 2.799-24.517-5.13-27.24-17.019-2.808-12.259 4.873-24.553 17.122-27.405 11.966-2.789 24.49 5.012 27.24 17.018 2.808 12.26-4.873 24.554-17.122 27.406z" fill="#2012c9" data-original="#000000" style="" class=""/><path d="m317.568 196.202 8.568 4.155c.646 4.117 1.765 8.125 3.349 11.987l-5.033 7.224c-3.476 4.984-2.899 11.734 1.368 16.049l10.288 10.407c4.255 4.304 10.993 4.968 16.02 1.576l7.948-5.365c3.91 1.49 7.942 2.517 12.097 3.08l3.73 7.931c2.401 5.103 9.148 8.237 14.591 6.813l14.201-3.719c5.86-1.535 9.812-7.03 9.395-13.068l-.658-9.521c3.277-2.639 6.213-5.629 8.779-8.942l8.776.72c6.056.5 11.583-3.377 13.196-9.208l3.914-14.126c1.621-5.856-1.169-12.03-6.634-14.679l-8.568-4.155c-.646-4.117-1.765-8.125-3.349-11.987l5.033-7.224c3.474-4.983 2.899-11.732-1.368-16.048l-10.289-10.407c-4.259-4.305-10.994-4.968-16.02-1.576l-7.948 5.365c-3.909-1.491-7.941-2.518-12.096-3.08l-3.73-7.931c-2.581-5.485-8.716-8.352-14.591-6.813l-14.201 3.719c-5.86 1.535-9.812 7.031-9.395 13.068l.658 9.521c-3.277 2.639-6.213 5.629-8.779 8.942l-8.776-.72c-6.041-.5-11.581 3.376-13.197 9.208l-3.913 14.125c-1.621 5.856 1.169 12.03 6.634 14.679zm11.209-22.902 11.07.909c2.741.231 5.409-1.08 6.91-3.4 2.835-4.382 6.479-8.106 10.829-11.068 2.203-1.5 3.444-4.057 3.261-6.716l-.804-11.633 10.366-2.715 4.698 9.989c1.181 2.509 3.649 4.163 6.42 4.299 5.262.271 10.263 1.534 15.004 3.789 2.4 1.146 5.228.937 7.431-.551l9.694-6.543 7.473 7.558-6.342 9.102c-1.586 2.276-1.786 5.242-.52 7.711 2.387 4.653 3.791 9.645 4.173 14.837.196 2.668 1.8 5.031 4.207 6.198l10.455 5.069-2.85 10.285-11.069-.909c-2.729-.225-5.409 1.08-6.91 3.4-2.835 4.382-6.479 8.106-10.829 11.068-2.203 1.5-3.444 4.057-3.261 6.716l.804 11.633-10.367 2.715-4.699-9.989c-1.181-2.51-3.649-4.163-6.42-4.299-5.261-.272-10.261-1.534-15.001-3.788-2.526-1.136-5.003-.953-7.432.55l-9.694 6.543-7.473-7.558 6.342-9.101c1.586-2.276 1.786-5.243.52-7.711-2.387-4.653-3.791-9.645-4.173-14.837-.196-2.668-1.8-5.031-4.207-6.198l-10.455-5.069z" fill="#2012c9" data-original="#000000" style="" class=""/><path d="m372.73 216.459c2.241.612 4.496.904 6.718.904 11.215 0 21.547-7.449 24.679-18.756 1.821-6.574.97-13.457-2.398-19.379-3.367-5.922-8.846-10.173-15.427-11.971-13.56-3.702-27.643 4.306-31.396 17.852-1.821 6.574-.97 13.457 2.398 19.379 3.367 5.923 8.845 10.174 15.426 11.971zm-3.37-27.345c1.554-5.604 7.384-8.917 12.99-7.385 2.706.739 4.957 2.484 6.339 4.915 1.382 2.43 1.73 5.257.982 7.96-1.553 5.604-7.377 8.917-12.99 7.386-2.706-.739-4.957-2.484-6.339-4.915-1.381-2.431-1.73-5.258-.982-7.961z" fill="#2012c9" data-original="#000000" style="" class=""/><path d="m416.781 472.645c1.227-2.655.798-5.78-1.098-8.007l-109.394-128.487c-2.038-2.393-5.35-3.262-8.302-2.177-2.949 1.086-4.909 3.896-4.909 7.039v128.487c0 4.142 3.357 7.5 7.5 7.5h109.395c2.924 0 5.582-1.7 6.808-4.355zm-108.703-10.645v-100.608l85.659 100.608z" fill="#2012c9" data-original="#000000" style="" class=""/></g></g></svg>
