<?xml version="1.0"?>
<svg xmlns="http://www.w3.org/2000/svg" xmlns:xlink="http://www.w3.org/1999/xlink" xmlns:svgjs="http://svgjs.com/svgjs" version="1.1" width="512" height="512" x="0" y="0" viewBox="0 0 512 512" style="enable-background:new 0 0 512 512" xml:space="preserve" class=""><g><g xmlns="http://www.w3.org/2000/svg"><path d="m158.091 297.431c2.098 2.607 3.798 4.648 5.414 6.633 13.266 16.158 23.102 28.149 23.102 43.995 0 9.836-3.969 18.765-10.432 25.201-6.463 6.463-15.364 10.459-25.2 10.459-9.865 0-18.766-3.996-25.229-10.459-6.435-6.435-10.432-15.365-10.432-25.201 0-15.846 9.837-27.837 23.103-43.995 1.446-1.757 2.92-3.543 4.706-5.754-2.863-21.913-17.064-150.89 34.356-219.745 2.466-3.317 7.172-3.997 10.488-1.53 3.316 2.494 3.997 7.172 1.53 10.488-48.897 65.51-33.759 192.502-31.406 209.908zm146.41-294.495c18.596 4.988 29.679 24.18 24.69 42.775-2.494 9.298-8.532 16.725-16.271 21.175-2.75 1.588-5.697 2.807-8.787 3.601l-11.593 156.814c-.624 8.277-4.337 15.25-9.723 20.834-5.954 6.18-13.976 10.602-21.799 13.04-3.941 1.219-8.136-.964-9.383-4.933-1.219-3.94.992-8.136 4.933-9.355 5.669-1.786 11.367-4.875 15.448-9.127 3.118-3.203 5.244-7.087 5.585-11.509l11.452-155.255c-1.757-.34-3.515-.822-5.215-1.417l-67.692 140.174c-1.928 3.997-2.013 8.447-.907 12.784 1.417 5.755 4.79 11.283 8.815 15.648 2.807 3.033 2.608 7.767-.425 10.573-3.061 2.807-7.796 2.607-10.573-.453-5.557-6.01-10.29-13.834-12.359-22.168-1.871-7.513-1.616-15.421 1.984-22.876l68.4-141.621c-2.296-2.239-4.252-4.762-5.839-7.512-4.478-7.738-5.981-17.178-3.486-26.504 2.494-9.298 8.504-16.725 16.242-21.175 7.766-4.477 17.206-6.008 26.503-3.513zm-3.855 14.484c-5.329-1.445-10.743-.566-15.137 1.984-4.422 2.552-7.852 6.776-9.298 12.105-1.417 5.329-.566 10.715 1.984 15.108 2.552 4.422 6.804 7.88 12.105 9.298 5.13 1.36 10.517.68 15.137-1.984 4.422-2.551 7.852-6.774 9.298-12.104 2.834-10.658-3.431-21.543-14.089-24.407zm196.359 435.719c-9.242.964-18.993 2.069-28.772 3.175-33.081 3.769-66.19 7.539-99.327 7.539-33.166 0-66.275-3.771-99.356-7.539-32.599-3.714-65.169-7.428-97.711-7.428-2.637 0-5.273 0-7.909.057-4.139.057-7.512-3.231-7.597-7.342-.057-4.139 3.232-7.54 7.37-7.597 2.693-.057 5.414-.113 8.136-.113 33.137 0 66.246 3.77 99.355 7.54 32.57 3.713 65.169 7.427 97.711 7.427 32.514 0 65.112-3.714 97.683-7.427 9.921-1.134 19.843-2.239 30.417-3.345v-140.77h-34.867c-4.139 0-7.483-3.373-7.483-7.512s3.345-7.483 7.483-7.483h42.378c4.139 0 7.483 3.345 7.483 7.483v212.941c0 4.139-3.345 7.512-7.483 7.512h-497.003c-4.139 0-7.513-3.373-7.513-7.512v-212.939c0-4.139 3.374-7.483 7.513-7.483h114.577c4.139 0 7.512 3.345 7.512 7.483 0 2.041-.822 3.911-2.154 5.244-6.747 8.191-13.493 16.412-18.369 25.058-4.734 8.391-7.88 17.49-7.88 27.95 0 13.748 5.556 26.192 14.571 35.178 9.014 9.014 21.458 14.599 35.207 14.599 13.72 0 26.164-5.585 35.178-14.599 9.015-8.986 14.599-21.43 14.599-35.178 0-10.46-3.175-19.56-7.908-27.95-4.99-8.816-11.878-17.206-18.766-25.54-2.637-3.203-2.183-7.908 1.021-10.517 1.332-1.105 3.005-1.728 4.733-1.728h127.504c4.139 0 7.483 3.345 7.483 7.483 0 2.041-.794 3.883-2.126 5.244-6.719 8.447-13.097 17.234-17.802 26.646-4.564 9.155-7.483 18.936-7.483 29.594 0 32.656 26.504 59.16 59.16 59.16 16.327 0 31.125-6.634 41.811-17.321 10.715-10.715 17.349-25.512 17.349-41.839 0-10.658-2.949-20.438-7.512-29.594-4.791-9.638-11.339-18.596-18.256-27.213-2.551-3.231-2.041-7.936 1.19-10.488 1.305-1.077 2.948-1.672 4.649-1.672h42.378c4.139 0 7.483 3.345 7.483 7.483 0 4.139-3.345 7.512-7.483 7.512h-27.327c4.026 5.697 7.739 11.565 10.8 17.717 5.527 11.084 9.071 23.017 9.071 36.255 0 20.466-8.306 39.005-21.714 52.441-13.436 13.408-31.975 21.714-52.441 21.714-40.933 0-74.155-33.195-74.155-74.155 0-13.238 3.543-25.172 9.071-36.255 3.061-6.151 6.747-12.02 10.801-17.717h-96.833c3.771 4.932 7.313 10.006 10.403 15.477 5.924 10.489 9.893 21.941 9.893 35.264 0 17.887-7.257 34.073-18.992 45.808-11.708 11.708-27.921 18.964-45.78 18.964-17.887 0-34.073-7.257-45.809-18.964-11.707-11.735-18.964-27.921-18.964-45.808 0-13.323 3.94-24.775 9.864-35.264 3.09-5.471 6.633-10.545 10.403-15.477h-91.474v149.925c19.106-1.417 38.296-3.628 57.487-5.811 18.992-2.154 37.985-4.309 56.835-5.755 4.139-.312 7.738 2.778 8.021 6.917.312 4.11-2.777 7.71-6.888 8.023-18.85 1.445-37.588 3.571-56.326 5.698-19.672 2.239-39.345 4.478-59.131 5.953v32.996h482.009v-42.125zm-158.289-167.444c-2.862-21.913-17.064-150.891 34.357-219.745 2.494-3.316 7.172-3.997 10.488-1.53 3.316 2.494 3.996 7.172 1.53 10.488-48.898 65.481-33.733 192.503-31.408 209.908 2.919 3.6 5.357 6.548 7.682 9.383 17.348 21.147 30.246 36.823 30.246 57.09 0 12.444-5.045 23.698-13.209 31.833-8.136 8.164-19.389 13.209-31.833 13.209s-23.698-5.045-31.833-13.209c-8.164-8.136-13.21-19.389-13.21-31.833 0-20.268 12.897-35.944 30.247-57.09 2.124-2.58 4.335-5.272 6.943-8.504zm7.852 14.031c-10.971 13.38-30.048 33.733-30.048 51.563 0 8.306 3.375 15.818 8.817 21.232 5.414 5.442 12.926 8.815 21.232 8.815 8.277 0 15.789-3.373 21.232-8.815 5.442-5.414 8.787-12.926 8.787-21.232-.001-17.83-19.078-38.183-30.02-51.563zm-195.592 12.615c-7.456 9.072-20.665 23.415-20.665 35.717 0 5.697 2.324 10.856 6.065 14.599 3.714 3.742 8.873 6.038 14.599 6.038 5.697 0 10.856-2.296 14.599-6.038 3.741-3.742 6.038-8.901 6.038-14.599 0-12.303-13.21-26.646-20.636-35.717z" fill="#d97c18" data-original="#000000" style="" class=""/></g></g></svg>
