<?xml version="1.0"?>
<svg xmlns="http://www.w3.org/2000/svg" xmlns:xlink="http://www.w3.org/1999/xlink" xmlns:svgjs="http://svgjs.com/svgjs" version="1.1" width="512" height="512" x="0" y="0" viewBox="0 0 512 512" style="enable-background:new 0 0 512 512" xml:space="preserve"><g><path xmlns="http://www.w3.org/2000/svg" d="m477 53h-212.274c-12.668-31.051-43.174-53-78.726-53h-101c-46.869 0-85 38.131-85 85v342c0 46.869 38.131 85 85 85h392c19.299 0 35-15.701 35-35v-389c0-19.299-15.701-35-35-35zm-392-23h101c30.327 0 55 24.673 55 55v261.187c-6.129-2.686-12.891-4.187-20-4.187h-136c-20.962 0-40.163 7.643-55 20.269v-277.269c0-30.327 24.673-55 55-55zm397 447c0 2.757-2.243 5-5 5h-392c-30.327 0-55-24.673-55-55s24.673-55 55-55h136c11.028 0 20 8.972 20 20s-8.972 20-20 20h-122c-8.284 0-15 6.716-15 15s6.716 15 15 15h122c27.57 0 50-22.43 50-50v-307c0-.671-.035-1.333-.051-2h206.051c2.757 0 5 2.243 5 5z" fill="#350a5a" data-original="#000000" style=""/></g></svg>
