<?xml version="1.0"?>
<svg xmlns="http://www.w3.org/2000/svg" xmlns:xlink="http://www.w3.org/1999/xlink" xmlns:svgjs="http://svgjs.com/svgjs" version="1.1" width="512" height="512" x="0" y="0" viewBox="0 0 128 128" style="enable-background:new 0 0 512 512" xml:space="preserve"><g><g xmlns="http://www.w3.org/2000/svg"><path d="M126.635,104.6,89.847,96.3a11.75,11.75,0,0,0-9.566,2.007l-4.693,3.465a11.76,11.76,0,0,0-3.76,4.682l-.287.646a8.252,8.252,0,0,1-15.081,0l-.287-.647a11.777,11.777,0,0,0-3.76-4.682L47.719,98.31A11.748,11.748,0,0,0,38.153,96.3L1.365,104.6A1.748,1.748,0,0,0,0,106.31v19.94A1.75,1.75,0,0,0,1.75,128h124.5a1.749,1.749,0,0,0,1.75-1.75V106.31A1.747,1.747,0,0,0,126.635,104.6ZM124.5,124.5H3.5V107.709l35.424-7.992a8.244,8.244,0,0,1,6.716,1.41l4.694,3.465a8.263,8.263,0,0,1,2.64,3.285l.287.647a11.751,11.751,0,0,0,21.477,0l.288-.646a8.259,8.259,0,0,1,2.64-3.286l4.693-3.465a8.248,8.248,0,0,1,6.717-1.41l35.424,7.992Z" fill="#620a3f" data-original="#000000" style=""/><g><circle cx="58.205" cy="87.887" r="3.25" fill="#620a3f" data-original="#000000" style=""/><circle cx="68.872" cy="93.137" r="3.25" fill="#620a3f" data-original="#000000" style=""/><path d="M63.529,99.023a3.25,3.25,0,1,0,3.25,3.25A3.254,3.254,0,0,0,63.529,99.023Z" fill="#620a3f" data-original="#000000" style=""/></g><path d="M66.253,59.862v6.347a1.75,1.75,0,0,0,3.5,0V59.862l5.1-5.1a10.761,10.761,0,0,0,0-15.2L69.24,33.947a1.8,1.8,0,0,0-2.474,0L61.153,39.56a10.763,10.763,0,0,0,0,15.2ZM63.628,42.035,68,37.659l4.376,4.376a7.26,7.26,0,0,1,0,10.253l-2.626,2.626v-9.3a1.75,1.75,0,1,0-3.5,0v9.3l-2.625-2.625A7.258,7.258,0,0,1,63.628,42.035Z" fill="#620a3f" data-original="#000000" style=""/><path d="M18.188,59.665l3.3,1.886a12.183,12.183,0,0,1,4.533,4.534,15.714,15.714,0,0,0,5.838,5.837,12.2,12.2,0,0,1,4.533,4.533l.015.025A15.713,15.713,0,0,0,42.234,82.3a12.161,12.161,0,0,1,2.576,1.97,1.751,1.751,0,0,0,2.435.04,23.269,23.269,0,0,1,31.6-.22,1.749,1.749,0,0,0,2.308.044,170.868,170.868,0,0,0,26.306-27.8l3.39-4.508,7.339-7.34a1.749,1.749,0,0,0-.369-2.757l-3.308-1.891a12.212,12.212,0,0,1-4.535-4.54,15.705,15.705,0,0,0-5.8-5.816l-.037-.021A12.187,12.187,0,0,1,99.6,24.922a15.7,15.7,0,0,0-5.838-5.836,12.186,12.186,0,0,1-4.534-4.534,15.689,15.689,0,0,0-5.835-5.836,12.2,12.2,0,0,1-4.535-4.534L76.972.882A1.75,1.75,0,0,0,74.215.513l-7.34,7.339-4.508,3.39A170.708,170.708,0,0,0,28.548,45.061l-3.389,4.507-7.34,7.34a1.75,1.75,0,0,0,.369,2.757ZM75.069,4.607l.749,1.311a15.716,15.716,0,0,0,5.836,5.837,12.179,12.179,0,0,1,4.534,4.534,15.708,15.708,0,0,0,5.84,5.838,12.185,12.185,0,0,1,4.535,4.538,15.693,15.693,0,0,0,5.8,5.816l.037.022a12.186,12.186,0,0,1,4.537,4.542,15.719,15.719,0,0,0,5.832,5.831l1.32.754-4.57,4.57L70.5,9.177ZM31.345,47.165A167.182,167.182,0,0,1,64.471,14.039l3.391-2.55,39.349,39.349-2.55,3.391A167.252,167.252,0,0,1,80.029,80.49a26.791,26.791,0,0,0-25.762-4.462L28.8,50.556Zm-4.862,6.028,9.989,9.99L50.814,77.525a26.615,26.615,0,0,0-4.755,3.163,15.722,15.722,0,0,0-2.094-1.434,12.19,12.19,0,0,1-4.532-4.532l-.015-.026a15.7,15.7,0,0,0-5.824-5.814,12.205,12.205,0,0,1-4.534-4.533,15.68,15.68,0,0,0-5.836-5.837l-1.31-.749Z" fill="#620a3f" data-original="#000000" style=""/></g></g></svg>
