<?xml version="1.0"?>
<svg xmlns="http://www.w3.org/2000/svg" xmlns:xlink="http://www.w3.org/1999/xlink" xmlns:svgjs="http://svgjs.com/svgjs" version="1.1" width="512" height="512" x="0" y="0" viewBox="0 0 512 512" style="enable-background:new 0 0 512 512" xml:space="preserve" class=""><g>
<g xmlns="http://www.w3.org/2000/svg">
	<g>
		<path d="M222.12,382.234c-2.959-2.959-7.756-2.959-10.715,0L109.239,484.4l-18.085-18.085L192.26,365.208    c2.959-2.959,2.959-7.755,0-10.714c-2.959-2.959-7.756-2.959-10.714,0L75.082,460.957c-2.959,2.959-2.959,7.755,0,10.714    l28.8,28.8c1.42,1.42,3.348,2.219,5.357,2.219c2.009,0,3.937-0.798,5.357-2.219L222.12,392.948    C225.079,389.989,225.079,385.192,222.12,382.234z" fill="#e10b0b" data-original="#000000" style="" class=""/>
	</g>
</g>
<g xmlns="http://www.w3.org/2000/svg">
	<g>
		<path d="M509.781,65.784c-2.161-2.161-5.408-2.812-8.235-1.653c-24.6,10.096-47.282,23.566-67.725,40.166    c-0.71-8.881-4.444-17.562-11.222-24.339c-15.141-15.142-39.779-15.142-54.92,0l-44.206,44.206c-2.959,2.959-2.959,7.755,0,10.714    c2.959,2.959,7.756,2.959,10.714,0l44.206-44.206c9.234-9.233,24.258-9.233,33.491,0c4.473,4.473,6.936,10.42,6.936,16.746    c0,6.326-2.463,12.273-6.936,16.746l-6.058,6.058L272.068,263.971c-2.959,2.959-2.959,7.755,0,10.715    c2.959,2.959,7.756,2.959,10.715,0l140.81-140.8c19.331-19.331,41.307-35.234,65.522-47.439    c-12.212,24.22-28.117,46.197-47.446,65.526L300.868,292.773c-2.959,2.959-2.959,7.755,0,10.714    c1.479,1.48,3.418,2.219,5.357,2.219s3.878-0.739,5.357-2.219l140.8-140.8c25.485-25.485,45.352-55.318,59.049-88.668    C512.593,71.192,511.942,67.945,509.781,65.784z" fill="#e10b0b" data-original="#000000" style="" class=""/>
	</g>
</g>
<g xmlns="http://www.w3.org/2000/svg">
	<g>
		<path d="M426.292,438.966l-56.362-56.359c-2.959-2.959-7.756-2.959-10.714,0c-2.959,2.959-2.959,7.755,0,10.714l56.359,56.359    c1.82,1.82,1.817,4.788,0.001,6.609l-25.191,25.181c-0.879,0.881-2.049,1.367-3.294,1.367c-1.245,0-2.415-0.485-3.3-1.373    l-64.86-64.85c-6.952-6.962-14.689-13.216-23.001-18.589c-8.294-5.354-17.174-9.841-26.399-13.337    c-16.633-6.294-31.452-15.872-44.046-28.466l-73.844-73.834c-2.959-2.959-7.756-2.958-10.714,0.001s-2.958,7.756,0.001,10.715    l73.844,73.834c14.122,14.122,30.742,24.864,49.393,31.922c8.226,3.117,16.149,7.121,23.544,11.895    c7.408,4.789,14.306,10.364,20.506,16.572l64.858,64.848c3.743,3.751,8.722,5.816,14.02,5.816c5.299,0,10.278-2.066,14.014-5.809    l25.191-25.181C434.017,459.264,434.015,446.688,426.292,438.966z" fill="#e10b0b" data-original="#000000" style="" class=""/>
	</g>
</g>
<g xmlns="http://www.w3.org/2000/svg">
	<g>
		<path d="M351.747,364.424L210.675,223.352c-2.959-2.959-7.756-2.959-10.714,0c-2.959,2.959-2.959,7.755,0,10.714l141.072,141.072    c1.479,1.48,3.418,2.219,5.357,2.219s3.878-0.739,5.357-2.219C354.706,372.179,354.706,367.383,351.747,364.424z" fill="#e10b0b" data-original="#000000" style="" class=""/>
	</g>
</g>
<g xmlns="http://www.w3.org/2000/svg">
	<g>
		<path d="M301.584,140.779c-29.178-56.273-74.347-101.441-130.62-130.62c-1.978-1.026-4.308-1.128-6.368-0.281    c-2.061,0.848-3.644,2.559-4.329,4.679l-5.707,17.675c-7.532,23.329-18.754,45.144-33.354,64.837l-36.083,48.669    c-2.492,3.361-1.787,8.107,1.574,10.599c3.361,2.491,8.106,1.787,10.599-1.574l36.083-48.669    c15.584-21.02,27.562-44.305,35.602-69.206l2.913-9.025c47.238,26.342,85.713,64.83,112.039,112.08    c-9.649,3.447-19.062,7.534-28.187,12.182c-12.15-19.345-26.466-37.315-42.639-53.488c-9.498-9.498-19.716-18.447-30.368-26.598    c-3.323-2.543-8.077-1.91-10.621,1.413c-2.543,3.323-1.91,8.078,1.413,10.621c10.124,7.747,19.835,16.252,28.862,25.279    c15.159,15.159,28.6,31.977,40.044,50.073c-17.319,10.239-33.363,22.631-47.605,36.873l-80.17,80.17l-9.257-9.257    c-8.938-8.938-20.822-13.861-33.462-13.861s-24.524,4.923-33.462,13.861l-20.124,20.124c-4.836-8.963-4.299-20.296,1.994-28.784    l60.699-81.871c2.492-3.361,1.787-8.107-1.574-10.599c-3.363-2.492-8.107-1.787-10.599,1.574L8.177,249.526    c-12.289,16.574-10.553,40.075,4.037,54.665c1.479,1.48,3.418,2.219,5.357,2.219s3.878-0.739,5.357-2.219l26.266-26.266    c6.076-6.076,14.155-9.422,22.747-9.422c8.593,0,16.671,3.347,22.747,9.422l14.615,14.614c2.959,2.959,7.756,2.959,10.714,0    l85.528-85.528c25.505-25.505,57.174-44.703,91.583-55.517c2.136-0.672,3.865-2.253,4.725-4.32S302.615,142.766,301.584,140.779z" fill="#e10b0b" data-original="#000000" style="" class=""/>
	</g>
</g>
<g xmlns="http://www.w3.org/2000/svg">
</g>
<g xmlns="http://www.w3.org/2000/svg">
</g>
<g xmlns="http://www.w3.org/2000/svg">
</g>
<g xmlns="http://www.w3.org/2000/svg">
</g>
<g xmlns="http://www.w3.org/2000/svg">
</g>
<g xmlns="http://www.w3.org/2000/svg">
</g>
<g xmlns="http://www.w3.org/2000/svg">
</g>
<g xmlns="http://www.w3.org/2000/svg">
</g>
<g xmlns="http://www.w3.org/2000/svg">
</g>
<g xmlns="http://www.w3.org/2000/svg">
</g>
<g xmlns="http://www.w3.org/2000/svg">
</g>
<g xmlns="http://www.w3.org/2000/svg">
</g>
<g xmlns="http://www.w3.org/2000/svg">
</g>
<g xmlns="http://www.w3.org/2000/svg">
</g>
<g xmlns="http://www.w3.org/2000/svg">
</g>
</g></svg>
