<?xml version="1.0"?>
<svg xmlns="http://www.w3.org/2000/svg" xmlns:xlink="http://www.w3.org/1999/xlink" xmlns:svgjs="http://svgjs.com/svgjs" version="1.1" width="512" height="512" x="0" y="0" viewBox="0 0 128 128" style="enable-background:new 0 0 512 512" xml:space="preserve" class=""><g><g xmlns="http://www.w3.org/2000/svg"><path d="M53.041,70.722a1.75,1.75,0,0,0,2.445-2.149,8.831,8.831,0,0,1-.5-2.461c-.492-8.37,4.784-12.223,8.772-13.931a8.994,8.994,0,0,0-.16,2.259c.144,2.73,1.41,4.966,3.225,5.7l.157.058a3.374,3.374,0,0,0,.387.115,5.9,5.9,0,0,0,4.238-.524,10.806,10.806,0,0,1,1.415,6.147,11.119,11.119,0,0,1-.919,3A1.751,1.751,0,0,0,74.385,71.3,21.3,21.3,0,0,0,87.5,52.466c1.84-31.29-30.537-36.234-30.864-36.28a1.75,1.75,0,0,0-1.066,3.278c3.169,1.685,4.121,5.656,3.954,8.809-.175,3.315-1.528,6.215-3.131,6.864l-.173.063a2.184,2.184,0,0,1-.221.071,6.189,6.189,0,0,1-6.439-1.859,1.751,1.751,0,0,0-2.636-.251c-7.683,7.342-6.458,18.912-6.391,19.483C41.864,60.85,46.306,67.27,53.041,70.722ZM48.189,36.93a9.812,9.812,0,0,0,8.595,1.752,5.716,5.716,0,0,0,.6-.181l.111-.041.119-.044c3.029-1.221,5.15-5.129,5.406-9.958a15.429,15.429,0,0,0-1.406-7.418,40.527,40.527,0,0,1,9.272,4.37c9.4,6.078,13.81,15.112,13.12,26.851a17.833,17.833,0,0,1-7.49,13.84c.088-1.336.177-6.544-3.462-10.021a1.75,1.75,0,0,0-1.212-.466c-.044,0-.089,0-.134.005a1.8,1.8,0,0,0-1.266.679,2.187,2.187,0,0,1-2.308.594A3.356,3.356,0,0,1,67.1,54.255c-.069-1.287.287-2.89,1.487-3.528a1.75,1.75,0,0,0-1.066-3.279c-.167.024-16.467,2.513-16.055,18.129C48.249,63.048,45.094,58.9,44,52.167,43.99,52.071,43.066,43.1,48.189,36.93Z" fill="#e31212" data-original="#000000" style=""/><path d="M110,91.505H68.225L100.2,59.532v4.879a1.75,1.75,0,0,0,3.5,0v-9.1a1.75,1.75,0,0,0-1.75-1.75h-9.1a1.75,1.75,0,0,0,0,3.5h4.88L64,90.78,27.289,54.07a1.75,1.75,0,0,0-2.475,2.474L59.775,91.505H18a1.751,1.751,0,0,0-1.75,1.75v6.219a1.751,1.751,0,0,0,1.75,1.75h92a1.75,1.75,0,0,0,1.75-1.75V93.255A1.75,1.75,0,0,0,110,91.505Zm-1.75,3.5v2.719H19.75V95.005Z" fill="#e31212" data-original="#000000" style=""/><path d="M110,108.332H18a1.75,1.75,0,0,0,0,3.5h92a1.75,1.75,0,0,0,0-3.5Z" fill="#e31212" data-original="#000000" style=""/></g></g></svg>
