<?xml version="1.0" encoding="UTF-8"?>
<svg width="32px" height="32px" viewBox="0 0 32 32" version="1.1" xmlns="http://www.w3.org/2000/svg" xmlns:xlink="http://www.w3.org/1999/xlink">
    <!-- Generator: Sketch 44.1 (41455) - http://www.bohemiancoding.com/sketch -->
    <title>Metarubrick / Shops / flowers</title>
    <desc>Created with Sketch.</desc>
    <defs></defs>
    <g id="Page-1" stroke="none" stroke-width="1" fill="none" fill-rule="evenodd">
        <g id="New-meta-draft" transform="translate(-184.000000, -2384.000000)">
            <g id="Slice" transform="translate(84.000000, 84.000000)"></g>
            <g id="Icon" transform="translate(51.000000, 42.000000)" stroke="#52B311" stroke-width="2">
                <g id="Shops" transform="translate(27.000000, 2294.000000)">
                    <g id="Flowers" transform="translate(111.000000, 49.000000)">
                        <path d="M24,8.5 C24,7.259 23.246,6.193 22.17,5.737 C22.608,4.654 22.389,3.367 21.511,2.489 C20.633,1.611 19.346,1.392 18.263,1.83 C17.807,0.754 16.741,0 15.5,0 C14.259,0 13.193,0.754 12.737,1.83 C11.654,1.392 10.367,1.611 9.489,2.489 C8.611,3.367 8.392,4.654 8.83,5.737 C7.754,6.193 7,7.259 7,8.5 C7,9.741 7.754,10.807 8.83,11.263 C8.392,12.346 8.611,13.633 9.489,14.511 C10.367,15.389 11.654,15.608 12.737,15.17 C13.193,16.245 14.259,17 15.5,17 C16.741,17 17.807,16.245 18.263,15.17 C19.346,15.608 20.633,15.389 21.511,14.511 C22.389,13.633 22.608,12.346 22.17,11.263 C23.246,10.807 24,9.741 24,8.5 Z" id="Stroke-1"></path>
                        <path d="M18.5,8.5 C18.5,6.843 17.157,5.5 15.5,5.5 C13.843,5.5 12.5,6.843 12.5,8.5 C12.5,10.157 13.843,11.5 15.5,11.5 C17.157,11.5 18.5,10.157 18.5,8.5 Z" id="Stroke-3"></path>
                        <path d="M11,18 C9,21 9,23 9,31 C9,27 7,24 4,24 C1,24 0,21 0,17 C4,17 5,18 6,20" id="Stroke-5"></path>
                    </g>
                </g>
            </g>
        </g>
    </g>
</svg>