<?xml version="1.0" encoding="UTF-8"?>
<svg width="32px" height="32px" viewBox="0 0 32 32" version="1.1" xmlns="http://www.w3.org/2000/svg" xmlns:xlink="http://www.w3.org/1999/xlink">
    <!-- Generator: Sketch 44.1 (41455) - http://www.bohemiancoding.com/sketch -->
    <title>Metarubrick / Shops / furniture</title>
    <desc>Created with Sketch.</desc>
    <defs></defs>
    <g id="Page-1" stroke="none" stroke-width="1" fill="none" fill-rule="evenodd">
        <g id="New-meta-draft" transform="translate(-84.000000, -2384.000000)">
            <g id="Slice" transform="translate(84.000000, 84.000000)"></g>
            <g id="Icon" transform="translate(51.000000, 42.000000)" stroke="#52B311" stroke-width="2">
                <g id="Shops" transform="translate(27.000000, 2294.000000)">
                    <g id="Furniture" transform="translate(10.000000, 53.000000)">
                        <path d="M6,17 L6,12 C6,10.896 5.104,10 4,10 L2,10 C0.896,10 0,10.896 0,12 L0,19 C0,20.104 0.896,21 2,21 L22,21 C23.104,21 24,20.104 24,19 L24,12 C24,10.896 23.104,10 22,10 L20,10 C18.896,10 18,10.896 18,12 L18,17" id="Stroke-1"></path>
                        <path d="M3,7 L3,4 C3,1.791 4.791,0 7,0 L17,0 C19.209,0 21,1.791 21,4 L21,7" id="Stroke-3"></path>
                        <path d="M6,14 L18,14" id="Stroke-5"></path>
                        <path d="M3,21 L3,25" id="Stroke-7"></path>
                        <path d="M21,21 L21,25" id="Stroke-9"></path>
                    </g>
                </g>
            </g>
        </g>
    </g>
</svg>