<?xml version="1.0" encoding="UTF-8"?>
<svg width="32px" height="32px" viewBox="0 0 32 32" version="1.1" xmlns="http://www.w3.org/2000/svg" xmlns:xlink="http://www.w3.org/1999/xlink">
    <!-- Generator: Sketch 43.2 (39069) - http://www.bohemiancoding.com/sketch -->
    <title>Metarubrick / Carservice / gas_station</title>
    <desc>Created with Sketch.</desc>
    <defs></defs>
    <g id="Page-1" stroke="none" stroke-width="1" fill="none" fill-rule="evenodd">
        <g id="New-meta-draft" transform="translate(-484.000000, -784.000000)">
            <g id="Slice" transform="translate(84.000000, 84.000000)"></g>
            <g id="Icon" transform="translate(51.000000, 42.000000)" stroke="#319CFE" stroke-width="2">
                <g id="Car-Service" transform="translate(14.000000, 697.000000)">
                    <g id="Gas-station" transform="translate(420.000000, 48.000000)">
                        <path d="M20,26 L0,26" id="Stroke-1"></path>
                        <path d="M17,26 L17,3 C17,1.343 15.657,0 14,0 L6,0 C4.343,0 3,1.343 3,3 L3,26" id="Stroke-3"></path>
                        <path d="M3,10 L17,10" id="Stroke-5"></path>
                        <path d="M26,0 L29,6 L29,21 C29,22.657 27.657,24 26,24 L26,24 C24.343,24 23,22.657 23,21 L23,15 C23,13.343 21.657,12 20,12 L20,12" id="Stroke-7"></path>
                        <path d="M29,6 L26.106,7.447 C25.428,7.786 25,8.479 25,9.236 L25,11" id="Stroke-9"></path>
                        <path d="M10,10 L12,4" id="Stroke-11"></path>
                    </g>
                </g>
            </g>
        </g>
    </g>
</svg>