<?xml version="1.0"?>
<svg xmlns="http://www.w3.org/2000/svg" xmlns:xlink="http://www.w3.org/1999/xlink" xmlns:svgjs="http://svgjs.com/svgjs" version="1.1" width="512" height="512" x="0" y="0" viewBox="0 0 480 480" style="enable-background:new 0 0 512 512" xml:space="preserve"><g><g xmlns="http://www.w3.org/2000/svg"><path d="m432 396.613c4.418 0 8-3.582 8-8v-226.613h18c12.131 0 22-9.869 22-22v-8.573c0-11.624-9.092-21.266-20.698-21.952-67.326-3.977-129.319-27.387-179.278-67.701-1.423-1.148-3.196-1.774-5.024-1.774h-62v-16c0-4.411 3.589-8 8-8h38c3.002 0 5.727 1.658 7.111 4.328 2.033 3.922 6.861 5.454 10.785 3.419 3.922-2.034 5.453-6.862 3.419-10.785-4.146-7.995-12.313-12.962-21.315-12.962h-38c-13.233 0-24 10.766-24 24v24c0 4.418 3.582 8 8 8h67.195c52.176 41.33 116.482 65.331 186.163 69.447 3.164.187 5.642 2.813 5.642 5.979v8.574c0 3.308-2.691 6-6 6h-436c-3.309 0-6-2.692-6-6v-8.573c0-3.166 2.478-5.792 5.642-5.979 58.04-3.428 111.143-20.049 157.834-49.4 3.74-2.351 4.867-7.29 2.515-11.031-2.352-3.74-7.289-4.867-11.031-2.515-44.386 27.902-94.941 43.706-150.262 46.974-11.606.685-20.698 10.327-20.698 21.951v8.573c0 12.131 9.869 22 22 22h57v219.387c0 4.418 3.582 8 8 8s8-3.582 8-8v-29.387h137v69h-64v-39.613c0-4.418-3.582-8-8-8s-8 3.582-8 8v39.613h-96v-232.484c0-4.418-3.582-8-8-8s-8 3.582-8 8v232.484h-16c-13.233 0-24 10.766-24 24v11c0 13.234 10.767 24 24 24h432c13.233 0 24-10.766 24-24v-11c0-13.234-10.767-24-24-24h-17.709c-4.418 0-8 3.582-8 8s3.582 8 8 8h17.709c4.411 0 8 3.589 8 8v11c0 4.411-3.589 8-8 8h-432c-4.411 0-8-3.589-8-8v-11c0-4.411 3.589-8 8-8h369c4.418 0 8-3.582 8-8v-267h23v226.613c0 4.418 3.582 8 8 8zm-47 24.387h-137v-69h64v39.71c0 4.418 3.582 8 8 8s8-3.582 8-8v-39.71h29.645c4.418 0 8-3.582 8-8s-3.582-8-8-8h-262.645v-174h290z" fill="#df8716" data-original="#000000" style=""/><path d="m170.215 113.842c1.019 4.308 5.337 6.959 9.626 5.944 22.013-5.207 39.726-16.729 49.878-32.444 2.397-3.711 1.333-8.663-2.379-11.061-3.71-2.397-8.664-1.333-11.061 2.379-7.9 12.229-22.149 21.304-40.122 25.556-4.298 1.016-6.959 5.326-5.942 9.626z" fill="#df8716" data-original="#000000" style=""/><path d="m265.611 103.819c3.494 2.704 8.519 2.061 11.222-1.434s2.061-8.52-1.434-11.222c-4.777-3.695-8.707-7.902-11.68-12.504-2.397-3.711-7.349-4.776-11.061-2.379-3.711 2.397-4.776 7.35-2.378 11.061 3.959 6.128 9.117 11.672 15.331 16.478z" fill="#df8716" data-original="#000000" style=""/><path d="m300.158 119.785c4.3 1.017 8.61-1.645 9.627-5.943 1.017-4.3-1.644-8.61-5.943-9.627-.577-.136-1.15-.278-1.721-.425-4.275-1.101-8.641 1.472-9.743 5.751-1.103 4.279 1.473 8.641 5.751 9.743.673.173 1.349.34 2.029.501z" fill="#df8716" data-original="#000000" style=""/></g></g></svg>
