<?xml version="1.0"?>
<svg xmlns="http://www.w3.org/2000/svg" xmlns:xlink="http://www.w3.org/1999/xlink" xmlns:svgjs="http://svgjs.com/svgjs" version="1.1" width="512" height="512" x="0" y="0" viewBox="0 0 64 64" style="enable-background:new 0 0 512 512" xml:space="preserve"><g><path xmlns="http://www.w3.org/2000/svg" d="M2.12,61.47A1,1,0,0,0,3,62H28a1,1,0,0,0,1-1V58.21l2.4,1.62A1,1,0,0,0,32,60a1,1,0,0,0,.56-.17L35,58.16V61a1,1,0,0,0,1,1H61a1,1,0,0,0,.88-.53,1,1,0,0,0-.05-1L58.2,55l3.63-5.45a1,1,0,0,0,.05-1A1,1,0,0,0,61,48H50.11l1-.67a1,1,0,0,0,.42-.64L57,18.28a1,1,0,0,0-.62-1.12L43,12.06a11,11,0,0,0-21.9,0L7.65,17.15A1,1,0,0,0,7,18.28l5.45,28.41a1,1,0,0,0,.42.64l1,.67H3a1,1,0,0,0-.88.53,1,1,0,0,0,0,1L5.8,55,2.17,60.45A1,1,0,0,0,2.12,61.47ZM59.13,50l-3,4.45a1,1,0,0,0,0,1.1l3,4.45H37V56.82L47.14,50ZM32,4a9,9,0,1,1-9,9A9,9,0,0,1,32,4ZM9.14,18.73l11.93-4.51a11,11,0,0,0,21.86,0l11.93,4.54L49.65,45.9l-.65.44V43a3,3,0,0,0-6,0h2a1,1,0,0,1,2,0v4.68L32,57.79,17,47.69V43a1,1,0,0,1,2,0h2a3,3,0,0,0-6,0v3.34l-.65-.44ZM7.83,55.55a1,1,0,0,0,0-1.1L4.87,50h12L27,56.86V60H4.87Z" fill="#721eb7" data-original="#000000" style=""/><path xmlns="http://www.w3.org/2000/svg" d="M22,48.11A1,1,0,0,0,23,49h2a1,1,0,0,0,1-.89L26.9,40H30a1,1,0,0,0,1-1V35A6.93,6.93,0,0,0,29,30.05a7.1,7.1,0,0,0-1.47-1.11,4,4,0,1,0-7,0A7,7,0,0,0,17,35v4a1,1,0,0,0,1,1h3.1ZM24,25a2,2,0,1,1-2,2A2,2,0,0,1,24,25ZM19,35a5,5,0,0,1,3-4.56A3.91,3.91,0,0,0,24,31a4,4,0,0,0,2-.57,5,5,0,0,1,1.52,1A5,5,0,0,1,29,35v3H26a1,1,0,0,0-1,.89L24.1,47h-.2L23,38.89A1,1,0,0,0,22,38H19Z" fill="#721eb7" data-original="#000000" style=""/><path xmlns="http://www.w3.org/2000/svg" d="M47,39V35a7,7,0,0,0-3.52-6.06,4,4,0,1,0-7,0,6.79,6.79,0,0,0-1.46,1.11A6.89,6.89,0,0,0,33,35v4a1,1,0,0,0,1,1h3.1L38,48.11A1,1,0,0,0,39,49h2a1,1,0,0,0,1-.89L42.9,40H46A1,1,0,0,0,47,39ZM40,25a2,2,0,1,1-2,2A2,2,0,0,1,40,25Zm5,13H42a1,1,0,0,0-1,.89L40.1,47h-.2L39,38.89A1,1,0,0,0,38,38H35V35a4.92,4.92,0,0,1,1.47-3.53,4.86,4.86,0,0,1,1.51-1A4,4,0,0,0,40,31a3.91,3.91,0,0,0,2-.56A5,5,0,0,1,45,35Z" fill="#721eb7" data-original="#000000" style=""/><path xmlns="http://www.w3.org/2000/svg" d="M29,16v3a1,1,0,0,0,1,1h4a1,1,0,0,0,1-1V16h3a1,1,0,0,0,1-1V11a1,1,0,0,0-1-1H35V7a1,1,0,0,0-1-1H30a1,1,0,0,0-1,1v3H26a1,1,0,0,0-1,1v4a1,1,0,0,0,1,1Zm-2-4h3a1,1,0,0,0,1-1V8h2v3a1,1,0,0,0,1,1h3v2H34a1,1,0,0,0-1,1v3H31V15a1,1,0,0,0-1-1H27Z" fill="#721eb7" data-original="#000000" style=""/></g></svg>
