<?xml version="1.0" encoding="UTF-8"?>
<svg width="32px" height="32px" viewBox="0 0 32 32" version="1.1" xmlns="http://www.w3.org/2000/svg" xmlns:xlink="http://www.w3.org/1999/xlink">
    <!-- Generator: Sketch 44.1 (41455) - http://www.bohemiancoding.com/sketch -->
    <title>Metarubrick / Main / goods</title>
    <desc>Created with Sketch.</desc>
    <defs></defs>
    <g id="Page-1" stroke="none" stroke-width="1" fill="none" fill-rule="evenodd">
        <g id="New-meta-draft" transform="translate(-684.000000, -284.000000)">
            <g id="Slice" transform="translate(84.000000, 84.000000)"></g>
            <g id="Icon" transform="translate(51.000000, 42.000000)" stroke="#52B311" stroke-width="2">
                <g id="1st-Lvl" transform="translate(20.000000, 200.000000)">
                    <g id="Goods" transform="translate(617.000000, 44.000000)">
                        <path d="M14.8007,28 L2.0007,28 C0.8207,28 -0.1023,26.985 0.0097,25.81 L1.8007,7 L4.8007,7" id="Stroke-1"></path>
                        <path d="M15.8007,7 L20.8007,7 L22.5917,25.81 C22.7037,26.985 21.7807,28 20.6007,28 L17.8007,28 L15.0007,28 C13.8207,28 12.8977,26.985 13.0097,25.81 L14.8007,7" id="Stroke-3"></path>
                        <path d="M15.8007,7 L10.8007,7" id="Stroke-5"></path>
                        <path d="M7.8007,12 L7.8007,4 C7.8007,1.791 9.5917,0 11.8007,0 L11.8007,0 C14.0097,0 15.8007,1.791 15.8007,4 L15.8007,4" id="Stroke-7"></path>
                        <polyline id="Stroke-9" points="4.8007 12 7.8007 12 10.8007 12"></polyline>
                        <path d="M17.8007,25 L17.8007,18" id="Stroke-11"></path>
                    </g>
                </g>
            </g>
        </g>
    </g>
</svg>