<?xml version="1.0" encoding="UTF-8"?>
<svg width="32px" height="32px" viewBox="0 0 32 32" version="1.1" xmlns="http://www.w3.org/2000/svg" xmlns:xlink="http://www.w3.org/1999/xlink">
    <!-- Generator: Sketch 44.1 (41455) - http://www.bohemiancoding.com/sketch -->
    <title>Metarubrick / Government / government</title>
    <desc>Created with Sketch.</desc>
    <defs></defs>
    <g id="Page-1" stroke="none" stroke-width="1" fill="none" fill-rule="evenodd">
        <g id="New-meta-draft" transform="translate(-284.000000, -3184.000000)">
            <g id="Slice" transform="translate(84.000000, 84.000000)"></g>
            <g id="Icon" transform="translate(51.000000, 42.000000)" stroke="#8345FE" stroke-width="2">
                <g id="Government" transform="translate(1.000000, 3093.000000)">
                    <g transform="translate(233.000000, 50.000000)">
                        <path d="M15,0 L15,4" id="Stroke-1"></path>
                        <polygon id="Stroke-3" points="15 17 7 21 7 29 23 29 23 21"></polygon>
                        <path d="M4,27 L0,27 L0,15 L4,15 L7,15 L7,12 C7,7.6 10.6,4 15,4 C19.4,4 23,7.6 23,12 L23,15 L26,15 L30,15 L30,27 L26,27" id="Stroke-5"></path>
                        <path d="M10,12 L20,12" id="Stroke-7"></path>
                    </g>
                </g>
            </g>
        </g>
    </g>
</svg>