<?xml version="1.0" encoding="UTF-8"?>
<svg width="32px" height="32px" viewBox="0 0 32 32" version="1.1" xmlns="http://www.w3.org/2000/svg" xmlns:xlink="http://www.w3.org/1999/xlink">
    <!-- Generator: Sketch 44.1 (41455) - http://www.bohemiancoding.com/sketch -->
    <title>Metarubrick / Grocery / grocery_stores</title>
    <desc>Created with Sketch.</desc>
    <defs></defs>
    <g id="Page-1" stroke="none" stroke-width="1" fill="none" fill-rule="evenodd">
        <g id="New-meta-draft" transform="translate(-284.000000, -2584.000000)">
            <g id="Slice" transform="translate(84.000000, 84.000000)"></g>
            <g id="Icon" transform="translate(51.000000, 42.000000)" stroke="#52B311" stroke-width="2">
                <g id="Grocery" transform="translate(6.000000, 2493.000000)">
                    <g transform="translate(230.000000, 52.000000)">
                        <path d="M12,23.3584 L12,23.5634 C12,24.4684 11.396,25.2744 10.518,25.4954 C9.518,25.7474 8.012,26.0004 6,26.0004 C3.988,26.0004 2.482,25.7474 1.482,25.4954 C0.604,25.2744 0,24.4684 0,23.5634 L0,12.2154 C0,10.7654 0.394,9.3424 1.14,8.0994 L3,5.0004 L3,3.0004" id="Stroke-1"></path>
                        <path d="M9,3 L9,5 L10.86,8.1 C11.606,9.343 12,10.766 12,12.216 L12,13.457" id="Stroke-3"></path>
                        <path d="M2,0 L10,0" id="Stroke-5"></path>
                        <path d="M4,12 L4,19" id="Stroke-7"></path>
                        <path d="M18,12 C14,12 10,13 10,18 C10,22 13,26 18,26 C23,26 26,22 26,18 C26,14.739 24.299,13.18 22.006,12.489" id="Stroke-9"></path>
                        <path d="M18,16 L18,12 C18,10 19,8 22,6" id="Stroke-11"></path>
                    </g>
                </g>
            </g>
        </g>
    </g>
</svg>