<?xml version="1.0"?>
<svg xmlns="http://www.w3.org/2000/svg" xmlns:xlink="http://www.w3.org/1999/xlink" xmlns:svgjs="http://svgjs.com/svgjs" version="1.1" width="512" height="512" x="0" y="0" viewBox="0 0 512 512" style="enable-background:new 0 0 512 512" xml:space="preserve"><g><path xmlns="http://www.w3.org/2000/svg" d="m6 194.589a4 4 0 0 0 4 4h36.843a361.521 361.521 0 0 0 30.614 39.638c39.668 44.9 88.165 81.173 120.323 100.144a4 4 0 0 0 4.065 0c32.155-18.971 80.655-55.241 120.323-100.144a361.521 361.521 0 0 0 30.614-39.638h44.918a4 4 0 0 0 0-8h-39.823c17.55-28.593 30.367-61.259 27.729-93.666-3.519-43.231-29.47-78.281-67.729-91.473a102.489 102.489 0 0 0 -60.891-1.6c-20.684 5.7-40.374 17.766-57.173 34.989-16.8-17.223-36.49-29.286-57.174-34.989a102.5 102.5 0 0 0 -60.891 1.6c-38.259 13.192-64.21 48.242-67.729 91.473-2.638 32.407 10.181 65.077 27.729 93.666h-31.753a4 4 0 0 0 -3.995 4zm310.177 38.342c-38.222 43.266-84.743 78.374-116.359 97.34-31.618-18.966-78.144-54.071-116.366-97.34a361.964 361.964 0 0 1 -26.98-34.342h40.716a4 4 0 0 0 3.677-2.425l19.855-46.356 58.057 106.181a4 4 0 0 0 7.456-1.264l26.167-157.784 54.441 99.567a4 4 0 0 0 3.51 2.081h72.8a362.129 362.129 0 0 1 -26.979 34.342zm-294.184-135.36c3.257-40.016 27.153-72.417 62.362-84.558a92.782 92.782 0 0 1 30.345-5.113c29.169 0 58.414 13.722 82.172 39.465a4 4 0 0 0 5.879 0c32.07-34.745 74.131-47.591 112.519-34.352 35.209 12.141 59.105 44.542 62.362 84.558 2.607 32.025-11.044 64.676-29.172 93.018h-75.737l-58.863-107.653a4 4 0 0 0 -7.455 1.264l-26.168 157.783-56.445-103.232a4 4 0 0 0 -7.187.344l-22.055 51.494h-43.385c-18.128-28.342-31.779-60.989-29.172-93.018zm484.012 396.429v-56.873a32.039 32.039 0 0 0 -20.249-30.146l-33.866-13.834a43.983 43.983 0 0 0 -24.647-22.786l.016-2.562c0-.041-.011-.08-.012-.121a52 52 0 0 0 20.842-41.629v-2.123h6.179a16.383 16.383 0 0 0 4-32.272v-2.354a62.229 62.229 0 1 0 -124.457 0v4.051a16.382 16.382 0 0 0 4 32.272h6.178v.431a52 52 0 0 0 20.842 41.629c0 .041-.012.08-.012.121l.01 1.552a43.878 43.878 0 0 0 -28.4 25.333l-30.1 12.3a32.039 32.039 0 0 0 -20.249 30.146v56.865a18.022 18.022 0 0 0 18 18h183.92a18.022 18.022 0 0 0 18.005-18zm-67.005-106.119-11.835-4.835.025-4.031a35.9 35.9 0 0 1 11.81 8.866zm-66.077-3.961-.071-11.291a51.879 51.879 0 0 0 46.378 0l-.07 11.291-23.119 20.562zm89.739-76.387a8.4 8.4 0 0 1 -8.392 8.393h-6.179v-16.786h6.179a8.4 8.4 0 0 1 8.39 8.393zm-66.621-72.467a54.291 54.291 0 0 1 54.227 54.234v1.845h-9.8c-8.821-2.408-10.931-6.349-14.1-12.261-.867-1.619-1.763-3.292-2.864-5.054a4 4 0 0 0 -5.354-1.364c-36.344 20.461-39.884 20.438-73.676 20.381l-2.669-.006v-3.541a54.29 54.29 0 0 1 54.234-54.234zm-58.228 82.552a8.393 8.393 0 1 1 0-16.786c2.168 0 4.217 0 6.178.009v16.777zm14.178 8.431v-25.206c26.74-.071 34.4-1.5 66.639-19.477q.353.649.694 1.289c3.444 6.432 7.006 13.082 19.622 16.357a4.008 4.008 0 0 0 1 .128h.14v26.909a44.05 44.05 0 1 1 -88.1 0zm12.893 51.678.033 5.319-16.528 6.754a35.844 35.844 0 0 1 16.493-12.073zm-70.811 116.273v-56.873a24.164 24.164 0 0 1 15.275-22.739l24.294-9.925a43.86 43.86 0 0 0 -.565 6.985v14.018a15.725 15.725 0 1 0 8 0v-14.018a35.665 35.665 0 0 1 1.642-10.693l25.417-10.383 25.245 22.453a4 4 0 0 0 5.316 0l25.245-22.453 21.808 8.908a35.525 35.525 0 0 1 2.171 12.168v8.07a29.044 29.044 0 0 0 -25.006 28.723v19.859a4 4 0 0 0 4 4h12.276a4 4 0 0 0 0-8h-8.276v-15.859a21.007 21.007 0 0 1 42.013 0v15.972l-8.387.232a4 4 0 0 0 .108 8h.113l12.277-.339a4 4 0 0 0 3.889-4v-19.865a29.044 29.044 0 0 0 -25.007-28.723v-8.07a43.534 43.534 0 0 0 -.808-8.343l27.617 11.283a24.164 24.164 0 0 1 15.275 22.739v56.873a10.013 10.013 0 0 1 -10 10h-183.93a10.013 10.013 0 0 1 -10.002-10zm43-61.067a7.725 7.725 0 1 1 -7.725 7.724 7.733 7.733 0 0 1 7.729-7.726zm28.147-117.725a4 4 0 0 1 -7.038-3.805 13.658 13.658 0 0 1 24.032 0 4 4 0 1 1 -7.038 3.805 5.657 5.657 0 0 0 -9.956 0zm44.635-3.805a13.659 13.659 0 0 1 24.033 0 4 4 0 1 1 -7.038 3.8 5.658 5.658 0 0 0 -9.957 0 4 4 0 0 1 -7.038-3.805zm-28.324 26.367a4 4 0 0 1 5.48 1.405 10.859 10.859 0 0 0 18.056 0 4 4 0 1 1 6.884 4.076 18.845 18.845 0 0 1 -31.825 0 4 4 0 0 1 1.405-5.481zm-10.724 130.673a4 4 0 0 1 -4 4h-49.915a4 4 0 0 1 0-8h49.915a4 4 0 0 1 4 4z" fill="#a216bf" data-original="#000000" style=""/></g></svg>
