<?xml version="1.0"?>
<svg xmlns="http://www.w3.org/2000/svg" xmlns:xlink="http://www.w3.org/1999/xlink" xmlns:svgjs="http://svgjs.com/svgjs" version="1.1" width="512" height="512" x="0" y="0" viewBox="0 0 30 30" style="enable-background:new 0 0 512 512" xml:space="preserve" class=""><g><g xmlns="http://www.w3.org/2000/svg"><g><path d="m28.5 22.999c-.253.042-.5-.225-.5-.502 0-.011 0-1.073-.348-1.775-.285-.575-2.705-1.295-4.907-1.675-.451.63-1.7 1.953-4.245 1.953-2.834 0-6.238-6.194-9.24-11.659-1.637-2.981-3.184-5.795-4.057-6.439-.222-.164-.27-.477-.105-.699s.477-.27.699-.105c1.05.774 2.501 3.417 4.339 6.762 2.583 4.701 6.121 11.14 8.364 11.14 2.629 0 3.518-1.656 3.555-1.727.099-.19.31-.301.523-.267 1.233.195 5.307.935 5.969 2.271.455.917.453 2.172.453 2.225-.001.275-.225.497-.5.497z" fill="#df238d" data-original="#000000" style=""/></g><g><path d="m6.5 28h-5c-.276 0-.5-.224-.5-.5v-18c0-3.388 1.731-6.386 4.308-7.461.254-.106.547.014.654.269.106.255-.014.547-.269.654-2.209.92-3.693 3.548-3.693 6.538v17.5h4v-13.54c0-.276.224-.5.5-.5s.5.224.5.5v14.04c0 .276-.224.5-.5.5z" fill="#df238d" data-original="#000000" style=""/></g><g><path d="m18.5 28c-3.922 0-4.726-1.07-6.059-2.844l-.173-.23c-.445-.589-.879-1.6-1.429-2.88-.393-.915-.835-1.945-1.363-3.02-.02-.031-.035-.063-.047-.096-1.611-3.26-4.005-6.909-8.152-8.982-.248-.125-.348-.425-.224-.672s.425-.346.671-.224c4.377 2.188 6.936 6.093 8.597 9.436.14.186.287.39.443.607 1.409 1.953 3.539 4.905 7.736 4.905 5.481 0 9.748-1.936 9.791-1.955.155-.071.336-.059.479.033s.23.251.23.422v1.985c0 .836-.527 1.591-1.313 1.878-1.668.612-5.081 1.637-9.187 1.637zm-6.518-5.827c.408.943.768 1.732 1.083 2.15l.175.232c1.262 1.679 1.838 2.445 5.26 2.445 3.952 0 7.237-.988 8.844-1.576.392-.144.656-.521.656-.939v-1.237c-1.469.568-5.064 1.752-9.5 1.752-2.986 0-5.045-1.339-6.518-2.827z" fill="#df238d" data-original="#000000" style=""/></g></g></g></svg>
