<?xml version="1.0"?>
<svg xmlns="http://www.w3.org/2000/svg" xmlns:xlink="http://www.w3.org/1999/xlink" xmlns:svgjs="http://svgjs.com/svgjs" version="1.1" width="512" height="512" x="0" y="0" viewBox="0 0 512 512" style="enable-background:new 0 0 512 512" xml:space="preserve" class=""><g><g xmlns="http://www.w3.org/2000/svg"><g><path d="m473.01 144.711c-6.049-14.978-17.854-24.844-36.089-30.161l-71.029-20.721c-29.761-8.693-30.702-13.847-30.702-39.751v-44.078c0-5.522-4.477-10-10-10h-138.38c-5.523 0-10 4.478-10 10v44.078c0 25.904-.941 31.058-30.698 39.75l-71.033 20.722c-18.235 5.317-30.04 15.184-36.089 30.161-5.179 12.821-5.21 27.407-5.238 40.297v316.992c0 5.522 4.477 10 10 10h167.208c5.523 0 10-4.478 10-10s-4.477-10-10-10h-80.676v-263.991c0-14.82-7.443-28.508-19.911-36.616-4.632-3.009-10.825-1.698-13.835 2.933-3.011 4.63-1.698 10.823 2.932 13.835 6.771 4.403 10.814 11.823 10.814 19.849v263.99h-56.533v-306.971c.06-27.753 1.34-43.817 26.928-51.28l71.037-20.723c16.869-4.928 29.632-10.349 37.089-20.785 6.729-9.417 8.004-20.678 8.004-38.163v-34.078h118.381v34.078c0 17.485 1.275 28.746 8.004 38.163 7.457 10.437 20.22 15.857 37.093 20.786l71.034 20.722c25.587 7.463 26.867 23.527 26.927 51.259v306.992h-56.532v-263.991c0-8.025 4.043-15.445 10.814-19.849 4.63-3.012 5.942-9.205 2.932-13.835-3.011-4.631-9.205-5.941-13.835-2.933-12.468 8.108-19.911 21.796-19.911 36.616v263.992h-80.846c-5.523 0-10 4.478-10 10s4.477 10 10 10h167.378c5.523 0 10-4.478 10-10v-317.014c-.027-12.868-.059-27.454-5.238-40.275z" fill="#13055a" data-original="#000000" style="" class=""/><path d="m256 492c-5.523 0-10 4.478-10 10s4.477 10 10 10h.057c5.523 0 9.972-4.478 9.972-10s-4.506-10-10.029-10z" fill="#13055a" data-original="#000000" style="" class=""/><path d="m155.685 206.905c-4.621 19.812-1.435 41.279 9.213 62.083 1.75 3.418 5.235 5.446 8.902 5.445 1.042 0 2.099-.163 3.134-.505 22.199-7.328 39.547-20.373 50.168-37.723 8.936-14.597 12.603-31.346 10.838-48.921.242-.095.485-.182.726-.283 7.915-3.31 14.054-9.475 17.292-17.37 6.687-16.343-1.155-35.086-17.486-41.783l-14.817-6.063c-16.321-6.693-35.064 1.141-41.788 17.476-3.458 8.431-3.037 17.499.418 25.227-13.578 11.266-22.715 25.758-26.6 42.417zm44.68-60.043c1.915-4.651 6.421-7.471 11.16-7.471 1.516 0 3.055.288 4.541.897.002.001.005.002.007.003l14.817 6.063c6.13 2.514 9.071 9.559 6.561 15.695-1.207 2.943-3.515 5.251-6.5 6.499-2.984 1.247-6.25 1.27-9.204.06l-14.816-6.063c-6.135-2.515-9.078-9.557-6.566-15.683zm-4.618 32.435c1.151.65 2.349 1.243 3.602 1.757l14.817 6.063c1.245.511 2.512.931 3.791 1.278 3.193 27.792-11.195 51.156-38.951 63.351-11.187-28.176-5.028-54.91 16.741-72.449z" fill="#13055a" data-original="#000000" style="" class=""/><path d="m336.229 371.438c1.036.342 2.092.506 3.134.505 3.667 0 7.153-2.027 8.902-5.445 10.647-20.804 13.833-42.271 9.213-62.083-3.888-16.668-13.032-31.166-26.62-42.434.107-.241.22-.478.322-.722 3.306-7.917 3.334-16.621.091-24.479-3.232-7.902-9.369-14.074-17.279-17.381-7.901-3.302-16.597-3.34-24.477-.106l-14.825 6.066c-.002.001-.005.002-.007.003-16.324 6.694-24.165 25.438-17.476 41.788 3.235 7.888 9.375 14.054 17.289 17.362.241.101.484.188.726.283-1.765 17.576 1.902 34.325 10.838 48.921 10.621 17.35 27.969 30.394 50.169 37.722zm-54.018-105.378c-2.984-1.247-5.292-3.556-6.496-6.49-2.513-6.144.425-13.185 6.55-15.701l14.832-6.069c2.947-1.209 6.208-1.191 9.183.053 2.973 1.242 5.274 3.551 6.493 6.528 1.212 2.938 1.195 6.195-.048 9.172-1.246 2.984-3.559 5.293-6.52 6.504l-14.798 6.066c-2.946 1.207-6.211 1.185-9.196-.063zm12.994 19.844c1.279-.347 2.545-.767 3.789-1.277l14.79-6.063c1.255-.514 2.461-1.108 3.624-1.764 21.776 17.539 27.937 44.276 16.748 72.454-27.756-12.194-42.143-35.558-38.951-63.35z" fill="#13055a" data-original="#000000" style="" class=""/><path d="m254.796 357.055c6.686-16.343-1.155-35.086-17.486-41.783l-14.817-6.063c-7.888-3.235-16.583-3.199-24.484.104-7.91 3.307-14.046 9.479-17.267 17.353-3.255 7.887-3.227 16.591.079 24.508.102.244.215.481.322.722-13.588 11.269-22.733 25.767-26.62 42.434-4.62 19.812-1.435 41.28 9.213 62.084 1.749 3.418 5.235 5.446 8.902 5.445 1.042 0 2.099-.163 3.134-.505 22.2-7.329 39.548-20.373 50.169-37.724 8.935-14.596 12.602-31.345 10.837-48.921.242-.094.486-.182.726-.283 7.914-3.31 14.055-9.476 17.292-17.371zm-76.952 82.113c-11.188-28.178-5.027-54.915 16.748-72.454 1.161.654 2.365 1.248 3.617 1.76l14.795 6.065c1.245.511 2.512.931 3.791 1.278 3.192 27.792-11.195 51.156-38.951 63.351zm58.444-89.693c-1.207 2.942-3.515 5.251-6.5 6.499-2.985 1.247-6.251 1.27-9.196.062l-14.804-6.069c-2.954-1.208-5.267-3.517-6.513-6.501-1.243-2.977-1.26-6.233-.036-9.2 1.207-2.949 3.508-5.258 6.481-6.5 1.508-.631 3.091-.946 4.668-.946 1.533 0 3.062.298 4.514.894.002.001.005.002.007.003l14.817 6.063c6.131 2.512 9.073 9.557 6.562 15.695z" fill="#13055a" data-original="#000000" style="" class=""/></g></g></g></svg>
