<?xml version="1.0"?>
<svg xmlns="http://www.w3.org/2000/svg" xmlns:xlink="http://www.w3.org/1999/xlink" xmlns:svgjs="http://svgjs.com/svgjs" version="1.1" width="512" height="512" x="0" y="0" viewBox="0 0 512 512" style="enable-background:new 0 0 512 512" xml:space="preserve"><g><path xmlns="http://www.w3.org/2000/svg" d="M457.167,176.03,495.748,25.992a8,8,0,1,0-15.5-3.984L440.654,176H402.062l5.876-47.008a8,8,0,1,0-15.876-1.984L385.937,176H350.062l-6.124-48.992a8,8,0,1,0-15.876,1.984L333.937,176H295.346l-39.6-153.992a8,8,0,1,0-15.5,3.984L278.825,176H56a40.045,40.045,0,0,0-40,40V392a40.045,40.045,0,0,0,40,40H80v40a8,8,0,0,0,8,8h32a8,8,0,0,0,8-8V432H384v40a8,8,0,0,0,8,8h32a8,8,0,0,0,8-8V432h24a40.045,40.045,0,0,0,40-40V216A40.039,40.039,0,0,0,457.167,176.03ZM436.54,192l-11.569,44.989a88,88,0,0,0-28.5-16.26L400.062,192ZM368,264a40,40,0,1,1-40,40A40.045,40.045,0,0,1,368,264Zm0-16a56.135,56.135,0,0,0-8.849.706l-1.986-15.89a72.343,72.343,0,0,1,21.67,0l-1.986,15.89A56.135,56.135,0,0,0,368,248Zm-24.364,5.586A56.368,56.368,0,0,0,320.6,274.227l-5.018-19.515a72.234,72.234,0,0,1,25.982-17.664Zm-31.607,51.537a55.982,55.982,0,0,0,111.942,0l8.512-33.1a72,72,0,1,1-128.966,0Zm103.367-30.9a56.368,56.368,0,0,0-23.032-20.641l2.068-16.538a72.234,72.234,0,0,1,25.982,17.664ZM383.937,192l-3.117,24.937a88.17,88.17,0,0,0-25.64,0L352.062,192Zm-48,0,3.592,28.729a88,88,0,0,0-28.5,16.26L299.46,192ZM112,464H96V432h16Zm304,0H400V432h16Zm64-72a24.028,24.028,0,0,1-24,24H56a24.028,24.028,0,0,1-24-24V216a24.028,24.028,0,0,1,24-24H282.94l15.092,58.694a88,88,0,1,0,139.936,0L453.06,192H456a24.028,24.028,0,0,1,24,24Z" fill="#cd1b1b" data-original="#000000" style=""/><path xmlns="http://www.w3.org/2000/svg" d="M248,248H64a8,8,0,0,0,0,16H248a8,8,0,0,0,0-16Z" fill="#cd1b1b" data-original="#000000" style=""/><path xmlns="http://www.w3.org/2000/svg" d="M248,280H64a8,8,0,0,0,0,16H248a8,8,0,0,0,0-16Z" fill="#cd1b1b" data-original="#000000" style=""/><path xmlns="http://www.w3.org/2000/svg" d="M248,312H64a8,8,0,0,0,0,16H248a8,8,0,0,0,0-16Z" fill="#cd1b1b" data-original="#000000" style=""/><path xmlns="http://www.w3.org/2000/svg" d="M248,344H64a8,8,0,0,0,0,16H248a8,8,0,0,0,0-16Z" fill="#cd1b1b" data-original="#000000" style=""/><path xmlns="http://www.w3.org/2000/svg" d="M319.008,16.062a8,8,0,0,0-6.946,8.93l8,64A8,8,0,0,0,327.99,96a8.108,8.108,0,0,0,1-.063,8,8,0,0,0,6.946-8.93l-8-64A8,8,0,0,0,319.008,16.062Z" fill="#cd1b1b" data-original="#000000" style=""/><path xmlns="http://www.w3.org/2000/svg" d="M408.062,23.008l-8,64a8,8,0,0,0,6.946,8.93,8.1,8.1,0,0,0,1,.063,8,8,0,0,0,7.928-7.009l8-64a8,8,0,1,0-15.876-1.984Z" fill="#cd1b1b" data-original="#000000" style=""/></g></svg>
