<?xml version="1.0"?>
<svg xmlns="http://www.w3.org/2000/svg" xmlns:xlink="http://www.w3.org/1999/xlink" xmlns:svgjs="http://svgjs.com/svgjs" version="1.1" width="512" height="512" x="0" y="0" viewBox="0 0 512 512" style="enable-background:new 0 0 512 512" xml:space="preserve" class=""><g><g xmlns="http://www.w3.org/2000/svg" id="Out_line" data-name="Out line"><path d="M32,280a8.00917,8.00917,0,0,1,8-8,8,8,0,0,0,0-16,8.00917,8.00917,0,0,1-8-8V186.39648A106.51727,106.51727,0,0,1,138.39648,80H216V64H152V32h16V48h16V32h16V48h16V32h16V48h16V24a8.00039,8.00039,0,0,0-8-8H144a8.00039,8.00039,0,0,0-8,8V64.03027A122.53627,122.53627,0,0,0,16,186.39648V248a23.905,23.905,0,0,0,6.126,16A23.905,23.905,0,0,0,16,280V456a40.04584,40.04584,0,0,0,40,40H96V480H56a24.0384,24.0384,0,0,1-22.62378-16H96V448H32V304H96V288H32Z" fill="#2b7bb5" data-original="#000000" style=""/><path d="M112,177.37207A17.39244,17.39244,0,0,1,129.37305,160a24,24,0,1,0,0-48h-.001A65.4466,65.4466,0,0,0,64,177.37207v32.001a24,24,0,1,0,48,0Zm-16,0v32.001a8,8,0,0,1-16,0v-32.001A49.42848,49.42848,0,0,1,129.37305,128a8,8,0,0,1-.001,16A33.40993,33.40993,0,0,0,96,177.37207Z" fill="#2b7bb5" data-original="#000000" style=""/><path d="M128,464H248a8.00039,8.00039,0,0,0,8-8V336a8.00039,8.00039,0,0,0-8-8H128V312H304v16h16V256a8.00039,8.00039,0,0,0-8-8H120a8.00039,8.00039,0,0,0-8,8V488a8.00039,8.00039,0,0,0,8,8H264V480H128ZM240,344V448H128V344Zm-96-80v16h16V264h16v16h16V264h16v16h16V264h16v16h16V264h16v16h16V264h16v32H128V264Z" fill="#2b7bb5" data-original="#000000" style=""/><path d="M464,222.14307V192a8.00039,8.00039,0,0,0-8-8V167.45557a24.017,24.017,0,0,0,15.10059-36.34034l-16.13868-25.36132A89.73444,89.73444,0,0,0,378.90039,64H280a8.02851,8.02851,0,0,0-1.56934.156v-.00074l-.01513.00293-.05054.01026-39.93433,7.98681A8,8,0,0,0,232,80v32a8,8,0,0,0,6.43066,7.84473l38.56763,7.71338,10.8,6.75024a87.10887,87.10887,0,0,1-25.45557,56.03442A24.959,24.959,0,0,0,280,232.959v.01172h40a24.81056,24.81056,0,0,0,17.65723-7.31347l4.081-4.08106q5.32764-5.328,10.26172-11.012V220.823a62.16839,62.16839,0,0,0-16,41.804v42.55371A72.09783,72.09783,0,0,1,310.794,359.98438,88.083,88.083,0,0,0,280,426.9375V488a8.00039,8.00039,0,0,0,8,8H488a8.00039,8.00039,0,0,0,8-8V359.55371A312.72463,312.72463,0,0,0,464,222.14307ZM368,200h80v16H368Zm10.8501-16a28.64986,28.64986,0,0,0-1.47925-16H440v16Zm62.61377-69.65625,16.13867,25.36133A7.99989,7.99989,0,0,1,450.85352,152H433.48145a23.62494,23.62494,0,0,0-2.38086-20.88477l-16.13868-25.36132a90.35033,90.35033,0,0,0-23.09912-24.62012A73.75051,73.75051,0,0,1,441.46387,114.34375ZM288,80h50.90039a73.81037,73.81037,0,0,1,62.56348,34.34375l16.13867,25.36133A7.99989,7.99989,0,0,1,410.85352,152H346.294L288,115.56641Zm-40,6.55859,24-4.8v28.48292l-24-4.8Zm25.65723,127.78418a8.979,8.979,0,0,1,0-12.68554,103.00918,103.00918,0,0,0,29.20923-57.9314l24.62084,15.38794a200.04573,200.04573,0,0,1-37.06347,51.148l-4.08106,4.08105A8.979,8.979,0,0,1,273.65723,214.34277Zm56.7666-4.08105-4.08106,4.08105A8.91078,8.91078,0,0,1,320,216.9707H306.19482a216.008,216.008,0,0,0,34.98926-49.50244A7.98866,7.98866,0,0,0,344,168h13.83911a12.53311,12.53311,0,0,1,3.09522,2.991A200.42955,200.42955,0,0,1,330.42383,210.26172ZM480,480H296V426.9375a72.10288,72.10288,0,0,1,25.20605-54.80469A88.078,88.078,0,0,0,352,305.18066V262.627A46.27312,46.27312,0,0,1,363.48438,232h87.52A296.7048,296.7048,0,0,1,480,359.55371Z" fill="#2b7bb5" data-original="#000000" style=""/><path d="M424,350.05859h-.75879a74.50118,74.50118,0,0,0-57.38672,26.87891,58.54327,58.54327,0,0,1-45.0957,21.12109H320a8.00039,8.00039,0,0,0-8,8V456a8.00039,8.00039,0,0,0,8,8h.75879a74.50118,74.50118,0,0,0,57.38672-26.87891A58.54623,58.54623,0,0,1,423.24121,416H424a8.00039,8.00039,0,0,0,8-8V358.05859A8.00039,8.00039,0,0,0,424,350.05859Zm-8,50.29a74.47134,74.47134,0,0,0-50.14551,26.53028A58.52479,58.52479,0,0,1,328,447.55566V413.71a74.46719,74.46719,0,0,0,50.14551-26.53027A58.52476,58.52476,0,0,1,416,366.50293Z" fill="#2b7bb5" data-original="#000000" style=""/><path d="M427.28711,250.94434A293.86135,293.86135,0,0,1,448,359.55371V464h16V359.55371a309.7941,309.7941,0,0,0-21.83594-114.49805Z" fill="#2b7bb5" data-original="#000000" style=""/></g></g></svg>
