<?xml version="1.0" encoding="UTF-8"?>
<svg width="32px" height="32px" viewBox="0 0 32 32" version="1.1" xmlns="http://www.w3.org/2000/svg" xmlns:xlink="http://www.w3.org/1999/xlink">
    <!-- Generator: Sketch 44.1 (41455) - http://www.bohemiancoding.com/sketch -->
    <title>Metarubrick / Services / house_hold</title>
    <desc>Created with Sketch.</desc>
    <defs></defs>
    <g id="Page-1" stroke="none" stroke-width="1" fill="none" fill-rule="evenodd">
        <g id="New-meta-draft" transform="translate(-84.000000, -1984.000000)">
            <g id="Slice" transform="translate(84.000000, 84.000000)"></g>
            <g id="Icon" transform="translate(51.000000, 42.000000)" stroke="#8345FE" stroke-width="2">
                <g id="Services" transform="translate(22.000000, 1894.000000)">
                    <g id="House-hold" transform="translate(14.000000, 53.000000)">
                        <path d="M22,17 L2,17 C0.896,17 0,17.896 0,19 L0,22 L26,22 L26,14.803 C26,13.627 25.652,12.479 25,11.5 C24.348,10.521 24,9.373 24,8.197 L24,2 C24,0.896 23.104,0 22,0 L4,0 C2.896,0 2,0.896 2,2 L2,7 L4,10 L10,10 L10,4" id="Stroke-1"></path>
                        <path d="M10,8 L13.331,8 C15.357,8 17,9.643 17,11.669 L17,14" id="Stroke-3"></path>
                        <path d="M24,4 L27,4" id="Stroke-5"></path>
                        <path d="M7,10 L7,14" id="Stroke-7"></path>
                        <path d="M20,4 L17,4" id="Stroke-9"></path>
                    </g>
                </g>
            </g>
        </g>
    </g>
</svg>