<?xml version="1.0"?>
<svg xmlns="http://www.w3.org/2000/svg" xmlns:xlink="http://www.w3.org/1999/xlink" xmlns:svgjs="http://svgjs.com/svgjs" version="1.1" width="512" height="512" x="0" y="0" viewBox="0 0 512 512" style="enable-background:new 0 0 512 512" xml:space="preserve" class=""><g><g xmlns="http://www.w3.org/2000/svg"><g id="Page-1_25_"><g id="_x30_26---Bird-Shooting"><path id="Shape_143_" d="m256 0c-141.385 0-256 114.615-256 256s114.615 256 256 256 256-114.615 256-256c-.16-141.319-114.681-255.84-256-256zm0 494.933c-131.959 0-238.933-106.974-238.933-238.933s106.974-238.933 238.933-238.933 238.933 106.974 238.933 238.933c-.15 131.897-107.036 238.783-238.933 238.933z" fill="#a72020" data-original="#000000" style=""/><path id="Shape_142_" d="m256 34.133c-122.534 0-221.867 99.333-221.867 221.867s99.333 221.867 221.867 221.867 221.867-99.333 221.867-221.867c-.137-122.477-99.39-221.73-221.867-221.867zm8.533 426.454v-59.52c0-4.713-3.821-8.533-8.533-8.533-4.713 0-8.533 3.82-8.533 8.533v59.52c-106.33-4.562-191.491-89.723-196.053-196.053h59.52c4.713 0 8.533-3.821 8.533-8.533 0-4.713-3.821-8.533-8.533-8.533h-59.52c4.562-106.33 89.723-191.491 196.053-196.053v59.52c0 4.713 3.821 8.533 8.533 8.533 4.713 0 8.533-3.821 8.533-8.533v-59.52c106.33 4.562 191.491 89.723 196.053 196.053h-59.52c-4.713 0-8.533 3.821-8.533 8.533 0 4.713 3.82 8.533 8.533 8.533h59.52c-4.561 106.33-89.722 191.491-196.053 196.053z" fill="#a72020" data-original="#000000" style=""/><path id="Shape_141_" d="m380.484 196.932-22.665-1.877c-2.828-.476-5.364-2.022-7.083-4.318-7.458-9.007-18.787-13.885-30.455-13.116-9.035.624-17.609 4.225-24.38 10.24-7.136-3.257-13.784-7.49-19.755-12.578-12.299-9.956-21.954-22.79-28.109-37.367l-.469-1.152c-2.705-6.647-6.827-16.691-15.633-17.289-4.986-.241-9.613 2.591-11.665 7.142-2.549 4.955-4.234 10.308-4.983 15.829l-.521 2.697c-1.388 6.425-2.366 12.932-2.927 19.482-1.53 15.054-.846 30.251 2.031 45.107.111.529.282 1.033.401 1.562-14.363-11.68-26.648-25.704-36.335-41.481-5.851-9.411-10.854-19.323-14.95-29.619-1.418-4.683-5.183-8.282-9.924-9.489-4.698-.751-9.444 1.033-12.484 4.693-5.181 5.249-9.429 11.344-12.561 18.022-13.355 28.16-8.593 59.23-2.953 83.157 3.683 16.67 11.395 32.183 22.46 45.184 12.028 13.189 27.976 22.163 45.491 25.6 5.89 1.358 11.861 2.333 17.877 2.918-1.986 1.949-4.37 3.445-6.989 4.386-3.376.991-6.855 1.592-10.368 1.792-5.538.555-11.093.981-16.631 1.391-7.887.471-15.154 4.427-19.831 10.795-4.858 6.867-6.467 15.517-4.403 23.671l4.463 18.91c1.785 7.717 6.772 14.309 13.713 18.125 6.611 3.573 14.43 4.166 21.504 1.63 15.582-5.86 30.326-13.744 43.853-23.45 1.51-1.058 2.961-2.278 4.395-3.507 1.38-1.35 2.942-2.499 4.642-3.413 1.733-.218 3.487-.198 5.214.06 1.852.162 3.703.247 5.564.282 15.667-.239 54.665-3.772 78.507-31.462 17.673-20.599 23.458-48.734 27.093-76.254.401-3.669.794-7.339 1.092-10.923.242-3.204 1.928-6.124 4.582-7.936l19.371-13.047c4.693-3.203 6.862-9.012 5.419-14.507-1.332-5.451-6.005-9.436-11.598-9.89zm-149.905 9.387c-2.517-13.215-3.092-26.726-1.707-40.107.508-5.883 1.385-11.729 2.628-17.502l.589-3.029c.077-.384.145-.777.222-1.161l.06.137c7.227 17.134 18.567 32.223 33.015 43.93 6.3 5.263 13.186 9.782 20.523 13.466-.452 1.075-.956 2.116-1.314 3.243-1.604 5.231-3.098 10.428-4.378 15.462-1.182 6.127-4.931 11.454-10.3 14.635-5.165 2.154-10.999 2.03-16.068-.341-5.87-2.467-11.587-5.285-17.118-8.439-2.592-6.6-4.65-13.397-6.153-20.326v.032zm127.258 13.841c-7 4.663-11.47 12.283-12.126 20.668-.299 3.499-.674 7.023-1.033 10.359-3.268 24.747-8.337 49.963-23.091 67.174-19.294 22.426-52.437 25.318-65.775 25.515-1.289.003-2.577-.071-3.857-.222-3.974-.577-8.025-.339-11.904.7-3.904 1.494-7.47 3.754-10.487 6.647-1.033.853-2.057 1.766-3.106 2.509-12.297 8.841-25.7 16.031-39.868 21.385-2.493.901-5.253.686-7.578-.589-2.667-1.49-4.571-4.048-5.231-7.031l-4.463-18.918c-.933-3.294-.364-6.832 1.553-9.668 1.748-2.321 4.444-3.736 7.347-3.857 5.7-.418 11.383-.853 16.973-1.425 4.792-.294 9.533-1.153 14.123-2.56 8.392-3.37 15.658-9.048 20.958-16.375.981-1.135 1.954-2.261 2.953-3.413 2.673-2.987 3.357-7.26 1.75-10.932-1.607-3.673-5.209-6.07-9.217-6.134-9.722-.039-19.411-1.141-28.894-3.285-14.034-2.668-26.839-9.772-36.531-20.267-9.199-10.886-15.591-23.859-18.62-37.786-5.001-21.205-9.318-48.546 1.758-71.919 1.548-3.289 3.463-6.392 5.709-9.25 4.078 9.385 8.821 18.468 14.191 27.179 19.618 32.387 49.062 57.666 84.045 72.158 9.579 4.345 20.581 4.276 30.106-.188 9.834-5.316 16.847-14.67 19.191-25.6 1.254-4.898 2.679-9.847 4.164-14.694 2.907-9.079 11.185-15.368 20.71-15.735 6.215-.358 12.223 2.301 16.137 7.142 4.59 5.811 11.332 9.522 18.697 10.291l11.989.99z" fill="#a72020" data-original="#000000" style=""/><path id="Shape_140_" d="m322.21 213.589c-4.573 1.138-7.357 5.768-6.219 10.341s5.768 7.358 10.341 6.22 7.358-5.767 6.221-10.341c-.546-2.197-1.943-4.086-3.883-5.253-1.94-1.165-4.263-1.513-6.46-.967z" fill="#a72020" data-original="#000000" style=""/></g></g></g></g></svg>
