<?xml version="1.0"?>
<svg xmlns="http://www.w3.org/2000/svg" xmlns:xlink="http://www.w3.org/1999/xlink" xmlns:svgjs="http://svgjs.com/svgjs" version="1.1" width="512" height="512" x="0" y="0" viewBox="0 0 512 512" style="enable-background:new 0 0 512 512" xml:space="preserve" class=""><g><g xmlns="http://www.w3.org/2000/svg"><path d="m488.34 269.24c4.142 0 7.5-3.358 7.5-7.5v-76.096c9.032-.738 16.16-8.31 16.16-17.529v-12.122c0-9.706-7.896-17.602-17.602-17.602h-59.171v-43.618c11.642-3.28 20.203-13.987 20.203-26.663 0-7.956-3.376-15.134-8.764-20.191.223-.209.447-.416.664-.633 5.223-5.238 8.1-12.193 8.1-19.586 0-15.274-12.426-27.7-27.7-27.7h-283.35c-4.142 0-7.5 3.358-7.5 7.5s3.358 7.5 7.5 7.5h283.35c7.003 0 12.7 5.697 12.7 12.7 0 3.394-1.321 6.588-3.713 8.986-2.391 2.391-5.565 3.71-8.942 3.721-.016 0-.032-.001-.048-.001h-343.455c-.016 0-.031.001-.047.001-6.982-.023-12.655-5.713-12.655-12.707 0-3.388 1.321-6.578 3.713-8.977 2.401-2.401 5.593-3.723 8.987-3.723h25.11c4.142 0 7.5-3.358 7.5-7.5s-3.358-7.5-7.5-7.5h-25.11c-7.401 0-14.359 2.882-19.601 8.124-5.223 5.238-8.1 12.19-8.1 19.576 0 7.964 3.38 15.148 8.775 20.208-5.395 5.058-8.776 12.241-8.776 20.202 0 12.676 8.561 23.384 20.203 26.663v43.619h-59.169c-9.706 0-17.602 7.897-17.602 17.602v12.122c0 9.22 7.129 16.792 16.163 17.529v189.842c-1.578 1.171-3.081 2.466-4.496 3.881-7.523 7.522-11.667 17.521-11.667 28.152 0 13.292 6.552 25.076 16.588 32.315-1.731 1.249-3.378 2.638-4.917 4.177-7.526 7.514-11.671 17.514-11.671 28.158 0 21.962 17.868 39.83 39.83 39.83h432.34c10.638 0 20.64-4.144 28.163-11.667 7.523-7.522 11.667-17.525 11.667-28.163 0-13.289-6.551-25.069-16.587-32.306 1.732-1.25 3.381-2.64 4.92-4.18 7.523-7.524 11.667-17.526 11.667-28.164 0-13.101-6.364-24.741-16.16-32.002v-78.798c0-4.142-3.358-7.5-7.5-7.5s-7.5 3.358-7.5 7.5v71.941c-2.793-.623-5.692-.961-8.67-.961h-36.942v-181.983h45.612v76.023c0 4.142 3.358 7.5 7.5 7.5zm8.66-113.246v12.122c0 1.435-1.167 2.602-2.602 2.602h-72.732c-1.435 0-2.602-1.167-2.602-2.602v-12.122c0-1.435 1.167-2.602 2.602-2.602h72.732c1.435 0 2.602 1.168 2.602 2.602zm-425.431-87.884c0-6.989 5.674-12.676 12.657-12.701.015 0 .029.001.043.001h343.46c.015 0 .029-.001.044-.001 6.983.026 12.657 5.712 12.657 12.701 0 7.004-5.699 12.703-12.703 12.703h-343.455c-7.004 0-12.703-5.699-12.703-12.703zm-56.569 100.006v-12.122c0-1.435 1.167-2.602 2.602-2.602h72.732c1.435 0 2.602 1.167 2.602 2.602v12.122c0 1.435-1.167 2.602-2.602 2.602h-72.732c-1.435-.001-2.602-1.168-2.602-2.602zm16.163 17.601h45.61v181.983h-36.943c-2.952 0-5.852.33-8.667.952zm-16.163 221.803c0-6.625 2.583-12.856 7.274-17.547 4.689-4.69 10.924-7.273 17.556-7.273h112.705v49.65h-112.705c-13.691 0-24.83-11.139-24.83-24.83zm152.535 76.777v-109.098c0-7.004 5.699-12.703 12.703-12.703s12.703 5.699 12.703 12.703v109.098c0 7.004-5.699 12.703-12.703 12.703s-12.703-5.699-12.703-12.703zm176.93 0c0 7.004-5.699 12.703-12.703 12.703s-12.703-5.699-12.703-12.703v-109.098c0-7.004 5.699-12.703 12.703-12.703s12.703 5.699 12.703 12.703zm-40.406-133.704c-3.808-1.974-8.126-3.097-12.704-3.097h-70.711c-4.578 0-8.895 1.123-12.704 3.097v-81.461c0-26.5 21.559-48.059 48.059-48.059s48.059 21.559 48.059 48.059v81.461zm-289.059 121.577c0-6.633 2.582-12.863 7.273-17.547 4.69-4.69 10.925-7.273 17.557-7.273h112.705v36.947c0 4.577 1.123 8.895 3.097 12.703h-115.802c-13.691 0-24.83-11.139-24.83-24.83zm205.645 24.83c-7.005 0-12.704-5.699-12.704-12.703v-109.098c0-7.004 5.699-12.703 12.704-12.703h70.711c7.005 0 12.704 5.699 12.704 12.703v109.098c0 7.004-5.699 12.703-12.704 12.703zm276.355-24.83c0 6.631-2.583 12.867-7.274 17.557-4.689 4.69-10.925 7.273-17.556 7.273h-115.801c1.974-3.808 3.097-8.126 3.097-12.703v-36.947h112.704c13.691 0 24.83 11.134 24.83 24.82zm0-64.65c0 6.631-2.583 12.866-7.274 17.557-4.689 4.69-10.925 7.273-17.556 7.273h-112.705v-49.65h112.705c13.691 0 24.83 11.134 24.83 24.82zm-137.53-39.82v-98.57c0-57.048-46.417-103.46-103.47-103.46s-103.47 46.412-103.47 103.46v11.8c0 4.142 3.358 7.5 7.5 7.5s7.5-3.358 7.5-7.5v-11.8c0-48.777 39.688-88.46 88.47-88.46s88.47 39.683 88.47 88.46v81.466c-3.809-1.976-8.129-3.099-12.708-3.099-4.577 0-8.895 1.123-12.703 3.097v-81.461c0-34.771-28.288-63.059-63.059-63.059s-63.059 28.288-63.059 63.059v81.461c-3.808-1.974-8.126-3.097-12.703-3.097-4.579 0-8.899 1.124-12.708 3.099v-34.666c0-4.142-3.358-7.5-7.5-7.5s-7.5 3.358-7.5 7.5v51.77h-60.758v-182.056c9.033-.736 16.163-8.309 16.163-17.529v-12.122c0-9.22-7.129-16.793-16.163-17.529v-42.651h328.455v42.652c-9.033.736-16.163 8.309-16.163 17.529v12.122c0 9.22 7.129 16.792 16.163 17.529v182.055z" fill="#63a119" data-original="#000000" style=""/></g></g></svg>
