<?xml version="1.0"?>
<svg xmlns="http://www.w3.org/2000/svg" xmlns:xlink="http://www.w3.org/1999/xlink" xmlns:svgjs="http://svgjs.com/svgjs" version="1.1" width="512" height="512" x="0" y="0" viewBox="0 0 512.003 512.003" style="enable-background:new 0 0 512 512" xml:space="preserve" class=""><g><path xmlns="http://www.w3.org/2000/svg" d="m434.76 405.732c5.523 0 10-4.478 10-10s-4.477-10-10-10h-21.412-119.72v-42.092h38.318c5.523 0 10-4.478 10-10s-4.477-10-10-10h-38.318v-43.094h38.318c5.523 0 10-4.478 10-10s-4.477-10-10-10h-38.318v-43.095h38.318c5.523 0 10-4.478 10-10s-4.477-10-10-10h-38.318v-36.063c0-3.324 2.704-6.028 6.028-6.028h97.664c3.324 0 6.028 2.704 6.028 6.028v145.088c0 5.522 4.477 10 10 10s10-4.478 10-10v-145.087c0-14.353-11.676-26.028-26.028-26.028h-17.651v-35.949c0-5.522-4.477-10-10-10h-11.181v-79.412c0-5.522-4.477-10-10-10s-10 4.478-10 10v79.412h-11.181c-5.523 0-10 4.478-10 10v35.948h-17.651c-14.352 0-26.028 11.676-26.028 26.028v224.344h-11.412c-5.523 0-10 4.478-10 10s4.477 10 10 10h50.417v78.585h-25.364c-1.392 0-2.769.291-4.042.854l-17.386 7.683c-5.051 2.231-7.337 8.137-5.105 13.188 1.652 3.737 5.313 5.961 9.152 5.961 1.35-.001 2.722-.275 4.037-.856l15.455-6.829h33.253 51.71 33.254l15.455 6.829c5.052 2.233 10.956-.053 13.189-5.104 2.232-5.052-.054-10.956-5.105-13.188l-17.386-7.683c-1.273-.563-2.65-.854-4.042-.854h-25.365v-78.585h50.417zm-97.453-296.32h22.361v25.948h-22.361zm27.036 374.905h-31.71v-78.585h31.71z" fill="#1a31e5" data-original="#000000" style=""/><path xmlns="http://www.w3.org/2000/svg" d="m202.208 294.181c-1.374-1.944-2.101-4.23-2.101-6.611v-25.255h.152c9.46 0 17.157-7.696 17.157-17.156v-32.999c0-9.46-7.696-17.156-17.157-17.156h-105.328c-9.46 0-17.156 7.696-17.156 17.156v32.999c0 9.247 7.359 16.789 16.525 17.124v25.444c0 2.325-.696 4.568-2.013 6.485l-19.516 28.407c-3.617 5.264-5.529 11.422-5.529 17.81v143.774c0 15.327 12.47 27.797 27.797 27.797h.002 105.109.001c12.819 0 23.633-8.725 26.83-20.546.626-2.313.966-4.743.966-7.251v-143.616c0-6.539-1.995-12.817-5.769-18.155zm-104.433-79.178h99.641v27.312h-99.641zm-8.519 118.941 19.516-28.408c3.617-5.265 5.528-11.423 5.528-17.81v-25.412h65.807v25.255c0 6.538 1.995 12.815 5.769 18.155l19.971 28.252c1.374 1.943 2.1 4.229 2.1 6.61v3.469h-120.704v-3.627c0-2.324.696-4.567 2.013-6.484zm5.786 158.056c-4.298 0-7.795-3.497-7.795-7.795v-120.149h120.699v120.149c0 .806-.123 1.583-.351 2.314-.989 3.172-3.953 5.48-7.445 5.48h-105.108z" fill="#1a31e5" data-original="#000000" style=""/><path xmlns="http://www.w3.org/2000/svg" d="m422.582 346.66c-1.616-3.945-5.724-6.461-9.972-6.145-4.171.311-7.774 3.275-8.894 7.301-2.411 8.665 7.463 15.875 15.003 11.095 4.039-2.561 5.702-7.838 3.863-12.251z" fill="#1a31e5" data-original="#000000" style=""/></g></svg>
