<?xml version="1.0"?>
<svg xmlns="http://www.w3.org/2000/svg" xmlns:xlink="http://www.w3.org/1999/xlink" xmlns:svgjs="http://svgjs.com/svgjs" version="1.1" width="512" height="512" x="0" y="0" viewBox="0 0 144.083 144" style="enable-background:new 0 0 512 512" xml:space="preserve"><g>
<path xmlns="http://www.w3.org/2000/svg" d="M107.62,53.348c5.725-3.532,9.561-9.843,9.561-17.05c0-11.033-9.008-20.01-20.08-20.01H46.789v6H97.1  c7.764,0,14.08,6.285,14.08,14.01c0,7.742-6.299,14.041-14.041,14.041l-45.038,0.004l0.001,6L97.1,56.339v0.011  c7.764,0,14.08,6.285,14.08,14.01c0,7.742-6.299,14.041-14.041,14.041l-45.037,0.002v6l25.456-0.001v0.033  c10.415,0,15.478,4.272,15.478,13.062v24.216h6v-24.216c0-5.483-1.619-9.895-4.641-13.096h2.744c11.051,0,20.041-8.99,20.041-20.041  C117.18,63.172,113.344,56.877,107.62,53.348z" fill="#d18e0d" data-original="#000000" style=""/>
<path xmlns="http://www.w3.org/2000/svg" d="M67.729,101.325c-5.115,0-20.798,0.071-20.785,0.071c-7.742,0-14.041-6.3-14.041-14.043s6.299-14.043,14.041-14.043h51.443  v-6H46.948v-0.183c-7.743,0-14.042-6.3-14.042-14.043c0-7.742,6.299-14.04,14.039-14.04l50.037,0.068l0.008-6l-50.041-0.068  c-11.051,0-20.042,8.99-20.042,20.04c0,7.264,3.896,13.617,9.696,17.133c-5.801,3.516-9.699,9.871-9.699,17.136  c0,11.052,8.99,20.043,20.055,20.043c0,0,15.663-0.071,20.771-0.071c3.162,0,5.103,0.409,5.936,1.251  c1.541,1.555,1.49,6.591,1.422,13.561c-0.018,1.707-0.035,3.562-0.035,5.575h6c0-1.992,0.018-3.827,0.035-5.516  c0.092-9.355,0.143-14.509-3.158-17.842C75.286,101.685,71.289,101.325,67.729,101.325z" fill="#d18e0d" data-original="#000000" style=""/>
</g></svg>
