<?xml version="1.0"?>
<svg xmlns="http://www.w3.org/2000/svg" xmlns:xlink="http://www.w3.org/1999/xlink" xmlns:svgjs="http://svgjs.com/svgjs" version="1.1" width="512" height="512" x="0" y="0" viewBox="0 0 512.018 512.018" style="enable-background:new 0 0 512 512" xml:space="preserve" class=""><g><g xmlns="http://www.w3.org/2000/svg"><g><g id="Page-1_26_"><g id="_x30_27---Keys" transform="translate(-1 -1)"><path id="Path_24_" clip-rule="evenodd" d="m287.47 314.968-109.807 147.251c-2.828 3.77-2.064 9.119 1.707 11.947 3.77 2.828 9.119 2.064 11.947-1.707l109.833-147.294c1.829-2.439 2.218-5.668 1.021-8.472-1.198-2.804-3.8-4.755-6.827-5.12s-6.018.913-7.847 3.352z" fill-rule="evenodd" fill="#b91469" data-original="#000000" style="" class=""/><path id="Shape_64_" d="m19.625 355.467 45.551 15.215c1.529.557 3.143.845 4.77.853 2.644-.011 5.237-.73 7.509-2.082l155.819-93.354c1.974 5.613 4.361 11.073 7.142 16.333l-27.306 36.607c-2.285 3.1-3.262 6.973-2.722 10.786l2.253 15.804-16.939 5.018c-6.301 1.83-10.605 7.639-10.522 14.199.165 3.57.607 7.122 1.323 10.624l.666 4.267-17.067 5.043c-6.926 2.104-11.281 8.945-10.257 16.111l1.852 13.065-16.401 4.881c-13.345 3.907-21.352 17.516-18.287 31.078l9.387 41.609c1.412 6.655 7.26 11.435 14.063 11.494.384 0 .777 0 1.169-.051l47.872-3.277c4.352-.187 8.384-2.337 10.965-5.845l112.077-150.272c42.36 8.55 86.032-6.482 114.155-39.292 28.124-32.811 36.299-78.268 21.371-118.822 36.159-24.736 53.487-69.086 43.676-111.783s-44.762-75.034-88.091-81.504-86.202 14.246-108.059 52.214c-33.887-.415-66.345 13.629-89.242 38.613s-34.064 58.541-30.703 92.263l-39.356 23.535c-3.213 2.019-5.521 5.202-6.443 8.883l-3.9 15.445-17.562-1.809c-6.543-.733-12.768 2.998-15.206 9.114-1.209 3.429-2.151 6.947-2.816 10.522l-.973 4.087-17.553-1.775c-7.277-.858-14.064 3.811-15.863 10.914l-3.217 12.8-16.998-1.707c-5.648-.634-11.347.614-16.213 3.55-6.708 3.92-11.325 10.622-12.595 18.287l-7.125 41.975c-1.395 7.161 2.828 14.223 9.796 16.384zm414.515-66.833c-22.945 39.156-69.052 58.377-113.015 47.113-3.347-.852-6.877.398-8.943 3.166l-114.696 153.821-44.877 3.072-8.977-39.578c-.596-2.673-.008-5.473 1.613-7.68 1.216-1.603 2.915-2.773 4.847-3.337l18.449-5.487c6.984-2.027 11.388-8.912 10.3-16.102l-1.852-13.065 17.067-5.043c6.995-2.032 11.399-8.937 10.291-16.137l-1.015-6.588c-.393-2.492-.768-4.787-.973-6.332l17.22-5.094c6.956-2.051 11.329-8.924 10.24-16.094l-2.406-16.896 29.978-40.201c2.061-2.761 2.26-6.491.503-9.455-26.073-43.87-15.865-100.241 23.937-132.181s97.046-29.698 134.228 5.256c8.216 7.675 15.089 16.671 20.335 26.615-9.822 4.7-20.428 7.547-31.283 8.397-2.654-15.951-16.168-27.831-32.328-28.417s-30.499 10.283-34.302 26 3.983 31.939 18.624 38.804 32.091 2.477 41.742-10.497c1.933-2.664 3.46-5.6 4.531-8.713 13.754-.675 27.245-4.029 39.714-9.873 9.426 28.141 6.159 58.987-8.952 84.526zm-73.386-99.558c2.367-1.95 5.219-3.222 8.252-3.678.828-.119 1.664-.179 2.5-.179 7.207.021 13.624 4.566 16.034 11.358-9.267-1.065-18.306-3.597-26.778-7.501zm23.56 24.337c-4.294 5.02-11.111 7.09-17.472 5.306s-11.107-7.097-12.165-13.618c9.421 4.209 19.409 7.009 29.645 8.311zm13.611-195.328c38.697-.056 73.044 24.774 85.123 61.538s-.848 77.126-32.037 100.032c-6.062-11.322-13.94-21.573-23.322-30.345-2.56-2.364-5.188-4.506-7.868-6.622-1.659-6.357-3.851-12.563-6.554-18.551-14.008-31.039-40.704-54.542-73.267-64.503-5.037-1.515-10.168-2.698-15.36-3.541 16.738-23.899 44.109-38.095 73.285-38.008zm-364.066 281.864c.442-2.723 2.083-5.104 4.471-6.485 1.702-1.039 3.702-1.48 5.683-1.254l19.191 1.963c7.216.825 13.907-3.879 15.573-10.948l3.226-12.8 17.741 1.826c7.246.681 13.903-4.033 15.667-11.093l1.502-6.306c.597-2.5 1.126-4.83 1.527-6.374l17.869 1.835c7.208.786 13.883-3.889 15.607-10.931l4.215-16.64 42.999-25.702c2.953-1.764 4.557-5.129 4.07-8.533-7.303-49.73 22.599-97.4 70.55-112.472s99.748 6.919 122.209 51.885c-18.949-8.781-39.889-12.37-60.681-10.402-33.622 3.014-64.399 20.111-84.723 47.065-20.323 26.953-28.295 61.247-21.944 94.401l-158.921 95.212-42.624-14.234z" fill="#b91469" data-original="#000000" style="" class=""/><path id="Path_23_" clip-rule="evenodd" d="m208.238 251.292c3.978-2.449 5.249-7.641 2.85-11.649-2.399-4.009-7.575-5.343-11.613-2.994l-136.475 81.809c-2.657 1.546-4.277 4.401-4.242 7.475s1.722 5.891 4.414 7.375 5.974 1.405 8.592-.206z" fill-rule="evenodd" fill="#b91469" data-original="#000000" style="" class=""/></g></g></g></g></g></svg>
