<?xml version="1.0"?>
<svg xmlns="http://www.w3.org/2000/svg" xmlns:xlink="http://www.w3.org/1999/xlink" xmlns:svgjs="http://svgjs.com/svgjs" version="1.1" width="512" height="512" x="0" y="0" viewBox="0 0 512 512" style="enable-background:new 0 0 512 512" xml:space="preserve"><g><path xmlns="http://www.w3.org/2000/svg" d="m197.923 235.273c-.046-1.84-.137-3.676-.315-5.505-1.17-12.017-5.181-22.463-11.477-30.434 18.346-4.92 31.693-15.759 37.672-31.067 8.698-22.276.645-50.11-21.02-72.642-24.774-25.766-59.942-32.631-96.498-18.847-49.815 18.791-101.93 79.38-106.06 172.381-2.884 64.852 21.803 133.526 83.453 140.759 4.049.477 7.978.703 11.785.703 34.782-.002 59.337-18.821 71.27-37.858 11.439-18.251 13.551-38.934 6.044-55.58 3.879-3.65 7.359-7.812 10.435-12.319 9.535 12.373 21.382 46.03 19.793 137.234-.192 11.063 8.098 19.696 19.286 20.08.241.008.483.012.724.012 9.442 0 19.084-6.319 19.719-18.726 3.004-58.523-2.578-172.493-44.811-188.191zm-62.403-36.869c6.317 4.021 13.707 6.064 21.427 6.064 3.533 0 7.135-.462 10.734-1.324 10.782 7.266 13.69 20.483 14.434 28.132 1.851 19.028-5.1 38.996-17.648 52.219-15.583-14.568-39.569-17.118-58.039-5.103-3.604 2.343-4.623 7.164-2.28 10.766 2.347 3.604 7.164 4.627 10.766 2.28 12.971-8.437 34.883.206 41.483 8.089 9.409 11.237 6.79 29.587-2.852 44.97-10.715 17.089-34.198 33.929-68.054 29.965-59.097-6.937-71.631-81.591-69.719-124.612 3.818-85.919 50.969-141.521 96.007-158.508 10.448-3.942 20.733-5.884 30.557-5.884 18.807 0 35.922 7.119 49.227 20.956 17.408 18.103 20.17 38.584 17.74 56.19-2.923 21.182-51.4 31.764-65.426 22.67-6.966-4.516-11.484-11.752-12.292-20.01-.42-4.279-4.247-7.382-8.504-6.988-4.279.42-7.406 4.227-6.988 8.504 1.281 13.054 8.362 24.582 19.427 31.624zm91.673 224.264c-.174 3.386-2.476 4.008-4.366 3.954-1.302-.046-4.322-.548-4.257-4.253 1.45-83.279-7.573-132.99-27.497-151.87 2.509-5.891 4.369-12.1 5.522-18.44 21.282 15.601 34.794 88.784 30.598 170.609zm284.582-173.509c-4.13-93.001-56.245-153.59-106.06-172.381-36.555-13.784-71.723-6.919-96.497 18.847-21.665 22.532-29.718 50.365-21.02 72.642 5.979 15.308 19.326 26.147 37.672 31.067-6.295 7.972-10.307 18.417-11.477 30.434-.178 1.829-.269 3.665-.315 5.505-42.233 15.698-47.815 129.669-44.814 188.191.635 12.407 10.277 18.726 19.719 18.726.241 0 .483-.004.724-.012 11.188-.384 19.478-9.017 19.286-20.08-1.589-91.204 10.258-124.861 19.793-137.234 3.076 4.506 6.555 8.668 10.435 12.319-7.507 16.646-5.395 37.329 6.044 55.58 11.934 19.037 36.488 37.856 71.27 37.858 3.808 0 7.736-.226 11.785-.703 61.652-7.233 86.339-75.907 83.455-140.759zm-218.345 173.21c.065 3.705-2.955 4.207-4.257 4.253-1.89.053-4.192-.568-4.366-3.954-4.197-81.825 9.316-155.008 30.598-170.609 1.153 6.34 3.013 12.549 5.522 18.44-19.924 18.881-28.947 68.591-27.497 151.87zm133.079-47.907c-33.856 3.964-57.34-12.876-68.054-29.965-9.642-15.383-12.261-33.733-2.852-44.97 6.6-7.883 28.512-16.525 41.483-8.089 3.602 2.347 8.419 1.324 10.766-2.28 2.343-3.602 1.324-8.423-2.28-10.766-18.47-12.015-42.456-9.465-58.039 5.103-12.548-13.223-19.499-33.191-17.648-52.219.744-7.649 3.652-20.866 14.434-28.132 3.599.862 7.201 1.324 10.734 1.324 7.72 0 15.11-2.042 21.427-6.064 11.065-7.042 18.146-18.57 19.427-31.624.418-4.277-2.709-8.085-6.988-8.504-4.257-.394-8.085 2.709-8.504 6.988-.807 8.259-5.326 15.494-12.292 20.01-14.026 9.094-62.503-1.488-65.426-22.67-2.43-17.606.332-38.087 17.74-56.19 13.305-13.838 30.42-20.956 49.227-20.956 9.824 0 20.109 1.941 30.557 5.884 45.038 16.986 92.189 72.588 96.007 158.508 1.911 43.021-10.622 117.675-69.719 124.612z" fill="#e112ad" data-original="#000000" style=""/></g></svg>
