<svg height="512" viewBox="0 0 64 64" width="512" xmlns="http://www.w3.org/2000/svg"><g id="Layer_70" data-name="Layer 70"><path d="m57 58h-50v-27h50zm-48-2h46v-23h-46z"/><path d="m53 16h-18v-3.62l4-2v-4.38h10v4.38l4 2zm-16-2h14v-.38l-4-2v-3.62h-6v3.62l-4 2z"/><path d="m53 53h-18v-13h18zm-16-2h14v-9h-14z"/><circle cx="44.5" cy="36.5" r="1.5"/><circle cx="49.5" cy="36.5" r="1.5"/><path d="m41 33h-2v-5h4v2h-2z"/><path d="m49 33h-2v-3h-2v-2h4z"/><path d="m32 54h-21v-18h21zm-19-2h17v-14h-17z"/><path d="m11 44h21v2h-21z"/><path d="m19 40h4v2h-4z"/><path d="m19 48h4v2h-4z"/><path d="m42 43h4v2h-4z"/><path d="m23 9h7v2h-7z"/><path d="m12 9h13v2h-13z"/><path d="m9 9h5v2h-5z"/><path d="m12 7h2v15h-2z"/><path d="m23 7h2v10h-2z"/><path d="m13 26a3 3 0 1 1 3-3 3 3 0 0 1 -3 3zm0-4a1 1 0 1 0 1 1 1 1 0 0 0 -1-1z"/><path d="m24 27a6 6 0 1 1 6-6 6 6 0 0 1 -6 6zm0-10a4 4 0 1 0 4 4 4 4 0 0 0 -4-4z"/><path d="m6 31h52v2h-52z"/></g></svg>