<?xml version="1.0"?>
<svg xmlns="http://www.w3.org/2000/svg" xmlns:xlink="http://www.w3.org/1999/xlink" xmlns:svgjs="http://svgjs.com/svgjs" version="1.1" width="512" height="512" x="0" y="0" viewBox="0 0 512 512" style="enable-background:new 0 0 512 512" xml:space="preserve"><g><g xmlns="http://www.w3.org/2000/svg"><g><path d="m489.5 391.5h-22.5v-40.038c0-4.143-3.357-7.5-7.5-7.5s-7.5 3.357-7.5 7.5v40.038h-117.5v-64.5c0-4.143-3.357-7.5-7.5-7.5h-142c-4.143 0-7.5 3.357-7.5 7.5v64.5h-117.5v-103h392v30.962c0 4.143 3.357 7.5 7.5 7.5s7.5-3.357 7.5-7.5v-70.462c0-4.143-3.357-7.5-7.5-7.5h-45v-50.5c0-4.143-3.357-7.5-7.5-7.5h-38.5v-100.5c0-4.143-3.357-7.5-7.5-7.5h-136.615c-4.143 0-7.5 3.357-7.5 7.5s3.357 7.5 7.5 7.5h129.115v93h-195v-93h33.68c4.143 0 7.5-3.357 7.5-7.5s-3.357-7.5-7.5-7.5h-41.18c-4.143 0-7.5 3.357-7.5 7.5v100.5h-38.5c-4.143 0-7.5 3.357-7.5 7.5v50.5h-45c-4.143 0-7.5 3.357-7.5 7.5v142.5h-22.5c-12.406 0-22.5 10.094-22.5 22.5s10.094 22.5 22.5 22.5h73.577c4.143 0 7.5-3.357 7.5-7.5s-3.357-7.5-7.5-7.5h-73.577c-4.136 0-7.5-3.364-7.5-7.5s3.364-7.5 7.5-7.5h467c4.136 0 7.5 3.364 7.5 7.5s-3.364 7.5-7.5 7.5h-361.423c-4.143 0-7.5 3.357-7.5 7.5s3.357 7.5 7.5 7.5h361.423c12.406 0 22.5-10.094 22.5-22.5s-10.094-22.5-22.5-22.5zm-377-193h287v43h-287zm-52.5 58h392v17h-392zm132.5 135v-57h127v57z" fill="#db1111" data-original="#000000" style=""/><path d="m173.5 112.5v50c0 4.143 3.357 7.5 7.5 7.5h30c4.143 0 7.5-3.357 7.5-7.5v-50c0-4.143-3.357-7.5-7.5-7.5h-30c-4.143 0-7.5 3.357-7.5 7.5zm15 7.5h15v35h-15z" fill="#db1111" data-original="#000000" style=""/><path d="m271 170c4.143 0 7.5-3.357 7.5-7.5v-50c0-4.143-3.357-7.5-7.5-7.5h-30c-4.143 0-7.5 3.357-7.5 7.5v50c0 4.143 3.357 7.5 7.5 7.5zm-22.5-50h15v35h-15z" fill="#db1111" data-original="#000000" style=""/><path d="m331 170c4.143 0 7.5-3.357 7.5-7.5v-50c0-4.143-3.357-7.5-7.5-7.5h-30c-4.143 0-7.5 3.357-7.5 7.5v50c0 4.143 3.357 7.5 7.5 7.5zm-22.5-50h15v35h-15z" fill="#db1111" data-original="#000000" style=""/></g></g></g></svg>
