<?xml version="1.0"?>
<svg xmlns="http://www.w3.org/2000/svg" xmlns:xlink="http://www.w3.org/1999/xlink" xmlns:svgjs="http://svgjs.com/svgjs" version="1.1" width="512" height="512" x="0" y="0" viewBox="0 0 48 48" style="enable-background:new 0 0 512 512" xml:space="preserve" class=""><g><g xmlns="http://www.w3.org/2000/svg" id="Plate_Number" data-name="Plate Number"><path d="m45 9h-42a3 3 0 0 0 -3 3v20a3 3 0 0 0 3 3h42a3 3 0 0 0 3-3v-20a3 3 0 0 0 -3-3zm1 23a1 1 0 0 1 -1 1h-42a1 1 0 0 1 -1-1v-20a1 1 0 0 1 1-1h42a1 1 0 0 1 1 1z" fill="#0d41dd" data-original="#000000" style="" class=""/><path d="m10 14h-2a3 3 0 0 0 -3 3v4a3 3 0 0 0 3 3h2a3 3 0 0 0 3-3v-4a3 3 0 0 0 -3-3zm-2 2h2l-3 4v-3a1 1 0 0 1 1-1zm2 6h-2l3-4v3a1 1 0 0 1 -1 1z" fill="#0d41dd" data-original="#000000" style="" class=""/><path d="m30 14h-2a3 3 0 0 0 -3 3v4a3 3 0 0 0 3 3h2a3 3 0 0 0 3-3v-4a3 3 0 0 0 -3-3zm-2 2h2l-3 4v-3a1 1 0 0 1 1-1zm2 6h-2l3-4v3a1 1 0 0 1 -1 1z" fill="#0d41dd" data-original="#000000" style="" class=""/><path d="m18 20h3v3a1 1 0 0 0 2 0v-8a1 1 0 0 0 -2 0v3h-3a1 1 0 0 1 -1-1v-2a1 1 0 0 0 -2 0v2a3 3 0 0 0 3 3z" fill="#0d41dd" data-original="#000000" style="" class=""/><path d="m42 16a1 1 0 0 0 0-2h-5a2 2 0 0 0 -2 2v2a2 2 0 0 0 2 2h4v2h-5a1 1 0 0 0 0 2h5a2 2 0 0 0 2-2v-2a2 2 0 0 0 -2-2h-4v-2z" fill="#0d41dd" data-original="#000000" style="" class=""/><path d="m26 28h-4a1 1 0 0 0 0 2h4a1 1 0 0 0 0-2z" fill="#0d41dd" data-original="#000000" style="" class=""/><path d="m17.29 27.29-.29.3-.29-.3a1 1 0 0 0 -1.42 1.42l.3.29-.3.29a1 1 0 0 0 1.42 1.42l.29-.3.29.3a1 1 0 0 0 1.42-1.42l-.3-.29.3-.29a1 1 0 0 0 -1.42-1.42z" fill="#0d41dd" data-original="#000000" style="" class=""/><path d="m31.29 27.29-.29.3-.29-.3a1 1 0 0 0 -1.42 1.42l.3.29-.3.29a1 1 0 0 0 1.42 1.42l.29-.3.29.3a1 1 0 0 0 1.42-1.42l-.3-.29.3-.29a1 1 0 0 0 -1.42-1.42z" fill="#0d41dd" data-original="#000000" style="" class=""/></g></g></svg>
