<?xml version="1.0"?>
<svg xmlns="http://www.w3.org/2000/svg" xmlns:xlink="http://www.w3.org/1999/xlink" xmlns:svgjs="http://svgjs.com/svgjs" version="1.1" width="512" height="512" x="0" y="0" viewBox="0 0 512 512" style="enable-background:new 0 0 512 512" xml:space="preserve" class=""><g><g xmlns="http://www.w3.org/2000/svg"><path d="m211 212h-120c-20.678 0-37.5 16.822-37.5 37.5v255c0 4.143 3.358 7.5 7.5 7.5h180c4.142 0 7.5-3.357 7.5-7.5v-255c0-20.678-16.822-37.5-37.5-37.5zm22.5 285h-165v-247.5c0-12.406 10.093-22.5 22.5-22.5h120c12.407 0 22.5 10.094 22.5 22.5z" fill="#df1616" data-original="#000000" style=""/><path d="m451 360h-7.5v-232.5c0-4.143-3.358-7.5-7.5-7.5h-7.5v-82.5c0-20.678-16.822-37.5-37.5-37.5h-60c-20.678 0-37.5 16.822-37.5 37.5v82.5h-7.5c-4.142 0-7.5 3.357-7.5 7.5v180c0 4.143 3.358 7.5 7.5 7.5s7.5-3.357 7.5-7.5v-172.5h135v195h-142.5c-4.142 0-7.5 3.357-7.5 7.5v22.5h-7.5c-4.142 0-7.5 3.357-7.5 7.5v137c0 4.143 3.358 7.5 7.5 7.5h180c4.142 0 7.5-3.357 7.5-7.5v-137c0-4.143-3.358-7.5-7.5-7.5zm-142.5-322.5c0-12.406 10.093-22.5 22.5-22.5h60c12.407 0 22.5 10.094 22.5 22.5v82.5h-105zm-15 307.5h135v15h-135zm150 152h-165v-122h165z" fill="#df1616" data-original="#000000" style=""/></g></g></svg>
