<?xml version="1.0"?>
<svg xmlns="http://www.w3.org/2000/svg" xmlns:xlink="http://www.w3.org/1999/xlink" xmlns:svgjs="http://svgjs.com/svgjs" version="1.1" width="512" height="512" x="0" y="0" viewBox="0 0 128 128" style="enable-background:new 0 0 512 512" xml:space="preserve"><g><path xmlns="http://www.w3.org/2000/svg" d="m124 112c0-8.9 3.4-12.57 3.41-12.59a2 2 0 0 0 .44-2.18 2 2 0 0 0 -1.85-1.23h-61.41a22.94 22.94 0 0 0 2.58-3.74c1.09-2 2.13-4.88.84-6.82l-.92-1.44c-.86-1.3-.91-1.73-.9-1.83l2.37-3a2 2 0 0 0 -1.56-3.17h-11.54c1.31-3 3.77-8.5 7-15.1 2.89 3.1 3.54 8.58 3.54 8.64a2 2 0 0 0 1.52 1.73 2.42 2.42 0 0 0 .47 0 2 2 0 0 0 1.66-.89l8.45-12.67a2 2 0 0 0 -.25-2.52l-1.48-1.48 2.51-.41a2 2 0 0 0 1.48-1.14 98.11 98.11 0 0 1 17.57-24.71c5.52-5.52 13.86-13.87 7.6-22.63-1.98-2.82-5.78-4.53-10.42-4.82-7.27-.37-14.8 2.92-20.11 8.86-3.54 3.94-9.35 11.41-9.6 11.73a2 2 0 0 0 -.21 2.12l.81 1.63-.4-.16a2 2 0 0 0 -2.43.8c-.22.34-5.32 8.49-7.49 12.83-5.42 10.86-5.49 18.52-5.49 18.84a2 2 0 0 0 3.59 1.23c.39-.35 2-.74 5.33.77-4.11 8.28-6.96 14.87-8.01 17.35h-12.1a2 2 0 0 0 -1.56 3.25l2.36 2.94c0 .12 0 .55-.89 1.85l-.91 1.4c-1.29 1.94-.25 4.78.84 6.82a22.94 22.94 0 0 0 2.57 3.74h-25.41a16 16 0 0 0 0 32h110a2 2 0 0 0 1.43-3.4s-3.43-3.7-3.43-12.6zm-68.95-58.43h-.54a49.58 49.58 0 0 1 4.73-14c1.56-3.12 4.84-8.52 6.42-11.08l3.72 1.51a2 2 0 0 0 2.53-2.76l-2.6-5.2c1.72-2.2 5.93-7.51 8.63-10.51 4.54-5 10.88-7.85 17-7.51 3.32.18 6.15 1.38 7.39 3.11 4 5.56-.9 11.21-7.18 17.48a101 101 0 0 0 -17.88 25l-5.32.89a2 2 0 0 0 -1.08 3.38l3.06 3.07-5 7.48a16.33 16.33 0 0 0 -4.54-7.22c7-13.81 17-31.06 27.24-41.33a2 2 0 1 0 -2.86-2.88c-10.68 10.68-20.77 28.1-27.88 42.08a14.3 14.3 0 0 0 -5.84-1.51zm-13.67 34 .87-1.3c.7-1.06 2.53-3.82.89-6.25h19.72c-1.64 2.43.19 5.19.89 6.25l.87 1.3c.07.69-.77 3-2.81 5.56-1.81 2.16-3.16 2.87-3.56 2.87h-10.5c-.4 0-1.79-.71-3.56-2.89-2.04-2.53-2.88-4.87-2.81-5.56zm81 36.45h-106.38a12 12 0 0 1 0-24h106.38a27.89 27.89 0 0 0 -2.38 11.98 27.89 27.89 0 0 0 2.38 12z" fill="#0a6378" data-original="#000000" style=""/><path xmlns="http://www.w3.org/2000/svg" d="m46 104h-28a2 2 0 0 0 0 4h2v10a2 2 0 0 0 2.89 1.79l7.11-3.55 7.11 3.55a2 2 0 0 0 1.94-.09 2 2 0 0 0 1-1.7v-10h6a2 2 0 0 0 0-4zm-10 10.76-5.11-2.55a2 2 0 0 0 -1.78 0l-5.11 2.55v-6.76h12z" fill="#0a6378" data-original="#000000" style=""/></g></svg>
