<?xml version="1.0"?>
<svg xmlns="http://www.w3.org/2000/svg" xmlns:xlink="http://www.w3.org/1999/xlink" xmlns:svgjs="http://svgjs.com/svgjs" version="1.1" width="512" height="512" x="0" y="0" viewBox="0 0 512.166 512.166" style="enable-background:new 0 0 512 512" xml:space="preserve" class=""><g><g xmlns="http://www.w3.org/2000/svg"><path d="m245.466 123.573c-20.671-46.62-75.417-67.729-122.033-47.06-14.972 6.639-27.937 17.157-37.493 30.417-2.422 3.36-1.66 8.048 1.7 10.469 3.359 2.422 8.048 1.661 10.47-1.7 8.002-11.104 18.86-19.913 31.402-25.474 39.053-17.318 84.922.368 102.24 39.427 17.317 39.058-.369 84.923-39.427 102.24-18.921 8.39-39.977 8.908-59.286 1.462-19.311-7.447-34.565-21.968-42.954-40.888-6.004-13.541-7.995-28.425-5.758-43.045.626-4.094-2.186-7.921-6.279-8.548-4.091-.625-7.921 2.184-8.549 6.279-2.671 17.458-.294 35.229 6.873 51.394 10.014 22.583 28.222 39.915 51.271 48.803 10.804 4.167 22.064 6.244 33.307 6.244 12.741 0 25.459-2.668 37.456-7.988 46.618-20.67 67.729-75.413 47.06-122.032z" fill="#0e8910" data-original="#000000" style=""/><path d="m136.372 135.645 9.069-3.602 27.029 68.067c1.438 3.622 6.153 5.627 9.738 4.203 3.851-1.529 5.731-5.889 4.203-9.739l-29.798-75.037c-1.528-3.85-5.889-5.731-9.738-4.203l-16.039 6.369c-3.851 1.529-5.731 5.889-4.203 9.739s5.888 5.731 9.739 4.203z" fill="#0e8910" data-original="#000000" style=""/><path d="m510.234 328.022c-5.099-67.695-63.623-122.068-127.931-134.857-20.958-4.168-42.745-4.134-63.677.179 6.674-32.622 2.947-67.089-10.552-97.532-17.428-39.307-49.12-69.474-89.237-84.945-40.119-15.47-83.86-14.392-123.166 3.036-80.07 35.502-117.428 132.295-81.909 212.403 15.757 35.536 44.415 64.648 79.719 80.92 30.979 14.279 66.302 18.423 99.716 11.566-14.518 71.01 20.544 144.775 86.555 176.138 48.656 23.118 95.762 22.066 138.543 2.303 3.76-1.737 5.4-6.193 3.663-9.954s-6.191-5.4-9.954-3.664c-8.35 3.857-16.95 6.892-25.714 9.094 5.817-14.087 15.673-26.173 28.527-34.762 14.317-9.566 30.923-14 47.77-12.917-5.68 6.758-11.986 13.015-18.857 18.67-3.198 2.632-3.657 7.358-1.025 10.557 2.632 3.2 7.359 3.658 10.557 1.025 42.955-35.347 64.987-92.165 56.972-147.26zm-65.585-88.838c24.033 20.209 41.113 47.818 48.365 78.526-14.449-5.764-26.835-15.744-35.602-28.864-9.803-14.672-14.239-32.26-12.763-49.662zm-126.777-30.318c-5.627 15.206-15.858 28.227-29.563 37.385-14.956 9.996-32.899 14.405-50.613 12.677 20.387-24.969 48.659-42.69 80.176-50.062zm-41.919-.2c6.37-14.718 16.904-26.823 30.399-35.086-.692 8.089-2.06 16.138-4.112 24.055-9.098 2.903-17.894 6.603-26.287 11.031zm-62.513-183.803c16.616 6.407 31.638 15.596 44.562 27.084-15.161 3.635-31.071 2.618-45.827-3.072-16.497-6.363-30.276-18.224-39.088-33.348 13.65 1.161 27.216 4.269 40.353 9.336zm-188.718 83.675c6.446-16.715 15.705-31.816 27.289-44.792 4.186 15.701 3.328 32.274-2.615 47.684-6.486 16.819-18.652 30.779-34.173 39.563 1.011-14.358 4.173-28.644 9.499-42.455zm75.039 185.066c-12.591-5.803-24.182-13.319-34.491-22.26 15.411-3.887 31.622-2.943 46.684 2.865 16.409 6.329 29.79 17.661 38.594 32.475-17.419-1.253-34.635-5.635-50.787-13.08zm67.865 13.304c-10.122-21.32-28.197-38.179-50.277-46.694-20.804-8.023-43.444-8.273-64.315-.809-10.481-11.502-19.141-24.704-25.559-39.179-7.452-16.807-11.607-34.507-12.448-52.335 22.128-9.963 39.593-28.322 48.365-51.063 8.121-21.06 8.288-43.937.573-64.988 11.12-9.849 23.817-18.03 37.786-24.224 17.401-7.715 35.76-11.896 54.228-12.524 10.021 21.843 28.289 39.097 50.798 47.778 20.172 7.779 42.857 8.203 63.297 1.165 9.877 11.137 18.079 23.858 24.286 37.857 7.649 17.251 11.823 35.751 12.441 54.383-21.264 10.228-37.517 27.808-46.068 49.982-1.823 4.728-3.261 9.606-4.286 14.537-27.735 20.098-48.675 48.948-59.003 81.618-9.803 2.544-19.798 4.039-29.818 4.496zm90.946 157.17c-24.311-19.927-41.719-47.342-49.348-77.939 14.828 5.698 27.528 15.801 36.491 29.216 9.762 14.608 14.177 31.559 12.857 48.723zm235.504-84.56c-3.679 18.499-10.924 36.031-21.153 51.624-23.269-3.882-46.68 1.131-66.439 14.335-18.002 12.03-31.078 29.804-37.222 50.44-33.579 4.251-68.345-3.566-96.856-21.798 3.994-23.25-1.076-47.43-14.219-67.099-12.39-18.541-30.755-31.782-52.117-37.698-4.255-33.506 3.532-68.224 21.706-96.688 23.686 4.551 48.809-.507 68.867-13.911 18.75-12.529 32.053-31.113 37.877-52.74 14.6-1.659 29.693-1.122 44.857 1.894 18.943 3.767 36.302 11.064 51.532 21.071-4.359 23.602.643 48.195 14.031 68.232 12.153 18.187 30.13 31.317 51.018 37.385 1.673 14.63 1.14 29.755-1.882 44.953z" fill="#0e8910" data-original="#000000" style=""/><path d="m368.945 260.339c-24.232-4.819-48.885.087-69.424 13.812-20.539 13.726-34.505 34.627-39.322 58.856-4.819 24.229.086 48.884 13.812 69.424 13.725 20.54 34.628 34.504 58.856 39.323 6.075 1.208 12.174 1.805 18.231 1.805 18.1 0 35.803-5.333 51.192-15.617 20.539-13.725 34.505-34.627 39.322-58.856 4.819-24.229-.086-48.884-13.812-69.424-13.723-20.54-34.626-34.505-58.855-39.323zm57.956 105.82c-4.036 20.299-15.736 37.812-32.944 49.311-17.208 11.5-37.862 15.61-58.164 11.572-20.3-4.037-37.812-15.737-49.311-32.945s-15.609-37.865-11.571-58.164c4.036-20.299 15.736-37.811 32.944-49.311 12.895-8.617 27.725-13.084 42.891-13.084 5.073 0 10.185.5 15.273 1.512 20.3 4.037 37.812 15.737 49.311 32.945 11.499 17.209 15.609 37.865 11.571 58.164z" fill="#0e8910" data-original="#000000" style=""/><path d="m380.016 309.362-29.103-7.43c-3.554-.906-7.244.89-8.722 4.249l-14.649 33.327c-2.789 6.347 3.508 11.194 9.283 10.187 8.548-1.493 18.82.732 23.355 8.85 6.99 12.506-4.708 28.027-18.646 24.771-8.363-1.957-13.954-9.85-13.003-18.361.461-4.116-2.504-7.827-6.62-8.287-4.105-.459-7.827 2.503-8.286 6.621-1.795 16.058 8.734 30.946 24.493 34.632 26.474 6.195 48.44-22.922 35.156-46.693-5.664-10.137-15.928-15.424-27.132-16.763l7.221-16.426 22.94 5.857c4.022 1.023 8.098-1.399 9.122-5.412 1.028-4.014-1.395-8.098-5.409-9.122z" fill="#0e8910" data-original="#000000" style=""/></g></g></svg>
