<?xml version="1.0"?>
<svg xmlns="http://www.w3.org/2000/svg" xmlns:xlink="http://www.w3.org/1999/xlink" xmlns:svgjs="http://svgjs.com/svgjs" version="1.1" width="512" height="512" x="0" y="0" viewBox="0 0 511.016 511.016" style="enable-background:new 0 0 512 512" xml:space="preserve"><g><g xmlns="http://www.w3.org/2000/svg"><path d="m255.008 104h-159v159h159zm-15 48h-33v-33h33zm-81 48v-33h33v33zm33 15v33h-33v-33zm-48-15h-33v-33h33zm15-48v-33h33v33zm48 15h33v33h-33zm-63-48v33h-33v-33zm-33 96h33v33h-33zm96 33v-33h33v33z" fill="#1d3dbb" data-original="#000000" style=""/><path d="m135.508 280h16v15h-16z" fill="#1d3dbb" data-original="#000000" style=""/><path d="m167.508 280h16v15h-16z" fill="#1d3dbb" data-original="#000000" style=""/><path d="m199.508 280h16v15h-16z" fill="#1d3dbb" data-original="#000000" style=""/><path d="m455.008 303.5c-6.629-142.57-211.399-134.337-206.676 8.188-.248.102-.493.209-.74.312h-152.084v15h126.963c-8.759 7.096-16.272 15.555-22.276 25h-129.187v-273h209v120.5h15v-199.5h-79.535c-11.616 42.603-68.328 42.579-79.93 0h-79.535v431h79.535c5.671-21.783 26.385-35.979 48.75-31.042-4.609 59.524 43.498 111.297 103.215 111.042 52.424.967 99.765-42.619 103.146-94.883l-14.949-1.233c-3.753 45.485-42.493 81.116-88.197 81.116-94.766-.937-122.255-129.036-36.807-168.997 1.312 5.631 3.088 11.085 5.28 16.323-67.151 33.747-43.967 134.976 31.528 135.674 39.682.027 71.965-32.585 71.487-72.273 53.588-3.85 96.012-48.675 96.012-103.227zm-329.793-288.5c19.526 42.379 81.072 42.361 100.586 0h54.207v49h-209v-49zm50.293 369c-21.668 0-41.25 12.658-50.293 32h-54.207v-49h121.292c-2.475 5.806-4.428 11.86-5.815 18.097-3.596-.722-7.265-1.097-10.977-1.097zm112 80c-59.781-.568-77.967-80.767-24.746-107.296 4.777 7.939 10.587 15.189 17.246 21.56v61.236h15v-49.325c14.282 9.342 30.999 15.252 48.976 16.55.514 31.414-25.077 57.302-56.476 57.275zm64-72c-48.799 0-88.5-39.701-88.5-88.5 4.449-117.246 172.569-117.214 177 .001 0 48.798-39.701 88.499-88.5 88.499z" fill="#1d3dbb" data-original="#000000" style=""/><path d="m351.508 232c-39.425 0-71.5 32.075-71.5 71.5 3.595 94.724 139.42 94.698 143-.001 0-39.424-32.075-71.499-71.5-71.499zm0 128c-31.154 0-56.5-25.346-56.5-56.5 2.84-74.852 110.171-74.832 113 .001 0 31.153-25.346 56.499-56.5 56.499z" fill="#1d3dbb" data-original="#000000" style=""/><path d="m351.508 264c-20.39-.155-31.114 24.907-17.19 39.5-13.925 14.598-3.194 39.657 17.191 39.5 20.383.158 31.117-24.906 17.19-39.5 13.928-14.599 3.189-39.658-17.191-39.5zm0 15c4.687 0 8.5 3.813 8.5 8.5-.399 11.25-16.602 11.247-17 0 0-4.687 3.813-8.5 8.5-8.5zm0 49c-4.687 0-8.5-3.813-8.5-8.5.399-11.25 16.602-11.247 17 0 0 4.687-3.814 8.5-8.5 8.5z" fill="#1d3dbb" data-original="#000000" style=""/></g></g></svg>
