<?xml version="1.0"?>
<svg xmlns="http://www.w3.org/2000/svg" xmlns:xlink="http://www.w3.org/1999/xlink" xmlns:svgjs="http://svgjs.com/svgjs" version="1.1" width="512" height="512" x="0" y="0" viewBox="0 0 511.986 511.986" style="enable-background:new 0 0 512 512" xml:space="preserve" class=""><g><g xmlns="http://www.w3.org/2000/svg"><path d="m503.136 74.747c-10.057-17.173-28.86-26.89-50.323-26-22.35.93-43.159 13.262-56.729 32.985-13.57-19.724-34.378-32.055-56.725-32.985-21.456-.895-40.262 8.827-50.318 25.999-9.622 16.429-11.431 40.163-5.205 63.702-27.98 11.299-51.674 32.254-68.173 60.202-11.496-19.443-26.611-35.71-44.269-47.529-19.774-13.236-42.228-20.733-64.931-21.678-38.613-1.612-72.392 15.781-90.395 46.516-10.015 17.101-15.56 39.081-16.036 63.563-.512 26.282 5.013 54.222 15.976 80.8 1.194 2.894 3.989 4.642 6.937 4.642.952 0 1.922-.183 2.857-.569 3.829-1.58 5.652-5.964 4.073-9.793-19.485-47.239-19.824-98.684-.863-131.063 15.148-25.862 43.847-40.48 76.827-39.11 19.946.831 39.729 7.455 57.211 19.156 19.142 12.812 34.997 31.565 45.851 54.229 1.247 2.604 3.878 4.26 6.765 4.26s5.518-1.657 6.764-4.26c14.653-30.591 37.986-53.464 66.196-65.119 7.093 17.424 18.231 33.455 33.19 47.708 18.691 17.81 42.81 32.213 71.684 42.81.834.306 1.709.459 2.584.459s1.749-.153 2.583-.459c6.047-2.218 11.886-4.615 17.523-7.173 1.705 38.891-11.306 81.634-36.495 118.937-34.417 50.967-91.101 92.244-164.029 119.48-32.015-11.948-60.916-26.549-86.129-43.499l25.602-8.798c7.751-2.664 12.76-9.681 12.76-17.877s-5.009-15.213-12.76-17.877l-34.172-11.743c-1.146-.394-2.029-1.277-2.423-2.423l-11.743-34.172c-2.663-7.751-9.68-12.76-17.876-12.76 0 0 0 0-.001 0-8.195 0-15.213 5.009-17.877 12.76l-10.185 29.635c-6.728-8.713-12.811-17.765-18.142-27.017-2.069-3.589-6.654-4.822-10.243-2.754s-4.822 6.654-2.755 10.243c5.748 9.976 12.317 19.724 19.58 29.093l-26.593 9.139c-7.751 2.664-12.76 9.681-12.76 17.877s5.009 15.213 12.76 17.877l34.172 11.743c1.146.394 2.029 1.276 2.423 2.423l11.741 34.173c2.664 7.751 9.682 12.76 17.878 12.76s15.213-5.009 17.876-12.76l10.274-29.898c27.84 19.282 60.084 35.717 96.009 48.896.834.306 1.708.459 2.583.459s1.75-.153 2.584-.459c40.704-14.938 76.627-33.994 106.771-56.64 27.184-20.421 49.761-43.799 67.105-69.484 28.371-42.014 42.3-90.744 38.63-134.563 9.116-4.945 17.574-10.37 25.302-16.254 3.296-2.51 3.934-7.215 1.424-10.511-2.508-3.295-7.215-3.934-10.511-1.424-14.325 10.908-31.435 20.169-50.885 27.547-29.105-11.08-77.592-36.296-95.205-85.365-7.922-22.068-7.489-45.806 1.103-60.476 7.204-12.3 20.938-19.248 36.752-18.593 16.404.683 38.307 10.546 50.583 36.182 1.247 2.604 3.878 4.261 6.765 4.261s5.518-1.657 6.765-4.261c12.275-25.636 34.182-35.499 50.589-36.182 15.803-.663 29.552 6.292 36.756 18.593 12.692 21.673 9.206 63.741-22.256 99.015-2.758 3.091-2.486 7.832.604 10.589 3.091 2.758 7.832 2.487 10.589-.605 17.027-19.089 27.944-41.196 31.573-63.929 3.167-19.842.409-39.033-7.567-52.651zm-398.779 356.706-11.743 34.172c-.817 2.378-2.854 2.634-3.69 2.635-.838 0-2.875-.257-3.692-2.635l-11.742-34.17c-1.906-5.551-6.184-9.828-11.734-11.735l-34.172-11.743c-2.378-.817-2.635-2.853-2.635-3.691s.257-2.875 2.635-3.692l34.172-11.743c5.551-1.907 9.828-6.185 11.733-11.733l11.743-34.172c.817-2.378 2.854-2.635 3.691-2.635h.001c.837 0 2.873.257 3.69 2.635l11.743 34.172c1.907 5.55 6.185 9.826 11.733 11.733l34.172 11.743c2.378.817 2.635 2.854 2.635 3.692s-.257 2.874-2.635 3.691l-34.172 11.743c-5.549 1.906-9.826 6.183-11.733 11.733z" fill="#d31212" data-original="#000000" style=""/><path d="m189.536 136.571c.834.306 1.709.459 2.584.459s1.75-.153 2.584-.459c17.876-6.561 49.609-22.428 61.294-54.982 5.605-15.614 5.02-32.256-1.526-43.433-6.223-10.624-17.771-16.637-30.976-16.091-12.036.501-23.312 6.454-31.376 16.14-8.064-9.687-19.34-15.639-31.376-16.14-13.196-.554-24.754 5.467-30.976 16.091-6.546 11.176-7.131 27.819-1.526 43.433 11.685 32.554 43.419 48.421 61.294 54.982zm-46.824-90.834c3.22-5.497 9.306-8.706 16.413-8.706.329 0 .662.007.995.021 10.551.439 19.985 7.246 25.235 18.209 1.247 2.604 3.878 4.26 6.765 4.26s5.518-1.657 6.765-4.26c5.25-10.963 14.685-17.77 25.235-18.209 7.515-.315 14.038 2.933 17.408 8.685 3.261 5.568 5.31 16.971.352 30.784-9.106 25.372-34.043 38.82-49.76 44.987-15.717-6.167-40.653-19.615-49.76-44.987-4.957-13.813-2.908-25.216.352-30.784z" fill="#d31212" data-original="#000000" style=""/></g></g></svg>
