<?xml version="1.0" encoding="UTF-8"?>
<svg width="32px" height="32px" viewBox="0 0 32 32" version="1.1" xmlns="http://www.w3.org/2000/svg" xmlns:xlink="http://www.w3.org/1999/xlink">
    <!-- Generator: Sketch 44.1 (41455) - http://www.bohemiancoding.com/sketch -->
    <title>Metarubrick / Goods / malls</title>
    <desc>Created with Sketch.</desc>
    <defs></defs>
    <g id="Page-1" stroke="none" stroke-width="1" fill="none" fill-rule="evenodd">
        <g id="New-meta-draft" transform="translate(-84.000000, -1784.000000)">
            <g id="Slice" transform="translate(84.000000, 84.000000)"></g>
            <g id="Icon" transform="translate(51.000000, 42.000000)" stroke="#52B311" stroke-width="2">
                <g id="Goods" transform="translate(21.000000, 1694.000000)">
                    <g id="Malls" transform="translate(13.000000, 50.000000)">
                        <path d="M22,25 C22,23.343 23.343,22 25,22 C26.657,22 28,23.343 28,25 C28,26.657 26.657,28 25,28 C23.343,28 22,26.657 22,25 Z" id="Stroke-1"></path>
                        <path d="M7,25 C7,23.343 8.343,22 10,22 C11.657,22 13,23.343 13,25 C13,26.657 11.657,28 10,28 C8.343,28 7,26.657 7,25 Z" id="Stroke-3"></path>
                        <path d="M13,25 L22,25" id="Stroke-5"></path>
                        <path d="M0,0 L1.48,0 C2.378,0 3.166,0.599 3.407,1.465 L6.411,16.126 C6.738,17.723 8.282,18.767 9.887,18.475 L26.537,15.448 C27.963,15.189 29,13.946 29,12.496 L29,6 L8,6" id="Stroke-7"></path>
                        <path d="M17,9 L17,14" id="Stroke-9"></path>
                        <path d="M22,9 L22,13" id="Stroke-11"></path>
                        <path d="M12,9 L12,14" id="Stroke-13"></path>
                    </g>
                </g>
            </g>
        </g>
    </g>
</svg>