<?xml version="1.0"?>
<svg xmlns="http://www.w3.org/2000/svg" xmlns:xlink="http://www.w3.org/1999/xlink" xmlns:svgjs="http://svgjs.com/svgjs" version="1.1" width="512" height="512" x="0" y="0" viewBox="0 0 512 512" style="enable-background:new 0 0 512 512" xml:space="preserve" class=""><g><g xmlns="http://www.w3.org/2000/svg" id="XMLID_1_"><g id="XMLID_3138_"><g id="XMLID_4_"><path id="XMLID_2308_" d="m393.5 512h-99.6c-2 0-3.8-1.2-4.6-3s-.5-3.9.8-5.4l46.2-51.9 7.5 6.6-38.8 43.7h88.4c18 0 34.7-9 44.6-24.1l24.1-36.7c5.7-8.7 8.8-18.9 8.8-29.3v-89.6c0-7.5 1.3-14.8 3.9-21.8l23.9-65.2c2.2-5.9 3.3-12.1 3.3-18.4v-102.2c0-14-5.4-27.2-15.1-37.3l-49.9-51.2c-10-10.3-24-16.2-38.3-16.2l-240.1.1c-22.5 0-42.7 14.3-50.3 35.5l-4.7 13.2c-4.6 12.7-12.9 23.5-24.1 31.1l-10.1 6.8c-14.6 10-23.4 26.5-23.4 44.2v115.1c0 17.2-7.1 33.9-19.5 45.8-10.5 10.1-16.5 24.1-16.5 38.6v61.8c0 15.5 6.7 30.3 18.5 40.4l53.6 46.4c9.7 8.4 22.1 13 34.9 13h156.9v10h-156.9c-15.2 0-29.9-5.5-41.5-15.4l-53.5-46.3c-14-12.1-22-29.6-22-48v-61.8c0-17.2 7.1-33.9 19.5-45.8 10.5-10.1 16.5-24.1 16.5-38.6v-115.2c0-21 10.4-40.6 27.8-52.5l10.1-6.8c9.4-6.4 16.5-15.5 20.3-26.2l4.7-13.2c9-25.2 33-42.1 59.7-42.1l240.1-.1c17 0 33.6 7 45.5 19.2l49.8 51.3c11.6 11.9 18 27.6 18 44.2v102.3c0 7.5-1.3 14.8-3.9 21.8l-23.8 65.2c-2.2 5.9-3.3 12.1-3.3 18.4v89.6c0 12.4-3.6 24.5-10.4 34.8l-24.1 36.7c-11.8 17.8-31.6 28.5-53 28.5z" fill="#645106" data-original="#000000" style=""/></g><g id="XMLID_1672_"><path id="XMLID_2307_" d="m333.5 512v-10c18 0 34.7-9 44.6-24.1l24.1-36.7c5.7-8.7 8.8-18.9 8.8-29.3v-89.6c0-7.5 1.3-14.8 3.9-21.8l23.9-65.2c2.2-5.9 3.3-12.1 3.3-18.4v-102.2c0-14-5.4-27.2-15.1-37.3l-47.7-49 7.2-7 47.7 49c11.6 11.9 18 27.6 18 44.2v102.4c0 7.5-1.3 14.8-3.9 21.8l-24 65.2c-2.2 5.9-3.3 12.1-3.3 18.4v89.6c0 12.4-3.6 24.5-10.4 34.8l-24.1 36.7c-11.8 17.8-31.6 28.5-53 28.5z" fill="#645106" data-original="#000000" style=""/></g><g id="XMLID_752_"><path id="XMLID_2306_" d="m52.9 470.5-7.4-6.7 67.4-75.3c.8-.9 1.9-1.5 3.1-1.6l50.3-6 19.2-46.9c.2-.4.4-.8.7-1.2l36-45.6 7.8 6.2-35.5 45-20 49c-.7 1.7-2.2 2.9-4 3.1l-51.3 6.1z" fill="#645106" data-original="#000000" style=""/></g><g id="XMLID_753_"><path id="XMLID_2301_" d="m134.1 391.7-9.6-2.8 18.9-65.6c.8-2.6 3.5-4.2 6.1-3.4l41.8 11.2-2.6 9.7-37.1-9.9z" fill="#645106" data-original="#000000" style=""/></g><g id="XMLID_755_"><path id="XMLID_2300_" d="m262.2 324.6c-.2 0-.5 0-.7-.1l-53.1-8 1.5-9.9 50.5 7.6 33.2-34.3 45.3-84.3 8.8 4.7-45.6 84.9c-.2.4-.5.8-.8 1.1l-35.5 36.7c-.9 1.1-2.2 1.6-3.6 1.6z" fill="#645106" data-original="#000000" style=""/></g><g id="XMLID_754_"><path id="XMLID_2299_" d="m338.4 507.6-9.9-1.3 9.7-76.3-12.5-57.4c-.2-.9-.1-1.9.2-2.7l24.9-69.8-17.6-134.7 9.9-1.3 17.8 135.9c.1.8 0 1.6-.2 2.3l-24.9 69.6 12.4 56.9c.1.6.1 1.1.1 1.7z" fill="#645106" data-original="#000000" style=""/></g><g id="XMLID_757_"><path id="XMLID_2298_" d="m45.1 257.6-8-6 45-59.5c.9-1.2 2.4-2 4-2h28l18.6-69.9c.3-1.1 1-2.1 2-2.8l39.8-28c1.2-.8 2.6-1.1 4-.8l45.4 10.6 20.3-27.7 8.1 5.9-22.3 30.3c-1.2 1.6-3.2 2.4-5.2 1.9l-46.5-10.8-36.5 25.6-19.1 71.8c-.6 2.2-2.6 3.7-4.8 3.7h-29.3z" fill="#645106" data-original="#000000" style=""/></g><g id="XMLID_758_"><path id="XMLID_2297_" d="m42.9 189.8-3.7-9.3 55.4-21.7 29.9-108.1 9.6 2.7-30.5 110.5c-.4 1.5-1.5 2.7-3 3.3z" fill="#645106" data-original="#000000" style=""/></g><g id="XMLID_759_"><path id="XMLID_2296_" d="m202.6 174.9-7.5-6.6 25-28.2-15.6-37.3 9.2-3.9 16.9 40.2c.7 1.8.4 3.8-.9 5.3z" fill="#645106" data-original="#000000" style=""/></g></g></g></g></svg>
