<?xml version="1.0" encoding="UTF-8"?>
<svg width="32px" height="32px" viewBox="0 0 32 32" version="1.1" xmlns="http://www.w3.org/2000/svg" xmlns:xlink="http://www.w3.org/1999/xlink">
    <!-- Generator: Sketch 43.2 (39069) - http://www.bohemiancoding.com/sketch -->
    <title>Metarubrick / Medicine / Med_center</title>
    <desc>Created with Sketch.</desc>
    <defs></defs>
    <g id="Page-1" stroke="none" stroke-width="1" fill="none" fill-rule="evenodd">
        <g id="New-meta-draft" transform="translate(-284.000000, -1384.000000)">
            <g id="Slice" transform="translate(84.000000, 84.000000)"></g>
            <g id="Icon" transform="translate(51.000000, 42.000000)" stroke="#DA0000" stroke-width="2">
                <g id="Medicine" transform="translate(27.000000, 1295.000000)">
                    <g id="Med-center" transform="translate(210.000000, 49.000000)">
                        <path d="M11,0 L13.034,0 C14.245,0 15.168,1.104 14.974,2.32 L12.397,16 C12.397,16 11.414,20 7.485,20 C3.556,20 2.574,16 2.574,16 L0.03,2.345 C-0.18,1.121 0.745,0 1.965,0 L4,0" id="Stroke-1"></path>
                        <path d="M24,11 C24,12.657 22.657,14 21,14 C19.343,14 18,12.657 18,11 C18,9.343 19.343,8 21,8 C22.657,8 24,9.343 24,11 Z" id="Stroke-3"></path>
                        <path d="M13,13 C12,14 9.827,15 7.5,15 C5.174,15 3,14 2,13" id="Stroke-5"></path>
                        <path d="M8,23 L8,23 C8,25.209 9.791,27 12,27 L17,27 C19.209,27 21,25.209 21,23 L21,14" id="Stroke-7"></path>
                    </g>
                </g>
            </g>
        </g>
    </g>
</svg>