<?xml version="1.0"?>
<svg xmlns="http://www.w3.org/2000/svg" xmlns:xlink="http://www.w3.org/1999/xlink" xmlns:svgjs="http://svgjs.com/svgjs" version="1.1" width="512" height="512" x="0" y="0" viewBox="0 0 512 512" style="enable-background:new 0 0 512 512" xml:space="preserve" class=""><g><linearGradient xmlns="http://www.w3.org/2000/svg" id="New_Gradient_Swatch_3" gradientUnits="userSpaceOnUse" x1="255.998" x2="255.998" y1="76.084" y2="435.916"><stop stop-opacity="1" stop-color="#5ee4ff" offset="0"/><stop stop-opacity="1" stop-color="#5ad9f9" offset="0.094"/><stop stop-opacity="1" stop-color="#4ebbea" offset="0.26"/><stop stop-opacity="1" stop-color="#3a8bd1" offset="0.479"/><stop stop-opacity="1" stop-color="#1f49ae" offset="0.739"/><stop stop-opacity="1" stop-color="#11104f" offset="1"/></linearGradient><path xmlns="http://www.w3.org/2000/svg" d="m270.538 200.985h-26.054v-26.054a6 6 0 0 0 -6-6h-50.844a6 6 0 0 0 -6 6v26.054h-26.055a6 6 0 0 0 -6 6v50.844a6 6 0 0 0 6 6h26.055v26.055a6 6 0 0 0 6 6h50.844a6 6 0 0 0 6-6v-26.055h26.054a6 6 0 0 0 6-6v-50.844a6 6 0 0 0 -6-6zm-6 50.844h-26.054a6 6 0 0 0 -6 6v26.055h-38.844v-26.055a6 6 0 0 0 -6-6h-26.055v-38.844h26.055a6 6 0 0 0 6-6v-26.054h38.844v26.054a6 6 0 0 0 6 6h26.054zm214.262 35.531a91.491 91.491 0 0 0 -66.309-34.974v-131.615a6 6 0 0 0 -6-6h-104.531v-11.989a26.728 26.728 0 0 0 -26.7-26.7h-124.4a26.729 26.729 0 0 0 -26.7 26.7v11.989h-104.528a6 6 0 0 0 -6 6v223.273a6 6 0 0 0 6 6h295.187a91.87 91.87 0 0 0 183.481-2.618c.052-1.259.059-2.469.059-3.382a90.892 90.892 0 0 0 -19.559-56.684zm-2.816 17.275a78.553 78.553 0 0 1 9.872 30.431l-15.984-11.615zm-8.62-12.3-9.343 28.757-19.99 6.554-25.54-18.557v-21.213l24.386-17.718a79.953 79.953 0 0 1 30.488 22.177zm-124.253 31.116-15.985 11.615a78.554 78.554 0 0 1 9.874-30.431zm11.851-2.359-9.342-28.758a79.932 79.932 0 0 1 30.485-22.175l24.387 17.717v21.213l-25.54 18.557zm51.53-56.92a80.242 80.242 0 0 1 15.986 1.616l-15.986 11.612-15.986-11.614a80.242 80.242 0 0 1 15.986-1.614zm-14.392 99.677-8.893-27.37 23.282-16.916 23.282 16.916-8.893 27.37zm8.389-237.078v65.122a71.491 71.491 0 0 1 -65.122-65.122zm-264.326-23.989a14.715 14.715 0 0 1 14.7-14.7h124.4a14.714 14.714 0 0 1 14.7 14.7v11.989h-153.8zm-110.531 23.989h65.122a71.491 71.491 0 0 1 -65.122 65.122zm0 77.132a83.468 83.468 0 0 0 77.132-77.132h220.6a83.469 83.469 0 0 0 77.128 77.129v48.483a91.793 91.793 0 0 0 -85.663 85.658h-289.197zm301.219 146.197 24.275-17.637 20.326 6.664 9.678 29.787-12.455 17.044h-30.191a79.531 79.531 0 0 1 -11.633-35.858zm20.723 47.858h19.747l6.109 18.8a80.172 80.172 0 0 1 -25.856-18.801zm40.071 23.721-9.3-28.617 12.578-17.212h31.133l12.578 17.212-9.3 28.617a81.188 81.188 0 0 1 -37.689-.001zm51.909-4.919 6.109-18.8h19.746a80.174 80.174 0 0 1 -25.855 18.799zm34.946-30.8h-30.192l-12.455-17.044 9.679-29.787 20.327-6.664 24.275 17.635a79.513 79.513 0 0 1 -11.634 35.857z" fill="url(#New_Gradient_Swatch_3)" data-original="url(#New_Gradient_Swatch_3)" style=""/></g></svg>
