<?xml version="1.0"?>
<svg xmlns="http://www.w3.org/2000/svg" xmlns:xlink="http://www.w3.org/1999/xlink" xmlns:svgjs="http://svgjs.com/svgjs" version="1.1" width="512" height="512" x="0" y="0" viewBox="0 0 512 512" style="enable-background:new 0 0 512 512" xml:space="preserve"><g><g xmlns="http://www.w3.org/2000/svg"><path d="m284.965 163.818-28.965-58.69-28.965 58.69-64.769 9.411 46.867 45.684-11.064 64.507 57.931-30.456 57.931 30.456-11.064-64.507 46.867-45.684zm-10.879 64.762-18.086-9.509-18.086 9.509 3.454-20.14-14.633-14.263 20.222-2.938 9.043-18.324 9.043 18.324 20.222 2.938-14.633 14.263z" fill="#cd1515" data-original="#000000" style=""/><path d="m435.527 93.182c-48.032-38.096-111.867-62.182-179.527-62.182-67.596 0-131.444 24.046-179.527 62.182-47.885 37.978-76.473 87.63-76.473 132.818 0 45.361 21.211 77.846 61 99.248v50.752c0 57.897 47.103 105 105 105h180c57.897 0 105-47.103 105-105v-50.752c39.789-21.403 61-53.888 61-99.248 0-45.188-28.588-94.84-76.473-132.818zm-14.527 267.818h-330v-30h330zm-75 90h-180c-36.219 0-66.522-25.808-73.491-60h326.982c-6.969 34.192-37.272 60-73.491 60zm86.576-150h-353.152c-33.695-16.639-49.424-40.543-49.424-75 0-36.111 24.342-76.976 65.115-109.314 44.621-35.389 103.261-55.686 160.885-55.686s116.264 20.297 160.885 55.686c40.773 32.338 65.115 73.203 65.115 109.314 0 34.457-15.729 58.361-49.424 75z" fill="#cd1515" data-original="#000000" style=""/></g></g></svg>
