<?xml version="1.0"?>
<svg xmlns="http://www.w3.org/2000/svg" xmlns:xlink="http://www.w3.org/1999/xlink" xmlns:svgjs="http://svgjs.com/svgjs" version="1.1" width="512" height="512" x="0" y="0" viewBox="0 0 511.99984 511" style="enable-background:new 0 0 512 512" xml:space="preserve" class=""><g><path xmlns="http://www.w3.org/2000/svg" d="m322.121094 294.875h-132.242188c-12.640625 0-22.925781 10.285156-22.925781 22.925781v170.339844c0 12.644531 10.285156 22.929687 22.925781 22.929687h132.242188c12.640625 0 22.925781-10.285156 22.925781-22.929687v-170.339844c0-12.640625-10.285156-22.925781-22.925781-22.925781zm7.925781 193.265625c0 4.375-3.554687 7.929687-7.925781 7.929687h-132.242188c-4.371094 0-7.929687-3.554687-7.929687-7.929687v-170.339844c0-4.371093 3.558593-7.925781 7.929687-7.925781h132.242188c4.371094 0 7.925781 3.554688 7.925781 7.925781zm0 0" fill="#d30d0d" data-original="#000000" style=""/><path xmlns="http://www.w3.org/2000/svg" d="m72.753906 455.316406v-67.46875h29.964844c13.417969 0 24.332031-10.914062 24.332031-24.332031v-338.683594c0-13.417969-10.914062-24.332031-24.332031-24.332031h-74.933594c-13.417968 0-24.332031 10.914062-24.332031 24.332031v44.960938c0 4.144531 3.359375 7.5 7.5 7.5 4.144531 0 7.5-3.355469 7.5-7.5v-44.960938c0-5.148437 4.1875-9.332031 9.332031-9.332031h74.933594c5.144531 0 9.332031 4.1875 9.332031 9.332031v260.710938c0 5.144531-4.1875 9.332031-9.332031 9.332031h-74.933594c-5.144531 0-9.332031-4.1875-9.332031-9.332031v-185.75c0-4.144531-3.355469-7.5-7.5-7.5-4.140625 0-7.5 3.355469-7.5 7.5v263.722656c0 13.417969 10.914063 24.332031 24.332031 24.332031h29.96875v67.46875c-23.121094 2.398438-44.105468 15.769532-55.964844 36.097656-2.375 4.070313-2.386718 8.949219-.03125 13.050782 2.339844 4.074218 6.707032 6.605468 11.394532 6.605468h104.199218c4.6875 0 9.054688-2.53125 11.394532-6.605468 2.355468-4.101563 2.34375-8.980469-.03125-13.050782-11.859375-20.328124-32.84375-33.699218-55.960938-36.097656zm-54.300781-91.800781v-55.503906c2.875 1.199219 6.027344 1.863281 9.332031 1.863281h74.933594c3.304688 0 6.457031-.664062 9.332031-1.863281v55.503906c0 5.144531-4.1875 9.332031-9.332031 9.332031h-74.933594c-5.144531 0-9.332031-4.1875-9.332031-9.332031zm-1.898437 132.554687c10.78125-16.207031 29.136718-26.144531 48.699218-26.144531s37.914063 9.9375 48.699219 26.144531zm0 0" fill="#d30d0d" data-original="#000000" style=""/><path xmlns="http://www.w3.org/2000/svg" d="m65.253906 82.492188c-17.816406 0-32.308594 14.492187-32.308594 32.304687s14.492188 32.304687 32.308594 32.304687c17.8125 0 32.304688-14.492187 32.304688-32.304687s-14.492188-32.304687-32.304688-32.304687zm0 49.613281c-9.542968 0-17.308594-7.765625-17.308594-17.308594s7.765626-17.304687 17.308594-17.304687c9.542969 0 17.304688 7.761718 17.304688 17.304687s-7.761719 17.308594-17.304688 17.308594zm0 0" fill="#d30d0d" data-original="#000000" style=""/><path xmlns="http://www.w3.org/2000/svg" d="m65.253906 201.40625c-13.949218 0-25.292968 11.347656-25.292968 25.292969 0 13.949219 11.34375 25.292969 25.292968 25.292969 13.945313 0 25.292969-11.34375 25.292969-25.292969 0-13.945313-11.347656-25.292969-25.292969-25.292969zm0 35.585938c-5.675781 0-10.292968-4.617188-10.292968-10.292969s4.617187-10.292969 10.292968-10.292969c5.675782 0 10.292969 4.617188 10.292969 10.292969s-4.617187 10.292969-10.292969 10.292969zm0 0" fill="#d30d0d" data-original="#000000" style=""/><path xmlns="http://www.w3.org/2000/svg" d="m90.546875 340.472656c0-4.140625-3.359375-7.5-7.5-7.5h-35.589844c-4.140625 0-7.5 3.359375-7.5 7.5 0 4.144532 3.359375 7.5 7.5 7.5h35.589844c4.140625 0 7.5-3.355468 7.5-7.5zm0 0" fill="#d30d0d" data-original="#000000" style=""/><path xmlns="http://www.w3.org/2000/svg" d="m510.210938 491.410156c-3.40625-5.835937-7.605469-11.179687-12.46875-15.878906-2.980469-2.878906-7.730469-2.792969-10.605469.1875s-2.792969 7.726562.1875 10.601562c3.054687 2.953126 5.777343 6.222657 8.125 9.75h-97.398438c10.78125-16.207031 29.136719-26.144531 48.699219-26.144531 6.210938 0 12.320312.96875 18.164062 2.882813 3.941407 1.285156 8.175782-.863282 9.460938-4.800782 1.289062-3.9375-.859375-8.171874-4.796875-9.457031-4.980469-1.628906-10.113281-2.714843-15.328125-3.242187v-67.460938h29.964844c13.417968 0 24.332031-10.914062 24.332031-24.332031v-338.683594c0-13.417969-10.914063-24.332031-24.332031-24.332031h-74.933594c-13.417969 0-24.332031 10.914062-24.332031 24.332031v186.863281c0 4.144532 3.355469 7.5 7.5 7.5s7.5-3.355468 7.5-7.5v-186.863281c0-5.148437 4.1875-9.332031 9.332031-9.332031h74.933594c5.144531 0 9.332031 4.1875 9.332031 9.332031v260.710938c0 5.144531-4.1875 9.332031-9.332031 9.332031h-74.933594c-5.148438 0-9.332031-4.1875-9.332031-9.332031v-43.851563c0-4.144531-3.355469-7.5-7.5-7.5s-7.5 3.355469-7.5 7.5v121.824219c0 13.417969 10.914062 24.332031 24.332031 24.332031h29.96875v67.46875c-23.121094 2.398438-44.109375 15.769532-55.964844 36.097656-2.375 4.070313-2.386718 8.949219-.03125 13.054688 2.339844 4.074219 6.707032 6.601562 11.394532 6.601562h104.199218c4.6875 0 9.054688-2.527343 11.394532-6.601562 2.355468-4.105469 2.34375-8.984375-.03125-13.058594zm-110.261719-127.894531v-55.503906c2.875 1.199219 6.027343 1.863281 9.332031 1.863281h74.933594c3.304687 0 6.457031-.664062 9.332031-1.863281v55.503906c0 5.144531-4.1875 9.332031-9.332031 9.332031h-74.933594c-5.144531 0-9.332031-4.1875-9.332031-9.332031zm0 0" fill="#d30d0d" data-original="#000000" style=""/><path xmlns="http://www.w3.org/2000/svg" d="m446.746094 82.492188c-17.8125 0-32.304688 14.492187-32.304688 32.304687s14.492188 32.304687 32.304688 32.304687 32.308594-14.492187 32.308594-32.304687-14.496094-32.304687-32.308594-32.304687zm0 49.613281c-9.539063 0-17.304688-7.765625-17.304688-17.308594s7.765625-17.304687 17.304688-17.304687c9.542968 0 17.308594 7.761718 17.308594 17.304687s-7.765626 17.308594-17.308594 17.308594zm0 0" fill="#d30d0d" data-original="#000000" style=""/><path xmlns="http://www.w3.org/2000/svg" d="m446.746094 201.40625c-13.945313 0-25.292969 11.347656-25.292969 25.292969 0 13.949219 11.347656 25.292969 25.292969 25.292969 13.949218 0 25.292968-11.34375 25.292968-25.292969 0-13.945313-11.34375-25.292969-25.292968-25.292969zm0 35.585938c-5.675782 0-10.292969-4.617188-10.292969-10.292969s4.617187-10.292969 10.292969-10.292969c5.675781 0 10.296875 4.617188 10.296875 10.292969s-4.621094 10.292969-10.296875 10.292969zm0 0" fill="#d30d0d" data-original="#000000" style=""/><path xmlns="http://www.w3.org/2000/svg" d="m472.039062 340.472656c0-4.140625-3.355468-7.5-7.5-7.5h-35.585937c-4.140625 0-7.5 3.359375-7.5 7.5 0 4.144532 3.359375 7.5 7.5 7.5h35.585937c4.144532 0 7.5-3.355468 7.5-7.5zm0 0" fill="#d30d0d" data-original="#000000" style=""/><path xmlns="http://www.w3.org/2000/svg" d="m256 326.683594c-30.464844 0-55.246094 24.78125-55.246094 55.246094 0 30.464843 24.78125 55.246093 55.246094 55.246093s55.246094-24.78125 55.246094-55.246093c0-30.464844-24.78125-55.246094-55.246094-55.246094zm0 95.496094c-22.191406 0-40.25-18.058594-40.25-40.25 0-22.191407 18.058594-40.246094 40.25-40.246094s40.246094 18.054687 40.246094 40.246094c0 22.191406-18.054688 40.25-40.246094 40.25zm0 0" fill="#d30d0d" data-original="#000000" style=""/><path xmlns="http://www.w3.org/2000/svg" d="m261.332031 355.96875c-4.058593-.820312-8.019531 1.789062-8.851562 5.847656-.832031 4.054688 1.785156 8.019532 5.84375 8.847656 5.316406 1.089844 9.175781 5.828126 9.175781 11.265626 0 6.34375-5.160156 11.5-11.5 11.5s-11.5-5.15625-11.5-11.5c0-4.140626-3.359375-7.5-7.5-7.5s-7.5 3.359374-7.5 7.5c0 14.613281 11.886719 26.5 26.5 26.5 14.609375 0 26.5-11.886719 26.5-26.5 0-12.53125-8.902344-23.449219-21.167969-25.960938zm0 0" fill="#d30d0d" data-original="#000000" style=""/><path xmlns="http://www.w3.org/2000/svg" d="m296.996094 455.425781h-81.996094c-4.140625 0-7.5 3.359375-7.5 7.5 0 4.144531 3.359375 7.5 7.5 7.5h81.996094c4.144531 0 7.5-3.355469 7.5-7.5 0-4.140625-3.355469-7.5-7.5-7.5zm0 0" fill="#d30d0d" data-original="#000000" style=""/></g></svg>
