<?xml version="1.0"?>
<svg xmlns="http://www.w3.org/2000/svg" xmlns:xlink="http://www.w3.org/1999/xlink" xmlns:svgjs="http://svgjs.com/svgjs" version="1.1" width="512" height="512" x="0" y="0" viewBox="0 0 64 64" style="enable-background:new 0 0 512 512" xml:space="preserve" class=""><g><g xmlns="http://www.w3.org/2000/svg" id="Outline"><path d="M54,45a1,1,0,0,0-1,1V61a1,1,0,0,0,2,0V46A1,1,0,0,0,54,45Z" fill="#252291" data-original="#000000" style=""/><path d="M44.555,26.832a1,1,0,1,0-1.11-1.664,4.4,4.4,0,0,1-4.89,0,1,1,0,0,0-1.11,1.664,6.391,6.391,0,0,0,7.11,0Z" fill="#252291" data-original="#000000" style=""/><path d="M52,33H50a1,1,0,0,0-.874.515l-4.356,7.84L42.414,39l4.293-4.293A1,1,0,0,0,47,34V31.208a11,11,0,0,0,4.954-8.3A5.006,5.006,0,0,0,56,18a3,3,0,0,0-2.012-2.82,13.047,13.047,0,0,0-2.813-8.369,1,1,0,1,0-1.563,1.248,10.97,10.97,0,0,1,2.307,5.578A1.078,1.078,0,0,0,50.944,13a36.908,36.908,0,0,1-8.593-1.019,1,1,0,0,0-.467,1.946A39.008,39.008,0,0,0,50,14.987v.68l-1.637,2.184A3.981,3.981,0,0,0,41.142,19h-.284a3.981,3.981,0,0,0-7.221-1.149L32,15.667v-.062a5.724,5.724,0,0,1,2.1-4.441,39.667,39.667,0,0,0,3.842,1.593,1,1,0,1,0,.67-1.885,37.025,37.025,0,0,1-4.169-1.767,1,1,0,0,0-1,.063A7.712,7.712,0,0,0,30.037,15H29a2.983,2.983,0,0,0-2.054.825A6.984,6.984,0,0,1,30.013,4.288,2.683,2.683,0,0,0,31.5,6.432a2.8,2.8,0,0,0,2.934-.257A11.017,11.017,0,0,1,43.66,4.311a10.781,10.781,0,0,1,3.207,1.323,1,1,0,1,0,1.047-1.705,12.787,12.787,0,0,0-3.8-1.566A12.972,12.972,0,0,0,33.238,4.571a.8.8,0,0,1-.845.071A.682.682,0,0,1,32,4a6.233,6.233,0,0,1,.052-.812,1,1,0,0,0-.281-.831.984.984,0,0,0-.827-.291A8.974,8.974,0,0,0,26.03,17.7,2.909,2.909,0,0,0,26,18a5.006,5.006,0,0,0,4.046,4.9A11,11,0,0,0,35,31.208V33H30a1,1,0,0,0,0,2h1.168l4.849,26.182A1,1,0,0,0,37,62a.952.952,0,0,0,.183-.017,1,1,0,0,0,.8-1.165L34.1,39.834l2.029,3.651a1,1,0,0,0,.735.505A.929.929,0,0,0,37,44a1,1,0,0,0,.707-.293L40,41.414V61a1,1,0,0,0,2,0V41.414l2.293,2.293a1,1,0,0,0,1.581-.222l2.028-3.65L44.017,60.818a1,1,0,0,0,.8,1.165A.952.952,0,0,0,45,62a1,1,0,0,0,.982-.818L50.832,35H52a8.009,8.009,0,0,1,8,8V61a1,1,0,0,0,2,0V43A10.011,10.011,0,0,0,52,33Zm0-12.171V17h1a1,1,0,0,1,1,1A3.006,3.006,0,0,1,52,20.829ZM45,18a2,2,0,1,1-2,2A2,2,0,0,1,45,18Zm-8,0a2,2,0,1,1-2,2A2,2,0,0,1,37,18Zm-9,0a1,1,0,0,1,1-1h1v3.829A3.006,3.006,0,0,1,28,18Zm4,4V19l1.039,1.386A3.979,3.979,0,0,0,40.858,21h.284a3.979,3.979,0,0,0,7.819-.615L50,19v3a9,9,0,0,1-18,0Zm9,11a10.927,10.927,0,0,0,4-.764v1.35l-4,4-4-4v-1.35A10.927,10.927,0,0,0,41,33Zm-3.77,8.355L33.7,35h1.887l4,4Z" fill="#252291" data-original="#000000" style=""/><path d="M17,32a14.87,14.87,0,0,0-8.973,3,1,1,0,0,0,1.2,1.6A12.868,12.868,0,0,1,17,34,13,13,0,1,1,4,47a12.868,12.868,0,0,1,2.6-7.773,1,1,0,0,0-1.6-1.2A14.988,14.988,0,1,0,17,32Z" fill="#252291" data-original="#000000" style=""/><path d="M8.757,50.6a1,1,0,1,0-1.832.8A11.011,11.011,0,0,0,17,58a1,1,0,0,0,0-2A9.009,9.009,0,0,1,8.757,50.6Z" fill="#252291" data-original="#000000" style=""/><path d="M20.97,37.336a3.961,3.961,0,0,0-5.615-.32C15.233,37.005,15.116,37,15,37a5.008,5.008,0,0,0-4.9,4,4,4,0,1,0-.1,8,3.871,3.871,0,0,0,.528-.036A4,4,0,0,0,14,51a3.909,3.909,0,0,0,1.605-.343,4.973,4.973,0,0,0,1.457.941,3.966,3.966,0,0,0,1.375,2.469A4.485,4.485,0,0,0,22.634,57H23a1,1,0,0,0,1-1V53.63A3.99,3.99,0,0,0,25,51c0-.059-.014-.12-.017-.179a2.976,2.976,0,0,0,1.374-4.665A3.951,3.951,0,0,0,27,44a4,4,0,0,0-4-4,1.549,1.549,0,0,0-.223.018A1,1,0,0,0,21.84,41.2a.948.948,0,0,0,.088.263,2.014,2.014,0,0,1-.514,1.949,1,1,0,0,0,1.414,1.414,4.013,4.013,0,0,0,1.16-2.566A2,2,0,0,1,25,44a1.966,1.966,0,0,1-.7,1.5,1,1,0,0,0,.173,1.63A.994.994,0,0,1,24,49a.988.988,0,0,1-.817-.428,1,1,0,0,0-.818-.425h-.022a1,1,0,0,0-.821.461,2.975,2.975,0,0,1-4.918.176c-.01-.014-.026-.02-.037-.034A2.973,2.973,0,0,1,16,47a1,1,0,0,0-2,0,4.958,4.958,0,0,0,.4,1.932A1.9,1.9,0,0,1,14,49a2,2,0,0,1-1.92-1.481,1,1,0,0,0-1.338-.666A2,2,0,1,1,10,43a1.957,1.957,0,0,1,.679.13c.015,0,.031.006.046.01a1.976,1.976,0,0,1,.689.446,1,1,0,0,0,1.414-1.414,3.971,3.971,0,0,0-.785-.6,2.988,2.988,0,0,1,2.058-2.42A4,4,0,0,0,14,40a1,1,0,0,0,2,0,2,2,0,0,1,.435-1.239.62.62,0,0,0,.046-.042,2.023,2.023,0,0,1,2.995-.055,1,1,0,0,0,1.494-1.328Zm1.509,13.247a2.943,2.943,0,0,0,.5.212A1.658,1.658,0,0,1,23,51a1.974,1.974,0,0,1-.67,1.479,1,1,0,0,0-.33.743v1.7a2.48,2.48,0,0,1-1.744-1.723,1,1,0,0,0-.393-.552,2,2,0,0,1-.595-.668A4.955,4.955,0,0,0,22.479,50.583Z" fill="#252291" data-original="#000000" style=""/><path d="M17.293,47.707a2.414,2.414,0,0,0,3.414,0,1,1,0,0,0-1.414-1.414.414.414,0,0,1-.586,0,1,1,0,0,0-1.414,1.414Z" fill="#252291" data-original="#000000" style=""/><path d="M18.105,42.447a1,1,0,0,0,1.79-.894A2.106,2.106,0,0,0,18,40.382a1,1,0,0,0,0,2A.1.1,0,0,1,18.105,42.447Z" fill="#252291" data-original="#000000" style=""/><circle cx="15" cy="44" r="1" fill="#252291" data-original="#000000" style=""/><path d="M12,30A10,10,0,1,0,2,20,10.011,10.011,0,0,0,12,30Zm0-18a8,8,0,1,1-8,8A8.009,8.009,0,0,1,12,12Z" fill="#252291" data-original="#000000" style=""/><path d="M9,23v2a1,1,0,0,0,1,1h4a1,1,0,0,0,1-1V23h2a1,1,0,0,0,1-1V18a1,1,0,0,0-1-1H15V15a1,1,0,0,0-1-1H10a1,1,0,0,0-1,1v2H7a1,1,0,0,0-1,1v4a1,1,0,0,0,1,1ZM8,19h2a1,1,0,0,0,1-1V16h2v2a1,1,0,0,0,1,1h2v2H14a1,1,0,0,0-1,1v2H11V22a1,1,0,0,0-1-1H8Z" fill="#252291" data-original="#000000" style=""/></g></g></svg>
