<?xml version="1.0"?>
<svg xmlns="http://www.w3.org/2000/svg" xmlns:xlink="http://www.w3.org/1999/xlink" xmlns:svgjs="http://svgjs.com/svgjs" version="1.1" width="512" height="512" x="0" y="0" viewBox="0 0 512.00222 512" style="enable-background:new 0 0 512 512" xml:space="preserve" class=""><g><path xmlns="http://www.w3.org/2000/svg" d="m494.9375 179.199219h-42.667969v-93.863281h9.125c9.253907-.179688 16.625-7.8125 16.472657-17.066407v-51.203125c.152343-9.253906-7.21875-16.886718-16.472657-17.066406h-444.917969c-9.253906.179688-16.625 7.8125-16.47265575 17.066406v51.203125c-.15234425 9.253907 7.21874975 16.886719 16.47265575 17.066407h9.125v368.144531c-15.03125 3.867187-25.554687 17.398437-25.59765575 32.921875v8.53125c.01171875 9.421875 7.64453175 17.054687 17.06640575 17.066406h443.730469c28.265625-.03125 51.171875-22.933594 51.203125-51.199219v-264.53125c-.015625-9.421875-7.648437-17.054687-17.066406-17.070312zm-477.867188-110.929688-.199218-17.070312h315.929687c4.714844 0 8.535157-3.820313 8.535157-8.53125 0-4.714844-3.820313-8.535157-8.535157-8.535157h-316.125l-.199219-17.066406h444.324219l-.015625 17.066406h-85.316406c-4.710938 0-8.53125 3.820313-8.53125 8.535157 0 4.710937 3.820312 8.53125 8.53125 8.53125h85.300781l-.019531 17.070312zm0 426.664063v-8.53125c.011719-9.421875 7.644532-17.054688 17.066407-17.066406h154.367187c1.613282 9.53125 5.902344 18.410156 12.371094 25.597656zm59.730469-42.664063v-315.734375h136.535157v128h-8.535157c-9.417969.011719-17.050781 7.644532-17.066406 17.066406v170.667969zm196.269531 8.53125c0 18.851563-15.285156 34.132813-34.132812 34.132813-18.851562 0-34.136719-15.28125-34.136719-34.132813v-179.199219h25.601563v170.667969c0 4.710938 3.820312 8.53125 8.535156 8.53125 4.710938 0 8.53125-3.820312 8.53125-8.53125v-170.667969h25.601562zm0-196.265625h-42.667968v-128c-.011719-9.421875-7.644532-17.054687-17.066406-17.066406h-136.535157c-9.417969.011719-17.050781 7.644531-17.066406 17.066406v315.734375h-17.066406v-366.933593h392.535156v93.863281h-25.601563v-42.664063c-.011718-9.421875-7.644531-17.054687-17.066406-17.066406h-85.332031c-9.421875.011719-17.054687 7.644531-17.066406 17.066406v42.664063c-9.421875.015625-17.054688 7.648437-17.066407 17.070312zm106.316407-128h13.148437v42.664063h-49.722656zm-59.035157 42.664063h-13.148437v-42.664063h49.71875zm174.585938 281.601562c-.019531 18.84375-15.292969 34.117188-34.136719 34.132813h-183.804687c8.453125-9.359375 13.136718-21.519532 13.140625-34.132813v-264.53125h204.800781zm0 0" fill="#080e5c" data-original="#000000" style="" class=""/><path xmlns="http://www.w3.org/2000/svg" d="m460.800781 281.601562h-51.199219c-9.417968.011719-17.054687 7.644532-17.066406 17.066407v51.199219c.011719 9.421874 7.648438 17.054687 17.066406 17.066406h51.199219c9.421875-.011719 17.054688-7.644532 17.066407-17.066406v-51.199219c-.011719-9.421875-7.644532-17.054688-17.066407-17.066407zm0 68.265626h-51.199219v-51.199219h51.199219zm0 0" fill="#080e5c" data-original="#000000" style="" class=""/><path xmlns="http://www.w3.org/2000/svg" d="m315.734375 298.667969h51.203125c4.710938 0 8.53125-3.820313 8.53125-8.535157 0-4.710937-3.820312-8.53125-8.53125-8.53125h-51.203125c-4.710937 0-8.53125 3.820313-8.53125 8.53125 0 4.714844 3.820313 8.535157 8.53125 8.535157zm0 0" fill="#080e5c" data-original="#000000" style="" class=""/><path xmlns="http://www.w3.org/2000/svg" d="m315.734375 332.800781h51.203125c4.710938 0 8.53125-3.820312 8.53125-8.53125 0-4.714843-3.820312-8.535156-8.53125-8.535156h-51.203125c-4.710937 0-8.53125 3.820313-8.53125 8.535156 0 4.710938 3.820313 8.53125 8.53125 8.53125zm0 0" fill="#080e5c" data-original="#000000" style="" class=""/><path xmlns="http://www.w3.org/2000/svg" d="m315.734375 366.933594h51.203125c4.710938 0 8.53125-3.820313 8.53125-8.53125 0-4.714844-3.820312-8.535156-8.53125-8.535156h-51.203125c-4.710937 0-8.53125 3.820312-8.53125 8.535156 0 4.710937 3.820313 8.53125 8.53125 8.53125zm0 0" fill="#080e5c" data-original="#000000" style="" class=""/><path xmlns="http://www.w3.org/2000/svg" d="m324.269531 469.335938h51.199219c9.421875-.015626 17.054688-7.648438 17.066406-17.066407v-51.203125c-.011718-9.417968-7.644531-17.050781-17.066406-17.066406h-51.199219c-9.421875.015625-17.054687 7.648438-17.066406 17.066406v51.203125c.011719 9.417969 7.644531 17.050781 17.066406 17.066407zm0-68.269532h51.199219l.015625 51.203125h-51.214844zm0 0" fill="#080e5c" data-original="#000000" style="" class=""/><path xmlns="http://www.w3.org/2000/svg" d="m469.335938 384h-51.199219c-4.714844 0-8.535157 3.820312-8.535157 8.535156 0 4.710938 3.820313 8.53125 8.535157 8.53125h51.199219c4.710937 0 8.53125-3.820312 8.53125-8.53125 0-4.714844-3.820313-8.535156-8.53125-8.535156zm0 0" fill="#080e5c" data-original="#000000" style="" class=""/><path xmlns="http://www.w3.org/2000/svg" d="m469.335938 418.132812h-51.199219c-4.714844 0-8.535157 3.820313-8.535157 8.535157 0 4.710937 3.820313 8.53125 8.535157 8.53125h51.199219c4.710937 0 8.53125-3.820313 8.53125-8.53125 0-4.714844-3.820313-8.535157-8.53125-8.535157zm0 0" fill="#080e5c" data-original="#000000" style="" class=""/><path xmlns="http://www.w3.org/2000/svg" d="m324.269531 264.535156h136.53125c9.421875-.011718 17.054688-7.648437 17.066407-17.066406v-17.066406c-.011719-9.421875-7.644532-17.054688-17.066407-17.066406h-136.53125c-9.421875.011718-17.054687 7.644531-17.066406 17.066406v17.066406c.011719 9.417969 7.644531 17.054688 17.066406 17.066406zm0-34.132812h136.53125l.019531 17.066406h-136.550781zm0 0" fill="#080e5c" data-original="#000000" style="" class=""/><path xmlns="http://www.w3.org/2000/svg" d="m196.269531 221.867188v-51.199219c-.011719-9.421875-7.648437-17.054688-17.066406-17.066407h-68.265625c-9.421875.011719-17.054688 7.644532-17.070312 17.066407v51.199219c.015624 9.421874 7.648437 17.054687 17.070312 17.066406h68.265625c9.417969-.011719 17.054687-7.644532 17.066406-17.066406zm-85.332031 0v-51.199219h68.265625l.015625 51.199219zm0 0" fill="#080e5c" data-original="#000000" style="" class=""/><path xmlns="http://www.w3.org/2000/svg" d="m102.402344 256c-4.714844 0-8.535156 3.820312-8.535156 8.535156v17.066406c0 4.710938 3.820312 8.53125 8.535156 8.53125 4.710937 0 8.535156-3.820312 8.535156-8.53125v-17.066406c0-4.714844-3.824219-8.535156-8.535156-8.535156zm0 0" fill="#080e5c" data-original="#000000" style="" class=""/></g></svg>
