<?xml version="1.0"?>
<svg xmlns="http://www.w3.org/2000/svg" xmlns:xlink="http://www.w3.org/1999/xlink" xmlns:svgjs="http://svgjs.com/svgjs" version="1.1" width="512" height="512" x="0" y="0" viewBox="0 0 48 48" style="enable-background:new 0 0 512 512" xml:space="preserve"><g><g xmlns="http://www.w3.org/2000/svg"><path d="m31.93 13.64c.33-.39.31-.98-.06-1.35-.39-.39-1.02-.39-1.41 0-.2.2-1.14 1.32-.24 4.02.47 1.43.21 1.98.23 1.98-.39.39-.38 1.02 0 1.41.2.2.45.29.71.29s.51-.1.71-.29c.2-.2 1.14-1.32.24-4.02-.46-1.4-.22-1.96-.18-2.04z" fill="#d92020" data-original="#000000" style=""/><path d="m36.1 13.64c.33-.39.31-.98-.06-1.35-.39-.39-1.02-.39-1.41 0-.2.2-1.14 1.32-.24 4.02.47 1.43.21 1.98.23 1.98-.39.39-.38 1.02 0 1.41.2.2.45.29.71.29s.51-.1.71-.29c.2-.2 1.14-1.32.24-4.02-.47-1.4-.22-1.96-.18-2.04z" fill="#d92020" data-original="#000000" style=""/><path d="m24 3c-5.77 0-11.01 2.34-14.81 6.13-.01.01-.03.01-.04.02s-.01.03-.02.04c-3.79 3.8-6.13 9.04-6.13 14.81 0 11.58 9.42 21 21 21 5.77 0 11.01-2.34 14.81-6.13.01-.01.02-.01.04-.02s.01-.02.02-.04c3.79-3.8 6.13-9.04 6.13-14.81 0-11.58-9.42-21-21-21zm0 40c-10.48 0-19-8.52-19-19 0-4.88 1.86-9.32 4.9-12.69l9.69 9.69h-9.59c-.55 0-1 .45-1 1v4.5c0 .55.45 1 1 1h16.09l10.6 10.6c-3.37 3.04-7.81 4.9-12.69 4.9zm-2.41-20 2.5 2.5h-13.09v-2.5zm2.82 0h6.09v2.5h-3.59zm13.69 13.69-9.19-9.19h2.59 4.5c.55 0 1-.45 1-1v-4.5c0-.55-.45-1-1-1h-4.5-9.09l-11.1-11.1c3.37-3.04 7.81-4.9 12.69-4.9 10.48 0 19 8.52 19 19 0 4.88-1.86 9.32-4.9 12.69zm-5.6-11.19v-2.5h2.5v2.5z" fill="#d92020" data-original="#000000" style=""/></g></g></svg>
