<?xml version="1.0"?>
<svg xmlns="http://www.w3.org/2000/svg" xmlns:xlink="http://www.w3.org/1999/xlink" xmlns:svgjs="http://svgjs.com/svgjs" version="1.1" width="512" height="512" x="0" y="0" viewBox="0 0 511.993 511.993" style="enable-background:new 0 0 512 512" xml:space="preserve" class=""><g><g xmlns="http://www.w3.org/2000/svg"><path d="m77.255 166.963c0 4.142 3.358 7.5 7.5 7.5h285.788c4.142 0 7.5-3.358 7.5-7.5s-3.358-7.5-7.5-7.5h-285.788c-4.142 0-7.5 3.358-7.5 7.5z" fill="#09782a" data-original="#000000" style=""/><path d="m84.755 222.219h285.788c4.142 0 7.5-3.358 7.5-7.5s-3.358-7.5-7.5-7.5h-285.788c-4.142 0-7.5 3.358-7.5 7.5s3.358 7.5 7.5 7.5z" fill="#09782a" data-original="#000000" style=""/><path d="m84.755 269.974h285.788c4.142 0 7.5-3.358 7.5-7.5s-3.358-7.5-7.5-7.5h-285.788c-4.142 0-7.5 3.358-7.5 7.5s3.358 7.5 7.5 7.5z" fill="#09782a" data-original="#000000" style=""/><path d="m84.755 317.729h145.582c4.142 0 7.5-3.358 7.5-7.5s-3.358-7.5-7.5-7.5h-145.582c-4.142 0-7.5 3.358-7.5 7.5s3.358 7.5 7.5 7.5z" fill="#09782a" data-original="#000000" style=""/><path d="m464.035 297.668c-11.184-6.316-24.051-6.947-35.262-2.844v-158.074c0-15.133-5.894-29.36-16.597-40.063l-43.55-43.55c-2.929-2.929-7.678-2.929-10.606 0-2.929 2.929-2.929 7.678 0 10.606l43.55 43.55c1.195 1.195 2.298 2.457 3.327 3.765-3.863-1.408-8.03-2.178-12.374-2.178h-40.82c-17.546 0-31.82-14.27-31.82-31.81v-40.82c0-4.348-.771-8.519-2.181-12.385 1.313 1.032 2.579 2.139 3.778 3.338l15.34 15.34c1.464 1.464 3.384 2.197 5.303 2.197s3.839-.732 5.303-2.197c2.929-2.929 2.929-7.678 0-10.606l-15.34-15.34c-10.703-10.703-24.93-16.597-40.063-16.597h-218.68c-25.816 0-46.82 21.003-46.82 46.82v365.48c0 25.817 21.003 46.82 46.82 46.82h28.39c4.142 0 7.5-3.358 7.5-7.5s-3.358-7.5-7.5-7.5h-28.39c-17.545 0-31.82-14.274-31.82-31.82v-365.48c0-17.545 14.274-31.82 31.82-31.82h210.28c11.723 0 21.26 9.533 21.26 21.25v40.82c0 25.811 21.003 46.81 46.82 46.81h40.82c11.717 0 21.25 9.542 21.25 21.27v159.121c-2.772 2.712-5.219 5.844-7.22 9.386l-45.265 80.151-19.127-24.673c-14.253-18.384-40.807-21.746-59.192-7.493-8.906 6.904-14.59 16.864-16.006 28.044s1.607 22.242 8.512 31.148l18.052 23.286h-161.934c-4.142 0-7.5 3.358-7.5 7.5s3.358 7.5 7.5 7.5h173.563l28.322 36.533c7.933 10.231 20.396 16.34 33.339 16.34 1.017 0 2.048-.037 3.068-.111 14.123-1.028 26.71-9.002 33.672-21.332l76.468-135.4c11.439-20.255 4.266-46.042-15.99-57.482zm2.928 50.106-76.468 135.4c-4.486 7.946-12.599 13.084-21.696 13.747-9.009.659-17.952-3.345-23.467-10.458l-58.003-74.819c-9.186-11.849-7.019-28.961 4.83-38.146 4.946-3.834 10.808-5.69 16.629-5.69 8.124 0 16.167 3.617 21.519 10.519l26.039 33.587c1.539 1.984 3.969 3.075 6.472 2.885 2.504-.182 4.751-1.605 5.986-3.792l50.812-89.972c7.373-13.054 23.991-17.675 37.046-10.305 13.051 7.372 17.674 23.99 10.301 37.044z" fill="#09782a" data-original="#000000" style=""/><path d="m209.683 99.309c1.464 1.464 3.384 2.197 5.303 2.197s3.839-.732 5.303-2.197l7.359-7.359 7.359 7.359c1.464 1.464 3.384 2.197 5.303 2.197s3.839-.732 5.303-2.197c2.929-2.929 2.929-7.678 0-10.606l-7.359-7.359 7.359-7.359c2.929-2.929 2.929-7.678 0-10.606-2.929-2.929-7.678-2.929-10.606 0l-7.359 7.359-7.359-7.359c-2.929-2.929-7.678-2.929-10.606 0-2.929 2.929-2.929 7.678 0 10.606l7.359 7.359-7.359 7.359c-2.93 2.928-2.93 7.677 0 10.606z" fill="#09782a" data-original="#000000" style=""/></g></g></svg>
