<?xml version="1.0"?>
<svg xmlns="http://www.w3.org/2000/svg" xmlns:xlink="http://www.w3.org/1999/xlink" xmlns:svgjs="http://svgjs.com/svgjs" version="1.1" width="512" height="512" x="0" y="0" viewBox="0 0 512.015 512.015" style="enable-background:new 0 0 512 512" xml:space="preserve" class=""><g><g xmlns="http://www.w3.org/2000/svg"><path d="m412.015 186.007c-35.427 0-67.709 18.59-85.639 48.337-19.425-20.511-30.361-47.36-30.361-75.377v-20.226c17.233-4.451 30-20.13 30-38.734 0-16.842-10.469-31.276-25.236-37.164l13.335-26.661c3.897-7.812 3.482-16.906-1.108-24.328-4.589-7.418-12.536-11.847-21.26-11.847h-101.46c-8.724 0-16.671 4.429-21.26 11.847-4.591 7.422-5.005 16.517-1.104 24.336l13.33 26.653c-14.768 5.888-25.236 20.322-25.236 37.164 0 18.604 12.767 34.283 30 38.734v20.226c0 17.223-4.148 34.096-11.94 49.35-.477-2.595-1.029-5.156-1.701-7.658-11.575-43.2-50.902-69.365-52.571-70.458-2.382-1.56-5.316-2.03-8.067-1.293-2.75.737-5.057 2.612-6.339 5.154-.758 1.501-15.8 31.854-13.541 67.227-36.424-21.117-80.111-19.026-82.313-18.907-5.09.281-9.153 4.345-9.434 9.435-.146 2.645-3.13 65.206 34.733 103.081 10.708 10.708 24.328 19.09 40.588 25.005-6.251 15.106-9.417 30.902-9.417 47.104 0 39.117 18.465 75.767 51.994 103.2 32.946 26.955 76.63 41.8 123.006 41.8 27.845 0 55.551-5.543 80.124-16.029 5.08-2.168 7.44-8.043 5.272-13.123-2.166-5.079-8.039-7.439-13.122-5.273-22.113 9.437-47.104 14.424-72.274 14.424-85.467 0-155-56.075-155-125 0-16.745 4.056-33.013 12.051-48.357.02-.037.04-.074.06-.112.011-.021.026-.038.036-.059 2.97-5.667 6.498-11.19 10.493-16.472h264.727c14.821 19.577 22.632 41.954 22.632 65 0 2.592-.104 5.289-.31 7.988-1.393 17.744-7.326 34.693-17.637 50.376-3.034 4.615-1.753 10.815 2.862 13.85 4.594 3.022 10.803 1.77 13.849-2.862 10.359-15.756 16.97-32.662 19.745-50.383 53.986-1.337 97.491-45.667 97.491-99.968.002-55.14-44.858-100-99.998-100zm-225.982-163.631c.547-.885 1.827-2.369 4.251-2.369h101.46c2.424 0 3.704 1.484 4.251 2.369.441.714 1.348 2.619.226 4.868l-16.387 32.763h-77.641l-16.382-32.755c-1.125-2.257-.22-4.162.222-4.876zm-67.393 132.224c10.976 9.546 28.064 27.528 34.417 51.241 2.349 8.748 3.201 18.334 2.57 28.527-6.109 6.447-12.972 12.172-20.455 17.075-5.067-12.013-11.599-22.439-19.505-31.125-6.921-21.088-4.194-44.785 2.973-65.718zm-22.591 131.072c-4.245 5.198-8.081 10.641-11.478 16.244-14.529-4.958-26.479-12.054-35.584-21.16-23.615-23.621-28.083-60.933-28.83-78.328 28.243 1.208 59.929 9.532 79.48 30.01 7.844 8.202 14.149 18.627 18.803 31.043-8.307 6.749-15.826 14.18-22.391 22.191zm31.423-3.665c9.172-7.961 41.441-28.515 46.651-38.27 20.577-23.74 31.892-53.761 31.892-84.771v-28.96c0-5.523-4.477-10-10-10-11.028 0-20-8.972-20-20s8.972-20 20-20h90c11.028 0 20 8.972 20 20s-8.972 20-20 20c-5.522 0-10 4.477-10 10v28.96c0 38.07 16.999 74.272 46.637 99.34.033.028.065.057.099.084 12.519 10.576 18.129 11.733 31.816 23.616h-227.095zm288.53 83.899c-.258-28.776-10.622-56.498-30.033-80.246-18.14-22.142-36.53-32.093-44.288-37.799 13.906-25.647 40.747-41.854 70.333-41.854 44.112 0 80 35.888 80 80 .001 42.775-33.745 77.814-76.012 79.899z" fill="#e91281" data-original="#000000" style="" class=""/><circle cx="356.015" cy="464.007" r="10" fill="#e91281" data-original="#000000" style="" class=""/></g></g></svg>
