<?xml version="1.0"?>
<svg xmlns="http://www.w3.org/2000/svg" xmlns:xlink="http://www.w3.org/1999/xlink" xmlns:svgjs="http://svgjs.com/svgjs" version="1.1" width="512" height="512" x="0" y="0" viewBox="0 0 60 60" style="enable-background:new 0 0 512 512" xml:space="preserve" class=""><g><path xmlns="http://www.w3.org/2000/svg" d="m50.6465454 12.9578247c.3009644-.3485718.2626953-.8755493-.0858765-1.1764526-.348999-.3009644-.8759155-.2622681-1.1764526.0859375-12.5014648 14.4764404-33.2470093 16.8944702-39.3071899 17.2911377l-.1482544.0097656c-.4381714.0292969-.7781982.3929443-.7781982.8319092s.3400269.8026123.7781982.8319702c1.074646.0720825 26.4681396 1.9415894 39.4497681 17.2935791.164917.1950684.4002686.2956543.6372681.2956543.1901855 0 .3815308-.0647583.5379028-.1971436.3518677-.2972412.395813-.8237915.0985718-1.1751709-1.3590088-1.6072388-2.848999-3.055542-4.4138794-4.3886719 2.1241455-3.0605469 3.4060669-6.5004272 3.8508911-10.0250854.1246948-.7531738.1817627-1.5569458.1762695-2.3887329.0852661-4.5386353-1.2095337-9.0892944-3.8762817-13.0307007 1.4852294-1.296875 2.9157714-2.7046509 4.2572631-4.2579956zm-2.6407471 21.0985718c-.3530884.895874-.829895 1.4639282-1.2440796 1.4822388-.4051514.0228271-.9390259-.5045166-1.3710327-1.3657837-.5481567-1.0933838-.9036255-2.644043-.9752808-4.2545776-.1551514-3.4881592.9846191-5.7694092 1.8373413-5.807251.0073242-.0004272.0142212-.0004272.0215454-.0004272.4105225 0 .9255981.5200195 1.3495483 1.3662109.5480957 1.0933838.9035645 2.6444702.9752808 4.2550049.0066528.1494751-.0015259.295105.0002441.4436646-.0123901.7333984-.0681152 1.4651489-.1580811 2.194397-.1025389.6181029-.2426756 1.1980589-.4354857 1.6865233zm-.6625366-11.3391724c-.3725586-.1949463-.7633667-.2912598-1.1646729-.272522-2.142334.0956421-3.6168213 3.340332-3.4295044 7.5476685.0830688 1.8634644.4918823 3.6136475 1.1507568 4.9277344.7411499 1.4794312 1.7453003 2.2869263 2.8366699 2.2869263.032959 0 .0663452-.0004272.0993652-.0020752.1466675-.0064697.2902222-.0287476.4310303-.0635986-.5819702 1.5470581-1.354248 3.0396118-2.3178711 4.4483643-9.1365967-7.1740723-20.687561-10.2469482-28.0043335-11.5358276 7.9067383-1.2683105 19.0045166-4.3500977 28.1608276-11.7590332.9328005 1.4034422 1.6787111 2.8867186 2.2377321 4.4223631z" fill="#970e82" data-original="#000000" style="" class=""/></g></svg>
