<?xml version="1.0" encoding="UTF-8"?>
<svg width="32px" height="32px" viewBox="0 0 32 32" version="1.1" xmlns="http://www.w3.org/2000/svg" xmlns:xlink="http://www.w3.org/1999/xlink">
    <!-- Generator: Sketch 44.1 (41455) - http://www.bohemiancoding.com/sketch -->
    <title>Metarubrick / Industrial / packaging</title>
    <desc>Created with Sketch.</desc>
    <defs></defs>
    <g id="Page-1" stroke="none" stroke-width="1" fill="none" fill-rule="evenodd">
        <g id="New-meta-draft" transform="translate(-384.000000, -3584.000000)">
            <g id="Slice" transform="translate(84.000000, 84.000000)"></g>
            <g id="Icon" transform="translate(51.000000, 42.000000)" stroke="#52B311" stroke-width="2">
                <g id="Industrial" transform="translate(22.000000, 3494.000000)">
                    <g id="Packaging" transform="translate(314.000000, 52.000000)">
                        <path d="M26,7 L22.576,1.008 C22.22,0.385 21.557,0 20.839,0 L5.161,0 C4.443,0 3.78,0.385 3.424,1.008 L0,7 L0,22 C0,23.104 0.97,24 2.167,24 L23.833,24 C25.03,24 26,23.104 26,22 L26,7 Z" id="Stroke-1"></path>
                        <path d="M4,7 L22,7" id="Stroke-3"></path>
                        <path d="M13,1 L13,7" id="Stroke-5"></path>
                        <path d="M5,19 L5,16" id="Stroke-7"></path>
                        <path d="M9,19 L9,16" id="Stroke-9"></path>
                    </g>
                </g>
            </g>
        </g>
    </g>
</svg>