<svg height="512pt" viewBox="-61 0 512 512" width="512pt" xmlns="http://www.w3.org/2000/svg"><path d="m195 330c74.4375 0 135-60.5625 135-135s-60.5625-135-135-135-135 60.5625-135 135 60.5625 135 135 135zm0-240c57.898438 0 105 47.101562 105 105s-47.101562 105-105 105-105-47.101562-105-105 47.101562-105 105-105zm0 0"/><path d="m195 512c4.375-5.621094 145.492188-186.488281 156.085938-200.097656 25.457031-33.941406 38.914062-74.367188 38.914062-116.902344 0-107.523438-87.476562-195-195-195s-195 87.476562-195 195c0 42.535156 13.457031 82.960938 38.914062 116.902344zm0-482c90.980469 0 165 74.019531 165 165 0 35.949219-11.351562 70.109375-32.832031 98.792969l-132.167969 169.367187-132.167969-169.367187c-21.480469-28.683594-32.832031-62.84375-32.832031-98.792969 0-90.980469 74.019531-165 165-165zm0 0"/><path d="m180 210h30c24.8125 0 45-20.1875 45-45s-20.1875-45-45-45c-21.042969 0-39.09375 0-60 0v150h30zm30-60c8.269531 0 15 6.730469 15 15s-6.730469 15-15 15h-30v-30zm0 0"/></svg>