<?xml version="1.0"?>
<svg xmlns="http://www.w3.org/2000/svg" xmlns:xlink="http://www.w3.org/1999/xlink" xmlns:svgjs="http://svgjs.com/svgjs" version="1.1" width="512" height="512" x="0" y="0" viewBox="0 0 512 512" style="enable-background:new 0 0 512 512" xml:space="preserve" class=""><g><g xmlns="http://www.w3.org/2000/svg"><g><path d="m418.909 276.003v-119.501c0-34.523-23.338-63.673-55.046-72.526 1.72-3.746 2.688-7.907 2.688-12.293v-42.141c0-16.289-13.24-29.542-29.514-29.542h-238.496c-16.273 0-29.514 13.253-29.514 29.542v42.141c0 4.386.967 8.547 2.688 12.293-31.707 8.854-55.045 38.004-55.045 72.526v90.91c0 5.528 4.478 10.009 10 10.009s10-4.482 10-10.009v-90.91c0-30.483 24.776-55.283 55.23-55.283h251.778c30.454 0 55.23 24.8 55.23 55.283v113.264c-8.605-1.88-17.43-2.829-26.237-2.829-21.239.001-41.233 5.435-58.672 14.983-.503-.935-1.068-1.831-1.686-2.687 2.849-3.952 4.534-8.798 4.534-14.033v-27.619c0-1.372-.122-2.715-.343-4.024h28.4c13.245 0 24.021-10.787 24.021-24.044v-27.619c0-13.258-10.776-24.044-24.021-24.044h-195.27c-13.245 0-24.021 10.787-24.021 24.044v27.619c0 1.372.122 2.715.343 4.025h-28.4c-13.245 0-24.021 10.786-24.021 24.043v27.619c0 5.237 1.686 10.084 4.536 14.037-2.849 3.953-4.535 8.801-4.535 14.038v27.613c0 13.26 10.772 24.047 24.014 24.047h19.095c-.221 1.308-.342 2.649-.342 4.018v27.623c0 1.373.122 2.717.344 4.028h-19.094c-13.241 0-24.014 10.783-24.014 24.037v27.623c0 13.26 10.772 24.047 24.014 24.047h24.207c-.221 1.308-.342 2.649-.342 4.018v27.623c0 1.373.122 2.718.344 4.029h-29.862c-30.454 0-55.23-24.8-55.23-55.283v-101.244c0-5.528-4.478-10.009-10-10.009s-10 4.482-10 10.009v101.245c0 41.521 33.748 75.301 75.23 75.301h280.773c67.633 0 122.656-54.592 122.656-122.289.001-51.331-31.639-95.398-76.42-113.708zm-72.358-246.461v42.141c0 5.219-4.216 9.465-9.417 9.518h-25.858v-61.182h25.762c5.245 0 9.513 4.271 9.513 9.523zm-110.156 51.659h-34.881v-61.182h34.881zm20-61.182h34.881v61.182h-34.881zm-74.881 61.182h-34.881v-61.182h34.881zm-92.487-51.659c0-5.251 4.268-9.523 9.514-9.523h28.092v61.182h-28.188c-5.201-.053-9.417-4.299-9.417-9.518v-42.141zm56.587 179.971v-27.619c0-2.22 1.804-4.025 4.021-4.025h195.27c2.218 0 4.021 1.805 4.021 4.025v27.619c0 2.22-1.804 4.025-4.021 4.025h-195.27c-2.217 0-4.021-1.805-4.021-4.025zm-52.077 28.068c0-2.219 1.804-4.024 4.021-4.024h195.271c2.217 0 4.021 1.805 4.021 4.024v27.619c0 2.22-1.804 4.025-4.021 4.025h-195.271c-2.217 0-4.021-1.805-4.021-4.025zm.002 83.306v-27.613c0-2.221 1.801-4.028 4.014-4.028h195.276c2.196 0 3.987 1.77 4.023 3.96-11.179 8.817-20.857 19.635-28.376 31.71h-170.923c-2.213 0-4.014-1.808-4.014-4.029zm42.767 55.689v-27.623c0-2.216 1.801-4.018 4.014-4.018h118.127c-4.45 11.397-7.196 23.466-8.094 35.669h-110.034c-2.213 0-4.013-1.808-4.013-4.028zm-42.767 55.688v-27.623c0-2.216 1.801-4.018 4.014-4.018h152.95c1.071 12.232 4.015 24.305 8.664 35.669h-161.614c-2.213 0-4.014-1.807-4.014-4.028zm51.893 59.717c-2.213 0-4.014-1.807-4.014-4.029v-27.623c0-2.216 1.801-4.018 4.014-4.018h124.19c9.133 14.136 21.203 26.354 35.211 35.67zm227.242.483c-55.831 0-102.655-46.894-102.655-102.753 0-55.941 46.93-102.913 102.906-102.75 55.756.137 102.405 46.919 102.405 102.75 0 56.658-46.052 102.753-102.656 102.753z" fill="#9b780e" data-original="#000000" style=""/><path d="m21.12 299.372c3.555 2.375 8.325 2.184 11.699-.432 3.302-2.56 4.638-7.068 3.334-11.024-1.335-4.048-5.216-6.875-9.483-6.875-4.187 0-7.99 2.713-9.408 6.642-1.53 4.237.075 9.212 3.858 11.689z" fill="#9b780e" data-original="#000000" style=""/></g><path d="m389.412 379.484c-2.163-.766-4.332-1.518-6.498-2.274v-38.671c3.32 1.407 5.623 3.348 6.678 4.35 1.837 2.375 4.705 3.911 7.938 3.911 5.546 0 10.042-4.5 10.042-10.052 0-2.602-.996-4.965-2.617-6.75l.008-.007c-.51-.567-8.771-9.543-22.05-12.336v-5.187c0-5.528-4.478-10.009-10-10.009s-10 4.482-10 10.009v6.285c-1.206.378-2.424.798-3.667 1.305-11.972 4.891-20.411 14.704-23.155 26.924-2.614 11.641.611 23.825 8.628 32.593 4.569 4.998 10.839 8.485 18.194 11.548v47.752c-5.691-.627-9.716-2.309-16.214-6.564-4.623-3.027-10.819-1.728-13.843 2.896-3.023 4.626-1.729 10.83 2.894 13.856 10.612 6.949 18.01 9.239 27.163 9.916v7.779c0 5.528 4.478 10.009 10 10.009s10-4.482 10-10.009v-8.698c18.308-4.297 30.058-19.79 32.625-35.073 3.3-19.644-6.955-36.72-26.126-43.503zm-26.498-10.663c-1.388-.883-2.559-1.796-3.44-2.761-3.656-4-5.066-9.354-3.869-14.689.979-4.357 3.569-8.088 7.31-10.675v28.125zm32.901 50.848c-1.128 6.719-5.504 13.829-12.901 17.332v-38.578c14.402 5.196 13.52 17.566 12.901 21.246z" fill="#9b780e" data-original="#000000" style=""/></g></g></svg>
