<?xml version="1.0"?>
<svg xmlns="http://www.w3.org/2000/svg" xmlns:xlink="http://www.w3.org/1999/xlink" xmlns:svgjs="http://svgjs.com/svgjs" version="1.1" width="512" height="512" x="0" y="0" viewBox="0 0 64 64" style="enable-background:new 0 0 512 512" xml:space="preserve"><g><path xmlns="http://www.w3.org/2000/svg" d="m32 4c-15.439 0-28 12.561-28 28 0 15.522 12.644 28 28 28 15.439 0 28-12.561 28-28s-12.561-28-28-28zm-26 28c0-14.336 11.663-26 26-26 6.777 0 12.955 2.609 17.587 6.872l-10.061 10.061c-.13-.116-.259-.226-.387-.33l1.591-3.987 2.741-1.828c1.102-.734-.01-2.398-1.109-1.664l-3 2c-.169.112-.299.273-.374.461l-1.559 3.906c-.268-.135-.504-.238-.699-.315-.247-.676-.722-1.478-1.498-2.113l.57-2.497 2.669-1.779c1.102-.734-.01-2.4-1.109-1.664l-3 2c-.213.142-.363.36-.42.609l-.55 2.409c-.945-.246-1.982-.252-2.95 0l-.55-2.409c-.057-.25-.207-.467-.42-.609l-3-2c-1.103-.736-2.21.932-1.109 1.664l2.669 1.779.57 2.497c-.776.635-1.251 1.437-1.498 2.113-.195.076-.432.18-.699.315l-1.559-3.906c-.075-.188-.205-.349-.374-.461l-3-2c-1.105-.735-2.209.932-1.109 1.664l2.741 1.828 1.591 3.987c-1.12.904-2.344 2.283-3.273 4.353h-2.505c-.431 0-.813.275-.948.684l-1.907 5.72-4.77 3.815c-1.046.838.231 2.376 1.25 1.562l5-4c.15-.12.263-.282.323-.464l1.772-5.316h1.057c-.705 2.435-.993 5.572-.589 8.671l-2.666 1.451c-.322.175-.522.512-.522.878v5.586l-4.044 4.044c-4.264-4.632-6.873-10.81-6.873-17.587zm16.602 7.857c-1.732-5.69-.368-14.653 5.224-16.817.566.277 1.648.713 3.091.864v7.639zm8.314-5.486v13.483c-2.3-.402-5.604-2.153-7.505-5.978zm-1.746-12.923c1.101-2.01 4.398-2.003 5.492 0-1.713.665-3.712.691-5.492 0zm6.836 1.592c.435.169 1.23.559 2.098 1.314l-5.188 5.188v-5.639c1.442-.15 2.524-.586 3.09-.863zm-3.09 9.331 6.543-6.543c1.311 1.793 2.457 4.643 2.457 9.129 0 8.796-5.609 12.305-9 12.897 0-7.159 0-11.811 0-15.483zm-11.879 9.051-2.121 2.121v-2.992l1.58-.86c.154.608.334 1.185.541 1.731zm10.963 16.578c-6.842 0-13.07-2.66-17.717-6.995 2.53-2.53 4.682-4.682 7.638-7.638 2.683 4.793 7.404 6.591 9.995 6.591 3.168 0 9.502-2.703 11.42-10.266l1.58.86v5.406c0 .265.105.52.293.707l2 2c.391.391 1.023.391 1.414 0s.391-1.023 0-1.414l-1.707-1.707v-5.586c0-.366-.2-.703-.522-.878l-2.666-1.451c.11-.845.188-1.722.188-2.671 0-2.376-.3-4.35-.777-6h1.057l1.772 5.316c.061.183.173.344.323.464l5 4c1.018.813 2.297-.724 1.25-1.562l-4.77-3.815-1.907-5.72c-.136-.408-.518-.684-.948-.684h-2.505c-.453-1.008-.974-1.855-1.521-2.56l10.115-10.115c4.335 4.648 6.995 10.876 6.995 17.718 0 14.336-11.663 26-26 26z" fill="#c30c0c" data-original="#000000" style=""/></g></svg>
