<?xml version="1.0"?>
<svg xmlns="http://www.w3.org/2000/svg" xmlns:xlink="http://www.w3.org/1999/xlink" xmlns:svgjs="http://svgjs.com/svgjs" version="1.1" width="512" height="512" x="0" y="0" viewBox="0 0 511.986 511.986" style="enable-background:new 0 0 512 512" xml:space="preserve" class=""><g><g xmlns="http://www.w3.org/2000/svg"><circle cx="174.032" cy="407.81" r="10" fill="#721919" data-original="#000000" style="" class=""/><path d="m503.214 131.502-34.309-34.309 1.904-1.904c14.919-14.919 14.919-39.193 0-54.112-14.921-14.919-39.193-14.917-54.112 0l-1.904 1.904-34.31-34.309c-11.695-11.696-30.728-11.694-42.426 0-5.666 5.666-8.787 13.2-8.787 21.214s3.121 15.548 8.787 21.214l34.309 34.308-14.142 14.142-34.309-34.309c-5.666-5.666-13.2-8.787-21.214-8.787-8.013 0-15.546 3.121-21.213 8.787-5.666 5.667-8.787 13.2-8.787 21.213 0 8.014 3.121 15.548 8.787 21.214l34.309 34.309-14.142 14.142-34.309-34.309c-5.666-5.666-13.2-8.787-21.214-8.787-8.013 0-15.546 3.121-21.213 8.787-5.666 5.667-8.787 13.2-8.787 21.213 0 8.014 3.121 15.548 8.787 21.214l34.309 34.309-45.935 45.935-7.872-7.872c-3.906-3.904-10.236-3.904-14.143 0l-188.349 188.349c-3.905 3.905-3.905 10.237 0 14.143l69.856 69.857c1.953 1.952 4.512 2.929 7.071 2.929 2.56 0 5.118-.977 7.071-2.929l62.355-62.355c3.905-3.905 3.905-10.237 0-14.143-3.906-3.904-10.236-3.904-14.143 0l-14.962 14.962-55.714-55.714 93.564-93.564 55.714 55.714-14.962 14.962c-3.905 3.905-3.905 10.237 0 14.143 3.906 3.904 10.236 3.904 14.143 0l62.355-62.355c3.905-3.905 3.905-10.237 0-14.143l-7.872-7.872 45.934-45.935 34.309 34.309c5.666 5.666 13.2 8.787 21.214 8.787 8.013 0 15.546-3.121 21.213-8.787 5.666-5.667 8.787-13.2 8.787-21.213 0-8.014-3.121-15.548-8.787-21.214l-34.309-34.309 14.142-14.142 34.309 34.309c5.666 5.666 13.2 8.787 21.214 8.787 8.013 0 15.546-3.121 21.213-8.787 5.666-5.667 8.787-13.2 8.787-21.213 0-8.014-3.121-15.548-8.787-21.214l-34.309-34.309 14.142-14.142 34.308 34.309c5.666 5.666 13.2 8.787 21.214 8.787s15.548-3.121 21.214-8.788c11.696-11.696 11.696-30.729.001-42.426zm-151.015-94.445c-3.899-3.899-3.899-10.243-.001-14.143 3.899-3.897 10.243-3.899 14.143 0l34.309 34.309-14.142 14.142zm-56.568 56.568c-3.899-3.898-3.899-10.243 0-14.142 3.897-3.899 10.242-3.901 14.142 0l34.309 34.309-14.142 14.142zm-56.568 56.569c-3.899-3.898-3.899-10.243 0-14.142 3.898-3.899 10.242-3.901 14.142 0l34.309 34.309-14.142 14.142zm-133.027 311.469-26.18 26.18-55.714-55.714 26.18-26.18zm121.85-121.849-55.714-55.714 26.179-26.179 55.714 55.714zm-.449-81.092 203.402-203.402c7.12-7.12 18.705-7.122 25.827 0 7.121 7.12 7.121 18.707 0 25.827l-203.402 203.402zm148.497.059c3.899 3.898 3.899 10.243 0 14.142-3.897 3.9-10.242 3.9-14.142 0l-34.309-34.309 14.142-14.142zm56.568-56.568c3.899 3.898 3.899 10.243 0 14.142-3.898 3.9-10.242 3.9-14.142 0l-34.309-34.309 14.142-14.142zm56.57-42.427c-3.897 3.899-10.243 3.899-14.143 0l-34.308-34.309 14.142-14.142 34.309 34.308c3.898 3.9 3.898 10.245 0 14.143z" fill="#721919" data-original="#000000" style="" class=""/></g></g></svg>
