<?xml version="1.0"?>
<svg xmlns="http://www.w3.org/2000/svg" xmlns:xlink="http://www.w3.org/1999/xlink" xmlns:svgjs="http://svgjs.com/svgjs" version="1.1" width="512" height="512" x="0" y="0" viewBox="0 0 520 520" style="enable-background:new 0 0 512 512" xml:space="preserve" class=""><g><g xmlns="http://www.w3.org/2000/svg" id="_x37_59_x2C__Call_x2C__Phone_x2C__Telephone_x2C__Communication"><g><path d="m125 377.5c-15.19 0-27.5-12.31-27.5-27.5v-92.5-102.5c0-15.19 12.31-27.5 27.5-27.5h295c15.18 0 27.5 12.31 27.5 27.5v195c0 15.19-12.32 27.5-27.5 27.5-23.16 0-294.402 0-295 0z" fill="#ffffff" data-original="#ffffff" style=""/><circle cx="402.5" cy="442.5" fill="#9bc9ff" r="30" data-original="#9bc9ff" style=""/><path d="m167.5 47.5c11.04 0 20 8.95 20 20s-8.96 20-20 20c-11.05 0-20-8.95-20-20s8.95-20 20-20z" fill="#9bc9ff" data-original="#9bc9ff" style=""/><path d="m287.5 157.5h130v40h-130z" fill="#9bc9ff" data-original="#9bc9ff" style=""/><path d="m402.5 317.5c8.279 0 15 6.72 15 15s-6.721 15-15 15c-8.29 0-15-6.72-15-15s6.71-15 15-15z" fill="#9bc9ff" data-original="#9bc9ff" style=""/><path d="m402.5 272.5c8.279 0 15 6.72 15 15s-6.721 15-15 15c-8.29 0-15-6.72-15-15s6.71-15 15-15z" fill="#9bc9ff" data-original="#9bc9ff" style=""/><path d="m402.5 227.5c8.279 0 15 6.72 15 15s-6.721 15-15 15c-8.29 0-15-6.72-15-15s6.71-15 15-15z" fill="#9bc9ff" data-original="#9bc9ff" style=""/><path d="m352.5 227.5c8.279 0 15 6.72 15 15s-6.721 15-15 15c-8.29 0-15-6.72-15-15s6.71-15 15-15z" fill="#9bc9ff" data-original="#9bc9ff" style=""/><path d="m352.5 272.5c8.279 0 15 6.72 15 15s-6.721 15-15 15c-8.29 0-15-6.72-15-15s6.71-15 15-15z" fill="#9bc9ff" data-original="#9bc9ff" style=""/><path d="m352.5 317.5c8.279 0 15 6.72 15 15s-6.721 15-15 15c-8.29 0-15-6.72-15-15s6.71-15 15-15z" fill="#9bc9ff" data-original="#9bc9ff" style=""/><path d="m302.5 317.5c8.279 0 15 6.72 15 15s-6.721 15-15 15c-8.29 0-15-6.72-15-15s6.71-15 15-15z" fill="#9bc9ff" data-original="#9bc9ff" style=""/><path d="m302.5 272.5c8.279 0 15 6.72 15 15s-6.721 15-15 15c-8.29 0-15-6.72-15-15s6.71-15 15-15z" fill="#9bc9ff" data-original="#9bc9ff" style=""/><path d="m302.5 227.5c8.279 0 15 6.72 15 15s-6.721 15-15 15c-8.29 0-15-6.72-15-15s6.71-15 15-15z" fill="#9bc9ff" data-original="#9bc9ff" style=""/><path d="m162.5 172.5h34.25c8.7 0 15.75 7.05 15.75 15.75v154.25 35 9.25c0 8.7-7.05 15.75-15.75 15.75h-24.25-19.25c-8.7 0-15.75-7.05-15.75-15.75v-9.25-189.25c0-8.7 7.05-15.75 15.75-15.75z" fill="#9bc9ff" data-original="#9bc9ff" style=""/><g fill="#1e81ce"><path d="m480 392.5c4.14 0 7.5 3.36 7.5 7.5s-3.36 7.5-7.5 7.5c-4.15 0-7.5-3.36-7.5-7.5s3.35-7.5 7.5-7.5z" fill="#1e81ce" data-original="#1e81ce" style="" class=""/><path d="m470 52.5c4.14 0 7.5 3.36 7.5 7.5s-3.36 7.5-7.5 7.5c-4.15 0-7.5-3.36-7.5-7.5s3.35-7.5 7.5-7.5z" fill="#1e81ce" data-original="#1e81ce" style="" class=""/><path d="m370 82.5c4.14 0 7.5 3.36 7.5 7.5s-3.36 7.5-7.5 7.5c-4.15 0-7.5-3.36-7.5-7.5s3.35-7.5 7.5-7.5z" fill="#1e81ce" data-original="#1e81ce" style="" class=""/><path d="m330 437.5c4.14 0 7.5 3.36 7.5 7.5s-3.36 7.5-7.5 7.5c-4.15 0-7.5-3.36-7.5-7.5s3.35-7.5 7.5-7.5z" fill="#1e81ce" data-original="#1e81ce" style="" class=""/><path d="m270 52.5c4.14 0 7.5 3.36 7.5 7.5s-3.36 7.5-7.5 7.5c-4.15 0-7.5-3.36-7.5-7.5s3.35-7.5 7.5-7.5z" fill="#1e81ce" data-original="#1e81ce" style="" class=""/><path d="m220 437.5c4.14 0 7.5 3.36 7.5 7.5s-3.36 7.5-7.5 7.5c-4.15 0-7.5-3.36-7.5-7.5s3.35-7.5 7.5-7.5z" fill="#1e81ce" data-original="#1e81ce" style="" class=""/><path d="m60 97.5c4.14 0 7.5 3.36 7.5 7.5s-3.36 7.5-7.5 7.5c-4.15 0-7.5-3.36-7.5-7.5s3.35-7.5 7.5-7.5z" fill="#1e81ce" data-original="#1e81ce" style="" class=""/><path d="m40 427.5c4.14 0 7.5 3.36 7.5 7.5s-3.36 7.5-7.5 7.5c-4.15 0-7.5-3.36-7.5-7.5s3.35-7.5 7.5-7.5z" fill="#1e81ce" data-original="#1e81ce" style="" class=""/><path d="m420 382.5h-207.5c-2.761 0-5-2.238-5-5s2.239-5 5-5h207.5c12.406 0 22.5-10.094 22.5-22.5v-195c0-12.407-10.094-22.5-22.5-22.5h-295c-12.407 0-22.5 10.093-22.5 22.5v195c0 12.406 10.093 22.5 22.5 22.5h12.5c2.761 0 5 2.238 5 5s-2.239 5-5 5h-12.5c-17.92 0-32.5-14.579-32.5-32.5v-195c0-17.92 14.58-32.5 32.5-32.5h295c17.92 0 32.5 14.58 32.5 32.5v195c0 17.921-14.58 32.5-32.5 32.5z" fill="#1e81ce" data-original="#1e81ce" style="" class=""/><path d="m196.75 407.5h-43.5c-11.441 0-20.75-9.309-20.75-20.75v-198.5c0-11.441 9.309-20.75 20.75-20.75h43.5c11.441 0 20.75 9.309 20.75 20.75v198.5c0 11.441-9.309 20.75-20.75 20.75zm-43.5-230c-5.928 0-10.75 4.822-10.75 10.75v198.5c0 5.928 4.822 10.75 10.75 10.75h43.5c5.928 0 10.75-4.822 10.75-10.75v-198.5c0-5.928-4.822-10.75-10.75-10.75z" fill="#1e81ce" data-original="#1e81ce" style="" class=""/><path d="m302.5 352.5c-11.027 0-20-8.972-20-20s8.973-20 20-20 20 8.972 20 20-8.973 20-20 20zm0-30c-5.514 0-10 4.486-10 10s4.486 10 10 10 10-4.486 10-10-4.486-10-10-10z" fill="#1e81ce" data-original="#1e81ce" style="" class=""/><path d="m352.5 352.5c-11.027 0-20-8.972-20-20s8.973-20 20-20 20 8.972 20 20-8.973 20-20 20zm0-30c-5.514 0-10 4.486-10 10s4.486 10 10 10 10-4.486 10-10-4.486-10-10-10z" fill="#1e81ce" data-original="#1e81ce" style="" class=""/><path d="m402.5 352.5c-11.027 0-20-8.972-20-20s8.973-20 20-20 20 8.972 20 20-8.973 20-20 20zm0-30c-5.514 0-10 4.486-10 10s4.486 10 10 10 10-4.486 10-10-4.486-10-10-10z" fill="#1e81ce" data-original="#1e81ce" style="" class=""/><path d="m302.5 307.5c-11.027 0-20-8.972-20-20s8.973-20 20-20 20 8.972 20 20-8.973 20-20 20zm0-30c-5.514 0-10 4.486-10 10s4.486 10 10 10 10-4.486 10-10-4.486-10-10-10z" fill="#1e81ce" data-original="#1e81ce" style="" class=""/><path d="m352.5 307.5c-11.027 0-20-8.972-20-20s8.973-20 20-20 20 8.972 20 20-8.973 20-20 20zm0-30c-5.514 0-10 4.486-10 10s4.486 10 10 10 10-4.486 10-10-4.486-10-10-10z" fill="#1e81ce" data-original="#1e81ce" style="" class=""/><path d="m402.5 307.5c-11.027 0-20-8.972-20-20s8.973-20 20-20 20 8.972 20 20-8.973 20-20 20zm0-30c-5.514 0-10 4.486-10 10s4.486 10 10 10 10-4.486 10-10-4.486-10-10-10z" fill="#1e81ce" data-original="#1e81ce" style="" class=""/><path d="m302.5 262.5c-11.027 0-20-8.972-20-20s8.973-20 20-20 20 8.972 20 20-8.973 20-20 20zm0-30c-5.514 0-10 4.486-10 10s4.486 10 10 10 10-4.486 10-10-4.486-10-10-10z" fill="#1e81ce" data-original="#1e81ce" style="" class=""/><path d="m352.5 262.5c-11.027 0-20-8.972-20-20s8.973-20 20-20 20 8.972 20 20-8.973 20-20 20zm0-30c-5.514 0-10 4.486-10 10s4.486 10 10 10 10-4.486 10-10-4.486-10-10-10z" fill="#1e81ce" data-original="#1e81ce" style="" class=""/><path d="m402.5 262.5c-11.027 0-20-8.972-20-20s8.973-20 20-20 20 8.972 20 20-8.973 20-20 20zm0-30c-5.514 0-10 4.486-10 10s4.486 10 10 10 10-4.486 10-10-4.486-10-10-10z" fill="#1e81ce" data-original="#1e81ce" style="" class=""/><path d="m417.5 202.5h-130c-2.762 0-5-2.239-5-5v-40c0-2.761 2.238-5 5-5h130c2.762 0 5 2.239 5 5v40c0 2.761-2.238 5-5 5zm-125-10h120v-30h-120z" fill="#1e81ce" data-original="#1e81ce" style="" class=""/><path d="m120 472.5c-31.706 0-57.5-25.794-57.5-57.5v-127.5c0-19.299 15.701-35 35-35 2.761 0 5 2.239 5 5 0 2.762-2.239 5-5 5-13.785 0-25 11.215-25 25v127.5c0 26.191 21.309 47.5 47.5 47.5 12.684 0 24.611-4.942 33.585-13.915 8.974-8.974 13.915-20.901 13.915-33.585v-12.5c0-2.762 2.239-5 5-5s5 2.238 5 5v12.5c0 15.354-5.982 29.793-16.844 40.655-10.862 10.863-25.301 16.845-40.656 16.845z" fill="#1e81ce" data-original="#1e81ce" style="" class=""/><path d="m162.5 342.5c-2.761 0-5-2.238-5-5v-165c0-2.761 2.239-5 5-5s5 2.239 5 5v165c0 2.762-2.239 5-5 5z" fill="#1e81ce" data-original="#1e81ce" style="" class=""/><path d="m262.5 347.5h-50c-2.761 0-5-2.238-5-5s2.239-5 5-5h50c2.762 0 5 2.238 5 5s-2.238 5-5 5z" fill="#1e81ce" data-original="#1e81ce" style="" class=""/><path d="m402.5 477.5c-19.299 0-35-15.701-35-35s15.701-35 35-35 35 15.701 35 35-15.701 35-35 35zm0-60c-13.785 0-25 11.215-25 25s11.215 25 25 25 25-11.215 25-25-11.215-25-25-25z" fill="#1e81ce" data-original="#1e81ce" style="" class=""/><path d="m167.5 92.5c-13.785 0-25-11.215-25-25s11.215-25 25-25 25 11.215 25 25-11.215 25-25 25zm0-40c-8.271 0-15 6.729-15 15s6.729 15 15 15 15-6.729 15-15-6.729-15-15-15z" fill="#1e81ce" data-original="#1e81ce" style="" class=""/></g></g></g></g></svg>
