<?xml version="1.0"?>
<svg xmlns="http://www.w3.org/2000/svg" xmlns:xlink="http://www.w3.org/1999/xlink" xmlns:svgjs="http://svgjs.com/svgjs" version="1.1" width="512" height="512" x="0" y="0" viewBox="0 0 128 128" style="enable-background:new 0 0 512 512" xml:space="preserve"><g><g xmlns="http://www.w3.org/2000/svg"><path d="M32.114,82.192a1.75,1.75,0,0,0-2.331.83l-2.5,5.257a1.75,1.75,0,0,0,.829,2.332,1.729,1.729,0,0,0,.75.169,1.749,1.749,0,0,0,1.582-1l2.5-5.257A1.75,1.75,0,0,0,32.114,82.192Z" fill="#cb1111" data-original="#000000" style=""/><path d="M64,70.845A21.75,21.75,0,1,0,85.75,92.6,21.775,21.775,0,0,0,64,70.845Zm0,40A18.25,18.25,0,1,1,82.25,92.6,18.271,18.271,0,0,1,64,110.845Z" fill="#cb1111" data-original="#000000" style=""/><path d="M64,76.845A15.75,15.75,0,1,0,79.75,92.6,15.767,15.767,0,0,0,64,76.845Zm0,28A12.25,12.25,0,1,1,76.25,92.6,12.263,12.263,0,0,1,64,104.845Z" fill="#cb1111" data-original="#000000" style=""/><path d="M116.658,27.711q-2.918-1.745-5.908-3.252V19a14.247,14.247,0,0,0-28.087-3.383,124.567,124.567,0,0,0-18.7-1.344c-20.585.01-37.305,4.28-52.617,13.438A13.714,13.714,0,0,0,6.194,45.556l4.351,8.7A4.764,4.764,0,0,0,14.8,56.883a4.693,4.693,0,0,0,1.553-.264l12.523-4.356a4.776,4.776,0,0,0,3.184-4.71l-.34-7.231c9.393-4.413,23.159-6.728,32.316-6.739,9.083.011,22.847,2.326,32.239,6.739l-.34,7.231a4.777,4.777,0,0,0,3.184,4.709l8.129,2.828v7.22a32.813,32.813,0,0,1-4.409,16.464L96.13,64.651a4.774,4.774,0,0,0-4.291-2.711H85.65V57.73a1.75,1.75,0,0,0-1.75-1.75h-12a1.751,1.751,0,0,0-1.75,1.75v4.21H57.85V57.73a1.751,1.751,0,0,0-1.75-1.75h-12a1.751,1.751,0,0,0-1.75,1.75v4.21H36.161a4.772,4.772,0,0,0-4.29,2.711L14.346,101.526a7.8,7.8,0,0,0-.75,3.328V118.5a4.756,4.756,0,0,0,4.75,4.75h91.308a4.756,4.756,0,0,0,4.75-4.75V104.854a7.814,7.814,0,0,0-.75-3.328l-9.032-19A36.3,36.3,0,0,0,110.75,62.31v-6l.895.311a4.758,4.758,0,0,0,5.809-2.361l4.352-8.7a13.714,13.714,0,0,0-5.148-17.845ZM73.65,59.48h8.5v2.46h-8.5Zm-27.8,0h8.5v2.46h-8.5ZM110.9,104.854V118.5a1.251,1.251,0,0,1-1.25,1.25H18.346a1.252,1.252,0,0,1-1.25-1.25V104.854a4.285,4.285,0,0,1,.411-1.826L35.032,66.153a1.258,1.258,0,0,1,1.129-.713H91.839a1.257,1.257,0,0,1,1.129.713l17.524,36.874A4.289,4.289,0,0,1,110.9,104.854ZM96.5,8.25A10.745,10.745,0,0,1,107.25,19v3.794A91.864,91.864,0,0,0,86.123,16.2,10.738,10.738,0,0,1,96.5,8.25Zm22.175,35.741-4.352,8.7a1.252,1.252,0,0,1-1.528.621l-12.524-4.358a1.255,1.255,0,0,1-.837-1.239l.394-8.382a1.753,1.753,0,0,0-.96-1.645c-9.879-4.979-25-7.595-34.91-7.607-9.829.012-24.947,2.628-34.826,7.607a1.751,1.751,0,0,0-.96,1.645l.394,8.382a1.241,1.241,0,0,1-.837,1.24L15.2,53.314a1.25,1.25,0,0,1-1.528-.621l-4.351-8.7a10.212,10.212,0,0,1,3.814-13.276c14.746-8.82,30.9-12.932,50.9-12.942,19.927.01,36.076,4.122,50.822,12.942a10.212,10.212,0,0,1,3.814,13.276Z" fill="#cb1111" data-original="#000000" style=""/></g></g></svg>
