<?xml version="1.0"?>
<svg xmlns="http://www.w3.org/2000/svg" xmlns:xlink="http://www.w3.org/1999/xlink" xmlns:svgjs="http://svgjs.com/svgjs" version="1.1" width="512" height="512" x="0" y="0" viewBox="0 0 512 512" style="enable-background:new 0 0 512 512" xml:space="preserve" class=""><g><g xmlns="http://www.w3.org/2000/svg"><path d="m511.298 162.628c-7.67-90.955-84.61-162.628-177.51-162.628-42.656 0-82.986 14.928-115.08 42.301-33.403 30.881-56.428 69.624-61.511 115.632-40.575 4.954-78.027 23.665-106.598 53.522-31.789 33.22-50.599 76.844-50.599 122.837 0 97.977 81.014 177.708 178.991 177.708 42.698 0 83.98-15.398 116.24-43.32 33.84-29.289 55.38-70.492 60.33-114.631 47.773-5.83 91.81-31.507 120.615-70.044 23.24-31.093 34.49-68.645 35.824-106.316zm-279.546 160.541-19.928 61.323h-65.676l-20.295-62.459 53.137-38.603zm-12.943-237.987c18.446 21.871 28.93 49.037 31.401 77.446h-63.223c2.882-28.433 13.919-55.238 31.822-77.446zm30.58 114.204c-3.569 25.859-14.112 50.469-30.703 70.656-17.774-22.057-28.87-49.108-31.706-77.294h63.171c-.208 2.22-.457 4.429-.762 6.638zm8.051 104.608c-6.118-3.708-11.968-7.875-17.486-12.426 23.699-27.747 37.538-62.523 40.442-98.819h38.329v131.741c-21.689-2.214-42.628-9.187-61.285-20.496zm91.404-111.246h38.386c3.043 36.492 17.118 70.717 40.612 98.776-21.842 18.06-49.031 29.945-78.998 32.965zm0-161.857c29.674 3.022 56.774 14.871 78.626 32.876-23.696 27.325-37.44 61.026-40.304 98.861h-38.322zm99.869 54.345c17.437 21.636 28.905 48.275 31.871 77.392h-63.223c2.607-29.822 13.116-55.75 31.352-77.392zm-129.989-54.355v131.747h-37.747-.563c-2.75-36.349-16.399-71.317-40.363-98.93 22.492-18.567 49.668-29.896 78.673-32.817zm-162.624 157.601c0 19.978 7.308 44.007 15.874 62.816l-66.316 48.177-62.993-21.876c19.313-46.562 61.752-81.125 113.435-89.117zm-124.677 145.81c0-9.503.901-18.797 2.611-27.806l62.106 21.568 21.762 66.973-45.121 41.603c-25.592-26.551-41.358-62.636-41.358-102.338zm64.542 121.931 45.13-41.611h75.783l45.168 41.652c-24.367 16.598-53.294 25.596-83.055 25.596-30.764 0-59.357-9.469-83.026-25.637zm189.275-19.543-45.169-41.652 18.332-56.413c20.865 9.775 43.646 15.424 66.66 16.548-4.381 30.562-18.359 59.202-39.823 81.517zm163.846-166.75c-17.845-22.198-28.758-48.818-31.615-77.182h63.12c-2.928 29.017-14.231 55.58-31.505 77.182z" fill="#d19f09" data-original="#000000" style="" class=""/></g></g></svg>
