<?xml version="1.0"?>
<svg xmlns="http://www.w3.org/2000/svg" xmlns:xlink="http://www.w3.org/1999/xlink" xmlns:svgjs="http://svgjs.com/svgjs" version="1.1" width="512" height="512" x="0" y="0" viewBox="0 0 480.681 480.681" style="enable-background:new 0 0 512 512" xml:space="preserve"><g><g xmlns="http://www.w3.org/2000/svg"><g id="_x34_8x48_px_6_"><g><g><path d="m0 460.652h480.681v20.028h-480.681z" fill="#4815a3" data-original="#4c4c4c" style=""/></g><g><path d="m10.014 390.553h30.043v20.028h-30.043z" fill="#4815a3" data-original="#4c4c4c" style=""/></g><g><path d="m70.099 390.553h30.043v20.028h-30.043z" fill="#4815a3" data-original="#4c4c4c" style=""/></g><g><path d="m130.184 390.553h30.043v20.028h-30.043z" fill="#4815a3" data-original="#4c4c4c" style=""/></g><g><path d="m190.269 390.553h30.043v20.028h-30.043z" fill="#4815a3" data-original="#4c4c4c" style=""/></g><g><path d="m250.355 390.553h30.043v20.028h-30.043z" fill="#4815a3" data-original="#4c4c4c" style=""/></g><g><path d="m310.44 390.553h30.043v20.028h-30.043z" fill="#4815a3" data-original="#4c4c4c" style=""/></g><g><path d="m370.525 390.553h30.043v20.028h-30.043z" fill="#4815a3" data-original="#4c4c4c" style=""/></g><g><path d="m430.61 390.553h30.043v20.028h-30.043z" fill="#4815a3" data-original="#4c4c4c" style=""/></g><g><path d="m330.468 130.184h60.085v20.028h-60.085z" fill="#4815a3" data-original="#4c4c4c" style=""/></g><g><path d="m90.128 130.184h60.085v20.028h-60.085z" fill="#4815a3" data-original="#4c4c4c" style=""/></g><g><path d="m57.181 340.482h-57.181v-20.028h42.961l42.961-120.17h-15.823v-20.029h44.263z" fill="#4815a3" data-original="#4c4c4c" style=""/></g><g><path d="m372.928 340.482h-265.175l34.348-160.227h38.154v20.029h-21.931l-25.736 120.17h215.505l-25.737-120.17h-21.931v-20.029h38.154z" fill="#4815a3" data-original="#4c4c4c" style=""/></g><g><path d="m480.681 340.482h-57.181l-57.181-160.227h44.262v20.029h-15.822l42.961 120.17h42.961z" fill="#4815a3" data-original="#4c4c4c" style=""/></g><g><path d="m240.34 236.235-7.811-9.614c-2.904-3.705-72.302-90.328-72.302-148.01 0-43.361 35.951-78.611 80.113-78.611s80.113 35.25 80.113 78.611c0 57.782-69.398 144.404-72.302 148.01zm0-216.207c-33.147 0-60.085 26.237-60.085 58.583 0 40.157 42.26 101.243 60.085 125.277 17.825-24.034 60.085-85.121 60.085-125.277 0-32.345-26.938-58.583-60.085-58.583z" fill="#4815a3" data-original="#4c4c4c" style=""/></g><g><path d="m240.34 110.156c-16.523 0-30.043-13.519-30.043-30.043s13.519-30.043 30.043-30.043 30.043 13.519 30.043 30.043-13.519 30.043-30.043 30.043zm0-40.057c-5.508 0-10.014 4.506-10.014 10.014s4.506 10.014 10.014 10.014 10.014-4.506 10.014-10.014c.001-5.507-4.506-10.014-10.014-10.014z" fill="#4815a3" data-original="#4c4c4c" style=""/></g></g></g></g></g></svg>
