<?xml version="1.0" encoding="UTF-8"?>
<svg width="32px" height="32px" viewBox="0 0 32 32" version="1.1" xmlns="http://www.w3.org/2000/svg" xmlns:xlink="http://www.w3.org/1999/xlink">
    <!-- Generator: Sketch 44.1 (41455) - http://www.bohemiancoding.com/sketch -->
    <title>Metarubrick / Renovation / plumbing</title>
    <desc>Created with Sketch.</desc>
    <defs></defs>
    <g id="Page-1" stroke="none" stroke-width="1" fill="none" fill-rule="evenodd">
        <g id="New-meta-draft" transform="translate(-584.000000, -3384.000000)">
            <g id="Slice" transform="translate(84.000000, 84.000000)"></g>
            <g id="Icon" transform="translate(51.000000, 42.000000)" stroke="#52B311" stroke-width="2">
                <g id="Renovation" transform="translate(12.000000, 3294.000000)">
                    <g id="Plumbing" transform="translate(523.000000, 51.000000)">
                        <path d="M22,26 L6,26 L5.46,23.298 C5.16,21.8 4.424,20.424 3.343,19.343 C1.843,17.843 1,15.808 1,13.687 L1,12 L22,12 L22,26 Z" id="Stroke-1"></path>
                        <path d="M13,8 L0,8" id="Stroke-3"></path>
                        <path d="M24,0 L20,0 C18.343,0 17,1.343 17,3 L17,12 L24,12 C25.657,12 27,10.657 27,9 L27,3 C27,1.343 25.657,0 24,0 Z" id="Stroke-5"></path>
                        <path d="M9,21 L12,21 C14.762,21 17,18.762 17,16" id="Stroke-7"></path>
                    </g>
                </g>
            </g>
        </g>
    </g>
</svg>