<?xml version="1.0" encoding="UTF-8"?>
<svg width="32px" height="32px" viewBox="0 0 32 32" version="1.1" xmlns="http://www.w3.org/2000/svg" xmlns:xlink="http://www.w3.org/1999/xlink">
    <!-- Generator: Sketch 44.1 (41455) - http://www.bohemiancoding.com/sketch -->
    <title>Metarubrick / B2B / polygraphy</title>
    <desc>Created with Sketch.</desc>
    <defs></defs>
    <g id="Page-1" stroke="none" stroke-width="1" fill="none" fill-rule="evenodd">
        <g id="New-meta-draft" transform="translate(-84.000000, -3784.000000)">
            <g id="Slice" transform="translate(84.000000, 84.000000)"></g>
            <g id="Icon" transform="translate(51.000000, 42.000000)" stroke-width="2" stroke="#8345FE">
                <g id="B2B" transform="translate(12.000000, 3693.000000)">
                    <g id="Polygraphy" transform="translate(24.000000, 50.000000)">
                        <polyline id="Stroke-1" points="4 9 4 0 18 0 22 4 22 9"></polyline>
                        <polyline id="Stroke-3" points="22 6 16 6 16 3"></polyline>
                        <path d="M24,20 L2,20 C0.896,20 0,19.104 0,18 L0,14 C0,12.896 0.896,12 2,12 L24,12 C25.104,12 26,12.896 26,14 L26,18 C26,19.104 25.104,20 24,20 Z" id="Stroke-4"></path>
                        <polyline id="Stroke-6" points="4 23 4 30 22 30 22 23"></polyline>
                        <path d="M3,16 L7,16" id="Stroke-8"></path>
                    </g>
                </g>
            </g>
        </g>
    </g>
</svg>