<?xml version="1.0"?>
<svg xmlns="http://www.w3.org/2000/svg" xmlns:xlink="http://www.w3.org/1999/xlink" xmlns:svgjs="http://svgjs.com/svgjs" version="1.1" width="512" height="512" x="0" y="0" viewBox="0 0 24 24" style="enable-background:new 0 0 512 512" xml:space="preserve"><g><g xmlns="http://www.w3.org/2000/svg"><path d="m19.5 21h-17c-1.378 0-2.5-1.122-2.5-2.5v-1c0-1.93 1.57-3.5 3.5-3.5h10.35c.276 0 .5.224.5.5s-.224.5-.5.5h-10.35c-1.378 0-2.5 1.122-2.5 2.5v1c0 .827.673 1.5 1.5 1.5h17c.827 0 1.5-.673 1.5-1.5v-1c0-.626-.233-1.223-.657-1.681-.188-.203-.175-.519.028-.707.201-.188.519-.176.707.028.594.644.922 1.482.922 2.36v1c0 1.378-1.122 2.5-2.5 2.5z" fill="#731395" data-original="#000000" style=""/></g><g xmlns="http://www.w3.org/2000/svg"><path d="m2 24c-1.103 0-2-.897-2-2v-3.5c0-.276.224-.5.5-.5s.5.224.5.5v3.5c0 .551.449 1 1 1s1-.449 1-1v-1.5c0-.276.224-.5.5-.5s.5.224.5.5v1.5c0 1.103-.897 2-2 2z" fill="#731395" data-original="#000000" style=""/></g><g xmlns="http://www.w3.org/2000/svg"><path d="m20 24c-1.103 0-2-.897-2-2v-1.5c0-.276.224-.5.5-.5s.5.224.5.5v1.5c0 .551.449 1 1 1s1-.449 1-1v-3.5c0-.276.224-.5.5-.5s.5.224.5.5v3.5c0 1.103-.897 2-2 2z" fill="#731395" data-original="#000000" style=""/></g><g xmlns="http://www.w3.org/2000/svg"><path d="m2.5 15c-.064 0-.129-.012-.192-.039-.255-.106-.375-.399-.269-.654l1.99-4.77c.391-.933 1.294-1.537 2.301-1.537h3.39c.276 0 .5.224.5.5s-.223.5-.5.5h-3.39c-.594 0-1.147.371-1.378.923l-1.99 4.77c-.081.191-.267.307-.462.307z" fill="#731395" data-original="#000000" style=""/></g><g xmlns="http://www.w3.org/2000/svg"><path d="m6.5 18h-3c-.276 0-.5-.224-.5-.5s.224-.5.5-.5h3c.276 0 .5.224.5.5s-.224.5-.5.5z" fill="#731395" data-original="#000000" style=""/></g><g xmlns="http://www.w3.org/2000/svg"><path d="m18.5 18h-3c-.276 0-.5-.224-.5-.5s.224-.5.5-.5h3c.276 0 .5.224.5.5s-.224.5-.5.5z" fill="#731395" data-original="#000000" style=""/></g><g xmlns="http://www.w3.org/2000/svg"><path d="m18 14c-.066 0-.132-.013-.194-.04-.238-.099-5.806-2.506-5.806-7.424v-4.179c0-.214.137-.405.34-.474l5.5-1.857c.104-.035.216-.035.32 0l5.5 1.857c.203.069.34.26.34.474v4.179c0 4.918-5.568 7.325-5.806 7.425-.062.026-.128.039-.194.039zm-5-11.284v3.82c0 3.785 4.055 5.958 5 6.414.944-.457 5-2.638 5-6.414v-3.82l-5-1.688z" fill="#731395" data-original="#000000" style=""/></g><g xmlns="http://www.w3.org/2000/svg"><path d="m17.5 9c-.009 0-.019 0-.028-.001-.142-.008-.274-.076-.363-.187l-2-2.5c-.172-.216-.137-.53.078-.703.216-.173.53-.137.703.078l1.651 2.064 3.105-3.105c.195-.195.512-.195.707 0s.195.512 0 .707l-3.5 3.5c-.093.095-.221.147-.353.147z" fill="#731395" data-original="#000000" style=""/></g></g></svg>
