<?xml version="1.0"?>
<svg xmlns="http://www.w3.org/2000/svg" xmlns:xlink="http://www.w3.org/1999/xlink" xmlns:svgjs="http://svgjs.com/svgjs" version="1.1" width="512" height="512" x="0" y="0" viewBox="0 0 512 512" style="enable-background:new 0 0 512 512" xml:space="preserve"><g><g xmlns="http://www.w3.org/2000/svg"><path d="m60.5 138.5c4.143 0 7.5-3.357 7.5-7.5v-93.5c0-12.406 10.094-22.5 22.5-22.5h331c12.406 0 22.5 10.094 22.5 22.5v246.074c0 4.143 3.357 7.5 7.5 7.5s7.5-3.357 7.5-7.5v-246.074c0-20.678-16.822-37.5-37.5-37.5h-331c-20.678 0-37.5 16.822-37.5 37.5v93.5c0 4.143 3.357 7.5 7.5 7.5z" fill="#a90f0f" data-original="#000000" style=""/><path d="m474.5 438.702v-12.702c0-9.963-6.511-18.429-15.5-21.379v-86.046c0-4.143-3.357-7.5-7.5-7.5s-7.5 3.357-7.5 7.5v84.925h-15v-361c0-6.893-5.607-12.5-12.5-12.5h-205c-4.143 0-7.5 3.357-7.5 7.5s3.357 7.5 7.5 7.5h202.5v64h-15.5v-6.5c0-23.435-19.065-42.5-42.5-42.5s-42.5 19.065-42.5 42.5v6.5h-15v-6.5c0-23.435-19.065-42.5-42.5-42.5s-42.5 19.065-42.5 42.5v6.5h-15v-6.5c0-23.435-19.065-42.5-42.5-42.5s-42.5 19.065-42.5 42.5v6.5h-15.5v-64h78.5c4.143 0 7.5-3.357 7.5-7.5s-3.357-7.5-7.5-7.5h-81c-6.893 0-12.5 5.607-12.5 12.5v361h-15v-237.5c0-4.143-3.357-7.5-7.5-7.5s-7.5 3.357-7.5 7.5v238.621c-8.989 2.951-15.5 11.417-15.5 21.379v12.705c-5.565 7.859-8.5 17.068-8.5 26.795 0 25.641 20.859 46.5 46.5 46.5s46.5-20.859 46.5-46.5c0-9.724-2.935-18.936-8.5-26.795v-12.705c0-9.963-6.511-18.429-15.5-21.379v-30.621h316v30.621c-8.989 2.951-15.5 11.417-15.5 21.379v12.704c-5.565 7.86-8.5 17.072-8.5 26.796 0 25.641 20.859 46.5 46.5 46.5s46.5-20.859 46.5-46.5c0-9.724-2.935-18.937-8.5-26.798zm-91-109.702h-55v-6.5c0-15.163 12.337-27.5 27.5-27.5s27.5 12.337 27.5 27.5zm-27.5-49c-23.435 0-42.5 19.065-42.5 42.5v6.5h-15v-6.5c0-23.435-19.065-42.5-42.5-42.5s-42.5 19.065-42.5 42.5v6.5h-15v-6.5c0-23.435-19.065-42.5-42.5-42.5s-42.5 19.065-42.5 42.5v6.5h-15.5v-65h176.106c4.143 0 7.5-3.357 7.5-7.5s-3.357-7.5-7.5-7.5h-176.106v-15h316v15h-104.894c-4.143 0-7.5 3.357-7.5 7.5s3.357 7.5 7.5 7.5h104.894v65h-15.5v-6.5c0-23.435-19.065-42.5-42.5-42.5zm-72.5 49h-55v-6.5c0-15.163 12.337-27.5 27.5-27.5s27.5 12.337 27.5 27.5zm-100 0h-55v-6.5c0-15.163 12.337-27.5 27.5-27.5s27.5 12.337 27.5 27.5zm230.5-110h-15.5v-26.5c0-12.406-10.094-22.5-22.5-22.5h-40c-12.406 0-22.5 10.094-22.5 22.5v26.5h-15v-26.5c0-12.406-10.094-22.5-22.5-22.5h-40c-12.406 0-22.5 10.094-22.5 22.5v26.5h-15v-26.5c0-12.406-10.094-22.5-22.5-22.5h-40c-12.406 0-22.5 10.094-22.5 22.5v26.5h-15.5v-65h316zm-30.5 0h-55v-26.5c0-4.136 3.364-7.5 7.5-7.5h40c4.136 0 7.5 3.364 7.5 7.5zm-100 0h-55v-26.5c0-4.136 3.364-7.5 7.5-7.5h40c4.136 0 7.5 3.364 7.5 7.5zm-100 0h-55v-26.5c0-4.136 3.364-7.5 7.5-7.5h40c4.136 0 7.5 3.364 7.5 7.5zm145-116.5c0-15.163 12.337-27.5 27.5-27.5s27.5 12.337 27.5 27.5v6.5h-55zm-100 0c0-15.163 12.337-27.5 27.5-27.5s27.5 12.337 27.5 27.5v6.5h-55zm-100 0c0-15.163 12.337-27.5 27.5-27.5s27.5 12.337 27.5 27.5v6.5h-55zm285.5 21.5v15h-316v-15zm-338.5 373c-17.369 0-31.5-14.131-31.5-31.5 0-6.123 1.724-11.938 4.989-17h5.011v11c0 11.855 9.645 21.5 21.5 21.5s21.5-9.645 21.5-21.5v-11h5.013c3.264 5.062 4.987 10.878 4.987 17 0 17.369-14.131 31.5-31.5 31.5zm-6.5-48.5h13v11c0 3.584-2.916 6.5-6.5 6.5s-6.5-2.916-6.5-6.5zm29.5-15h-46v-7.5c0-4.136 3.364-7.5 7.5-7.5h31c4.136 0 7.5 3.364 7.5 7.5zm-.5-74.5v-15h316v15zm315.5 67c0-4.136 3.364-7.5 7.5-7.5h31c4.136 0 7.5 3.364 7.5 7.5v7.5h-46zm16.5 22.5h13v11c0 3.584-2.916 6.5-6.5 6.5s-6.5-2.916-6.5-6.5zm6.5 48.5c-17.369 0-31.5-14.131-31.5-31.5 0-6.122 1.723-11.938 4.987-17h5.013v11c0 11.855 9.645 21.5 21.5 21.5s21.5-9.645 21.5-21.5v-11h5.014c3.264 5.062 4.986 10.88 4.986 17 0 17.369-14.131 31.5-31.5 31.5z" fill="#a90f0f" data-original="#000000" style=""/></g></g></svg>
