<?xml version="1.0"?>
<svg xmlns="http://www.w3.org/2000/svg" xmlns:xlink="http://www.w3.org/1999/xlink" xmlns:svgjs="http://svgjs.com/svgjs" version="1.1" width="512" height="512" x="0" y="0" viewBox="0 0 512.023 512.023" style="enable-background:new 0 0 512 512" xml:space="preserve"><g><g xmlns="http://www.w3.org/2000/svg"><g id="Layer_2_20_"><g id="Radiation_1_"><path d="m338.8 233.108h156.467c9.19.064 16.691-7.334 16.755-16.524.002-.261-.003-.521-.013-.782-5.189-75.986-43.988-145.701-105.83-190.157-7.593-5.126-17.905-3.126-23.031 4.467-.145.214-.284.432-.419.653l-82.944 132.352c24.16 15.085 38.89 41.51 39.015 69.991zm-39.014 69.888c-26.689 17.067-60.863 17.067-87.552 0l-82.944 132.608c-4.888 7.649-2.65 17.811 4.999 22.699.241.154.487.302.736.443 75.509 40.755 166.462 40.755 241.971 0 7.893-4.482 10.659-14.513 6.178-22.407-.141-.249-.289-.494-.443-.736zm-43.776-20.48c27.372 0 49.562-22.189 49.562-49.562s-22.189-49.562-49.562-49.562c-27.372 0-49.562 22.189-49.562 49.562-.057 27.4 22.11 49.659 49.51 49.715h.051v-.153zm-239.258-49.408h156.467c.102-28.46 14.843-54.865 39.014-69.888l-82.943-132.505c-4.685-7.807-14.813-10.338-22.62-5.652-.282.169-.559.347-.83.532-61.843 44.524-100.637 114.284-105.83 190.31-.311 9.185 6.882 16.883 16.067 17.194.208.007.416.01.624.009z" fill="#584c0b" data-original="#000000" style=""/></g></g></g></g></svg>
