<?xml version="1.0"?>
<svg xmlns="http://www.w3.org/2000/svg" xmlns:xlink="http://www.w3.org/1999/xlink" xmlns:svgjs="http://svgjs.com/svgjs" version="1.1" width="512" height="512" x="0" y="0" viewBox="0 0 512.031 512.031" style="enable-background:new 0 0 512 512" xml:space="preserve"><g><g xmlns="http://www.w3.org/2000/svg"><path d="m86.482 512.031c-5.605 0-11.241-.842-16.75-2.54-14.452-4.455-26.303-14.271-33.372-27.641-14.591-27.598-4.01-61.922 23.589-76.514 1.933-1.022 4.242-2.063 6.5-2.929 3.865-1.485 8.205.449 9.688 4.316 1.483 3.868-.449 8.205-4.316 9.688-1.69.648-3.462 1.444-4.86 2.184-20.287 10.726-28.065 35.957-17.34 56.243 5.196 9.827 13.908 17.042 24.53 20.317 10.623 3.275 21.885 2.217 31.713-2.979l.344-.182c117.848-62.309 234.254-170.139 303.785-281.406 4.011-6.402 2.617-14.833-3.238-19.618s-16.462-3.628-21.165 2.128c-72.78 89.058-178.168 166.88-289.143 213.512-3.82 1.603-8.216-.191-9.82-4.009s.19-8.215 4.009-9.82c98.25-41.285 192.002-107.471 261.75-184.155l-49.426-28.536c-1.781-1.029-3.979-1.171-5.877-.385l-38.858 16.091c-6.176 2.559-13.322 2.091-19.114-1.253l-179.034-103.366c-5.776-3.335-9.644-9.035-10.612-15.639-2.234-15.243.794-31.012 8.526-44.405s19.875-23.9 34.192-29.586c6.206-2.465 13.077-1.963 18.852 1.371l125.097 72.13c3.588 2.069 4.82 6.656 2.751 10.244-2.069 3.589-6.655 4.819-10.243 2.751l-125.102-72.134c-1.783-1.03-3.903-1.183-5.819-.422-8.85 3.515-16.321 9.127-21.985 16.093l193.28 111.59c3.587 2.071 4.816 6.658 2.745 10.245-2.07 3.586-6.657 4.816-10.245 2.745l-193.52-111.729c-3.765 8.863-5.171 18.812-3.688 28.931.299 2.038 1.491 3.797 3.271 4.825l179.033 103.365c1.78 1.027 3.977 1.172 5.875.385l38.859-16.092c6.179-2.558 13.324-2.089 19.115 1.254l52.093 30.076c3.891-4.489 7.701-9.016 11.421-13.567 2.339-2.861 5.126-5.225 8.232-7.02l-129.283-74.544c-3.589-2.069-4.82-6.655-2.751-10.243 2.069-3.589 6.656-4.82 10.243-2.751l151.251 87.21c1.602.881 3.134 1.915 4.58 3.097 8.893 7.267 12.629 18.75 10.387 29.457 14.8 6.076 30.888 7.867 46.846 5.174 4.092-.693 7.954 2.063 8.644 6.148s-2.063 7.954-6.147 8.643c-18.989 3.202-38.128 1-55.703-6.364-71.107 112.001-188.366 220.09-307.06 282.846l-.344.182c-8.268 4.37-17.287 6.588-26.386 6.588z" fill="#1b38d7" data-original="#000000" style=""/></g></g></svg>
