<?xml version="1.0"?>
<svg xmlns="http://www.w3.org/2000/svg" xmlns:xlink="http://www.w3.org/1999/xlink" xmlns:svgjs="http://svgjs.com/svgjs" version="1.1" width="512" height="512" x="0" y="0" viewBox="0 0 511.999 511.999" style="enable-background:new 0 0 512 512" xml:space="preserve"><g><path xmlns="http://www.w3.org/2000/svg" d="m496.634 147.161-53.797-53.797 13.25-13.249c5.858-5.858 5.858-15.355 0-21.213-5.857-5.858-15.355-5.857-21.213 0l-13.25 13.25-56.773-56.773c-9.918-9.918-23.101-15.379-37.125-15.379s-27.207 5.461-37.162 15.416c-9.916 9.916-15.377 23.1-15.377 37.123s5.461 27.207 15.377 37.123l56.774 56.774-93.985 93.984-14.235-14.235c-2.813-2.813-6.628-4.394-10.606-4.394s-7.794 1.581-10.606 4.394l-203.834 203.833c-9.066 9.066-14.06 21.121-14.06 33.943s4.993 24.877 14.06 33.943l.034.034c9.066 9.067 21.121 14.06 33.943 14.06s24.877-4.993 33.942-14.06l203.834-203.833c2.813-2.813 4.394-6.628 4.394-10.606s-1.58-7.793-4.394-10.606l-11.26-11.26 93.985-93.984 53.797 53.797c10.231 10.231 23.665 15.348 37.108 15.348 13.454 0 26.919-5.128 37.177-15.387 20.471-20.47 20.471-53.776.002-74.246zm-435.856 329.565c-3.399 3.4-7.92 5.272-12.729 5.272s-9.33-1.873-12.73-5.273l-.034-.034c-3.4-3.4-5.272-7.921-5.272-12.73s1.872-9.33 5.272-12.73l147.598-147.598 25.495 25.495zm168.813-168.811-25.495-25.495 24.416-24.416 25.495 25.495zm109.689-211.964 31.859-31.859 76.779 76.779-31.859 31.859zm-27.464-59.361c4.387-4.386 10.148-6.58 15.91-6.58s11.523 2.193 15.91 6.58l6.289 6.29-31.859 31.859-6.29-6.29c-8.771-8.773-8.771-23.047.04-31.859zm163.566 163.643c-8.773 8.772-23.047 8.772-31.82 0l-6.289-6.29 31.859-31.859 6.29 6.29c8.771 8.773 8.771 23.047-.04 31.859z" fill="#dd0e0e" data-original="#000000" style=""/></g></svg>
