<?xml version="1.0"?>
<svg xmlns="http://www.w3.org/2000/svg" xmlns:xlink="http://www.w3.org/1999/xlink" xmlns:svgjs="http://svgjs.com/svgjs" version="1.1" width="512" height="512" x="0" y="0" viewBox="0 0 512 512" style="enable-background:new 0 0 512 512" xml:space="preserve"><g>
<g xmlns="http://www.w3.org/2000/svg">
	<g>
		<g>
			<path d="M239.728,99.734c27.496,0,49.866-22.37,49.866-49.867C289.594,22.37,267.224,0,239.728,0     c-27.497,0-49.867,22.37-49.867,49.867C189.861,77.364,212.231,99.734,239.728,99.734z M239.728,16.146     c18.593,0,33.72,15.128,33.72,33.721c0,18.594-15.127,33.721-33.72,33.721s-33.721-15.128-33.721-33.721     C206.007,31.274,221.135,16.146,239.728,16.146z" fill="#551787" data-original="#000000" style=""/>
			<path d="M503.576,276.626H317.28c-0.413-1.238-0.905-2.457-1.523-3.636L234.01,117.355c-0.042-0.081-0.089-0.166-0.138-0.251     c-0.254-0.466-0.525-0.916-0.784-1.324c-0.119-0.203-0.244-0.407-0.392-0.631c-0.2-0.299-0.416-0.589-0.633-0.874l-0.076-0.101     c-1.956-2.635-4.382-4.808-7.195-6.449c-0.224-0.14-0.451-0.276-0.735-0.431c-0.219-0.116-0.442-0.226-0.703-0.347     c-1.734-0.865-3.555-1.517-5.401-1.935c-0.151-0.039-0.32-0.08-0.44-0.106c-0.287-0.06-0.578-0.108-0.892-0.152l-0.109-0.018     c-0.465-0.08-0.929-0.154-1.352-0.198c-0.228-0.025-0.46-0.042-0.708-0.055c-0.41-0.033-0.972-0.072-1.606-0.081     c-0.318-0.011-0.603-0.003-0.907,0.016c-0.56,0.014-1.121,0.04-1.688,0.094c-0.257,0.025-0.511,0.059-0.817,0.104     c-0.505,0.066-1.011,0.137-1.548,0.242c-0.316,0.064-0.625,0.137-0.935,0.214l-0.315,0.078c-0.328,0.08-0.656,0.161-1.018,0.27     c-0.433,0.13-0.857,0.28-1.367,0.466c-0.022,0.009-0.114,0.041-0.136,0.049c-0.235,0.083-0.468,0.168-0.705,0.265     c-0.505,0.206-0.996,0.436-1.502,0.686c-0.193,0.086-0.384,0.178-0.602,0.291c-0.082,0.043-0.169,0.091-0.256,0.141     c-0.465,0.253-0.913,0.524-1.328,0.785c-0.205,0.121-0.409,0.246-0.626,0.391c-0.302,0.202-0.594,0.42-0.883,0.639l-0.123,0.093     c-2.094,1.562-3.896,3.413-5.399,5.564c-0.074,0.101-0.147,0.203-0.211,0.298c-0.215,0.321-0.414,0.65-0.607,0.982l-0.13,0.216     c-0.167,0.268-0.332,0.539-0.529,0.905c-0.074,0.143-0.145,0.286-0.214,0.436c-1.138,2.227-1.918,4.625-2.319,7.12l-0.027,0.163     c-0.065,0.381-0.123,0.761-0.164,1.14c-0.025,0.241-0.042,0.485-0.056,0.763c-0.038,0.491-0.068,0.984-0.075,1.504     c-0.004,0.102-0.006,0.205-0.006,0.299v148.009H8.426c-4.46,0-8.073,3.613-8.073,8.073s3.614,8.073,8.073,8.073h71.792v80.012     h-6.612c-4.46,0-8.073,3.614-8.073,8.073v90.777v31.036c0,4.46,3.614,8.073,8.073,8.073h29.37c4.46,0,8.073-3.614,8.073-8.073     v-31.036v-90.777c0-4.46-3.613-8.073-8.073-8.073h-6.612v-80.012h92.234c0.168,1.2,0.406,2.395,0.756,3.574l21.556,72.428     l-22.122,114.409c-1.377,7.123,0.481,14.417,5.099,20.013c4.617,5.595,11.425,8.805,18.68,8.805h35.897     c13.354,0,24.219-10.865,24.219-24.219c0-13.354-10.865-24.219-24.219-24.219h-6.546l17.676-91.414     c0.737-3.809,0.541-7.788-0.565-11.507l-20.199-67.868h32.603l1.44,2.743c4.198,7.995,12.42,12.96,21.456,12.96     c3.893,0,7.783-0.961,11.249-2.781c5.309-2.788,9.291-7.351,11.38-12.921h98.679v80.012h-6.612c-4.458,0-8.073,3.614-8.073,8.073     v90.777v31.036c0,4.46,3.615,8.073,8.073,8.073h29.37c4.46,0,8.073-3.613,8.073-8.073v-31.036v-40.186     c0-4.46-3.614-8.073-8.073-8.073s-8.073,3.614-8.073,8.073v32.113h-13.224v-74.631h13.224v17.043c0,4.46,3.613,8.073,8.073,8.073     s8.073-3.613,8.073-8.073v-25.116c0-4.46-3.614-8.073-8.073-8.073h-6.612v-80.012h71.792c4.46,0,8.073-3.613,8.073-8.073     C511.649,280.241,508.036,276.626,503.576,276.626z M94.904,494.598H81.68v-14.89h13.224V494.598z M94.904,463.561H81.68V388.93     h13.224V463.561z M243.555,365.246c0.369,1.239,0.434,2.566,0.189,3.835l-19.533,101.02c-0.458,2.366,0.165,4.813,1.699,6.671     c1.534,1.859,3.818,2.935,6.227,2.935h16.329c4.452,0,8.073,3.621,8.073,8.073c0,4.452-3.621,8.073-8.073,8.073h-35.897     c-2.418,0-4.688-1.07-6.226-2.935c-1.54-1.865-2.159-4.297-1.701-6.671l22.497-116.349c0.247-1.276,0.182-2.591-0.188-3.836     l-21.813-73.291h16.847L243.555,365.246z M204.496,276.627V165.326l16.146,30.742l0.001,80.559H204.496z M236.788,276.626     v-49.815l26.165,49.815H236.788z M302.024,286.653c-0.641,2.058-2.044,3.744-3.953,4.746c-1.175,0.617-2.435,0.93-3.743,0.93     c-3.017,0-5.761-1.656-7.16-4.322l-37.252-70.923c-0.001-0.003-0.002-0.005-0.004-0.009l-44.832-85.359     c-0.174-0.332-0.375-0.639-0.586-0.935v-2.013c0.002-0.061,0.003-0.12,0.003-0.177c0.001-0.198,0.02-0.395,0.041-0.659     l0.079-0.614c0.137-0.856,0.401-1.663,0.802-2.435c0.022-0.041,0.042-0.082,0.062-0.124l0.382-0.637     c0.015-0.02,0.028-0.04,0.042-0.06c0.482-0.709,1.1-1.348,1.844-1.902l0.283-0.216c0.086-0.052,0.17-0.103,0.249-0.153     c0.146-0.091,0.292-0.185,0.433-0.265c0.089-0.042,0.175-0.083,0.253-0.122c0.181-0.089,0.36-0.182,0.524-0.247l0.379-0.137     c0.133-0.05,0.267-0.102,0.344-0.126l0.792-0.198c0.164-0.031,0.328-0.048,0.504-0.071l0.348-0.049     c0.185-0.014,0.369-0.017,0.549-0.022c0.094-0.001,0.187-0.004,0.282-0.01c0.173,0.004,0.353,0.02,0.583,0.04     c0.075,0.005,0.152,0.011,0.231,0.015c0.093,0.015,0.185,0.031,0.278,0.047l0.135,0.023c0.097,0.017,0.194,0.031,0.31,0.049     c0.034,0.008,0.066,0.015,0.095,0.021c0.625,0.138,1.249,0.362,1.891,0.685c0.066,0.033,0.132,0.066,0.203,0.099l0.225,0.137     c0.932,0.545,1.733,1.263,2.397,2.156l0.214,0.282c0.047,0.08,0.096,0.158,0.145,0.239c0.104,0.165,0.21,0.329,0.294,0.484     c0.03,0.058,0.065,0.117,0.098,0.179l81.674,155.494C302.465,282.408,302.666,284.594,302.024,286.653z M417.098,479.708h13.224     v14.89h-13.224V479.708z" fill="#551787" data-original="#000000" style=""/>
		</g>
	</g>
</g>
<g xmlns="http://www.w3.org/2000/svg">
</g>
<g xmlns="http://www.w3.org/2000/svg">
</g>
<g xmlns="http://www.w3.org/2000/svg">
</g>
<g xmlns="http://www.w3.org/2000/svg">
</g>
<g xmlns="http://www.w3.org/2000/svg">
</g>
<g xmlns="http://www.w3.org/2000/svg">
</g>
<g xmlns="http://www.w3.org/2000/svg">
</g>
<g xmlns="http://www.w3.org/2000/svg">
</g>
<g xmlns="http://www.w3.org/2000/svg">
</g>
<g xmlns="http://www.w3.org/2000/svg">
</g>
<g xmlns="http://www.w3.org/2000/svg">
</g>
<g xmlns="http://www.w3.org/2000/svg">
</g>
<g xmlns="http://www.w3.org/2000/svg">
</g>
<g xmlns="http://www.w3.org/2000/svg">
</g>
<g xmlns="http://www.w3.org/2000/svg">
</g>
</g></svg>
