<?xml version="1.0" encoding="UTF-8"?>
<svg width="32px" height="32px" viewBox="0 0 32 32" version="1.1" xmlns="http://www.w3.org/2000/svg" xmlns:xlink="http://www.w3.org/1999/xlink">
    <!-- Generator: Sketch 44.1 (41455) - http://www.bohemiancoding.com/sketch -->
    <title>Metarubrick / Other / religion</title>
    <desc>Created with Sketch.</desc>
    <defs></defs>
    <g id="Page-1" stroke="none" stroke-width="1" fill="none" fill-rule="evenodd">
        <g id="New-meta-draft" transform="translate(-84.000000, -3984.000000)">
            <g id="Slice" transform="translate(84.000000, 84.000000)"></g>
            <g id="Icon" transform="translate(51.000000, 42.000000)" stroke="#8345FE" stroke-width="2">
                <g id="Other" transform="translate(24.000000, 3900.000000)">
                    <g id="Religion" transform="translate(12.000000, 43.760010)">
                        <path d="M3,20.2425 L9,20.2425 C11,20.2425 13,21.2425 13,23.2425" id="Stroke-1"></path>
                        <path d="M23,20.2425 L17,20.2425 C15,20.2425 13,21.2425 13,23.2425" id="Stroke-3"></path>
                        <path d="M13,11.2425 C13,9.2425 11,8.2425 9,8.2425 L0,8.2425 L0,25.2425 L10,25.2425 C10,25.2425 10.432,27.2425 13,27.2425 C15.568,27.2425 16,25.2425 16,25.2425 L26,25.2425 L26,8.2425 L17,8.2425 C15,8.2425 13,9.2425 13,11.2425" id="Stroke-5"></path>
                        <path d="M13,11.2425 L13,16.2425" id="Stroke-7"></path>
                        <path d="M13,5.2425 L13,0.2425" id="Stroke-9"></path>
                        <path d="M8,4.2425 L7,0.2425" id="Stroke-11"></path>
                        <path d="M3,4.2425 L1,1.2425" id="Stroke-13"></path>
                        <path d="M18,4.2425 L19,0.2425" id="Stroke-15"></path>
                        <path d="M23,4.2425 L25,1.2425" id="Stroke-17"></path>
                    </g>
                </g>
            </g>
        </g>
    </g>
</svg>