<?xml version="1.0" encoding="UTF-8"?>
<svg width="32px" height="32px" viewBox="0 0 32 32" version="1.1" xmlns="http://www.w3.org/2000/svg" xmlns:xlink="http://www.w3.org/1999/xlink">
    <!-- Generator: Sketch 43.2 (39069) - http://www.bohemiancoding.com/sketch -->
    <title>Metarubrick / Automotive / Parts</title>
    <desc>Created with Sketch.</desc>
    <defs></defs>
    <g id="Page-1" stroke="none" stroke-width="1" fill="none" fill-rule="evenodd">
        <g id="New-meta-draft" transform="translate(-84.000000, -1584.000000)">
            <g id="Slice" transform="translate(84.000000, 84.000000)"></g>
            <g id="Icon" transform="translate(51.000000, 42.000000)" stroke="#319CFE" stroke-width="2">
                <g id="Automotive" transform="translate(21.000000, 1494.000000)">
                    <g id="Parts" transform="translate(13.000000, 50.000000)">
                        <path d="M21,26.127 C18.94,27.318 16.55,28 14,28 C6.268,28 0,21.732 0,14 C0,6.268 6.268,0 14,0 C16.549,0 18.937,0.681 20.996,1.871" id="Stroke-1"></path>
                        <path d="M18,14 C18,16.209 16.209,18 14,18 C11.791,18 10,16.209 10,14 C10,11.791 11.791,10 14,10 C16.209,10 18,11.791 18,14 Z" id="Stroke-3"></path>
                        <path d="M23,23 L24.582,24.582 C24.999,24.999 25.674,24.957 26.062,24.513 C28.515,21.701 30,18.024 30,14 C30,9.976 28.515,6.299 26.062,3.487 C25.674,3.043 24.999,3.001 24.582,3.418 L23,5 L23,23 Z" id="Stroke-5"></path>
                        <path d="M14,5 C9.029,5 5,9.029 5,14" id="Stroke-7"></path>
                    </g>
                </g>
            </g>
        </g>
    </g>
</svg>