<?xml version="1.0"?>
<svg xmlns="http://www.w3.org/2000/svg" xmlns:xlink="http://www.w3.org/1999/xlink" xmlns:svgjs="http://svgjs.com/svgjs" version="1.1" width="512" height="512" x="0" y="0" viewBox="0 0 512 512" style="enable-background:new 0 0 512 512" xml:space="preserve"><g><path xmlns="http://www.w3.org/2000/svg" d="m191.733 512h-64.267c-8.284 0-15-6.716-15-15v-49.267h-33.2c-8.284 0-15-6.716-15-15v-64.267c0-8.284 6.716-15 15-15h33.2v-34.266h-33.2c-8.284 0-15-6.716-15-15v-64.267c0-8.284 6.716-15 15-15h33.2v-209.933c0-8.284 6.716-15 15-15h160.667c88.004 0 159.6 71.596 159.6 159.6 0 88.143-71.308 159.6-159.6 159.6h-81.4v34.267h97.467c8.284 0 15 6.716 15 15v64.267c0 8.284-6.716 15-15 15h-97.467v49.266c0 8.284-6.715 15-15 15zm-49.266-30h34.267v-49.267c0-8.284 6.716-15 15-15h97.466v-34.267h-97.467c-8.284 0-15-6.716-15-15v-64.266c0-8.284 6.716-15 15-15h96.4c71.574 0 129.6-57.905 129.6-129.6 0-71.462-58.138-129.6-129.6-129.6h-145.666v209.933c0 8.284-6.716 15-15 15h-33.2v34.267h33.2c8.284 0 15 6.716 15 15v64.267c0 8.284-6.716 15-15 15h-33.2v34.267h33.2c8.284 0 15 6.716 15 15z" fill="#cb8b12" data-original="#000000" style=""/><path xmlns="http://www.w3.org/2000/svg" d="m288.134 254.933h-96.4c-8.284 0-15-6.716-15-15v-160.666c0-8.284 6.716-15 15-15h96.4c52.566 0 95.333 42.767 95.333 95.333s-42.767 95.333-95.333 95.333zm-81.401-30h81.4c36.024 0 65.333-29.308 65.333-65.333s-29.309-65.333-65.333-65.333h-81.4z" fill="#cb8b12" data-original="#000000" style=""/></g></svg>
