<?xml version="1.0"?>
<svg xmlns="http://www.w3.org/2000/svg" xmlns:xlink="http://www.w3.org/1999/xlink" xmlns:svgjs="http://svgjs.com/svgjs" version="1.1" width="512" height="512" x="0" y="0" viewBox="0 0 64 64" style="enable-background:new 0 0 512 512" xml:space="preserve"><g><g xmlns="http://www.w3.org/2000/svg" id="satellite"><path d="m40.16 58.78c-.264-.004-.515-.112-.7-.3l-11.32-11.31c-.388-.39-.388-1.02 0-1.41l7.07-7.07c.187-.191.443-.299.71-.3.267.001.523.109.71.3l11.31 11.31c.191.187.299.443.3.71-.004.264-.112.515-.3.7l-7.07 7.07c-.187.191-.443.299-.71.3zm-9.9-12.32 9.9 9.9 5.66-5.65-9.9-9.9z" fill="#149d84" data-original="#000000" style=""/><path d="m17.54 36.15c-.266.002-.521-.103-.71-.29l-11.31-11.32c-.388-.39-.388-1.02 0-1.41l7.07-7.07c.39-.388 1.02-.388 1.41 0l11.31 11.31c.191.187.299.443.3.71-.001.267-.109.523-.3.71l-7.07 7.07c-.186.185-.438.289-.7.29zm-9.9-12.31 9.9 9.9 5.65-5.66-9.9-9.9z" fill="#149d84" data-original="#000000" style=""/><path d="m23.9 48.17c-.265-.004-.518-.107-.71-.29l-7.07-7.07c-.392-.389-.395-1.022-.006-1.414.002-.002.004-.004.006-.006l10.61-10.6c1.561-1.563 4.094-1.564 5.657-.003.001.001.002.002.003.003l2.82 2.82c1.563 1.561 1.564 4.094.003 5.657-.001.001-.002.002-.003.003l-10.6 10.61c-.189.187-.444.292-.71.29zm-5.66-8.07 5.66 5.66 9.9-9.9c.781-.781.782-2.047.002-2.828-.001-.001-.001-.001-.002-.002l-2.8-2.83c-.781-.781-2.047-.782-2.828-.002-.001.001-.001.001-.002.002z" fill="#149d84" data-original="#000000" style=""/><path d="m16.12 48.88c-.552-.002-.998-.452-.996-1.004.001-.265.108-.519.296-.706l4.24-4.24c.419-.359 1.051-.31 1.41.109.321.374.321.927 0 1.301l-4.24 4.24c-.187.191-.443.299-.71.3z" fill="#149d84" data-original="#000000" style=""/><path d="m38 34c-2.122.006-4.158-.84-5.65-2.35-3.122-3.124-3.122-8.186 0-11.31.39-.388 1.02-.388 1.41 0l9.9 9.9c.388.39.388 1.02 0 1.41-1.495 1.511-3.534 2.358-5.66 2.35zm-4.2-3.8c2.07 2.072 5.333 2.346 7.72.65l-8.37-8.37c-1.696 2.387-1.422 5.65.65 7.72z" fill="#149d84" data-original="#000000" style=""/><path d="m38 27c-.264-.004-.515-.112-.7-.3-.388-.39-.388-1.02 0-1.41l2.12-2.12c.419-.359 1.051-.31 1.41.109.321.374.321.927 0 1.301l-2.12 2.12c-.187.191-.443.299-.71.3z" fill="#149d84" data-original="#000000" style=""/><path d="m40.87 25.13c-1.105-.005-1.996-.905-1.99-2.01.004-.885.59-1.662 1.44-1.91 1.063-.301 2.168.317 2.469 1.38.104.367.101.755-.009 1.12-.091.314-.259.599-.49.83-.376.378-.887.59-1.42.59z" fill="#149d84" data-original="#000000" style=""/><path d="m45.67 25.56c-.099.015-.201.015-.3 0-.527-.163-.823-.723-.66-1.25.112-.366.17-.747.17-1.13 0-2.209-1.791-4-4-4-.383 0-.764.057-1.13.17-.532.147-1.083-.166-1.23-.699-.14-.509.14-1.04.64-1.211.557-.174 1.137-.261 1.72-.26 3.314 0 6 2.686 6 6 .001.586-.087 1.17-.26 1.73-.148.395-.528.656-.95.65z" fill="#149d84" data-original="#000000" style=""/><path d="m49.68 26.75c-.099-.002-.196-.019-.29-.05-.526-.159-.825-.713-.67-1.24.228-.756.342-1.541.34-2.33 0-4.523-3.667-8.19-8.19-8.19-.789-.002-1.574.112-2.33.34-.541.11-1.069-.24-1.179-.781-.098-.485.173-.97.639-1.139 5.402-1.579 11.061 1.52 12.64 6.921.546 1.867.546 3.852 0 5.719-.113.439-.507.746-.96.75z" fill="#149d84" data-original="#000000" style=""/><path d="m53.33 27.83c-.096.014-.194.014-.29 0-.526-.159-.825-.713-.67-1.24 1.911-6.346-1.684-13.04-8.03-14.951-2.247-.677-4.642-.68-6.89-.009-.53.157-1.088-.145-1.245-.675s.145-1.088.675-1.245c7.411-2.204 15.206 2.017 17.41 9.428.775 2.604.775 5.378 0 7.982-.128.423-.518.711-.96.71z" fill="#149d84" data-original="#000000" style=""/><path d="m32.39 43.93c-.267-.001-.523-.109-.71-.3l-2.12-2.12c-.389-.398-.383-1.036.015-1.425s1.036-.383 1.425.015l2.12 2.12c.388.39.388 1.02 0 1.41-.192.196-.456.304-.73.3z" fill="#149d84" data-original="#000000" style=""/><path d="m23.19 34.74c-.264-.004-.515-.112-.7-.3l-2.12-2.12c-.388-.39-.388-1.02 0-1.41.39-.388 1.02-.388 1.41 0l2.12 2.09c.388.39.388 1.02 0 1.41-.182.202-.438.321-.71.33z" fill="#149d84" data-original="#000000" style=""/></g></g></svg>
