<?xml version="1.0"?>
<svg xmlns="http://www.w3.org/2000/svg" xmlns:xlink="http://www.w3.org/1999/xlink" xmlns:svgjs="http://svgjs.com/svgjs" version="1.1" width="512" height="512" x="0" y="0" viewBox="0 0 284.894 284.894" style="enable-background:new 0 0 512 512" xml:space="preserve" class=""><g><g xmlns="http://www.w3.org/2000/svg"><path d="m284.058 82c-2.868-20.48-14.336-34.816-28.058-42.598l2.867-9.216c4.506-14.541-7.168-29.901-22.323-30.106h-.205c-15.77 0-26.419 16.384-20.48 30.925l1.843 4.506c-11.674 4.301-22.528 14.746-26.829 33.792-13.311 59.597-62.259 108.544-121.855 121.856-16.589 3.686-28.467 13.517-33.587 26.829l-4.506-1.843c-14.541-5.94-30.925 4.915-30.925 20.684.205 14.95 15.565 26.624 30.106 22.323l8.602-2.662c7.578 14.131 22.323 25.805 43.213 27.853 53.043 5.12 107.52-32.358 142.95-69.427 42.598-44.237 64.716-94.004 59.187-132.916zm-55.706-55.91c-2.253-5.734 1.638-12.083 7.987-12.083 6.144 0 11.264 6.554 9.421 12.493l-2.458 7.987c-3.891-1.024-8.192-1.434-12.083-1.434 0 0-2.867-6.963-2.867-6.963zm-206.438 220.365c-2.867-.41-5.53-2.048-6.963-4.506-3.686-6.144.41-13.722 7.578-13.517 3.482.205 6.758 1.843 9.83 3.482 0 4.096.41 8.192 1.229 12.288-2.458.41-10.241 2.458-11.674 2.253zm193.126-40.755c-39.526 41.165-86.016 65.741-123.494 65.741-21.709 0-43.827-12.493-45.261-36.25-1.024-16.179 10.65-27.238 25.805-30.72 64.512-14.541 117.76-67.584 132.3-132.301 3.072-13.722 14.131-26.214 29.286-25.6 15.974.614 33.792 13.722 37.274 37.478 4.506 34.202-16.793 80.692-55.91 121.652z" fill="#b50c0c" data-original="#000000" style="" class=""/></g></g></svg>
