<?xml version="1.0"?>
<svg xmlns="http://www.w3.org/2000/svg" xmlns:xlink="http://www.w3.org/1999/xlink" xmlns:svgjs="http://svgjs.com/svgjs" version="1.1" width="512" height="512" x="0" y="0" viewBox="0 0 512 512" style="enable-background:new 0 0 512 512" xml:space="preserve" class=""><g>
<g xmlns="http://www.w3.org/2000/svg">
	<g>
		<path d="M482.786,28.297C465.714,10.049,442.233,0,416.667,0H95.333C69.77,0,46.291,10.048,29.219,28.294    C12.146,46.542,3.678,70.641,5.376,96.154l21.448,321.689c3.464,51.917,48.614,94.156,100.646,94.156L384.533,512    c52.034,0,97.182-42.239,100.643-94.158l21.447-321.689C508.323,70.643,499.858,46.545,482.786,28.297z M476.69,94.158    l-21.447,321.689C452.811,452.324,421.091,482,384.533,482l-257.063-0.001c-36.557,0-68.278-29.676-70.712-66.152L35.31,94.16    c-1.141-17.138,4.476-33.25,15.816-45.37C62.463,36.673,78.163,30,95.333,30h321.334c17.172,0,32.873,6.674,44.211,18.793    C472.217,60.912,477.832,77.023,476.69,94.158z" fill="#990e0e" data-original="#000000" style=""/>
	</g>
</g>
<g xmlns="http://www.w3.org/2000/svg">
	<g>
		<path d="M395.466,101.128c-2.835-3.017-6.792-4.729-10.933-4.729H127.467c-4.141,0-8.097,1.711-10.933,4.729    c-2.835,3.018-4.296,7.074-4.038,11.206l8.033,128.534c0.494,7.906,7.05,14.064,14.971,14.064h241    c7.921,0,14.477-6.159,14.971-14.064l8.033-128.534C399.762,108.202,398.301,104.146,395.466,101.128z M362.408,224.934H271V207.8    c0-8.284-6.716-15-15-15c-8.284,0-15,6.716-15,15v17.134h-91.408l-6.158-98.534h225.133L362.408,224.934z" fill="#990e0e" data-original="#000000" style=""/>
	</g>
</g>
<g xmlns="http://www.w3.org/2000/svg">
</g>
<g xmlns="http://www.w3.org/2000/svg">
</g>
<g xmlns="http://www.w3.org/2000/svg">
</g>
<g xmlns="http://www.w3.org/2000/svg">
</g>
<g xmlns="http://www.w3.org/2000/svg">
</g>
<g xmlns="http://www.w3.org/2000/svg">
</g>
<g xmlns="http://www.w3.org/2000/svg">
</g>
<g xmlns="http://www.w3.org/2000/svg">
</g>
<g xmlns="http://www.w3.org/2000/svg">
</g>
<g xmlns="http://www.w3.org/2000/svg">
</g>
<g xmlns="http://www.w3.org/2000/svg">
</g>
<g xmlns="http://www.w3.org/2000/svg">
</g>
<g xmlns="http://www.w3.org/2000/svg">
</g>
<g xmlns="http://www.w3.org/2000/svg">
</g>
<g xmlns="http://www.w3.org/2000/svg">
</g>
</g></svg>
