<?xml version="1.0"?>
<svg xmlns="http://www.w3.org/2000/svg" xmlns:xlink="http://www.w3.org/1999/xlink" xmlns:svgjs="http://svgjs.com/svgjs" version="1.1" width="512" height="512" x="0" y="0" viewBox="0 0 511 511.9995" style="enable-background:new 0 0 512 512" xml:space="preserve"><g><path xmlns="http://www.w3.org/2000/svg" d="m378.207031 199.847656c-4.0625-55.234375-13.75-102.792968-28.023437-137.695312v-54.636719c0-3.097656-1.976563-5.945313-4.871094-7.035156-3.089844-1.160157-6.675781-.113281-8.65625 2.523437l-18.851562 25.132813-25.933594-25.9375c-2.933594-2.933594-7.691406-2.933594-10.625 0l-26.75 26.75-26.75-26.75c-2.933594-2.933594-7.691406-2.933594-10.625 0l-26.75 26.75-26.75-26.75c-2.933594-2.933594-7.691406-2.933594-10.625 0l-26.75 26.75-26.75-26.75c-2.933594-2.933594-7.691406-2.933594-10.625 0l-25.9375 25.9375-18.847656-25.132813c-1.980469-2.640625-5.566407-3.683594-8.65625-2.523437-2.898438 1.089843-4.871094 3.9375-4.871094 7.035156v54.648437c-19.109375 46.742188-30.058594 117.246094-30.058594 193.835938s10.949219 147.09375 30.058594 193.835938v54.648437c0 3.097656 1.972656 5.945313 4.871094 7.035156 3.089843 1.160157 6.675781.113281 8.65625-2.527343l18.847656-25.128907 25.9375 25.933594c2.933594 2.9375 7.691406 2.9375 10.625 0l26.75-26.746094 26.75 26.746094c2.933594 2.9375 7.691406 2.9375 10.625 0l26.75-26.746094 26.75 26.746094c2.933594 2.9375 7.691406 2.9375 10.625 0l26.75-26.746094 26.75 26.746094c2.933594 2.9375 7.691406 2.9375 10.625 0l25.9375-25.933594 18.847656 25.128907c2.042969 2.726562 5.777344 3.738281 8.917969 2.421874 2.761719-1.15625 4.609375-3.933593 4.609375-6.929687v-54.636719c6.5625-16.050781 12.207031-34.96875 16.78125-56.277344.871094-4.058593-1.710938-8.050781-5.769532-8.921874-4.054687-.871094-8.054687 1.710937-8.925781 5.769531-4.074219 18.984375-9.003906 35.921875-14.671875 50.441406h-294.453125c-36.617187-93.820313-36.617187-275.902344 0-369.722656h294.449219c26.351562 67.617187 35.09375 186.394531 20.703125 285.46875-.597656 4.105469 2.25 7.917969 6.355469 8.515625 4.109375.597656 7.921875-2.25 8.519531-6.355469 7.15625-49.292969 8.945313-105.734375 5.035156-158.917969zm-43.054687 256.042969v26.050781l-10.519532-14.027344c-2.703124-3.601562-8.136718-3.988281-11.324218-.804687l-26.75 26.75-26.75-26.75c-2.894532-2.894531-7.730469-2.894531-10.625 0l-26.75 26.75-26.75-26.75c-2.933594-2.933594-7.691406-2.933594-10.625 0l-26.75 26.75-26.75-26.75c-2.933594-2.933594-7.691406-2.933594-10.625 0l-26.75 26.75-26.75-26.75c-3.183594-3.1875-8.625-2.796875-11.324219.804687l-10.523437 14.027344v-26.050781zm-289.566406-399.78125v-26.050781l10.523437 14.027344c1.304687 1.742187 3.304687 2.832031 5.476563 2.988281 2.179687.15625 4.308593-.644531 5.847656-2.183594l26.75-26.75 26.746094 26.75c2.9375 2.933594 7.695312 2.933594 10.628906 0l26.75-26.75 26.746094 26.75c2.9375 2.933594 7.695312 2.933594 10.628906 0l26.75-26.75 26.746094 26.75c2.9375 2.933594 7.695312 2.933594 10.628906 0l26.75-26.75 26.75 26.75c1.539062 1.539063 3.671875 2.339844 5.84375 2.183594s4.171875-1.246094 5.480468-2.988281l10.519532-14.027344v26.050781zm0 0" fill="#0aab60" data-original="#000000" style=""/><path xmlns="http://www.w3.org/2000/svg" d="m46.589844 256c0 79.28125 64.5 143.78125 143.78125 143.78125s143.78125-64.5 143.78125-143.78125-64.5-143.78125-143.78125-143.78125-143.78125 64.5-143.78125 143.78125zm272.53125 0c0 68.46875-53.726563 124.621094-121.234375 128.527344v-40.355469c0-21.253906 5.96875-41.9375 14.207031-60.351563 5.324219 2.460938 11.539062 3.742188 18.050781 3.742188 4.445313 0 9.019531-.589844 13.519531-1.785156 14.253907-3.792969 26.570313-13.371094 34.671876-26.96875 17.476562-29.320313-.207032-79.835938-.96875-81.972656-1.210938-3.394532-4.664063-5.453126-8.226563-4.902344-2.242187.34375-55.089844 8.820312-72.566406 38.140625-8.101563 13.59375-10.667969 28.980469-7.226563 43.324219 1.914063 7.976562 5.605469 15.242187 10.433594 20.898437-6.757812 14.535156-12.316406 30.585937-15.0625 47.476563-1.90625-2.929688-3.964844-5.800782-6.140625-8.613282 3.109375-6.546875 4.789063-14.265625 4.691406-22.222656-.179687-14.75-6.441406-29.039062-17.632812-40.230469-24.136719-24.132812-77.449219-19.382812-79.707031-19.167969-3.589844.339844-6.433594 3.179688-6.769532 6.769532-.214844 2.257812-4.964844 55.570312 19.167969 79.707031 11.195313 11.191406 25.480469 17.453125 40.230469 17.632813.21875.003906.4375.007812.65625.007812 11.460937 0 22.371094-3.6875 29.914062-10.003906 8.214844 11.320312 13.730469 23.1875 13.730469 34.550781v24.320313c-67.507813-3.902344-121.238281-60.054688-121.238281-128.523438 0-70.996094 57.757812-128.753906 128.753906-128.753906 70.992188 0 128.746094 57.761718 128.746094 128.753906zm-109.636719-38.230469c10.003906-16.785156 39.421875-26.246093 55.671875-29.789062 4.625 15.964843 10.300781 46.304687.269531 63.132812-12.636719 21.203125-34.6875 24.652344-46.730469 19.226563 17.84375-33.503906 40.738282-56.746094 41.117188-57.125 2.929688-2.933594 2.929688-7.691406-.003906-10.625s-7.691406-2.933594-10.625 0c-1.566406 1.566406-23.5 23.785156-41.722656 56.632812-5.6875-10.296875-7.289063-25.832031 2.023437-41.453125zm-95.40625 39.800781c-3.558594-2.132812-8.171875-.980468-10.308594 2.578126-2.136719 3.558593-.980469 8.175781 2.578125 10.3125 12.203125 7.320312 35.570313 23.933593 53.285156 43.554687-10.03125 8.660156-32.847656 11.203125-50.679687-6.625-13.816406-13.820313-15.773437-44.660156-15.21875-61.28125 16.601563-.570313 47.417969 1.375 61.269531 15.226563 12.539063 12.539062 14.996094 27.535156 12.347656 38.828124-23.132812-24.300781-51.277343-41.394531-53.273437-42.59375zm0 0" fill="#0aab60" data-original="#000000" style=""/></g></svg>
