<?xml version="1.0"?>
<svg xmlns="http://www.w3.org/2000/svg" xmlns:xlink="http://www.w3.org/1999/xlink" xmlns:svgjs="http://svgjs.com/svgjs" version="1.1" width="512" height="512" x="0" y="0" viewBox="0 0 485.984 485" style="enable-background:new 0 0 512 512" xml:space="preserve" class=""><g><path xmlns="http://www.w3.org/2000/svg" d="m7.335938 151.535156 120 64c.144531.070313.296874.105469.441406.167969.183594.089844.367187.144531.558594.214844.894531.335937 1.824218.5625 2.769531.5625h224c.941406 0 1.871093-.226563 2.765625-.5625.191406-.070313.375-.125.5625-.214844.140625-.0625.292968-.097656.4375-.167969l120-64c2.601562-1.390625 4.234375-4.105468 4.234375-7.054687v-80c0-2.808594-1.472657-5.417969-3.882813-6.855469-2.414062-1.441406-5.40625-1.53125-7.878906-.203125l-53.527344 28.554687c-2.542968-8.402343-8.65625-15.273437-16.570312-18.839843 1.21875-3.402344 1.859375-7 1.859375-10.65625 0-2.386719-.25-4.640625-.738281-6.792969-2.695313-12.625-13.023438-22.542969-25.65625-24.6875-9.429688-1.648438-18.96875.902344-26.199219 6.992188-7.246094 6.085937-11.40625 15.015624-11.40625 24.488281 0 3.65625.636719 7.246093 1.855469 10.648437-3.3125 1.484375-6.375 3.574219-9.089844 6.230469-5.65625 5.769531-8.765625 13.351563-8.765625 21.359375v25.761719h-16v-40c0-4.417969-3.585938-8-8-8h-8v-1.777344c0-12.265625-7.335938-22.839844-17.847657-27.574219 1.964844-5.496094 2.390626-11.480468 1.125-17.441406-2.671874-12.632812-13.007812-22.566406-25.710937-24.734375-9.425781-1.585937-18.96875.964844-26.199219 7.0625-7.226562 6.105469-11.367187 15.015625-11.367187 24.464844 0 3.65625.636719 7.246093 1.855469 10.648437-10.519532 4.734375-17.855469 15.308594-17.855469 27.574219v1.777344h-8c-4.417969 0-8 3.582031-8 8v40h-16v-25.761719c0-12.261719-7.335938-22.847656-17.859375-27.582031 1.21875-3.402344 1.859375-7 1.859375-10.65625 0-2.386719-.25-4.640625-.738281-6.792969-2.695313-12.625-13.023438-22.542969-25.65625-24.6875-9.4375-1.648438-18.976563.902344-26.199219 6.992188-7.246094 6.085937-11.40625 15.015624-11.40625 24.488281 0 3.65625.636719 7.246093 1.855469 10.648437-3.3125 1.484375-6.375 3.574219-9.089844 6.230469-3.542969 3.609375-5.949219 7.976563-7.359375 12.671875l-53.640625-28.609375c-2.472656-1.320313-5.464844-1.246094-7.886719.203125-2.410156 1.4375-3.878906 4.046875-3.878906 6.855469v80c0 2.949219 1.628906 5.664062 4.230469 7.054687zm459.769531-73.71875v61.863282l-104 55.472656v-61.875zm-128 16.902344c0-3.792969 1.488281-7.398438 4.078125-10.046875 2.761718-2.703125 6.367187-4.191406 10.160156-4.191406 3.167969 0 6.03125-1.867188 7.3125-4.761719 1.289062-2.886719.742188-6.273438-1.382812-8.617188-2.6875-2.957031-4.167969-6.734374-4.167969-10.621093 0-4.738281 2.078125-9.203125 5.710937-12.25 3.664063-3.078125 8.335938-4.320313 13.183594-3.464844 6.167969 1.050781 11.398438 6.089844 12.734375 12.363281.257813 1.085938.371094 2.148438.371094 3.351563 0 3.886719-1.480469 7.664062-4.167969 10.628906-2.128906 2.347656-2.664062 5.722656-1.386719 8.617187 1.28125 2.886719 4.152344 4.753907 7.3125 4.753907 7.5625 0 13.695313 5.933593 14.152344 13.375l-49.910156 26.625h-14zm-128-24.015625c0-7.839844 6.382812-14.222656 14.222656-14.222656 3.160156 0 6.023437-1.855469 7.3125-4.746094 1.289063-2.886719.75-6.253906-1.359375-8.605469-1.90625-2.121094-4.175781-5.683594-4.175781-10.648437 0-4.722657 2.070312-9.183594 5.6875-12.234375 3.664062-3.085938 8.351562-4.351563 13.183593-3.519532 6.199219 1.058594 11.4375 6.113282 12.75 12.289063 1.480469 6.976563-1.742187 11.832031-3.796874 14.113281-2.113282 2.34375-2.648438 5.71875-1.363282 8.605469 1.289063 2.890625 4.152344 4.746094 7.3125 4.746094 7.839844 0 14.226563 6.382812 14.226563 14.222656v1.777344h-64zm-16 17.777344h96v32h-96zm152 48v64h-208v-64zm-259.921875-51.808594c2.761718-2.703125 6.367187-4.191406 10.160156-4.191406 3.167969 0 6.03125-1.867188 7.3125-4.761719 1.289062-2.886719.742188-6.273438-1.382812-8.617188-2.6875-2.957031-4.167969-6.734374-4.167969-10.621093 0-4.738281 2.078125-9.203125 5.710937-12.25 3.664063-3.078125 8.328125-4.320313 13.183594-3.464844 6.167969 1.050781 11.398438 6.089844 12.734375 12.363281.257813 1.085938.371094 2.148438.371094 3.351563 0 3.886719-1.480469 7.664062-4.167969 10.628906-2.128906 2.347656-2.664062 5.722656-1.386719 8.617187 1.28125 2.886719 4.152344 4.753907 7.3125 4.753907 7.847657 0 14.242188 6.382812 14.242188 14.238281v25.761719h-14l-49.921875-26.625c.214844-3.472657 1.609375-6.734375 4-9.183594zm-68.078125-6.855469 104 55.460938v61.867187l-104-55.464843zm0 0" fill="#1799c1" data-original="#000000" style="" class=""/><path xmlns="http://www.w3.org/2000/svg" d="m91.3125 331.839844 119.792969-3.144532v39.785157h16v-48c0-2.160157-.875-4.226563-2.417969-5.730469-1.496094-1.453125-3.480469-2.292969-5.582031-2.230469v-9.800781c0-12.261719-7.335938-22.847656-17.859375-27.582031 1.21875-3.402344 1.859375-7 1.859375-10.65625 0-2.386719-.25-4.640625-.738281-6.792969-2.695313-12.625-13.023438-22.542969-25.65625-24.6875-9.445313-1.632812-18.96875.902344-26.199219 6.992188-7.246094 6.085937-11.40625 15.015624-11.40625 24.488281 0 3.65625.636719 7.246093 1.855469 10.648437-3.3125 1.484375-6.375 3.574219-9.089844 6.230469-5.65625 5.769531-8.765625 13.351563-8.765625 21.359375v12.28125l-15.992188.421875.34375-1.445313c2.78125-11.90625-1.945312-23.898437-11.082031-30.945312 1.953125-3.007812 3.402344-6.351562 4.257812-9.894531.582032-2.328125.871094-4.671875.871094-6.839844.214844-12.953125-7.574218-24.96875-19.304687-29.875-8.75-3.773437-18.605469-3.511719-27.046875.722656-8.496094 4.269531-14.617188 12.015625-16.792969 21.238281-.847656 3.570313-1.0625 7.222657-.664063 10.816407-3.558593.679687-7.015624 2.015625-10.261718 3.984375-6.746094 4.3125-11.410156 10.847656-13.25 18.367187l-8.710938-2.710937-4.753906 15.28125 88 27.359375c.847656.261719 1.722656.421875 2.59375.359375zm47.792969-29.121094c0-3.792969 1.488281-7.398438 4.078125-10.046875 2.761718-2.703125 6.367187-4.191406 10.160156-4.191406 3.167969 0 6.03125-1.867188 7.3125-4.761719 1.289062-2.886719.742188-6.273438-1.382812-8.617188-2.6875-2.957031-4.167969-6.734374-4.167969-10.621093 0-4.738281 2.078125-9.203125 5.710937-12.25 3.664063-3.078125 8.328125-4.3125 13.183594-3.464844 6.167969 1.050781 11.398438 6.089844 12.734375 12.363281.257813 1.085938.371094 2.148438.371094 3.351563 0 3.886719-1.480469 7.664062-4.167969 10.628906-2.128906 2.347656-2.664062 5.722656-1.386719 8.617187 1.28125 2.886719 4.152344 4.753907 7.3125 4.753907 7.847657 0 14.242188 6.382812 14.242188 14.238281v10.183594l-64 1.679687zm-109.480469-7.113281c1.0625-4.671875 4.078125-7.445313 6.269531-8.847657 3.257813-1.984374 7.082031-2.597656 10.785157-1.703124 3.082031.753906 6.3125-.40625 8.242187-2.933594 1.917969-2.53125 2.167969-5.953125.621094-8.730469-1.941407-3.503906-2.519531-7.511719-1.605469-11.320313 1.09375-4.625 4.160156-8.503906 8.40625-10.640624 4.25-2.132813 9.046875-2.246094 13.601562-.292969 5.734376 2.398437 9.664063 8.519531 9.558594 15.015625 0 1.007812-.128906 2.023437-.414062 3.167968-.929688 3.863282-3.234375 7.207032-6.472656 9.40625-2.625 1.777344-3.953126 4.9375-3.386719 8.058594.570312 3.117188 2.921875 5.605469 6 6.34375 7.777343 1.871094 12.449219 9.421875 10.640625 17.183594l-1.183594 5.015625-61.230469-19.039063zm0 0" fill="#1799c1" data-original="#000000" style="" class=""/><path xmlns="http://www.w3.org/2000/svg" d="m259.105469 302.71875v9.800781c-2.074219-.089843-4.089844.777344-5.585938 2.230469-1.542969 1.503906-2.414062 3.570312-2.414062 5.730469v48h16v-39.785157l119.789062 3.144532c.800781.046875 1.625-.082032 2.402344-.304688l96-27.359375-4.386719-15.390625-16.390625 4.671875-.335937-1.386719c-1.757813-7.773437-6.527344-14.488281-13.566406-18.992187-3.167969-1.917969-6.585938-3.222656-10.105469-3.894531.398437-3.585938.191406-7.222656-.664063-10.777344-2.175781-9.246094-8.304687-17-16.792968-21.261719-8.4375-4.25-18.292969-4.496093-26.957032-.761719-11.816406 4.945313-19.609375 16.960938-19.394531 29.777344 0 2.304688.296875 4.648438.855469 6.902344.855468 3.585938 2.3125 6.945312 4.273437 9.96875-9.136719 7.046875-13.863281 19.039062-11.078125 30.96875l.335938 1.421875-15.984375-.421875v-12.28125c0-8.007812-3.113281-15.589844-8.882813-21.472656-2.65625-2.597656-5.6875-4.664063-8.976562-6.136719 1.21875-3.390625 1.859375-6.972656 1.859375-10.628906 0-9.472657-4.160157-18.402344-11.417969-24.496094-7.230469-6.089844-16.800781-8.625-26.167969-6.992187-12.664062 2.152343-22.992187 12.070312-25.664062 24.597656-.503907 2.25-.75 4.503906-.75 6.890625 0 3.65625.636719 7.253906 1.855469 10.65625-10.519532 4.734375-17.855469 15.320312-17.855469 27.582031zm137.863281-9.582031c3.078125-.738281 5.4375-3.226563 6-6.34375.558594-3.121094-.761719-6.28125-3.382812-8.058594-3.242188-2.199219-5.546876-5.542969-6.488282-9.480469-.273437-1.070312-.402344-2.085937-.402344-3.230468-.101562-6.359376 3.824219-12.488282 9.648438-14.921876 4.457031-1.925781 9.257812-1.8125 13.511719.335938 4.257812 2.136719 7.320312 6.019531 8.417969 10.664062.902343 3.777344.335937 7.792969-1.617188 11.289063-1.542969 2.777344-1.296875 6.199219.625 8.730469 1.917969 2.527344 5.144531 3.6875 8.238281 2.933594 3.695313-.878907 7.519531-.269532 10.625 1.609374 2.34375 1.503907 5.367188 4.269532 6.457031 9.054688l.511719 2.128906-61.59375 17.550782-1.191406-5.054688c-1.808594-7.785156 2.863281-15.335938 10.640625-17.207031zm-121.863281 9.582031c0-7.847656 6.382812-14.238281 14.238281-14.238281 3.167969 0 6.03125-1.867188 7.3125-4.761719 1.289062-2.886719.742188-6.273438-1.382812-8.617188-2.6875-2.957031-4.167969-6.734374-4.167969-10.621093 0-1.203125.109375-2.265625.382812-3.449219 1.320313-6.175781 6.542969-11.214844 12.75-12.273438 4.824219-.863281 9.496094.386719 13.152344 3.472657 3.632813 3.046875 5.714844 7.511719 5.714844 12.25 0 3.886719-1.480469 7.664062-4.167969 10.628906-2.128906 2.347656-2.664062 5.722656-1.386719 8.617187 1.28125 2.886719 4.152344 4.753907 7.3125 4.753907 3.792969 0 7.402344 1.488281 10.046875 4.078125 2.707032 2.761718 4.195313 6.367187 4.195313 10.160156v11.863281l-64-1.679687zm0 0" fill="#1799c1" data-original="#000000" style="" class=""/><path xmlns="http://www.w3.org/2000/svg" d="m464.808594 398.96875-.609375-2.578125c-1.832031-7.792969-6.605469-14.464844-13.558594-18.863281-3.175781-1.921875-6.609375-3.230469-10.144531-3.914063.40625-3.582031.207031-7.222656-.632813-10.773437-2.167969-9.214844-8.261719-16.960938-16.71875-21.234375-8.433593-4.269531-18.3125-4.542969-27.066406-.8125-11.839844 4.992187-19.613281 17.007812-19.351563 29.832031.015626 2.316406.296876 4.566406.839844 6.871094.832032 3.550781 2.28125 6.894531 4.234375 9.917968-2.890625 2.199219-5.375 4.9375-7.34375 8.113282-4.25 6.855468-5.5625 14.976562-3.714843 22.855468l2.539062 10.792969-18.175781-.496093v-12.28125c0-8.007813-3.113281-15.589844-8.882813-21.472657-2.65625-2.597656-5.6875-4.664062-8.976562-6.132812 1.21875-3.386719 1.859375-6.976563 1.859375-10.632813 0-9.472656-4.160157-18.402344-11.417969-24.503906-7.238281-6.082031-16.757812-8.640625-26.160156-6.984375-12.664063 2.152344-22.992188 12.070313-25.664063 24.597656-.511719 2.257813-.757812 4.503907-.757812 6.890625 0 3.65625.636719 7.253906 1.855469 10.65625-10.519532 4.734375-17.855469 15.320313-17.855469 27.582032v9.800781c-2.074219-.054688-4.089844.777343-5.585938 2.230469-1.542969 1.503906-2.414062 3.578124-2.414062 5.730468v46.320313h16v-38.105469l112 2.9375v35.167969h16v-37.464844l90.878906-35.074219-5.761719-14.925781zm-125.703125 29.292969-64-1.679688v-10.183593c0-7.847657 6.382812-14.238282 14.238281-14.238282 3.167969 0 6.03125-1.863281 7.3125-4.753906 1.28125-2.894531.742188-6.269531-1.382812-8.613281-2.6875-2.96875-4.167969-6.746094-4.167969-10.632813 0-1.199218.109375-2.265625.382812-3.449218 1.320313-6.175782 6.542969-11.214844 12.75-12.273438 4.832031-.832031 9.488281.394531 13.152344 3.472656 3.632813 3.050782 5.714844 7.511719 5.714844 12.25 0 3.886719-1.480469 7.664063-4.167969 10.632813-2.128906 2.34375-2.664062 5.71875-1.386719 8.613281 1.28125 2.890625 4.152344 4.753906 7.3125 4.753906 3.792969 0 7.402344 1.488282 10.046875 4.078125 2.707032 2.761719 4.195313 6.367188 4.195313 10.160157zm50.359375-.222657-3.136719-13.335937c-.871094-3.71875-.257813-7.542969 1.734375-10.769531 2-3.222656 5.144531-5.476563 8.867188-6.351563 3.078124-.726562 5.445312-3.199219 6.03125-6.3125.582031-3.109375-.722657-6.269531-3.328126-8.0625-3.296874-2.273437-5.601562-5.609375-6.496093-9.398437-.273438-1.160156-.410157-2.21875-.417969-3.441406-.125-6.320313 3.808594-12.425782 9.609375-14.863282 4.496094-1.921875 9.320313-1.792968 13.601563.359375 4.230468 2.144531 7.277343 6.007813 8.359374 10.625.886719 3.78125.320313 7.800781-1.625 11.304688-1.527343 2.765625-1.289062 6.175781.625 8.703125 1.902344 2.519531 5.144532 3.664062 8.207032 2.960937 3.6875-.875 7.542968-.242187 10.710937 1.671875 3.265625 2.0625 5.535157 5.230469 6.410157 8.925782l1.109374 4.730468zm0 0" fill="#1799c1" data-original="#000000" style="" class=""/><path xmlns="http://www.w3.org/2000/svg" d="m83.105469 480.480469h16v-35.160157l112-2.9375v38.097657h16v-46.320313c0-2.160156-.875-4.226562-2.417969-5.730468-1.496094-1.453126-3.480469-2.269532-5.582031-2.230469v-9.800781c0-12.261719-7.335938-22.847657-17.859375-27.582032 1.21875-3.402344 1.859375-7 1.859375-10.65625 0-2.386718-.25-4.640625-.738281-6.792968-2.695313-12.625-13.023438-22.542969-25.65625-24.6875-9.414063-1.648438-18.957032.894531-26.191407 6.976562-7.253906 6.101562-11.414062 15.03125-11.414062 24.503906 0 3.65625.636719 7.246094 1.855469 10.640625-3.3125 1.488281-6.375 3.582031-9.089844 6.238281-5.65625 5.769532-8.765625 13.351563-8.765625 21.359376v12.28125l-18.183594.480468 2.535156-10.785156c2.78125-11.902344-1.945312-23.886719-11.074219-30.9375 1.960938-3.007812 3.417969-6.351562 4.273438-9.910156.574219-2.425782.847656-4.695313.847656-6.832032.214844-12.953124-7.574218-24.96875-19.335937-29.886718-8.792969-3.753906-18.671875-3.449219-27.105469.824218-8.445312 4.269532-14.527344 11.992188-16.695312 21.160157-.855469 3.574219-1.070313 7.246093-.65625 10.855469-3.527344.695312-6.976563 2.023437-10.191407 3.984374-6.917969 4.308594-11.703125 11.007813-13.480469 18.789063l-7.832031-3.292969-6.207031 14.75 83.105469 34.960938zm56-64.082031c0-3.792969 1.488281-7.398438 4.078125-10.046876 2.761718-2.703124 6.359375-4.191406 10.160156-4.191406 3.167969 0 6.03125-1.863281 7.3125-4.753906 1.28125-2.894531.742188-6.269531-1.382812-8.613281-2.6875-2.96875-4.167969-6.746094-4.167969-10.632813 0-4.738281 2.078125-9.199218 5.710937-12.257812 3.664063-3.070313 8.335938-4.304688 13.183594-3.464844 6.167969 1.050781 11.398438 6.089844 12.734375 12.363281.257813 1.09375.371094 2.167969.371094 3.359375 0 3.886719-1.480469 7.664063-4.167969 10.632813-2.128906 2.34375-2.664062 5.71875-1.386719 8.613281 1.28125 2.890625 4.152344 4.753906 7.3125 4.753906 7.847657 0 14.242188 6.382813 14.242188 14.238282v10.183593l-64 1.679688zm-110.113281-13.703126.632812-2.6875c.832031-3.65625 3.078125-6.785156 6.269531-8.769531 3.328125-2.015625 7.167969-2.648437 10.785157-1.78125 3.054687.726563 6.320312-.417969 8.230468-2.945312 1.914063-2.527344 2.167969-5.953125.625-8.71875-1.941406-3.503907-2.519531-7.515625-1.605468-11.320313 1.078124-4.585937 4.125-8.449218 8.34375-10.578125 4.269531-2.167969 9.101562-2.304687 13.664062-.359375 5.734375 2.398438 9.664062 8.519532 9.558594 15.015625 0 1.023438-.136719 2.0625-.417969 3.257813-.910156 3.796875-3.214844 7.117187-6.476563 9.335937-2.625 1.773438-3.945312 4.933594-3.378906 8.054688.570313 3.113281 2.929688 5.601562 6 6.335937 7.785156 1.863282 12.449219 9.425782 10.640625 17.183594l-3.085937 13.144531zm0 0" fill="#1799c1" data-original="#000000" style="" class=""/></g></svg>
