<?xml version="1.0"?>
<svg xmlns="http://www.w3.org/2000/svg" xmlns:xlink="http://www.w3.org/1999/xlink" xmlns:svgjs="http://svgjs.com/svgjs" version="1.1" width="512" height="512" x="0" y="0" viewBox="0 0 64 64" style="enable-background:new 0 0 512 512" xml:space="preserve"><g><path xmlns="http://www.w3.org/2000/svg" d="M42.571,28.991a10.987,10.987,0,0,0-21.142,0A4.956,4.956,0,0,0,21,31c0,.114.026.221.034.334-.014.221-.034.441-.034.666a11,11,0,0,0,6,9.786V43a1,1,0,0,1-1,1H24a9.011,9.011,0,0,0-9,9v8a1,1,0,0,0,1,1H48a1,1,0,0,0,1-1V53a9.011,9.011,0,0,0-9-9H38a1,1,0,0,1-1-1V41.786A11,11,0,0,0,43,32c0-.225-.02-.445-.034-.666.008-.113.034-.22.034-.334A4.956,4.956,0,0,0,42.571,28.991ZM23.31,29.7A2.993,2.993,0,0,1,26,28H38a2.993,2.993,0,0,1,2.69,1.7,8.834,8.834,0,0,1,.276,1.636A2.992,2.992,0,0,1,38,34H34.414l-1.707-1.707a1,1,0,0,0-1.414,0L29.586,34H26a2.992,2.992,0,0,1-2.966-2.666A8.834,8.834,0,0,1,23.31,29.7ZM32,23a8.972,8.972,0,0,1,6.759,3.077A4.868,4.868,0,0,0,38,26H26a4.868,4.868,0,0,0-.759.077A8.972,8.972,0,0,1,32,23Zm6,23h2a7.008,7.008,0,0,1,7,7v7H43V54H41v6H23V54H21v6H17V53a7.008,7.008,0,0,1,7-7h2a3,3,0,0,0,3-3v-.426a10.776,10.776,0,0,0,6,0V43A3,3,0,0,0,38,46Zm-6-5a9.01,9.01,0,0,1-8.329-5.6A4.936,4.936,0,0,0,26,36h4a1,1,0,0,0,.707-.293L32,34.414l1.293,1.293A1,1,0,0,0,34,36h4a4.936,4.936,0,0,0,2.329-.6A9.01,9.01,0,0,1,32,41Z" style="" fill="#2355c9" data-original="#000000"/><path xmlns="http://www.w3.org/2000/svg" d="M3,8H21a1,1,0,0,0,1-1V3a1,1,0,0,0-1-1H3A1,1,0,0,0,2,3V7A1,1,0,0,0,3,8ZM4,4H20V6H4Z" style="" fill="#2355c9" data-original="#000000"/><path xmlns="http://www.w3.org/2000/svg" d="M3,16h8a1,1,0,0,0,1-1V11a1,1,0,0,0-1-1H3a1,1,0,0,0-1,1v4A1,1,0,0,0,3,16Zm1-4h6v2H4Z" style="" fill="#2355c9" data-original="#000000"/><path xmlns="http://www.w3.org/2000/svg" d="M3,24H15a1,1,0,0,0,1-1V19a1,1,0,0,0-1-1H3a1,1,0,0,0-1,1v4A1,1,0,0,0,3,24Zm1-4H14v2H4Z" style="" fill="#2355c9" data-original="#000000"/><path xmlns="http://www.w3.org/2000/svg" d="M51,2A11,11,0,1,0,62,13,11.013,11.013,0,0,0,51,2Zm8.941,10H52V4.059A9.013,9.013,0,0,1,59.941,12ZM50,4.059v8.527l-6.025,6.025A8.986,8.986,0,0,1,50,4.059ZM51,22a8.948,8.948,0,0,1-5.611-1.975L51.414,14h8.527A9.011,9.011,0,0,1,51,22Z" style="" fill="#2355c9" data-original="#000000"/><path xmlns="http://www.w3.org/2000/svg" d="M52,31V26H50v4H45v2h6A1,1,0,0,0,52,31Z" style="" fill="#2355c9" data-original="#000000"/><path xmlns="http://www.w3.org/2000/svg" d="M8,26v5a1,1,0,0,0,1,1H19V30H10V26Z" style="" fill="#2355c9" data-original="#000000"/></g></svg>
