<?xml version="1.0"?>
<svg xmlns="http://www.w3.org/2000/svg" xmlns:xlink="http://www.w3.org/1999/xlink" xmlns:svgjs="http://svgjs.com/svgjs" version="1.1" width="512" height="512" x="0" y="0" viewBox="0 0 511.99963 511" style="enable-background:new 0 0 512 512" xml:space="preserve"><g><path xmlns="http://www.w3.org/2000/svg" d="m231.796875 239.832031v-48.984375c0-5.519531-4.476563-10-10-10h-65.898437c-4.097657 0-7.78125 2.5-9.296876 6.3125l-11.066406 27.871094c-5.347656 13.464844-13.175781 25.582031-22.921875 35.832031-.03125.035157-.070312.0625-.101562.09375-.070313.070313-.128907.148438-.199219.21875-8.011719 8.367188-17.308594 15.476563-27.59375 21.035157-.0625.03125-.121094.0625-.183594.09375-5.253906 2.828124-10.765625 5.253906-16.492187 7.234374l-37.738281 13.042969c-18.128907 6.265625-30.304688 23.359375-30.304688 42.535157v22.570312c0 3.453125 1.75 6.496094 4.410156 8.292969-2.804687 5.070312-4.410156 10.890625-4.410156 17.082031 0 19.503906 15.867188 35.375 35.375 35.375h202.984375c5.523437 0 10-4.480469 10-10 0-5.523438-4.476563-10-10-10h-15.238281v-30.75h5.40625c10.9375 0 19.832031-8.894531 19.832031-19.832031v-51.375c0-11.972657-3.40625-23.628907-9.855469-33.710938-4.386718-6.863281-6.707031-14.792969-6.707031-22.9375zm-211.796875 95.285157c0-10.652344 6.765625-20.152344 16.835938-23.632813l16.308593-5.636719 4.261719 11.6875c1.480469 4.058594 5.3125 6.578125 9.394531 6.578125 1.136719 0 2.292969-.195312 3.425781-.609375 5.1875-1.890625 7.859376-7.628906 5.96875-12.816406l-4.144531-11.375 2.523438-.875c4.355469-1.503906 8.601562-3.234375 12.730469-5.160156l11.558593 11.558594c1.953125 1.953124 4.511719 2.929687 7.070313 2.929687s5.121094-.976563 7.070312-2.929687c3.90625-3.902344 3.90625-10.234376 0-14.140626l-7.644531-7.648437c4.953125-3.34375 9.664063-7.015625 14.105469-10.988281l6.085937 6.085937c1.953125 1.953125 4.511719 2.929688 7.070313 2.929688 2.5625 0 5.121094-.976563 7.074218-2.929688 3.902344-3.902343 3.902344-10.234375 0-14.140625l-6.382812-6.382812c3.714844-4.507813 7.136719-9.273438 10.238281-14.265625h21.152344c5.523437 0 10-4.480469 10-10 0-5.523438-4.476563-10-10-10h-10.976563c.128907-.316407.265626-.628907.390626-.949219l8.566406-21.558594h49.109375v38.980469c0 11.972656 3.410156 23.628906 9.859375 33.710937 4.386718 6.863282 6.703125 14.792969 6.703125 22.9375v15.683594h-27.664063c-7.671875 0-15.160156 2.152344-21.660156 6.222656l-25.453125 15.9375c-13.96875 8.746094-30.0625 13.367188-46.539063 13.367188h-87.039062zm0 47.945312c0-8.476562 6.894531-15.375 15.375-15.375h63.9375v30.75h-63.9375c-8.480469 0-15.375-6.898438-15.375-15.375zm183.121094 15.375h-83.808594v-31.460938c15.898438-1.820312 31.21875-7.148437 44.882812-15.703124l17.648438-11.050782v7.632813c0 10.9375 8.894531 19.832031 19.832031 19.832031h1.445313zm-1.277344-50.75v-15.523438h26.515625v15.523438zm0 0" fill="#100d7e" data-original="#000000" style=""/><path xmlns="http://www.w3.org/2000/svg" d="m509.070312 145.574219c-3.90625-3.90625-10.234374-3.90625-14.140624 0l-10.777344 10.773437-21.742188-21.738281 3.824219-3.820313c7.730469-7.734374 7.730469-20.316406 0-28.050781l-36.328125-36.328125c-8.464844-8.464844-19.117188-14.296875-30.808594-16.867187-7.953125-1.75-15.203125-5.71875-20.960937-11.476563l-34.636719-34.636718c-3.902344-3.90625-10.234375-3.90625-14.140625 0l-46.601563 46.597656c-2.894531 2.898437-3.734374 7.269531-2.109374 11.03125l11.882812 27.535156c5.742188 13.308594 8.773438 27.414062 9.128906 41.554688 0 .046874-.003906.089843-.003906.132812 0 .09375.007812.183594.011719.273438.25 11.589843-1.292969 23.199218-4.640625 34.40625-.019532.0625-.039063.125-.054688.191406-1.71875 5.714844-3.902344 11.328125-6.550781 16.78125l-17.460937 35.910156c-8.386719 17.246094-4.910157 37.941406 8.648437 51.503906l15.960937 15.960938c1.875 1.875 4.417969 2.925781 7.070313 2.925781.640625 0 1.269531-.0625 1.890625-.183594 1.632812 5.6875 4.679688 10.898438 8.980469 15.199219 6.679687 6.679688 15.5625 10.359375 25.011719 10.359375 9.449218 0 18.332031-3.679687 25.011718-10.359375l143.535156-143.535156c3.90625-3.90625 3.90625-10.238282 0-14.140625zm-39.058593 24.917969-59.433594 59.429687-22.097656-22.378906c9.964843-12.535157 17.039062-27.152344 20.65625-42.878907l4.664062-20.289062 5.398438 5.398438c3.746093 3.746093 8.726562 5.808593 14.023437 5.808593s10.28125-2.0625 14.027344-5.808593l1.019531-1.023438zm-29.015625-64.710938 10.976562 10.980469-18.75 18.75-10.980468-10.980469zm-145.242188 149.421875c-7.535156-7.53125-9.46875-19.03125-4.808594-28.613281l7.546876-15.519532 11.277343 5.25c1.367188.636719 2.800781.941407 4.214844.941407 3.769531 0 7.375-2.140625 9.074219-5.78125 2.332031-5.007813.164062-10.957031-4.84375-13.285157l-10.976563-5.113281 1.167969-2.402343c2.015625-4.144532 3.792969-8.367188 5.351562-12.652344h16.347657c5.523437 0 10-4.476563 10-10 0-5.519532-4.476563-10-10-10h-10.8125c1.136719-5.867188 1.871093-11.796875 2.203125-17.742188h8.609375c5.523437 0 10-4.480468 10-10 0-5.523437-4.476563-10-10-10h-9.023438c-.5625-5.816406-1.511719-11.605468-2.851562-17.332031l14.957031-14.957031c3.90625-3.902344 3.90625-10.234375 0-14.140625-3.902344-3.902344-10.234375-3.90625-14.140625 0l-7.761719 7.761719c-.132812-.316407-.257812-.632813-.390625-.945313l-9.191406-21.300781 34.726563-34.726563 27.566406 27.5625c8.464844 8.464844 19.117187 14.296875 30.808594 16.867188 7.953124 1.75 15.199218 5.71875 20.957031 11.476562l11.089843 11.089844-19.5625 19.5625c-5.421874 5.421875-9.199218 12.242187-10.917968 19.714844l-6.726563 29.269531c-3.691406 16.058594-11.800781 30.707031-23.457031 42.359375l-61.546875 61.546875zm55.640625 33.902344c-2.902343 2.90625-6.761719 4.503906-10.871093 4.503906-4.105469 0-7.964844-1.597656-10.871094-4.503906-2.902344-2.902344-4.5-6.761719-4.5-10.871094 0-4.105469 1.597656-7.964844 4.5-10.867187.003906-.003907.003906-.003907.003906-.003907l45.175781-45.175781 21.605469 21.875zm0 0" fill="#100d7e" data-original="#000000" style=""/><path xmlns="http://www.w3.org/2000/svg" d="m332.273438 398.4375h-48.472657c-5.523437 0-10 4.476562-10 10 0 5.519531 4.476563 10 10 10h48.472657c5.523437 0 10-4.480469 10-10 0-5.523438-4.476563-10-10-10zm0 0" fill="#100d7e" data-original="#000000" style=""/><path xmlns="http://www.w3.org/2000/svg" d="m372.230469 398.4375c-2.640625 0-5.210938 1.0625-7.082031 2.929688-1.859376 1.859374-2.917969 4.429687-2.917969 7.070312 0 2.628906 1.058593 5.210938 2.917969 7.070312 1.871093 1.859376 4.441406 2.929688 7.082031 2.929688 2.628906 0 5.210937-1.070312 7.070312-2.929688 1.859375-1.859374 2.917969-4.441406 2.917969-7.070312 0-2.640625-1.058594-5.210938-2.917969-7.070312-1.871093-1.867188-4.441406-2.929688-7.070312-2.929688zm0 0" fill="#100d7e" data-original="#000000" style=""/></g></svg>
