<?xml version="1.0"?>
<svg xmlns="http://www.w3.org/2000/svg" xmlns:xlink="http://www.w3.org/1999/xlink" xmlns:svgjs="http://svgjs.com/svgjs" version="1.1" width="512" height="512" x="0" y="0" viewBox="0 0 512.002 512.002" style="enable-background:new 0 0 512 512" xml:space="preserve"><g><g xmlns="http://www.w3.org/2000/svg"><g><path d="m485.312 120.836c-1.385-5.168-4.69-9.482-9.307-12.147l-25.981-15c-9.55-5.514-21.806-2.23-27.32 7.32l-16.706 28.935v-59.944c0-16.542-13.458-30-30-30h-40v-10c0-16.542-13.458-30-30-30s-30 13.458-30 30v10h-30v-10c0-16.542-13.458-30-30-30s-30 13.458-30 30v10h-29.999v-10c0-16.542-13.458-30-30-30s-30 13.458-30 30v10h-40c-16.542 0-30 13.458-30 30v20c0 5.523 4.477 10 10 10s10-4.477 10-10v-20c0-5.514 4.486-10 10-10h40v10c0 16.542 13.458 30 30 30s30-13.458 30-30v-10h29.999v10c0 16.542 13.458 30 30 30s30-13.458 30-30v-10h30v10c0 16.542 13.458 30 30 30s30-13.458 30-30v-10h40c5.514 0 10 4.486 10 10v94.585l-96.164 166.56c-7.847-21.721-16.294-37.254-19.765-43.247 1.333-21.054 18.013-45.308 18.183-45.552.877-1.258 1.454-2.701 1.684-4.218l8.746-57.545c.739-4.864-2.169-9.543-6.858-11.033l-41.157-13.079c-3.04-.967-6.358-.423-8.932 1.459-2.575 1.883-4.096 4.882-4.096 8.071 0 12.227-9.708 22.174-21.64 22.174-11.933 0-21.64-9.947-21.64-22.174 0-3.189-1.521-6.188-4.096-8.071-2.573-1.883-5.891-2.425-8.932-1.459l-41.157 13.079c-4.689 1.49-7.598 6.169-6.858 11.033l8.746 57.545c.23 1.517.807 2.959 1.684 4.218 4.838 6.938 17.025 27.994 18.179 45.55-7.272 12.512-35.925 65.901-35.925 130.259 0 4.635 3.185 8.663 7.696 9.731 22.102 5.234 51.332 8.116 82.304 8.116 18.083 0 36.197-.939 54.145-3.186 7.518-.941 12.102-2.095 18.366-5.686 12.543-7.191 25.087-14.383 37.63-21.574 1.532-.878 2.804-2.146 3.687-3.675l56.173-97.294v177.417c0 5.514-4.486 10-10 10h-320.004c-5.514 0-10-4.486-10-10v-302.004c0-5.523-4.477-10-10-10s-10 4.477-10 10v302.002c0 16.542 13.458 30 30 30h320.001c16.542 0 30-13.458 30-30v-212.058l77.327-133.934c2.666-4.618 3.372-10.007 1.987-15.174zm-349.314-50.836c0 5.514-4.486 10-10 10s-10-4.486-10-10v-40c0-5.514 4.486-10 10-10 5.514 0 10 4.486 10 10zm89.999 0c0 5.514-4.486 10-10 10s-10-4.486-10-10v-40c0-5.514 4.486-10 10-10 5.514 0 10 4.486 10 10zm90 0c0 5.514-4.486 10-10 10s-10-4.486-10-10v-40c0-5.514 4.486-10 10-10h.001c5.514 0 10 4.486 10 10v40zm-154.498 162.925-7.128-46.902 22.019-6.997c5.431 16.9 21.134 29.149 39.608 29.149s34.177-12.249 39.608-29.149l22.019 6.997-7.128 46.902c-4.145 6.378-16.399 26.621-19.685 47.583h-69.627c-3.287-20.962-15.541-41.205-19.686-47.583zm-15.335 177.182c2.115-51.699 23.904-95.567 31.628-109.599h10.801c-1.722 7.066-4.336 18.909-6.65 33.995-.838 5.459 2.909 10.563 8.368 11.401.514.079 1.024.117 1.529.117 4.853 0 9.114-3.54 9.872-8.485 2.877-18.75 6.286-32.384 7.518-37.028h13.537c1.232 4.644 4.642 18.279 7.518 37.028.758 4.945 5.019 8.485 9.872 8.485.504 0 1.015-.038 1.529-.117 5.459-.837 9.206-5.942 8.368-11.401-2.314-15.086-4.928-26.929-6.65-33.995h10.807c4.73 8.571 14.702 28.242 22.188 53.909l-7.195 12.462c-.883 1.529-1.345 3.265-1.34 5.03l.124 41.015c-15.936 2.017-33.718 3.077-51.99 3.077-25.465 0-50.374-2.123-69.834-5.894zm167.688-20.563-25.89 14.843-.09-29.843 122.15-211.573 25.982 15.001zm132.152-228.893-25.982-15.001 20.001-34.643 25.982 15.001z" fill="#e51919" data-original="#000000" style=""/><path d="m35.997 145.003c5.523 0 10-4.477 10-10v-.007c0-5.523-4.477-9.996-10-9.996s-10 4.48-10 10.003 4.477 10 10 10z" fill="#e51919" data-original="#000000" style=""/></g></g></g></svg>
