<?xml version="1.0"?>
<svg xmlns="http://www.w3.org/2000/svg" xmlns:xlink="http://www.w3.org/1999/xlink" xmlns:svgjs="http://svgjs.com/svgjs" version="1.1" width="512" height="512" x="0" y="0" viewBox="0 0 511.998 511.998" style="enable-background:new 0 0 512 512" xml:space="preserve" class=""><g><g xmlns="http://www.w3.org/2000/svg"><g><path d="m395.529 93.986c25.912 0 46.993-21.081 46.993-46.993s-21.081-46.993-46.993-46.993-46.993 21.081-46.993 46.993 21.081 46.993 46.993 46.993zm0-78.986c17.641 0 31.993 14.353 31.993 31.993s-14.353 31.993-31.993 31.993-31.993-14.353-31.993-31.993 14.353-31.993 31.993-31.993z" fill="#cd7619" data-original="#000000" style=""/><path d="m470.98 475.144c-3.547-10.866-15.212-16.79-26.075-13.241l-10.353 3.38c-26.904 8.778-56.905 6.618-82.31-5.93-3.715-1.834-8.212-.309-10.046 3.403-1.834 3.714-.311 8.212 3.403 10.046 28.889 14.267 63.006 16.725 93.605 6.74l10.355-3.381c2.975-.972 6.183.646 7.159 3.637.972 2.979-.646 6.186-3.637 7.162l-10.353 3.379c-35.949 11.732-75.449 7.819-108.33-10.602l-49.961-27.984 7.378-8.886 22.809 12.776c3.61 2.022 8.184.735 10.209-2.879 2.023-3.614.735-8.185-2.879-10.209l-38.869-21.771c2.108-1.947 3.941-4.215 5.406-6.767 7.489-13.033 3.566-29.398-8.496-37.733 6.932-8.349 47.976-57.78 55.878-67.297 10.216-12.305 8.334-30.48-3.986-40.464l-72.243-70.515c-.965-.94-1.193-2.538-.422-3.727 2.493-3.842 5.066-7.501 7.704-11.004l32.374 17.868v6.413c0 10.335 5.602 19.892 14.617 24.941l78.961 44.227c11.572 6.485 25.639 4.042 34.406-4.945l14.31 7.898c3.631 2.002 8.191.681 10.19-2.942 2.001-3.626.685-8.188-2.942-10.19l-14.247-7.863c3.001-11.993-2.091-25.294-13.777-31.838l-17.066-9.56-47.278-26.482v-31.704c0-4.143-3.357-7.5-7.5-7.5s-7.5 3.357-7.5 7.5v31.983c0 5.25 2.846 10.105 7.427 12.671l40.449 22.657-15.125 22.674-52.977-29.673c-4.285-2.399-6.947-6.941-6.947-11.854 0-16.07 0-94.348 0-109.974 0-7.445 5.828-13.948 13.348-14.08 7.514-.137 13.825 5.932 13.825 13.575v27.02c0 4.143 3.357 7.5 7.5 7.5s7.5-3.357 7.5-7.5v-27.02c0-4.69-1.122-9.189-3.226-13.215-2.342-8.292-7.893-15.533-15.385-19.986-7.908-4.7-17.189-5.99-26.134-3.626-9.495 2.509-18.954 5.921-28.112 10.142-21.778 10.036-50.188 28.59-76.729 62.612l-65.528-36.164 5.893-10.706c1.997-3.629.675-8.19-2.953-10.188-3.629-1.997-8.189-.674-10.188 2.953l-5.886 10.692-17.526-9.673c-3.627-1.999-8.188-.685-10.19 2.942-2.001 3.626-.685 8.188 2.942 10.19l17.541 9.681-6.322 11.485c-1.997 3.629-.675 8.19 2.953 10.188 3.623 1.995 8.188.678 10.188-2.953l6.314-11.471 63.817 35.222c-7.67 11.095-14.517 22.787-20.391 34.365-8.749 17.235-3.966 37.197 11.901 49.671l53.305 41.92-37.851 45.678s-.002.003-.004.005l-25.599 30.892c-2.867 3.453-4.819 7.449-5.818 11.661l-102.713-57.532c-9.952-5.577-22.55-2.059-28.149 7.938-5.57 9.948-2.01 22.575 7.938 28.147l120.396 67.435 156.114 87.44c36.481 20.437 80.323 24.826 120.314 11.774l10.352-3.379c10.864-3.543 16.788-15.207 13.242-26.075zm-68.503-241.379 11.013 6.169c6.551 3.668 8.886 11.939 5.216 18.492-3.682 6.571-11.966 8.874-18.494 5.215l-12.859-7.203zm-131.346 210.535-84.982-47.6 7.379-8.886c43.356 24.284 40.885 22.9 84.982 47.6zm-47.97-57.081c-.97-4.112.069-8.581 2.759-11.823l21.159-25.484 24.317 13.25-4.433 5.339c-5.135 6.182-3.448 15.498 3.511 19.494 6.512 3.742 8.755 12.037 5.013 18.55-1.609 2.802-4.134 4.905-7.123 5.992zm31.392-106.782 18.583 14.613-29.723 35.797-21.132-11.465zm22.078-108.936c7.127-7.863 14.698-14.599 22.671-20.183v32.695zm13.264-87.481c5.739-2.645 11.602-4.94 17.511-6.86-5.013 5.152-8.104 12.183-8.104 19.922v.505 35.892c-13.026 7.687-25.103 17.938-36.121 30.6l-42.976-23.719c24.303-30.513 49.952-47.245 69.69-56.34zm-36.22 91.944c-2.139 2.904-4.232 5.907-6.276 9.014l-48.454-13.353c3.974-6.841 8.053-13.207 12.202-19.133zm-62.748 10.394c.208-.41.421-.803.63-1.21l52.59 14.492c.74 3.488 2.577 6.717 5.022 9.104.445.434 72.623 70.918 73.111 71.302 6.012 4.728 6.94 13.477 2.054 19.359l-43.172 51.996-24.317-13.25 29.277-35.262c4.603-5.54 3.732-13.775-1.934-18.23-10.204-8.025-77.838-61.214-85.464-67.211-10.079-7.925-13.213-20.419-7.797-31.09zm-.076 170.954 21.674-26.156 21.12 11.457-19.266 23.203c-3.1 3.733-5.226 8.42-6.08 13.079-6.796-3.806-13.683-7.664-20.498-11.481-.364-3.599.716-7.291 3.05-10.102zm-135.141-40.181c1.535-2.738 4.993-3.718 7.731-2.18l116.778 65.409-7.378 8.886-114.949-64.384c-2.733-1.531-3.711-5-2.182-7.731z" fill="#cd7619" data-original="#000000" style=""/></g></g></g></svg>
