<?xml version="1.0" encoding="UTF-8"?>
<svg width="32px" height="32px" viewBox="0 0 32 32" version="1.1" xmlns="http://www.w3.org/2000/svg" xmlns:xlink="http://www.w3.org/1999/xlink">
    <!-- Generator: Sketch 44.1 (41455) - http://www.bohemiancoding.com/sketch -->
    <title>Metarubrick / Beauty / solarium</title>
    <desc>Created with Sketch.</desc>
    <defs></defs>
    <g id="Page-1" stroke="none" stroke-width="1" fill="none" fill-rule="evenodd">
        <g id="New-meta-draft" transform="translate(-484.000000, -984.000000)">
            <g id="Slice" transform="translate(84.000000, 84.000000)"></g>
            <g id="Icon" transform="translate(51.000000, 42.000000)" stroke="#8345FE" stroke-width="2">
                <g id="Beauty" transform="translate(0.000000, 893.000000)">
                    <g id="Solarium" transform="translate(435.000000, 51.000000)">
                        <path d="M21,14 C21,10.134 17.866,7 14,7 C10.134,7 7,10.134 7,14 C7,17.866 10.134,21 14,21 C17.866,21 21,17.866 21,14 Z" id="Stroke-1"></path>
                        <path d="M14,0 L14,4" id="Stroke-3"></path>
                        <path d="M14,24 L14,28" id="Stroke-5"></path>
                        <path d="M7,1.876 L9,5.34" id="Stroke-7"></path>
                        <path d="M19,22.6602 L21,26.1242" id="Stroke-9"></path>
                        <path d="M1.8755,7 L5.3395,9" id="Stroke-11"></path>
                        <path d="M22.6602,19 L26.1242,21" id="Stroke-13"></path>
                        <path d="M0,14 L4,14" id="Stroke-15"></path>
                        <path d="M24,14 L28,14" id="Stroke-17"></path>
                        <path d="M1.8755,21 L5.3395,19" id="Stroke-19"></path>
                        <path d="M22.6602,9 L26.1242,7" id="Stroke-21"></path>
                        <path d="M7,26.124 L9,22.66" id="Stroke-23"></path>
                        <path d="M19,5.3398 L21,1.8758" id="Stroke-25"></path>
                    </g>
                </g>
            </g>
        </g>
    </g>
</svg>