<?xml version="1.0"?>
<svg xmlns="http://www.w3.org/2000/svg" xmlns:xlink="http://www.w3.org/1999/xlink" xmlns:svgjs="http://svgjs.com/svgjs" version="1.1" width="512" height="512" x="0" y="0" viewBox="0 0 512 512" style="enable-background:new 0 0 512 512" xml:space="preserve" class=""><g><g xmlns="http://www.w3.org/2000/svg"><path d="m487 53c-8.284 0-15 6.716-15 15v25h-45c-8.284 0-15 6.716-15 15v247.783l-13.249 43.85c-7.368-45.101-46.6-79.633-93.751-79.633h-50v-22.687c32.733-17.801 55-52.505 55-92.313v-55h30c8.284 0 15-6.716 15-15s-6.716-15-15-15h-10.109c-2.634-66.615-57.641-120-124.891-120s-122.257 53.385-124.891 120h-10.109c-8.284 0-15 6.716-15 15s6.716 15 15 15h30v55c0 39.808 22.267 74.512 55 92.313v22.687h-50c-52.383 0-95 42.617-95 95v82c0 8.284 6.716 15 15 15h462c8.284 0 15-6.716 15-15v-389-40c0-8.284-6.716-15-15-15zm-15 70v220h-30v-220zm-322 227h11.385l17.5 30h-28.885zm98.615 0h11.385v30h-28.885zm-43.615-320c50.706 0 92.26 39.932 94.869 90h-189.738c2.609-50.068 44.163-90 94.869-90zm-75 175v-55h150v55c0 41.355-33.645 75-75 75s-75-33.645-75-75zm75 105c6.838 0 13.523-.665 20-1.919v22.863l-20 34.286-20-34.286v-22.863c6.477 1.254 13.162 1.919 20 1.919zm-165 105c0-35.841 29.159-65 65-65h15v45c0 8.284 6.716 15 15 15h55v72h-80v-37c0-8.284-6.716-15-15-15s-15 6.716-15 15v37h-40zm330 67h-40v-37c0-8.284-6.716-15-15-15s-15 6.716-15 15v37h-80v-72h55c8.284 0 15-6.716 15-15v-45h15c35.841 0 65 29.159 65 65zm35.202 0 32.935-109h33.863v109z" fill="#0a8022" data-original="#000000" style=""/></g></g></svg>
