<?xml version="1.0" encoding="UTF-8"?>
<svg width="32px" height="32px" viewBox="0 0 32 32" version="1.1" xmlns="http://www.w3.org/2000/svg" xmlns:xlink="http://www.w3.org/1999/xlink">
    <!-- Generator: Sketch 44.1 (41455) - http://www.bohemiancoding.com/sketch -->
    <title>Metarubrick / Shops / souvenirs</title>
    <desc>Created with Sketch.</desc>
    <defs></defs>
    <g id="Page-1" stroke="none" stroke-width="1" fill="none" fill-rule="evenodd">
        <g id="New-meta-draft" transform="translate(-584.000000, -2384.000000)">
            <g id="Slice" transform="translate(84.000000, 84.000000)"></g>
            <g id="Icon" transform="translate(51.000000, 42.000000)" stroke="#52B311" stroke-width="2">
                <g id="Shops" transform="translate(27.000000, 2294.000000)">
                    <g id="Souvenirs" transform="translate(509.000000, 51.000000)">
                        <path d="M22,21 L4,21 C2.896,21 2,21.896 2,23 L2,26 L24,26 L24,23 C24,21.896 23.104,21 22,21 Z" id="Stroke-1"></path>
                        <polyline id="Stroke-3" points="7 18 7 12 15 9 19 12 19 18"></polyline>
                        <path d="M23.2324,21 C24.9614,18.793 26.0004,16.021 26.0004,13 C26.0004,5.82 20.1794,0 13.0004,0 C5.8204,0 0.0004,5.82 0.0004,13 C0.0004,16.021 1.0394,18.793 2.7674,21" id="Stroke-5"></path>
                        <path d="M13,5 C11.108,5 9.37,5.656 8,6.755" id="Stroke-7"></path>
                        <path d="M15,14 L15,18" id="Stroke-9"></path>
                        <path d="M12,15 L10,15" id="Stroke-11"></path>
                    </g>
                </g>
            </g>
        </g>
    </g>
</svg>