<?xml version="1.0"?>
<svg xmlns="http://www.w3.org/2000/svg" xmlns:xlink="http://www.w3.org/1999/xlink" xmlns:svgjs="http://svgjs.com/svgjs" version="1.1" width="512" height="512" x="0" y="0" viewBox="0 0 64 64" style="enable-background:new 0 0 512 512" xml:space="preserve" class=""><g><title xmlns="http://www.w3.org/2000/svg">02 Speaker</title><g xmlns="http://www.w3.org/2000/svg" id="_02_Speaker" data-name="02 Speaker"><path d="M18,15a6,6,0,1,0-6-6A6.006,6.006,0,0,0,18,15ZM18,5a4,4,0,1,1-4,4A4,4,0,0,1,18,5Z" fill="#157629" data-original="#000000" style=""/><path d="M37.559,13.152a3.913,3.913,0,0,0-5.379.254L28.586,17H18a6.006,6.006,0,0,0-6,6V57a4,4,0,0,0,4,4,3.959,3.959,0,0,0,2-.555A3.947,3.947,0,0,0,20,61a4,4,0,0,0,4-4V25h5.343a4.966,4.966,0,0,0,3.535-1.464l4.829-4.829a3.846,3.846,0,0,0,1.12-2.808,3.8,3.8,0,0,0-1.268-2.747ZM16,59a2,2,0,0,1-2-2V44.414l2,2V57a3.95,3.95,0,0,0,.07.7c.012.067.024.133.039.2a4.087,4.087,0,0,0,.185.594c.034.084.077.161.116.241s.061.138.1.2A1.951,1.951,0,0,1,16,59ZM36.293,17.293l-4.829,4.829A3.02,3.02,0,0,1,29.343,23H23a1,1,0,0,0-1,1V57a1.991,1.991,0,0,1-3.325,1.487l-.006-.008a2,2,0,0,1-.616-1.038c0-.01-.007-.019-.009-.029A1.947,1.947,0,0,1,18,57V46a1,1,0,0,0-.293-.707l-2.829-2.829A3.02,3.02,0,0,1,14,40.343V23a4,4,0,0,1,4-4H29a1,1,0,0,0,.707-.293l3.887-3.887a1.942,1.942,0,0,1,2.627-.182,1.829,1.829,0,0,1,.072,2.655Z" fill="#157629" data-original="#000000" style=""/><path d="M51.707,59.293,49,56.586V27.078l.5.289a1,1,0,0,0,1-1.733l-4.33-2.5.5-.866A1,1,0,0,0,46.3,20.9l-2.6-1.5a3,3,0,1,0-3,5.2l2.6,1.5a1,1,0,0,0,1.366-.367l.5-.865L47,25.923V56.586l-2.707,2.707a1,1,0,0,0,1.414,1.414L48,58.414l2.293,2.293a1,1,0,0,0,1.414-1.414ZM43.438,23.866l-1.732-1a1,1,0,1,1,1-1.732l1.732,1Z" fill="#157629" data-original="#000000" style=""/></g></g></svg>
