<?xml version="1.0"?>
<svg xmlns="http://www.w3.org/2000/svg" xmlns:xlink="http://www.w3.org/1999/xlink" xmlns:svgjs="http://svgjs.com/svgjs" version="1.1" width="512" height="512" x="0" y="0" viewBox="0 0 128 128" style="enable-background:new 0 0 512 512" xml:space="preserve"><g><path xmlns="http://www.w3.org/2000/svg" d="m96 15c-8.86-.68-14.68 3.33-18.92 6.26-2.12 1.47-4 2.73-5.23 2.73-4.23 0-7.13-1.18-8.61-3.5-3.14-4.91.07-14.41 1.58-17.66a2 2 0 0 0 -3.63-1.68c-.26.55-6.28 13.72-1.32 21.49 2.21 3.56 6.24 5.36 11.93 5.36 2.52 0 4.83-1.59 7.5-3.43 4-2.74 8.9-6.15 16.35-5.58 19.65 1.52 29.11 23.65 28.3 44.73 0 1.37-.16 2.73-.29 4.1a14.94 14.94 0 0 1 -4.77-1.62 19.85 19.85 0 0 0 -18.17 0 15.85 15.85 0 0 1 -14.66 0 18.73 18.73 0 0 0 -5.76-1.95 46.89 46.89 0 0 0 .83-7.93c.16-9.83-3-19.9-9.44-20.12-9.4-.32-15.84-3.11-19.13-8.29-6.18-9.71.21-25 .28-25.13a2 2 0 1 0 -3.68-1.58c-.3.71-7.29 17.35 0 28.84 4 6.38 11.58 9.79 22.38 10.16 2.76.1 5.74 6.71 5.58 16-.25 14.76-8.14 32-29.52 32-3.11 0-6.48-1-10-2-5.65-1.64-12-3.49-18.78-1.69-11.98 3.25-18.82 18.35-18.82 41.49a2 2 0 0 0 4 0c0-20.87 5.91-34.92 15.81-37.57 5.66-1.52 11.24.1 16.63 1.66 3.86 1.11 7.49 2.17 11.17 2.17 17.64 0 27.9-10.87 31.75-24.1a14.77 14.77 0 0 1 5 1.64 19.85 19.85 0 0 0 18.17 0 15.88 15.88 0 0 1 14.66 0 18.64 18.64 0 0 0 6 2c-3.9 24.54-21.44 47.05-54.67 47.05-15.55 0-23.94-6.51-30.69-11.73-4.54-3.52-8.47-6.56-13.2-6.09a13.27 13.27 0 0 0 -9.76 5.29c-5.48 7.35-3.2 19.56-3.1 20.08a2 2 0 0 0 3.93-.76c0-.11-2.06-11 2.37-16.93a9.31 9.31 0 0 1 7-3.7c3.14-.32 6.32 2.15 10.35 5.27 6.85 5.3 16.22 12.57 33.14 12.57 39.51 0 58.33-29.61 59.46-58.95.81-23.02-9.89-47.19-32.02-48.9z" fill="#14a708" data-original="#000000" style=""/></g></svg>
