<?xml version="1.0"?>
<svg xmlns="http://www.w3.org/2000/svg" xmlns:xlink="http://www.w3.org/1999/xlink" xmlns:svgjs="http://svgjs.com/svgjs" version="1.1" width="512" height="512" x="0" y="0" viewBox="0 0 512.002 512.002" style="enable-background:new 0 0 512 512" xml:space="preserve" class=""><g><g xmlns="http://www.w3.org/2000/svg"><path d="m489.542 372.331h-1.597l-15.699-110.563c-.583-4.101-4.383-6.953-8.48-6.371-4.101.583-6.953 4.379-6.371 8.48l15.399 108.453h-58.899l-9.224-81.257c-2.229-19.557-19.746-37.187-42.688-37.187h-211.964c-22.841 0-40.425 17.506-42.689 37.2l-9.222 81.243h-58.9l32.659-230.013h166.634c4.143 0 7.5-3.357 7.5-7.5s-3.357-7.5-7.5-7.5h-164.389c2.563-10.553 11.892-17.564 22.319-17.564h319.139c10.355 0 19.738 6.936 22.319 17.564h-164.388c-4.143 0-7.5 3.357-7.5 7.5s3.357 7.5 7.5 7.5h166.634l12.291 86.56c.583 4.102 4.387 6.952 8.48 6.371 4.101-.583 6.953-4.379 6.371-8.48l-14.191-99.944c-.007-.046-.014-.093-.021-.14-2.983-18.494-18.745-31.932-37.494-31.932h-319.139c-16.984 0-31.527 11.03-36.326 26.869-1.338 4.416.742-8.402-36.049 250.71h-1.598c-12.384.001-22.459 10.076-22.459 22.461 0 12.384 10.075 22.459 22.459 22.459h81.083c19.767 0 36.354-14.811 38.585-34.452l9.534-83.991h208.68l9.534 83.993c2.23 19.64 18.818 34.45 38.585 34.45h81.082c12.385 0 22.46-10.075 22.46-22.459 0-12.385-10.075-22.46-22.46-22.46zm0 29.919h-81.082c-12.131 0-22.312-9.09-23.681-21.143-.063-.557-9.778-86.316-9.896-86.864-1.288-6.048-6.714-10.437-12.9-10.437h-211.964c-6.95 0-12.374 5.498-13.018 11.154l-9.778 86.145c-1.369 12.055-11.55 21.145-23.681 21.145h-81.083c-4.113 0-7.459-3.346-7.459-7.459s3.346-7.46 7.459-7.46h81.083c4.545 0 8.353-3.405 8.856-7.909.034-.299 9.838-86.725 9.889-87.021 2.259-13.624 13.922-23.513 27.731-23.513h211.965c15.11 0 26.367 11.734 27.785 23.892l9.835 86.645c.512 4.508 4.319 7.907 8.856 7.907h72.975 8.107c4.113 0 7.46 3.347 7.46 7.46s-3.346 7.458-7.459 7.458z" fill="#a91244" data-original="#000000" style=""/></g></g></svg>
