<?xml version="1.0" encoding="UTF-8" standalone="no"?>
<svg
   version="1.1"
   width="512"
   height="512"
   x="0"
   y="0"
   viewBox="0 0 512 512"
   style="enable-background:new 0 0 512 512"
   xml:space="preserve"
   class=""
   id="svg19"
   sodipodi:docname="storm.svg"
   inkscape:version="1.1.1 (c3084ef, 2021-09-22)"
   xmlns:inkscape="http://www.inkscape.org/namespaces/inkscape"
   xmlns:sodipodi="http://sodipodi.sourceforge.net/DTD/sodipodi-0.dtd"
   xmlns="http://www.w3.org/2000/svg"
   xmlns:svg="http://www.w3.org/2000/svg"><defs
     id="defs23" /><sodipodi:namedview
     id="namedview21"
     pagecolor="#ffffff"
     bordercolor="#666666"
     borderopacity="1.0"
     inkscape:pageshadow="2"
     inkscape:pageopacity="0.0"
     inkscape:pagecheckerboard="0"
     showgrid="false"
     inkscape:zoom="1.7050781"
     inkscape:cx="256"
     inkscape:cy="255.70676"
     inkscape:window-width="2240"
     inkscape:window-height="1122"
     inkscape:window-x="0"
     inkscape:window-y="25"
     inkscape:window-maximized="0"
     inkscape:current-layer="svg19" /><g
     id="g17"><g
       id="g15"><path
         d="m375.726 286.426v-38.442c0-4.142-3.358-7.5-7.5-7.5s-7.5 3.358-7.5 7.5v32.878c-1.483-.189-2.99-.298-4.524-.298-4.142 0-7.5 3.358-7.5 7.5s3.358 7.5 7.5 7.5c11.335 0 20.557 9.222 20.557 20.557s-9.222 20.557-20.557 20.557h-4.008c-4.142 0-7.5 3.357-7.5 7.5 0 66.586-54.172 120.758-120.758 120.758s-120.758-54.172-120.758-120.758c0-4.143-3.358-7.5-7.5-7.5h-4.008c-11.335 0-20.557-9.222-20.557-20.557s9.222-20.557 20.557-20.557c4.142 0 7.5-3.358 7.5-7.5s-3.358-7.5-7.5-7.5c-1.534 0-3.042.108-4.524.298v-32.878c0-23.074 6.527-45.501 18.876-64.857 12.028-18.853 28.989-33.986 49.049-43.763 3.724-1.814 5.271-6.304 3.456-10.027-1.814-3.725-6.306-5.271-10.027-3.456-22.546 10.988-41.607 27.994-55.123 49.178-13.889 21.77-21.23 46.987-21.23 72.925v38.442c-9.649 6.365-16.032 17.296-16.032 29.695 0 18.495 14.193 33.737 32.261 35.405 1.634 30.453 13.356 58.269 31.868 80.168v72.806c0 4.142 3.358 7.5 7.5 7.5s7.5-3.358 7.5-7.5v-57.627c23.808 20.591 54.822 33.062 88.694 33.062s64.885-12.472 88.693-33.062v57.627c0 4.142 3.358 7.5 7.5 7.5s7.5-3.358 7.5-7.5v-72.805c18.512-21.9 30.234-49.716 31.868-80.169 18.067-1.668 32.261-16.91 32.261-35.405-.002-12.399-6.385-23.33-16.034-29.695z"
         fill="#067c19"
         data-original="#000000"
         style=""
         id="path9" /><path
         d="m400.291 40.081c-3.791 0-7.632.425-11.475 1.268-8.999-10.922-22.326-17.3-36.623-17.3-4.426 0-8.786.616-13.024 1.837-11.975-16.317-30.661-25.886-51.105-25.886-32.543 0-59.458 24.562-63.174 56.122-.318-.006-.636-.009-.955-.009-26.236 0-47.581 21.345-47.581 47.581s21.345 47.581 47.581 47.581h24.051c4.142 0 7.5-3.358 7.5-7.5 0-4.143-3.358-7.5-7.5-7.5h-24.051c-17.965 0-32.581-14.616-32.581-32.581s14.616-32.581 32.581-32.581c2.203 0 4.409.222 6.558.661 2.224.455 4.536-.124 6.285-1.573s2.747-3.612 2.714-5.883c-.003-.256-.017-.51-.04-.831.069-26.747 21.85-48.487 48.612-48.487 17.197 0 32.776 8.887 41.673 23.772 1.938 3.241 5.982 4.536 9.442 3.024 4.171-1.824 8.55-2.749 13.014-2.749 11.049 0 21.262 5.587 27.318 14.945 1.839 2.842 5.354 4.1 8.58 3.069 4.114-1.315 8.218-1.982 12.199-1.982 22.385 0 40.597 18.211 40.597 40.597 0 22.385-18.211 40.597-40.597 40.597h-16.032c-4.142 0-7.5 3.357-7.5 7.5 0 4.142 3.358 7.5 7.5 7.5h16.032c30.656 0 55.597-24.941 55.597-55.597 0-30.655-24.94-55.595-55.596-55.595z"
         fill="#067c19"
         data-original="#000000"
         style=""
         id="path11" /><path
         d="m280.794 112.263c-4.124-.41-7.797 2.596-8.209 6.717l-8.016 80.161c-.211 2.108.48 4.208 1.902 5.779s3.442 2.467 5.561 2.467h23.078l-14.424 79.335c-.617 3.392 1.158 6.767 4.301 8.181.992.447 2.039.662 3.075.662 2.248 0 4.443-1.012 5.9-2.867l88.177-112.226c1.774-2.257 2.103-5.33.848-7.912-1.255-2.583-3.875-4.221-6.746-4.221h-28.707l19.568-45.659c1.632-3.807-.132-8.216-3.939-9.848-3.807-1.631-8.216.132-9.848 3.939l-24.048 56.113c-.993 2.317-.755 4.978.632 7.083s3.74 3.372 6.261 3.372h24.649l-59.957 76.308 10.622-58.418c.398-2.188-.196-4.439-1.621-6.147s-3.534-2.694-5.758-2.694h-23.775l7.191-71.915c.412-4.122-2.595-7.798-6.717-8.21z"
         fill="#067c19"
         data-original="#000000"
         style=""
         id="path13" /></g></g></svg>
