<?xml version="1.0" encoding="iso-8859-1"?>
<!-- Generator: Adobe Illustrator 19.0.0, SVG Export Plug-In . SVG Version: 6.00 Build 0)  -->
<svg version="1.1" id="Capa_1" xmlns="http://www.w3.org/2000/svg" xmlns:xlink="http://www.w3.org/1999/xlink" x="0px" y="0px"
	 viewBox="0 0 512 512" style="enable-background:new 0 0 512 512;" xml:space="preserve">
<g>
	<g>
		<g>
			<path d="M503.467,490.667H8.533C3.821,490.667,0,494.487,0,499.2s3.821,8.533,8.533,8.533h494.933
				c4.713,0,8.533-3.821,8.533-8.533S508.179,490.667,503.467,490.667z"/>
			<path d="M85.333,482.133c47.054,0,85.333-38.279,85.333-85.333c0-47.054-38.279-85.333-85.333-85.333
				C38.279,311.467,0,349.746,0,396.8C0,443.854,38.279,482.133,85.333,482.133z M85.333,328.533
				c37.642,0,68.267,30.625,68.267,68.267c0,37.642-30.625,68.267-68.267,68.267c-37.642,0-68.267-30.625-68.267-68.267
				C17.067,359.158,47.692,328.533,85.333,328.533z"/>
			<path d="M85.333,448c28.233,0,51.2-22.967,51.2-51.2c0-28.233-22.967-51.2-51.2-51.2c-28.233,0-51.2,22.967-51.2,51.2
				C34.133,425.033,57.1,448,85.333,448z M85.333,362.667c18.821,0,34.133,15.313,34.133,34.133s-15.313,34.133-34.133,34.133
				S51.2,415.621,51.2,396.8S66.512,362.667,85.333,362.667z"/>
			<path d="M256,482.133c47.054,0,85.333-38.279,85.333-85.333c0-47.054-38.279-85.333-85.333-85.333
				c-47.054,0-85.333,38.279-85.333,85.333C170.667,443.854,208.946,482.133,256,482.133z M256,328.533
				c37.642,0,68.267,30.625,68.267,68.267c0,37.642-30.625,68.267-68.267,68.267c-37.642,0-68.267-30.625-68.267-68.267
				C187.733,359.158,218.358,328.533,256,328.533z"/>
			<path d="M256,448c28.233,0,51.2-22.967,51.2-51.2c0-28.233-22.967-51.2-51.2-51.2c-28.233,0-51.2,22.967-51.2,51.2
				C204.8,425.033,227.767,448,256,448z M256,362.667c18.821,0,34.133,15.313,34.133,34.133S274.821,430.933,256,430.933
				s-34.133-15.312-34.133-34.133S237.179,362.667,256,362.667z"/>
			<path d="M426.667,482.133c47.054,0,85.333-38.279,85.333-85.333c0-47.054-38.279-85.333-85.333-85.333
				c-47.054,0-85.333,38.279-85.333,85.333C341.333,443.854,379.613,482.133,426.667,482.133z M426.667,328.533
				c37.642,0,68.267,30.625,68.267,68.267c0,37.642-30.625,68.267-68.267,68.267S358.4,434.442,358.4,396.8
				C358.4,359.158,389.025,328.533,426.667,328.533z"/>
			<path d="M426.667,448c28.233,0,51.2-22.967,51.2-51.2c0-28.233-22.967-51.2-51.2-51.2s-51.2,22.967-51.2,51.2
				C375.467,425.033,398.433,448,426.667,448z M426.667,362.667c18.821,0,34.133,15.313,34.133,34.133s-15.313,34.133-34.133,34.133
				s-34.133-15.312-34.133-34.133S407.846,362.667,426.667,362.667z"/>
			<path d="M170.667,328.533c47.054,0,85.333-38.279,85.333-85.333c0-47.054-38.279-85.333-85.333-85.333
				c-47.054,0-85.333,38.279-85.333,85.333C85.333,290.254,123.612,328.533,170.667,328.533z M170.667,174.933
				c37.642,0,68.267,30.625,68.267,68.267s-30.625,68.267-68.267,68.267c-37.642,0-68.267-30.625-68.267-68.267
				C102.4,205.558,133.025,174.933,170.667,174.933z"/>
			<path d="M170.667,294.4c28.233,0,51.2-22.967,51.2-51.2c0-28.233-22.967-51.2-51.2-51.2c-28.233,0-51.2,22.967-51.2,51.2
				C119.467,271.433,142.433,294.4,170.667,294.4z M170.667,209.067c18.821,0,34.133,15.312,34.133,34.133
				s-15.312,34.133-34.133,34.133s-34.133-15.313-34.133-34.133S151.846,209.067,170.667,209.067z"/>
			<path d="M341.333,328.533c47.054,0,85.333-38.279,85.333-85.333c0-47.054-38.279-85.333-85.333-85.333
				c-47.054,0-85.333,38.279-85.333,85.333C256,290.254,294.279,328.533,341.333,328.533z M341.333,174.933
				c37.642,0,68.267,30.625,68.267,68.267c0,37.642-30.625,68.267-68.267,68.267c-37.642,0-68.267-30.625-68.267-68.267
				C273.067,205.558,303.692,174.933,341.333,174.933z"/>
			<path d="M341.333,294.4c28.233,0,51.2-22.967,51.2-51.2c0-28.233-22.967-51.2-51.2-51.2c-28.233,0-51.2,22.967-51.2,51.2
				C290.133,271.433,313.1,294.4,341.333,294.4z M341.333,209.067c18.821,0,34.133,15.312,34.133,34.133
				s-15.312,34.133-34.133,34.133S307.2,262.021,307.2,243.2S322.513,209.067,341.333,209.067z"/>
			<path d="M256,174.933c47.054,0,85.333-38.279,85.333-85.333c0-47.054-38.279-85.333-85.333-85.333
				c-47.054,0-85.333,38.279-85.333,85.333C170.667,136.654,208.946,174.933,256,174.933z M256,21.333
				c37.642,0,68.267,30.625,68.267,68.267c0,37.642-30.625,68.267-68.267,68.267c-37.642,0-68.267-30.625-68.267-68.267
				C187.733,51.958,218.358,21.333,256,21.333z"/>
			<path d="M256,140.8c28.233,0,51.2-22.967,51.2-51.2c0-28.233-22.967-51.2-51.2-51.2c-28.233,0-51.2,22.967-51.2,51.2
				C204.8,117.833,227.767,140.8,256,140.8z M256,55.467c18.821,0,34.133,15.312,34.133,34.133
				c0,18.821-15.313,34.133-34.133,34.133s-34.133-15.312-34.133-34.133C221.867,70.779,237.179,55.467,256,55.467z"/>
		</g>
	</g>
</g>
<g>
</g>
<g>
</g>
<g>
</g>
<g>
</g>
<g>
</g>
<g>
</g>
<g>
</g>
<g>
</g>
<g>
</g>
<g>
</g>
<g>
</g>
<g>
</g>
<g>
</g>
<g>
</g>
<g>
</g>
</svg>
