<?xml version="1.0"?>
<svg xmlns="http://www.w3.org/2000/svg" xmlns:xlink="http://www.w3.org/1999/xlink" xmlns:svgjs="http://svgjs.com/svgjs" version="1.1" width="512" height="512" x="0" y="0" viewBox="0 0 512 512" style="enable-background:new 0 0 512 512" xml:space="preserve" class=""><g><g xmlns="http://www.w3.org/2000/svg" id="XMLID_1402_"><g id="XMLID_12_"><path id="XMLID_82_" d="m135.071 395.262c-3.906-3.904-10.236-3.904-14.143 0l-3.886 3.886c-3.905 3.905-3.905 10.237 0 14.143 1.953 1.952 4.512 2.929 7.071 2.929 2.56 0 5.118-.977 7.071-2.929l3.886-3.886c3.906-3.906 3.906-10.238.001-14.143z" fill="#d3ad19" data-original="#000000" style=""/><path id="XMLID_880_" d="m283.457 391.376c-3.906-3.904-10.236-3.904-14.142 0l-3.886 3.886c-3.905 3.905-3.905 10.237 0 14.143 1.953 1.952 4.512 2.929 7.071 2.929s5.118-.977 7.071-2.929l3.886-3.886c3.905-3.906 3.905-10.238 0-14.143z" fill="#d3ad19" data-original="#000000" style=""/><path id="XMLID_881_" d="m311.205 454.929-3.886 3.886c-3.905 3.905-3.905 10.237 0 14.143 1.953 1.952 4.512 2.929 7.071 2.929 2.56 0 5.118-.977 7.071-2.929l3.886-3.886c3.905-3.905 3.905-10.237 0-14.143-3.906-3.905-10.236-3.905-14.142 0z" fill="#d3ad19" data-original="#000000" style=""/><path id="XMLID_882_" d="m104.597 446.595-3.886 3.885c-3.905 3.905-3.906 10.236-.002 14.143 1.953 1.953 4.513 2.93 7.072 2.93s5.118-.977 7.07-2.928l3.886-3.885c3.905-3.905 3.906-10.236.002-14.143-3.905-3.905-10.237-3.905-14.142-.002z" fill="#d3ad19" data-original="#000000" style=""/><path id="XMLID_883_" d="m184.07 431.956-3.886-3.885c-3.907-3.905-10.237-3.903-14.143.002-3.904 3.906-3.903 10.237.002 14.143l3.886 3.885c1.953 1.952 4.512 2.928 7.07 2.928 2.56 0 5.119-.977 7.072-2.93 3.905-3.907 3.904-10.238-.001-14.143z" fill="#d3ad19" data-original="#000000" style=""/><path id="XMLID_884_" d="m315.092 404.766c-3.905 3.905-3.906 10.236-.002 14.143l3.885 3.886c1.953 1.953 4.513 2.93 7.072 2.93s5.118-.977 7.07-2.928c3.905-3.905 3.906-10.236.002-14.143l-3.885-3.886c-3.905-3.905-10.237-3.905-14.142-.002z" fill="#d3ad19" data-original="#000000" style=""/><path id="XMLID_885_" d="m309.262 356.015c1.953 1.952 4.512 2.929 7.071 2.929s5.118-.977 7.071-2.929c3.905-3.905 3.905-10.237 0-14.142l-3.886-3.886c-3.906-3.904-10.236-3.904-14.143 0-3.905 3.905-3.905 10.237 0 14.143z" fill="#d3ad19" data-original="#000000" style=""/><path id="XMLID_888_" d="m510.6 496.898-91.734-154.638v-176.439h8.379l29.833 24.861c1.869 1.558 4.139 2.317 6.396 2.317 2.865 0 5.711-1.225 7.689-3.599 3.535-4.242 2.962-10.548-1.281-14.084l-207.6-173c-3.707-3.09-9.096-3.09-12.803 0l-207.6 173c-4.243 3.536-4.816 9.842-1.281 14.084 3.536 4.243 9.842 4.817 14.084 1.281l29.834-24.861h8.379v185.514c-6.805 5.801-12.729 12.785-17.486 20.804l-74.01 124.76c-1.833 3.092-1.867 6.929-.089 10.051 1.779 3.122 5.096 5.051 8.69 5.051h88.667c5.522 0 10-4.477 10-10s-4.478-10-10-10h-71.108l65.051-109.657c11.288-19.028 31.237-30.39 53.362-30.39 22.126 0 42.075 11.36 53.364 30.39l65.052 109.657h-75.721c-5.522 0-10 4.478-10 10s4.478 10 10 10h313.333c3.594 0 6.911-1.929 8.69-5.052 1.778-3.122 1.744-6.959-.09-10.05zm-244.719-351.077v-114.47l67.493 56.244v58.226zm-87.492 0v-58.227l67.492-56.243v114.47zm-69.873 0 49.873-41.56v41.56zm244.858 0v-41.56l49.872 41.56zm-240.479 20h24v166.629c-8.399.909-16.472 3.07-24 6.365zm44 166.842v-166.842h197.971v110.911c-36.477-11.309-76.888 3.419-97.067 37.436l-37.825 63.762-3.436-5.792c-13.044-21.987-34.832-36.23-59.643-39.475zm74.706 64.867 43.399-73.158c18.251-30.763 53.642-37.187 79.866-26.358v193.986h-67.224zm143.265 94.47v-326.179h24v326.179zm44 0v-110.54l65.574 110.54z" fill="#d3ad19" data-original="#000000" style=""/><path id="XMLID_897_" d="m143.67 492c-2.64 0-5.21 1.069-7.07 2.93-1.87 1.86-2.93 4.44-2.93 7.07s1.06 5.21 2.93 7.069c1.86 1.86 4.44 2.931 7.07 2.931s5.21-1.07 7.07-2.931c1.859-1.859 2.93-4.439 2.93-7.069s-1.07-5.21-2.93-7.07c-1.86-1.861-4.44-2.93-7.07-2.93z" fill="#d3ad19" data-original="#000000" style=""/></g></g></g></svg>
