<?xml version="1.0"?>
<svg xmlns="http://www.w3.org/2000/svg" xmlns:xlink="http://www.w3.org/1999/xlink" xmlns:svgjs="http://svgjs.com/svgjs" version="1.1" width="512" height="512" x="0" y="0" viewBox="0 0 511.997 511.997" style="enable-background:new 0 0 512 512" xml:space="preserve"><g>
<g xmlns="http://www.w3.org/2000/svg">
	<g>
		<path d="M479.648,491.982c-16.549-25.158-45.682-49.901-88.933-75.505c-3.641-2.155-8.351-0.91-10.461,2.757    c-2.077,3.613-0.85,8.218,2.737,10.34c36.251,21.455,61.898,41.987,77.928,62.41c-83.941,20.318-244.117-27.292-405.599-82.288    c-4.781-1.631-8.123-5.58-8.938-10.561c-0.813-4.968,1.089-9.763,5.086-12.822l28.369-21.695c2.424-1.854,3.505-4.978,2.745-7.933    l-8.896-34.596c-1.254-4.88,0.213-9.826,3.925-13.232c3.716-3.409,8.78-4.447,13.539-2.775    c40.556,14.245,74.093,26.461,104.449,38.049l-40.14,39.943c-2.958,2.944-2.991,7.721-0.074,10.705l54.545,55.315    c1.417,1.437,3.35,2.245,5.368,2.245h0.026c2.016,0,3.95-0.801,5.376-2.226l3.835-3.834c12.548-12.559,14.155-31.987,4.822-46.306    l30.384-30.274c1.705,0.712,3.41,1.418,5.112,2.136l-12.299,12.241c-2.957,2.943-2.991,7.72-0.074,10.703l54.535,55.315    c1.416,1.436,3.35,2.245,5.368,2.245h0.027c2.016,0,3.95-0.801,5.376-2.226l3.83-3.829c12.516-12.505,14.159-31.891,4.903-46.202    l0.345-0.345c9.976,4.831,19.515,9.651,28.477,14.393c3.689,1.951,8.255,0.578,10.244-3.091l0.001-0.002    c2.013-3.713,0.622-8.362-3.111-10.336c-7.696-4.072-15.806-8.198-24.24-12.336l35.895-35.895    c5.989-5.989,9.288-13.951,9.288-22.421s-3.298-16.433-9.288-22.422l-68.235-68.235l10.059-45.347    c1.527-6.878,5.649-12.737,11.608-16.498c5.957-3.759,13.015-4.958,19.874-3.378l78.303,18.042    c8.832,2.034,17.935,0.512,25.644-4.298c7.888-4.945,13.294-12.68,15.225-21.785c3.805-18.004-7.949-36.073-26.201-40.279    l-104.354-24.044c1.74-4.035,3.143-8.248,4.15-12.621c9.015-39.131-15.484-78.302-54.615-87.317    c-39.129-9.015-78.301,15.484-87.317,54.614c-1.008,4.373-1.59,8.776-1.791,13.166L90.79,45.293    c-8.852-2.039-17.966-0.507-25.653,4.312c-7.874,4.925-13.28,12.649-15.222,21.749c-3.833,18.009,7.915,36.086,26.187,40.296    l77.998,17.972c14.086,3.245,22.905,17.35,19.658,31.442c-0.023,0.102-0.045,0.206-0.064,0.309l-2.819,15.079    c-0.771,4.128,1.948,8.099,6.076,8.87c4.127,0.771,8.099-1.948,8.87-6.076l2.792-14.932c5.023-22.207-8.897-44.396-31.099-49.512    l-77.999-17.97c-10.237-2.359-16.844-12.368-14.728-22.309c1.075-5.033,4.062-9.304,8.42-12.03    c4.247-2.662,9.279-3.508,14.167-2.381l110.117,25.371c1.87,10.598,6.106,20.785,12.633,29.892    c9.77,13.627,24.088,23.495,40.291,27.809c6.286,1.674,12.648,2.499,18.96,2.499c13.496,0,26.754-3.776,38.479-11.109    c8.07-5.048,14.932-11.492,20.357-18.971l108.779,25.063c10.229,2.357,16.841,12.368,14.739,22.312    c-1.067,5.033-4.059,9.313-8.411,12.041c-4.255,2.655-9.286,3.497-14.166,2.372l-78.303-18.042    c-10.841-2.497-21.994-0.601-31.404,5.336c-9.414,5.941-15.926,15.197-18.338,26.064l-9.696,43.712l-116.778,4.806    c0.072-0.454,0.137-0.909,0.222-1.36l4.19-22.413c0.771-4.128-1.949-8.099-6.076-8.87c-4.128-0.771-8.099,1.949-8.87,6.076    l-4.189,22.412c-0.744,3.979-1.121,8.051-1.121,12.103c0,20.534,7.997,39.838,22.516,54.357l28.461,28.461l-2.351,2.34    c-32.173-12.37-67.673-25.341-111.225-40.639c-9.996-3.511-21.053-1.243-28.858,5.916c-7.8,7.155-11.008,17.969-8.373,28.223    l7.643,29.722l-24.377,18.64c-8.404,6.431-12.563,16.914-10.853,27.355c1.711,10.455,9.004,19.075,19.038,22.498    c72.815,24.798,166.595,55.478,246.137,72.758c46.533,10.108,85.618,15.151,117.903,15.15c24.185-0.001,44.559-2.831,61.364-8.483    c2.952-0.992,5.076-3.721,5.181-7.007C481.05,494.9,480.532,493.326,479.648,491.982z M299.792,121.681    c-13.048,8.162-28.494,10.753-43.491,7.297c-14.998-3.455-27.752-12.544-35.913-25.593c-4.883-7.807-7.755-16.474-8.548-25.388    c16.745-1.047,32.527-7.816,44.864-19.305c7.373,4.985,15.532,8.526,24.335,10.554c8.613,1.984,17.309,2.401,25.938,1.246    c3.812,8.63,9.273,16.422,16.056,22.979C318.592,105.114,310.539,114.958,299.792,121.681z M326.82,74.715    c-3.332-4.64-5.981-9.768-7.829-15.238c-1.247-3.691-5.082-5.842-8.88-4.983c-8.495,1.922-17.128,1.9-25.659-0.066    c-8.787-2.026-16.759-5.952-23.695-11.671c-3.155-2.601-7.805-2.241-10.522,0.816c-9.839,11.076-23.276,17.792-37.719,19.113    c0.168-0.932,0.358-1.863,0.572-2.793c3.457-14.999,12.546-27.753,25.594-35.913c9.277-5.803,19.765-8.789,30.444-8.789    c4.341,0,8.713,0.494,13.047,1.492C309.435,22.965,327.711,47.746,326.82,74.715z M363.378,318.379    c3.116,3.117,4.834,7.262,4.834,11.669s-1.716,8.552-4.834,11.669l-52.41,52.411c-2.96,2.96-2.97,7.755-0.023,10.729    c7.87,7.94,8.338,20.513,1.425,29.008l-43.748-44.327l54.36-54.101c1.431-1.424,2.237-3.361,2.239-5.38    c0.002-2.019-0.799-3.957-2.227-5.385l-5.635-5.634l35.006-11.671L363.378,318.379z M277.033,307.626l-11.47-11.47    c-0.17-0.17-0.69-0.691-0.316-1.595c0.373-0.899,1.104-0.899,1.345-0.899c0.646,0,1.955,0.231,3.543,0.893    c1.561,0.643,2.636,1.395,3.101,1.864l33.616,33.615l-30.368,30.224c-1.698-0.723-3.386-1.449-5.092-2.169l5.638-5.617    c5.995-5.988,9.297-13.952,9.297-22.425C286.327,321.575,283.025,313.611,277.033,307.626z M192.055,290.82    c-9.914-9.912-16.018-22.61-17.621-36.326l120.116-4.943l45.794,45.794l-35.007,11.67l-21.328-21.328    c-2.585-2.604-5.821-4.262-8.052-5.18c-2.245-0.936-5.693-2.051-9.364-2.051c-6.76,0-12.801,4.035-15.391,10.281    c-2.591,6.248-1.178,13.377,3.605,18.168l2.777,2.777l-34.999,11.668L192.055,290.82z M224.626,336.696l44.337-14.782    c1.398,2.454,2.156,5.233,2.156,8.133c0,4.408-1.718,8.551-4.831,11.659l-52.501,52.31c-1.43,1.424-2.234,3.359-2.237,5.377    c-0.002,2.018,0.798,3.955,2.224,5.383c7.937,7.945,8.437,20.558,1.502,29.089l-43.754-44.328L224.626,336.696z" fill="#2f54c1" data-original="#000000" style=""/>
	</g>
</g>
<g xmlns="http://www.w3.org/2000/svg">
	<g>
		<path d="M297.246,82.891c-4.094-0.941-8.173,1.609-9.117,5.702l-1.905,8.266c-0.943,4.093,1.61,8.174,5.702,9.117    c0.575,0.132,1.149,0.196,1.714,0.196c3.462,0,6.591-2.38,7.402-5.897l1.905-8.266C303.89,87.916,301.338,83.834,297.246,82.891z" fill="#2f54c1" data-original="#000000" style=""/>
	</g>
</g>
<g xmlns="http://www.w3.org/2000/svg">
	<g>
		<path d="M260.981,74.536c-4.093-0.941-8.173,1.609-9.117,5.702l-1.905,8.266c-0.943,4.093,1.61,8.174,5.702,9.117    c0.575,0.132,1.149,0.196,1.714,0.196c3.462,0,6.591-2.38,7.402-5.897l1.905-8.266C267.626,79.56,265.072,75.479,260.981,74.536z" fill="#2f54c1" data-original="#000000" style=""/>
	</g>
</g>
<g xmlns="http://www.w3.org/2000/svg">
</g>
<g xmlns="http://www.w3.org/2000/svg">
</g>
<g xmlns="http://www.w3.org/2000/svg">
</g>
<g xmlns="http://www.w3.org/2000/svg">
</g>
<g xmlns="http://www.w3.org/2000/svg">
</g>
<g xmlns="http://www.w3.org/2000/svg">
</g>
<g xmlns="http://www.w3.org/2000/svg">
</g>
<g xmlns="http://www.w3.org/2000/svg">
</g>
<g xmlns="http://www.w3.org/2000/svg">
</g>
<g xmlns="http://www.w3.org/2000/svg">
</g>
<g xmlns="http://www.w3.org/2000/svg">
</g>
<g xmlns="http://www.w3.org/2000/svg">
</g>
<g xmlns="http://www.w3.org/2000/svg">
</g>
<g xmlns="http://www.w3.org/2000/svg">
</g>
<g xmlns="http://www.w3.org/2000/svg">
</g>
</g></svg>
