<?xml version="1.0"?>
<svg xmlns="http://www.w3.org/2000/svg" xmlns:xlink="http://www.w3.org/1999/xlink" xmlns:svgjs="http://svgjs.com/svgjs" version="1.1" width="512" height="512" x="0" y="0" viewBox="0 0 64 64" style="enable-background:new 0 0 512 512" xml:space="preserve"><g><g xmlns="http://www.w3.org/2000/svg"><path d="m46 51c-.99 0-1.923.245-2.747.672l-2.257-3.01c-.067-3.85-.957-31.475-.996-32.694l-2 .064c.01.31 1 31.007 1 32.968 0 .217.07.427.2.6l2.455 3.274c-1.023 1.076-1.655 2.527-1.655 4.126 0 3.309 2.691 6 6 6s6-2.691 6-6-2.691-6-6-6zm0 10c-2.206 0-4-1.794-4-4s1.794-4 4-4 4 1.794 4 4-1.794 4-4 4z" fill="#1f37bb" data-original="#000000" style=""/><path d="m36 49.03.988-32.604 2.72-2.72c.187-.186.292-.44.292-.706v-11h-2v10.586l-.5.5-.5-.5v-10.586h-2v11c0 .266.105.52.293.707l.793.793-.793.793c-.18.18-.285.422-.292.677l-.993 32.78-1.422 2.844c-.785-.377-1.66-.594-2.586-.594-3.309 0-6 2.691-6 6s2.691 6 6 6 6-2.691 6-6c0-1.655-.674-3.156-1.761-4.242l1.655-3.311c.065-.13.101-.272.106-.417zm-6 11.97c-2.206 0-4-1.794-4-4s1.794-4 4-4 4 1.794 4 4-1.794 4-4 4z" fill="#1f37bb" data-original="#000000" style=""/><path d="m25 13.403v-.559c0-3.367-.987-6.628-2.855-9.431l-1.313-1.969-1.664 1.109 1.313 1.969c1.648 2.474 2.519 5.352 2.519 8.323v.559c0 1.615-.259 3.212-.77 4.743l-8.179 24.537c-.034.102-.051.209-.051.316v6h-2v-6c0-.107-.017-.214-.051-.316l-8.179-24.538c-.511-1.531-.77-3.127-.77-4.743v-.559c0-2.971.871-5.849 2.519-8.321l1.313-1.969-1.664-1.109-1.313 1.969c-1.868 2.803-2.855 6.064-2.855 9.431v.559c0 1.831.293 3.64.873 5.376l8.127 24.382v16.838c0 1.654 1.346 3 3 3s3-1.346 3-3v-16.838l8.127-24.383c.58-1.736.873-3.545.873-5.376zm-11 37.597v1h-2v-1zm-2 4v-1h2v1zm2 2v1h-2v-1zm-1 4c-.551 0-1-.448-1-1h2c0 .552-.449 1-1 1z" fill="#1f37bb" data-original="#000000" style=""/><path d="m62.895 22.553-.895-1.789v-13.764c0-.553-.448-1-1-1-2.757 0-5 2.243-5 5v6.172c0 .801.312 1.555.879 2.121l.828.828c.186.187.293.444.293.707v.344c0 .263-.107.521-.293.707l-1.414 1.414c-.195.194-.3.461-.292.735l.944 33.058c.047 1.634 1.364 2.914 3.055 2.914 1.654 0 3-1.346 3-3v-34c0-.155-.036-.309-.105-.447zm-4.895-11.553c0-1.304.836-2.416 2-2.829v12.657c0-.801-.312-1.555-.879-2.121l-.828-.828c-.186-.187-.293-.444-.293-.707zm3 46c0 .552-.449 1-1.056 1-.545 0-.984-.427-1-.972l-.932-32.626 1.109-1.109c.567-.566.879-1.32.879-2.121v-.172c0 .155.036.309.105.447l.895 1.789z" fill="#1f37bb" data-original="#000000" style=""/></g></g></svg>
