<?xml version="1.0" encoding="UTF-8"?>
<svg width="32px" height="32px" viewBox="0 0 32 32" version="1.1" xmlns="http://www.w3.org/2000/svg" xmlns:xlink="http://www.w3.org/1999/xlink">
    <!-- Generator: Sketch 44.1 (41455) - http://www.bohemiancoding.com/sketch -->
    <title>Metarubrick / Grocery / sweetshop</title>
    <desc>Created with Sketch.</desc>
    <defs></defs>
    <g id="Page-1" stroke="none" stroke-width="1" fill="none" fill-rule="evenodd">
        <g id="New-meta-draft" transform="translate(-384.000000, -2584.000000)">
            <g id="Slice" transform="translate(84.000000, 84.000000)"></g>
            <g id="Icon" transform="translate(51.000000, 42.000000)" stroke="#52B311" stroke-width="2">
                <g id="Grocery" transform="translate(6.000000, 2493.000000)">
                    <g id="Sweetshop" transform="translate(328.000000, 50.000000)">
                        <path d="M8,26 L7,29 C7,29 4,29 2,27 C0,25 0,22 0,22 L3,21" id="Stroke-1"></path>
                        <path d="M21,3 L22,0 C22,0 25,0 27,2 C29,4 29,7 29,7 L26,8" id="Stroke-3"></path>
                        <path d="M4,17.3636364 L4,17.3636364 C4,16.7517727 4.24245455,16.1666364 4.67486364,15.7342273 L15.7342273,4.67486364 C16.1666364,4.24245455 16.7527273,4 17.3636364,4 C17.9745455,4 18.5606364,4.24245455 18.9930455,4.67486364 L24.3251364,10.0069545 C24.7575455,10.4393636 25,11.0245 25,11.6363636 C25,12.2482273 24.7575455,12.8333636 24.3251364,13.2657727 L13.2657727,24.3251364 C12.8333636,24.7575455 12.2472727,25 11.6363636,25 C11.0254545,25 10.4393636,24.7575455 10.0069545,24.3251364 L4.67486364,18.9930455 C4.24245455,18.5606364 4,17.9755 4,17.3636364 Z" id="Stroke-5"></path>
                        <path d="M18,8 L12,14" id="Stroke-7"></path>
                        <path d="M24,5 L21.5,7.5" id="Stroke-9"></path>
                        <path d="M5,24 L7.5,21.5" id="Stroke-11"></path>
                    </g>
                </g>
            </g>
        </g>
    </g>
</svg>