<?xml version="1.0"?>
<svg xmlns="http://www.w3.org/2000/svg" xmlns:xlink="http://www.w3.org/1999/xlink" xmlns:svgjs="http://svgjs.com/svgjs" version="1.1" width="512" height="512" x="0" y="0" viewBox="0 0 512 512" style="enable-background:new 0 0 512 512" xml:space="preserve" class=""><g><g xmlns="http://www.w3.org/2000/svg"><path d="M429.09,121.55C382.72,99.92,321.25,88,256,88a512.972,512.972,0,0,0-64,3.95V16a8,8,0,0,0-16,0V40H112V16a8,8,0,0,0-16,0v99.87q-6.72,2.715-13.09,5.68C34.6,144.1,8,174.8,8,208V384c0,33.2,26.6,63.9,74.91,86.45C129.28,492.08,190.75,504,256,504s126.72-11.92,173.09-33.55C477.4,447.9,504,417.2,504,384V208C504,174.8,477.4,144.1,429.09,121.55ZM112,56h64V72H112Zm0,32h64v6.25a392.1,392.1,0,0,0-64,15.67ZM488,384c0,26.63-23.32,52.18-65.68,71.95C378.03,476.62,318.96,488,256,488S133.97,476.62,89.68,455.95C47.32,436.18,24,410.63,24,384V251.13c12.64,16.25,32.53,31,58.91,43.32C129.28,316.08,190.75,328,256,328s126.72-11.92,173.09-33.55c26.38-12.32,46.27-27.07,58.91-43.32ZM422.32,279.95C378.03,300.62,318.96,312,256,312S133.97,300.62,89.68,279.95C47.32,260.18,24,234.63,24,208s23.32-52.18,65.68-71.95C133.97,115.38,193.04,104,256,104s122.03,11.38,166.32,32.05C464.68,155.82,488,181.37,488,208S464.68,260.18,422.32,279.95Z" fill="#1a9edf" data-original="#000000" style=""/><path d="M400.39,144c-38.7-15.48-89.97-24-144.39-24s-105.69,8.52-144.39,24C70.59,160.41,48,183.14,48,208s22.59,47.59,63.61,64c38.7,15.48,89.97,24,144.39,24s105.69-8.52,144.39-24C441.41,255.59,464,232.86,464,208S441.41,160.41,400.39,144Zm28.91,94.02A7.96,7.96,0,0,0,424,236c-5.62,0-8.08-1.29-11.48-3.08a38.858,38.858,0,0,0-37.85,0c-3.4,1.79-5.85,3.08-11.47,3.08s-8.08-1.29-11.48-3.08a38.858,38.858,0,0,0-37.85,0c-3.4,1.79-5.85,3.08-11.47,3.08s-8.08-1.29-11.48-3.08A36.079,36.079,0,0,0,272,228a8,8,0,0,0,0,16c5.62,0,8.08,1.29,11.47,3.08a38.858,38.858,0,0,0,37.85,0c3.4-1.79,5.85-3.08,11.48-3.08s8.07,1.29,11.47,3.08a38.858,38.858,0,0,0,37.85,0c3.4-1.79,5.85-3.08,11.48-3.08s8.08,1.29,11.47,3.08a49.786,49.786,0,0,0,5.66,2.65q-7.47,3.87-16.28,7.41C357.6,271.88,308.43,280,256,280s-101.6-8.12-138.45-22.86C83.52,243.53,64,225.62,64,208s19.52-35.53,53.55-49.14C154.4,144.12,203.57,136,256,136s101.6,8.12,138.45,22.86C428.48,172.47,448,190.38,448,208,448,218.21,441.44,228.51,429.3,238.02Z" fill="#1a9edf" data-original="#000000" style=""/><path d="M88,212c5.623,0,8.076,1.292,11.473,3.079A36.1,36.1,0,0,0,118.4,220a36.107,36.107,0,0,0,18.925-4.921c3.4-1.787,5.851-3.079,11.474-3.079s8.077,1.292,11.473,3.079a38.855,38.855,0,0,0,37.852,0c3.4-1.787,5.852-3.079,11.476-3.079s8.078,1.292,11.475,3.079A36.115,36.115,0,0,0,240,220a8,8,0,0,0,0-16c-5.624,0-8.079-1.292-11.476-3.079a38.857,38.857,0,0,0-37.853,0c-3.4,1.787-5.852,3.079-11.476,3.079s-8.076-1.292-11.473-3.079a38.853,38.853,0,0,0-37.851,0c-3.4,1.787-5.85,3.079-11.473,3.079s-8.077-1.292-11.473-3.079A36.107,36.107,0,0,0,88,196a8,8,0,0,0,0,16Z" fill="#1a9edf" data-original="#000000" style=""/><path d="M152,180c5.623,0,8.076,1.292,11.473,3.079a38.851,38.851,0,0,0,37.85,0c3.4-1.787,5.851-3.079,11.474-3.079s8.077,1.292,11.473,3.079a38.855,38.855,0,0,0,37.852,0c3.4-1.787,5.852-3.079,11.476-3.079s8.078,1.292,11.475,3.079A36.115,36.115,0,0,0,304,188a8,8,0,0,0,0-16c-5.624,0-8.079-1.292-11.476-3.079a38.857,38.857,0,0,0-37.853,0c-3.4,1.787-5.852,3.079-11.476,3.079s-8.076-1.292-11.473-3.079a38.853,38.853,0,0,0-37.851,0c-3.4,1.787-5.85,3.079-11.473,3.079s-8.077-1.292-11.473-3.079A36.107,36.107,0,0,0,152,164a8,8,0,0,0,0,16Z" fill="#1a9edf" data-original="#000000" style=""/><path d="M256,352a8,8,0,0,0-8,8v96a8,8,0,0,0,16,0V360A8,8,0,0,0,256,352Z" fill="#1a9edf" data-original="#000000" style=""/><path d="M160,336a8,8,0,0,0-8,8v96a8,8,0,0,0,16,0V344A8,8,0,0,0,160,336Z" fill="#1a9edf" data-original="#000000" style=""/><path d="M352,336a8,8,0,0,0-8,8v96a8,8,0,0,0,16,0V344A8,8,0,0,0,352,336Z" fill="#1a9edf" data-original="#000000" style=""/><path d="M448,304a8,8,0,0,0-8,8v64a8,8,0,0,0,16,0V312A8,8,0,0,0,448,304Z" fill="#1a9edf" data-original="#000000" style=""/><path d="M64,304a8,8,0,0,0-8,8v96a8,8,0,0,0,16,0V312A8,8,0,0,0,64,304Z" fill="#1a9edf" data-original="#000000" style=""/><path d="M448,400a8,8,0,0,0-8,8v8a8,8,0,0,0,16,0v-8A8,8,0,0,0,448,400Z" fill="#1a9edf" data-original="#000000" style=""/></g></g></svg>
