<?xml version="1.0"?>
<svg xmlns="http://www.w3.org/2000/svg" xmlns:xlink="http://www.w3.org/1999/xlink" xmlns:svgjs="http://svgjs.com/svgjs" version="1.1" width="512" height="512" x="0" y="0" viewBox="0 0 512.00018 512" style="enable-background:new 0 0 512 512" xml:space="preserve" class=""><g><path xmlns="http://www.w3.org/2000/svg" d="m511.109375 215.917969-42.234375-187.707031c-3.738281-16.609376-18.238281-28.210938-35.265625-28.210938h-214.609375c-5.523438 0-10 4.476562-10 10s4.476562 10 10 10h214.609375c7.605469 0 14.082031 5.183594 15.75 12.601562l37.667969 167.398438h-60.027344c-5.523438 0-10 4.476562-10 10s4.476562 10 10 10h64.527344l.070312.308594c1.082032 4.8125-.066406 9.78125-3.148437 13.632812-3.078125 3.851563-7.675781 6.058594-12.605469 6.058594h-439.6875c-4.929688 0-9.527344-2.207031-12.609375-6.058594-3.078125-3.851562-4.226563-8.820312-3.140625-13.632812l42.230469-187.707032c1.671875-7.417968 8.148437-12.601562 15.753906-12.601562h57.609375c5.523438 0 10-4.476562 10-10s-4.476562-10-10-10h-57.609375c-17.027344 0-31.527344 11.601562-35.265625 28.210938l-42.230469 187.707031c-2.425781 10.773437.140625 21.894531 7.039063 30.515625 6.894531 8.621094 17.183594 13.566406 28.222656 13.566406h439.6875c11.039062 0 21.328125-4.945312 28.222656-13.566406 6.898438-8.621094 9.464844-19.742188 7.042969-30.515625zm0 0" fill="#d3be13" data-original="#000000" style=""/><path xmlns="http://www.w3.org/2000/svg" d="m179.667969 20c2.632812 0 5.203125-1.070312 7.070312-2.929688 1.863281-1.859374 2.929688-4.441406 2.929688-7.070312s-1.066407-5.210938-2.929688-7.070312c-1.859375-1.859376-4.4375-2.929688-7.070312-2.929688-2.636719 0-5.207031 1.070312-7.066407 2.929688-1.871093 1.859374-2.933593 4.441406-2.933593 7.070312s1.0625 5.210938 2.933593 7.070312c1.859376 1.859376 4.429688 2.929688 7.066407 2.929688zm0 0" fill="#d3be13" data-original="#000000" style=""/><path xmlns="http://www.w3.org/2000/svg" d="m409.132812 179.417969c5.523438 0 10-4.480469 10-10v-81.417969c0-5.523438-4.476562-10-10-10-5.523437 0-10 4.476562-10 10v81.417969c0 5.519531 4.476563 10 10 10zm0 0" fill="#d3be13" data-original="#000000" style=""/><path xmlns="http://www.w3.org/2000/svg" d="m99.089844 78c-5.523438 0-10 4.476562-10 10s4.476562 10 10 10h19.292968v71.417969c0 5.519531 4.476563 10 10 10 5.523438 0 10-4.480469 10-10v-71.417969h19.289063c5.523437 0 10-4.476562 10-10s-4.476563-10-10-10zm0 0" fill="#d3be13" data-original="#000000" style=""/><path xmlns="http://www.w3.org/2000/svg" d="m293.195312 180.109375c1.773438 1.277344 3.816407 1.894531 5.84375 1.894531 3.105469 0 6.164063-1.441406 8.117188-4.148437l22.207031-30.765625 22.207031 30.765625c1.957032 2.707031 5.015626 4.148437 8.117188 4.148437 2.03125 0 4.078125-.617187 5.84375-1.894531 4.480469-3.230469 5.488281-9.484375 2.257812-13.960937l-26.09375-36.148438 26.09375-36.148438c3.230469-4.476562 2.222657-10.726562-2.257812-13.960937-4.476562-3.230469-10.726562-2.21875-13.960938 2.257813l-22.207031 30.765624-22.207031-30.765624c-3.230469-4.476563-9.484375-5.488282-13.960938-2.257813-4.476562 3.234375-5.488281 9.484375-2.253906 13.960937l26.089844 36.148438-26.089844 36.148438c-3.234375 4.476562-2.222656 10.726562 2.253906 13.960937zm0 0" fill="#d3be13" data-original="#000000" style=""/><path xmlns="http://www.w3.org/2000/svg" d="m179.386719 168.273438c-2.058594 5.125.429687 10.949218 5.554687 13.007812 1.21875.488281 2.480469.722656 3.71875.722656 3.964844 0 7.71875-2.375 9.285156-6.277344l7.175782-17.875h34.519531l7.171875 17.875c2.058594 5.125 7.878906 7.613282 13.007812 5.554688 5.125-2.058594 7.613282-7.878906 5.554688-13.003906l-9.746094-24.285156c-.007812-.015626-.011718-.03125-.019531-.050782l-23.949219-59.664062c-1.519531-3.792969-5.195312-6.277344-9.28125-6.277344-4.085937 0-7.757812 2.484375-9.277344 6.277344l-23.949218 59.667968c-.007813.015626-.015625.03125-.023438.046876zm42.992187-53.425782 9.234375 23.003906h-18.464843zm0 0" fill="#d3be13" data-original="#000000" style=""/><path xmlns="http://www.w3.org/2000/svg" d="m389.667969 200c-2.636719 0-5.207031 1.070312-7.066407 2.929688-1.871093 1.859374-2.933593 4.441406-2.933593 7.070312s1.0625 5.210938 2.933593 7.070312c1.859376 1.859376 4.429688 2.929688 7.066407 2.929688 2.632812 0 5.210937-1.070312 7.070312-2.929688 1.863281-1.859374 2.929688-4.441406 2.929688-7.070312s-1.066407-5.210938-2.929688-7.070312c-1.859375-1.859376-4.4375-2.929688-7.070312-2.929688zm0 0" fill="#d3be13" data-original="#000000" style=""/></g></svg>
