<?xml version="1.0"?>
<svg xmlns="http://www.w3.org/2000/svg" xmlns:xlink="http://www.w3.org/1999/xlink" xmlns:svgjs="http://svgjs.com/svgjs" version="1.1" width="512" height="512" x="0" y="0" viewBox="0 0 512 512" style="enable-background:new 0 0 512 512" xml:space="preserve" class=""><g><path xmlns="http://www.w3.org/2000/svg" d="m447.815 208.944h-297.616c-25.069 0-48 14.744-58.42 37.566l-9.54 20.928c-1.718 3.769-.055 8.217 3.714 9.935 3.767 1.716 8.216.055 9.935-3.714l9.537-20.924c7.986-17.491 25.561-28.793 44.774-28.793h297.616c27.121 0 49.186 22.065 49.186 49.186v172.966c0 14.784-6.298 28.461-16.999 37.975v-125.367-85.573c0-17.748-14.439-32.187-32.187-32.187h-297.616c-12.574 0-24.078 7.391-29.329 18.873l-99.191 220.683c-7.43-10.774-8.842-24.676-3.175-37.112l64.945-142.439c1.718-3.768.056-8.216-3.713-9.935-3.767-1.719-8.217-.057-9.935 3.713l-64.946 142.441c-9.967 21.876-4.27 46.999 14.173 62.511 9.556 8.049 21.296 12.303 33.949 12.303h393.129c10.483 0 20.507-2.393 29.793-7.112 22.268-11.305 36.101-33.825 36.101-58.773v-172.966c0-35.392-28.793-64.185-64.185-64.185zm-378.636 288.037 65.352-145.399c2.797-6.117 8.947-10.069 15.668-10.069h246.48c4.142 0 7.499-3.358 7.499-7.499s-3.358-7.499-7.499-7.499h-246.48c-12.574 0-24.078 7.391-29.329 18.874l-68.133 151.587c-7.073-.042-13.728-1.935-19.54-5.518l101.333-225.45c2.797-6.116 8.947-10.068 15.668-10.068h297.616c9.478 0 17.189 7.711 17.189 17.189v58.38c-4.977-3.157-10.871-4.994-17.189-4.994h-21.178c-4.142 0-7.499 3.358-7.499 7.499s3.358 7.499 7.499 7.499h21.178c9.478 0 17.189 7.711 17.189 17.189v134.633c-5.987 2.407-12.321 3.646-18.898 3.646z" fill="#0d527c" data-original="#000000" style="" class=""/><path xmlns="http://www.w3.org/2000/svg" d="m402.346 141.381c24.029 0 43.578-19.549 43.578-43.577 0-24.029-19.549-43.578-43.578-43.578-24.028 0-43.577 19.549-43.577 43.578s19.549 43.577 43.577 43.577zm0-72.156c15.759 0 28.579 12.82 28.579 28.579 0 15.758-12.82 28.578-28.579 28.578-15.758 0-28.578-12.82-28.578-28.578s12.82-28.579 28.578-28.579z" fill="#0d527c" data-original="#000000" style="" class=""/><path xmlns="http://www.w3.org/2000/svg" d="m402.346 45.433c4.142 0 7.499-3.358 7.499-7.499v-30.414c0-4.142-3.358-7.499-7.499-7.499-4.142 0-7.499 3.358-7.499 7.499v30.414c0 4.142 3.357 7.499 7.499 7.499z" fill="#0d527c" data-original="#000000" style="" class=""/><path xmlns="http://www.w3.org/2000/svg" d="m394.847 157.674v30.414c0 4.142 3.358 7.499 7.499 7.499 4.142 0 7.499-3.358 7.499-7.499v-30.414c0-4.142-3.358-7.499-7.499-7.499-4.142 0-7.499 3.357-7.499 7.499z" fill="#0d527c" data-original="#000000" style="" class=""/><path xmlns="http://www.w3.org/2000/svg" d="m354.709 60.773c1.464 1.464 3.384 2.197 5.303 2.197s3.839-.732 5.303-2.197c2.929-2.928 2.929-7.677 0-10.606l-21.506-21.506c-2.928-2.928-7.677-2.928-10.606 0s-2.929 7.677 0 10.606z" fill="#0d527c" data-original="#000000" style="" class=""/><path xmlns="http://www.w3.org/2000/svg" d="m439.378 134.836c-2.929 2.928-2.929 7.677 0 10.606l21.506 21.506c1.464 1.464 3.384 2.197 5.303 2.197s3.839-.732 5.303-2.197c2.929-2.928 2.929-7.677 0-10.606l-21.506-21.506c-2.929-2.929-7.678-2.929-10.606 0z" fill="#0d527c" data-original="#000000" style="" class=""/><path xmlns="http://www.w3.org/2000/svg" d="m312.062 105.304h30.415c4.142 0 7.499-3.358 7.499-7.499 0-4.142-3.358-7.499-7.499-7.499h-30.415c-4.142 0-7.499 3.358-7.499 7.499s3.357 7.499 7.499 7.499z" fill="#0d527c" data-original="#000000" style="" class=""/><path xmlns="http://www.w3.org/2000/svg" d="m454.717 97.804c0 4.142 3.358 7.499 7.499 7.499h30.414c4.142 0 7.499-3.358 7.499-7.499 0-4.142-3.358-7.499-7.499-7.499h-30.414c-4.141 0-7.499 3.357-7.499 7.499z" fill="#0d527c" data-original="#000000" style="" class=""/><path xmlns="http://www.w3.org/2000/svg" d="m354.709 134.836-21.506 21.506c-2.929 2.928-2.929 7.677 0 10.606 1.464 1.465 3.384 2.197 5.303 2.197s3.839-.732 5.303-2.197l21.506-21.506c2.929-2.928 2.929-7.677 0-10.606-2.928-2.929-7.677-2.929-10.606 0z" fill="#0d527c" data-original="#000000" style="" class=""/><path xmlns="http://www.w3.org/2000/svg" d="m444.681 62.969c1.919 0 3.839-.732 5.303-2.197l21.506-21.506c2.929-2.928 2.929-7.677 0-10.606-2.928-2.928-7.677-2.928-10.606 0l-21.506 21.506c-2.929 2.928-2.929 7.677 0 10.606 1.464 1.465 3.383 2.197 5.303 2.197z" fill="#0d527c" data-original="#000000" style="" class=""/></g></svg>
