<?xml version="1.0" encoding="UTF-8"?>
<svg width="32px" height="32px" viewBox="0 0 32 32" version="1.1" xmlns="http://www.w3.org/2000/svg" xmlns:xlink="http://www.w3.org/1999/xlink">
    <!-- Generator: Sketch 43.2 (39069) - http://www.bohemiancoding.com/sketch -->
    <title>Metarubrick / Automotive / Tire</title>
    <desc>Created with Sketch.</desc>
    <defs></defs>
    <g id="Page-1" stroke="none" stroke-width="1" fill="none" fill-rule="evenodd">
        <g id="New-meta-draft" transform="translate(-184.000000, -1584.000000)">
            <g id="Slice" transform="translate(84.000000, 84.000000)"></g>
            <g id="Icon" transform="translate(51.000000, 42.000000)" stroke="#319CFE" stroke-width="2">
                <g id="Automotive" transform="translate(21.000000, 1494.000000)">
                    <g id="Tire" transform="translate(117.000000, 49.000000)">
                        <path d="M10.4004,4 C8.9234,6.739 8.0004,10.654 8.0004,15 C8.0004,19.345 8.9234,23.258 10.3994,25.997 C10.4004,25.998 10.4004,26 10.4014,26.001" id="Stroke-1"></path>
                        <path d="M15.5,30 C19.643,30 23,23.284 23,15 C23,6.716 19.643,0 15.5,0" id="Stroke-3"></path>
                        <path d="M13,15 C13,19.418 14.119,23 15.5,23 C16.881,23 18,19.418 18,15 C18,10.582 16.881,7 15.5,7 C14.119,7 13,10.582 13,15 Z" id="Stroke-5"></path>
                        <path d="M15.5,0 L7.5,0 C3.357,0 0,6.716 0,15 C0,23.284 3.357,30 7.5,30 L15.5,30" id="Stroke-7"></path>
                    </g>
                </g>
            </g>
        </g>
    </g>
</svg>