<?xml version="1.0"?>
<svg xmlns="http://www.w3.org/2000/svg" xmlns:xlink="http://www.w3.org/1999/xlink" xmlns:svgjs="http://svgjs.com/svgjs" version="1.1" width="512" height="512" x="0" y="0" viewBox="0 0 512.00022 512" style="enable-background:new 0 0 512 512" xml:space="preserve"><g><path xmlns="http://www.w3.org/2000/svg" d="m512 88.777344c0-5.703125-2.222656-11.066406-6.253906-15.101563l-67.425782-67.417969c-4.03125-4.035156-9.394531-6.257812-15.097656-6.257812-5.707031 0-11.070312 2.222656-15.105468 6.253906l-37.804688 37.808594c-6.457031-3.914062-14.796875-3.457031-20.863281 1.601562l-31.9375 26.628907c-3.179688 2.652343-3.609375 7.382812-.953125 10.5625 2.652344 3.179687 7.378906 3.609375 10.5625.957031l31.933594-26.632812c1.21875-1.015626 2.984374-.9375 4.109374.1875l91.46875 91.46875c1.121094 1.121093 1.203126 2.890624.183594 4.109374l-132.789062 159.25c-2.65625 3.179688-2.226563 7.910157.957031 10.5625 1.402344 1.171876 3.101563 1.738282 4.796875 1.738282 2.148438 0 4.28125-.917969 5.765625-2.695313l132.792969-159.25c5.054687-6.0625 5.511718-14.40625 1.597656-20.863281l37.808594-37.808594c4.03125-4.03125 6.253906-9.398437 6.253906-15.101562zm-61.164062-48.796875 24.621093 24.625-11.265625 5.898437-19.257812-19.257812zm44.300781 53.292969-37.425781 37.425781-76.410157-76.410157 37.425781-37.425781c1.203126-1.203125 2.796876-1.863281 4.496094-1.863281 1.695313 0 3.292969.660156 4.492188 1.863281l12.007812 12.003907-10.632812 20.304687c-1.523438 2.90625-.980469 6.460937 1.339844 8.78125l27.058593 27.058594c1.441407 1.441406 3.359375 2.195312 5.304688 2.195312 1.183593 0 2.378906-.28125 3.476562-.855469l20.304688-10.632812 8.566406 8.566406c1.199219 1.199219 1.859375 2.796875 1.859375 4.492188 0 1.699218-.660156 3.296875-1.863281 4.496094zm0 0" fill="#41168d" data-original="#000000" style=""/><path xmlns="http://www.w3.org/2000/svg" d="m311.585938 336.425781c-3.179688-2.652343-7.910157-2.226562-10.5625.957031l-43.890626 52.636719c-5.671874-24.871093-13.949218-50.394531-24.710937-76.085937-26.164063-62.503906-5.632813-123.988282 16.5625-164.96875l52.953125-44.15625c3.183594-2.648438 3.609375-7.378906.957031-10.5625-2.652343-3.179688-7.378906-3.609375-10.5625-.957032l-285.839843 238.351563c-3.886719 3.238281-6.246094 7.996094-6.4726568 13.050781-.2304692 5.050782 1.6914068 10 5.2695308 13.578125l148.445313 148.441407c3.382813 3.386718 8 5.289062 12.769531 5.289062.269532 0 .535156-.007812.808594-.019531 5.050781-.226563 9.808594-2.585938 13.046875-6.472657l36.421875-43.675781c2.652344-3.183593 2.222656-7.910156-.957031-10.5625-3.183594-2.65625-7.910157-2.226562-10.5625.957031l-36.421875 43.675782c-.75.898437-1.703125 1.070312-2.207032 1.09375-.492187.019531-1.464843-.0625-2.292968-.890625l-11.546875-11.550781 15.363281-15.359376c2.925781-2.929687 2.925781-7.679687 0-10.609374-2.933594-2.925782-7.679688-2.925782-10.609375 0l-15.363281 15.363281-12.339844-12.34375 15.363281-15.359375c2.929688-2.929688 2.929688-7.679688 0-10.605469-2.929687-2.929687-7.679687-2.933594-10.605469-.003906l-15.363281 15.363281-12.34375-12.339844 15.363281-15.363281c2.929688-2.929687 2.929688-7.675781 0-10.605469-2.929687-2.929687-7.679687-2.929687-10.605468 0l-15.363282 15.363282-12.339843-12.34375 15.359375-15.359376c2.929687-2.933593 2.929687-7.679687 0-10.609374-2.929688-2.925782-7.675782-2.925782-10.605469 0l-15.363281 15.363281-12.339844-12.339844 15.359375-15.363281c2.929687-2.929688 2.929687-7.679688 0-10.609375-2.929687-2.925781-7.675781-2.925781-10.605469 0l-15.363281 15.363281-12.339844-12.339844 15.363281-15.363281c2.925782-2.929687 2.925782-7.679687 0-10.605469-2.933593-2.929687-7.679687-2.929687-10.609374 0l-15.363282 15.359375-11.546875-11.546875c-.828125-.828125-.914062-1.792968-.890625-2.292968.023438-.503907.195313-1.457032 1.09375-2.207032l205.632813-171.464844c-16.597657 41.394532-25.714844 94.109376-3.140625 148.03125 12.070312 28.832032 20.914062 57.390626 26.320312 84.953126l-18.648437 22.359374c-6.144531 7.371094 5.292969 17.082032 11.523437 9.605469l74.761719-89.65625c2.648437-3.179687 2.222656-7.910156-.960937-10.5625zm0 0" fill="#41168d" data-original="#000000" style=""/><path xmlns="http://www.w3.org/2000/svg" d="m259.5625 281.503906c5.46875 5.46875 12.648438 8.199219 19.835938 8.199219 7.179687 0 14.367187-2.734375 19.835937-8.199219l102.539063-102.542968c5.300781-5.296876 8.21875-12.34375 8.21875-19.835938s-2.917969-14.539062-8.21875-19.835938c-5.296876-5.296874-12.339844-8.214843-19.835938-8.214843-7.492188 0-14.535156 2.917969-19.835938 8.214843l-102.539062 102.542969c-10.9375 10.9375-10.9375 28.734375 0 39.671875zm10.605469-29.066406 102.542969-102.542969c2.464843-2.464843 5.742187-3.820312 9.230468-3.820312 3.484375 0 6.761719 1.355469 9.226563 3.820312 2.464843 2.46875 3.824219 5.742188 3.824219 9.230469s-1.359376 6.765625-3.824219 9.230469l-102.539063 102.539062c-5.089844 5.089844-13.371094 5.089844-18.460937 0-5.085938-5.089843-5.085938-13.367187 0-18.457031zm0 0" fill="#41168d" data-original="#000000" style=""/><path xmlns="http://www.w3.org/2000/svg" d="m175.535156 243.683594c-2.929687-2.929688-7.675781-2.929688-10.605468 0l-78.851563 78.851562c-2.929687 2.929688-2.929687 7.675782 0 10.605469 1.464844 1.464844 3.386719 2.195313 5.304687 2.195313 1.917969 0 3.839844-.730469 5.304688-2.195313l78.847656-78.851563c2.929688-2.929687 2.929688-7.675781 0-10.605468zm0 0" fill="#41168d" data-original="#000000" style=""/><path xmlns="http://www.w3.org/2000/svg" d="m123.773438 370.832031c1.464843 1.484375 3.398437 2.230469 5.335937 2.230469 1.902344 0 3.808594-.71875 5.269531-2.164062 2.945313-2.910157 2.972656-7.660157.0625-10.605469l-.082031-.082031c-2.910156-2.945313-7.65625-2.976563-10.605469-.0625-2.945312 2.910156-2.972656 7.660156-.0625 10.605468zm0 0" fill="#41168d" data-original="#000000" style=""/><path xmlns="http://www.w3.org/2000/svg" d="m146.96875 358.3125c2.945312-2.914062 2.972656-7.660156.0625-10.609375l-.082031-.082031c-2.914063-2.945313-7.660157-2.976563-10.605469-.0625-2.945312 2.914062-2.976562 7.660156-.0625 10.605468l.082031.082032c1.464844 1.488281 3.398438 2.230468 5.332031 2.230468 1.902344 0 3.8125-.722656 5.273438-2.164062zm0 0" fill="#41168d" data-original="#000000" style=""/><path xmlns="http://www.w3.org/2000/svg" d="m140.597656 310.125c-2.929687-2.925781-7.679687-2.925781-10.609375 0l-28.15625 28.160156c-2.929687 2.929688-2.929687 7.675782 0 10.605469 1.464844 1.464844 3.382813 2.195313 5.300781 2.195313 1.921876 0 3.839844-.730469 5.304688-2.195313l28.160156-28.15625c2.929688-2.929687 2.929688-7.679687 0-10.609375zm0 0" fill="#41168d" data-original="#000000" style=""/></g></svg>
