<?xml version="1.0" encoding="UTF-8"?>
<svg width="32px" height="32px" viewBox="0 0 32 32" version="1.1" xmlns="http://www.w3.org/2000/svg" xmlns:xlink="http://www.w3.org/1999/xlink">
    <!-- Generator: Sketch 44.1 (41455) - http://www.bohemiancoding.com/sketch -->
    <title>Metarubrick / Other / transport</title>
    <desc>Created with Sketch.</desc>
    <defs></defs>
    <g id="Page-1" stroke="none" stroke-width="1" fill="none" fill-rule="evenodd">
        <g id="New-meta-draft" transform="translate(-384.000000, -3984.000000)">
            <g id="Slice" transform="translate(84.000000, 84.000000)"></g>
            <g id="Icon" transform="translate(51.000000, 42.000000)" stroke="#8345FE" stroke-width="2">
                <g id="Other" transform="translate(24.000000, 3900.000000)">
                    <g id="Transport" transform="translate(310.000000, 43.370117)">
                        <path d="M15,9.6282 L18,6.6282 L22.688,1.9402 C22.895,1.7332 23.139,1.5722 23.409,1.4652 L26.687,0.1532 C27.483,-0.1648 28.394,0.0222 29,0.6282 C29.606,1.2342 29.793,2.1452 29.475,2.9412 L28.163,6.2192 C28.056,6.4892 27.895,6.7332 27.688,6.9402 L23,11.6282 L20,14.6282" id="Stroke-1"></path>
                        <path d="M23,11.6282 L27.886,23.0282 C28.559,24.5992 28.208,26.4202 27,27.6282 L26,27.6282 L17,17.6282 L11,23.6282 L11,27.6282 C11,28.7322 10.104,29.6282 9,29.6282 L6,23.6282 L0,20.6282 C0,19.5242 0.896,18.6282 2,18.6282 L6,18.6282 L12,12.6282 L2,3.6282 L2,2.6282 C3.208,1.4202 5.029,1.0692 6.6,1.7422 L18,6.6282" id="Stroke-3"></path>
                    </g>
                </g>
            </g>
        </g>
    </g>
</svg>