<?xml version="1.0"?>
<svg xmlns="http://www.w3.org/2000/svg" xmlns:xlink="http://www.w3.org/1999/xlink" xmlns:svgjs="http://svgjs.com/svgjs" version="1.1" width="512" height="512" x="0" y="0" viewBox="0 0 32 32" style="enable-background:new 0 0 512 512" xml:space="preserve" class=""><g><path xmlns="http://www.w3.org/2000/svg" d="m20.91 12.16a1.07 1.07 0 0 0 -1.51 0l-2.33 2.33v-4.89a1.07 1.07 0 0 0 -2.13 0v4.9l-2.34-2.34a1.07 1.07 0 0 0 -1.51 1.51l3.85 3.85v13.4a1.07 1.07 0 0 0 2.13 0v-13.41l3.84-3.84a1.07 1.07 0 0 0 0-1.51z" fill="#12db3b" data-original="#000000" style="" class=""/><path xmlns="http://www.w3.org/2000/svg" d="m20.26 22.55a1.07 1.07 0 0 1 -.43-2 9.59 9.59 0 1 0 -7.68 0 1.07 1.07 0 1 1 -.85 2 11.73 11.73 0 1 1 9.38 0 1.08 1.08 0 0 1 -.42 0z" fill="#12db3b" data-original="#000000" style="" class=""/></g></svg>
