<?xml version="1.0"?>
<svg xmlns="http://www.w3.org/2000/svg" xmlns:xlink="http://www.w3.org/1999/xlink" xmlns:svgjs="http://svgjs.com/svgjs" version="1.1" width="512" height="512" x="0" y="0" viewBox="0 0 1000 1000" style="enable-background:new 0 0 512 512" xml:space="preserve"><g><g xmlns="http://www.w3.org/2000/svg"><g><path d="m723 430.4c-2.8 0-5.5-1.4-7.2-3.9l-59.9-93.3c-6.6-10.3-17.8-16.4-30-16.4h-124.5c-4.7 0-8.5-3.8-8.5-8.5s3.8-8.5 8.5-8.5h124.5c18 0 34.6 9.1 44.3 24.2l59.9 93.3c2.5 4 1.4 9.2-2.6 11.8-1.4.9-3 1.3-4.5 1.3z" fill="#d70e0e" data-original="#000000" style=""/><path d="m840.2 439.6h-25.2c-4.7 0-8.5-3.8-8.5-8.5s3.8-8.5 8.5-8.5h25.2c1.5 0 2.3-.9 2.6-1.5s.8-1.7.1-3l-4.8-9.2c-3.6-6.9-10.7-11.2-18.5-11.2h-57.9c-4.7 0-8.5-3.8-8.5-8.5s3.8-8.5 8.5-8.5h57.9c14.2 0 27 7.8 33.6 20.3l4.8 9.2c3.3 6.3 3 13.7-.6 19.7-3.6 6.1-10.1 9.7-17.2 9.7z" fill="#d70e0e" data-original="#000000" style=""/><path d="m295.9 736.1h-101.4c-14.4 0-26.2-11.8-26.2-26.2v-19.3c0-4.7 3.8-8.5 8.5-8.5s8.5 3.8 8.5 8.5v19.3c0 5.1 4.1 9.2 9.2 9.2h101.3c11.5 0 20.9-9.4 20.9-20.9 0-4.7 3.8-8.5 8.5-8.5s8.5 3.8 8.5 8.5c0 20.9-17 37.9-37.8 37.9z" fill="#d70e0e" data-original="#000000" style=""/><path d="m567.5 656.6h-74.7c-4.7 0-8.5-3.8-8.5-8.5s3.8-8.5 8.5-8.5h74.7c3.4 0 6.3-2.1 7.4-5.3l33.1-96.6-10.6 3.9c-30 11-61.4 16.6-93.4 16.9l-11.3.1c-4.7 0-8.5-3.7-8.6-8.4 0-4.7 3.8-8.5 8.4-8.6l11.3-.1c30-.2 59.5-5.5 87.6-15.8l14.6-5.3c5.5-2 11.5-.7 15.6 3.4 4.2 4.1 5.6 10 3.7 15.5l-34.3 100.5c-3.4 10-12.9 16.8-23.5 16.8z" fill="#d70e0e" data-original="#000000" style=""/><path d="m492.8 656.6h-86.4c-3.6 0-6.9-2.3-8-5.7l-39.4-114.9c-.9-2.6-.5-5.5 1.1-7.7s4.2-3.6 6.9-3.6h125.8c4.7 0 8.5 3.8 8.5 8.5s-3.8 8.5-8.5 8.5h-113.9l33.6 97.9h80.3c4.7 0 8.5 3.8 8.5 8.5s-3.8 8.5-8.5 8.5z" fill="#d70e0e" data-original="#000000" style=""/><path d="m341.8 581.9h-135.9c-4.7 0-8.5-3.8-8.5-8.5v-50.7c0-2.5 1.1-4.9 3-6.5s4.4-2.3 6.9-1.9l97.3 16.8c1.5.3 3 1 4.2 2l38.6 34c2.7 2.3 3.6 6.1 2.3 9.4-1.2 3.2-4.4 5.4-7.9 5.4zm-127.4-17h104.8l-19.9-17.5-85-14.7v32.2z" fill="#d70e0e" data-original="#000000" style=""/><path d="m787.9 705.8h-121.7c-16.8 0-33.1-3.5-48.5-10.4-13.1-5.9-27.1-8.9-41.5-8.9h-83.4c-4.7 0-8.5-3.8-8.5-8.5s3.8-8.5 8.5-8.5h83.4c16.8 0 33.1 3.5 48.5 10.4 13.1 5.9 27.1 8.9 41.5 8.9h121.7c12.8 0 23.3-10.4 23.3-23.3v-146.2c0-48.6-39.2-88.3-87.7-89l-70.5 22.3c-.8.3-1.7.4-2.6.4h-157.6c-4.7 0-8.5-3.8-8.5-8.5s3.8-8.5 8.5-8.5h156.4l70.5-22.3c.8-.3 1.7-.4 2.6-.4 58.5 0 106 47.6 106 106v146.3c-.1 22.2-18.2 40.2-40.4 40.2z" fill="#d70e0e" data-original="#000000" style=""/><path d="m262.6 430.4c-1.6 0-3.2-.4-4.6-1.3-4-2.5-5.1-7.8-2.6-11.8l59.9-93.3c9.7-15.2 26.3-24.2 44.3-24.2h124.5c4.7 0 8.5 3.8 8.5 8.5s-3.8 8.5-8.5 8.5h-124.5c-12.2 0-23.4 6.1-30 16.4l-59.9 93.3c-1.6 2.5-4.3 3.9-7.1 3.9z" fill="#d70e0e" data-original="#000000" style=""/><path d="m189.4 427.1h-36.4c-4.7 0-9-2.4-11.4-6.4s-2.6-8.9-.4-13.1l18.2-34.9c1.5-2.8 4.4-4.6 7.5-4.6h75.6c4.7 0 8.5 3.8 8.5 8.5s-3.8 8.5-8.5 8.5h-70.5l-13 24.9h30.3c4.7 0 8.5 3.8 8.5 8.5.1 4.8-3.7 8.6-8.4 8.6z" fill="#d70e0e" data-original="#000000" style=""/><path d="m319.4 705.8h-121.8c-22.2 0-40.3-18.1-40.3-40.3v-146.2c0-58.5 47.6-106 106-106 .9 0 1.7.1 2.6.4l70.5 22.3h156.4c4.7 0 8.5 3.8 8.5 8.5s-3.8 8.5-8.5 8.5h-157.7c-.9 0-1.7-.1-2.6-.4l-70.4-22.2c-48.5.7-87.7 40.3-87.7 89v146.3c0 12.8 10.4 23.3 23.3 23.3h121.7c14.4 0 28.4-3 41.5-8.9 15.3-6.9 31.6-10.4 48.5-10.4h83.4c4.7 0 8.5 3.8 8.5 8.5s-3.8 8.5-8.5 8.5h-83.4c-14.4 0-28.4 3-41.5 8.9-15.4 6.7-31.7 10.2-48.5 10.2z" fill="#d70e0e" data-original="#000000" style=""/><path d="m739.8 581.9h-89.1c-3.2 0-6.1-1.8-7.6-4.7-1.4-2.9-1.2-6.3.8-8.9l5.7-7.7c16.7-22.6 39.6-39.5 66.2-48.9l60.1-21.1c5.3-1.9 11.2-1 15.8 2.2s7.3 8.5 7.3 14.1v15.8c0 32.7-26.5 59.2-59.2 59.2zm-71.9-17h71.9c23.3 0 42.2-18.9 42.2-42.2v-15.7c0-.1 0-.2-.1-.3s-.2-.1-.3 0l-60.1 21.1c-21 7.4-39.4 20.1-53.6 37.1z" fill="#d70e0e" data-original="#000000" style=""/><path d="m747.4 667.9h-78c-4.7 0-8.5-3.8-8.5-8.5s3.8-8.5 8.5-8.5h78c12.6 0 22.9-10.3 22.9-22.9v-5c-12.9 4.5-26.5 6.8-40.1 6.8h-4c-4.7 0-8.5-3.8-8.5-8.5s3.8-8.5 8.5-8.5h4c15.5 0 31-3.5 45-10.1 2.6-1.2 5.7-1.1 8.2.5s4 4.3 4 7.2v17.6c-.1 22-18 39.9-40 39.9z" fill="#d70e0e" data-original="#000000" style=""/><path d="m625.1 501.4c-1.3 0-2.7-.3-3.9-1-4.2-2.2-5.8-7.3-3.6-11.5l25.4-48.5c2.2-4.2 7.3-5.8 11.5-3.6s5.8 7.3 3.6 11.5l-25.4 48.5c-1.6 3-4.6 4.6-7.6 4.6z" fill="#d70e0e" data-original="#000000" style=""/><path d="m492.8 741.8c-4.7 0-8.5-3.8-8.5-8.5v-317.4c0-4.7 3.8-8.5 8.5-8.5s8.5 3.8 8.5 8.5v317.4c0 4.7-3.8 8.5-8.5 8.5z" fill="#d70e0e" data-original="#000000" style=""/><path d="m492.8 384.9c-4.7 0-8.5-3.8-8.5-8.5v-14c0-4.7 3.8-8.5 8.5-8.5s8.5 3.8 8.5 8.5v14c0 4.7-3.8 8.5-8.5 8.5z" fill="#d70e0e" data-original="#000000" style=""/><path d="m492.8 335.9c-4.7 0-8.5-3.8-8.5-8.5v-60.6c0-4.7 3.8-8.5 8.5-8.5s8.5 3.8 8.5 8.5v60.6c0 4.6-3.8 8.5-8.5 8.5z" fill="#d70e0e" data-original="#000000" style=""/><path d="m734.6 368.4h-20.1c-3.7 0-6.9-2.3-8.1-5.8l-9.1-27.3c-1.5-4.5.9-9.3 5.4-10.8s9.3.9 10.8 5.4l7.2 21.5h5.4v-34.6h-97.2c-4.7 0-8.5-3.8-8.5-8.5s3.8-8.5 8.5-8.5h105.7c4.7 0 8.5 3.8 8.5 8.5v51.6c0 4.7-3.8 8.5-8.5 8.5z" fill="#d70e0e" data-original="#000000" style=""/><path d="m829.1 733.1h-97.4c-11.8 0-22.7-5.9-29.1-15.7l-10-15.3c-2.6-3.9-1.5-9.2 2.5-11.8 3.9-2.6 9.2-1.5 11.8 2.5l10 15.3c3.3 5 8.9 8 14.9 8h97.4c5.3 0 9.5-4.3 9.5-9.5v-158.6c0-4.5-3.2-8.5-7.7-9.3l-12.9-2.5c-4.6-.9-7.6-5.4-6.7-10s5.4-7.6 10-6.7l12.9 2.5c12.4 2.4 21.5 13.4 21.5 26v158.5c-.2 14.7-12.1 26.6-26.7 26.6z" fill="#d70e0e" data-original="#000000" style=""/></g></g></g></svg>
