<?xml version="1.0"?>
<svg xmlns="http://www.w3.org/2000/svg" xmlns:xlink="http://www.w3.org/1999/xlink" xmlns:svgjs="http://svgjs.com/svgjs" version="1.1" width="512" height="512" x="0" y="0" viewBox="0 0 512 512" style="enable-background:new 0 0 512 512" xml:space="preserve" class=""><g><path xmlns="http://www.w3.org/2000/svg" d="m412.281 357.698-71.527-26.823c-12.645-4.742-21.141-17.001-21.141-30.506v-276.837c0-12.975-10.557-23.532-23.532-23.532h-160.323c-12.976 0-23.533 10.557-23.533 23.532v24.564h-24.564c-12.976 0-23.532 10.557-23.532 23.532v392.791c0 26.236 21.345 47.581 47.581 47.581h233.216c30.244 0 54.849-24.605 54.849-54.849 0-22.735-14.303-43.374-35.59-51.356l-71.527-26.823c-12.645-4.742-21.141-17.001-21.141-30.506v-12.305c0-4.142-3.358-7.5-7.5-7.5s-7.5 3.358-7.5 7.5v12.305c0 19.723 12.407 37.626 30.874 44.551l71.527 26.823c15.466 5.8 25.857 20.794 25.857 37.312 0 21.973-17.876 39.849-39.849 39.849h-233.217c-17.965 0-32.581-14.615-32.581-32.581v-353.227h177.387v192.901c0 4.143 3.358 7.5 7.5 7.5s7.5-3.357 7.5-7.5v-232.465c0-3.009-.574-5.885-1.608-8.532h34.705v237.272c0 19.723 12.407 37.626 30.874 44.551l71.527 26.823c15.466 5.8 25.857 20.794 25.857 37.312 0 11.426-4.917 22.319-13.492 29.888-3.105 2.741-3.4 7.48-.66 10.586 1.482 1.679 3.549 2.537 5.626 2.537 1.764 0 3.534-.618 4.96-1.877 11.798-10.414 18.565-25.406 18.565-41.133.002-22.737-14.301-43.375-35.588-51.358zm-155.765-286.069v24.564h-177.387v-24.564c0-4.705 3.828-8.532 8.532-8.532h160.323c4.704 0 8.532 3.827 8.532 8.532zm-129.29-23.532v-24.565c0-4.705 3.828-8.532 8.533-8.532h160.322c4.705 0 8.532 3.828 8.532 8.532v24.564h-177.387z" fill="#a36f0a" data-original="#000000" style=""/><path xmlns="http://www.w3.org/2000/svg" d="m120.242 243.976c0 15.186 12.354 27.541 27.541 27.541 9.495 0 17.883-4.83 22.836-12.162 2.114 6.018 5.646 11.686 10.467 16.507 8.239 8.24 18.94 12.761 29.658 12.761 2.385 0 4.771-.224 7.13-.681 3.006-.581 5.357-2.932 5.938-5.938 2.508-12.963-2.007-26.716-12.08-36.788-1.336-1.336-2.741-2.567-4.196-3.705 9.566-6.379 15.883-17.264 15.883-29.599 0-19.605-15.951-35.557-35.557-35.557-11.831 0-22.323 5.813-28.79 14.728-1.482-2.104-3.165-4.11-5.043-5.988-10.072-10.073-23.826-14.588-36.788-12.081-3.006.582-5.357 2.932-5.938 5.938-2.509 12.963 2.007 26.716 12.08 36.789 2.416 2.416 5.047 4.502 7.824 6.258-6.655 5.031-10.965 13.009-10.965 21.977zm27.54 12.54c-6.915 0-12.541-5.625-12.541-12.541 0-6.915 5.625-12.54 12.541-12.54s12.541 5.625 12.541 12.54c0 6.916-5.626 12.541-12.541 12.541zm43.91 8.739c-4.966-4.966-7.917-11.411-8.308-17.741 6.33.391 12.775 3.341 17.742 8.308 4.966 4.966 7.917 11.411 8.308 17.741-6.33-.391-12.776-3.342-17.742-8.308zm-3.829-73.901c11.335 0 20.557 9.222 20.557 20.557s-9.222 20.557-20.557 20.557c-11.334 0-20.556-9.222-20.556-20.557s9.221-20.557 20.556-20.557zm-44.44 4.346c4.966 4.966 7.917 11.411 8.308 17.741-6.33-.392-12.775-3.342-17.741-8.308s-7.917-11.411-8.308-17.741c6.329.392 12.775 3.342 17.741 8.308z" fill="#a36f0a" data-original="#000000" style=""/><path xmlns="http://www.w3.org/2000/svg" d="m103.613 128.258h-.08c-4.142 0-7.46 3.358-7.46 7.5 0 4.143 3.398 7.5 7.54 7.5s7.5-3.357 7.5-7.5c0-4.142-3.358-7.5-7.5-7.5z" fill="#a36f0a" data-original="#000000" style=""/><path xmlns="http://www.w3.org/2000/svg" d="m143.258 135.758c0-4.142-3.358-7.5-7.5-7.5h-.081c-4.142 0-7.46 3.358-7.46 7.5 0 4.143 3.398 7.5 7.541 7.5s7.5-3.358 7.5-7.5z" fill="#a36f0a" data-original="#000000" style=""/><path xmlns="http://www.w3.org/2000/svg" d="m175.242 135.758c0-4.142-3.358-7.5-7.5-7.5h-.08c-4.142 0-7.46 3.358-7.46 7.5 0 4.143 3.398 7.5 7.54 7.5s7.5-3.358 7.5-7.5z" fill="#a36f0a" data-original="#000000" style=""/><path xmlns="http://www.w3.org/2000/svg" d="m207.387 135.758c0-4.142-3.358-7.5-7.5-7.5h-.08c-4.142 0-7.46 3.358-7.46 7.5 0 4.143 3.398 7.5 7.54 7.5s7.5-3.358 7.5-7.5z" fill="#a36f0a" data-original="#000000" style=""/><path xmlns="http://www.w3.org/2000/svg" d="m231.872 143.258c4.142 0 7.5-3.357 7.5-7.5 0-4.142-3.358-7.5-7.5-7.5h-.08c-4.142 0-7.46 3.358-7.46 7.5s3.397 7.5 7.54 7.5z" fill="#a36f0a" data-original="#000000" style=""/></g></svg>
