<?xml version="1.0"?>
<svg xmlns="http://www.w3.org/2000/svg" xmlns:xlink="http://www.w3.org/1999/xlink" xmlns:svgjs="http://svgjs.com/svgjs" version="1.1" width="512" height="512" x="0" y="0" viewBox="0 0 493.67997 493" style="enable-background:new 0 0 512 512" xml:space="preserve"><g><path xmlns="http://www.w3.org/2000/svg" d="m96.238281 56.140625c-2.207031 0-4 1.789063-4 4v4c0 2.207031 1.792969 4 4 4 2.210938 0 4-1.792969 4-4v-4c0-2.210937-1.789062-4-4-4zm0 0" fill="#0c804f" data-original="#000000" style=""/><path xmlns="http://www.w3.org/2000/svg" d="m96.238281 31.300781c-2.207031 0-4 1.789063-4 4v4c0 2.207031 1.792969 4 4 4 2.210938 0 4-1.792969 4-4v-4c0-2.210937-1.789062-4-4-4zm0 0" fill="#0c804f" data-original="#000000" style=""/><path xmlns="http://www.w3.org/2000/svg" d="m85.800781 45.738281h-4c-2.210937 0-4 1.792969-4 4 0 2.210938 1.789063 4 4 4h4c2.207031 0 4-1.789062 4-4 0-2.207031-1.792969-4-4-4zm0 0" fill="#0c804f" data-original="#000000" style=""/><path xmlns="http://www.w3.org/2000/svg" d="m110.679688 45.738281h-4c-2.207032 0-4 1.792969-4 4 0 2.210938 1.792968 4 4 4h4c2.210937 0 4-1.789062 4-4 0-2.207031-1.789063-4-4-4zm0 0" fill="#0c804f" data-original="#000000" style=""/><path xmlns="http://www.w3.org/2000/svg" d="m187.800781 56.140625c-2.210937 0-4 1.789063-4 4v4c0 2.207031 1.789063 4 4 4 2.207031 0 4-1.792969 4-4v-4c0-2.210937-1.792969-4-4-4zm0 0" fill="#0c804f" data-original="#000000" style=""/><path xmlns="http://www.w3.org/2000/svg" d="m187.800781 31.300781c-2.210937 0-4 1.789063-4 4v4c0 2.207031 1.789063 4 4 4 2.207031 0 4-1.792969 4-4v-4c0-2.210937-1.792969-4-4-4zm0 0" fill="#0c804f" data-original="#000000" style=""/><path xmlns="http://www.w3.org/2000/svg" d="m177.398438 45.738281h-4c-2.207032 0-4 1.792969-4 4 0 2.210938 1.792968 4 4 4h4c2.210937 0 4-1.789062 4-4 0-2.207031-1.789063-4-4-4zm0 0" fill="#0c804f" data-original="#000000" style=""/><path xmlns="http://www.w3.org/2000/svg" d="m202.199219 45.738281h-4c-2.207031 0-4 1.792969-4 4 0 2.210938 1.792969 4 4 4h4c2.210937 0 4-1.789062 4-4 0-2.207031-1.789063-4-4-4zm0 0" fill="#0c804f" data-original="#000000" style=""/><path xmlns="http://www.w3.org/2000/svg" d="m279.359375 68.179688c2.210937 0 4-1.789063 4-4v-4c0-2.207032-1.789063-4-4-4-2.207031 0-4 1.792968-4 4v4c0 2.210937 1.792969 4 4 4zm0 0" fill="#0c804f" data-original="#000000" style=""/><path xmlns="http://www.w3.org/2000/svg" d="m279.359375 43.339844c2.210937 0 4-1.789063 4-4v-4c0-2.210938-1.789063-4-4-4-2.207031 0-4 1.789062-4 4v4c0 2.210937 1.792969 4 4 4zm0 0" fill="#0c804f" data-original="#000000" style=""/><path xmlns="http://www.w3.org/2000/svg" d="m264.921875 53.738281h4c2.207031 0 4-1.789062 4-4 0-2.207031-1.792969-4-4-4h-4c-2.210937 0-4 1.792969-4 4 0 2.210938 1.789063 4 4 4zm0 0" fill="#0c804f" data-original="#000000" style=""/><path xmlns="http://www.w3.org/2000/svg" d="m289.761719 53.738281h4c2.207031 0 4-1.789062 4-4 0-2.207031-1.792969-4-4-4h-4c-2.210938 0-4 1.792969-4 4 0 2.210938 1.789062 4 4 4zm0 0" fill="#0c804f" data-original="#000000" style=""/><path xmlns="http://www.w3.org/2000/svg" d="m370.921875 68.179688c2.207031 0 4-1.789063 4-4v-4c0-2.207032-1.792969-4-4-4-2.210937 0-4 1.792968-4 4v4c0 2.210937 1.789063 4 4 4zm0 0" fill="#0c804f" data-original="#000000" style=""/><path xmlns="http://www.w3.org/2000/svg" d="m370.921875 43.339844c2.207031 0 4-1.789063 4-4v-4c0-2.210938-1.792969-4-4-4-2.210937 0-4 1.789062-4 4v4c0 2.210937 1.789063 4 4 4zm0 0" fill="#0c804f" data-original="#000000" style=""/><path xmlns="http://www.w3.org/2000/svg" d="m356.480469 53.738281h4c2.207031 0 4-1.789062 4-4 0-2.207031-1.792969-4-4-4h-4c-2.210938 0-4 1.792969-4 4 0 2.210938 1.789062 4 4 4zm0 0" fill="#0c804f" data-original="#000000" style=""/><path xmlns="http://www.w3.org/2000/svg" d="m381.359375 53.738281h4c2.210937 0 4-1.789062 4-4 0-2.207031-1.789063-4-4-4h-4c-2.207031 0-4 1.792969-4 4 0 2.210938 1.792969 4 4 4zm0 0" fill="#0c804f" data-original="#000000" style=""/><path xmlns="http://www.w3.org/2000/svg" d="m154.398438 106.699219c-.976563-1.140625-2.511719-1.636719-3.972657-1.285157-1.460937.351563-2.601562 1.492188-2.953125 2.953126-.351562 1.460937.144532 2.996093 1.289063 3.972656l2.839843 2.878906c.753907.75 1.773438 1.167969 2.839844 1.160156 1.617188-.003906 3.070313-.984375 3.683594-2.484375.613281-1.496093.261719-3.214843-.886719-4.355469zm0 0" fill="#0c804f" data-original="#000000" style=""/><path xmlns="http://www.w3.org/2000/svg" d="m136.839844 89.140625c-.75-.757813-1.773438-1.183594-2.839844-1.183594s-2.089844.425781-2.839844 1.183594c-1.550781 1.558594-1.550781 4.078125 0 5.640625l2.878906 2.878906c.746094.738282 1.75 1.15625 2.800782 1.160156 1.0625.003907 2.085937-.410156 2.839844-1.160156.757812-.75 1.183593-1.773437 1.183593-2.839844 0-1.066406-.425781-2.089843-1.183593-2.839843zm0 0" fill="#0c804f" data-original="#000000" style=""/><path xmlns="http://www.w3.org/2000/svg" d="m134.199219 106.699219-2.878907 2.839843c-.757812.753907-1.183593 1.773438-1.183593 2.839844s.425781 2.089844 1.183593 2.839844c.753907.75 1.777344 1.167969 2.839844 1.160156 1.0625.007813 2.085938-.410156 2.839844-1.160156l2.839844-2.878906c1.140625-.976563 1.640625-2.511719 1.289062-3.972656-.351562-1.460938-1.492187-2.601563-2.957031-2.953126-1.460937-.351562-2.996094.144532-3.972656 1.285157zm0 0" fill="#0c804f" data-original="#000000" style=""/><path xmlns="http://www.w3.org/2000/svg" d="m151.601562 89.140625-2.839843 2.839844c-1.152344 1.140625-1.5 2.859375-.886719 4.355469.613281 1.496093 2.066406 2.476562 3.683594 2.484374 1.066406.003907 2.085937-.410156 2.839844-1.160156l2.839843-2.878906c1.144531-.980469 1.640625-2.515625 1.289063-3.976562-.351563-1.460938-1.492188-2.601563-2.953125-2.953126-1.460938-.351562-2.996094.148438-3.972657 1.289063zm0 0" fill="#0c804f" data-original="#000000" style=""/><path xmlns="http://www.w3.org/2000/svg" d="m245.320312 106.699219c-.75-.757813-1.773437-1.183594-2.839843-1.183594-1.066407 0-2.089844.425781-2.839844 1.183594-1.550781 1.5625-1.550781 4.082031 0 5.640625l2.878906 2.878906c1.570313 1.558594 4.101563 1.550781 5.660157-.019531 1.558593-1.566407 1.546874-4.101563-.019532-5.660157zm0 0" fill="#0c804f" data-original="#000000" style=""/><path xmlns="http://www.w3.org/2000/svg" d="m227.71875 89.140625c-.9375-1.28125-2.542969-1.886719-4.089844-1.546875-1.550781.34375-2.75 1.570312-3.0625 3.128906-.308594 1.554688.332032 3.148438 1.632813 4.058594l2.839843 2.878906c.753907.757813 1.773438 1.183594 2.839844 1.183594s2.089844-.425781 2.839844-1.183594c.757812-.75 1.183594-1.773437 1.183594-2.839844 0-1.066406-.425782-2.089843-1.183594-2.839843zm0 0" fill="#0c804f" data-original="#000000" style=""/><path xmlns="http://www.w3.org/2000/svg" d="m224.921875 106.699219-2.84375 2.839843c-1.566406 1.558594-1.574219 4.09375-.019531 5.660157 1.558594 1.570312 4.09375 1.578125 5.660156.019531l2.882812-2.878906c1.550782-1.558594 1.550782-4.078125 0-5.640625-.753906-.757813-1.773437-1.183594-2.839843-1.183594-1.066407 0-2.089844.425781-2.839844 1.183594zm0 0" fill="#0c804f" data-original="#000000" style=""/><path xmlns="http://www.w3.org/2000/svg" d="m242.519531 89.140625-2.878906 2.839844c-.757813.75-1.183594 1.773437-1.183594 2.839843 0 1.066407.425781 2.089844 1.183594 2.839844.75.757813 1.773437 1.183594 2.839844 1.183594 1.066406 0 2.089843-.425781 2.839843-1.183594l2.839844-2.878906c1.140625-.980469 1.636719-2.515625 1.285156-3.976562-.347656-1.460938-1.492187-2.601563-2.953124-2.953126-1.460938-.351562-2.996094.148438-3.972657 1.289063zm0 0" fill="#0c804f" data-original="#000000" style=""/><path xmlns="http://www.w3.org/2000/svg" d="m96.238281 160.859375c-2.207031 0-4 1.792969-4 4v4c0 2.210937 1.792969 4 4 4 2.210938 0 4-1.789063 4-4v-4c0-2.207031-1.789062-4-4-4zm0 0" fill="#0c804f" data-original="#000000" style=""/><path xmlns="http://www.w3.org/2000/svg" d="m96.238281 136.179688c-2.207031 0-4 1.792968-4 4v4c0 2.210937 1.792969 4 4 4 2.210938 0 4-1.789063 4-4v-4c0-2.207032-1.789062-4-4-4zm0 0" fill="#0c804f" data-original="#000000" style=""/><path xmlns="http://www.w3.org/2000/svg" d="m85.800781 150.621094h-4c-2.210937 0-4 1.789062-4 4 0 2.207031 1.789063 4 4 4h4c2.207031 0 4-1.792969 4-4 0-2.210938-1.792969-4-4-4zm0 0" fill="#0c804f" data-original="#000000" style=""/><path xmlns="http://www.w3.org/2000/svg" d="m110.679688 150.621094h-4c-2.207032 0-4 1.789062-4 4 0 2.207031 1.792968 4 4 4h4c2.210937 0 4-1.792969 4-4 0-2.210938-1.789063-4-4-4zm0 0" fill="#0c804f" data-original="#000000" style=""/><path xmlns="http://www.w3.org/2000/svg" d="m187.800781 160.859375c-2.210937 0-4 1.792969-4 4v4c0 2.210937 1.789063 4 4 4 2.207031 0 4-1.789063 4-4v-4c0-2.207031-1.792969-4-4-4zm0 0" fill="#0c804f" data-original="#000000" style=""/><path xmlns="http://www.w3.org/2000/svg" d="m187.800781 136.179688c-2.210937 0-4 1.792968-4 4v4c0 2.210937 1.789063 4 4 4 2.207031 0 4-1.789063 4-4v-4c0-2.207032-1.792969-4-4-4zm0 0" fill="#0c804f" data-original="#000000" style=""/><path xmlns="http://www.w3.org/2000/svg" d="m177.398438 150.621094h-4c-2.207032 0-4 1.789062-4 4 0 2.207031 1.792968 4 4 4h4c2.210937 0 4-1.792969 4-4 0-2.210938-1.789063-4-4-4zm0 0" fill="#0c804f" data-original="#000000" style=""/><path xmlns="http://www.w3.org/2000/svg" d="m202.199219 150.621094h-4c-2.207031 0-4 1.789062-4 4 0 2.207031 1.792969 4 4 4h4c2.210937 0 4-1.792969 4-4 0-2.210938-1.789063-4-4-4zm0 0" fill="#0c804f" data-original="#000000" style=""/><path xmlns="http://www.w3.org/2000/svg" d="m154.398438 211.578125c-1.585938-1.355469-3.953126-1.265625-5.429688.210937-1.476562 1.476563-1.566406 3.84375-.207031 5.429688l2.839843 2.882812c.753907.746094 1.773438 1.164063 2.839844 1.160157 1.617188-.007813 3.070313-.988281 3.683594-2.484375.613281-1.5.261719-3.21875-.886719-4.355469zm0 0" fill="#0c804f" data-original="#000000" style=""/><path xmlns="http://www.w3.org/2000/svg" d="m136.839844 194.019531c-.75-.757812-1.773438-1.183593-2.839844-1.183593s-2.089844.425781-2.839844 1.183593c-1.550781 1.5625-1.550781 4.082031 0 5.640625l2.878906 2.839844c.738282.753906 1.746094 1.183594 2.800782 1.199219 1.625.011719 3.09375-.964844 3.71875-2.464844.621094-1.5.273437-3.230469-.878906-4.375zm0 0" fill="#0c804f" data-original="#000000" style=""/><path xmlns="http://www.w3.org/2000/svg" d="m134.199219 211.578125-2.878907 2.84375c-.757812.75-1.183593 1.773437-1.183593 2.839844 0 1.066406.425781 2.085937 1.183593 2.839843.753907.746094 1.777344 1.164063 2.839844 1.160157 1.0625.003906 2.085938-.414063 2.839844-1.160157l2.839844-2.882812c1.359375-1.585938 1.269531-3.953125-.210938-5.429688-1.476562-1.476562-3.84375-1.566406-5.429687-.210937zm0 0" fill="#0c804f" data-original="#000000" style=""/><path xmlns="http://www.w3.org/2000/svg" d="m151.601562 194.019531-2.839843 2.839844c-1.550781 1.5625-1.550781 4.082031 0 5.640625.738281.753906 1.742187 1.183594 2.796875 1.199219 1.070312-.003907 2.09375-.4375 2.839844-1.199219l2.839843-2.839844c1.359375-1.585937 1.269531-3.953125-.207031-5.429687-1.476562-1.476563-3.84375-1.570313-5.429688-.210938zm0 0" fill="#0c804f" data-original="#000000" style=""/><path xmlns="http://www.w3.org/2000/svg" d="m245.320312 211.578125c-.75-.753906-1.773437-1.179687-2.839843-1.179687-1.066407 0-2.089844.425781-2.839844 1.179687-1.550781 1.5625-1.550781 4.082031 0 5.640625l2.878906 2.882812c1.570313 1.554688 4.101563 1.546876 5.660157-.023437 1.558593-1.566406 1.546874-4.101563-.019532-5.65625zm0 0" fill="#0c804f" data-original="#000000" style=""/><path xmlns="http://www.w3.org/2000/svg" d="m227.71875 194.019531c-1.601562-1.121093-3.78125-.917969-5.148438.480469-1.367187 1.398438-1.523437 3.582031-.371093 5.160156l2.839843 2.839844c1.601563 1.183594 3.828126 1.007812 5.226563-.410156 1.398437-1.417969 1.539063-3.644532.335937-5.230469zm0 0" fill="#0c804f" data-original="#000000" style=""/><path xmlns="http://www.w3.org/2000/svg" d="m224.921875 211.578125-2.84375 2.84375c-1.566406 1.554687-1.574219 4.089844-.019531 5.65625 1.558594 1.570313 4.09375 1.578125 5.660156.023437l2.882812-2.882812c1.550782-1.558594 1.550782-4.078125 0-5.640625-.753906-.753906-1.773437-1.179687-2.839843-1.179687-1.066407 0-2.089844.425781-2.839844 1.179687zm0 0" fill="#0c804f" data-original="#000000" style=""/><path xmlns="http://www.w3.org/2000/svg" d="m242.519531 194.019531-2.878906 2.839844c-1.558594 1.570313-1.550781 4.101563.019531 5.660156 1.566406 1.558594 4.101563 1.550781 5.660156-.019531l2.839844-2.839844c1.359375-1.585937 1.265625-3.953125-.210937-5.429687-1.476563-1.476563-3.84375-1.570313-5.429688-.210938zm0 0" fill="#0c804f" data-original="#000000" style=""/><path xmlns="http://www.w3.org/2000/svg" d="m336.199219 211.578125c-1.585938-1.355469-3.953125-1.265625-5.429688.210937-1.476562 1.476563-1.570312 3.84375-.210937 5.429688l2.839844 2.882812c.757812.746094 1.777343 1.164063 2.839843 1.160157 1.066407.003906 2.085938-.414063 2.839844-1.160157.757813-.753906 1.183594-1.773437 1.183594-2.839843 0-1.066407-.425781-2.089844-1.183594-2.839844zm0 0" fill="#0c804f" data-original="#000000" style=""/><path xmlns="http://www.w3.org/2000/svg" d="m318.640625 194.019531c-1.585937-1.359375-3.953125-1.265625-5.429687.210938-1.480469 1.476562-1.570313 3.84375-.210938 5.429687l2.839844 2.839844c.75.761719 1.769531 1.195312 2.839844 1.199219 1.617187-.007813 3.074218-.988281 3.683593-2.484375.613281-1.496094.265625-3.214844-.882812-4.355469zm0 0" fill="#0c804f" data-original="#000000" style=""/><path xmlns="http://www.w3.org/2000/svg" d="m315.839844 211.578125-2.839844 2.84375c-1.570312 1.554687-1.578125 4.089844-.019531 5.65625 1.558593 1.570313 4.089843 1.578125 5.660156.023437l2.839844-2.882812c1.550781-1.558594 1.550781-4.078125 0-5.640625-1.5625-1.550781-4.082031-1.550781-5.640625 0zm0 0" fill="#0c804f" data-original="#000000" style=""/><path xmlns="http://www.w3.org/2000/svg" d="m333.398438 194.019531-2.839844 2.839844c-1.152344 1.144531-1.5 2.875-.875 4.375.621094 1.5 2.089844 2.476563 3.714844 2.464844 1.054687-.015625 2.0625-.445313 2.800781-1.199219l2.878906-2.839844c1.554687-1.558594 1.554687-4.078125 0-5.640625-.75-.757812-1.773437-1.183593-2.839844-1.183593-1.066406 0-2.085937.425781-2.839843 1.183593zm0 0" fill="#0c804f" data-original="#000000" style=""/><path xmlns="http://www.w3.org/2000/svg" d="m96.238281 265.898438c-2.207031 0-4 1.792968-4 4v4c0 2.210937 1.792969 4 4 4 2.210938 0 4-1.789063 4-4v-4c0-2.207032-1.789062-4-4-4zm0 0" fill="#0c804f" data-original="#000000" style=""/><path xmlns="http://www.w3.org/2000/svg" d="m96.238281 241.058594c-2.207031 0-4 1.792968-4 4v4c0 2.210937 1.792969 4 4 4 2.210938 0 4-1.789063 4-4v-4c0-2.207032-1.789062-4-4-4zm0 0" fill="#0c804f" data-original="#000000" style=""/><path xmlns="http://www.w3.org/2000/svg" d="m85.800781 255.5h-4c-2.210937 0-4 1.789062-4 4s1.789063 4 4 4h4c2.207031 0 4-1.789062 4-4s-1.792969-4-4-4zm0 0" fill="#0c804f" data-original="#000000" style=""/><path xmlns="http://www.w3.org/2000/svg" d="m110.679688 255.5h-4c-2.207032 0-4 1.789062-4 4s1.792968 4 4 4h4c2.210937 0 4-1.789062 4-4s-1.789063-4-4-4zm0 0" fill="#0c804f" data-original="#000000" style=""/><path xmlns="http://www.w3.org/2000/svg" d="m187.800781 265.898438c-2.210937 0-4 1.792968-4 4v4c0 2.210937 1.789063 4 4 4 2.207031 0 4-1.789063 4-4v-4c0-2.207032-1.792969-4-4-4zm0 0" fill="#0c804f" data-original="#000000" style=""/><path xmlns="http://www.w3.org/2000/svg" d="m187.800781 241.058594c-2.210937 0-4 1.792968-4 4v4c0 2.210937 1.789063 4 4 4 2.207031 0 4-1.789063 4-4v-4c0-2.207032-1.792969-4-4-4zm0 0" fill="#0c804f" data-original="#000000" style=""/><path xmlns="http://www.w3.org/2000/svg" d="m177.398438 255.5h-4c-2.207032 0-4 1.789062-4 4s1.792968 4 4 4h4c2.210937 0 4-1.789062 4-4s-1.789063-4-4-4zm0 0" fill="#0c804f" data-original="#000000" style=""/><path xmlns="http://www.w3.org/2000/svg" d="m202.199219 255.5h-4c-2.207031 0-4 1.789062-4 4s1.792969 4 4 4h4c2.210937 0 4-1.789062 4-4s-1.789063-4-4-4zm0 0" fill="#0c804f" data-original="#000000" style=""/><path xmlns="http://www.w3.org/2000/svg" d="m279.359375 265.898438c-2.207031 0-4 1.792968-4 4v4c0 2.210937 1.792969 4 4 4 2.210937 0 4-1.789063 4-4v-4c0-2.207032-1.789063-4-4-4zm0 0" fill="#0c804f" data-original="#000000" style=""/><path xmlns="http://www.w3.org/2000/svg" d="m279.359375 241.058594c-2.207031 0-4 1.792968-4 4v4c0 2.210937 1.792969 4 4 4 2.210937 0 4-1.789063 4-4v-4c0-2.207032-1.789063-4-4-4zm0 0" fill="#0c804f" data-original="#000000" style=""/><path xmlns="http://www.w3.org/2000/svg" d="m268.960938 255.5h-4c-2.210938 0-4 1.789062-4 4s1.789062 4 4 4h4c2.207031 0 4-1.789062 4-4s-1.792969-4-4-4zm0 0" fill="#0c804f" data-original="#000000" style=""/><path xmlns="http://www.w3.org/2000/svg" d="m293.800781 255.5h-4c-2.210937 0-4 1.789062-4 4s1.789063 4 4 4h4c2.207031 0 4-1.789062 4-4s-1.792969-4-4-4zm0 0" fill="#0c804f" data-original="#000000" style=""/><path xmlns="http://www.w3.org/2000/svg" d="m96.238281 370.78125c-2.207031 0-4 1.789062-4 4v4c0 2.207031 1.792969 4 4 4 2.210938 0 4-1.792969 4-4v-4c0-2.210938-1.789062-4-4-4zm0 0" fill="#0c804f" data-original="#000000" style=""/><path xmlns="http://www.w3.org/2000/svg" d="m96.238281 345.941406c-2.207031 0-4 1.789063-4 4v4c0 2.207032 1.792969 4 4 4 2.210938 0 4-1.792968 4-4v-4c0-2.210937-1.789062-4-4-4zm0 0" fill="#0c804f" data-original="#000000" style=""/><path xmlns="http://www.w3.org/2000/svg" d="m85.800781 360.378906h-4c-2.210937 0-4 1.792969-4 4 0 2.210938 1.789063 4 4 4h4c2.207031 0 4-1.789062 4-4 0-2.207031-1.792969-4-4-4zm0 0" fill="#0c804f" data-original="#000000" style=""/><path xmlns="http://www.w3.org/2000/svg" d="m110.679688 360.378906h-4c-2.207032 0-4 1.792969-4 4 0 2.210938 1.792968 4 4 4h4c2.210937 0 4-1.789062 4-4 0-2.207031-1.789063-4-4-4zm0 0" fill="#0c804f" data-original="#000000" style=""/><path xmlns="http://www.w3.org/2000/svg" d="m187.800781 370.78125c-2.210937 0-4 1.789062-4 4v4c0 2.207031 1.789063 4 4 4 2.207031 0 4-1.792969 4-4v-4c0-2.210938-1.792969-4-4-4zm0 0" fill="#0c804f" data-original="#000000" style=""/><path xmlns="http://www.w3.org/2000/svg" d="m187.800781 345.941406c-2.210937 0-4 1.789063-4 4v4c0 2.207032 1.789063 4 4 4 2.207031 0 4-1.792968 4-4v-4c0-2.210937-1.792969-4-4-4zm0 0" fill="#0c804f" data-original="#000000" style=""/><path xmlns="http://www.w3.org/2000/svg" d="m177.398438 360.378906h-4c-2.207032 0-4 1.792969-4 4 0 2.210938 1.792968 4 4 4h4c2.210937 0 4-1.789062 4-4 0-2.207031-1.789063-4-4-4zm0 0" fill="#0c804f" data-original="#000000" style=""/><path xmlns="http://www.w3.org/2000/svg" d="m202.199219 360.378906h-4c-2.207031 0-4 1.792969-4 4 0 2.210938 1.792969 4 4 4h4c2.210937 0 4-1.789062 4-4 0-2.207031-1.789063-4-4-4zm0 0" fill="#0c804f" data-original="#000000" style=""/><path xmlns="http://www.w3.org/2000/svg" d="m279.359375 370.78125c-2.207031 0-4 1.789062-4 4v4c0 2.207031 1.792969 4 4 4 2.210937 0 4-1.792969 4-4v-4c0-2.210938-1.789063-4-4-4zm0 0" fill="#0c804f" data-original="#000000" style=""/><path xmlns="http://www.w3.org/2000/svg" d="m279.359375 345.941406c-2.207031 0-4 1.789063-4 4v4c0 2.207032 1.792969 4 4 4 2.210937 0 4-1.792968 4-4v-4c0-2.210937-1.789063-4-4-4zm0 0" fill="#0c804f" data-original="#000000" style=""/><path xmlns="http://www.w3.org/2000/svg" d="m268.960938 360.378906h-4c-2.210938 0-4 1.792969-4 4 0 2.210938 1.789062 4 4 4h4c2.207031 0 4-1.789062 4-4 0-2.207031-1.792969-4-4-4zm0 0" fill="#0c804f" data-original="#000000" style=""/><path xmlns="http://www.w3.org/2000/svg" d="m293.800781 360.378906h-4c-2.210937 0-4 1.792969-4 4 0 2.210938 1.789063 4 4 4h4c2.207031 0 4-1.789062 4-4 0-2.207031-1.792969-4-4-4zm0 0" fill="#0c804f" data-original="#000000" style=""/><path xmlns="http://www.w3.org/2000/svg" d="m370.921875 382.820312c2.207031 0 4-1.792968 4-4v-4c0-2.210937-1.792969-4-4-4-2.210937 0-4 1.789063-4 4v4c0 2.207032 1.789063 4 4 4zm0 0" fill="#0c804f" data-original="#000000" style=""/><path xmlns="http://www.w3.org/2000/svg" d="m356.480469 368.378906h4c2.207031 0 4-1.789062 4-4 0-2.207031-1.792969-4-4-4h-4c-2.210938 0-4 1.792969-4 4 0 2.210938 1.789062 4 4 4zm0 0" fill="#0c804f" data-original="#000000" style=""/><path xmlns="http://www.w3.org/2000/svg" d="m381.359375 368.378906h4c2.210937 0 4-1.789062 4-4 0-2.207031-1.789063-4-4-4h-4c-2.207031 0-4 1.792969-4 4 0 2.210938 1.792969 4 4 4zm0 0" fill="#0c804f" data-original="#000000" style=""/><path xmlns="http://www.w3.org/2000/svg" d="m154.398438 316.460938c-1.585938-1.359376-3.953126-1.269532-5.429688.207031-1.476562 1.480469-1.566406 3.84375-.207031 5.433593l2.839843 2.878907c.753907.75 1.773438 1.164062 2.839844 1.160156 1.617188-.007813 3.070313-.988281 3.683594-2.484375.613281-1.5.261719-3.21875-.886719-4.355469zm0 0" fill="#0c804f" data-original="#000000" style=""/><path xmlns="http://www.w3.org/2000/svg" d="m136.839844 298.898438c-.75-.753907-1.773438-1.183594-2.839844-1.183594s-2.089844.429687-2.839844 1.183594c-1.550781 1.5625-1.550781 4.082031 0 5.640624l2.878906 2.839844c.738282.753906 1.746094 1.1875 2.800782 1.199219 1.625.011719 3.09375-.964844 3.71875-2.464844.621094-1.5.273437-3.230469-.878906-4.375zm0 0" fill="#0c804f" data-original="#000000" style=""/><path xmlns="http://www.w3.org/2000/svg" d="m134.199219 316.460938-2.878907 2.839843c-.757812.75-1.183593 1.773438-1.183593 2.839844s.425781 2.089844 1.183593 2.839844c.753907.75 1.777344 1.164062 2.839844 1.160156 1.0625.003906 2.085938-.410156 2.839844-1.160156l2.839844-2.878907c1.359375-1.589843 1.269531-3.953124-.210938-5.433593-1.476562-1.476563-3.84375-1.566407-5.429687-.207031zm0 0" fill="#0c804f" data-original="#000000" style=""/><path xmlns="http://www.w3.org/2000/svg" d="m151.601562 298.898438-2.839843 2.839843c-1.550781 1.5625-1.550781 4.082031 0 5.640625.738281.753906 1.742187 1.1875 2.796875 1.199219 1.070312-.003906 2.09375-.433594 2.839844-1.199219l2.839843-2.839844c1.359375-1.585937 1.269531-3.953124-.207031-5.429687s-3.84375-1.570313-5.429688-.210937zm0 0" fill="#0c804f" data-original="#000000" style=""/><path xmlns="http://www.w3.org/2000/svg" d="m245.320312 316.460938c-.75-.757813-1.773437-1.183594-2.839843-1.183594-1.066407 0-2.089844.425781-2.839844 1.183594-1.550781 1.558593-1.550781 4.078124 0 5.640624l2.878906 2.878907c1.570313 1.558593 4.101563 1.546875 5.660157-.019531 1.558593-1.570313 1.546874-4.101563-.019532-5.660157zm0 0" fill="#0c804f" data-original="#000000" style=""/><path xmlns="http://www.w3.org/2000/svg" d="m227.71875 298.898438c-.9375-1.28125-2.542969-1.886719-4.089844-1.542969-1.550781.34375-2.75 1.570312-3.0625 3.125-.308594 1.558593.332032 3.148437 1.632813 4.058593l2.839843 2.839844c1.558594 1.570313 4.09375 1.578125 5.660157.019532 1.570312-1.554688 1.578125-4.089844.019531-5.660157zm0 0" fill="#0c804f" data-original="#000000" style=""/><path xmlns="http://www.w3.org/2000/svg" d="m224.921875 316.460938-2.84375 2.839843c-1.179687 1.601563-1.007813 3.828125.410156 5.226563 1.417969 1.398437 3.648438 1.539062 5.230469.332031l2.882812-2.878906c1.550782-1.5625 1.550782-4.082031 0-5.640625-.769531-.742188-1.800781-1.144532-2.867187-1.125-1.066406.023437-2.078125.472656-2.8125 1.246094zm0 0" fill="#0c804f" data-original="#000000" style=""/><path xmlns="http://www.w3.org/2000/svg" d="m242.519531 298.898438-2.878906 2.839843c-1.558594 1.570313-1.550781 4.105469.019531 5.660157 1.566406 1.558593 4.101563 1.550781 5.660156-.019532l2.839844-2.839844c1.359375-1.585937 1.265625-3.953124-.210937-5.429687-1.476563-1.476563-3.84375-1.570313-5.429688-.210937zm0 0" fill="#0c804f" data-original="#000000" style=""/><path xmlns="http://www.w3.org/2000/svg" d="m336.199219 316.460938c-1.585938-1.359376-3.953125-1.269532-5.429688.207031-1.476562 1.480469-1.570312 3.84375-.210937 5.433593l2.839844 2.878907c.757812.75 1.777343 1.164062 2.839843 1.160156 1.066407.003906 2.085938-.410156 2.839844-1.160156.757813-.75 1.183594-1.773438 1.183594-2.839844s-.425781-2.089844-1.183594-2.839844zm0 0" fill="#0c804f" data-original="#000000" style=""/><path xmlns="http://www.w3.org/2000/svg" d="m318.640625 298.898438c-1.585937-1.359376-3.953125-1.265626-5.429687.210937-1.480469 1.476563-1.570313 3.84375-.210938 5.429687l2.839844 2.839844c.75.765625 1.769531 1.195313 2.839844 1.199219 1.617187-.003906 3.074218-.984375 3.683593-2.484375.613281-1.496094.265625-3.214844-.882812-4.355469zm0 0" fill="#0c804f" data-original="#000000" style=""/><path xmlns="http://www.w3.org/2000/svg" d="m315.839844 316.460938-2.839844 2.839843c-1.183594 1.601563-1.007812 3.828125.410156 5.226563 1.417969 1.398437 3.644532 1.539062 5.230469.332031l2.839844-2.878906c1.550781-1.5625 1.550781-4.082031 0-5.640625-1.59375-1.519532-4.113281-1.464844-5.640625.121094zm0 0" fill="#0c804f" data-original="#000000" style=""/><path xmlns="http://www.w3.org/2000/svg" d="m333.398438 298.898438-2.839844 2.839843c-1.152344 1.144531-1.5 2.875-.875 4.375.621094 1.5 2.089844 2.476563 3.714844 2.464844 1.054687-.011719 2.0625-.445313 2.800781-1.199219l2.878906-2.839844c1.554687-1.558593 1.554687-4.078124 0-5.640624-.75-.753907-1.773437-1.183594-2.839844-1.183594-1.066406 0-2.085937.429687-2.839843 1.183594zm0 0" fill="#0c804f" data-original="#000000" style=""/><path xmlns="http://www.w3.org/2000/svg" d="m419.238281.339844h-369.679687c-2.207032 0-4 1.789062-4 4v394.082031h-1.238282c-23.574218.597656-42.777343 19.117187-44.2343745 42.652344-1.4570315 23.535156 15.3164065 44.28125 38.6328125 47.785156.511719.246094 1.074219.371094 1.640625.359375h329.839844c.226562.019531.453125.019531.679687 0h2.640625c24.519531 0 49.839844-16.679688 49.839844-44.558594v-250.601562l59.441406-13c6.328125-1.398438 10.84375-6.996094 10.878907-13.480469v-41.558594c0-7.644531-6.195313-13.839843-13.839844-13.839843h-11.601563v-30.679688c0-2.210938-1.789062-4-4-4h-41v-73.160156c0-2.210938-1.789062-4-4-4zm-374.917969 481.039062c-20.699218 0-37.480468-16.777344-37.480468-37.480468 0-20.699219 16.78125-37.476563 37.480468-37.476563h303.441407c-12.394531 8.449219-19.8125 22.476563-19.8125 37.476563 0 15.003906 7.417969 29.03125 19.8125 37.480468zm370.917969-293.757812-36 8c-7.511719 1.683594-12.886719 8.300781-13 16v10.800781c-6.625 1.78125-11.242187 7.773437-11.277343 14.636719v103.242187c-.289063 5.636719 2.554687 10.976563 7.394531 13.882813 4.839843 2.90625 10.886719 2.90625 15.730469 0 4.839843-2.90625 7.683593-8.246094 7.394531-13.882813v-103.160156c-.035157-6.863281-4.652344-12.855469-11.28125-14.640625v-10.800781c0-4.019531 2.796875-7.496094 6.722656-8.359375l34.4375-7.519532v249.039063c0 22.878906-21.28125 36.5625-41.839844 36.5625-20.230469.015625-36.820312-16.023437-37.492187-36.242187-.667969-20.21875 14.828125-37.320313 35.011718-38.640626 12.714844.726563 23.105469 10.410157 24.722657 23.039063.886719 5.488281-.445313 11.101563-3.703125 15.601563-3.257813 4.503906-8.171875 7.527343-13.660156 8.398437-8.625 1.277344-16.6875-4.59375-18.117188-13.199219-.960938-6.480468 3.453125-12.535156 9.917969-13.597656 2.210937-.34375 3.722656-2.414062 3.378906-4.621094-.339844-2.210937-2.410156-3.722656-4.617187-3.378906-10.8125 1.761719-18.191407 11.886719-16.5625 22.71875 1.945312 11.507812 11.890624 19.949219 23.5625 20 1.230468.003906 2.460937-.089844 3.679687-.28125 15.683594-2.519531 26.398437-17.214844 24-32.917969-2.191406-16.625-16.046875-29.246093-32.800781-29.878906h-317.28125v-390.082031h361.679687v69.160156h-139.238281c-2.210938 0-4 1.789062-4 4v30.679688h-6.601562c-2.207032 0-4 1.792968-4 4 0 2.210937 1.792968 4 4 4h6.601562v30.71875c0 2.210937 1.789062 4 4 4h25.839844v.882812c0 10.625 8.613281 19.238281 19.238281 19.238281 10.628906 0 19.242187-8.613281 19.242187-19.238281 0-.28125 0-.601562 0-.882812h75zm-37.917969 49.519531v103.160156c.203126 2.722657-1.136718 5.328125-3.464843 6.75-2.332031 1.425781-5.261719 1.425781-7.589844 0-2.328125-1.421875-3.667969-4.027343-3.464844-6.75v-103.160156c.28125-3.800781 3.449219-6.742187 7.257813-6.742187 3.8125 0 6.980468 2.941406 7.261718 6.742187zm-67.519531-81.359375c.070313-1.128906.324219-2.238281.757813-3.28125 2.785156-6.414062 6.289062-12.492188 10.441406-18.121094 4.152344 5.628906 7.65625 11.707032 10.441406 18.121094.433594 1.042969.6875 2.152344.757813 3.28125 0 6.207031-5.03125 11.238281-11.238281 11.238281-6.207032 0-11.242188-5.03125-11.242188-11.238281zm158.320313-4.882812v-30.71875h11.597656c3.21875.023437 5.820312 2.625 5.839844 5.839843v41.558594c-.027344 2.734375-1.933594 5.085937-4.597656 5.683594l-57.722657 12.597656v-30.960937h40.882813c2.207031 0 4-1.789063 4-4zm-8-65.398438v61.398438h-122.28125c-3.773438-7.796876-8.34375-15.183594-13.640625-22.039063-.757813-.976563-1.921875-1.546875-3.160157-1.546875-1.234374 0-2.402343.570312-3.160156 1.546875-5.300781 6.800781-9.886718 14.132813-13.679687 21.878906h-24v-61.238281zm0 0" fill="#0c804f" data-original="#000000" style=""/><path xmlns="http://www.w3.org/2000/svg" d="m403.121094 106.019531h39.078125c2.210937 0 4-1.789062 4-4 0-2.207031-1.789063-4-4-4h-39.238281c-2.210938 0-4 1.792969-4 4 0 2.210938 1.789062 4 4 4zm0 0" fill="#0c804f" data-original="#000000" style=""/><path xmlns="http://www.w3.org/2000/svg" d="m371.160156 106.019531h8.71875c2.210938 0 4-1.789062 4-4 0-2.207031-1.789062-4-4-4h-8.71875c-2.210937 0-4 1.792969-4 4 0 2.210938 1.789063 4 4 4zm0 0" fill="#0c804f" data-original="#000000" style=""/></g></svg>
