<?xml version="1.0"?>
<svg xmlns="http://www.w3.org/2000/svg" xmlns:xlink="http://www.w3.org/1999/xlink" xmlns:svgjs="http://svgjs.com/svgjs" version="1.1" width="512" height="512" x="0" y="0" viewBox="0 0 512.02 512.02" style="enable-background:new 0 0 512 512" xml:space="preserve"><g><g xmlns="http://www.w3.org/2000/svg" id="XMLID_1104_"><g id="XMLID_1172_"><g id="XMLID_857_"><path id="XMLID_858_" d="m256 102c2.63 0 5.21-1.07 7.069-2.931 1.861-1.859 2.931-4.439 2.931-7.069s-1.07-5.21-2.931-7.07c-1.859-1.861-4.439-2.93-7.069-2.93-2.641 0-5.21 1.069-7.07 2.93s-2.93 4.44-2.93 7.07 1.069 5.21 2.93 7.069c1.86 1.861 4.44 2.931 7.07 2.931z" fill="#275cd9" data-original="#000000" style=""/><path id="XMLID_859_" d="m367.179 203.681c-25.893-6.938-52.59 8.481-59.524 34.366-1.43 5.335 1.736 10.817 7.071 12.247.867.232 1.737.344 2.594.344 4.415 0 8.456-2.947 9.653-7.415 4.082-15.232 19.798-24.302 35.03-20.224 5.338 1.434 10.817-1.736 12.247-7.071 1.43-5.334-1.736-10.818-7.071-12.247z" fill="#275cd9" data-original="#000000" style=""/><path id="XMLID_861_" d="m270.051 238.323c.867.232 1.737.344 2.594.344 4.415 0 8.456-2.947 9.653-7.415 10.683-39.868 51.811-63.611 91.676-52.929 5.337 1.432 10.817-1.737 12.247-7.071s-1.736-10.817-7.071-12.247c-50.517-13.539-102.633 16.551-116.17 67.071-1.43 5.334 1.736 10.817 7.071 12.247z" fill="#275cd9" data-original="#000000" style=""/><path id="XMLID_870_" d="m502.611 366.99-2.61-4.521c7.685-8.997 11.999-20.49 11.999-32.469v-240c0-27.57-22.43-50-50-50h-412c-27.57 0-50 22.43-50 50v240c0 27.57 22.43 50 50 50h164v58h-40c-5.522 0-10 4.478-10 10s4.478 10 10 10h164c5.522 0 10-4.478 10-10s-4.478-10-10-10h-40v-58h50.465l32.903 56.99c9.349 16.192 24.443 27.775 42.504 32.614 6.031 1.616 12.15 2.416 18.231 2.416 12.129 0 24.102-3.182 34.887-9.409 16.192-9.349 27.775-24.443 32.614-42.504 4.84-18.06 2.357-36.925-6.993-53.117zm-224.611 71.01h-44v-58h44zm-228-78c-16.542 0-30-13.458-30-30v-240c0-16.542 13.458-30 30-30h412c16.542 0 30 13.458 30 30v240c0 4.646-1.088 9.168-3.097 13.248l-20.903-36.207v-215.041c0-5.522-4.478-10-10-10h-157c-5.522 0-10 4.478-10 10s4.478 10 10 10h147v170.4l-16.264-28.17c-2.537-4.396-6.635-7.539-11.537-8.853-4.901-1.313-10.021-.64-14.417 1.898l-88.335 51c-4.396 2.537-7.539 6.635-8.853 11.537-1.313 4.901-.64 10.021 1.898 14.417l2.176 3.77h-248.668v-215.999h147c5.522 0 10-4.478 10-10s-4.478-10-10-10h-157c-5.522 0-10 4.478-10 10v236c0 5.522 4.478 10 10 10h270.216l12.702 22zm440.286 54.931c-3.456 12.9-11.729 23.683-23.296 30.36-11.565 6.677-25.04 8.453-37.941 4.995-12.9-3.456-23.683-11.729-30.36-23.296l-70.375-121.894 86.603-50 70.375 121.894c6.677 11.566 8.451 25.04 4.994 37.941z" fill="#275cd9" data-original="#000000" style=""/><path id="XMLID_875_" d="m449.82 372.973c-7.742-2.074-15.826-1.009-22.765 2.998-14.325 8.271-19.251 26.654-10.98 40.98 4.006 6.939 10.476 11.903 18.216 13.978 2.585.692 5.208 1.035 7.813 1.035 5.198 0 10.329-1.363 14.95-4.032 6.94-4.006 11.905-10.476 13.979-18.216 2.073-7.74 1.009-15.825-2.998-22.764-4.005-6.939-10.474-11.904-18.215-13.979zm1.895 31.567c-.69 2.58-2.346 4.736-4.659 6.072-2.314 1.336-5.01 1.689-7.588.999-2.58-.691-4.736-2.346-6.072-4.658-2.757-4.776-1.115-10.904 3.66-13.661 1.541-.89 3.252-1.345 4.984-1.345.868 0 1.743.114 2.604.346 2.579.69 4.735 2.346 6.071 4.659v.001c1.337 2.312 1.691 5.007 1 7.587z" fill="#275cd9" data-original="#000000" style=""/><path id="XMLID_876_" d="m376.93 309.83c-1.86-1.86-4.439-2.92-7.07-2.92-2.63 0-5.21 1.06-7.069 2.92-1.86 1.859-2.931 4.439-2.931 7.069 0 2.641 1.07 5.21 2.931 7.08 1.859 1.86 4.439 2.931 7.069 2.931 2.631 0 5.21-1.07 7.07-2.931 1.86-1.87 2.93-4.45 2.93-7.08s-1.07-5.199-2.93-7.069z" fill="#275cd9" data-original="#000000" style=""/><path id="XMLID_877_" d="m411.569 289.83c-1.859-1.86-4.439-2.931-7.069-2.931s-5.21 1.07-7.07 2.931c-1.86 1.87-2.93 4.439-2.93 7.08 0 2.63 1.069 5.199 2.93 7.069 1.86 1.86 4.44 2.92 7.07 2.92s5.21-1.06 7.069-2.92c1.86-1.859 2.931-4.439 2.931-7.069 0-2.641-1.07-5.221-2.931-7.08z" fill="#275cd9" data-original="#000000" style=""/><path id="XMLID_878_" d="m417.43 338.62c1.86 1.859 4.44 2.93 7.07 2.93s5.21-1.07 7.069-2.93c1.86-1.86 2.931-4.44 2.931-7.07 0-2.64-1.07-5.21-2.931-7.07-1.859-1.87-4.439-2.93-7.069-2.93s-5.21 1.06-7.07 2.93c-1.86 1.86-2.93 4.431-2.93 7.07 0 2.63 1.069 5.21 2.93 7.07z" fill="#275cd9" data-original="#000000" style=""/><path id="XMLID_879_" d="m389.859 341.55c-2.63 0-5.21 1.07-7.069 2.93-1.86 1.86-2.931 4.44-2.931 7.07s1.07 5.21 2.931 7.07c1.859 1.859 4.439 2.93 7.069 2.93 2.631 0 5.21-1.07 7.07-2.93s2.93-4.44 2.93-7.07-1.069-5.21-2.93-7.07c-1.86-1.86-4.439-2.93-7.07-2.93z" fill="#275cd9" data-original="#000000" style=""/></g></g></g></g></svg>
