<?xml version="1.0"?>
<svg xmlns="http://www.w3.org/2000/svg" xmlns:xlink="http://www.w3.org/1999/xlink" xmlns:svgjs="http://svgjs.com/svgjs" version="1.1" width="512" height="512" x="0" y="0" viewBox="0 0 512 512" style="enable-background:new 0 0 512 512" xml:space="preserve"><g><path xmlns="http://www.w3.org/2000/svg" d="m326 130c0-12.296-3.23-24.386-9.341-34.961l-52-90.04c-1.786-3.094-5.087-4.999-8.659-4.999s-6.873 1.905-8.659 4.999l-52 90.038c-6.111 10.577-9.341 22.667-9.341 34.963 0 38.599 31.401 70 70 70s70-31.401 70-70zm-120 0c0-8.787 2.303-17.418 6.659-24.959l43.341-75.046 43.341 75.048c4.356 7.539 6.659 16.17 6.659 24.957 0 27.57-22.43 50-50 50s-50-22.43-50-50z" fill="#153caf" data-original="#000000" style=""/><path xmlns="http://www.w3.org/2000/svg" d="m498.65 242.059-77.99-135.06c-1.787-3.094-5.088-4.999-8.66-4.999s-6.873 1.905-8.66 4.999l-77.988 135.058c-8.735 15.115-13.352 32.385-13.352 49.943 0 55.141 44.859 100 100 100s100-44.859 100-100c0-17.558-4.617-34.828-13.35-49.941zm-86.65 129.941c-44.112 0-80-35.888-80-80 0-14.05 3.689-27.859 10.67-39.939l69.33-120.064 69.332 120.065c6.979 12.079 10.668 25.888 10.668 39.938 0 44.112-35.888 80-80 80z" fill="#153caf" data-original="#000000" style=""/><path xmlns="http://www.w3.org/2000/svg" d="m433.029 268.436c-4.779 2.768-6.411 8.885-3.644 13.665 1.71 2.954 2.614 6.325 2.614 9.749v.15c0 11.028-8.972 20-20 20-5.522 0-10 4.478-10 10s4.478 10 10 10c22.056 0 40-17.944 40-40v-.15c0-6.938-1.835-13.774-5.306-19.771-2.765-4.779-8.881-6.41-13.664-3.643z" fill="#153caf" data-original="#000000" style=""/><path xmlns="http://www.w3.org/2000/svg" d="m200 382v-.16c0-12.176-3.218-24.196-9.305-34.762-2.758-4.785-8.868-6.431-13.657-3.673-4.785 2.758-6.43 8.872-3.673 13.657 4.341 7.533 6.635 16.102 6.635 24.777v.161c0 27.57-22.43 50-50 50-5.522 0-10 4.478-10 10s4.478 10 10 10c38.598 0 70-31.402 70-70z" fill="#153caf" data-original="#000000" style=""/><circle xmlns="http://www.w3.org/2000/svg" cx="129.999" cy="502" r="10" fill="#153caf" data-original="#000000" style=""/><path xmlns="http://www.w3.org/2000/svg" d="m130 132c-3.572 0-6.873 1.905-8.66 4.999l-103.99 180.081c-11.351 19.657-17.35 42.106-17.35 64.92 0 54.159 33.298 101.532 82.101 120.887 5.137 2.036 10.946-.476 12.982-5.609s-.476-10.946-5.609-12.982c-42.204-16.737-69.474-56.891-69.474-102.296 0-19.308 5.072-38.299 14.67-54.919l95.33-165.084 95.33 165.083c9.598 16.621 14.67 35.612 14.67 54.92 0 45.406-27.271 85.56-69.475 102.296-5.134 2.036-7.646 7.849-5.609 12.982 2.026 5.108 7.822 7.654 12.982 5.609 48.768-19.339 82.102-66.687 82.102-120.887 0-22.814-5.999-45.263-17.35-64.921l-103.99-180.08c-1.787-3.094-5.088-4.999-8.66-4.999z" fill="#153caf" data-original="#000000" style=""/></g></svg>
