<svg xmlns="http://www.w3.org/2000/svg" viewBox="0 0 21.89 21.93" fill="#f14941"><title>phone</title><g id="Layer_2" data-name="Layer 2"><g id="Layer_1-2" data-name="Layer 1"><path d="M18.87,21.93h-.26a20.93,20.93,0,0,1-9.08-3.23,20.8,20.8,0,0,1-6.3-6.3A21,21,0,0,1,0,3.29,3,3,0,0,1,.7,1.08,2.94,2.94,0,0,1,2.73,0H6A3,3,0,0,1,9,2.58a12.2,12.2,0,0,0,.64,2.6A3,3,0,0,1,9,8.34l-.72.72a15,15,0,0,0,4.58,4.59l.72-.72a3,3,0,0,1,3.17-.68,11.57,11.57,0,0,0,2.59.65,3,3,0,0,1,2.59,3v3a3,3,0,0,1-3,3ZM6,2H3a1,1,0,0,0-.77.36A1,1,0,0,0,2,3.09a18.91,18.91,0,0,0,2.92,8.22A18.75,18.75,0,0,0,10.61,17a19,19,0,0,0,8.21,2.92.93.93,0,0,0,.78-.3,1,1,0,0,0,.29-.71v-3a1,1,0,0,0-.86-1,13.9,13.9,0,0,1-3-.75,1,1,0,0,0-1.06.22l-1.27,1.27a1,1,0,0,1-1.2.16A17,17,0,0,1,6.11,9.4a1,1,0,0,1,.16-1.2L7.54,6.93a1,1,0,0,0,.22-1,13.85,13.85,0,0,1-.75-3A1,1,0,0,0,6,2Z"/></g></g></svg>