<?xml version="1.0"?>
<svg xmlns="http://www.w3.org/2000/svg" xmlns:xlink="http://www.w3.org/1999/xlink" xmlns:svgjs="http://svgjs.com/svgjs" version="1.1" width="512" height="512" x="0" y="0" viewBox="0 0 486.175 486.175" style="enable-background:new 0 0 512 512" xml:space="preserve"><g>
<g xmlns="http://www.w3.org/2000/svg">
	<g>
		<path d="M446.111,261.134l-84.48-3.8c-3.712-0.139-7.331,1.182-10.08,3.68c-1.502,1.377-2.677,3.071-3.44,4.96l-40.96-1.84    c12.024-21.329,18.797-45.214,19.76-69.68c0-1.76,0-3.56,0-5.32l28-8.48c2.473,4.299,7.041,6.964,12,7    c1.355-0.01,2.702-0.212,4-0.6l80.96-24.4c7.252-2.745,10.905-10.849,8.16-18.101c-2.469-6.522-9.351-10.244-16.16-8.739    l-80.92,24.4c-5.629,1.718-9.589,6.764-9.92,12.64l-26.56,8c-1.783-24.769-10.197-48.602-24.36-69l26.04-26.04    c2.192,1.382,4.729,2.117,7.32,2.12c3.706,0.032,7.273-1.406,9.92-4l59.92-59.88c5.523-5.38,5.639-14.218,0.259-19.741    c-0.085-0.088-0.172-0.174-0.259-0.259c-5.571-5.406-14.429-5.406-20,0l-59.6,59.96c-2.59,2.649-4.028,6.215-4,9.92    c0.004,2.05,0.469,4.073,1.36,5.92l-25.48,25.48c-3.2-4.107-6.587-7.987-10.16-11.64C233.958,38.06,145.509,36.309,89.875,89.781    c-10.599,10.187-19.524,21.983-26.445,34.953c-1.105,1.955-0.415,4.435,1.54,5.54c1.955,1.105,4.435,0.415,5.54-1.54    c23.094-43.448,68.438-70.444,117.64-70.04c35.364,0.296,69.101,14.899,93.52,40.48c3.553,3.812,6.891,7.818,10,12l-25.76,25.76    c-1.551,1.56-1.551,4.08,0,5.64c1.56,1.551,4.08,1.551,5.64,0l24.84-24.84c13.198,19.405,20.91,42.015,22.32,65.44l-42.64,12.92    c-2.209,0.32-3.74,2.371-3.42,4.58c0.32,2.209,2.371,3.74,4.58,3.42c0.385,0.056,0.775,0.056,1.16,0l40.56-12c0,0.92,0,1.8,0,2.72    c-1.012,24.519-8.12,48.398-20.68,69.48l-30.6-1.92c-2.209-0.099-4.081,1.611-4.18,3.82c-0.099,2.209,1.611,4.081,3.82,4.18    l26.16,1.16c-11.972,18.594-28.404,33.898-47.8,44.52c-0.451,0.258-0.919,0.485-1.4,0.68l-0.6,0.28    c-35.735,16.946-58.058,53.429-56.88,92.96c-1.6,32.72-28,60.88-62.24,66.96c-41.917,7.798-82.219-19.86-90.018-61.778    c-0.873-4.69-1.309-9.451-1.302-14.222v0.12c0-2.209-1.791-4-4-4c-2.209,0-4,1.791-4,4c-0.022,46.988,38.051,85.098,85.04,85.12    c0.107,0,0.214,0,0.32,0c5.15,0.002,10.29-0.453,15.36-1.36c38.08-6.76,67.04-38.04,68.84-74.76    c-1.163-36.457,19.377-70.141,52.32-85.8l0.52-0.24l1.72-0.84c21.955-12.086,40.323-29.763,53.24-51.24l44.68,2    c1.158,6.407,6.614,11.147,13.12,11.4l84.44,3.8h0.64c7.732,0.177,14.143-5.948,14.32-13.68    C459.967,267.722,453.843,261.311,446.111,261.134z M365.089,167.986c0.1-0.033,0.2-0.064,0.301-0.091l80.96-24.4    c0.553-0.19,1.135-0.285,1.72-0.28c3.313-0.045,6.036,2.604,6.081,5.918c0.037,2.698-1.731,5.088-4.321,5.842l-80.96,24.4    c-3.145,1.044-6.541-0.659-7.585-3.804S361.944,169.03,365.089,167.986z M331.391,69.694l59.8-59.8    c2.353-2.342,6.158-2.333,8.5,0.02s2.333,6.158-0.02,8.5l-60,59.76c-2.313,2.342-6.087,2.365-8.429,0.051    c-0.017-0.017-0.034-0.034-0.051-0.051c-1.141-1.114-1.777-2.646-1.76-4.24C329.484,72.314,330.191,70.785,331.391,69.694z     M445.031,281.134l-84.44-3.8c-1.528-0.113-2.956-0.799-4-1.92c-2.237-2.465-2.058-6.275,0.4-8.52c1.099-0.989,2.521-1.544,4-1.56    h0.28l84.48,3.8c1.533,0.093,2.969,0.782,4,1.92c1.076,1.174,1.638,2.729,1.56,4.32    C451.138,278.685,448.344,281.248,445.031,281.134z" fill="#d31212" data-original="#000000" style=""/>
	</g>
</g>
<g xmlns="http://www.w3.org/2000/svg">
	<g>
		<path d="M179.947,110.659c-42.128-0.13-76.385,33.916-76.515,76.044c-0.063,20.321,7.985,39.827,22.359,54.192    c0.755,0.749,1.777,1.166,2.84,1.16c1.063,0.006,2.085-0.411,2.84-1.16c1.633-1.487,1.752-4.017,0.265-5.651    c-0.021-0.023-0.043-0.047-0.065-0.069c-26.744-26.555-26.897-69.761-0.343-96.505c26.555-26.744,69.761-26.897,96.505-0.343    c13.007,12.915,20.271,30.519,20.157,48.848c0,2.209,1.791,4,4,4c2.209,0,4-1.791,4-4    C256.121,145.046,222.075,110.789,179.947,110.659z" fill="#d31212" data-original="#000000" style=""/>
	</g>
</g>
<g xmlns="http://www.w3.org/2000/svg">
	<g>
		<path d="M190.751,175.574c-11.859-6.627-25.215-10.111-38.8-10.12c-2.209,0-4,1.791-4,4c0,2.209,1.791,4,4,4    c12.21,0.005,24.217,3.13,34.88,9.08c0.598,0.339,1.273,0.518,1.96,0.52c1.443-0.003,2.773-0.782,3.48-2.04    C193.35,179.092,192.67,176.659,190.751,175.574z" fill="#d31212" data-original="#000000" style=""/>
	</g>
</g>
<g xmlns="http://www.w3.org/2000/svg">
	<g>
		<path d="M216.415,198.43c-2.513-3.479-5.303-6.749-8.345-9.776c-1.568-1.568-4.112-1.568-5.68,0s-1.568,4.112,0,5.68    c27.904,27.769,28.014,72.901,0.245,100.805c-2.726,2.74-5.671,5.253-8.805,7.515c-3.826,2.661-8.034,4.724-12.48,6.12l-24,8    c-11.92,3.915-21.102,13.517-24.48,25.6l-3.48,12.52c-0.95,3.818-2.725,7.382-5.2,10.44    c-10.703,12.444-29.468,13.855-41.912,3.151c-5.546-4.77-9.138-11.418-10.088-18.671c-1.165-8.975,1.944-17.977,8.4-24.32    c1.601-1.522,1.665-4.054,0.143-5.655c-0.034-0.036-0.068-0.071-0.103-0.105c-1.56-1.551-4.08-1.551-5.64,0    c-8.23,8.085-12.198,19.558-10.72,31c2.123,16.649,15.012,29.881,31.6,32.44c1.881,0.271,3.779,0.405,5.68,0.4    c11.055,0.092,21.584-4.711,28.76-13.12c3.211-3.967,5.53-8.578,6.8-13.52l3.48-12.52c2.673-9.474,9.91-16.981,19.28-20l24-8    c5.229-1.663,10.178-4.103,14.68-7.24C234.065,283.526,242.063,233.945,216.415,198.43z" fill="#d31212" data-original="#000000" style=""/>
	</g>
</g>
<g xmlns="http://www.w3.org/2000/svg">
</g>
<g xmlns="http://www.w3.org/2000/svg">
</g>
<g xmlns="http://www.w3.org/2000/svg">
</g>
<g xmlns="http://www.w3.org/2000/svg">
</g>
<g xmlns="http://www.w3.org/2000/svg">
</g>
<g xmlns="http://www.w3.org/2000/svg">
</g>
<g xmlns="http://www.w3.org/2000/svg">
</g>
<g xmlns="http://www.w3.org/2000/svg">
</g>
<g xmlns="http://www.w3.org/2000/svg">
</g>
<g xmlns="http://www.w3.org/2000/svg">
</g>
<g xmlns="http://www.w3.org/2000/svg">
</g>
<g xmlns="http://www.w3.org/2000/svg">
</g>
<g xmlns="http://www.w3.org/2000/svg">
</g>
<g xmlns="http://www.w3.org/2000/svg">
</g>
<g xmlns="http://www.w3.org/2000/svg">
</g>
</g></svg>
