<?xml version="1.0" encoding="UTF-8"?>
<svg width="32px" height="32px" viewBox="0 0 32 32" version="1.1" xmlns="http://www.w3.org/2000/svg" xmlns:xlink="http://www.w3.org/1999/xlink">
    <!-- Generator: Sketch 44.1 (41455) - http://www.bohemiancoding.com/sketch -->
    <title>Metarubrick / B2B / advertisment</title>
    <desc>Created with Sketch.</desc>
    <defs></defs>
    <g id="Page-1" stroke="none" stroke-width="1" fill="none" fill-rule="evenodd">
        <g id="New-meta-draft" transform="translate(-184.000000, -3784.000000)">
            <g id="Slice" transform="translate(84.000000, 84.000000)"></g>
            <g id="Icon" transform="translate(51.000000, 42.000000)" stroke="#8345FE" stroke-width="2">
                <g id="B2B" transform="translate(12.000000, 3693.000000)">
                    <g id="Advertisment" transform="translate(122.000000, 54.000000)">
                        <path d="M31,9 L26,9" id="Stroke-1"></path>
                        <path d="M29,4 L26,4" id="Stroke-3"></path>
                        <path d="M29,14 L26,14" id="Stroke-5"></path>
                        <path d="M23,0 L23,0 C21.677,0 20.362,0.225 19.114,0.666 L4,6 L4,12 L19.114,17.334 C20.362,17.775 21.677,18 23,18 L23,0 Z" id="Stroke-7"></path>
                        <path d="M0,5 L0,13" id="Stroke-9"></path>
                        <path d="M16,16 L16,18.5 C16,20.433 14.433,22 12.5,22 C10.567,22 9,20.433 9,18.5 L9,14" id="Stroke-11"></path>
                    </g>
                </g>
            </g>
        </g>
    </g>
</svg>