<?xml version="1.0"?>
<svg xmlns="http://www.w3.org/2000/svg" xmlns:xlink="http://www.w3.org/1999/xlink" xmlns:svgjs="http://svgjs.com/svgjs" version="1.1" width="512" height="512" x="0" y="0" viewBox="0 0 511.999 511.999" style="enable-background:new 0 0 512 512" xml:space="preserve" class=""><g><path xmlns="http://www.w3.org/2000/svg" d="m287.548 63.612c0-17.396-14.152-31.548-31.548-31.548s-31.548 14.152-31.548 31.548 14.152 31.548 31.548 31.548 31.548-14.152 31.548-31.548zm-31.549 16.548c-9.125 0-16.548-7.423-16.548-16.548s7.423-16.548 16.548-16.548 16.548 7.423 16.548 16.548-7.423 16.548-16.548 16.548z" fill="#1872d1" data-original="#000000" style=""/><path xmlns="http://www.w3.org/2000/svg" d="m463.837 359.217-16.032-120.242c-.405-3.037-2.616-5.522-5.586-6.277-2.971-.757-6.1.372-7.906 2.847l-66.801 91.517c-1.528 2.093-1.867 4.826-.897 7.228.969 2.403 3.11 4.135 5.662 4.582l15.407 2.696c-3.248 4.196-7.946 9.553-14.364 15.302-24.286 21.75-54.176 32.339-74.975 37.392-2.678.649-5.439.061-7.574-1.618-1.203-.946-3.222-3.066-3.222-6.632v-154.057c0-4.142-3.358-7.5-7.5-7.5s-7.5 3.358-7.5 7.5v154.057c0 7.236 3.263 13.952 8.952 18.424 5.776 4.54 13.206 6.144 20.386 4.401 79.208-19.243 104.089-67.281 105.109-69.316 1.063-2.12 1.061-4.617-.006-6.734-1.066-2.118-3.07-3.606-5.406-4.015l-14.852-2.599 48.676-66.686 11.723 87.924-15.527-7.486c-1.809-.871-3.892-.981-5.783-.306-1.891.676-3.432 2.083-4.277 3.904-27.704 59.671-61.356 76.195-93.9 92.174-24.731 12.143-50.227 24.664-71.644 55.05-21.417-30.387-46.913-42.907-71.644-55.05-32.543-15.979-66.196-32.503-93.9-92.174-.846-1.821-2.386-3.228-4.277-3.904-1.89-.675-3.974-.566-5.783.306l-15.527 7.486 11.723-87.924 48.676 66.686-14.852 2.599c-4.08.714-6.809 4.601-6.095 8.681s4.599 6.806 8.681 6.095l26.721-4.676c2.552-.447 4.693-2.179 5.662-4.582.97-2.402.63-5.135-.897-7.228l-66.801-91.517c-1.807-2.474-4.936-3.605-7.906-2.847-2.97.755-5.181 3.24-5.586 6.277l-16.033 120.242c-.365 2.733.8 5.446 3.033 7.064s5.174 1.88 7.658.683l21.294-10.267c29.377 58.969 65.547 76.728 97.596 92.464 26.469 12.997 51.471 25.273 71.824 59.195 1.355 2.26 3.797 3.642 6.431 3.642s5.076-1.382 6.431-3.642c20.354-33.922 45.355-46.198 71.824-59.195 32.049-15.736 68.219-33.496 97.596-92.464l21.294 10.267c2.486 1.198 5.426.935 7.658-.683 2.235-1.618 3.401-4.331 3.036-7.064z" fill="#1872d1" data-original="#000000" style=""/><path xmlns="http://www.w3.org/2000/svg" d="m167.822 191.354c7.686 0 15.125-2.886 20.885-8.016h35.228c.285 0 .516.231.516.516v202.158c0 3.566-2.019 5.686-3.222 6.632-2.136 1.679-4.896 2.269-7.574 1.618-29.199-7.094-53.768-19.098-73.023-35.679-3.14-2.704-7.875-2.349-10.577.789-2.703 3.139-2.35 7.875.789 10.577 21.072 18.145 47.742 31.229 79.271 38.889 1.901.462 3.818.688 5.719.688 5.278 0 10.419-1.751 14.667-5.09 5.689-4.473 8.952-11.188 8.952-18.424v-202.158c0-8.556-6.96-15.516-15.516-15.516h-38.306c-2.125 0-4.15.901-5.572 2.48-3.216 3.57-7.561 5.536-12.235 5.536-4.896 0-9.516-2.152-12.672-5.905-3.2-3.804-4.483-8.661-3.611-13.675 1.136-6.532 6.73-12.106 13.302-13.254 5.748-1.002 11.293.918 15.216 5.273 1.422 1.579 3.447 2.48 5.572 2.48h38.306c8.556 0 15.516-6.96 15.516-15.516v-16.698c0-5.553-2.976-10.61-7.96-13.528-14.868-8.704-24.104-24.766-24.104-41.918 0-13.138 5.159-25.447 14.526-34.66 9.365-9.211 21.761-14.182 34.915-13.946 25.417.421 46.838 21.42 47.752 46.809.644 17.892-8.577 34.641-24.064 43.711-4.989 2.922-7.968 7.986-7.968 13.545v16.686c0 8.556 6.96 15.516 15.516 15.516h38.306c2.125 0 4.15-.901 5.572-2.48 3.216-3.57 7.561-5.536 12.235-5.536 4.896 0 9.516 2.152 12.672 5.905 3.2 3.804 4.483 8.661 3.611 13.675-1.136 6.532-6.73 12.106-13.302 13.254-5.745 1.005-11.292-.918-15.216-5.273-1.422-1.579-3.447-2.48-5.572-2.48h-38.306c-8.556 0-15.516 6.96-15.516 15.516v16.032c0 4.142 3.358 7.5 7.5 7.5s7.5-3.358 7.5-7.5v-16.032c0-.285.231-.516.516-.516h35.224c7.183 6.412 16.83 9.208 26.451 7.53 12.796-2.235 23.282-12.705 25.5-25.461 1.619-9.314-.9-18.754-6.911-25.9-6.013-7.149-14.816-11.249-24.151-11.249-7.686 0-15.125 2.886-20.885 8.016h-35.228c-.285 0-.516-.231-.516-.516v-16.686c0-.113.174-.383.549-.602 20.256-11.863 32.316-33.778 31.474-57.193-1.196-33.231-29.23-60.716-62.493-61.268-17.224-.26-33.427 6.197-45.682 18.25-12.258 12.056-19.008 28.164-19.008 45.354 0 22.457 12.08 43.479 31.526 54.864.367.215.538.475.538.583v16.698c0 .285-.231.516-.516.516h-35.224c-7.184-6.412-16.832-9.209-26.45-7.53-12.797 2.235-23.283 12.705-25.5 25.461-1.619 9.314.9 18.754 6.911 25.9 6.009 7.148 14.812 11.248 24.147 11.248z" fill="#1872d1" data-original="#000000" style=""/></g></svg>
