<?xml version="1.0"?>
<svg xmlns="http://www.w3.org/2000/svg" xmlns:xlink="http://www.w3.org/1999/xlink" xmlns:svgjs="http://svgjs.com/svgjs" version="1.1" width="512" height="512" x="0" y="0" viewBox="0 0 511 511.99775" style="enable-background:new 0 0 512 512" xml:space="preserve"><g><path xmlns="http://www.w3.org/2000/svg" d="m116.589844 130.285156c-2.496094 0-4.992188-.933594-6.929688-2.808594l-.03125-.027343c-3.96875-3.839844-4.070312-10.171875-.230468-14.140625 3.839843-3.96875 10.171874-4.070313 14.140624-.230469s4.085938 10.183594.246094 14.152344c-1.964844 2.03125-4.578125 3.054687-7.195312 3.054687zm0 0" fill="#2a6409" data-original="#000000" style=""/><path xmlns="http://www.w3.org/2000/svg" d="m477.734375 241.078125c-.222656-11.636719-4.953125-22.496094-13.316406-30.585937l-35.566407-36.167969v-85.714844c0-22.148437-18.019531-40.167969-40.191406-40.167969-22.148437 0-40.167968 18.019532-40.167968 40.167969v4.003906l-78.820313-80.148437c-.0625-.0625-.128906-.132813-.199219-.195313-17.015625-16.359375-43.683594-16.359375-60.699218 0-.066407.0625-.132813.125-.195313.191407l-65.019531 66c-3.875 3.933593-3.828125 10.265624.105468 14.140624 3.933594 3.875 10.269532 3.824219 14.140626-.105468l64.917968-65.894532c9.21875-8.773437 23.578125-8.773437 32.800782-.003906l194.730468 198.011719c.066406.066406.132813.132813.203125.195313 4.574219 4.402343 7.164063 10.320312 7.285157 16.664062.125 6.34375-2.230469 12.359375-6.632813 16.933594-4.527344 4.699218-10.617187 7.289062-17.152344 7.289062-6.128906 0-11.941406-2.320312-16.382812-6.539062l-171.296875-175.484375c-1.882813-1.925781-4.460938-3.011719-7.15625-3.011719-2.691406 0-5.273438 1.085938-7.152344 3.011719l-171.300781 175.484375c-9.457031 8.984375-24.46875 8.660156-33.527344-.753906-4.40625-4.574219-6.761719-10.585938-6.636719-16.933594.121094-6.34375 2.710938-12.261719 7.285156-16.660156.066407-.0625.128907-.125.191407-.1875l62.617187-63.488282c3.875-3.933594 3.832032-10.261718-.097656-14.140625-3.933594-3.878906-10.265625-3.835937-14.144531.097657l-62.527344 63.402343c-8.367187 8.089844-13.097656 18.949219-13.320313 30.589844-.226562 11.6875 4.113282 22.765625 12.222657 31.191406 11.113281 11.539063 27.085937 15.65625 41.65625 12.226563v186.453125c0 22.632812 18.425781 41.046875 41.070312 41.046875h287.328125c22.644532 0 41.070313-18.414063 41.070313-41.046875v-186.429688c3.273437.769531 6.660156 1.167969 10.101562 1.167969 12.019531 0 23.226563-4.765625 31.558594-13.417969 8.109375-8.425781 12.449219-19.503906 12.21875-31.191406zm-109.246094-152.46875c0-11.121094 9.050781-20.171875 20.195313-20.171875 11.121094 0 20.171875 9.050781 20.171875 20.171875v65.382813l-40.367188-41.046876zm35.371094 382.339844c0 11.609375-9.453125 21.050781-21.074219 21.050781h-287.328125c-11.617187 0-21.070312-9.441406-21.070312-21.050781v-197.242188c.082031-.082031.164062-.160156.25-.238281.074219-.070312.148437-.148438.222656-.222656l164.261719-168.277344 164.261718 168.277344c.074219.074218.152344.148437.226563.222656.082031.082031.167969.160156.25.238281zm0 0" fill="#2a6409" data-original="#000000" style=""/><path xmlns="http://www.w3.org/2000/svg" d="m328.273438 290.265625c-4.6875-.925781-9.398438-.742187-13.933594.496094.742187-3.9375 1.136718-8.050781 1.136718-12.273438 0-29.261719-18.890624-53.066406-42.105468-53.066406-14.097656 0-26.601563 8.773437-34.25 22.210937-7.648438-13.4375-20.148438-22.210937-34.242188-22.210937-23.21875 0-42.105468 23.808594-42.105468 53.066406 0 4.222657.394531 8.335938 1.136718 12.277344-4.539062-1.238281-9.253906-1.425781-13.945312-.5-9.875 1.941406-17.980469 8.480469-22.816406 18.414063-4.378907 8.996093-5.59375 20.03125-3.417969 31.066406 3.871093 19.667968 17.34375 33.808594 32.804687 36.085937-3.511718 7.609375-5.429687 16.007813-5.429687 24.71875 0 32.570313 26.519531 59.070313 59.113281 59.070313 10.238281 0 20.105469-2.59375 28.902344-7.558594 8.792968 4.960938 18.660156 7.558594 28.902344 7.558594 32.597656 0 59.117187-26.5 59.117187-59.078125-.003906-8.703125-1.925781-17.105469-5.441406-24.710938 15.464843-2.277343 28.941406-16.417969 32.820312-36.089843 2.171875-11.03125.953125-22.0625-3.421875-31.058594-4.839844-9.9375-12.945312-16.480469-22.824218-18.417969zm-54.902344-44.84375c11.980468 0 22.105468 15.140625 22.105468 33.066406s-10.125 33.066407-22.105468 33.066407c-11.992188 0-22.121094-15.140626-22.121094-33.066407s10.128906-33.066406 22.121094-33.066406zm-68.492188 0c11.984375 0 22.113282 15.140625 22.113282 33.066406s-10.128907 33.066407-22.113282 33.066407-22.105468-15.140626-22.105468-33.066407c-.003907-17.925781 10.121093-33.066406 22.105468-33.066406zm-61.53125 90.457031c-1.335937-6.789062-.707031-13.339844 1.78125-18.445312 1.433594-2.945313 4.101563-6.644532 8.699219-7.546875.679687-.132813 1.347656-.195313 1.996094-.195313 3.71875 0 6.835937 2.023438 8.917969 3.882813 4.230468 3.78125 7.300781 9.609375 8.640624 16.40625 1.339844 6.785156.707032 13.335937-1.777343 18.4375-1.429688 2.941406-4.101563 6.640625-8.703125 7.546875-8.273438 1.625-17.050782-7.378906-19.554688-20.085938zm124.675782 103.742188c-8.328126 0-16.28125-2.59375-22.996094-7.507813-1.757813-1.285156-3.832032-1.929687-5.902344-1.929687s-4.144531.640625-5.898438 1.925781c-6.730468 4.914063-14.683593 7.511719-23.007812 7.511719-21.566406 0-39.117188-17.527344-39.117188-39.074219 0-15.53125 9.242188-29.597656 23.542969-35.835937 3.113281-1.359376 5.328125-4.210938 5.871094-7.566407 3.03125-18.707031 19.628906-32.816406 38.609375-32.816406 18.972656 0 35.5625 14.109375 38.597656 32.816406.542969 3.355469 2.753906 6.207031 5.871094 7.566407 14.296875 6.238281 23.542969 20.304687 23.550781 35.835937 0 21.546875-17.550781 39.074219-39.121093 39.074219zm66.875-103.742188c-2.507813 12.703125-11.285157 21.726563-19.5625 20.082032-4.601563-.902344-7.273438-4.601563-8.703126-7.542969-2.480468-5.101563-3.109374-11.648438-1.769531-18.441407 1.335938-6.792968 4.40625-12.621093 8.636719-16.402343 2.078125-1.859375 5.195312-3.882813 8.917969-3.882813.644531 0 1.3125.0625 1.996093.195313.003907 0 .007813.003906.007813.003906 4.589844.898437 7.261719 4.597656 8.691406 7.542969 2.488281 5.109375 3.121094 11.660156 1.785157 18.445312zm0 0" fill="#2a6409" data-original="#000000" style=""/></g></svg>
