<?xml version="1.0"?>
<svg xmlns="http://www.w3.org/2000/svg" xmlns:xlink="http://www.w3.org/1999/xlink" xmlns:svgjs="http://svgjs.com/svgjs" version="1.1" width="512" height="512" x="0" y="0" viewBox="0 0 48 48" style="enable-background:new 0 0 512 512" xml:space="preserve"><g><g xmlns="http://www.w3.org/2000/svg"><path d="m44 2.5h-40c-.83 0-1.5.67-1.5 1.5v27c0 .83.67 1.5 1.5 1.5h18.48l-.05 4.54-12.06 5.6c-.75.35-1.08 1.24-.73 1.99.25.55.8.87 1.36.87.21 0 .43-.04.63-.14l12.29-5.71 12.45 5.71c.2.09.42.14.62.14.57 0 1.11-.32 1.36-.88.35-.75.02-1.64-.74-1.99l-12.2-5.59.05-4.54h18.54c.83 0 1.5-.67 1.5-1.5v-27c0-.83-.67-1.5-1.5-1.5zm-1.5 27h-18.48c-.01 0-.01 0-.02 0h-18.5v-24h37z" fill="#0c742b" data-original="#000000" style=""/><path d="m9 16.5h6c.83 0 1.5-.67 1.5-1.5v-6c0-.83-.67-1.5-1.5-1.5h-6c-.83 0-1.5.67-1.5 1.5v6c0 .83.67 1.5 1.5 1.5zm1.5-6h3v3h-3z" fill="#0c742b" data-original="#000000" style=""/><path d="m27 16.5h6c.83 0 1.5-.67 1.5-1.5v-6c0-.83-.67-1.5-1.5-1.5h-6c-.83 0-1.5.67-1.5 1.5v6c0 .83.67 1.5 1.5 1.5zm1.5-6h3v3h-3z" fill="#0c742b" data-original="#000000" style=""/><path d="m31.5 19v6c0 .83.67 1.5 1.5 1.5h6c.83 0 1.5-.67 1.5-1.5v-6c0-.83-.67-1.5-1.5-1.5h-6c-.83 0-1.5.67-1.5 1.5zm3 1.5h3v3h-3z" fill="#0c742b" data-original="#000000" style=""/><path d="m8.5 20v7c0 .83.67 1.5 1.5 1.5h15c.83 0 1.5-.67 1.5-1.5v-7c0-.83-.67-1.5-1.5-1.5h-15c-.83 0-1.5.67-1.5 1.5zm3 1.5h12v4h-12z" fill="#0c742b" data-original="#000000" style=""/></g></g></svg>
