<?xml version="1.0"?>
<svg xmlns="http://www.w3.org/2000/svg" xmlns:xlink="http://www.w3.org/1999/xlink" xmlns:svgjs="http://svgjs.com/svgjs" version="1.1" width="512" height="512" x="0" y="0" viewBox="0 0 511.99959 511" style="enable-background:new 0 0 512 512" xml:space="preserve" class=""><g><path xmlns="http://www.w3.org/2000/svg" d="m511.742188 151.738281-6.863282-25.609375-5.445312-20.34375c-.019532-.066406-.039063-.132812-.058594-.199218l-3.972656-14.832032c-1.074219-4-5.1875-6.378906-9.1875-5.300781-4 1.070313-6.375 5.183594-5.304688 9.183594l2.085938 7.789062-23.738282 6.359375-16.976562-63.359375c-1.074219-4-5.1875-6.378906-9.1875-5.304687-4 1.074218-6.375 5.1875-5.304688 9.1875l16.980469 63.359375-3.746093 1.003906c-4 1.074219-6.375 5.183594-5.300782 9.1875 1.070313 4 5.183594 6.378906 9.183594 5.300781l10.738281-2.875c.085938-.019531.167969-.042968.253907-.0625.078124-.023437.15625-.042968.230468-.070312l30.75-8.238282 4.402344 16.429688-30.785156 8.25c-.066406.015625-.136719.03125-.203125.050781-.0625.015625-.128907.035157-.195313.054688l-57.441406 15.390625c-.003906 0-.007812.003906-.011719.003906-.003906 0-.003906 0-.007812 0l-172.8125 46.304688c-.042969.011718-.085938.023437-.125.035156-.039063.007812-.074219.019531-.113281.03125l-37.128907 9.945312-4.402343-16.429687 152.257812-40.796875c.09375-.023438.191406-.046875.285156-.070313.09375-.023437.183594-.050781.273438-.082031l57.175781-15.316406c.066406-.019532.136719-.035156.203125-.050782.066406-.019531.132812-.039062.195312-.058593l17.484376-4.683594c4-1.070313 6.375-5.1875 5.304687-9.1875-1.074219-4-5.1875-6.375-9.1875-5.300781l-10.4375 2.796875-20.40625-76.144531c-1.074219-4-5.1875-6.375-9.1875-5.304688-4 1.074219-6.375 5.1875-5.300781 9.1875l20.40625 76.140625-43.160156 11.566406-24.308594-90.710937c-1.070313-4-5.183594-6.378906-9.183594-5.300782-4.003906 1.070313-6.375 5.183594-5.304688 9.183594l24.308594 90.710938-43.167968 11.566406-22.5625-84.199219c-1.070313-4-5.183594-6.375-9.183594-5.300781-4.003906 1.070312-6.375 5.183594-5.304688 9.183594l22.558594 84.199218-43.160156 11.566407-22.558594-84.199219c-1.074219-4-5.1875-6.375-9.1875-5.300781-4 1.070312-6.375 5.183593-5.304688 9.183593l22.558594 84.199219-30.429687 8.152344c-3.152344-6.109375-9.3125-10.265625-16.378907-10.730469l-6.695312-.441406c-4.128906-.28125-7.703125 2.855469-7.976562 6.992188-.273438 4.132812 2.855468 7.703124 6.992187 7.976562l6.695313.441406c2.097656.136719 3.871093 1.59375 4.414062 3.625l.800781 2.980469c.011719.054687.027344.109375.039063.164063.015625.058593.03125.113281.050781.171874l9.082031 33.902344c.546875 2.03125-.265625 4.179688-2.011718 5.347656l-38.542969 25.777344c-.078125.050782-.15625.105469-.230469.160156l-23.371094 15.628907c-.113281.070312-.226562.144531-.335937.222656l-.769531.515625c-1.882813 1.257812-4.386719 1.222656-6.230469-.089844l-11-7.824218c-.007813-.003907-.015625-.011719-.023438-.019532l-9.867187-7.015625c-.203125-.144531-.351563-.355469-.417969-.597656l-2.628906-9.816406c-.007813-.027344-.015625-.054688-.019531-.082031-.007813-.03125-.015626-.058594-.027344-.085938l-10.914063-40.746094c-.0625-.242187-.042969-.5.0625-.726562l10.664063-23.3125c.941406-2.058594 3.089844-3.332032 5.351562-3.191406l.96875.0625c.097656.007812.191406.015624.289063.019531l27.964843 1.84375c.207032.023437.414063.039062.621094.042969l9.417969.621093c4.128906.273438 7.707031-2.855469 7.980469-6.988281.269531-4.132812-2.859375-7.707031-6.992188-7.976562l-.621094-.042969 5.308594-19.792969c1.898438-7.140625-2.359375-14.503906-9.5-16.425781l-.523437-.140625 9.496093-35.4375 21.601563-13.394532c1.621094-1.007812 2.796875-2.59375 3.292969-4.433593l12.160156-45.386719c1.863281-6.949219.90625-14.207031-2.691406-20.4375s-9.402344-10.6875-16.351563-12.546875c-14.34375-3.847656-29.140625 4.699219-32.984375 19.042969l-12.160156 45.386718c-.496094 1.84375-.269531 3.804688.632812 5.484376l12.011719 22.402343-9.5 35.445313-.519531-.140625c-3.460938-.9375-7.078125-.460938-10.183594 1.332031-3.101562 1.789062-5.320312 4.679688-6.253906 8.148438l-7.683594 28.675781c-6.390625 1.246093-11.992187 5.511719-14.773437 11.585937l-10.664063 23.3125c-1.554687 3.394532-1.875 7.25-.910156 10.851563l.710938 2.652343-55.027344 14.75c-1.921875.515626-3.558594 1.769532-4.554688 3.496094-.9921872 1.722656-1.261718 3.769532-.75 5.6875l8.292969 30.921875c.898437 3.351563 3.925781 5.558594 7.238281 5.558594.640625 0 1.292969-.082031 1.945313-.257813l55.023437-14.738281.710938 2.65625c.964844 3.605469 3.171875 6.78125 6.214844 8.941407l6.730468 4.785156v219.351562c0 4.144532 3.355469 7.5 7.5 7.5 4.140625 0 7.496094-3.355468 7.496094-7.5v-208.714844c3.34375 2.132813 7.191406 3.203126 11.039062 3.203126 2.269532 0 4.539063-.371094 6.707032-1.117188l21.003906 20.996094c2.613281 2.613281 6.046875 3.917968 9.480469 3.917968 3.433593 0 6.871093-1.304687 9.484375-3.921874l.386718-.386719 25.945313 25.941406.800781 25.410156c.058594 1.90625.84375 3.71875 2.191406 5.066407l33.226563 33.222656c5.085937 5.085937 11.851563 7.890625 19.042969 7.890625 7.195312 0 13.957031-2.804688 19.042968-7.890625 5.085938-5.085938 7.886719-11.847656 7.886719-19.042969 0-7.191406-2.800781-13.957031-7.886719-19.042969l-33.226562-33.226562c-1.347656-1.347656-3.160156-2.132813-5.066406-2.191406l-25.40625-.800782-25.941406-25.945312.382812-.382813c2.535156-2.535156 3.929688-5.902343 3.929688-9.488281s-1.394532-6.953125-3.929688-9.488281l-14.480469-14.480469 31.0625-20.773438c5.886719-3.9375 9.148438-10.621093 8.820313-17.492187l30.433594-8.152344 22.558593 84.210938c.898438 3.351562 3.925781 5.5625 7.238281 5.5625.644532 0 1.296876-.082031 1.945313-.257813 4-1.070312 6.375-5.183594 5.304687-9.183594l-22.558593-84.214843 43.160156-11.566407 22.558594 84.210938c.898437 3.351562 3.929687 5.5625 7.242187 5.5625.640625 0 1.292969-.082031 1.945313-.257812 4-1.070313 6.375-5.183594 5.304687-9.183594l-22.5625-84.210938 43.160156-11.566406 24.3125 90.71875c.898438 3.351562 3.925782 5.5625 7.238282 5.5625.644531 0 1.296875-.085938 1.945312-.257812 4.003906-1.074219 6.375-5.1875 5.304688-9.1875l-24.308594-90.71875 43.160156-11.5625 20.410156 76.144531c.898438 3.351562 3.925782 5.5625 7.238282 5.5625.640625 0 1.296875-.085938 1.945312-.257813 4-1.074218 6.375-5.1875 5.304688-9.1875l-20.410156-76.144531 43.164062-11.566406 16.976562 63.363281c.898438 3.351562 3.925782 5.5625 7.238282 5.5625.644531 0 1.296875-.085938 1.949218-.257812 4-1.074219 6.375-5.1875 5.300782-9.1875l-16.976563-63.363282 23.742188-6.359375 2.085937 7.789063c.898438 3.351562 3.925782 5.5625 7.238282 5.5625.644531 0 1.296874-.082032 1.949218-.257813 4-1.074219 6.371094-5.1875 5.300782-9.1875zm-377.375-127.390625c1.703124-6.351562 8.257812-10.136718 14.613281-8.4375 3.078125.824219 5.652343 2.800782 7.246093 5.558594 1.589844 2.761719 2.015626 5.976562 1.1875 9.054688l-11.390624 42.519531-14.8125 9.1875-8.238282-15.363281zm-26.386719 119.59375 12.492187 3.339844-5.664062 21.128906-13.152344-.867187zm-86.890625 115.390625-4.40625-16.433593 47.78125-12.808594 4.40625 16.441406zm196.9375 82.433594 31.125 31.125c2.253906 2.253906 3.496094 5.25 3.496094 8.4375s-1.242188 6.183594-3.496094 8.4375c-2.25 2.253906-5.25 3.496094-8.4375 3.496094-3.183594 0-6.179688-1.242188-8.433594-3.496094l-31.125-31.125-.550781-17.421875zm-59.25-51.515625-4.496094 4.496094c-.023438.023437-.050781.046875-.074219.074218-.023437.023438-.050781.050782-.074219.078126l-4.496093 4.492187-17.285157-17.277344 10.957032-7.328125zm0 0" fill="#0e6e38" data-original="#000000" style=""/></g></svg>
