<?xml version="1.0" encoding="UTF-8"?>
<svg width="32px" height="32px" viewBox="0 0 32 32" version="1.1" xmlns="http://www.w3.org/2000/svg" xmlns:xlink="http://www.w3.org/1999/xlink">
    <!-- Generator: Sketch 43.2 (39069) - http://www.bohemiancoding.com/sketch -->
    <title>Metarubrick / Tourism / Appartments</title>
    <desc>Created with Sketch.</desc>
    <defs></defs>
    <g id="Page-1" stroke="none" stroke-width="1" fill="none" fill-rule="evenodd">
        <g id="New-meta-draft" transform="translate(-384.000000, -2184.000000)">
            <g id="Slice" transform="translate(84.000000, 84.000000)"></g>
            <g id="Icon" transform="translate(51.000000, 42.000000)" stroke="#FF8D00" stroke-width="2">
                <g id="Tourism" transform="translate(17.000000, 2096.000000)">
                    <g id="Appartments" transform="translate(321.000000, 46.000000)">
                        <path d="M0,29 L23,29" id="Stroke-1"></path>
                        <path d="M3,26 L3,6 C3,4.896 3.896,4 5,4 L18,4 C19.104,4 20,4.896 20,6 L20,26" id="Stroke-3"></path>
                        <path d="M15,29 L15,23" id="Stroke-5"></path>
                        <path d="M10,24 L7,24" id="Stroke-7"></path>
                        <path d="M10,19 L7,19" id="Stroke-9"></path>
                        <path d="M16,19 L13,19" id="Stroke-11"></path>
                        <path d="M10,14 L7,14" id="Stroke-13"></path>
                        <path d="M16,14 L13,14" id="Stroke-15"></path>
                        <path d="M10,9 L7,9" id="Stroke-17"></path>
                        <path d="M16,9 L13,9" id="Stroke-19"></path>
                        <path d="M8,4 L8,0" id="Stroke-21"></path>
                    </g>
                </g>
            </g>
        </g>
    </g>
</svg>