<?xml version="1.0"?>
<svg xmlns="http://www.w3.org/2000/svg" xmlns:xlink="http://www.w3.org/1999/xlink" xmlns:svgjs="http://svgjs.com/svgjs" version="1.1" width="512" height="512" x="0" y="0" viewBox="0 0 512 512" style="enable-background:new 0 0 512 512" xml:space="preserve" class=""><g><g xmlns="http://www.w3.org/2000/svg"><circle cx="226" cy="361" r="10" fill="#3a3dd3" data-original="#000000" style=""/><circle cx="106" cy="331" r="10" fill="#3a3dd3" data-original="#000000" style=""/><path d="m376 291c-24.95 0-47.737 13.334-60.186 34.238-3.493-3.073-6.706-6.221-9.859-9.31-12.512-12.255-25.448-24.928-49.955-24.928-54.415 0-96.536 61.795-98.302 64.425-2.264 3.372-2.264 7.778 0 11.15 1.766 2.63 43.887 64.425 98.302 64.425 24.507 0 37.443-12.673 49.955-24.929 3.153-3.089 6.366-6.236 9.859-9.31 12.449 20.905 35.236 34.239 60.186 34.239 5.522 0 10-4.478 10-10v-30c0-10.407-2.318-20.67-6.744-30 4.426-9.33 6.744-19.593 6.744-30v-30c0-5.522-4.478-10-10-10zm-10 40c0 8.792-2.312 17.434-6.686 24.991-1.793 3.099-1.793 6.919 0 10.018 4.374 7.557 6.686 16.199 6.686 24.991v18.987c-16.897-3.462-31.173-15.536-37.11-32.194-1.047-2.936-3.402-5.216-6.37-6.166-2.972-.951-6.21-.463-8.768 1.319-8.88 6.188-15.74 12.908-21.793 18.838-11.813 11.571-19.616 19.216-35.959 19.216-35.324 0-66.661-35.925-77.587-50.01 10.905-14.097 42.152-49.99 77.587-49.99 16.343 0 24.146 7.645 35.959 19.216 6.053 5.93 12.913 12.649 21.793 18.838 2.557 1.782 5.795 2.269 8.768 1.319 2.968-.95 5.323-3.23 6.37-6.166 5.938-16.658 20.213-28.732 37.11-32.194z" fill="#3a3dd3" data-original="#000000" style=""/><path d="m206 241c0-22.056-17.944-40-40-40s-40 17.944-40 40 17.944 40 40 40 40-17.944 40-40zm-60 0c0-11.028 8.972-20 20-20s20 8.972 20 20-8.972 20-20 20-20-8.972-20-20z" fill="#3a3dd3" data-original="#000000" style=""/><circle cx="256.001" cy="182" r="10" fill="#3a3dd3" data-original="#000000" style=""/><path d="m469.702 153.242c-17.406-24.778-20.096-55.501-7.017-80.181l11.101-20.95c1.998-3.77 1.384-8.391-1.528-11.508-2.912-3.118-7.479-4.046-11.378-2.309-13.894 5.753-17.153 8.815-24.13 8.815-6.922 0-12.85-3.171-16.689-8.927-9.678-14.515-25.869-23.182-43.311-23.182-17.454 0-33.646 8.669-43.31 23.182-3.841 5.758-9.769 8.929-16.69 8.929s-12.85-3.171-16.689-8.927c-9.678-14.517-25.869-23.184-43.311-23.184-17.455 0-33.647 8.669-43.309 23.182-3.841 5.758-9.769 8.929-16.691 8.929s-12.85-3.171-16.689-8.927c-9.678-14.517-25.869-23.184-43.311-23.184-17.455 0-33.647 8.669-43.309 23.182-3.841 5.757-9.769 8.928-16.691 8.928-7.983 0-11.37-3.91-26.435-11.187-3.882-2.023-8.629-1.29-11.717 1.816-3.087 3.105-3.794 7.857-1.746 11.728l12.481 23.583c13.069 24.676 10.373 55.403-7.036 80.19-26.904 38.299-42.297 83.961-42.297 132.76 0 43.271 12.316 85.699 35.616 122.695 22.51 35.776 54.653 65.646 92.982 86.395.828.358 2.787 1.91 6.072 1.91h242.66c3.294 0 5.25-1.558 6.101-1.926 38.301-20.733 70.444-50.603 92.951-86.375 23.302-37.001 35.618-79.429 35.618-122.699 0-46.456-14.235-92.751-42.298-132.758zm-10.246 244.803c-20.513 32.603-49.778 59.891-84.653 78.955h-237.606c-34.89-19.078-64.145-46.36-84.655-78.959-21.289-33.805-32.542-72.548-32.542-112.041 0-31.128 6.78-61.178 20.118-89.375l11.262-7.195c.445-.284 45.179-28.43 99.62-28.43 19.708 0 40.313 3.652 61.244 10.855 5.219 1.796 10.913-.979 12.709-6.202 1.797-5.222-.979-10.912-6.202-12.71-23.029-7.924-45.824-11.943-67.751-11.943-37.676 0-70.624 11.854-90.508 21.045 19.538-29.666 22.491-65.852 7.804-95.828 2.767.591 5.604.894 8.455.894 13.622 0 25.77-6.499 33.333-17.838 5.95-8.937 15.918-14.273 26.666-14.273 10.74 0 20.709 5.337 26.671 14.279 7.559 11.332 19.707 17.831 33.329 17.831s25.77-6.499 33.333-17.838c5.951-8.936 15.92-14.272 26.667-14.272 10.739 0 20.71 5.337 26.671 14.279 7.56 11.332 19.707 17.831 33.329 17.831s25.77-6.499 33.333-17.838c5.951-8.936 15.92-14.272 26.667-14.272 10.739 0 20.71 5.337 26.671 14.279 7.56 11.332 19.707 17.831 33.329 17.831 2.282 0 4.572-.197 6.828-.584-14.978 30.837-11.346 68.172 9.755 98.206 2.008 2.863 3.948 5.781 5.813 8.73-8.154 4.817-49.227 27.538-98.146 27.538-19.462 0-39.811-3.564-60.481-10.595-5.231-1.774-10.908 1.02-12.688 6.248-1.778 5.229 1.02 10.909 6.248 12.688 22.748 7.736 45.264 11.659 66.921 11.659 53.504 0 97.473-23.905 108.033-30.141 15.036 29.52 22.967 62.19 22.967 95.141 0 39.493-11.253 78.236-32.544 112.045z" fill="#3a3dd3" data-original="#000000" style=""/></g></g></svg>
