<?xml version="1.0"?>
<svg xmlns="http://www.w3.org/2000/svg" xmlns:xlink="http://www.w3.org/1999/xlink" xmlns:svgjs="http://svgjs.com/svgjs" version="1.1" width="512" height="512" x="0" y="0" viewBox="0 0 453.432 453.432" style="enable-background:new 0 0 512 512" xml:space="preserve"><g>
<path xmlns="http://www.w3.org/2000/svg" d="M333.778,301.314c26.085-2.662,45.756-24.475,45.756-50.741c0-5.523,4.478-10,10-10s10,4.477,10,10  c0,36.563-27.396,66.931-63.727,70.637c-0.345,0.035-0.688,0.053-1.026,0.053c-5.067,0-9.411-3.836-9.937-8.986  C324.284,306.783,328.283,301.875,333.778,301.314z M30.659,260.285c5.522,0,10-4.477,10-10c0-40.749,29.045-75.195,69.063-81.905  c5.447-0.914,9.122-6.069,8.209-11.516s-6.079-9.12-11.516-8.208c-23.722,3.978-45.433,16.31-61.135,34.726  c-15.877,18.621-24.621,42.381-24.621,66.904C20.659,255.808,25.136,260.285,30.659,260.285z M272.053,282.229  c1.906,4.625,6.371,7.614,11.374,7.614h40.902c21.722,0,39.395-17.672,39.395-39.394c0-21.722-17.673-39.395-39.395-39.395h-20.613  c-5.522,0-10,4.477-10,10s4.478,10,10,10h20.613c10.694,0,19.395,8.7,19.395,19.395c0,10.694-8.7,19.394-19.395,19.394h-35.752  L216.71,95.693c-2.106-5.104-7.955-7.537-13.059-5.429c-5.105,2.106-7.536,7.953-5.43,13.058L272.053,282.229z M149.329,334.135  c-12.914,13.362-41.894,13.015-59.632-0.717c-11.942-9.241-27.927-14.764-43.853-15.155c-17.453-0.421-32.731,5.209-43.035,15.873  c-3.838,3.972-3.729,10.302,0.242,14.14c3.972,3.837,10.303,3.729,14.141-0.243c14.376-14.879,43.674-11.635,60.264,1.201  c11.891,9.206,28.594,14.693,45.023,14.693c15.381,0,30.522-4.813,41.23-15.893c3.838-3.971,3.73-10.302-0.241-14.14  C159.497,330.056,153.167,330.163,149.329,334.135z M340.995,138.073h-69.778c-5.522,0-10,4.477-10,10s4.478,10,10,10h69.778  c50.971,0,92.438,41.467,92.438,92.438s-41.467,92.438-92.438,92.438h-78.313c-16.569,0-31.478-9.132-39.007-23.86L135.568,96.049  c-0.214-0.579-0.479-1.132-0.79-1.655c-0.767-1.291-1.795-2.361-2.988-3.167c-1.181-0.8-2.54-1.355-4.007-1.591  c-0.601-0.098-1.207-0.141-1.831-0.127H59.525c-5.522,0-10,4.477-10,10s4.478,10,10,10h59.855l85.861,217.354  c0.107,0.271,0.226,0.536,0.355,0.796c10.877,21.768,32.751,35.291,57.085,35.291h78.313c61.998,0,112.438-50.439,112.438-112.438  S402.993,138.073,340.995,138.073z M149.328,291.497c-12.912,13.36-41.891,13.014-59.631-0.718  c-11.942-9.241-27.926-14.764-43.854-15.154c-17.447-0.432-32.73,5.21-43.034,15.872c-3.838,3.972-3.729,10.302,0.242,14.14  c3.972,3.837,10.303,3.729,14.141-0.242c14.374-14.877,43.675-11.636,60.264,1.2c11.893,9.205,28.597,14.693,45.026,14.692  c15.381-0.001,30.521-4.813,41.229-15.893c3.838-3.972,3.729-10.302-0.242-14.14C159.496,287.418,153.165,287.526,149.328,291.497z   M98.068,250.448c0,5.523,4.478,10,10,10s10-4.477,10-10c0-10.694,8.7-19.395,19.394-19.395c5.522,0,10-4.477,10-10s-4.478-10-10-10  C115.74,211.054,98.068,228.726,98.068,250.448z" fill="#1b39db" data-original="#000000" style=""/>
<g xmlns="http://www.w3.org/2000/svg">
</g>
<g xmlns="http://www.w3.org/2000/svg">
</g>
<g xmlns="http://www.w3.org/2000/svg">
</g>
<g xmlns="http://www.w3.org/2000/svg">
</g>
<g xmlns="http://www.w3.org/2000/svg">
</g>
<g xmlns="http://www.w3.org/2000/svg">
</g>
<g xmlns="http://www.w3.org/2000/svg">
</g>
<g xmlns="http://www.w3.org/2000/svg">
</g>
<g xmlns="http://www.w3.org/2000/svg">
</g>
<g xmlns="http://www.w3.org/2000/svg">
</g>
<g xmlns="http://www.w3.org/2000/svg">
</g>
<g xmlns="http://www.w3.org/2000/svg">
</g>
<g xmlns="http://www.w3.org/2000/svg">
</g>
<g xmlns="http://www.w3.org/2000/svg">
</g>
<g xmlns="http://www.w3.org/2000/svg">
</g>
</g></svg>
