<?xml version="1.0"?>
<svg xmlns="http://www.w3.org/2000/svg" xmlns:xlink="http://www.w3.org/1999/xlink" xmlns:svgjs="http://svgjs.com/svgjs" version="1.1" width="512" height="512" x="0" y="0" viewBox="0 0 512 512" style="enable-background:new 0 0 512 512" xml:space="preserve" class=""><g><path xmlns="http://www.w3.org/2000/svg" d="m341.207031 460.035156-9.117187-136.839844c-2.894532-43.425781-25.660156-82.457031-60.1875-105.945312 19.222656-12.839844 29.800781-29.320312 29.800781-47.425781v-19.515625c0-8.277344-6.710937-14.988282-14.988281-14.988282h-232.476563c-8.277343 0-14.992187 6.710938-14.992187 14.988282v19.515625c0 18.25 10.75 34.855469 30.269531 47.742187-33.90625 23.394532-56.382813 61.90625-59.480469 104.652344l-9.90625 136.78125c-.984375 13.609375 3.722656 27.101562 12.917969 37.019531 9.070313 9.78125 21.339844 15.1875 34.546875 15.230469l245.84375.75h.148438c13.148437 0 25.390624-5.332031 34.484374-15.019531 9.253907-9.863281 14.042969-23.328125 13.136719-36.945313zm-271.980469-294.738281h202.5v4.527344c0 11.3125-14 23.847656-35.886718 32.308593h-130.730469c-21.886719-8.460937-35.882813-20.996093-35.882813-32.308593zm236.984376 311.167969c-3.363282 3.585937-7.847657 5.558594-12.628907 5.558594-.019531 0-.039062 0-.054687 0l-245.84375-.75c-4.804688-.015626-9.296875-2.019532-12.65625-5.636719-3.617188-3.902344-5.394532-9.042969-5-14.46875l9.90625-136.78125c2.960937-40.894531 28.367187-76.8125 65.011718-92.277344h131.804688c37.097656 15.476563 62.667969 51.714844 65.425781 93.082031l9.117188 136.839844c.363281 5.429688-1.445313 10.554688-5.082031 14.433594zm0 0" fill="#642ec3" data-original="#000000" style=""/><path xmlns="http://www.w3.org/2000/svg" d="m170.476562 257.898438c-51.941406 0-94.367187 40.648437-96.582031 92.539062l-4.605469 107.738281c-.171874 4.082031 1.328126 8.058594 4.15625 11.007813 2.824219 2.953125 6.734376 4.621094 10.820313 4.621094h172.421875c4.085938 0 7.996094-1.667969 10.824219-4.621094 2.824219-2.949219 4.328125-6.925782 4.152343-11.007813l-4.605468-107.738281c-2.21875-51.890625-44.640625-92.539062-96.582032-92.539062zm-23.152343 185.925781v-15.308594h46.300781v15.308594zm23.152343-77.867188c-5.007812 0-6.34375-9.066406-6.34375-14.421875 0-4.738281 2.832032-10.617187 6.339844-15.972656 3.515625 5.359375 6.34375 11.238281 6.34375 15.972656 0 5.355469-1.335937 14.421875-6.339844 14.421875zm53.125 77.867188v-30.300781c0-8.277344-6.710937-14.988282-14.988281-14.988282h-23.148437v-6c4.648437-2.277344 8.765625-5.652344 12.121094-10.027344 6.027343-7.851562 9.210937-18.5625 9.210937-30.972656 0-24.714844-23.277344-47.820312-25.929687-50.375-5.800782-5.585937-14.980469-5.582031-20.785157 0-2.652343 2.554688-25.929687 25.660156-25.929687 50.375 0 12.410156 3.1875 23.121094 9.210937 30.972656 3.355469 4.375 7.472657 7.75 12.121094 10.027344v6h-23.148437c-8.28125 0-14.992188 6.710938-14.992188 14.988282v30.300781h-17.4375l3.9375-92.105469c1.527344-35.800781 30.796875-63.84375 66.628906-63.84375 35.832032 0 65.101563 28.042969 66.632813 63.84375l3.933593 92.105469zm0 0" fill="#642ec3" data-original="#000000" style=""/><path xmlns="http://www.w3.org/2000/svg" d="m170.480469 113.441406c8.277343 0 14.988281-6.710937 14.988281-14.988281v-83.464844c0-8.277343-6.710938-14.988281-14.988281-14.988281-8.277344 0-14.988281 6.710938-14.988281 14.988281v83.464844c0 8.277344 6.710937 14.988281 14.988281 14.988281zm0 0" fill="#642ec3" data-original="#000000" style=""/><path xmlns="http://www.w3.org/2000/svg" d="m244.523438 113.441406c8.277343 0 14.992187-6.710937 14.992187-14.988281v-46.007813c0-8.277343-6.714844-14.988281-14.992187-14.988281-8.277344 0-14.988282 6.710938-14.988282 14.988281v46.007813c0 8.277344 6.710938 14.988281 14.988282 14.988281zm0 0" fill="#642ec3" data-original="#000000" style=""/><path xmlns="http://www.w3.org/2000/svg" d="m96.425781 113.441406c8.277344 0 14.988281-6.710937 14.988281-14.988281v-46.007813c0-8.277343-6.710937-14.988281-14.988281-14.988281-8.277343 0-14.988281 6.710938-14.988281 14.988281v46.007813c0 8.277344 6.710938 14.988281 14.988281 14.988281zm0 0" fill="#642ec3" data-original="#000000" style=""/></g></svg>
