<?xml version="1.0"?>
<svg xmlns="http://www.w3.org/2000/svg" xmlns:xlink="http://www.w3.org/1999/xlink" xmlns:svgjs="http://svgjs.com/svgjs" version="1.1" width="512" height="512" x="0" y="0" viewBox="0 0 512 512" style="enable-background:new 0 0 512 512" xml:space="preserve"><g><g xmlns="http://www.w3.org/2000/svg"><g><path d="m494.5 53.5h-398.32c-4.143 0-7.5 3.358-7.5 7.5s3.357 7.5 7.5 7.5h398.32c1.379 0 2.5 1.122 2.5 2.5v84c0 1.378-1.121 2.5-2.5 2.5h-52.09l-.005-15h28.095c6.341 0 11.5-5.159 11.5-11.5v-36c0-6.341-5.159-11.5-11.5-11.5h-429c-6.341 0-11.5 5.159-11.5 11.5v36c0 6.341 5.159 11.5 11.5 11.5h27.905l.005 15h-51.91c-1.379 0-2.5-1.122-2.5-2.5v-84c0-1.378 1.121-2.5 2.5-2.5h46.27c4.143 0 7.5-3.358 7.5-7.5s-3.357-7.5-7.5-7.5h-46.27c-9.649 0-17.5 7.851-17.5 17.5v84c0 9.649 7.851 17.5 17.5 17.5h51.915l.085 258.506c0 15.16 12.336 27.494 27.5 27.494h30.77c4.143 0 7.5-3.358 7.5-7.5s-3.357-7.5-7.5-7.5h-30.77c-6.893 0-12.5-5.604-12.5-12.496l-.109-332.504h157.109v80.654c0 4.142 3.357 7.5 7.5 7.5s7.5-3.358 7.5-7.5v-80.654h71.723l.107 345h-168.355c-4.143 0-7.5 3.358-7.5 7.5s3.357 7.5 7.5 7.5h255.025c15.163 0 27.5-12.333 27.5-27.496l-.068-207.083c-.001-4.142-3.358-7.498-7.5-7.498h-.003c-4.142.001-7.498 3.36-7.497 7.502l.068 207.081c0 6.889-5.607 12.494-12.5 12.494h-71.669l-.107-345h84.167l.012 36.341c-.001.053-.002.106-.002.159 0 .056.001.111.002.167l.01 29.678c-.001.051-.002.103-.002.155 0 .054.001.109.002.163l.009 26.84c.001 4.142 3.358 7.498 7.5 7.498h.003c4.142-.001 7.498-3.36 7.497-7.502l-.006-19.498h52.084c9.649 0 17.5-7.851 17.5-17.5v-84.001c0-9.649-7.851-17.5-17.5-17.5zm-425.1 74h-24.4v-29h24.39zm397.6-29v29h-24.6l-.01-29z" fill="#0e1978" data-original="#000000" style=""/><path d="m114.355 351.458c0 7.351 2.849 14.246 8.021 19.417l24.133 24.125c5.354 5.352 12.387 8.028 19.419 8.028s14.065-2.676 19.419-8.028l24.133-24.125c5.172-5.17 8.021-12.066 8.021-19.417s-2.849-14.246-8.021-19.417l-11.508-11.504 11.51-11.504c5.171-5.169 8.018-12.064 8.018-19.414s-2.847-14.244-8.019-19.415l-24.138-24.129c-10.699-10.7-28.119-10.702-38.838 0l-24.126 24.126c-5.177 5.17-8.027 12.066-8.027 19.417s2.851 14.246 8.023 19.413l11.507 11.505-11.507 11.503c-5.171 5.173-8.02 12.068-8.02 19.419zm18.624-53.035c-2.339-2.336-3.627-5.462-3.627-8.803s1.288-6.468 3.631-8.807l24.126-24.126c4.864-4.858 12.772-4.86 17.629-.003l24.139 24.129c2.336 2.337 3.623 5.464 3.623 8.807 0 3.342-1.286 6.47-3.622 8.805l-11.514 11.508-2.017-2.017c-10.707-10.705-28.129-10.705-38.838 0l-2.018 2.017zm.002 44.227 16.796-16.79c.006-.005.011-.011.017-.016l.016-.016 7.304-7.302c2.43-2.43 5.621-3.644 8.813-3.644 3.191 0 6.384 1.215 8.813 3.644l7.165 7.162c.049.052.099.104.15.155.052.052.105.103.158.154l16.66 16.655c2.339 2.337 3.626 5.465 3.626 8.808s-1.287 6.471-3.626 8.808l-24.133 24.125c-4.858 4.859-12.767 4.86-17.627 0l-24.133-24.125c-2.339-2.337-3.626-5.465-3.626-8.808s1.289-6.473 3.627-8.81z" fill="#0e1978" data-original="#000000" style=""/><path d="m249 285.622c4.143 0 7.5-3.358 7.5-7.5v-48.044c0-4.142-3.357-7.5-7.5-7.5s-7.5 3.358-7.5 7.5v48.044c0 4.142 3.357 7.5 7.5 7.5z" fill="#0e1978" data-original="#000000" style=""/><path d="m241.5 375.523c0 4.142 3.357 7.5 7.5 7.5s7.5-3.358 7.5-7.5v-55.276c0-4.142-3.357-7.5-7.5-7.5s-7.5 3.358-7.5 7.5z" fill="#0e1978" data-original="#000000" style=""/></g></g></g></svg>
