<?xml version="1.0"?>
<svg xmlns="http://www.w3.org/2000/svg" xmlns:xlink="http://www.w3.org/1999/xlink" xmlns:svgjs="http://svgjs.com/svgjs" version="1.1" width="512" height="512" x="0" y="0" viewBox="0 0 60 60" style="enable-background:new 0 0 512 512" xml:space="preserve"><g><g xmlns="http://www.w3.org/2000/svg" id="Page-1" fill="none" fill-rule="evenodd"><g id="032---Attic-Conversion" fill="rgb(0,0,0)" fill-rule="nonzero"><path id="Shape" d="m52 34.4v-26.4c1.1045695 0 2-.8954305 2-2v-4c0-1.1045695-.8954305-2-2-2h-18c-1.1045695 0-2 .8954305-2 2v4c0 1.1045695.8954305 2 2 2v7.958l-14.991-15.358c-.3774088-.38294928-.8923323-.59900111-1.43-.6h-15.579c-1.1045695 0-2 .8954305-2 2v56c0 1.1045695.8954305 2 2 2h56c1.1045695 0 2-.8954305 2-2v-14.593c.0019071-.5233516-.2025325-1.0263664-.569-1.4zm-18-32.4h18v4h-18zm2 10h5c.5522847 0 1-.4477153 1-1s-.4477153-1-1-1h-5v-2h14v2h-5c-.5522847 0-1 .4477153-1 1s.4477153 1 1 1h5v20.349l-14-14.342zm-18.421-10 40.421 41.407v3.284l-43.626-44.691zm-15.579 5h14.46l1.952 2h-16.412zm9.579-5 2.928 3h-12.507v-3zm-5.579 50v-4h25c.5522847 0 1 .4477153 1 1v3zm0-6c0-1.1045695.8954305-2 2-2h2c1.1045695 0 2 .8954305 2 2zm0 8h25v4h-25zm32 4v-7h16v7zm18 0v-7c0-1.1045695-.8954305-2-2-2h-16c-1.1045695 0-2 .8954305-2 2v7h-3v-4.278c.6167513-.3544126.997855-1.0106732 1-1.722v-3c0-1.6568542-1.3431458-3-3-3h-17c0-2.209139-1.790861-4-4-4h-2c-.70425323.0041446-1.39465346.1960759-2 .556v-5.556c0-.5522847-.44771525-1-1-1s-1 .4477153-1 1v21h-2v-47h18.364l37.636 38.555v8.445z" fill="#7e1010" data-original="#000000" style=""/><path id="Shape" d="m26 20h-20c-1.1045695 0-2 .8954305-2 2v10c0 1.1045695.8954305 2 2 2h20c1.1045695 0 2-.8954305 2-2v-10c0-1.1045695-.8954305-2-2-2zm-20 2h9v10h-9zm11 10v-10h9v10z" fill="#7e1010" data-original="#000000" style=""/></g></g></g></svg>
