<?xml version="1.0"?>
<svg xmlns="http://www.w3.org/2000/svg" xmlns:xlink="http://www.w3.org/1999/xlink" xmlns:svgjs="http://svgjs.com/svgjs" version="1.1" width="512" height="512" x="0" y="0" viewBox="0 0 512 512" style="enable-background:new 0 0 512 512" xml:space="preserve" class=""><g><g xmlns="http://www.w3.org/2000/svg"><path d="m409.039 314.889c-8.751-2.537-18.017.147-25.6 7.204-7.585-7.055-16.852-9.741-25.6-7.204-9.521 2.759-16.466 11.405-17.695 22.025-1.002 8.662.614 31.03 37.175 51.598 1.888 1.062 4.004 1.592 6.12 1.592s4.233-.531 6.121-1.593c36.559-20.567 38.175-42.935 37.173-51.597-1.228-10.62-8.173-19.266-17.694-22.025zm-25.6 59.846c-28.306-16.347-28.899-31.725-28.394-36.096.54-4.673 3.211-8.253 6.969-9.342.781-.227 1.58-.338 2.393-.338 3.72 0 7.69 2.342 11.205 6.694 1.917 2.372 4.771 3.733 7.829 3.733 3.058-.001 5.911-1.362 7.826-3.734 4.282-5.302 9.238-7.62 13.597-6.356 3.759 1.089 6.429 4.669 6.97 9.342.505 4.372-.09 19.75-28.395 36.097z" fill="#e5da32" data-original="#000000" style="" class=""/><path d="m128.561 390.104c2.116 0 4.233-.531 6.122-1.593 36.559-20.567 38.175-42.935 37.173-51.597-1.229-10.621-8.175-19.266-17.695-22.025-8.75-2.535-18.016.148-25.599 7.204-7.583-7.057-16.847-9.739-25.601-7.204-9.521 2.759-16.466 11.405-17.694 22.025-1.002 8.662.614 31.029 37.173 51.597 1.887 1.062 4.003 1.593 6.121 1.593zm-28.394-51.466c.541-4.673 3.211-8.253 6.97-9.342 5.179-1.504 10.209 2.162 13.596 6.354 1.916 2.373 4.77 3.734 7.827 3.735 3.058 0 5.912-1.361 7.829-3.733 4.283-5.302 9.243-7.619 13.597-6.356 3.758 1.089 6.429 4.669 6.969 9.342.506 4.372-.089 19.75-28.393 36.096-28.306-16.346-28.901-31.724-28.395-36.096z" fill="#e5da32" data-original="#000000" style="" class=""/><path d="m134.949 82.186c-74.411 0-134.949 60.537-134.949 134.948v77.731c0 37.005 14.682 71.527 41.341 97.206 2.982 2.873 7.731 2.784 10.604-.199 2.874-2.983 2.785-7.731-.198-10.605-5.506-5.303-10.429-11.036-14.756-17.117l6.222-5.029c12.085-9.765 19.017-24.269 19.017-39.793v-24.174c18.6 5.588 40.542 8.594 63.406 8.594 23.48 0 46.618-3.135 69.264-9.35v24.93c0 15.53 6.928 30.034 19.01 39.796l5.4 4.357c-15.843 30.47-47.709 51.332-84.361 51.332-19.449 0-38.759-4.759-55.842-13.762-3.669-1.932-8.202-.526-10.132 3.138-1.932 3.664-.526 8.2 3.138 10.131 19.23 10.135 40.959 15.492 62.836 15.492 61.096 0 110.017-49.752 110.017-110.017v-127.593c0-60.663-49.354-110.016-110.017-110.016zm95.017 237.612c0 10.213-1.626 20.051-4.622 29.279l-2.01-1.622c-8.537-6.898-13.434-17.15-13.434-28.126v-29.54c6.829-2.327 13.535-4.919 20.065-7.789v37.798zm0-54.298c-69.581 33.046-150.583 27.769-188.675 4.46-4.949-3.029-8.423-7.804-9.781-13.445s-.438-11.475 2.591-16.425c3.028-4.95 7.803-8.424 13.444-9.782 2.125-.511 4.279-.743 6.397-.572.013.001.026.003.039.004 3.494.276 6.913 1.278 9.988 3.16 12.388 7.58 46.693 16.594 90.424 10.363 26.983-3.846 53.059-13.247 75.573-27.314zm-167.736-49.528v-5.864c0-42.927 34.923-77.85 77.85-77.85 30.228 0 54.82 24.588 54.82 54.81v29.928c-16.031 6.455-30.941 9.753-42.624 11.418-41 5.841-71.926-3.075-80.478-8.308-3.022-1.851-6.241-3.228-9.568-4.134zm167.736-18.032c-6.675 4.717-13.408 8.74-20.065 12.179v-23.051c0-38.494-31.321-69.81-69.82-69.81-51.197 0-92.85 41.652-92.85 92.85v5c-1.068.161-2.134.361-3.196.616-9.537 2.296-17.609 8.169-22.729 16.537-5.12 8.367-6.676 18.228-4.38 27.764 3.872 16.078 15.348 23.38 30.305 29.746v29.556c0 10.971-4.9 21.223-13.444 28.127l-4.758 3.846c-9.165-17.136-14.029-36.373-14.029-56.434v-77.731c0-66.14 53.809-119.949 119.949-119.949 52.393 0 95.017 42.625 95.017 95.017z" fill="#e5da32" data-original="#000000" style="" class=""/><path d="m485.583 136.92c-2.467-3.33-7.162-4.03-10.49-1.566-3.329 2.465-4.03 7.161-1.566 10.491 15.356 20.745 23.473 45.397 23.473 71.289v77.731c0 20.366-5.108 39.559-14.101 56.376l-4.685-3.787c-8.544-6.904-13.444-17.155-13.444-28.126v-29.557c4.978-2.119 9.591-4.461 13.768-7.016 8.368-5.12 14.24-13.192 16.537-22.729 2.296-9.537.74-19.397-4.38-27.764-5.119-8.368-13.191-14.241-22.729-16.537-1.062-.256-2.129-.456-3.196-.617v-5c0-51.198-41.652-92.85-92.85-92.85-38.499 0-69.82 31.316-69.82 69.81v23.051c-6.657-3.439-13.391-7.463-20.065-12.179v-5.738c0-52.392 42.624-95.017 95.017-95.017 26.195 0 51.078 8.29 71.961 23.974 3.311 2.487 8.014 1.819 10.501-1.493s1.819-8.013-1.493-10.501c-23.5-17.65-51.499-26.98-80.969-26.98-60.663 0-110.017 49.353-110.017 110.017v127.596c0 60.226 48.89 110.017 110.017 110.017 74.535 0 134.949-60.673 134.949-134.949v-77.731c-.001-29.13-9.136-56.867-26.418-80.215zm-168.483 50.148c0-30.222 24.593-54.81 54.82-54.81 42.927 0 77.85 34.923 77.85 77.85v5.865c-3.327.906-6.546 2.283-9.568 4.132-17.569 10.751-71.968 17.478-123.102-3.109zm-35.066 28.881c61.019 38.125 138.284 33.909 165.997 16.95 10.196-6.239 23.576-3.094 29.868 7.191 6.267 10.239 3.052 23.601-7.191 29.869-4.784 2.928-10.241 5.537-16.227 7.819-.048.019-.098.036-.145.055-40.818 16.448-111.959 16.324-172.301-12.334v-49.55zm6.636 131.503-2.014 1.625c-2.996-9.227-4.622-19.066-4.622-29.279v-37.799c6.531 2.87 13.236 5.462 20.065 7.789v29.54c.001 10.977-4.896 21.228-13.429 28.124zm88.381 67.362c-36.651 0-68.518-20.862-84.361-51.332l5.404-4.36c12.078-9.76 19.006-24.264 19.006-39.793v-24.93c47.256 12.969 96.203 11.711 132.67.756v24.175c0 15.524 6.932 30.028 19.017 39.793l6.162 4.98c-21.751 30.662-57.526 50.711-97.898 50.711z" fill="#e5da32" data-original="#000000" style="" class=""/></g></g></svg>
