<?xml version="1.0"?>
<svg xmlns="http://www.w3.org/2000/svg" xmlns:xlink="http://www.w3.org/1999/xlink" xmlns:svgjs="http://svgjs.com/svgjs" version="1.1" width="512" height="512" x="0" y="0" viewBox="0 0 512 512" style="enable-background:new 0 0 512 512" xml:space="preserve"><g>
<g xmlns="http://www.w3.org/2000/svg">
	<g>
		<path d="M318.855,163.556c-8.64-14.109-22.096-21.944-37.889-22.061c-0.12,0-0.239-0.001-0.358-0.001    c-8.596,0-17.074,2.334-24.608,6.754c-7.558-4.427-16.022-6.754-24.604-6.754c-0.119,0-0.239,0.001-0.358,0.001    c-15.795,0.117-29.252,7.952-37.892,22.063c-8.783,14.347-9.07,31.975-0.767,47.155l-0.001-0.001    c5.816,10.636,14.525,18.831,22.209,26.061c1.244,1.17,2.476,2.329,3.679,3.485c4.69,4.502,9.389,8.798,13.933,12.952    c4.416,4.038,8.982,8.213,13.412,12.467l10.39,9.977l10.39-9.977c4.43-4.254,8.997-8.429,13.412-12.467    c4.544-4.154,9.243-8.45,13.933-12.953c1.203-1.155,2.435-2.314,3.679-3.484c7.684-7.23,16.393-15.426,22.208-26.061    C327.926,195.531,327.639,177.903,318.855,163.556z M293.301,196.318c-3.528,6.451-10.096,12.632-16.447,18.608    c-1.318,1.24-2.625,2.47-3.898,3.692c-4.425,4.249-8.986,8.419-13.397,12.452c-1.177,1.076-2.364,2.161-3.559,3.258    c-1.195-1.097-2.382-2.182-3.559-3.258c-4.411-4.033-8.972-8.203-13.396-12.451c-1.274-1.224-2.581-2.453-3.899-3.693    c-6.351-5.977-12.919-12.157-16.447-18.608l-0.001-0.001c-1.838-3.361-4.279-10.052,0.032-17.094    c3.248-5.306,7.112-7.689,12.53-7.729c0.044-0.001,0.087-0.001,0.13-0.001c3.455,0,6.919,1.034,10.065,3.019l14.543,9.11    l14.581-9.135c3.148-1.985,6.687-3.032,10.161-2.993c5.415,0.039,9.279,2.423,12.527,7.728    C297.58,186.266,295.14,192.956,293.301,196.318z" fill="#ad248b" data-original="#000000" style=""/>
	</g>
</g>
<g xmlns="http://www.w3.org/2000/svg">
	<g>
		<path d="M398.257,0.001L305.801,0l-2.472,11.965c-4.608,22.3-24.512,38.485-47.328,38.485c-22.816,0-42.72-16.186-47.328-38.485    L206.2,0h-92.449L0.211,65.533l65.29,113.085l37.264-21.515v268.928l12.225,2.302c35.796,6.738,64.056,35.371,70.322,71.248    L187.48,512H324.52l2.169-12.419c6.266-35.877,34.526-64.51,70.322-71.248l12.225-2.302V157.117l37.264,21.515l65.289-113.083    L398.257,0.001z M435.519,137.651l-56.283-32.495v296.688c-38.085,11.541-68.134,41.946-79.222,80.156h-88.026    c-11.088-38.21-41.137-68.615-79.222-80.156V105.143l-56.284,32.495l-35.288-61.12L121.788,30h61.001    c11.399,29.848,40.455,50.45,73.212,50.45c32.756,0,61.813-20.603,73.212-50.45l61.006,0.001l80.589,46.528L435.519,137.651z" fill="#ad248b" data-original="#000000" style=""/>
	</g>
</g>
<g xmlns="http://www.w3.org/2000/svg">
</g>
<g xmlns="http://www.w3.org/2000/svg">
</g>
<g xmlns="http://www.w3.org/2000/svg">
</g>
<g xmlns="http://www.w3.org/2000/svg">
</g>
<g xmlns="http://www.w3.org/2000/svg">
</g>
<g xmlns="http://www.w3.org/2000/svg">
</g>
<g xmlns="http://www.w3.org/2000/svg">
</g>
<g xmlns="http://www.w3.org/2000/svg">
</g>
<g xmlns="http://www.w3.org/2000/svg">
</g>
<g xmlns="http://www.w3.org/2000/svg">
</g>
<g xmlns="http://www.w3.org/2000/svg">
</g>
<g xmlns="http://www.w3.org/2000/svg">
</g>
<g xmlns="http://www.w3.org/2000/svg">
</g>
<g xmlns="http://www.w3.org/2000/svg">
</g>
<g xmlns="http://www.w3.org/2000/svg">
</g>
</g></svg>
