<?xml version="1.0"?>
<svg xmlns="http://www.w3.org/2000/svg" xmlns:xlink="http://www.w3.org/1999/xlink" xmlns:svgjs="http://svgjs.com/svgjs" version="1.1" width="512" height="512" x="0" y="0" viewBox="0 0 64 64" style="enable-background:new 0 0 512 512" xml:space="preserve"><g><g xmlns="http://www.w3.org/2000/svg"><path d="m46 19c-.552 0-1-.449-1-1h-2c0 1.654 1.346 3 3 3v2h2v-2h3v-3c0-1.654-1.346-3-3-3h-2c-.552 0-1-.449-1-1v-1h3c.552 0 1 .449 1 1h2c0-1.654-1.346-3-3-3v-2h-2v2h-3v3c0 1.654 1.346 3 3 3h2c.552 0 1 .449 1 1v1z" fill="#d11212" data-original="#000000" style=""/><path d="m48 61h-2v-12h-8v12h-2v-18h-8v18h-3.026c.635-.838 1.026-1.87 1.026-3v-26c0-.395-.081-.77-.22-1.116.175-.048.344-.108.506-.185l14.714 14.715 5-5 5.586 5.586-3.667 3.667 15.298 2.55-2.55-15.298-3.667 3.667-11-11-5 5-10.692-10.693c.426-.518.692-1.172.692-1.893v-1h2v1c0 1.654 1.346 3 3 3h2c.7 0 1.336-.251 1.847-.654 1.993 1.718 4.494 2.654 7.153 2.654 6.065 0 11-4.935 11-11s-4.935-11-11-11c-2.159 0-4.228.624-6 1.783v-2.783c0-1.654-1.346-3-3-3h-2c-1.654 0-3 1.346-3 3v1h-2v-1c0-1.654-1.346-3-3-3h-14c-1.654 0-3 1.346-3 3v1h-2v-1c0-1.654-1.346-3-3-3h-2c-1.654 0-3 1.346-3 3v18c0 1.654 1.346 3 3 3h2c1.654 0 3-1.346 3-3v-1h2v1c0 1.654 1.346 3 3 3v3c0 1.383.945 2.539 2.22 2.884-.139.346-.22.721-.22 1.116v26c0 2.757 2.243 5 5 5h35v-10h-8zm-8-10h4v10h-4zm-10-6h4v16h-4zm16-12.586 11 11 2.333-2.333 1.45 8.702-8.702-1.45 2.333-2.333-8.414-8.414-5 5-13.301-13.301c.188-.391.301-.823.301-1.285v-3c.182 0 .359-.023.533-.054l12.467 12.468zm1-25.414c4.963 0 9 4.038 9 9s-4.037 9-9 9c-2.273 0-4.402-.845-6.067-2.377.043-.201.067-.409.067-.623v-12.689c1.655-1.488 3.766-2.311 6-2.311zm-12-3c0-.551.448-1 1-1h2c.552 0 1 .449 1 1v18c0 .551-.448 1-1 1h-2c-.552 0-1-.449-1-1zm-2 3v12h-2v-12zm-26 15c0 .551-.448 1-1 1h-2c-.552 0-1-.449-1-1v-18c0-.551.448-1 1-1h2c.552 0 1 .449 1 1zm2-3v-12h2v12zm4 3v-18c0-.551.448-1 1-1h14c.552 0 1 .449 1 1v18c0 .551-.448 1-1 1h-14c-.552 0-1-.449-1-1zm3 3h10v3c0 .551-.448 1-1 1h-2-4-2c-.552 0-1-.449-1-1zm2 33v-26c0-.551.448-1 1-1h4c.552 0 1 .449 1 1v26c0 1.654-1.346 3-3 3s-3-1.346-3-3zm32-3h4v6h-4z" fill="#d11212" data-original="#000000" style=""/></g></g></svg>
