<?xml version="1.0"?>
<svg xmlns="http://www.w3.org/2000/svg" xmlns:xlink="http://www.w3.org/1999/xlink" xmlns:svgjs="http://svgjs.com/svgjs" version="1.1" width="512" height="512" x="0" y="0" viewBox="0 0 512 512" style="enable-background:new 0 0 512 512" xml:space="preserve" class=""><g><g xmlns="http://www.w3.org/2000/svg" id="Out_line" data-name="Out line"><path d="M417.12207,432H103.8916a47.93488,47.93488,0,0,1-42.25976-25.23877L27.26025,342.92969A94.24169,94.24169,0,0,1,85.959,207.19824l52.22022-13.92578,6.76807-15.7915A160.65682,160.65682,0,0,1,292.78125,80h35.04639A160.84112,160.84112,0,0,1,472.8291,171.23926a243.45252,243.45252,0,0,1-9.65283,229.14013l-4.68115,7.95752A48.18678,48.18678,0,0,1,417.12207,432ZM292.78125,96a144.67518,144.67518,0,0,0-133.12793,87.78369L151.353,203.15137a8.00009,8.00009,0,0,1-5.29151,4.57861l-55.98,14.92822a78.24052,78.24052,0,0,0-48.7334,112.68555l34.3711,63.83154A31.95516,31.95516,0,0,0,103.8916,416H417.12207a32.12451,32.12451,0,0,0,27.582-15.77539l4.68115-7.95752a227.47442,227.47442,0,0,0,9.019-214.10352A144.84006,144.84006,0,0,0,327.82764,96Z" fill="#57720f" data-original="#000000" style=""/><path d="M384.71729,172.68945l-27.45362,60.398A39.169,39.169,0,0,1,321.68018,256a216.10622,216.10622,0,0,1-22.69239-1.20221,154.41893,154.41893,0,0,1,23.20313-44.38568l28.209-37.61231-12.7998-9.5996-28.209,37.6123A170.60833,170.60833,0,0,0,288,238.42737a170.60833,170.60833,0,0,0-21.39111-37.61487l-28.209-37.6123-12.7998,9.5996,28.209,37.61231a154.479,154.479,0,0,1,21.91126,40.63342q-8.857-1.92975-17.55872-4.59631a233.36056,233.36056,0,0,0-147.50342,3.708l-17.39209,6.32422,5.46778,15.0371,17.39209-6.32421a217.26745,217.26745,0,0,1,137.33056-3.45313A231.77244,231.77244,0,0,0,321.68018,272a55.20229,55.20229,0,0,0,50.14892-32.2915l27.45361-60.39795Z" fill="#57720f" data-original="#000000" style=""/></g></g></svg>
