<?xml version="1.0"?>
<svg xmlns="http://www.w3.org/2000/svg" xmlns:xlink="http://www.w3.org/1999/xlink" xmlns:svgjs="http://svgjs.com/svgjs" version="1.1" width="512" height="512" x="0" y="0" viewBox="0 0 512 512" style="enable-background:new 0 0 512 512" xml:space="preserve"><g><g xmlns="http://www.w3.org/2000/svg"><path d="m452 0h-392c-33.084 0-60 26.916-60 60v347c0 57.897 47.103 105 105 105h362c24.813 0 45-20.187 45-45 0-11.517-4.353-22.032-11.495-30 7.141-7.968 11.495-18.483 11.495-30s-4.353-22.032-11.495-30c7.141-7.968 11.495-18.483 11.495-30v-287c0-33.084-26.916-60-60-60zm-120 77.574 102.426 102.426h-102.426zm150-17.574v125.148l-155.148-155.148h125.148c16.542 0 30 13.458 30 30zm0 347c0 8.271-6.729 15-15 15h-362c-8.271 0-15-6.729-15-15s6.729-15 15-15h362c8.271 0 15 6.729 15 15zm-15-45h-362c-24.813 0-45 20.187-45 45s20.187 45 45 45h362c8.271 0 15 6.729 15 15s-6.729 15-15 15h-362c-41.355 0-75-33.645-75-75s33.645-75 75-75h362c8.271 0 15 6.729 15 15s-6.729 15-15 15zm15-57.42c-4.695-1.665-9.742-2.58-15-2.58h-362c-29.354 0-55.927 12.113-75 31.596v-273.596c0-16.542 13.458-30 30-30h212c16.542 0 30 13.458 30 30v150h150c16.542 0 30 13.458 30 30z" fill="#096c10" data-original="#000000" style=""/></g></g></svg>
