<?xml version="1.0"?>
<svg xmlns="http://www.w3.org/2000/svg" xmlns:xlink="http://www.w3.org/1999/xlink" xmlns:svgjs="http://svgjs.com/svgjs" version="1.1" width="512" height="512" x="0" y="0" viewBox="0 0 124 124" style="enable-background:new 0 0 512 512" xml:space="preserve" class=""><g><path xmlns="http://www.w3.org/2000/svg" d="m58.181 121.805c-28.157 0-51.065-23.039-51.065-51.357v-13.969c0-1.104.896-2 2-2s2 .896 2 2v13.969c0 26.113 21.113 47.357 47.065 47.357 1.104 0 2 .896 2 2s-.896 2-2 2z" fill="#95520a" data-original="#000000" style="" class=""/><path xmlns="http://www.w3.org/2000/svg" d="m58.296 92.819h-1.157c-13.354 0-24.218-10.924-24.218-24.351v-21.302c0-10.987 8.892-19.927 19.821-19.927h.579c11.248 0 20.399 9.2 20.399 20.509v21.885c0 8.549-6.919 15.503-15.423 15.503s-15.423-6.954-15.423-15.503v-23.281c0-5.853 4.739-10.614 10.563-10.614 5.824-.001 10.563 4.761 10.563 10.614v23.281c0 1.021-.298 2.059-.861 3.003l-.597.963c-.98 1.644-2.66 2.707-4.591 2.887-1.938.18-3.785-.563-5.088-2.036-.922-1.111-1.427-2.51-1.427-3.885v-23.283c0-1.104.896-2 2-2s2 .896 2 2v23.282c0 .452.174.933.466 1.284.571.645 1.298.686 1.678.654.645-.061 1.208-.419 1.545-.984l.597-.963c.17-.284.278-.631.278-.922v-23.281c0-3.647-2.944-6.614-6.563-6.614s-6.563 2.967-6.563 6.614v23.281c0 6.343 5.125 11.503 11.423 11.503s11.423-5.16 11.423-11.503v-21.885c0-9.103-7.357-16.509-16.399-16.509h-.579c-8.724 0-15.821 7.145-15.821 15.927v21.303c0 11.222 9.07 20.351 20.218 20.351h1.157c11.148 0 20.218-9.129 20.218-20.351v-22.933c0-6.88-2.708-13.314-7.625-18.12-4.856-4.746-11.248-7.245-17.986-7.12-13.533.322-24.545 11.644-24.545 25.24v15.482c0 1.104-.896 2-2 2s-2-.896-2-2v-15.482c0-15.749 12.764-28.865 28.452-29.238 7.82-.219 15.242 2.753 20.875 8.258 5.694 5.563 8.83 13.015 8.83 20.98v22.933c0 13.427-10.865 24.35-24.219 24.35z" fill="#95520a" data-original="#000000" style="" class=""/><path xmlns="http://www.w3.org/2000/svg" d="m99.988 70.681c0-1.104-.896-2-2-2s-2 .896-2 2c0 2.98-.424 5.879-1.17 8.666-.083-.001-.166-.006-.25-.006-1.538 0-3.039.155-4.491.45.647-2.504 1-5.124 1-7.83 0-1.104-.896-2-2-2s-2 .896-2 2c0 3.268-.577 6.4-1.617 9.311-6.208 2.758-10.936 8.238-12.636 14.912-3.936 2.192-8.447 3.46-13.255 3.46h-2.43c-15.168 0-27.508-12.419-27.508-27.684 0-1.104-.896-2-2-2s-2 .896-2 2c0 17.471 14.135 31.684 31.508 31.684h2.43c4.476 0 8.727-.961 12.585-2.662-.033 1.06.007 2.115.124 3.169-4.114 1.59-8.558 2.478-13.173 2.478h-3.355c-9.609 0-18.627-3.768-25.393-10.607-6.769-6.844-10.438-15.918-10.332-25.566l.116-26.316c0-17.961 14.521-32.573 32.369-32.573s32.369 14.612 32.369 32.573v11.757c0 3.973 3.451 7.588 7.407 7.831 4.052.249 7.703-3.19 7.703-7.249v-11.408c-.001-24.852-20.105-45.071-44.817-45.071h-3.356c-24.712 0-44.816 20.219-44.816 45.071 0 1.104.896 2 2 2s2-.896 2-2c0-22.646 18.31-41.071 40.816-41.071h3.356c22.506 0 40.816 18.425 40.816 41.071v11.407c0 1.832-1.717 3.408-3.542 3.249-1.847-.161-3.568-1.963-3.568-3.831v-11.756c0-20.167-16.315-36.573-36.369-36.573s-36.367 16.406-36.367 36.564l-.116 26.294c-.118 10.712 3.962 20.802 11.488 28.41 7.522 7.606 17.55 11.795 28.236 11.795h3.356c4.886 0 9.599-.9 13.986-2.519 2.785 9.182 11.357 15.889 21.477 15.889 12.369 0 22.431-10.018 22.431-22.33 0-10.859-7.828-19.927-18.161-21.918.733-2.926 1.149-5.959 1.149-9.071zm-5.419 49.319c-10.163 0-18.432-8.223-18.432-18.33 0-10.106 8.269-18.329 18.432-18.329s18.431 8.222 18.431 18.329-8.268 18.33-18.431 18.33z" fill="#95520a" data-original="#000000" style="" class=""/><path xmlns="http://www.w3.org/2000/svg" d="m90.414 110.461-5.52-3.917c-.9-.639-1.113-1.888-.473-2.788.639-.901 1.886-1.112 2.789-.474l4.098 2.908 11.315-12.047c.757-.805 2.022-.845 2.827-.089.805.757.845 2.022.089 2.827l-12.509 13.318c-.592.598-1.811.785-2.616.262z" fill="#95520a" data-original="#000000" style="" class=""/></g></svg>
