<?xml version="1.0"?>
<svg xmlns="http://www.w3.org/2000/svg" xmlns:xlink="http://www.w3.org/1999/xlink" xmlns:svgjs="http://svgjs.com/svgjs" version="1.1" width="512" height="512" x="0" y="0" viewBox="0 0 512 512" style="enable-background:new 0 0 512 512" xml:space="preserve"><g><path xmlns="http://www.w3.org/2000/svg" d="m164.621094 0-6.023438 8.117188c-6.476562 8.730468-158.597656 214.769531-158.597656 303.003906 0 90.773437 73.847656 164.621094 164.621094 164.621094 90.769531 0 164.617187-73.847657 164.617187-164.621094 0-88.238282-152.121093-294.273438-158.59375-303.003906zm0 460.742188c-82.503906 0-149.621094-67.117188-149.621094-149.621094 0-73.816406 120.96875-246.035156 149.621094-285.789063 28.652344 39.75 149.617187 211.972657 149.617187 285.789063 0 82.503906-67.117187 149.621094-149.617187 149.621094zm0 0" fill="#d31212" data-original="#000000" style=""/><path xmlns="http://www.w3.org/2000/svg" d="m100.960938 138.492188c-33.648438 54.640624-56.492188 99.546874-67.898438 133.46875l14.21875 4.777343c11.042969-32.839843 33.398438-76.707031 66.453125-130.382812 9.65625-15.683594 20.195313-32.117188 31.324219-48.84375l-12.488282-8.308594c-11.226562 16.875-21.859374 33.457031-31.609374 49.289063zm0 0" fill="#d31212" data-original="#000000" style=""/><path xmlns="http://www.w3.org/2000/svg" d="m164.621094 450.742188c76.984375 0 139.617187-62.632813 139.617187-139.617188 0-4.585938-.574219-9.898438-1.707031-15.792969l-14.730469 2.835938c.957031 4.960937 1.4375 9.320312 1.4375 12.957031 0 68.714844-55.902343 124.617188-124.617187 124.617188zm0 0" fill="#d31212" data-original="#000000" style=""/><path xmlns="http://www.w3.org/2000/svg" d="m285.660156 288.945312 14.496094-3.867187c-1.238281-4.640625-2.773438-9.632813-4.5625-14.835937l-14.1875 4.878906c1.675781 4.871094 3.109375 9.523437 4.253906 13.824218zm0 0" fill="#d31212" data-original="#000000" style=""/><path xmlns="http://www.w3.org/2000/svg" d="m292.085938 260.605469c-1.730469-4.523438-3.667969-9.292969-5.761719-14.167969l-13.785157 5.914062c2.015626 4.695313 3.878907 9.273438 5.539063 13.613282zm0 0" fill="#d31212" data-original="#000000" style=""/><path xmlns="http://www.w3.org/2000/svg" d="m419.144531 9.988281-6.023437-8.117187-6.023438 8.117187c-3.792968 5.109375-92.859375 125.75-92.859375 178.097657 0 54.519531 44.359375 98.878906 98.882813 98.878906 54.519531 0 98.878906-44.359375 98.878906-98.878906 0-52.347657-89.066406-172.988282-92.855469-178.097657zm-6.023437 261.976563c-46.253906 0-83.882813-37.628906-83.882813-83.878906 0-36.5 55.835938-121.824219 83.882813-160.898438 28.042968 39.066406 83.878906 124.378906 83.878906 160.894531 0 46.253907-37.628906 83.882813-83.878906 83.882813zm0 0" fill="#d31212" data-original="#000000" style=""/><path xmlns="http://www.w3.org/2000/svg" d="m468.96875 135.886719-13.402344 6.730469c15.640625 31.140624 16.433594 43.335937 16.433594 45.464843 0 32.46875-26.414062 58.882813-58.878906 58.882813v15c40.734375 0 73.878906-33.144532 73.878906-73.882813 0-6.089843-2.34375-20.96875-18.03125-52.195312zm0 0" fill="#d31212" data-original="#000000" style=""/><path xmlns="http://www.w3.org/2000/svg" d="m451.898438 104.785156c-2.46875-4.199218-5.097657-8.566406-7.808594-12.972656l-12.777344 7.859375c2.660156 4.324219 5.238281 8.605469 7.660156 12.71875zm0 0" fill="#d31212" data-original="#000000" style=""/><path xmlns="http://www.w3.org/2000/svg" d="m451.050781 133.894531 13.246094-7.039062c-2.273437-4.273438-4.738281-8.753907-7.332031-13.320313l-13.042969 7.410156c2.523437 4.445313 4.925781 8.800782 7.128906 12.949219zm0 0" fill="#d31212" data-original="#000000" style=""/></g></svg>
