<?xml version="1.0"?>
<svg xmlns="http://www.w3.org/2000/svg" xmlns:xlink="http://www.w3.org/1999/xlink" xmlns:svgjs="http://svgjs.com/svgjs" version="1.1" width="512" height="512" x="0" y="0" viewBox="0 0 512 512" style="enable-background:new 0 0 512 512" xml:space="preserve" class=""><g><g xmlns="http://www.w3.org/2000/svg"><path d="m487 418.05h-4.655c-8.292-7.773-13.005-18.575-13.005-30.031 0-11.455 4.713-22.257 13.004-30.03h4.656c6.672 0 12.949-2.602 17.674-7.327s7.326-11 7.326-17.672c0-13.785-11.215-25-25-25h-22.98c2.617-1.998 5.126-4.169 7.494-6.537 13.946-13.947 21.592-32.491 21.526-52.218-.125-38.017-29.732-69.355-67.345-72.919 1.11-2.752 1.696-5.718 1.696-8.777 0-12.919-10.507-23.43-23.421-23.43h-3.971c-7.289-6.933-11.43-16.505-11.43-26.653 0-10.15 4.143-19.724 11.435-26.657h3.966c6.243 0 12.123-2.432 16.573-6.866 4.416-4.431 6.848-10.314 6.848-16.564 0-12.914-10.507-23.42-23.421-23.42h-278.67c-40.952 0-74.368 32.868-74.489 73.265-.065 19.727 7.58 38.271 21.526 52.217 2.368 2.368 4.877 4.539 7.494 6.537h-30.7c-12.92 0-23.431 10.506-23.431 23.42 0 6.259 2.436 12.142 6.857 16.564 4.429 4.428 10.314 6.866 16.573 6.866h3.961c7.292 6.934 11.436 16.508 11.436 26.658 0 10.153-4.145 19.728-11.44 26.662h-3.956c-12.92 0-23.431 10.506-23.431 23.42 0 6.25 2.432 12.133 6.866 16.583 1.658 1.652 3.519 3.026 5.527 4.099-22.776 14.135-38.001 39.107-38.093 67.518-.063 21.48 8.26 41.668 23.437 56.845 15.12 15.12 35.219 23.447 56.594 23.447h406.969c6.672 0 12.948-2.602 17.674-7.327 4.725-4.725 7.326-11.001 7.326-17.673 0-13.785-11.215-25-25-25zm10-85.06c0 2.666-1.042 5.175-2.934 7.067-1.891 1.891-4.4 2.933-7.066 2.933h-59.974v-20h59.974c5.514 0 10 4.486 10 10zm-414.055-174.164c-11.101-11.1-17.186-25.86-17.134-41.564.097-32.153 26.783-58.312 59.489-58.312h278.67c4.644 0 8.421 3.777 8.421 8.42 0 2.254-.878 4.376-2.454 5.957-1.601 1.595-3.72 2.473-5.967 2.473h-239.73c-4.143 0-7.5 3.358-7.5 7.5s3.357 7.5 7.5 7.5h216.705c-4.776 7.951-7.377 17.123-7.377 26.658 0 9.532 2.6 18.703 7.374 26.652h-256.621c-7.229 0-14.001-2.858-19.068-8.048-5.064-5.187-7.758-12.027-7.584-19.261.345-14.337 12.588-26.001 27.291-26.001h9.28c4.143 0 7.5-3.358 7.5-7.5s-3.357-7.5-7.5-7.5h-9.28c-22.776 0-41.747 18.23-42.288 40.64-.271 11.308 3.937 21.998 11.847 30.1 7.914 8.106 18.498 12.57 29.802 12.57h279.649c4.644 0 8.421 3.782 8.421 8.43 0 2.252-.875 4.368-2.463 5.956-1.596 1.595-3.712 2.474-5.958 2.474h-279.649c-15.628 0-30.323-6.089-41.376-17.144zm-39.781 46.52c-1.589-1.589-2.464-3.704-2.464-5.957 0-4.643 3.782-8.42 8.431-8.42h75.189 279.65 14.57c32.703 0 59.395 26.16 59.5 58.315.052 15.701-6.033 30.461-17.134 41.561-9.266 9.267-21.093 15.027-33.88 16.653v-17.042c8.425-1.525 16.159-5.606 22.289-11.885 7.914-8.106 12.123-18.8 11.853-30.11-.528-22.411-19.494-40.643-42.277-40.643h-369.76c-2.253.002-4.372-.877-5.967-2.472zm28.987 17.474h346.74c14.705 0 26.943 11.662 27.281 25.999.174 7.239-2.521 14.084-7.59 19.275-3.258 3.337-7.222 5.704-11.556 6.972v-15.686c0-4.142-3.357-7.5-7.5-7.5h-148.345c-4.143 0-7.5 3.358-7.5 7.5s3.357 7.5 7.5 7.5h50.622v9.26h-249.655c4.777-7.952 7.38-17.126 7.38-26.662 0-9.535-2.602-18.707-7.377-26.658zm264.652 44.06h75.224v106.331l-34.163-17.697c-1.081-.56-2.266-.84-3.449-.84s-2.368.28-3.45.841l-34.161 17.696v-106.331zm-287.672 24.259h272.672v16.85h-272.672c-2.254 0-4.376-.878-5.958-2.454-1.595-1.6-2.473-3.722-2.473-5.976.001-4.642 3.783-8.42 8.431-8.42zm444.935 158.978c-1.892 1.892-4.401 2.933-7.066 2.933h-406.969c-17.368 0-33.7-6.767-45.986-19.053-12.333-12.332-19.096-28.738-19.045-46.193.115-35.738 29.772-64.814 66.11-64.814h240.692v20h-241.071c-24.63 0-45.139 19.707-45.719 43.932-.289 12.228 4.262 23.786 12.816 32.545s19.99 13.583 32.202 13.583h273.38c4.143 0 7.5-3.358 7.5-7.5s-3.357-7.5-7.5-7.5h-273.379c-8.138 0-15.764-3.219-21.471-9.063-5.708-5.845-8.745-13.555-8.552-21.708.387-16.15 14.169-29.289 30.723-29.289h241.072v27.552c0 2.618 1.365 5.047 3.603 6.408s5.022 1.456 7.348.251l41.661-21.582 41.663 21.582c1.084.562 2.268.841 3.449.841 1.353 0 2.703-.366 3.897-1.092 2.237-1.361 3.603-3.79 3.603-6.408v-27.553h36.012c-5.621 8.876-8.699 19.238-8.699 30.03 0 10.793 3.078 21.154 8.7 30.031h-79.63c-4.143 0-7.5 3.358-7.5 7.5s3.357 7.5 7.5 7.5h103.59c5.514 0 10 4.486 10 10 0 2.666-1.042 5.175-2.934 7.067z" fill="#2a640a" data-original="#000000" style=""/></g></g></svg>
