<?xml version="1.0"?>
<svg xmlns="http://www.w3.org/2000/svg" xmlns:xlink="http://www.w3.org/1999/xlink" xmlns:svgjs="http://svgjs.com/svgjs" version="1.1" width="512" height="512" x="0" y="0" viewBox="0 0 512 512" style="enable-background:new 0 0 512 512" xml:space="preserve"><g><path xmlns="http://www.w3.org/2000/svg" d="m492 472h-32.647c8.222-13.336 12.647-28.644 12.647-44.5 0-10.216-1.842-20.158-5.413-29.476 28.111-20.018 45.413-52.693 45.413-88.024 0-35.512-17.045-67.959-45.387-88.034.923-5.247 1.387-10.58 1.387-15.966 0-38.014-23.076-71.239-57.023-85.118.016-.627.023-1.254.023-1.882 0-41.355-33.645-75-75-75-.029 0-.059 0-.088 0-18.896-27.442-49.939-44-83.912-44-50.119 0-91.911 36.332-100.417 84.043-51.869 1.546-93.583 44.221-93.583 96.457 0 10.732 1.756 21.25 5.166 31.219-37.724 17.219-63.166 55.296-63.166 98.281 0 35.751 17.608 68.646 46.204 88.592-3.433 9.159-5.204 18.907-5.204 28.908 0 16.19 4.766 31.481 12.893 44.5h-33.893c-11.046 0-20 8.954-20 20s8.954 20 20 20h472c11.046 0 20-8.954 20-20s-8.954-20-20-20zm-411-44.5c0-9.044 2.811-17.682 8.128-24.98 3.575-4.906 4.728-11.17 3.135-17.027s-5.761-10.674-11.328-13.093c-24.867-10.807-40.935-35.3-40.935-62.4 0-32.555 23.159-60.635 55.067-66.769 6.618-1.272 12.149-5.792 14.717-12.022 2.567-6.23 1.824-13.335-1.977-18.899-6.416-9.393-9.807-20.393-9.807-31.81 0-31.154 25.346-56.5 56.5-56.5 3.877 0 7.758.396 11.535 1.179 6.04 1.25 12.316-.354 17.013-4.35 4.697-3.995 6.952-9.829 6.952-18.829 0-34.187 27.813-62 62-62 23.515 0 44.727 13.062 55.356 34.089 4.051 8.015 12.952 12.346 21.755 10.592 2.268-.452 4.586-.681 6.889-.681 19.299 0 35 15.701 35 35 0 3.496-.515 6.949-1.53 10.266-1.677 5.479-.924 11.414 2.068 16.3s7.937 8.254 13.579 9.25c24.848 4.386 42.883 25.912 42.883 51.184 0 6.279-1.113 12.428-3.309 18.274-3.596 9.575.611 20.319 9.752 24.907 23.166 11.625 37.557 34.93 37.557 60.819 0 26.821-15.836 51.213-40.346 62.142-5.535 2.468-9.652 7.312-11.196 13.171-1.543 5.86-.347 12.104 3.253 16.978 5.422 7.341 8.289 16.058 8.289 25.209 0 24.122-19.463 44.5-42.5 44.5h-53.078c5.212-22.844 20.614-71.202 63.943-123.196 7.071-8.485 5.925-21.097-2.561-28.168-8.485-7.071-21.097-5.925-28.168 2.561-54.276 65.13-69.845 125.325-74.079 148.803h-18.557v-174.82c14.833-8.506 55.089-35.88 69.319-89.005 2.858-10.669-3.475-21.636-14.144-24.494-10.668-2.857-21.636 3.474-24.494 14.144-6.07 22.662-19.052 39.02-30.681 49.799v-75.624c0-11.046-8.954-20-20-20s-20 8.954-20 20v300h-19.076c-9.495-38.088-24.873-73.144-40.172-101.817.373-.723.718-1.467 1.008-2.25 18.032-48.794 18.24-111.296 18.24-113.933 0-11.046-8.954-20-20-20s-20 8.954-20 20c0 .442-.108 34.501-7.259 69.388-11.171-16.734-19.27-26.829-20.201-27.978-6.95-8.578-19.531-9.897-28.114-2.954s-9.913 19.533-2.977 28.122c.576.714 54.573 68.245 78.087 151.422h-52.536c-22.907 0-43-20.794-43-44.5z" fill="#16854c" data-original="#000000" style=""/></g></svg>
