<?xml version="1.0"?>
<svg xmlns="http://www.w3.org/2000/svg" xmlns:xlink="http://www.w3.org/1999/xlink" xmlns:svgjs="http://svgjs.com/svgjs" version="1.1" width="512" height="512" x="0" y="0" viewBox="0 0 100 100" style="enable-background:new 0 0 512 512" xml:space="preserve"><g><path xmlns="http://www.w3.org/2000/svg" d="m72.4296875 10h-14.7998047c-3.9072266 0-7.0859375 3.1787109-7.0859375 7.0859375v18.2851562c0 .5527344.4472656 1 1 1h.3746948c-.2609863 5.390625-.4215698 9.1875-.4215698 10.0136719v31.9335938c0 .5527344.4472656 1 1 1h.0507812v5.3261719c.0000001 2.9531249 2.4023438 5.3554687 5.3544923 5.3554687h14.2548828c2.9521484 0 5.3544922-2.4023438 5.3544922-5.3554688v-5.3261719h.0507812c.5527344 0 1-.4472656 1-1v-31.9335937c0-.8261719-.1606445-4.6230469-.4216309-10.0136719h.3747559c.5527344 0 1-.4472656 1-1v-18.2851562c0-3.9072266-3.1787109-7.0859375-7.0859375-7.0859375zm-11.3496094 2h7.8994141v14.2089844c0 .5517578-.4482422 1-1 1h-5.8994141c-.5517578 0-1-.4482422-1-1zm-7.5830078 65.3183594v-8.9589844h23.0654297v8.9589844zm23.0654297-10.9589844h-23.0654297v-19.6474609h23.0654297zm-1.0507812 18.2851562c0 1.850586-1.5048829 3.3554688-3.3544922 3.3554688h-14.2548828c-1.8496094 0-3.3544922-1.5048828-3.3544922-3.3554688v-5.3261719h20.9638672zm1.0014648-39.9326171h-22.9667358c.0594482-1.578125.1767578-4.2661133.3744507-8.3408203h22.2177734c.1977539 4.074707.3149414 6.7626953.3745117 8.3408203zm1.0024414-10.3408203h-.4248047-24.1220703-.4248047v-17.2851563c0-2.8046875 2.28125-5.0859375 5.0859375-5.0859375h1.4501953v14.2089844c0 1.6542969 1.3457031 3 3 3h5.8994141c1.6542969 0 3-1.3457031 3-3v-14.2089844h1.4501953c2.8046875 0 5.0859375 2.28125 5.0859375 5.0859375z" fill="#1a3ea7" data-original="#000000" style=""/><path xmlns="http://www.w3.org/2000/svg" d="m43.546875 19.3535156h-5.3935547v-.5195312c0-4.8710938-3.9628906-8.8339844-8.8349609-8.8339844-4.8710938 0-8.8339844 3.9628906-8.8339844 8.8339844v23.7773438c0 .5527344.4472656 1 1 1h.4389648l1.262207 36.1269531c.003418.1091309.031311.2143555.0698242.315918.0089111.0234375.0174561.0457764.0280762.0684814.0097656.020874.0148926.0435791.026123.0638428l5.1337891 9.296875c.1757813.3183593.5107423.5166015.8750001.5166015s.6992188-.1982422.875-.5166016l5.1347656-9.296875c.0111694-.0202637.0162964-.0427246.026062-.0637207.0106812-.0228271.0192871-.045166.0282593-.0688477.0384521-.1015625.0662842-.206543.0697021-.3156738l1.262207-36.1269531h.4389648c.5527344 0 1-.4472656 1-1v-21.2578125h4.3935547v21.2578125c0 .5527344.4472656 1 1 1s1-.4472656 1-1v-22.2578125c.0000001-.5527344-.4472655-1-.9999999-1zm-14.2285156-7.3535156c3.7685547 0 6.8349609 3.0654297 6.8349609 6.8339844v.5195312h-13.6689453v-.5195312c0-3.7685547 3.0654297-6.8339844 6.8339844-6.8339844zm0 74.9316406-3.4389648-6.2285156h6.8787231zm4.1689453-8.2285156h-8.3369141l-1.2265015-35.0917969h10.789917zm2.6660156-37.0917969h-13.6689453v-20.2578125h13.6689453z" fill="#1a3ea7" data-original="#000000" style=""/></g></svg>
