<?xml version="1.0"?>
<svg xmlns="http://www.w3.org/2000/svg" xmlns:xlink="http://www.w3.org/1999/xlink" xmlns:svgjs="http://svgjs.com/svgjs" version="1.1" width="512" height="512" x="0" y="0" viewBox="0 0 512 512" style="enable-background:new 0 0 512 512" xml:space="preserve"><g><g xmlns="http://www.w3.org/2000/svg"><path d="m23.447 174.14h56.183c13.725 0 24.89-11.166 24.89-24.89 0-13.725-11.165-24.89-24.89-24.89h-2.216c-5.163-10.046-15.675-16.68-27.251-16.68-16.075 0-29.297 12.455-30.521 28.221-8.83 1.772-15.502 9.587-15.502 18.931.001 10.647 8.662 19.308 19.307 19.308zm0-23.615h3.603c4.143 0 7.5-3.358 7.5-7.5v-4.732c0-8.609 7.004-15.613 15.613-15.613 6.909 0 13.075 4.632 14.994 11.264.928 3.208 3.865 5.416 7.204 5.416h7.269c5.453 0 9.89 4.437 9.89 9.89s-4.437 9.89-9.89 9.89h-56.183c-2.375 0-4.307-1.932-4.307-4.307s1.932-4.308 4.307-4.308z" fill="#17669f" data-original="#000000" style=""/><path d="m426.16 112.437h64.735c11.637 0 21.104-9.468 21.104-21.105 0-10.514-7.728-19.257-17.802-20.847-.936-17.991-15.866-32.342-34.086-32.342-13.144 0-25.058 7.67-30.695 19.219h-3.257c-15.185 0-27.538 12.353-27.538 27.537s12.355 27.538 27.539 27.538zm0-40.075h8.374c3.339 0 6.276-2.208 7.204-5.416 2.353-8.127 9.907-13.804 18.374-13.804 10.55 0 19.132 8.583 19.132 19.132v5.452c0 4.142 3.357 7.5 7.5 7.5h4.151c3.366 0 6.104 2.739 6.104 6.105s-2.738 6.105-6.104 6.105h-64.735c-6.913 0-12.538-5.625-12.538-12.538s5.625-12.536 12.538-12.536z" fill="#17669f" data-original="#000000" style=""/><path d="m504.5 496.799h-6.768c-1.014-53.63-12.987-124.238-24.829-168.307-.688-2.562-2.68-4.57-5.236-5.28-.868-.241-20.855-5.702-63.723-10.557-2.765-93.42-6.917-186.177-10.892-254.054-.825-14.097-9.064-26.96-21.503-33.572-21.307-11.327-58.651-24.828-115.551-24.828-56.898 0-94.243 13.501-115.551 24.828-12.438 6.611-20.677 19.474-21.503 33.571-3.975 67.881-8.127 160.638-10.892 254.055-42.865 4.856-62.852 10.316-63.719 10.557-2.557.71-4.548 2.718-5.236 5.281-7.28 27.098-17.486 76.461-22.293 126.397-.396 4.124 2.624 7.788 6.747 8.184.244.023.487.035.728.035 3.818 0 7.083-2.903 7.457-6.782.379-3.935.794-7.864 1.236-11.78 15.578-.951 39.304-2.147 72.275-3.161-.242 19.04-.387 37.59-.42 55.412h-75.558c.071-3.657.188-7.438.363-11.343.187-4.138-3.018-7.643-7.156-7.829-4.102-.179-7.643 3.018-7.828 7.156-.186 4.135-.309 8.142-.381 12.016h-6.767c-4.143 0-7.5 3.358-7.5 7.5s3.357 7.5 7.5 7.5h497c4.143 0 7.5-3.358 7.5-7.5s-3.357-7.499-7.5-7.499zm-375.697-337.555c2.202-3.915 6.518-7.325 12.056-9.468 38.084-14.693 83.635-17.776 115.141-17.776 19.294 0 37.774 1.136 54.929 3.377 4.108.536 7.872-2.358 8.408-6.466.537-4.107-2.357-7.872-6.465-8.408-17.797-2.325-36.932-3.503-56.872-3.503-59.39 0-98.33 10.214-120.547 18.785-2.002.775-3.897 1.667-5.686 2.657.643-13.543 1.297-26.638 1.953-39.181 2.122-6.52 6.74-12.057 12.781-15.269 20.35-10.818 56.213-23.713 111.499-23.713 55.296 0 91.148 12.895 111.492 23.714 6.061 3.218 10.681 8.769 12.787 15.305.656 12.53 1.308 25.611 1.951 39.138-1.796-.991-3.698-1.884-5.707-2.657-10.066-3.872-21.311-7.221-33.42-9.956-4.046-.913-8.057 1.624-8.968 5.664-.913 4.041 1.623 8.055 5.663 8.968 11.405 2.575 21.949 5.712 31.339 9.324 5.536 2.129 9.849 5.534 12.057 9.458.861 19.045 1.697 38.819 2.49 59.045-1.922-.769-3.968-1.452-6.131-2.04-22.726-6.192-62.607-13.574-123.552-13.574-60.933 0-100.825 7.381-123.568 13.576-2.158.59-4.2 1.275-6.118 2.045.791-20.225 1.627-39.999 2.488-59.045zm348.36 270.165c-15.798-.935-39.035-2.069-70.623-3.035-.222-14.629-.497-29.502-.82-44.517 28.425.865 49.852 1.873 64.295 2.676 2.686 14.456 5.132 29.657 7.148 44.876zm-351.519-193.678c2.472-2.005 6.233-3.783 10.737-5.015 21.853-5.952 60.345-13.046 119.619-13.046 59.285 0 97.767 7.095 119.613 13.048 4.517 1.227 8.276 3 10.739 5.001.813 21.697 1.573 43.814 2.257 66.025-2.344-.554-4.889-1.039-7.676-1.438-22.943-3.287-63.242-7.206-124.933-7.206-61.68 0-101.989 3.918-124.947 7.206-2.783.4-5.324.887-7.666 1.441.685-22.207 1.444-44.322 2.257-66.016zm-2.732 81.875c2.375-.838 5.811-1.811 10.272-2.452 22.472-3.218 62.02-7.054 122.816-7.054 60.809 0 100.346 3.836 122.809 7.054 4.465.638 7.899 1.609 10.276 2.448.78 26.785 1.442 53.588 1.952 79.843-2.982-.759-6.374-1.394-10.209-1.886-22.92-2.954-63.182-6.475-124.828-6.475-61.635 0-101.907 3.521-124.842 6.475-3.83.495-7.219 1.132-10.199 1.891.51-26.255 1.173-53.058 1.953-79.844zm283.838 123.782c32.967 1.014 56.691 2.209 72.27 3.16 2.053 18.176 3.395 36.009 3.711 52.251h-75.561c-.033-17.822-.178-36.372-.42-55.411zm52.795-104.725c2.552 9.858 5.092 20.906 7.507 32.686-14.546-.778-35.103-1.707-61.668-2.509-.303-12.956-.639-25.99-1.003-39.037 29.523 3.424 47.61 7.125 55.164 8.86zm-312.058-298.389c19.802-10.526 54.702-23.073 108.511-23.073 53.811 0 88.71 12.547 108.512 23.073 7.848 4.171 13.047 12.296 13.568 21.203.266 4.539.532 9.201.799 13.955-1.39-.978-2.836-1.883-4.346-2.685-21.845-11.618-60.143-25.468-118.531-25.468-58.376 0-96.684 13.849-118.54 25.468-1.508.802-2.952 1.706-4.34 2.684.267-4.754.533-9.416.799-13.955.521-8.906 5.72-17.031 13.568-21.202zm-39.871 289.529c-.365 13.047-.7 26.08-1.003 39.036-26.54.801-47.084 1.73-61.627 2.507 2.564-12.509 5.14-23.631 7.472-32.684 7.56-1.735 25.645-5.435 55.158-8.859zm-72.781 101.606c2.086-15.691 4.573-30.894 7.18-44.878 14.442-.802 35.858-1.81 64.261-2.674-.323 15.016-.598 29.889-.82 44.518-31.588.965-54.824 2.099-70.621 3.034zm85.834-16.163c1.866-.759 5.618-1.931 12.409-2.81 22.496-2.897 62.083-6.352 122.922-6.352 60.851 0 100.427 3.454 122.913 6.352 6.81.875 10.557 2.047 12.414 2.804.497 28.943.795 57.057.843 83.56h-80.227c-.454-22.25-2.758-49.814-5.047-67.565-.371-5.095-4.994-6.514-7.803-7.375-2.508-.77-5.394-1.478-8.577-2.106-9.859-1.945-21.472-2.932-34.516-2.932-31.445 0-45.758 5.924-46.352 6.176-2.449 1.04-4.163 3.299-4.506 5.938-2.303 17.739-4.63 45.489-5.086 67.864h-80.23c.049-26.5.346-54.613.843-83.554zm127.831 83.553h-33.44c.416-19.84 2.334-44.001 4.371-61.192 4.876-1.276 14.37-3.158 29.069-3.657zm15-64.849c14.699.499 24.193 2.381 29.068 3.657 2.035 17.19 3.955 41.353 4.37 61.192h-33.438z" fill="#17669f" data-original="#000000" style=""/></g></g></svg>
