<?xml version="1.0"?>
<svg xmlns="http://www.w3.org/2000/svg" xmlns:xlink="http://www.w3.org/1999/xlink" xmlns:svgjs="http://svgjs.com/svgjs" version="1.1" width="512" height="512" x="0" y="0" viewBox="0 0 128 128" style="enable-background:new 0 0 512 512" xml:space="preserve"><g><path xmlns="http://www.w3.org/2000/svg" d="m9.9 91.8c.7 0 1.3-.6 1.3-1.3v-28.2c0-2.9 2.4-5.3 5.3-5.3h11c.7 0 1.3-.6 1.3-1.3s-.6-1.3-1.3-1.3h-11c-4.4 0-8 3.6-8 8v28.1c.1.7.7 1.3 1.4 1.3zm8.8-22.2c-.5.5-.6 1.4 0 1.9 5.4 5.6 11.4 7.1 21.1.6.6-.4.8-1.2.3-1.9-.4-.6-1.2-.8-1.9-.3-8.8 6.1-13.3 3.9-16.7.7l42.9-40.6c.1 0 2.9 1.9 6 1.9-2.6 5.1-6.7 11.3-11.8 17.6-.5.6-.4 1.4.2 1.9s1.4.4 1.9-.2c5.8-7.3 10.4-14.4 13-20.1.7-.3 1.4-.7 2-1.2l22.9-18.6c3-2.4 2.9-7 .6-9.3-2.4-2.5-6.4-2.6-9-.2-.1.1-71.4 67.7-71.5 67.8zm73.4-65.9c1.5-1.4 3.8-1.3 5.2.1 1.6 1.9 1 4.4-.3 5.4l-23 18.6c-3.6 3-7.6.3-7.7.3zm-47.8 50.6c-.7 0-1.3.6-1.3 1.3v24.7c0 .7.6 1.3 1.3 1.3s1.3-.6 1.3-1.3v-23.3h65.8c2.9 0 5.3 2.4 5.3 5.3v28.1c0 .7.6 1.3 1.3 1.3s1.3-.6 1.3-1.3v-28.1c0-4.4-3.6-8-8-8-8.8 0-57 0-67 0zm77.6 40.2h-115.8c-3.4 0-6.1 2.7-6.1 6.1s2.7 6.1 6.1 6.1h1.5c2.7 12.4 13.7 21.3 26.5 21.3h59.7c12.8 0 23.8-8.9 26.5-21.3h1.5c3.4 0 6.1-2.7 6.1-6.1.1-3.4-2.6-6.1-6-6.1zm-28 30.8h-59.8c-11.4 0-21.2-7.8-23.8-18.7h107.4c-2.7 11-12.5 18.7-23.8 18.7zm28-21.3c-37.6 0-78.1 0-115.8 0-1.9 0-3.4-1.5-3.4-3.4s1.5-3.4 3.4-3.4h115.8c1.9 0 3.4 1.5 3.4 3.4s-1.5 3.4-3.4 3.4z" fill="#c7ad1d" data-original="#000000" style=""/></g></svg>
