<?xml version="1.0"?>
<svg xmlns="http://www.w3.org/2000/svg" xmlns:xlink="http://www.w3.org/1999/xlink" xmlns:svgjs="http://svgjs.com/svgjs" version="1.1" width="512" height="512" x="0" y="0" viewBox="0 0 612 792" style="enable-background:new 0 0 512 512" xml:space="preserve" class=""><g><g xmlns="http://www.w3.org/2000/svg"><g><path d="m585.2 147.1h-101c-.2-13.9-11.4-25-25.2-25-13.9 0-25.1 11.2-25.3 25h-101c-7 0-11.2 7.8-7.2 13.6 20.6 30 57.1 47.2 108.2 30.5v26.5c-10.5.3-18.9 8.8-18.9 19.3v15.2c0 4.8 3.9 8.7 8.7 8.7s8.7-3.9 8.7-8.7v-15.2c0-1 .9-1.9 1.9-1.9h49.5c1 0 1.9.9 1.9 1.9v50.4h-53.3v-4.6c0-4.8-3.9-8.7-8.7-8.7s-8.7 3.9-8.7 8.7v4.6h-217.7v-3.4c0-4.8-3.9-8.7-8.7-8.7-4.9 0-8.7 3.9-8.7 8.7v3.3h-53.3v-50.3c0-1 .9-1.9 1.9-1.9h49.4c1.1 0 2 .9 2 1.9v12.7c0 4.9 3.8 8.7 8.7 8.7 4.8 0 8.7-3.8 8.7-8.7v-12.7c0-10.5-8.5-19-18.9-19.3v-26.5c49.6 16.4 87.1.4 108.1-30.5 1.8-2.7 2.1-6.1.5-9-1.5-2.9-4.5-4.6-7.7-4.6h-101c-.2-13.9-11.4-25-25.3-25-13.8 0-25 11.2-25.3 25h-101c-3.2 0-6.2 1.7-7.7 4.6s-1.3 6.3.5 9c21 30.6 58.2 47 108.1 30.5v26.5c-10.4.3-18.8 8.8-18.8 19.3v50.4h-26.1c-20 0-36.3 16.3-36.3 36.4 0 20 16.3 36.3 36.3 36.3h65.5c-43.3 26.3-106.3 89.1-96.4 229.3h-19.8c-4.8 0-8.7 3.9-8.7 8.7s3.9 8.7 8.7 8.7h54.5c4.9 0 8.7-3.9 8.7-8.7s-3.8-8.7-8.7-8.7h-17.2c-12.8-173.4 88.6-218.9 115.1-227.7l22.4 36.6c5.1 12.2 17.2 20.4 30.5 20.4h26.2v27.3h-73.9c-23.1 0-42 18.9-42 42v39.2c0 4.8 3.9 8.7 8.7 8.7s8.7-3.9 8.7-8.7v-39.2c0-13.5 11-24.5 24.5-24.5h220.5c13.5 0 24.5 11 24.5 24.5v140c0 13.5-11 24.5-24.5 24.5h-220.4c-13.5 0-24.5-11-24.5-24.5v-74c0-4.8-3.9-8.7-8.7-8.7s-8.7 3.9-8.7 8.7v74c0 23.1 18.9 42 42 42h220.5c23.1 0 42-18.9 42-42v-140.1c0-23.1-18.9-42-42-42h-73.9v-27.3h26.2c13.5 0 25.9-8.6 30.7-21.2 1.7-4.5-.5-9.6-5-11.3s-9.6.5-11.3 5c-2.4 6-8.1 10-14.5 10h-125c-6.4 0-12.1-4-14.5-10-.2-.5-.4-1-.7-1.4l-26.4-42.9c-1.6-2.6-4.4-4.2-7.4-4.2h-105.7c-10.4 0-18.9-8.5-18.9-18.9s8.5-18.9 18.9-18.9h434.1c10.4 0 18.9 8.5 18.9 18.9s-8.5 18.9-18.9 18.9h-105.6c-3.1 0-5.8 1.6-7.4 4.2l-11.1 18c-2.5 4.1-1.2 9.5 2.9 12s9.5 1.2 12-2.9l7.5-12.4c26.3 8.7 128.2 54 115.4 227.8h-17.3c-4.8 0-8.7 3.9-8.7 8.7s3.9 8.7 8.7 8.7h54.5c4.8 0 8.7-3.9 8.7-8.7s-3.9-8.7-8.7-8.7h-19.7c9.9-140.1-53.2-203-96.4-229.3h65.2c20 0 36.3-16.3 36.3-36.4 0-20-16.3-36.3-36.3-36.3h-13.5v-50.3c0-10.5-8.4-19-18.8-19.3v-26.5c48.9 16.1 86.5 1.1 108.1-30.5 3.9-5.7.1-13.6-7.2-13.6zm-151.5 25.7c-13.8 4.4-48.3 19.5-81.4-8.3h81.4zm33.2 44.8h-15.7v-70.3c0-4.3 3.5-7.9 7.9-7.9 4.3 0 7.9 3.6 7.9 7.9v70.3zm-288.6-53.1h81.4c-33 27.8-67.8 12.7-81.4 8.3zm-33.2-17.1c0-4.3 3.5-7.9 7.9-7.9s7.9 3.6 7.9 7.9v70.3h-15.7v-70.3zm-98.8 17.1h81.3v8.3c-13.7 4.5-48.2 19.6-81.3-8.3zm234.4 254.1h37.7v25.8h-37.7zm203.6-245.8v-8.3h81.3c-32.5 27.5-66.5 13.1-81.3 8.3z" fill="#97179b" data-original="#000000" style=""/><path d="m248.3 491.3c-20.8 16-32.8 40.3-32.8 66.6 0 46.3 37.7 84 84 84s84-37.7 84-84-37.7-84-84-84c-6.5 0-12.9.7-19.1 2.2-4.7 1.1-7.6 5.8-6.5 10.5s5.8 7.6 10.5 6.5c4.9-1.2 10-1.7 15.2-1.7 36.7 0 66.6 29.9 66.6 66.6s-29.9 66.6-66.6 66.6-66.6-29.9-66.6-66.7c0-20.8 9.5-40.1 26-52.8 3.8-2.9 4.5-8.4 1.6-12.2-3-3.8-8.5-4.5-12.3-1.6z" fill="#97179b" data-original="#000000" style=""/><path d="m299.5 597.5c21.8 0 39.5-17.7 39.5-39.5s-17.4-39.6-39.5-39.6c-21.8 0-39.5 17.8-39.5 39.6 0 21.6 17.8 39.5 39.5 39.5zm0-61.7c11.8 0 22.1 9.6 22.1 22.2 0 12.2-9.9 22.1-22.1 22.1-12.6 0-22.1-10.8-22.1-22.1.1-12.2 10-22.2 22.1-22.2z" fill="#97179b" data-original="#000000" style=""/><path d="m249.5 345.1c-4.8 0-8.7 3.9-8.7 8.7s3.9 8.7 8.7 8.7h57.1c4.8 0 8.7-3.9 8.7-8.7s-3.9-8.7-8.7-8.7z" fill="#97179b" data-original="#000000" style=""/><path d="m338.1 345.1c-4.8 0-8.7 3.9-8.7 8.7s3.9 8.7 8.7 8.7h11.6c4.8 0 8.7-3.9 8.7-8.7s-3.9-8.7-8.7-8.7z" fill="#97179b" data-original="#000000" style=""/></g></g></g></svg>
