<?xml version="1.0"?>
<svg xmlns="http://www.w3.org/2000/svg" xmlns:xlink="http://www.w3.org/1999/xlink" xmlns:svgjs="http://svgjs.com/svgjs" version="1.1" width="512" height="512" x="0" y="0" viewBox="0 0 512 512" style="enable-background:new 0 0 512 512" xml:space="preserve"><g><path xmlns="http://www.w3.org/2000/svg" d="m113.5 153.519531h26c5.238281 0 9.5-4.261719 9.5-9.5v-32.003906c0-5.238281-4.261719-9.5-9.5-9.5h-26c-5.238281 0-9.5 4.261719-9.5 9.5v32.003906c0 5.238281 4.261719 9.5 9.5 9.5zm5.5-36.003906h15v21.003906h-15zm0 0" fill="#7f15c7" data-original="#000000" style=""/><path xmlns="http://www.w3.org/2000/svg" d="m186.5 153.519531h26c5.238281 0 9.5-4.261719 9.5-9.5v-32.003906c0-5.238281-4.261719-9.5-9.5-9.5h-26c-5.238281 0-9.5 4.261719-9.5 9.5v32.003906c0 5.238281 4.261719 9.5 9.5 9.5zm5.5-36.003906h15v21.003906h-15zm0 0" fill="#7f15c7" data-original="#000000" style=""/><path xmlns="http://www.w3.org/2000/svg" d="m113.5 220.132812h26c5.238281 0 9.5-4.261718 9.5-9.5v-32.003906c0-5.238281-4.261719-9.5-9.5-9.5h-26c-5.238281 0-9.5 4.261719-9.5 9.5v32.003906c0 5.238282 4.261719 9.5 9.5 9.5zm5.5-36.003906h15v21.003906h-15zm0 0" fill="#7f15c7" data-original="#000000" style=""/><path xmlns="http://www.w3.org/2000/svg" d="m186.5 220.132812h26c5.238281 0 9.5-4.261718 9.5-9.5v-32.003906c0-5.238281-4.261719-9.5-9.5-9.5h-26c-5.238281 0-9.5 4.261719-9.5 9.5v32.003906c0 5.238282 4.261719 9.5 9.5 9.5zm5.5-36.003906h15v21.003906h-15zm0 0" fill="#7f15c7" data-original="#000000" style=""/><path xmlns="http://www.w3.org/2000/svg" d="m299.5 216.441406h26c5.238281 0 9.5-4.261718 9.5-9.503906v-32.003906c0-5.238282-4.261719-9.5-9.5-9.5h-26c-5.238281 0-9.5 4.261718-9.5 9.5v32.003906c0 5.242188 4.261719 9.503906 9.5 9.503906zm5.5-36.007812h15v21.007812h-15zm0 0" fill="#7f15c7" data-original="#000000" style=""/><path xmlns="http://www.w3.org/2000/svg" d="m372.5 216.441406h26c5.238281 0 9.5-4.261718 9.5-9.503906v-32.003906c0-5.238282-4.261719-9.5-9.5-9.5h-26c-5.238281 0-9.5 4.261718-9.5 9.5v32.003906c0 5.242188 4.261719 9.503906 9.5 9.503906zm5.5-36.007812h15v21.007812h-15zm0 0" fill="#7f15c7" data-original="#000000" style=""/><path xmlns="http://www.w3.org/2000/svg" d="m299.5 283.054688h26c5.238281 0 9.5-4.261719 9.5-9.5v-32.003907c0-5.242187-4.261719-9.503906-9.5-9.503906h-26c-5.238281 0-9.5 4.261719-9.5 9.503906v32.003907c0 5.238281 4.261719 9.5 9.5 9.5zm5.5-36.007813h15v21.007813h-15zm0 0" fill="#7f15c7" data-original="#000000" style=""/><path xmlns="http://www.w3.org/2000/svg" d="m372.5 283.054688h26c5.238281 0 9.5-4.261719 9.5-9.5v-32.003907c0-5.242187-4.261719-9.503906-9.5-9.503906h-26c-5.238281 0-9.5 4.261719-9.5 9.503906v32.003907c0 5.238281 4.261719 9.5 9.5 9.5zm5.5-36.007813h15v21.007813h-15zm0 0" fill="#7f15c7" data-original="#000000" style=""/><path xmlns="http://www.w3.org/2000/svg" d="m113.5 286.746094h26c5.238281 0 9.5-4.261719 9.5-9.5v-32.003906c0-5.238282-4.261719-9.5-9.5-9.5h-26c-5.238281 0-9.5 4.261718-9.5 9.5v32.003906c0 5.238281 4.261719 9.5 9.5 9.5zm5.5-36.003906h15v21.003906h-15zm0 0" fill="#7f15c7" data-original="#000000" style=""/><path xmlns="http://www.w3.org/2000/svg" d="m186.5 286.746094h26c5.238281 0 9.5-4.261719 9.5-9.5v-32.003906c0-5.238282-4.261719-9.5-9.5-9.5h-26c-5.238281 0-9.5 4.261718-9.5 9.5v32.003906c0 5.238281 4.261719 9.5 9.5 9.5zm5.5-36.003906h15v21.003906h-15zm0 0" fill="#7f15c7" data-original="#000000" style=""/><path xmlns="http://www.w3.org/2000/svg" d="m504.5 0h-62.5c-4.144531 0-7.5 3.355469-7.5 7.5v94.957031l-65.164062-52.707031c-1.332032-1.082031-3-1.671875-4.714844-1.671875h-31.242188c-1.714844 0-3.382812.589844-4.714844 1.671875l-16.933593 13.695312c-3.21875 2.601563-3.71875 7.324219-1.113281 10.546876 2.605468 3.21875 7.328124 3.722656 10.546874 1.113281l14.867188-12.027344h25.9375l58.832031 47.59375h-43.269531c-3.324219-12.652344-14.855469-22.011719-28.53125-22.011719s-25.207031 9.359375-28.53125 22.011719h-43.269531l19.089843-15.441406c3.21875-2.605469 3.71875-7.328125 1.113282-10.550781-2.605469-3.21875-7.328125-3.71875-10.546875-1.113282l-23.355469 18.890625v-78.152343c0-4.144532-3.355469-7.5-7.5-7.5h-186c-4.140625 0-7.5 3.355468-7.5 7.5v64.355468h-55c-4.140625 0-7.5 3.359375-7.5 7.5v378.335938c0 20.679687 16.820312 37.503906 37.5 37.503906h437c20.679688 0 37.5-16.824219 37.5-37.503906 0-20.148438 0-447.449219 0-466.996094 0-4.144531-3.355469-7.5-7.5-7.5zm-7.5 248.316406h-15v-21.003906h15zm0-86.542968h-15v-21.003907h15zm0-86.542969h-15v-21.003907h15zm-148 28.429687c7.996094 0 14.5 6.507813 14.5 14.503906 0 8-6.503906 14.503907-14.5 14.503907s-14.5-6.503907-14.5-14.503907c0-7.996093 6.503906-14.503906 14.5-14.503906zm-28.53125 22.011719c3.328125 12.644531 14.855469 21.996094 28.53125 21.996094s25.203125-9.351563 28.53125-21.996094h56.96875v130.328125c0 4.144531 3.355469 7.5 7.5 7.5s7.5-3.355469 7.5-7.5v-241h47.5v24.226562h-20.5c-5.238281 0-9.5 4.261719-9.5 9.5v32.007813c0 5.238281 4.261719 9.5 9.5 9.5h20.5v35.535156h-20.5c-5.238281 0-9.5 4.261719-9.5 9.5v32.003907c0 5.238281 4.261719 9.5 9.5 9.5h20.5v35.539062h-20.5c-5.238281 0-9.5 4.261719-9.5 9.5v32.003906c0 5.238282 4.261719 9.5 9.5 9.5h20.5v54.140625h-47.5v-29.128906c0-4.144531-3.355469-7.5-7.5-7.5s-7.5 3.355469-7.5 7.5v29.132813h-171v-191.789063zm-305.46875 94.460937h15v21.007813h-15zm233.5 97.324219h-171v-245.652343h171zm-171-285.652343h171v25h-171zm-15 71.855468v213.796875h-47.5v-61.316406h20.5c5.238281 0 9.5-4.261719 9.5-9.5v-32.007813c0-5.238281-4.261719-9.5-9.5-9.5h-20.5v-23.550781h20.5c5.238281 0 9.5-4.261719 9.5-9.5v-32.007812c0-5.234375-4.261719-9.5-9.5-9.5h-20.5v-26.914063zm-47.5 41.914063h15v21.007812h-15zm482 328.921875c0 12.410156-10.09375 22.503906-22.5 22.503906h-437c-12.40625 0-22.5-10.09375-22.5-22.503906v-87.59375c3.109375 1.222656 5.511719 3.234375 8.390625 5.648437 5.542969 4.640625 12.445313 10.421875 25.523437 10.421875 5.082032 0 9.582032-.859375 13.753907-2.628906 3.816406-1.613281 5.597656-6.015625 3.984375-9.828125-1.617188-3.816406-6.019532-5.601563-9.832032-3.984375-2.289062.96875-4.875 1.441406-7.910156 1.441406-7.625 0-11.089844-2.90625-15.890625-6.921875-4.371093-3.664062-9.597656-8.019531-18.019531-9.703125v-38.886718h482v38.886718c-8.425781 1.683594-13.65625 6.039063-18.027344 9.703125-4.800781 4.015625-8.265625 6.921875-15.898437 6.921875-7.628907 0-11.097657-2.90625-15.894531-6.921875-5.542969-4.644531-12.445313-10.421875-25.527344-10.421875-13.078125 0-19.976563 5.777344-25.523438 10.421875-4.796875 4.015625-8.265625 6.921875-15.890625 6.921875-7.628906 0-11.097656-2.90625-15.894531-6.921875-5.542969-4.644531-12.445312-10.421875-25.527344-10.421875-13.078125 0-19.976562 5.777344-25.519531 10.421875-4.800781 4.015625-8.265625 6.921875-15.894531 6.921875s-11.09375-2.90625-15.894532-6.921875c-5.542968-4.644531-12.441406-10.421875-25.523437-10.421875-13.078125 0-19.976563 5.777344-25.519531 10.421875-4.796875 4.015625-8.261719 6.921875-15.890625 6.921875-7.628907 0-11.09375-2.90625-15.890625-6.921875-5.542969-4.644531-12.445313-10.421875-25.523438-10.421875-13.082031 0-19.980468 5.777344-25.523437 10.421875-4.800781 4.015625-8.265625 6.921875-15.894531 6.921875-7.628907 0-11.09375-2.90625-15.890626-6.921875-5.546874-4.644531-12.445312-10.421875-25.527343-10.421875-1.121094 0-2.234375.042969-3.316407.128906-4.128906.332032-7.207031 3.945313-6.875 8.074219.332032 4.128907 3.9375 7.191407 8.074219 6.878907.683594-.058594 1.398438-.082032 2.121094-.082032 7.625 0 11.09375 2.902344 15.890625 6.921875 5.546875 4.640625 12.445312 10.421875 25.523438 10.421875 13.082031 0 19.980468-5.78125 25.523437-10.421875 4.796875-4.019531 8.265625-6.921875 15.894531-6.921875 7.625 0 11.09375 2.902344 15.890625 6.921875 5.542969 4.640625 12.445313 10.421875 25.523438 10.421875s19.976562-5.78125 25.519531-10.425781c4.796875-4.015625 8.265625-6.917969 15.890625-6.917969 7.628906 0 11.09375 2.902344 15.894531 6.921875 5.542969 4.640625 12.441406 10.421875 25.523438 10.421875 13.078125 0 19.976562-5.78125 25.523437-10.421875 4.796875-4.019531 8.261719-6.921875 15.890625-6.921875s11.097656 2.902344 15.894532 6.921875c5.546874 4.640625 12.445312 10.421875 25.523437 10.421875 13.082031 0 19.980469-5.78125 25.523437-10.421875 4.800782-4.019531 8.265626-6.921875 15.894532-6.921875s11.097656 2.902344 15.898437 6.921875c5.542969 4.640625 12.441407 10.421875 25.523438 10.421875s19.984375-5.78125 25.527343-10.421875c2.882813-2.414062 5.285157-4.425781 8.394532-5.648437v87.59375zm0 0" fill="#7f15c7" data-original="#000000" style=""/></g></svg>
