<?xml version="1.0"?>
<svg xmlns="http://www.w3.org/2000/svg" xmlns:xlink="http://www.w3.org/1999/xlink" xmlns:svgjs="http://svgjs.com/svgjs" version="1.1" width="512" height="512" x="0" y="0" viewBox="0 0 511.998 511.998" style="enable-background:new 0 0 512 512" xml:space="preserve" class=""><g>
<g xmlns="http://www.w3.org/2000/svg">
	<g>
		<path d="M387.278,265.418h-17.351v-3.402c0-13.067-10.632-23.699-23.699-23.699h-17.999c-8.097,0-15.254,4.083-19.531,10.296    h-28.884c-3.58-5.199-9.18-8.904-15.658-9.974l-28.45-45.087c24.652-28.03,29.136-70.055,8.231-103.185l-9.835-15.587    c-2.21-3.504-6.844-4.553-10.346-2.341c-3.503,2.21-4.552,6.842-2.341,10.346l9.835,15.587    c24.177,38.315,6.893,89.506-35.941,105.176c-30.884,11.26-66.583-0.07-84.822-28.974l-31.442-49.828    c5.198-3.279,115.49-72.874,120.764-76.202l8.669,13.737c2.21,3.503,6.841,4.551,10.346,2.341    c3.503-2.21,4.552-6.842,2.341-10.346l-9.454-14.982c6.079-7.873,6.944-19.034,1.336-27.927C208.553,4.249,200.842,0,192.416,0    c-4.598,0-9.091,1.301-12.991,3.763l-46.974,29.641C129.53,16.219,110.05,7.634,95.4,16.878    c-14.612,9.224-15.318,30.469-1.024,40.552L47.397,87.072c-22.803,14.393-8.469,50.223,18.177,44.436l32.225,51.07    c20.912,33.144,60.776,47.196,96.692,37.007l11.821,18.731H93.864c-13.067,0-23.699,10.632-23.699,23.699v3.402H46.821    c-1.609-10.696-10.86-18.923-21.997-18.923c-12.268,0-22.247,9.981-22.247,22.248v37.847c0,12.267,9.98,22.246,22.247,22.246    c11.138,0,20.388-8.228,21.997-18.923h23.345v3.402c0,12.626,9.924,22.976,22.38,23.662    c-19.212,43.067-28.951,88.011-28.951,133.775c0,22.745,18.504,41.249,41.249,41.249c22.745,0,41.249-18.504,41.249-41.249    c0-25.692,4.165-51.254,12.379-75.979c1.307-3.931-0.821-8.177-4.753-9.482c-3.927-1.308-8.177,0.821-9.483,4.753    c-8.723,26.253-13.144,53.407-13.144,80.708c0,14.473-11.775,26.248-26.248,26.248c-14.473,0-26.248-11.776-26.248-26.248    c0-45.789,10.232-90.758,30.421-133.736h59.247c-5.608,9.694-10.614,19.548-14.942,29.423c-1.663,3.794,0.064,8.218,3.858,9.881    c3.79,1.663,8.218-0.065,9.881-3.858c5.227-11.924,11.514-23.828,18.692-35.444h11.259c0.504,25.72,5.847,59.354,26.173,86.648    c7.945,10.668,23.202,13.119,34.107,4.991c10.805-8.044,13.042-23.302,4.992-34.106c-12.572-16.881-16.087-39.444-16.505-57.532    h14.505c8.144,0,15.34-4.13,19.607-10.405h28.73c4.268,6.274,11.465,10.405,19.608,10.405h17.999    c13.067,0,23.699-10.633,23.699-23.701v-3.402h17.351c12.268,0,22.248-9.979,22.248-22.245    C409.527,275.399,399.546,265.418,387.278,265.418z M103.406,29.564c7.049-4.446,15.985,1.865,14.146,9.996    c-1.837,8.113-12.607,10.008-17.069,2.933C97.717,38.11,99.025,32.329,103.406,29.564z M60.421,117.062    c-9.352,0-12.951-12.296-5.018-17.304c5.974-3.77,126.066-79.547,132.027-83.309c1.502-0.947,3.226-1.448,4.986-1.448    c3.246,0,6.215,1.635,7.942,4.371c2.759,4.372,1.447,10.174-2.925,12.932C54.837,122.283,64.415,117.062,60.421,117.062z     M32.069,306.589c0,3.994-3.25,7.244-7.245,7.244c-3.995,0-7.246-3.25-7.246-7.244v-37.847c0-3.995,3.251-7.246,7.246-7.246    c3.994,0,7.245,3.251,7.245,7.246V306.589z M70.166,294.91H47.071v-14.491h23.095V294.91z M224.626,204.103l21.59,34.214H224.05    l-15.274-24.203C213.923,211.598,219.472,208.198,224.626,204.103z M250.253,403.508c1.495,2.007,2.119,4.477,1.757,6.954    c-1.211,8.278-11.84,10.896-16.793,4.24c-17.927-24.074-22.714-54.325-23.203-77.688h18.762    C231.219,357.491,235.307,383.438,250.253,403.508z M268.365,316.511c-1.276,3.218-4.414,5.503-8.082,5.503    c-4.684,0-161.042,0-166.419,0c-4.796,0-8.698-3.902-8.698-8.7c0-10.827,0-39.968,0-51.299c0-4.796,3.901-8.698,8.698-8.698    h126.05c21.208,0,30.515,0,40.37,0c4.896,0,8.698,4.025,8.698,8.698C268.981,318.204,269.215,314.177,268.365,316.511z     M304.53,311.609h-20.547v-47.995h20.547C304.53,287.045,304.53,290.281,304.53,311.609z M320.167,258.767    c1.29-3.189,4.416-5.448,8.064-5.448h17.999c4.796,0,8.698,3.901,8.698,8.698v3.402h-35.396    C319.531,261.728,319.377,260.855,320.167,258.767z M354.927,280.419v14.491h-35.396v-14.491H354.927z M354.928,313.313    c-0.001,4.798-3.903,8.701-8.699,8.701H328.23c-3.583,0-6.806-2.2-8.11-5.593c-0.736-1.917-0.589-3.075-0.589-6.509h35.396    V313.313z M387.278,294.911h-17.351v-14.492h17.351c3.995,0,7.247,3.251,7.247,7.246    C394.526,291.661,391.275,294.911,387.278,294.911z" fill="#0c0d7a" data-original="#000000" style="" class=""/>
	</g>
</g>
<g xmlns="http://www.w3.org/2000/svg">
	<g>
		<path d="M501.92,280.111h-69.522c-4.143,0-7.501,3.357-7.501,7.5s3.357,7.5,7.501,7.5h69.522c4.143,0,7.501-3.357,7.501-7.5    S506.064,280.111,501.92,280.111z" fill="#0c0d7a" data-original="#000000" style="" class=""/>
	</g>
</g>
<g xmlns="http://www.w3.org/2000/svg">
	<g>
		<path d="M499.282,228.257c-1.623-3.809-6.025-5.58-9.842-3.956l-63.948,27.272c-3.81,1.624-5.581,6.03-3.956,9.842    c1.62,3.801,6.021,5.584,9.842,3.956l63.948-27.272C499.136,236.474,500.907,232.068,499.282,228.257z" fill="#0c0d7a" data-original="#000000" style="" class=""/>
	</g>
</g>
<g xmlns="http://www.w3.org/2000/svg">
	<g>
		<path d="M495.326,337.123l-63.948-27.272c-3.813-1.627-8.218,0.148-9.842,3.956c-1.625,3.811,0.146,8.218,3.956,9.842    l63.948,27.272c0.96,0.41,1.958,0.603,2.939,0.603c2.915,0,5.688-1.71,6.902-4.56    C500.908,343.154,499.136,338.747,495.326,337.123z" fill="#0c0d7a" data-original="#000000" style="" class=""/>
	</g>
</g>
<g xmlns="http://www.w3.org/2000/svg">
</g>
<g xmlns="http://www.w3.org/2000/svg">
</g>
<g xmlns="http://www.w3.org/2000/svg">
</g>
<g xmlns="http://www.w3.org/2000/svg">
</g>
<g xmlns="http://www.w3.org/2000/svg">
</g>
<g xmlns="http://www.w3.org/2000/svg">
</g>
<g xmlns="http://www.w3.org/2000/svg">
</g>
<g xmlns="http://www.w3.org/2000/svg">
</g>
<g xmlns="http://www.w3.org/2000/svg">
</g>
<g xmlns="http://www.w3.org/2000/svg">
</g>
<g xmlns="http://www.w3.org/2000/svg">
</g>
<g xmlns="http://www.w3.org/2000/svg">
</g>
<g xmlns="http://www.w3.org/2000/svg">
</g>
<g xmlns="http://www.w3.org/2000/svg">
</g>
<g xmlns="http://www.w3.org/2000/svg">
</g>
</g></svg>
