<?xml version="1.0"?>
<svg xmlns="http://www.w3.org/2000/svg" xmlns:xlink="http://www.w3.org/1999/xlink" xmlns:svgjs="http://svgjs.com/svgjs" version="1.1" width="512" height="512" x="0" y="0" viewBox="0 0 64 64" style="enable-background:new 0 0 512 512" xml:space="preserve" class=""><g><g xmlns="http://www.w3.org/2000/svg" id="warnning-alarm-door-car-system"><path d="m38 49a3 3 0 0 0 -3 3v2a1 1 0 0 0 1 1h6a3 3 0 0 0 3-3v-2a1 1 0 0 0 -1-1zm5 3a1 1 0 0 1 -1 1h-5v-1a1 1 0 0 1 1-1h5z" fill="#1c57c7" data-original="#000000" style=""/><path d="m14 49h-6a1 1 0 0 0 -1 1v2a3 3 0 0 0 3 3h6a1 1 0 0 0 1-1v-2a3 3 0 0 0 -3-3zm1 4h-5a1 1 0 0 1 -1-1v-1h5a1 1 0 0 1 1 1z" fill="#1c57c7" data-original="#000000" style=""/><path d="m13 24a11 11 0 1 0 -11-11 11.013 11.013 0 0 0 11 11zm0-20a9 9 0 1 1 -9 9 9.01 9.01 0 0 1 9-9z" fill="#1c57c7" data-original="#000000" style=""/><path d="m12 6h2v10h-2z" fill="#1c57c7" data-original="#000000" style=""/><path d="m12 18h2v2h-2z" fill="#1c57c7" data-original="#000000" style=""/><path d="m58 34h-11a1 1 0 0 0 -.707.293l-4 4-.362-1.145a4.976 4.976 0 0 0 -4.639-3.148h-22.584a5 5 0 0 0 -4.668 3.214l-2.74 8.674-1.593-1.595a1 1 0 0 0 -.707-.293h-2v2h1.586l1 1-1.293 1.293a1 1 0 0 0 -.293.707v8a1 1 0 0 0 1 1h1v1a3 3 0 0 0 3 3h2a3 3 0 0 0 3-3v-1h24v1a3 3 0 0 0 3 3h2a3 3 0 0 0 3-3v-1h1a1 1 0 0 0 1-1v-2h14a1 1 0 0 0 1-1v-15a5.006 5.006 0 0 0 -5-5zm-10.586 2h10.586a3 3 0 0 1 3 3v8h-14.586l1-1h1.586v-2h-2a1 1 0 0 0 -.707.293l-1.593 1.595-1.722-5.45zm-35.491 1.886a2.984 2.984 0 0 1 2.785-1.886h22.584a2.968 2.968 0 0 1 2.76 1.815l2.583 8.185h-3.635v-3a3 3 0 0 0 -3-3h-4a3 3 0 0 0 -3 3v3h-6v-3a3 3 0 0 0 -3-3h-4a3 3 0 0 0 -3 3v3h-3.636zm25.077 8.114h-6v-3a1 1 0 0 1 1-1h4a1 1 0 0 1 1 1zm-16 0h-6v-3a1 1 0 0 1 1-1h4a1 1 0 0 1 1 1zm25 10h-1a1 1 0 0 0 -1 1v2a1 1 0 0 1 -1 1h-2a1 1 0 0 1 -1-1v-2a1 1 0 0 0 -1-1h-26a1 1 0 0 0 -1 1v2a1 1 0 0 1 -1 1h-2a1 1 0 0 1 -1-1v-2a1 1 0 0 0 -1-1h-1v-6.586l1.414-1.414h37.172l1.414 1.414zm2-3v-4h13v4z" fill="#1c57c7" data-original="#000000" style=""/><path d="m26 12h2v2h-2z" fill="#1c57c7" data-original="#000000" style=""/><path d="m41 17v15h2v-15a5.006 5.006 0 0 0 -5-5h-8v2h8a3 3 0 0 1 3 3z" fill="#1c57c7" data-original="#000000" style=""/></g></g></svg>
