<?xml version="1.0"?>
<svg xmlns="http://www.w3.org/2000/svg" xmlns:xlink="http://www.w3.org/1999/xlink" xmlns:svgjs="http://svgjs.com/svgjs" version="1.1" width="512" height="512" x="0" y="0" viewBox="0 0 64 64" style="enable-background:new 0 0 512 512" xml:space="preserve" class=""><g><g xmlns="http://www.w3.org/2000/svg" id="Glass"><path d="M32,46C15.0029,46,5.0444,42.0947,4.6284,41.9287a1.0006,1.0006,0,0,1-.5683-1.27l8-22A1,1,0,0,1,13,18H51a1,1,0,0,1,.94.6582l8,22a1.0006,1.0006,0,0,1-.5683,1.27C58.9556,42.0947,48.9971,46,32,46ZM6.2842,40.3955C9.0986,41.3359,18.2808,44,32,44c13.7471,0,22.9077-2.6621,25.7163-3.6035L50.3,20H13.7Z" fill="#1e9d9d" data-original="#000000" style="" class=""/><path d="M23,36a1,1,0,0,1-.707-1.707l10-10a1,1,0,0,1,1.414,1.414l-10,10A.9967.9967,0,0,1,23,36Z" fill="#1e9d9d" data-original="#000000" style="" class=""/><path d="M27,40a1,1,0,0,1-.707-1.707l14-14a1,1,0,0,1,1.414,1.414l-14,14A.9967.9967,0,0,1,27,40Z" fill="#1e9d9d" data-original="#000000" style="" class=""/></g></g></svg>
