<?xml version="1.0"?>
<svg xmlns="http://www.w3.org/2000/svg" xmlns:xlink="http://www.w3.org/1999/xlink" xmlns:svgjs="http://svgjs.com/svgjs" version="1.1" width="512" height="512" x="0" y="0" viewBox="0 0 32 32" style="enable-background:new 0 0 512 512" xml:space="preserve"><g><g xmlns="http://www.w3.org/2000/svg" id="trailer-3" data-name="trailer"><path d="m28 16h-3v-7a1 1 0 0 0 -1-1h-20a1 1 0 0 0 -1 1v10a1 1 0 0 0 1 1h.59l-.3.29a1 1 0 0 0 0 1.42 1 1 0 0 0 1.42 0l1.7-1.71h13.18l1.7 1.71a1 1 0 0 0 1.42 0 1 1 0 0 0 0-1.42l-.3-.29h.59a1 1 0 0 0 1-1v-1h3a1 1 0 0 0 0-2zm-5 2h-18v-8h18z" fill="#bd8a11" data-original="#000000" style=""/><path d="m9 21a3 3 0 1 0 3 3 3 3 0 0 0 -3-3zm0 4a1 1 0 1 1 1-1 1 1 0 0 1 -1 1z" fill="#bd8a11" data-original="#000000" style=""/><path d="m19 21a3 3 0 1 0 3 3 3 3 0 0 0 -3-3zm0 4a1 1 0 1 1 1-1 1 1 0 0 1 -1 1z" fill="#bd8a11" data-original="#000000" style=""/><path d="m14 17a1 1 0 0 0 1-1v-4a1 1 0 0 0 -2 0v4a1 1 0 0 0 1 1z" fill="#bd8a11" data-original="#000000" style=""/><path d="m19 17a1 1 0 0 0 1-1v-4a1 1 0 0 0 -2 0v4a1 1 0 0 0 1 1z" fill="#bd8a11" data-original="#000000" style=""/><path d="m9 17a1 1 0 0 0 1-1v-4a1 1 0 0 0 -2 0v4a1 1 0 0 0 1 1z" fill="#bd8a11" data-original="#000000" style=""/></g></g></svg>
