<?xml version="1.0"?>
<svg xmlns="http://www.w3.org/2000/svg" xmlns:xlink="http://www.w3.org/1999/xlink" xmlns:svgjs="http://svgjs.com/svgjs" version="1.1" width="512" height="512" x="0" y="0" viewBox="0 0 511.99798 511" style="enable-background:new 0 0 512 512" xml:space="preserve" class=""><g><path xmlns="http://www.w3.org/2000/svg" d="m420.996094 377.496094c0 8.285156-6.714844 15-15 15-8.28125 0-15-6.714844-15-15s6.71875-15 15-15c8.285156 0 15 6.714844 15 15zm0 0" fill="#851414" data-original="#000000" style=""/><path xmlns="http://www.w3.org/2000/svg" d="m360.996094 377.496094c0 8.285156-6.714844 15-15 15-8.28125 0-14.996094-6.714844-14.996094-15s6.714844-15 14.996094-15c8.285156 0 15 6.714844 15 15zm0 0" fill="#851414" data-original="#000000" style=""/><path xmlns="http://www.w3.org/2000/svg" d="m15.308594 480.390625c7.351562-.152344 13.890625 3.261719 17.960937 9.371094 9.488281 14.234375 25.367188 22.734375 42.480469 22.734375 17.109375 0 32.988281-8.5 42.476562-22.734375 3.976563-5.960938 10.359376-9.378907 17.523438-9.378907 7.160156 0 13.546875 3.417969 17.519531 9.378907 9.488281 14.234375 25.554688 22.734375 42.976563 22.734375s33.492187-8.5 42.980468-22.734375c3.972657-5.960938 10.359376-9.378907 17.519532-9.378907 7.164062 0 13.546875 3.417969 17.519531 9.378907 9.492187 14.234375 25.371094 22.734375 42.480469 22.734375s32.992187-8.5 42.480468-22.734375c3.972657-5.960938 10.359376-9.378907 17.519532-9.378907 7.164062 0 13.546875 3.417969 17.519531 9.378907 9.492187 14.234375 25.558594 22.734375 42.980469 22.734375s33.488281-8.5 42.980468-22.734375c3.875-5.8125 10.101563-9.230469 17.078126-9.371094 8.28125-.171875 14.855468-7.023437 14.6875-15.304687-.171876-8.28125-6.976563-14.859376-15.304688-14.691407-16.679688.34375-32.164062 8.835938-41.421875 22.726563-3.972656 5.957031-10.542969 9.375-18.019531 9.375-4.800782 0-9.226563-1.40625-12.832032-3.992188 81.671876-69.761718 86.296876-155.515625 87.429688-158.882812 1.292969-9.042969-5.734375-17.125-14.847656-17.125h-15v-45c0-8.28125-6.71875-15-15-15h-46v-104.996094c0-8.285156-6.714844-15-15-15-6.785156 0-234.234375 0-241 0-8.28125 0-15 6.714844-15 15v44.996094h-59.996094v-29.996094h15c8.285156 0 15-6.71875 15-15 0-8.285156-6.714844-15-15-15h-15v-45c0-8.285156-6.714844-15-15-15h-15v-47c0-8.285156-6.714844-15-15-15s-15 6.714844-15 15v47h-15c-8.285156 0-15 6.714844-15 15v387.890625c0 4.03125 1.621094 7.894531 4.503906 10.714844 2.878906 2.820312 6.738282 4.359375 10.804688 4.285156zm436.6875-207.894531v30h-91v-30zm-150.996094-120h89.996094v90h-89.996094zm30 120v30h-45c-3.980469 0-7.796875 1.582031-10.609375 4.394531l-34.390625 34.390625v-68.785156zm-151-120h91v90c-10.898438 0-79.8125 0-91 0 0-10.886719 0-79.039063 0-90zm31 120v90c-11.1875 0-80.101562 0-91 0v-90zm-181-180h30v30h-30zm0 60h30v30h-30zm0 60h120v30h-45c-8.285156 0-15 6.714844-15 15v105h-60zm0 180h196c3.863281 0 7.738281-1.527344 10.609375-4.394532l55.601563-55.617187h187.0625c-10.035157 48.15625-36.746094 91.847656-76.488282 125.023437-7.757812-4.601562-16.714844-7.125-26.039062-7.125-17.105469 0-32.988282 8.5-42.476563 22.734376-3.972656 5.960937-10.359375 9.378906-17.519531 9.378906-7.164062 0-13.546875-3.417969-17.523438-9.378906-9.488281-14.234376-25.371093-22.734376-42.476562-22.734376-17.109375 0-32.992188 8.5-42.480469 22.734376-3.972656 5.960937-10.542969 9.378906-18.019531 9.378906-7.480469 0-14.046875-3.417969-18.019531-9.378906-9.492188-14.234376-25.371094-22.734376-42.480469-22.734376s-32.992188 8.5-42.480469 22.734376c-3.972656 5.960937-10.359375 9.378906-17.519531 9.378906-7.164062 0-13.546875-3.417969-17.519531-9.375-6.808594-10.210938-16.820313-17.4375-28.230469-20.730469zm0 0" fill="#851414" data-original="#000000" style=""/></g></svg>
