<?xml version="1.0"?>
<svg xmlns="http://www.w3.org/2000/svg" xmlns:xlink="http://www.w3.org/1999/xlink" xmlns:svgjs="http://svgjs.com/svgjs" version="1.1" width="512" height="512" x="0" y="0" viewBox="0 0 64 64" style="enable-background:new 0 0 512 512" xml:space="preserve"><g><path xmlns="http://www.w3.org/2000/svg" d="M60,15a1,1,0,0,0,0-2H50a1,1,0,0,0,0,2h5V49H20a1,1,0,0,0,0,2H60a1,1,0,0,0,0-2H57V45h3a1,1,0,0,0,0-2H57V39h3a1,1,0,0,0,0-2H57V33h3a1,1,0,0,0,0-2H57V27h3a1,1,0,0,0,0-2H57V21h3a1,1,0,0,0,0-2H57V15Z" fill="#b1590b" data-original="#000000" style=""/><path xmlns="http://www.w3.org/2000/svg" d="M4,49a1,1,0,0,0,0,2H14a1,1,0,0,0,0-2H9V15H44a1,1,0,0,0,0-2H4a1,1,0,0,0,0,2H7v4H4a1,1,0,0,0,0,2H7v4H4a1,1,0,0,0,0,2H7v4H4a1,1,0,0,0,0,2H7v4H4a1,1,0,0,0,0,2H7v4H4a1,1,0,0,0,0,2H7v4Z" fill="#b1590b" data-original="#000000" style=""/><path xmlns="http://www.w3.org/2000/svg" d="M22,45a1,1,0,0,0,1-1,9.01,9.01,0,0,0-9-9,1,1,0,0,0,0,2,7.0081,7.0081,0,0,1,7,7A1,1,0,0,0,22,45Z" fill="#b1590b" data-original="#000000" style=""/><path xmlns="http://www.w3.org/2000/svg" d="M22,19a1,1,0,0,0-1,1,7.0081,7.0081,0,0,1-7,7,1,1,0,0,0,0,2,9.01,9.01,0,0,0,9-9A1,1,0,0,0,22,19Z" fill="#b1590b" data-original="#000000" style=""/><path xmlns="http://www.w3.org/2000/svg" d="M50,27a7.0081,7.0081,0,0,1-7-7,1,1,0,0,0-2,0,9.01,9.01,0,0,0,9,9,1,1,0,0,0,0-2Z" fill="#b1590b" data-original="#000000" style=""/><path xmlns="http://www.w3.org/2000/svg" d="M50,35a9.01,9.01,0,0,0-9,9,1,1,0,0,0,2,0,7.0081,7.0081,0,0,1,7-7,1,1,0,0,0,0-2Z" fill="#b1590b" data-original="#000000" style=""/><path xmlns="http://www.w3.org/2000/svg" d="M37.5342,36.0508l-.4834.4844A6.9527,6.9527,0,0,0,35,41.4854V44a1,1,0,0,0,2,0V41.4854a4.9655,4.9655,0,0,1,1.4658-3.5362l.4834-.4844A6.9527,6.9527,0,0,0,41,32.5146V31.4854a6.9523,6.9523,0,0,0-2.05-4.9493l-.4854-.4863A4.9647,4.9647,0,0,1,37,22.5146V20a1,1,0,0,0-2,0v2.5146a6.9523,6.9523,0,0,0,2.05,4.9493l.4854.4863A4.9647,4.9647,0,0,1,39,31.4854v1.0292A4.9655,4.9655,0,0,1,37.5342,36.0508Z" fill="#b1590b" data-original="#000000" style=""/><path xmlns="http://www.w3.org/2000/svg" d="M29,20a1,1,0,0,0-2,0v2.5146a4.9685,4.9685,0,0,1-.93,2.9043,1,1,0,1,0,1.627,1.1622A6.9522,6.9522,0,0,0,29,22.5146Z" fill="#b1590b" data-original="#000000" style=""/><path xmlns="http://www.w3.org/2000/svg" d="M28,45a1,1,0,0,0,1-1V41.4854a6.9523,6.9523,0,0,0-2.05-4.9493l-.4854-.4863A4.9647,4.9647,0,0,1,25,32.5146V32a1,1,0,0,0-2,0v.5146a6.9523,6.9523,0,0,0,2.05,4.9493l.4854.4863A4.9647,4.9647,0,0,1,27,41.4854V44A1,1,0,0,0,28,45Z" fill="#b1590b" data-original="#000000" style=""/><circle xmlns="http://www.w3.org/2000/svg" cx="14" cy="20" r="1" fill="#b1590b" data-original="#000000" style=""/><circle xmlns="http://www.w3.org/2000/svg" cx="50" cy="20" r="1" fill="#b1590b" data-original="#000000" style=""/><circle xmlns="http://www.w3.org/2000/svg" cx="32" cy="32" r="1" fill="#b1590b" data-original="#000000" style=""/><circle xmlns="http://www.w3.org/2000/svg" cx="50" cy="44" r="1" fill="#b1590b" data-original="#000000" style=""/><circle xmlns="http://www.w3.org/2000/svg" cx="14" cy="44" r="1" fill="#b1590b" data-original="#000000" style=""/></g></svg>
