<?xml version="1.0"?>
<svg xmlns="http://www.w3.org/2000/svg" xmlns:xlink="http://www.w3.org/1999/xlink" xmlns:svgjs="http://svgjs.com/svgjs" version="1.1" width="512" height="512" x="0" y="0" viewBox="0 0 512.352 512.352" style="enable-background:new 0 0 512 512" xml:space="preserve" class=""><g><g xmlns="http://www.w3.org/2000/svg"><path d="m507.581 435.413-.045-153.793-118.228-68.212v-136.549l-133.193-76.859-133.163 76.935-.01 136.491-118.171 68.274.046 153.793 133.211 76.857 118.169-68.272 118.214 68.275zm-354.63-341.163 103.173-59.608 103.184 59.543v119.238l-103.15 59.544-103.216-59.547zm-14.933 383.458-103.206-59.544-.036-119.152 103.171-59.607 103.207 59.545.036 119.152zm133.18-59.611-.036-119.152 103.167-59.543 103.21 59.547.036 119.152-103.167 59.605z" fill="#0a7844" data-original="#000000" style="" class=""/><path d="m304.858 153.803c0-26.872-21.861-48.733-48.733-48.733s-48.733 21.862-48.733 48.733 21.862 48.733 48.733 48.733 48.733-21.862 48.733-48.733zm-48.733 18.733c-10.33 0-18.733-8.403-18.733-18.733s8.404-18.733 18.733-18.733 18.733 8.404 18.733 18.733-8.403 18.733-18.733 18.733z" fill="#0a7844" data-original="#000000" style="" class=""/><path d="m374.308 309.823c-26.872 0-48.733 21.861-48.733 48.733s21.861 48.733 48.733 48.733 48.733-21.862 48.733-48.733-21.861-48.733-48.733-48.733zm0 67.467c-10.33 0-18.733-8.404-18.733-18.733s8.403-18.733 18.733-18.733 18.733 8.403 18.733 18.733-8.403 18.733-18.733 18.733z" fill="#0a7844" data-original="#000000" style="" class=""/><path d="m137.983 309.823c-26.872 0-48.733 21.861-48.733 48.733s21.862 48.733 48.733 48.733 48.733-21.862 48.733-48.733-21.862-48.733-48.733-48.733zm0 67.467c-10.33 0-18.733-8.404-18.733-18.733s8.404-18.733 18.733-18.733 18.733 8.403 18.733 18.733-8.404 18.733-18.733 18.733z" fill="#0a7844" data-original="#000000" style="" class=""/></g></g></svg>
