<?xml version="1.0"?>
<svg xmlns="http://www.w3.org/2000/svg" xmlns:xlink="http://www.w3.org/1999/xlink" xmlns:svgjs="http://svgjs.com/svgjs" version="1.1" width="512" height="512" x="0" y="0" viewBox="0 0 100 100" style="enable-background:new 0 0 512 512" xml:space="preserve"><g><path xmlns="http://www.w3.org/2000/svg" d="m60.3500977 33.5883789c-4.1855469 0-7.5908203 3.4052734-7.5908203 7.5908203s3.4052734 7.590332 7.5908203 7.590332 7.590332-3.4047852 7.590332-7.590332-3.4047852-7.5908203-7.590332-7.5908203zm0 13.1811523c-3.0830078 0-5.5908203-2.5078125-5.5908203-5.590332 0-3.0830078 2.5078125-5.5908203 5.5908203-5.5908203 3.0825195 0 5.590332 2.5078125 5.590332 5.5908203 0 3.0825196-2.5078125 5.590332-5.590332 5.590332z" fill="#d3d90f" data-original="#000000" style=""/><path xmlns="http://www.w3.org/2000/svg" d="m48.625 68.3500977c-4.1855469 0-7.5908203 3.4047852-7.5908203 7.590332s3.4052734 7.590332 7.5908203 7.590332 7.590332-3.4047852 7.590332-7.590332-3.4047851-7.590332-7.590332-7.590332zm0 13.180664c-3.0830078 0-5.5908203-2.5078125-5.5908203-5.590332s2.5078125-5.590332 5.5908203-5.590332c3.0825195 0 5.590332 2.5078125 5.590332 5.590332s-2.5078125 5.590332-5.590332 5.590332z" fill="#d3d90f" data-original="#000000" style=""/><path xmlns="http://www.w3.org/2000/svg" d="m30.184082 60.5429688c-3.3491211 0-6.0742188 2.7250977-6.0742188 6.0742188s2.7250977 6.0737305 6.0742188 6.0737305 6.0737305-2.7246094 6.0737305-6.0737305-2.7246094-6.0742188-6.0737305-6.0742188zm0 10.1479492c-2.246582 0-4.0742188-1.8276367-4.0742188-4.0737305 0-2.246582 1.8276367-4.0742188 4.0742188-4.0742188 2.2460938 0 4.0737305 1.8276367 4.0737305 4.0742188 0 2.2460937-1.8276367 4.0737305-4.0737305 4.0737305z" fill="#d3d90f" data-original="#000000" style=""/><path xmlns="http://www.w3.org/2000/svg" d="m59.3100586 54.355957c-3.3491211 0-6.0737305 2.7246094-6.0737305 6.0737305s2.7246094 6.0742188 6.0737305 6.0742188 6.0737305-2.7250977 6.0737305-6.0742188-2.7246094-6.0737305-6.0737305-6.0737305zm0 10.1479492c-2.2460938 0-4.0737305-1.8276367-4.0737305-4.0742188 0-2.2460938 1.8276367-4.0737305 4.0737305-4.0737305s4.0737305 1.8276367 4.0737305 4.0737305c0 2.2465821-1.8276368 4.0742188-4.0737305 4.0742188z" fill="#d3d90f" data-original="#000000" style=""/><path xmlns="http://www.w3.org/2000/svg" d="m76.6777344 47.715332c-3.3491211 0-6.0737305 2.7246094-6.0737305 6.0737305s2.7246094 6.0742188 6.0737305 6.0742188 6.0737305-2.7250977 6.0737305-6.0742188-2.7246094-6.0737305-6.0737305-6.0737305zm0 10.1479492c-2.2460938 0-4.0737305-1.8276367-4.0737305-4.0742188 0-2.2460938 1.8276367-4.0737305 4.0737305-4.0737305s4.0737305 1.8276367 4.0737305 4.0737305c-.0000001 2.2465821-1.8276368 4.0742188-4.0737305 4.0742188z" fill="#d3d90f" data-original="#000000" style=""/><path xmlns="http://www.w3.org/2000/svg" d="m39.0507812 25.675293c-3.3491211 0-6.0737305 2.7250977-6.0737305 6.0742188s2.7246094 6.0737305 6.0737305 6.0737305 6.0737305-2.7246094 6.0737305-6.0737305-2.7246094-6.0742188-6.0737305-6.0742188zm0 10.1479492c-2.2460938 0-4.0737305-1.8276367-4.0737305-4.0737305 0-2.246582 1.8276367-4.0742188 4.0737305-4.0742188s4.0737305 1.8276367 4.0737305 4.0742188c0 2.2460938-1.8276367 4.0737305-4.0737305 4.0737305z" fill="#d3d90f" data-original="#000000" style=""/><path xmlns="http://www.w3.org/2000/svg" d="m55.2363281 29.675293c3.3491211 0 6.0737305-2.7246094 6.0737305-6.0737305s-2.7246094-6.0737305-6.0737305-6.0737305-6.0737305 2.7246094-6.0737305 6.0737305 2.7246094 6.0737305 6.0737305 6.0737305zm0-10.147461c2.2460938 0 4.0737305 1.8276367 4.0737305 4.0737305s-1.8276367 4.0737305-4.0737305 4.0737305-4.0737305-1.8276367-4.0737305-4.0737305 1.8276368-4.0737305 4.0737305-4.0737305z" fill="#d3d90f" data-original="#000000" style=""/><path xmlns="http://www.w3.org/2000/svg" d="m87.3754883 35.9570312c-.1230469-.3183594-.3994141-.5522461-.7338867-.6201172-.3330078-.0678711-.6801758.0390625-.9174805.284668-1.0639648 1.0986328-2.4887695 1.7041016-4.0112305 1.7041016-3.0830078 0-5.5908203-2.5117188-5.5908203-5.5986328 0-2.5136719 1.6933594-4.7319336 4.1181641-5.3945312.3286133-.0898438.5888672-.3413086.690918-.6665039.1015625-.3251953.0307617-.6796875-.1884766-.940918-7.8457031-9.3579102-19.4370117-14.7250977-31.8017578-14.7250977-9.6621094 0-19.0537109 3.3481445-26.4443359 9.4277344-.28125.2314453-.4140625.5966797-.3481445.9545898.0664062.3579102.3217773.6513672.6669922.7666016 2.2871094.7631836 3.8237305 2.8964844 3.8237305 5.3085938 0 3.0869141-2.5078125 5.5986328-5.590332 5.5986328-2.1630859 0-4.1523438-1.2744141-5.0668945-3.2470703-.1533203-.3300781-.4736328-.5507812-.8364258-.5766602-.371582-.0224609-.7119141.1479492-.909668.453125-1.7631836 2.7177734-3.1694336 5.5693359-4.1801758 8.4760742-.0883789.253418-.0708008.53125.0478516.7714844s.3286133.4228516.5834961.5068359l35.0605467 11.5600586-35.0605469 11.5600586c-.2548828.0839844-.4648438.2666016-.5834961.5068359s-.1362305.5180664-.0478516.7714844c5.6499024 16.2460938 21.2768555 27.1616211 38.885254 27.1616211 6.5717773 0 12.871582-1.4863281 18.7246094-4.4174805.3242188-.1621094.5351562-.4873047.5512695-.8496094s-.1650391-.7045898-.4736328-.8950195c-1.6689453-1.03125-2.6650391-2.8120117-2.6650391-4.7636719 0-3.0869141 2.5078125-5.5986328 5.5908203-5.5986328 2.621582 0 4.9199219 1.8618164 5.465332 4.4272461.0751953.3554688.3378906.6416016.6850586.7480469.347168.1069336.7250977.0161133.9868164-.2358398 7.8632813-7.5795899 12.1938477-17.6708985 12.1938477-28.4150391 0-4.8041992-.8833008-9.5288086-2.6245117-14.0429688zm-9.8359375 39.8930665c-1.2294922-2.6108398-3.8969727-4.3745117-6.8706055-4.3745117-4.1855469 0-7.5908203 3.4086914-7.5908203 7.5986328 0 2.0673828.8222656 3.9931641 2.2583008 5.4033203-5.163086 2.3383789-10.6704102 3.5224609-16.3955078 3.5224609-16.4101562 0-31.0073242-9.9487305-36.6494141-24.8632812l36.9624023-12.1870118c.4101563-.1352539.6870118-.5180664.6870118-.949707s-.2768555-.8144531-.6870117-.949707l-36.9614258-12.1870118c.7426758-1.9492188 1.6738281-3.8691406 2.7797852-5.7333984 1.4208984 1.8168945 3.6220703 2.9262695 5.9765625 2.9262695 4.1855469 0 7.590332-3.4086914 7.590332-7.5986328 0-2.684082-1.4023438-5.1142578-3.6186523-6.4736328 6.8271483-5.1596679 15.2583007-7.9838867 23.9204101-7.9838867 11.296875 0 21.9135742 4.703125 29.3486328 12.9511719-2.512207 1.2729492-4.1674805 3.8803711-4.1674805 6.7758789 0 4.1899414 3.4052734 7.5986328 7.5908203 7.5986328 1.5522461 0 3.0292969-.4624023 4.2797852-1.3232422 1.3325195 3.8793945 2.0073242 7.9082031 2.0073242 11.9975586 0 9.6738281-3.7026367 18.7929688-10.4604492 25.8500977z" fill="#d3d90f" data-original="#000000" style=""/></g></svg>
