<?xml version="1.0" encoding="UTF-8"?>
<svg width="32px" height="32px" viewBox="0 0 32 32" version="1.1" xmlns="http://www.w3.org/2000/svg" xmlns:xlink="http://www.w3.org/1999/xlink">
    <!-- Generator: Sketch 44.1 (41455) - http://www.bohemiancoding.com/sketch -->
    <title>Metarubrick / Education / child_garden</title>
    <desc>Created with Sketch.</desc>
    <defs></defs>
    <g id="Page-1" stroke="none" stroke-width="1" fill="none" fill-rule="evenodd">
        <g id="New-meta-draft" transform="translate(-184.000000, -2984.000000)">
            <g id="Slice" transform="translate(84.000000, 84.000000)"></g>
            <g id="Icon" transform="translate(51.000000, 42.000000)" stroke="#8345FE" stroke-width="2">
                <g id="Education" transform="translate(28.000000, 2895.000000)">
                    <g id="Child-Garden" transform="translate(106.630005, 50.000000)">
                        <path d="M1.3723,23 C4.7303,24.833 9.7523,26 15.3723,26 C20.9923,26 26.0143,24.833 29.3723,23" id="Stroke-1"></path>
                        <path d="M24.3724,24.9111 L24.3724,13.0001 C24.3724,11.3431 23.0294,10.0001 21.3724,10.0001 L17.3724,10.0001 C15.7154,10.0001 14.6644,9.9781 14.3724,8.0001 C13.7424,3.7371 10.1004,0.0001 6.1004,0.0001 C5.2494,0.0001 4.6494,0.8331 4.9184,1.6391 L5.0564,2.0521 C5.2304,2.5751 4.9474,3.1411 4.4234,3.3161 L1.6224,4.2501 C0.3794,4.6641 -0.2916,6.0081 0.1224,7.2501 C0.5364,8.4921 1.8794,9.1641 3.1224,8.7501 L3.2484,8.7081 C4.5924,8.2601 6.0434,9.0141 6.4404,10.3741 C7.6274,14.4471 7.4104,20.9631 7.3764,25.1551" id="Stroke-3"></path>
                        <path d="M19.3724,23 L19.3724,21.5 C19.3724,19.567 17.8054,18 15.8724,18 C13.9394,18 12.3724,19.567 12.3724,21.5 L12.3724,23" id="Stroke-5"></path>
                        <path d="M24.3724,13 L25.3724,13 C27.0294,13 28.3724,11.657 28.3724,10 L28.3724,9" id="Stroke-7"></path>
                    </g>
                </g>
            </g>
        </g>
    </g>
</svg>