<?xml version="1.0" encoding="UTF-8"?>
<svg width="32px" height="32px" viewBox="0 0 32 32" version="1.1" xmlns="http://www.w3.org/2000/svg" xmlns:xlink="http://www.w3.org/1999/xlink">
    <!-- Generator: Sketch 44.1 (41455) - http://www.bohemiancoding.com/sketch -->
    <title>Metarubrick / Goods / child</title>
    <desc>Created with Sketch.</desc>
    <defs></defs>
    <g id="Page-1" stroke="none" stroke-width="1" fill="none" fill-rule="evenodd">
        <g id="New-meta-draft" transform="translate(-784.000000, -1784.000000)">
            <g id="Slice" transform="translate(84.000000, 84.000000)"></g>
            <g id="Icon" transform="translate(51.000000, 42.000000)" stroke="#52B311" stroke-width="2">
                <g id="Goods" transform="translate(21.000000, 1694.000000)">
                    <g id="Child" transform="translate(714.000000, 51.000000)">
                        <path d="M12,24 C12,22.343 10.657,21 9,21 C7.343,21 6,22.343 6,24 C6,25.657 7.343,27 9,27 C10.657,27 12,25.657 12,24 Z" id="Stroke-1"></path>
                        <path d="M26,24 C26,22.343 24.657,21 23,21 C21.343,21 20,22.343 20,24 C20,25.657 21.343,27 23,27 C24.657,27 26,25.657 26,24 Z" id="Stroke-3"></path>
                        <path d="M23,9 L5,9 L5,13 C5,15.209 6.791,17 9,17 L11,17 L16,17 L21,17 L23,17 C25.209,17 27,15.209 27,13 L27,9 C27,4.029 22.971,0 18,0 L17,0 L17,9" id="Stroke-5"></path>
                        <path d="M12,24 L20,24" id="Stroke-7"></path>
                        <path d="M5,9 L5,8 C5,6.343 3.657,5 2,5 L0,5" id="Stroke-9"></path>
                    </g>
                </g>
            </g>
        </g>
    </g>
</svg>