<?xml version="1.0"?>
<svg xmlns="http://www.w3.org/2000/svg" xmlns:xlink="http://www.w3.org/1999/xlink" xmlns:svgjs="http://svgjs.com/svgjs" version="1.1" width="512" height="512" x="0" y="0" viewBox="0 0 100 100" style="enable-background:new 0 0 512 512" xml:space="preserve" class=""><g><path xmlns="http://www.w3.org/2000/svg" d="m44.7001953 90h10.5996094c.5522461 0 1-.4477539 1-1v-9.5507202c11.9144287-.8192749 22.000061-3.9128418 26.1088867-8.2202759.3276367-.34375.3686523-.8706055.0976562-1.2607422l-13.5553588-19.5161743c1.3764038-.6929932 2.5054932-1.470459 3.3185425-2.3226929.3349609-.3515625.3696289-.8925781.081543-1.2836914l-13.3417359-18.1034546c1.7477417-.5728149 3.1292725-1.3175049 3.9657593-2.194397.3491211-.3666992.3701172-.9360352.0478516-1.3266602l-12.2514649-14.8574218c-.3798828-.4609375-1.1630859-.4609375-1.5429688 0l-12.2514648 14.8574219c-.3222656.390625-.3012695.9599609.0478516 1.3266602.8981323.9415283 2.421814 1.7317505 4.3561401 2.3189087l-13.7218628 17.965271c-.2983398.3911133-.2680664.9414062.0712891 1.2973633.812561.8517456 1.9408569 1.6287842 3.3161621 2.3214722l-13.5529785 19.517395c-.2709961.3901367-.2299805.9169922.0976562 1.2607422 4.1088257 4.3074341 14.194458 7.401001 26.1088867 8.2202759v9.5507201c0 .5522461.4477539 1 1 1zm9.5996094-2h-8.5996094v-8.4362793c1.4155884.0657959 2.8469238.1086426 4.2998047.1086426s2.8842163-.0428467 4.2998047-.1086426zm-4.2998047-75.4282227 10.8447266 13.1513672c-1.7802735 1.1801758-5.6025391 2.2792969-10.8447266 2.2792969s-9.0644531-1.0991211-10.8447266-2.2792969zm-6.503418 16.8206177c1.9472046.3917237 4.1604004.6100464 6.503418.6100464 2.5181885 0 4.8893433-.2503052 6.9378052-.6994629l13.2721558 18.0090332c-3.3896485 2.7700195-11.463379 4.6577149-20.209961 4.6577149-8.7358398 0-16.8007812-1.8837891-20.1982422-4.6479492zm-10.5861206 21.8804321c4.3353272 1.6958008 10.4018555 2.6968995 17.0895386 2.6968995 6.6863403 0 12.75177-1.0007324 17.0869141-2.6959229l13.2919922 19.1368408c-4.894043 4.3676758-16.894043 7.2617188-30.3789063 7.2617188s-25.4848633-2.894043-30.3789062-7.2617188z" fill="#e31f1f" data-original="#000000" style=""/><path xmlns="http://www.w3.org/2000/svg" d="m43.2861328 37.8291016c-2.5283203 0-4.5854492 2.0571289-4.5854492 4.5854492s2.0571289 4.5854492 4.5854492 4.5854492 4.5854492-2.0571289 4.5854492-4.5854492-2.0571289-4.5854492-4.5854492-4.5854492zm0 7.1708984c-1.4257812 0-2.5854492-1.159668-2.5854492-2.5854492s1.159668-2.5854492 2.5854492-2.5854492 2.5854492 1.159668 2.5854492 2.5854492-1.1596679 2.5854492-2.5854492 2.5854492z" fill="#e31f1f" data-original="#000000" style=""/><path xmlns="http://www.w3.org/2000/svg" d="m35.4599609 59.7719727c-2.5283203 0-4.5854492 2.0566406-4.5854492 4.5849609s2.0571289 4.5854492 4.5854492 4.5854492 4.5854492-2.0571289 4.5854492-4.5854492-2.0571289-4.5849609-4.5854492-4.5849609zm0 7.1704101c-1.4257812 0-2.5854492-1.159668-2.5854492-2.5854492 0-1.425293 1.159668-2.5849609 2.5854492-2.5849609s2.5854492 1.159668 2.5854492 2.5849609c.0000001 1.4257812-1.1596679 2.5854492-2.5854492 2.5854492z" fill="#e31f1f" data-original="#000000" style=""/><path xmlns="http://www.w3.org/2000/svg" d="m54.5854492 66.3569336c0-2.5283203-2.0571289-4.5849609-4.5854492-4.5849609s-4.5854492 2.0566406-4.5854492 4.5849609 2.0571289 4.5854492 4.5854492 4.5854492 4.5854492-2.0571289 4.5854492-4.5854492zm-7.1708984 0c0-1.425293 1.159668-2.5849609 2.5854492-2.5849609s2.5854492 1.159668 2.5854492 2.5849609c0 1.4257812-1.159668 2.5854492-2.5854492 2.5854492s-2.5854492-1.159668-2.5854492-2.5854492z" fill="#e31f1f" data-original="#000000" style=""/><path xmlns="http://www.w3.org/2000/svg" d="m64.5400391 68.9423828c2.5283203 0 4.5854492-2.0571289 4.5854492-4.5854492s-2.0571289-4.5849609-4.5854492-4.5849609-4.5854492 2.0566406-4.5854492 4.5849609 2.0571289 4.5854492 4.5854492 4.5854492zm0-7.1704101c1.4257812 0 2.5854492 1.159668 2.5854492 2.5849609 0 1.4257812-1.159668 2.5854492-2.5854492 2.5854492s-2.5854492-1.159668-2.5854492-2.5854492c-.0000001-1.425293 1.1596679-2.5849609 2.5854492-2.5849609z" fill="#e31f1f" data-original="#000000" style=""/><path xmlns="http://www.w3.org/2000/svg" d="m56.7138672 47c2.5283203 0 4.5854492-2.0571289 4.5854492-4.5854492s-2.0571289-4.5854492-4.5854492-4.5854492-4.5854492 2.0571289-4.5854492 4.5854492 2.0571289 4.5854492 4.5854492 4.5854492zm0-7.1708984c1.4257812 0 2.5854492 1.159668 2.5854492 2.5854492s-1.159668 2.5854492-2.5854492 2.5854492-2.5854492-1.159668-2.5854492-2.5854492 1.1596679-2.5854492 2.5854492-2.5854492z" fill="#e31f1f" data-original="#000000" style=""/></g></svg>
