<?xml version="1.0"?>
<svg xmlns="http://www.w3.org/2000/svg" xmlns:xlink="http://www.w3.org/1999/xlink" xmlns:svgjs="http://svgjs.com/svgjs" version="1.1" width="512" height="512" x="0" y="0" viewBox="0 0 512 512" style="enable-background:new 0 0 512 512" xml:space="preserve"><g>
<g xmlns="http://www.w3.org/2000/svg" id="surface1">
<path d="M 489.5 467 L 468.5 467 L 468.5 447.832031 C 468.5 443.691406 465.144531 440.332031 461 440.332031 C 456.855469 440.332031 453.5 443.691406 453.5 447.832031 L 453.5 467 L 418.5 467 L 418.5 318.488281 C 423.976562 320.433594 429.863281 321.5 436 321.5 C 442.136719 321.5 448.023438 320.433594 453.5 318.488281 L 453.5 415.835938 C 453.5 419.976562 456.855469 423.335938 461 423.335938 C 465.144531 423.335938 468.5 419.976562 468.5 415.835938 L 468.5 310.183594 C 480.667969 300.5625 488.5 285.683594 488.5 269 L 488.5 256 C 488.5 255.953125 488.492188 255.90625 488.492188 255.863281 C 488.492188 255.789062 488.484375 255.714844 488.480469 255.644531 C 488.46875 255.320312 488.433594 255 488.378906 254.691406 C 488.371094 254.652344 488.367188 254.613281 488.359375 254.574219 C 488.292969 254.222656 488.195312 253.878906 488.078125 253.542969 C 488.058594 253.488281 488.039062 253.4375 488.019531 253.382812 C 487.894531 253.042969 487.75 252.710938 487.574219 252.394531 C 487.574219 252.390625 487.570312 252.390625 487.570312 252.386719 C 487.398438 252.074219 487.203125 251.785156 486.992188 251.503906 C 486.953125 251.453125 486.914062 251.398438 486.875 251.347656 C 486.660156 251.078125 486.425781 250.820312 486.175781 250.582031 C 486.128906 250.535156 486.074219 250.492188 486.027344 250.445312 C 485.753906 250.199219 485.46875 249.96875 485.164062 249.765625 C 485.164062 249.765625 485.160156 249.761719 485.160156 249.761719 L 408.433594 198.613281 C 404.988281 196.316406 400.332031 197.246094 398.035156 200.691406 C 395.738281 204.136719 396.667969 208.796875 400.113281 211.09375 L 456.230469 248.5 L 394.339844 248.5 L 301.507812 145.351562 L 373.488281 193.339844 C 376.933594 195.640625 381.589844 194.707031 383.886719 191.261719 C 386.1875 187.816406 385.253906 183.15625 381.808594 180.859375 L 263.5 101.984375 L 263.5 89.46875 L 355.496094 59.945312 C 360.285156 58.410156 363.5 54.011719 363.5 49 C 363.5 43.988281 360.285156 39.589844 355.496094 38.054688 L 263.5 8.53125 L 263.5 7.5 C 263.5 3.359375 260.144531 0 256 0 C 251.855469 0 248.5 3.359375 248.5 7.5 L 248.5 101.984375 L 26.839844 249.761719 C 26.839844 249.761719 26.835938 249.761719 26.835938 249.765625 C 26.53125 249.96875 26.246094 250.199219 25.972656 250.445312 C 25.921875 250.492188 25.871094 250.535156 25.824219 250.582031 C 25.574219 250.820312 25.339844 251.074219 25.125 251.347656 C 25.085938 251.398438 25.046875 251.449219 25.007812 251.503906 C 24.796875 251.785156 24.601562 252.074219 24.429688 252.386719 C 24.429688 252.390625 24.425781 252.390625 24.425781 252.394531 C 24.25 252.710938 24.105469 253.042969 23.980469 253.382812 C 23.960938 253.4375 23.941406 253.488281 23.921875 253.542969 C 23.804688 253.878906 23.710938 254.21875 23.640625 254.570312 C 23.632812 254.609375 23.628906 254.648438 23.621094 254.6875 C 23.566406 255 23.535156 255.316406 23.519531 255.640625 C 23.515625 255.714844 23.507812 255.785156 23.507812 255.859375 C 23.507812 255.90625 23.5 255.949219 23.5 255.996094 L 23.5 268.996094 C 23.5 285.679688 31.332031 300.558594 43.5 310.183594 L 43.5 319.664062 C 43.5 323.808594 46.855469 327.164062 51 327.164062 C 55.144531 327.164062 58.5 323.808594 58.5 319.664062 L 58.5 318.488281 C 63.976562 320.429688 69.863281 321.496094 76 321.496094 C 82.136719 321.496094 88.023438 320.429688 93.5 318.488281 L 93.5 467 L 58.5 467 L 58.5 352 C 58.5 347.859375 55.144531 344.5 51 344.5 C 46.855469 344.5 43.5 347.859375 43.5 352 L 43.5 467 L 22.5 467 C 10.09375 467 0 477.09375 0 489.5 C 0 501.90625 10.09375 512 22.5 512 L 489.5 512 C 501.90625 512 512 501.90625 512 489.5 C 512 477.09375 501.90625 467 489.5 467 Z M 403.5 467 L 374.5 467 L 374.5 313.054688 C 381.207031 308.703125 386.867188 302.867188 391 296.007812 C 394.28125 301.457031 398.53125 306.257812 403.5 310.183594 Z M 383.5 269 C 383.5 289.679688 366.679688 306.5 346 306.5 C 327.792969 306.5 312.578125 293.453125 309.203125 276.21875 C 308.921875 271.996094 308.707031 267.757812 308.597656 263.5 L 383.5 263.5 Z M 256 132.101562 L 290.921875 248.5 L 221.078125 248.5 Z M 306.578125 248.5 L 272.789062 135.867188 L 374.160156 248.5 Z M 205.421875 248.5 L 137.839844 248.5 L 239.210938 135.867188 Z M 218.5 263.5 L 293.5 263.5 L 293.5 269 C 293.5 289.679688 276.679688 306.5 256 306.5 C 235.320312 306.5 218.5 289.679688 218.5 269 Z M 359.5 319.730469 L 359.5 445.566406 C 344.921875 417.097656 322.792969 367.003906 313.210938 309.957031 C 322.199219 317.171875 333.601562 321.5 346 321.5 C 350.667969 321.5 355.191406 320.878906 359.5 319.730469 Z M 128.5 263.5 L 203.402344 263.5 C 203.292969 267.757812 203.078125 271.996094 202.796875 276.21875 C 199.421875 293.453125 184.207031 306.5 166 306.5 C 145.320312 306.5 128.5 289.679688 128.5 269 Z M 166 321.5 C 178.398438 321.5 189.800781 317.171875 198.789062 309.957031 C 189.207031 367.003906 167.078125 417.097656 152.5 445.566406 L 152.5 319.730469 C 156.808594 320.878906 161.332031 321.5 166 321.5 Z M 184.941406 411.054688 C 196.285156 383.335938 209.242188 344.707031 215.191406 301.980469 C 224.824219 313.875 239.535156 321.5 256 321.5 C 272.464844 321.5 287.175781 313.875 296.808594 301.980469 C 302.757812 344.707031 315.714844 383.335938 327.058594 411.054688 C 337.304688 436.078125 347.46875 455.535156 353.894531 467 L 158.105469 467 C 164.53125 455.535156 174.695312 436.078125 184.941406 411.054688 Z M 473.5 263.5 L 473.5 269 C 473.5 289.679688 456.679688 306.5 436 306.5 C 415.320312 306.5 398.5 289.679688 398.5 269 L 398.5 263.5 Z M 340.519531 49 L 263.5 73.714844 L 263.5 24.285156 Z M 210.492188 145.351562 L 117.660156 248.5 L 55.769531 248.5 Z M 38.5 269 L 38.5 263.5 L 113.5 263.5 L 113.5 269 C 113.5 289.679688 96.679688 306.5 76 306.5 C 55.320312 306.5 38.5 289.679688 38.5 269 Z M 108.5 310.183594 C 113.46875 306.257812 117.71875 301.457031 121 296.007812 C 125.132812 302.867188 130.792969 308.703125 137.5 313.054688 L 137.5 467 L 108.5 467 Z M 489.5 497 L 22.5 497 C 18.363281 497 15 493.636719 15 489.5 C 15 485.363281 18.363281 482 22.5 482 L 144.992188 482 C 144.996094 482 144.996094 482 145 482 C 145.003906 482 145.003906 482 145.007812 482 L 366.992188 482 C 366.996094 482 366.996094 482 367 482 C 367.003906 482 367.003906 482 367.007812 482 L 489.5 482 C 493.636719 482 497 485.363281 497 489.5 C 497 493.636719 493.636719 497 489.5 497 Z M 489.5 497 " style="" fill="#eb0b0b" data-original="#000000"/>
</g>
</g></svg>
