<?xml version="1.0" encoding="UTF-8"?>
<svg width="32px" height="32px" viewBox="0 0 32 32" version="1.1" xmlns="http://www.w3.org/2000/svg" xmlns:xlink="http://www.w3.org/1999/xlink">
    <!-- Generator: Sketch 44.1 (41455) - http://www.bohemiancoding.com/sketch -->
    <title>Metarubrick / Shops / clothes</title>
    <desc>Created with Sketch.</desc>
    <defs></defs>
    <g id="Page-1" stroke="none" stroke-width="1" fill="none" fill-rule="evenodd">
        <g id="New-meta-draft" transform="translate(-284.000000, -2384.000000)">
            <g id="Slice" transform="translate(84.000000, 84.000000)"></g>
            <g id="Icon" transform="translate(51.000000, 42.000000)" stroke="#52B311" stroke-width="2">
                <g id="Shops" transform="translate(27.000000, 2294.000000)">
                    <g id="Clothes" transform="translate(207.000000, 53.000000)">
                        <path d="M15,22 C19,22 23,21 23,21 L23,7 L30,7 L30,2 L26.847,1.099 C24.295,0.37 21.654,0 19,0 C19,1.657 17.209,3 15,3 C12.791,3 11,1.657 11,0 C8.346,0 5.705,0.37 3.153,1.099 L0,2 L0,7 L7,7 L7,21 C7,21 11,22 15,22 Z" id="Stroke-1"></path>
                        <path d="M11,9 L19,9" id="Stroke-3"></path>
                    </g>
                </g>
            </g>
        </g>
    </g>
</svg>