<?xml version="1.0"?>
<svg xmlns="http://www.w3.org/2000/svg" xmlns:xlink="http://www.w3.org/1999/xlink" xmlns:svgjs="http://svgjs.com/svgjs" version="1.1" width="512" height="512" x="0" y="0" viewBox="0 0 64 64" style="enable-background:new 0 0 512 512" xml:space="preserve"><g><path xmlns="http://www.w3.org/2000/svg" d="m19.499 61a.99943.99943 0 0 1 -1-1 6.00657 6.00657 0 0 1 6-6 1 1 0 0 1 0 2 4.004 4.004 0 0 0 -4 4 .99942.99942 0 0 1 -1 1z" fill="#501299" data-original="#000000" style=""/><path xmlns="http://www.w3.org/2000/svg" d="m27.499 56h-3a1 1 0 0 1 0-2h3a1 1 0 0 1 0 2z" fill="#501299" data-original="#000000" style=""/><path xmlns="http://www.w3.org/2000/svg" d="m19.499 64a.99943.99943 0 0 1 -1-1v-3a1 1 0 0 1 2 0v3a.99942.99942 0 0 1 -1 1z" fill="#501299" data-original="#000000" style=""/><path xmlns="http://www.w3.org/2000/svg" d="m43.499 61a.99943.99943 0 0 1 -1-1 4.004 4.004 0 0 0 -4-4 1 1 0 0 1 0-2 6.00656 6.00656 0 0 1 6 6 .99942.99942 0 0 1 -1 1z" fill="#501299" data-original="#000000" style=""/><path xmlns="http://www.w3.org/2000/svg" d="m38.499 56h-3a1 1 0 0 1 0-2h3a1 1 0 0 1 0 2z" fill="#501299" data-original="#000000" style=""/><path xmlns="http://www.w3.org/2000/svg" d="m43.499 64a.99943.99943 0 0 1 -1-1v-3a1 1 0 0 1 2 0v3a.99942.99942 0 0 1 -1 1z" fill="#501299" data-original="#000000" style=""/><path xmlns="http://www.w3.org/2000/svg" d="m27.499 56a.99943.99943 0 0 1 -1-1v-3.93555a1 1 0 1 1 2 0v3.93555a.99942.99942 0 0 1 -1 1z" fill="#501299" data-original="#000000" style=""/><path xmlns="http://www.w3.org/2000/svg" d="m35.499 56a.99943.99943 0 0 1 -1-1v-3.93555a1 1 0 1 1 2 0v3.93555a.99942.99942 0 0 1 -1 1z" fill="#501299" data-original="#000000" style=""/><path xmlns="http://www.w3.org/2000/svg" d="m36.499 30h-6a1 1 0 0 1 0-2h6a1 1 0 0 1 0 2z" fill="#501299" data-original="#000000" style=""/><path xmlns="http://www.w3.org/2000/svg" d="m31.49805 53a10.0099 10.0099 0 0 1 -9.999-9.998 1 1 0 1 1 2 0 8 8 0 0 0 16 0 1 1 0 1 1 2 0 10.01093 10.01093 0 0 1 -10.001 9.998z" fill="#501299" data-original="#000000" style=""/><path xmlns="http://www.w3.org/2000/svg" d="m22.499 44.05078a.99942.99942 0 0 1 -1-1v-6.05078a1 1 0 0 1 2 0v6.05078a.99942.99942 0 0 1 -1 1z" fill="#501299" data-original="#000000" style=""/><path xmlns="http://www.w3.org/2000/svg" d="m40.499 44.002a.99942.99942 0 0 1 -1-1v-6.002a1 1 0 0 1 2 0v6.002a.99942.99942 0 0 1 -1 1z" fill="#501299" data-original="#000000" style=""/><path xmlns="http://www.w3.org/2000/svg" d="m40.499 37.999a.99942.99942 0 0 1 -1-1 3.00307 3.00307 0 0 0 -3-2.999 1 1 0 0 1 0-2 5.005 5.005 0 0 1 5 4.999.99942.99942 0 0 1 -1 1z" fill="#501299" data-original="#000000" style=""/><path xmlns="http://www.w3.org/2000/svg" d="m36.499 34a.99943.99943 0 0 1 -1-1v-4a1 1 0 0 1 2 0v4a.99942.99942 0 0 1 -1 1z" fill="#501299" data-original="#000000" style=""/><path xmlns="http://www.w3.org/2000/svg" d="m22.499 38a.99943.99943 0 0 1 -1-1 9.00984 9.00984 0 0 1 9-9 1 1 0 0 1 0 2 7.0085 7.0085 0 0 0 -7 7 .99942.99942 0 0 1 -1 1z" fill="#501299" data-original="#000000" style=""/><path xmlns="http://www.w3.org/2000/svg" d="m40.49805 41.02539a1.00038 1.00038 0 0 1 -.5586-.1709l-3-2.02539a1.00026 1.00026 0 1 1 1.11914-1.6582l3 2.02539a1.00005 1.00005 0 0 1 -.56054 1.8291z" fill="#501299" data-original="#000000" style=""/><path xmlns="http://www.w3.org/2000/svg" d="m31.999 40a23.93192 23.93192 0 0 1 -6.81543-1.05078 1.0001 1.0001 0 0 1 .62989-1.89844 22.27 22.27 0 0 0 6.18554.94922 12.60173 12.60173 0 0 0 5.0586-.89746 1.00035 1.00035 0 0 1 .88769 1.793 14.26786 14.26786 0 0 1 -5.94629 1.10446z" fill="#501299" data-original="#000000" style=""/><path xmlns="http://www.w3.org/2000/svg" d="m22.5 41.02539a1.00006 1.00006 0 0 1 -.56055-1.8291l3-2.02539a1.00026 1.00026 0 1 1 1.11914 1.6582l-3 2.02539a1.00035 1.00035 0 0 1 -.55859.1709z" fill="#501299" data-original="#000000" style=""/><path xmlns="http://www.w3.org/2000/svg" d="m2.501 50.00977a.99942.99942 0 0 1 -1-1 4.004 4.004 0 0 1 4-4 1 1 0 0 1 0 2 2.0026 2.0026 0 0 0 -2 2 .99943.99943 0 0 1 -1 1z" fill="#501299" data-original="#000000" style=""/><path xmlns="http://www.w3.org/2000/svg" d="m7.501 47.01563h-2a1 1 0 1 1 0-2h2a1 1 0 0 1 0 2z" fill="#501299" data-original="#000000" style=""/><path xmlns="http://www.w3.org/2000/svg" d="m2.501 53.0127a.99942.99942 0 0 1 -1-1v-3.00293a1 1 0 0 1 2 0v3.00293a.99943.99943 0 0 1 -1 1z" fill="#501299" data-original="#000000" style=""/><path xmlns="http://www.w3.org/2000/svg" d="m18.501 50.00977a.99942.99942 0 0 1 -1-1 2.0026 2.0026 0 0 0 -2-2 1 1 0 1 1 0-2 4.004 4.004 0 0 1 4 4 .99943.99943 0 0 1 -1 1z" fill="#501299" data-original="#000000" style=""/><path xmlns="http://www.w3.org/2000/svg" d="m15.501 47.01563h-2a1 1 0 1 1 0-2h2a1 1 0 0 1 0 2z" fill="#501299" data-original="#000000" style=""/><path xmlns="http://www.w3.org/2000/svg" d="m18.501 53.0127a.99942.99942 0 0 1 -1-1v-3.00293a1 1 0 0 1 2 0v3.00293a.99943.99943 0 0 1 -1 1z" fill="#501299" data-original="#000000" style=""/><path xmlns="http://www.w3.org/2000/svg" d="m7.501 47.01563a.99942.99942 0 0 1 -1-1v-2.68363a1 1 0 0 1 2 0v2.6836a.99943.99943 0 0 1 -1 1.00003z" fill="#501299" data-original="#000000" style=""/><path xmlns="http://www.w3.org/2000/svg" d="m13.501 47.00977a.99942.99942 0 0 1 -1-1v-2.67777a1 1 0 0 1 2 0v2.67774a.99943.99943 0 0 1 -1 1.00003z" fill="#501299" data-original="#000000" style=""/><path xmlns="http://www.w3.org/2000/svg" d="m3.501 38.01367a.99942.99942 0 0 1 -1-1v-2.86719a1 1 0 0 1 2 0v2.86719a.99942.99942 0 0 1 -1 1z" fill="#501299" data-original="#000000" style=""/><path xmlns="http://www.w3.org/2000/svg" d="m17.501 38.01367a.99942.99942 0 0 1 -1-1v-3.5a1 1 0 0 1 2 0v3.5a.99942.99942 0 0 1 -1 1z" fill="#501299" data-original="#000000" style=""/><path xmlns="http://www.w3.org/2000/svg" d="m17.501 34.51367a.99942.99942 0 0 1 -1-1 6.5 6.5 0 0 0 -13 0 1 1 0 0 1 -2 0 8.5 8.5 0 0 1 17 0 .99942.99942 0 0 1 -1 1z" fill="#501299" data-original="#000000" style=""/><path xmlns="http://www.w3.org/2000/svg" d="m17.502 35.88477a.9994.9994 0 0 1 -.79492-.39161c-1.93066-2.52343-2.457-2.3125-4.41406-1.53808a16.855 16.855 0 0 1 -9.94824 1.042.99959.99959 0 1 1 .3125-1.97461 14.88573 14.88573 0 0 0 8.89941-.92676c2.4082-.9541 4.02539-1.36328 6.73828 2.18067a.99994.99994 0 0 1 -.793 1.6084z" fill="#501299" data-original="#000000" style=""/><path xmlns="http://www.w3.org/2000/svg" d="m13.5 33.49023a1.00023 1.00023 0 0 1 -.89648-1.44043l2-4.07226a.99971.99971 0 1 1 1.79492.88086l-2 4.07226a.99957.99957 0 0 1 -.89844.55957z" fill="#501299" data-original="#000000" style=""/><path xmlns="http://www.w3.org/2000/svg" d="m10.501 45.00586a8.00707 8.00707 0 0 1 -8-7.99609 1 1 0 0 1 2 0 6 6 0 0 0 12 0 1 1 0 0 1 2 0 8.00708 8.00708 0 0 1 -8 7.99609z" fill="#501299" data-original="#000000" style=""/><path xmlns="http://www.w3.org/2000/svg" d="m30.999 23a11.5 11.5 0 1 1 11.5-11.5 11.51341 11.51341 0 0 1 -11.5 11.5zm0-21a9.5 9.5 0 1 0 9.5 9.5 9.51081 9.51081 0 0 0 -9.5-9.5z" fill="#501299" data-original="#000000" style=""/><path xmlns="http://www.w3.org/2000/svg" d="m30.999 26a11.51341 11.51341 0 0 1 -11.5-11.5 1 1 0 0 1 2 0 9.5 9.5 0 0 0 19 0 1 1 0 0 1 2 0 11.51341 11.51341 0 0 1 -11.5 11.5z" fill="#501299" data-original="#000000" style=""/><path xmlns="http://www.w3.org/2000/svg" d="m29.49805 50.00293a1 1 0 0 1 -.69922-1.71484l1.01953-.998a1 1 0 0 1 1.39844 1.42969l-1.01953.998a.9964.9964 0 0 1 -.69922.28515z" fill="#501299" data-original="#000000" style=""/><path xmlns="http://www.w3.org/2000/svg" d="m32.51563 49.00488h-1.99805a1 1 0 1 1 0-2h1.99805a1 1 0 0 1 0 2z" fill="#501299" data-original="#000000" style=""/><path xmlns="http://www.w3.org/2000/svg" d="m33.5 50.00293a.99749.99749 0 0 1 -.71191-.29785l-.98438-.998a.99992.99992 0 0 1 1.42383-1.4043l.98437.99805a1 1 0 0 1 -.71191 1.7021z" fill="#501299" data-original="#000000" style=""/><path xmlns="http://www.w3.org/2000/svg" d="m29.49805 50.00293a6.0074 6.0074 0 0 1 -6.001-6 1 1 0 0 1 2 0 4.00479 4.00479 0 0 0 4.001 4 1 1 0 0 1 0 2z" fill="#501299" data-original="#000000" style=""/><path xmlns="http://www.w3.org/2000/svg" d="m24.49609 45.00293a1.00811 1.00811 0 0 1 -.44726-.10547l-1.998-1.001a1.00055 1.00055 0 1 1 .89649-1.78906l1.998 1.001a1.00017 1.00017 0 0 1 -.44922 1.89453z" fill="#501299" data-original="#000000" style=""/><path xmlns="http://www.w3.org/2000/svg" d="m33.5 50.00293a1 1 0 0 1 0-2 4.0048 4.0048 0 0 0 4.001-4 1 1 0 1 1 2 0 6.0074 6.0074 0 0 1 -6.001 6z" fill="#501299" data-original="#000000" style=""/><path xmlns="http://www.w3.org/2000/svg" d="m38.502 45.00293a1.00017 1.00017 0 0 1 -.44922-1.89453l1.99805-1.001a1.00055 1.00055 0 0 1 .89649 1.78906l-1.99805 1.001a1.00816 1.00816 0 0 1 -.44727.10547z" fill="#501299" data-original="#000000" style=""/><path xmlns="http://www.w3.org/2000/svg" d="m45.499 37.99805a.99943.99943 0 0 1 -1-1v-8.00391a1 1 0 0 1 2 0v8.00391a.99942.99942 0 0 1 -1 1z" fill="#501299" data-original="#000000" style=""/><path xmlns="http://www.w3.org/2000/svg" d="m59.499 37.99805a.99943.99943 0 0 1 -1-1v-.293a1 1 0 0 1 2 0v.293a.99942.99942 0 0 1 -1 1z" fill="#501299" data-original="#000000" style=""/><path xmlns="http://www.w3.org/2000/svg" d="m44.499 49.99414a.99942.99942 0 0 1 -1-1 4.004 4.004 0 0 1 4-4 1 1 0 0 1 0 2 2.0026 2.0026 0 0 0 -2 2 .99942.99942 0 0 1 -1 1z" fill="#501299" data-original="#000000" style=""/><path xmlns="http://www.w3.org/2000/svg" d="m49.499 47h-2a1 1 0 0 1 0-2h2a1 1 0 0 1 0 2z" fill="#501299" data-original="#000000" style=""/><path xmlns="http://www.w3.org/2000/svg" d="m44.499 52.99805a.99943.99943 0 0 1 -1-1v-3.00391a1 1 0 0 1 2 0v3.00391a.99942.99942 0 0 1 -1 1z" fill="#501299" data-original="#000000" style=""/><path xmlns="http://www.w3.org/2000/svg" d="m60.499 49.99414a.99942.99942 0 0 1 -1-1 2.0026 2.0026 0 0 0 -2-2 1 1 0 0 1 0-2 4.004 4.004 0 0 1 4 4 .99942.99942 0 0 1 -1 1z" fill="#501299" data-original="#000000" style=""/><path xmlns="http://www.w3.org/2000/svg" d="m57.499 47h-2a1 1 0 0 1 0-2h2a1 1 0 0 1 0 2z" fill="#501299" data-original="#000000" style=""/><path xmlns="http://www.w3.org/2000/svg" d="m60.499 52.99805a.99943.99943 0 0 1 -1-1v-3.00391a1 1 0 0 1 2 0v3.00391a.99942.99942 0 0 1 -1 1z" fill="#501299" data-original="#000000" style=""/><path xmlns="http://www.w3.org/2000/svg" d="m49.499 47a.99943.99943 0 0 1 -1-1v-2.68359a1 1 0 1 1 2 0v2.68359a.99942.99942 0 0 1 -1 1z" fill="#501299" data-original="#000000" style=""/><path xmlns="http://www.w3.org/2000/svg" d="m55.499 46.99414a.99942.99942 0 0 1 -1-1v-2.67773a1 1 0 1 1 2 0v2.67773a.99942.99942 0 0 1 -1 1z" fill="#501299" data-original="#000000" style=""/><path xmlns="http://www.w3.org/2000/svg" d="m52.499 44.99023a8.00708 8.00708 0 0 1 -8-7.99609 1 1 0 0 1 2 0 6 6 0 0 0 12 0 1 1 0 0 1 2 0 8.00707 8.00707 0 0 1 -8 7.99609z" fill="#501299" data-original="#000000" style=""/><path xmlns="http://www.w3.org/2000/svg" d="m52.49805 48.99414a.99941.99941 0 0 1 -.55371-.168l-3-2a1 1 0 1 1 1.10937-1.66406l3 2a1 1 0 0 1 -.55566 1.832z" fill="#501299" data-original="#000000" style=""/><path xmlns="http://www.w3.org/2000/svg" d="m52.5 48.99414a1 1 0 0 1 -.55566-1.832l3-2a1 1 0 0 1 1.10937 1.66406l-3 2a.99943.99943 0 0 1 -.55371.16794z" fill="#501299" data-original="#000000" style=""/><path xmlns="http://www.w3.org/2000/svg" d="m61.499 32.99414a.99942.99942 0 0 1 -1-1 7.00849 7.00849 0 0 0 -7-7 7.29454 7.29454 0 0 0 -4.374 1.78027 1.00033 1.00033 0 1 1 -1.252-1.56054 9.10633 9.10633 0 0 1 5.626-2.21973 9.00984 9.00984 0 0 1 9 9 .99942.99942 0 0 1 -1 1z" fill="#501299" data-original="#000000" style=""/><path xmlns="http://www.w3.org/2000/svg" d="m61.499 42.99414a.99942.99942 0 0 1 -1-1 7.00849 7.00849 0 0 0 -7-7 1 1 0 0 1 0-2 9.00984 9.00984 0 0 1 9 9 .99942.99942 0 0 1 -1 1z" fill="#501299" data-original="#000000" style=""/><path xmlns="http://www.w3.org/2000/svg" d="m45.499 34.99414a1 1 0 0 1 0-2 2.0026 2.0026 0 0 0 2-2 1 1 0 0 1 2 0 4.004 4.004 0 0 1 -4 4z" fill="#501299" data-original="#000000" style=""/><path xmlns="http://www.w3.org/2000/svg" d="m45.499 30.00781a.99942.99942 0 0 1 -1-1 4.004 4.004 0 0 1 4-4 1 1 0 0 1 0 2 2.0026 2.0026 0 0 0 -2 2 .99942.99942 0 0 1 -1 1z" fill="#501299" data-original="#000000" style=""/><path xmlns="http://www.w3.org/2000/svg" d="m51.499 34.99414a4.004 4.004 0 0 1 -4-4 1 1 0 0 1 2 0 2.0026 2.0026 0 0 0 2 2 1 1 0 0 1 0 2z" fill="#501299" data-original="#000000" style=""/><path xmlns="http://www.w3.org/2000/svg" d="m48.499 31.99414a.99942.99942 0 0 1 -1-1v-5a1 1 0 0 1 2 0v5a.99942.99942 0 0 1 -1 1z" fill="#501299" data-original="#000000" style=""/><path xmlns="http://www.w3.org/2000/svg" d="m61.499 42.99414a.99942.99942 0 0 1 -1-1v-10a1 1 0 0 1 2 0v10a.99942.99942 0 0 1 -1 1z" fill="#501299" data-original="#000000" style=""/><path xmlns="http://www.w3.org/2000/svg" d="m53.499 34.99414h-2a1 1 0 0 1 0-2h2a1 1 0 0 1 0 2z" fill="#501299" data-original="#000000" style=""/><path xmlns="http://www.w3.org/2000/svg" d="m20.499 15.5a.99943.99943 0 0 1 -1-1v-3a1 1 0 0 1 2 0v3a.99942.99942 0 0 1 -1 1z" fill="#501299" data-original="#000000" style=""/><path xmlns="http://www.w3.org/2000/svg" d="m41.499 15.5a.99943.99943 0 0 1 -1-1v-3a1 1 0 0 1 2 0v3a.99942.99942 0 0 1 -1 1z" fill="#501299" data-original="#000000" style=""/><path xmlns="http://www.w3.org/2000/svg" d="m29.49707 17a.99943.99943 0 0 1 -1-1v-8.2002a1 1 0 1 1 2 0v8.2002a.99943.99943 0 0 1 -1 1z" fill="#501299" data-original="#000000" style=""/><path xmlns="http://www.w3.org/2000/svg" d="m32.49707 17a.99943.99943 0 0 1 -1-1v-10a1 1 0 0 1 2 0v10a.99943.99943 0 0 1 -1 1z" fill="#501299" data-original="#000000" style=""/><path xmlns="http://www.w3.org/2000/svg" d="m27.5 10a1 1 0 0 1 -.51562-1.85742l4.998-3a1 1 0 1 1 1.0293 1.71484l-4.998 3a.99631.99631 0 0 1 -.51368.14258z" fill="#501299" data-original="#000000" style=""/><path xmlns="http://www.w3.org/2000/svg" d="m34.499 17h-7a1 1 0 0 1 0-2h7a1 1 0 0 1 0 2z" fill="#501299" data-original="#000000" style=""/><path xmlns="http://www.w3.org/2000/svg" d="m34.499 58a.99991.99991 0 0 1 -.89355-1.44727l.999-2a1.00012 1.00012 0 0 1 1.78906.89454l-.999 2a.999.999 0 0 1 -.89551.55273z" fill="#501299" data-original="#000000" style=""/><path xmlns="http://www.w3.org/2000/svg" d="m34.5 58a.99826.99826 0 0 1 -.31641-.05176l-3.001-1a.99964.99964 0 1 1 .63281-1.89648l3.001 1a.99986.99986 0 0 1 -.3164 1.94824z" fill="#501299" data-original="#000000" style=""/><path xmlns="http://www.w3.org/2000/svg" d="m28.5 58a.99986.99986 0 0 1 -.31641-1.94824l2.999-1a.99964.99964 0 1 1 .63281 1.89648l-2.999 1a.99826.99826 0 0 1 -.3164.05176z" fill="#501299" data-original="#000000" style=""/><path xmlns="http://www.w3.org/2000/svg" d="m28.501 58a1.00011 1.00011 0 0 1 -.89551-.55273l-1.001-2a1.00012 1.00012 0 0 1 1.78906-.89454l1.001 2a.99991.99991 0 0 1 -.89355 1.44727z" fill="#501299" data-original="#000000" style=""/><path xmlns="http://www.w3.org/2000/svg" d="m8.5 49a.99965.99965 0 0 1 -.89453-.55078l-.99805-1.98438a1.00012 1.00012 0 0 1 1.78711-.89843l.99805 1.98437a.99992.99992 0 0 1 -.89258 1.44922z" fill="#501299" data-original="#000000" style=""/><path xmlns="http://www.w3.org/2000/svg" d="m8.5 49a1 1 0 0 1 -.44824-1.89453l2-1a1.00011 1.00011 0 0 1 .89453 1.78906l-2 1a1.00108 1.00108 0 0 1 -.44629.10547z" fill="#501299" data-original="#000000" style=""/><path xmlns="http://www.w3.org/2000/svg" d="m12.498 49a.99991.99991 0 0 1 -.89258-1.44922l.998-1.98437a1.00012 1.00012 0 0 1 1.78711.89843l-.998 1.98438a.99965.99965 0 0 1 -.89453.55078z" fill="#501299" data-original="#000000" style=""/><path xmlns="http://www.w3.org/2000/svg" d="m12.498 49a1.001 1.001 0 0 1 -.44629-.10547l-2-1a1.00011 1.00011 0 1 1 .89453-1.78906l2 1a1 1 0 0 1 -.44824 1.89453z" fill="#501299" data-original="#000000" style=""/></g></svg>
