<?xml version="1.0"?>
<svg xmlns="http://www.w3.org/2000/svg" xmlns:xlink="http://www.w3.org/1999/xlink" xmlns:svgjs="http://svgjs.com/svgjs" version="1.1" width="512" height="512" x="0" y="0" viewBox="0 0 512 512" style="enable-background:new 0 0 512 512" xml:space="preserve"><g><path xmlns="http://www.w3.org/2000/svg" d="m482 0h-330c-16.542969 0-30 13.457031-30 30h-107c-8.285156 0-15 6.714844-15 15v330c0 8.285156 6.714844 15 15 15h150c8.285156 0 15-6.714844 15-15v-75h77v60h-30c-8.285156 0-15 6.714844-15 15s6.714844 15 15 15h180c8.285156 0 15-6.714844 15-15s-6.714844-15-15-15h-30v-60h105c16.542969 0 30-13.457031 30-30v-240c0-16.542969-13.457031-30-30-30zm-452 120h92v30h-92zm92-60v30h-92v-30zm-92 300v-180h92v90c0 15.867188 12.386719 28.890625 28 29.925781v60.074219zm317 0h-60v-60h60zm135-90h-330v-240h330zm0 0" fill="#d31111" data-original="#000000" style=""/><path xmlns="http://www.w3.org/2000/svg" d="m105 326c0 8.285156-6.714844 15-15 15s-15-6.714844-15-15 6.714844-15 15-15 15 6.714844 15 15zm0 0" fill="#d31111" data-original="#000000" style=""/></g></svg>
