<?xml version="1.0"?>
<svg xmlns="http://www.w3.org/2000/svg" xmlns:xlink="http://www.w3.org/1999/xlink" xmlns:svgjs="http://svgjs.com/svgjs" version="1.1" width="512" height="512" x="0" y="0" viewBox="0 0 256 256" style="enable-background:new 0 0 512 512" xml:space="preserve"><g><g xmlns="http://www.w3.org/2000/svg" fill="rgb(0,0,0)"><path d="m128 217.29a89.29 89.29 0 1 0 -89.29-89.29 89.38 89.38 0 0 0 89.29 89.29zm0-175a85.7 85.7 0 1 1 -85.7 85.71 85.79 85.79 0 0 1 85.7-85.7z" fill="#e51818" data-original="#000000" style=""/><path d="m128 144.6a16.6 16.6 0 1 0 -16.6-16.6 16.62 16.62 0 0 0 16.6 16.6zm0-29.6a13 13 0 1 1 -13 13 13 13 0 0 1 13-13z" fill="#e51818" data-original="#000000" style=""/><path d="m128 198.79a1.8 1.8 0 1 0 0-3.59 67.28 67.28 0 0 1 -67.2-67.2 1.8 1.8 0 0 0 -3.59 0 70.87 70.87 0 0 0 70.79 70.79z" fill="#e51818" data-original="#000000" style=""/><path d="m128 60.8a67.28 67.28 0 0 1 67.2 67.2 1.8 1.8 0 0 0 3.59 0 70.87 70.87 0 0 0 -70.79-70.79 1.8 1.8 0 0 0 0 3.59z" fill="#e51818" data-original="#000000" style=""/></g></g></svg>
