<?xml version="1.0"?>
<svg xmlns="http://www.w3.org/2000/svg" xmlns:xlink="http://www.w3.org/1999/xlink" xmlns:svgjs="http://svgjs.com/svgjs" version="1.1" width="512" height="512" x="0" y="0" viewBox="0 0 576.498 576.499" style="enable-background:new 0 0 512 512" xml:space="preserve" class=""><g>
<g xmlns="http://www.w3.org/2000/svg">
	<g>
		<path d="M451.924,356.766h-3.62c-1.262,0-1.854,0.535-1.854,1.812c0,0,0,40.493,0,82.558c2.467-2.218,4.905-4.46,7.325-6.731    c0-39.551,0-75.831,0-75.831C453.774,357.301,453.186,356.766,451.924,356.766z" fill="#0d9f46" data-original="#000000" style=""/>
		<path d="M504.13,234.112h-3.687c-0.999,0-1.807,0.808-1.807,1.807c0,0,0,75.108,0,149.911    c7.038-8.807,13.703-17.824,19.952-26.994c-7.282-2.075-12.623-8.76-12.628-16.706c-0.009-0.005-0.023-106.211-0.023-106.211    C505.938,234.92,505.129,234.112,504.13,234.112z" fill="#0d9f46" data-original="#000000" style=""/>
		<path d="M41.688,224.354c3.973-13.813,13.655-45.259,40.985-45.259h73.325c29.333,0,36.921,31.446,40.894,45.259    c0,0,26.048,85.077,26.062,85.111c2.816,9.185-2.347,18.914-11.527,21.73s-18.905-2.343-21.726-11.519    c-0.009,0-26-84.742-26-84.742c-0.153-0.359-0.932-1.846-2.744-1.846c-0.163,0-3.663,0-3.663,0h-0.01    c-1.033-0.015-1.64,0.865-1.367,1.855l52.034,170.28c0.282,0.994,0,2.725-1.812,2.725h-36.505c-1.033,0-1.788,0.837-1.788,1.87    c0,0,0,30.854,0.005,61.788c28.367,20.392,58.733,36.939,89.777,48.061c0-19.35,0.005-39.067,0.005-39.067    c0-0.636-0.464-1.152-1.104-1.152h-22.171c-1.119,0-1.291-1.071-1.119-1.678l31.939-105.087c0.167-0.612-0.201-1.152-0.842-1.144    c0,0-4.939,0-5.04,0c-1.119,0-1.597,0.918-1.692,1.139c0,0-15.893,51.891-15.897,51.896c-1.741,5.656-7.731,8.831-13.388,7.1    c-5.661-1.735-8.84-7.73-7.105-13.392c0.005-0.024,16.008-52.269,16.061-52.45c2.448-8.511,11.269-27.895,28.113-27.895h46.039    c18.078,0,25.35,19.379,27.798,27.895c0.053,0.182,0.11,0.401,0.177,0.659c6.465,21.076,15.874,51.767,15.884,51.791    c1.735,5.66-1.444,11.656-7.105,13.392c-5.656,1.736-11.651-1.443-13.387-7.1c-0.005,0-15.95-51.896-15.95-51.896    c-0.096-0.221-0.574-1.139-1.693-1.139c-0.1,0-4.834,0-4.834,0c-0.636-0.009-0.937,0.531-0.77,1.143l31.991,105.088    c0.173,0.611,0,1.678-1.113,1.678h-21.311c-0.636,0-1.104,0.517-1.104,1.152c0,0,0,19.445,0,38.661    c28.09-10.188,55.61-24.81,81.583-42.687c0-86.574,0-240.665,0-240.665c0-1-0.809-1.807-1.808-1.807h-3.687    c-0.999,0-1.808,0.808-1.808,1.807c0,0-0.014,106.21-0.023,106.21c-0.01,9.601-7.794,17.385-17.395,17.385    c-9.605,0-17.394-7.788-17.394-17.395c0-0.052,0-119.426,0-120.851c0-23.806,18.312-42.113,41.199-42.113    c0.584,0,53.101,0,53.101,0c14.43,0,45.192,0,45.776,0c22.888,0,41.2,18.312,41.2,42.113c0,1.057,0,67.139,0,101.119    c45.617-84.987,53.023-176.706-10.026-236.739c-105.321-96.538-224.982,19.833-240.363,35.664    c-0.917,0.942-1.85,1.721-2.118,1.735c-0.268-0.014-1.2-0.793-2.118-1.735C270.748,105.473,151.088-10.898,45.767,85.645    C-9.739,138.501-10.638,215.92,21.071,291.678C28.692,266.797,41.626,224.564,41.688,224.354z M450.116,102.36    c18.432,0,33.378,14.946,33.378,33.378s-14.946,33.378-33.378,33.378s-33.378-14.946-33.378-33.378    C416.738,117.302,431.68,102.36,450.116,102.36z M257.992,289.288c4.466-0.449,9.094,1.736,12.532,3.945    c0.889,0.573,2.166,0.449,2.959-0.244c3.993-3.52,9.237-5.661,14.984-5.661c5.971,0,11.403,2.31,15.458,6.082    c0.77,0.717,2.022,0.846,2.902,0.253c3.485-2.343,8.434-4.848,13.191-4.375c7.841,0.779,9.524,9.797,7.487,16.013    c-0.33,1.009-1.1,2.539-1.559,3.485c-2.782,5.785-5.637,12.427-7.439,12.642c-1.817,0.229,3.992-13.722-0.177-18.073    c-0.736-0.76-2.463-1.123-3.51-1.042c-0.76,0.067-1.717,0.229-2.802,0.593c-0.999,0.34-1.516,1.559-1.301,2.587    c0.297,1.463,0.459,2.979,0.459,4.527c0,12.532-10.16,22.692-22.691,22.692c-12.527,0-22.692-10.16-22.692-22.692    c0-1.706,0.187-3.365,0.54-4.968c0.229-1.032-0.296-2.185-1.319-2.438c-0.674-0.163-1.286-0.254-1.812-0.297    c-1.057-0.091-2.783,0.277-3.51,1.042c-4.169,4.352,1.635,18.303-0.177,18.073c-1.817-0.22-4.671-6.861-7.454-12.646    c-0.459-0.956-1.224-2.481-1.559-3.485C248.468,299.089,250.15,290.067,257.992,289.288z M119.288,102.293    c18.432,0,33.378,14.946,33.378,33.378s-14.946,33.378-33.378,33.378S85.91,154.103,85.91,135.671    S100.856,102.293,119.288,102.293z" fill="#0d9f46" data-original="#000000" style=""/>
		<path d="M288.348,528.776c1.339-0.315,2.677-0.65,4.015-0.989l-0.004-47.177c0-0.636-0.665-1.152-1.172-1.152s-4.771,0-4.771,0    c-0.636,0-1.152,0.517-1.152,1.152l-0.005,47.459c0.961,0.238,1.922,0.482,2.883,0.707H288.348z" fill="#0d9f46" data-original="#000000" style=""/>
		<path d="M82.664,234.944c0.272-0.99-0.33-1.87-1.368-1.855h-0.009c0,0-3.495,0-3.663,0c-1.817,0-2.591,1.487-2.745,1.845    c0,0-25.991,84.743-26,84.743c-1.458,4.738-4.762,8.396-8.878,10.442c2.859,5.049,5.857,10.069,8.974,15.052L82.664,234.944z" fill="#0d9f46" data-original="#000000" style=""/>
		<path d="M121.109,407.949h-0.029h-3.586h-0.028c-1.033,0-1.87,0.837-1.87,1.87v17.757c2.434,2.387,4.896,4.748,7.387,7.081    v-24.838C122.979,408.786,122.147,407.949,121.109,407.949z" fill="#0d9f46" data-original="#000000" style=""/>
	</g>
</g>
<g xmlns="http://www.w3.org/2000/svg">
</g>
<g xmlns="http://www.w3.org/2000/svg">
</g>
<g xmlns="http://www.w3.org/2000/svg">
</g>
<g xmlns="http://www.w3.org/2000/svg">
</g>
<g xmlns="http://www.w3.org/2000/svg">
</g>
<g xmlns="http://www.w3.org/2000/svg">
</g>
<g xmlns="http://www.w3.org/2000/svg">
</g>
<g xmlns="http://www.w3.org/2000/svg">
</g>
<g xmlns="http://www.w3.org/2000/svg">
</g>
<g xmlns="http://www.w3.org/2000/svg">
</g>
<g xmlns="http://www.w3.org/2000/svg">
</g>
<g xmlns="http://www.w3.org/2000/svg">
</g>
<g xmlns="http://www.w3.org/2000/svg">
</g>
<g xmlns="http://www.w3.org/2000/svg">
</g>
<g xmlns="http://www.w3.org/2000/svg">
</g>
</g></svg>
