<?xml version="1.0"?>
<svg xmlns="http://www.w3.org/2000/svg" xmlns:xlink="http://www.w3.org/1999/xlink" xmlns:svgjs="http://svgjs.com/svgjs" version="1.1" width="512" height="512" x="0" y="0" viewBox="0 0 512 512" style="enable-background:new 0 0 512 512" xml:space="preserve"><g><g xmlns="http://www.w3.org/2000/svg" id="outline"><path d="M24,496H56a8,8,0,0,0,8-8V352H448V488a8,8,0,0,0,8,8h32a8,8,0,0,0,8-8V312a8,8,0,0,0-8-8h-8V232a8,8,0,0,0-8-8H360a8,8,0,0,0-8,8v72H291.312l-2.343-2.344A30.32,30.32,0,0,1,281.187,288H328a8,8,0,0,0,8-8V184a8,8,0,0,0-8-8H184a8,8,0,0,0-8,8v96a8,8,0,0,0,8,8h46.813a30.32,30.32,0,0,1-7.782,13.656L220.687,304H160V264a8,8,0,0,0-8-8H100a20,20,0,0,0,0,40h4v8H64V264a8,8,0,0,0-8-8H49.98a45.694,45.694,0,0,1,18.457-25.344,8,8,0,1,0-8.875-13.312,61.764,61.764,0,0,0-17.354,17.534,103.162,103.162,0,0,0-11.552-23.316,8,8,0,0,0-13.312,8.876A87.158,87.158,0,0,1,30.888,256H24a8,8,0,0,0-8,8V488A8,8,0,0,0,24,496Zm456-16H464V352h16ZM368,240h96v64H368ZM192,272V192H320v80Zm78.629,32H241.371a46.1,46.1,0,0,0,5.949-16h17.36A46.1,46.1,0,0,0,270.629,304ZM120,272h24v32H120Zm-20,8a4,4,0,0,1,0-8h4v8Zm-68-8H48v32H32Zm0,48H480v16H32Zm0,32H48V480H32Z" fill="#09117e" data-original="#000000" style=""/><path d="M24,32H64V48H56a8,8,0,0,0-8,8V84.688L18.344,114.344A8,8,0,0,0,24,128H48v8a24,24,0,0,0,48,0v-8h24a8,8,0,0,0,5.656-13.656L96,84.688V56a8,8,0,0,0-8-8H80V32H248V48h-8a8,8,0,0,0-8,8V84.688l-29.656,29.656A8,8,0,0,0,208,128h24v8a24,24,0,0,0,48,0v-8h24a8,8,0,0,0,5.656-13.656L280,84.688V56a8,8,0,0,0-8-8h-8V32H432V48h-8a8,8,0,0,0-8,8V84.688l-29.656,29.656A8,8,0,0,0,392,128h24v8a24,24,0,0,0,48,0v-8h24a8,8,0,0,0,5.656-13.656L464,84.688V56a8,8,0,0,0-8-8h-8V32h40a8,8,0,0,0,0-16H24a8,8,0,0,0,0,16ZM448,136a8,8,0,0,1-16,0v-8h16Zm4.688-40,16,16H411.312l16-16ZM448,80H432V64h16ZM264,136a8,8,0,0,1-16,0v-8h16Zm4.688-40,16,16H227.312l16-16ZM264,80H248V64h16ZM80,136a8,8,0,0,1-16,0v-8H80Zm4.687-40,16,16H43.312l16-16ZM80,80H64V64H80Z" fill="#09117e" data-original="#000000" style=""/><path d="M280,232a24,24,0,1,0-24,24A24.027,24.027,0,0,0,280,232Zm-32,0a8,8,0,1,1,8,8A8.011,8.011,0,0,1,248,232Z" fill="#09117e" data-original="#000000" style=""/><rect x="408" y="264" width="16" height="16" fill="#09117e" data-original="#000000" style=""/><path d="M432,392a24.027,24.027,0,0,0-24-24H360a24,24,0,0,0,0,48v46.7l-7.59,22.766A8,8,0,0,0,360,496h48a8,8,0,0,0,7.59-10.531L408,462.7V416A24.027,24.027,0,0,0,432,392Zm-60.9,88,4.492-13.469A7.981,7.981,0,0,0,376,464V416h16v48a7.981,7.981,0,0,0,.41,2.531L396.9,480ZM400,400H360a8,8,0,0,1,0-16h48a8,8,0,0,1,0,16Z" fill="#09117e" data-original="#000000" style=""/><path d="M304,392a24.027,24.027,0,0,0-24-24H232a24,24,0,0,0,0,48v46.7l-7.59,22.766A8,8,0,0,0,232,496h48a8,8,0,0,0,7.59-10.531L280,462.7V416A24.027,24.027,0,0,0,304,392Zm-60.9,88,4.492-13.469A7.981,7.981,0,0,0,248,464V416h16v48a7.981,7.981,0,0,0,.41,2.531L268.9,480ZM272,400H232a8,8,0,0,1,0-16h48a8,8,0,0,1,0,16Z" fill="#09117e" data-original="#000000" style=""/><path d="M176,392a24.027,24.027,0,0,0-24-24H104a24,24,0,0,0,0,48v46.7l-7.59,22.766A8,8,0,0,0,104,496h48a8,8,0,0,0,7.59-10.531L152,462.7V416A24.027,24.027,0,0,0,176,392Zm-60.9,88,4.492-13.469A7.981,7.981,0,0,0,120,464V416h16v48a7.981,7.981,0,0,0,.41,2.531L140.9,480ZM144,400H104a8,8,0,0,1,0-16h48a8,8,0,0,1,0,16Z" fill="#09117e" data-original="#000000" style=""/></g></g></svg>
