<?xml version="1.0"?>
<svg xmlns="http://www.w3.org/2000/svg" xmlns:xlink="http://www.w3.org/1999/xlink" xmlns:svgjs="http://svgjs.com/svgjs" version="1.1" width="512" height="512" x="0" y="0" viewBox="0 0 512.012 512.012" style="enable-background:new 0 0 512 512" xml:space="preserve" class=""><g><path xmlns="http://www.w3.org/2000/svg" d="m497.012 76.018c-8.284 0-15 6.716-15 15v27.929h-452.012v-27.929c-.738-19.881-29.269-19.866-30 0v330.07c.738 19.881 29.269 19.866 30 0v-37.939h452.012v37.939c.738 19.881 29.269 19.866 30 0v-330.07c0-8.284-6.716-15-15-15zm-15 174.647h-30.251v-101.718h30.251zm-90.503 0v-101.718h30.252v101.717h-30.252zm-60.251 0v-101.718h30.251v101.717h-30.251zm-60.252 0v-101.718h30.252v101.717h-30.252zm-120.503 0v-101.718h30.252v101.717h-30.252zm-60.251 0v-101.718h30.251v101.717h-30.251zm120.503-101.718h30.251v101.717h-30.251zm-150.503 0v101.717h-30.252v-101.717zm-30.252 131.718h211.006v72.484h-211.006zm241.006 72.484v-72.484h211.006v72.484z" fill="#1521df" data-original="#000000" style="" class=""/></g></svg>
