<?xml version="1.0"?>
<svg xmlns="http://www.w3.org/2000/svg" xmlns:xlink="http://www.w3.org/1999/xlink" xmlns:svgjs="http://svgjs.com/svgjs" version="1.1" width="512" height="512" x="0" y="0" viewBox="0 0 511.991 511.991" style="enable-background:new 0 0 512 512" xml:space="preserve"><g><path xmlns="http://www.w3.org/2000/svg" d="m499.479 153.17c4.143 0 7.5-3.357 7.5-7.5v-113.678c0-6.638-3.692-12.659-9.636-15.714-21.021-10.801-43.702-16.278-67.412-16.278s-46.391 5.477-67.412 16.278c-.748.385-1.46.817-2.134 1.291-.674-.474-1.387-.906-2.135-1.291-21.021-10.801-43.702-16.278-67.412-16.278s-46.39 5.477-67.411 16.278c-.749.385-1.461.817-2.135 1.291-.674-.474-1.387-.906-2.135-1.291-21.021-10.801-43.701-16.278-67.411-16.278s-46.39 5.477-67.411 16.278c-5.944 3.055-9.636 9.075-9.636 15.714v46.206h-4.166c-6.501-9.357-17.32-15.5-29.552-15.5-19.833 0-35.968 16.135-35.968 35.968s16.135 35.968 35.968 35.968c12.232 0 23.052-6.143 29.552-15.501h4.166v375.223c0 5.954 2.971 11.463 7.947 14.735 2.922 1.921 6.278 2.9 9.656 2.9 2.358-.001 4.728-.478 6.967-1.444 12.042-5.196 24.777-8.561 37.854-9.998 4.117-.453 7.088-4.157 6.635-8.274-.453-4.118-4.164-7.082-8.275-6.636-14.561 1.602-28.745 5.348-42.158 11.137-1.107.476-2.004.068-2.438-.218-.444-.292-1.188-.966-1.188-2.202v-375.223h25.138c7.392 13.304 21.538 21.74 36.91 21.74 23.271 0 42.205-18.933 42.205-42.204s-18.933-42.205-42.205-42.205c-15.409 0-29.517 8.422-36.908 21.734h-25.141v-46.206c0-.99.572-1.899 1.492-2.372 18.88-9.701 39.253-14.62 60.556-14.62s41.676 4.919 60.556 14.62c.916.471 1.486 1.375 1.49 2.361v.011 218.418c0 4.143 3.358 7.5 7.5 7.5h.001s.001 0 .001 0c4.142 0 7.5-3.357 7.5-7.5v-131.277h25.131c7.391 13.306 21.539 21.74 36.914 21.74 23.271 0 42.205-18.933 42.205-42.204s-18.934-42.205-42.205-42.205c-15.487 0-29.531 8.4-36.915 21.734h-25.13v-46.206c0-.004 0-.007 0-.011.004-.986.574-1.89 1.49-2.361 18.879-9.701 39.253-14.62 60.554-14.62s41.676 4.919 60.556 14.62c.917.471 1.486 1.375 1.491 2.361v.011 462.363.018c-.008 1.224-.745 1.893-1.187 2.184-.436.286-1.328.696-2.438.217-18.507-7.985-38.162-12.034-58.421-12.034s-39.914 4.049-58.421 12.035c-1.107.476-2.003.068-2.438-.218-.442-.291-1.179-.96-1.187-2.184 0-.006.001-.012.001-.018v-210.955c0-4.143-3.358-7.5-7.5-7.5h-.001s-.001 0-.001 0c-4.142 0-7.5 3.357-7.5 7.5v210.955c0 .006.001.012.001.018-.008 1.224-.746 1.893-1.187 2.184-.435.286-1.333.693-2.438.218-12.722-5.49-26.16-9.15-39.94-10.878-4.116-.524-7.86 2.397-8.375 6.509-.515 4.109 2.399 7.859 6.509 8.374 12.375 1.552 24.441 4.838 35.863 9.767 2.24.967 4.608 1.444 6.967 1.444 3.378 0 6.734-.979 9.656-2.9.152-.1.297-.209.446-.313.149.104.293.213.446.313 4.961 3.262 11.176 3.806 16.623 1.457 16.619-7.172 34.275-10.808 52.478-10.808s35.858 3.636 52.478 10.807c2.239.967 4.608 1.444 6.967 1.444 3.378-.001 6.735-.979 9.657-2.9.152-.1.297-.209.445-.313.148.104.293.213.445.313 2.922 1.922 6.277 2.9 9.656 2.9 2.357-.001 4.728-.478 6.967-1.443 16.619-7.172 34.274-10.808 52.478-10.808s35.859 3.636 52.478 10.807c5.446 2.352 11.662 1.806 16.624-1.456 4.976-3.272 7.946-8.781 7.946-14.735v-315.696c0-4.143-3.357-7.5-7.5-7.5s-7.5 3.357-7.5 7.5v315.695c0 1.236-.744 1.91-1.188 2.202-.436.286-1.329.695-2.438.218-18.506-7.986-38.161-12.035-58.421-12.035-20.259 0-39.914 4.049-58.421 12.035-1.106.477-2.004.069-2.438-.218-.442-.291-1.179-.96-1.187-2.184 0-.006 0-.012 0-.018v-375.222h25.148c7.389 13.275 21.61 21.74 36.896 21.74 23.271 0 42.205-18.933 42.205-42.204s-18.934-42.205-42.205-42.205c-15.392 0-29.517 8.427-36.909 21.734h-25.135v-46.206c0-.004 0-.007 0-.011.004-.986.573-1.89 1.49-2.361 18.876-9.701 39.25-14.62 60.552-14.62 21.303 0 41.677 4.919 60.557 14.62.92.473 1.491 1.382 1.491 2.372v113.678c0 4.143 3.357 7.5 7.5 7.5zm-458.499-33.536c-11.562 0-20.968-9.406-20.968-20.968s9.406-20.968 20.968-20.968 20.967 9.406 20.967 20.968-9.405 20.968-20.967 20.968zm35.552-26.436h13.789v10.935h-13.788c.273-1.783.415-3.609.415-5.467-.001-1.858-.142-3.684-.416-5.468zm101.865 0c.362 1.768.553 3.597.553 5.471 0 1.871-.19 3.698-.552 5.464h-73.077v-10.935zm-44.556 25.935h35.799c-4.787 4.191-11.047 6.74-17.895 6.74-6.695 0-13.028-2.485-17.904-6.74zm17.905-47.669c6.844 0 13.102 2.546 17.888 6.734h-35.804c4.871-4.256 11.202-6.734 17.916-6.734zm121.188 47.669h35.8c-4.787 4.191-11.047 6.74-17.895 6.74-6.696 0-13.029-2.485-17.905-6.74zm17.904-47.669c6.845 0 13.102 2.546 17.889 6.734h-35.812c4.86-4.255 11.176-6.734 17.923-6.734zm26.653 21.734c.362 1.768.553 3.597.553 5.471 0 1.871-.19 3.698-.552 5.464h-88.699v-10.935zm94.567 25.935h35.768c-4.787 4.191-11.048 6.74-17.896 6.74-6.65 0-12.985-2.493-17.872-6.74zm17.873-47.669c6.845 0 13.102 2.546 17.889 6.734h-35.796c4.872-4.254 11.203-6.734 17.907-6.734zm26.652 21.734c.362 1.768.553 3.597.553 5.471 0 1.871-.19 3.698-.552 5.464h-88.698v-10.935z" fill="#6fc10c" data-original="#000000" style=""/></g></svg>
