<?xml version="1.0"?>
<svg xmlns="http://www.w3.org/2000/svg" xmlns:xlink="http://www.w3.org/1999/xlink" xmlns:svgjs="http://svgjs.com/svgjs" version="1.1" width="512" height="512" x="0" y="0" viewBox="0 0 64 64" style="enable-background:new 0 0 512 512" xml:space="preserve"><g><path xmlns="http://www.w3.org/2000/svg" d="M1,55.001a.99943.99943,0,0,1-1-1,9.01193,9.01193,0,0,1,9.002-9.002,1,1,0,0,1,0,2A7.00933,7.00933,0,0,0,2,54.001.99943.99943,0,0,1,1,55.001Z" fill="#0cb374" data-original="#000000" style=""/><path xmlns="http://www.w3.org/2000/svg" d="M45,55a.99943.99943,0,0,1-1-1,7.00849,7.00849,0,0,0-7-7,1,1,0,0,1,0-2,9.00984,9.00984,0,0,1,9,9A.99943.99943,0,0,1,45,55Z" fill="#0cb374" data-original="#000000" style=""/><path xmlns="http://www.w3.org/2000/svg" d="M9.002,46.999a1,1,0,0,1,0-2l4.999-.001a1,1,0,0,1,0,2Z" fill="#0cb374" data-original="#000000" style=""/><path xmlns="http://www.w3.org/2000/svg" d="M1.001,62.999a1,1,0,0,1-1-1L0,54.001a1,1,0,0,1,2,0l.001,7.998A1.00005,1.00005,0,0,1,1.001,62.999Z" fill="#0cb374" data-original="#000000" style=""/><path xmlns="http://www.w3.org/2000/svg" d="M45,62.999a.99942.99942,0,0,1-1-1V54a1,1,0,0,1,2,0v7.999A.99942.99942,0,0,1,45,62.999Z" fill="#0cb374" data-original="#000000" style=""/><path xmlns="http://www.w3.org/2000/svg" d="M16,44.99805a.99943.99943,0,0,1-1-1V41.27832a1,1,0,0,1,2,0v2.71973A.99943.99943,0,0,1,16,44.99805Z" fill="#0cb374" data-original="#000000" style=""/><path xmlns="http://www.w3.org/2000/svg" d="M30,44.99805a.99943.99943,0,0,1-1-1V41.27832a1,1,0,0,1,2,0v2.71973A.99943.99943,0,0,1,30,44.99805Z" fill="#0cb374" data-original="#000000" style=""/><path xmlns="http://www.w3.org/2000/svg" d="M17.55762,49a1.00014,1.00014,0,0,1-.48438-1.876l5.44336-3.002a1.0005,1.0005,0,1,1,.9668,1.752L18.04,48.876A1.00274,1.00274,0,0,1,17.55762,49Z" fill="#0cb374" data-original="#000000" style=""/><path xmlns="http://www.w3.org/2000/svg" d="M28.44238,49a1.00274,1.00274,0,0,1-.48242-.124L22.5166,45.874a1.0005,1.0005,0,1,1,.9668-1.752l5.44336,3.002A1.00014,1.00014,0,0,1,28.44238,49Z" fill="#0cb374" data-original="#000000" style=""/><path xmlns="http://www.w3.org/2000/svg" d="M12,49a1,1,0,0,1-.707-1.707l4-4.00195A.99989.99989,0,0,1,16.707,44.70508l-4,4.002A.99676.99676,0,0,1,12,49Z" fill="#0cb374" data-original="#000000" style=""/><path xmlns="http://www.w3.org/2000/svg" d="M16,52.99805a.99676.99676,0,0,1-.707-.293l-4-3.998A.99989.99989,0,0,1,12.707,47.293l4,3.99805a1,1,0,0,1-.707,1.707Z" fill="#0cb374" data-original="#000000" style=""/><path xmlns="http://www.w3.org/2000/svg" d="M14,54.99805a1,1,0,0,1-.707-1.707l2-2A.99989.99989,0,0,1,16.707,52.70508l-2,2A.99676.99676,0,0,1,14,54.99805Z" fill="#0cb374" data-original="#000000" style=""/><path xmlns="http://www.w3.org/2000/svg" d="M20.001,62.99805a.99556.99556,0,0,1-.80078-.40039l-6-8a.99961.99961,0,1,1,1.5996-1.19922l6,8a1.0001,1.0001,0,0,1-.79882,1.59961Z" fill="#0cb374" data-original="#000000" style=""/><path xmlns="http://www.w3.org/2000/svg" d="M23,62.99805a.99911.99911,0,0,1-.93164-.6377l-7-18a.99961.99961,0,0,1,1.86328-.72461l7,18a.99943.99943,0,0,1-.56934,1.294A.98466.98466,0,0,1,23,62.99805Z" fill="#0cb374" data-original="#000000" style=""/><path xmlns="http://www.w3.org/2000/svg" d="M34,49a.99676.99676,0,0,1-.707-.293l-4-4.002A.99989.99989,0,0,1,30.707,43.291l4,4.00195A1,1,0,0,1,34,49Z" fill="#0cb374" data-original="#000000" style=""/><path xmlns="http://www.w3.org/2000/svg" d="M30,52.99805a1,1,0,0,1-.707-1.707l4-3.99805A.99989.99989,0,0,1,34.707,48.707l-4,3.998A.99676.99676,0,0,1,30,52.99805Z" fill="#0cb374" data-original="#000000" style=""/><path xmlns="http://www.w3.org/2000/svg" d="M32,54.99805a.99676.99676,0,0,1-.707-.293l-2-2A.99989.99989,0,0,1,30.707,51.291l2,2a1,1,0,0,1-.707,1.707Z" fill="#0cb374" data-original="#000000" style=""/><path xmlns="http://www.w3.org/2000/svg" d="M25.999,62.99805a1.0001,1.0001,0,0,1-.79882-1.59961l6-8a.99961.99961,0,1,1,1.5996,1.19922l-6,8A.99556.99556,0,0,1,25.999,62.99805Z" fill="#0cb374" data-original="#000000" style=""/><path xmlns="http://www.w3.org/2000/svg" d="M23,62.99805a.98466.98466,0,0,1-.3623-.06836.99943.99943,0,0,1-.56934-1.294l7-18a.99961.99961,0,0,1,1.86328.72461l-7,18A.99911.99911,0,0,1,23,62.99805Z" fill="#0cb374" data-original="#000000" style=""/><path xmlns="http://www.w3.org/2000/svg" d="M37,47H32a1,1,0,0,1,0-2h5a1,1,0,0,1,0,2Z" fill="#0cb374" data-original="#000000" style=""/><path xmlns="http://www.w3.org/2000/svg" d="M19.88867,54.99805a1.0005,1.0005,0,0,1-.9209-1.38867l2.11133-4.998a.99956.99956,0,0,1,1.8418.77734l-2.11133,4.998A.99941.99941,0,0,1,19.88867,54.99805Z" fill="#0cb374" data-original="#000000" style=""/><path xmlns="http://www.w3.org/2000/svg" d="M26.11133,54.99805a.99941.99941,0,0,1-.9209-.61133l-2.11133-5a.99956.99956,0,1,1,1.8418-.77734l2.11133,5a1.0005,1.0005,0,0,1-.9209,1.38867Z" fill="#0cb374" data-original="#000000" style=""/><path xmlns="http://www.w3.org/2000/svg" d="M24,50H22a1,1,0,0,1,0-2h2a1,1,0,0,1,0,2Z" fill="#0cb374" data-original="#000000" style=""/><path xmlns="http://www.w3.org/2000/svg" d="M24,50a1.00005,1.00005,0,0,1-.76074-1.64844l2-2.34765a.9996.9996,0,1,1,1.52148,1.29687l-2,2.34766A.9952.9952,0,0,1,24,50Z" fill="#0cb374" data-original="#000000" style=""/><path xmlns="http://www.w3.org/2000/svg" d="M22,50a.9952.9952,0,0,1-.76074-.35156l-2-2.34766a.9996.9996,0,1,1,1.52148-1.29687l2,2.34765A1.00005,1.00005,0,0,1,22,50Z" fill="#0cb374" data-original="#000000" style=""/><path xmlns="http://www.w3.org/2000/svg" d="M22.98438,44.001a16.01833,16.01833,0,0,1-16-16,1,1,0,0,1,2,0,14,14,0,0,0,28,0,1,1,0,0,1,2,0A16.01834,16.01834,0,0,1,22.98438,44.001Z" fill="#0cb374" data-original="#000000" style=""/><path xmlns="http://www.w3.org/2000/svg" d="M7.98438,29.001a.99942.99942,0,0,1-1-1V22.25977a1,1,0,0,1,2,0V28.001A.99943.99943,0,0,1,7.98438,29.001Z" fill="#0cb374" data-original="#000000" style=""/><path xmlns="http://www.w3.org/2000/svg" d="M37.98438,29.001a.99942.99942,0,0,1-1-1V22.26563a1,1,0,0,1,2,0V28.001A.99943.99943,0,0,1,37.98438,29.001Z" fill="#0cb374" data-original="#000000" style=""/><path xmlns="http://www.w3.org/2000/svg" d="M22.98438,27.00977c-14.08887,0-15.7627-3.97266-15.95508-4.76856A1.00009,1.00009,0,0,1,8.959,21.71777c.07129.15821,1.66407,3.292,14.0254,3.292,12.627,0,14.04882-3.27149,14.06152-3.30469a.971.971,0,0,1,1.2041-.69824,1.02627,1.02627,0,0,1,.71973,1.24121C38.77051,23.043,37.06738,27.00977,22.98438,27.00977Z" fill="#0cb374" data-original="#000000" style=""/><path xmlns="http://www.w3.org/2000/svg" d="M37.999,23.00586H8.001a1,1,0,1,1,0-2H37.999a1,1,0,0,1,0,2Z" fill="#0cb374" data-original="#000000" style=""/><path xmlns="http://www.w3.org/2000/svg" d="M37.999,19.00586H8.001a1,1,0,1,1,0-2H37.999a1,1,0,0,1,0,2Z" fill="#0cb374" data-original="#000000" style=""/><path xmlns="http://www.w3.org/2000/svg" d="M8.001,23.00586a.99942.99942,0,0,1-1-1v-4a1,1,0,0,1,2,0v4A.99943.99943,0,0,1,8.001,23.00586Z" fill="#0cb374" data-original="#000000" style=""/><path xmlns="http://www.w3.org/2000/svg" d="M38,23.00586a.99943.99943,0,0,1-1-1v-4a1,1,0,0,1,2,0v4A.99943.99943,0,0,1,38,23.00586Z" fill="#0cb374" data-original="#000000" style=""/><path xmlns="http://www.w3.org/2000/svg" d="M39,44.01172H33a1,1,0,0,1,0-2h6a1,1,0,0,1,0,2Z" fill="#0cb374" data-original="#000000" style=""/><path xmlns="http://www.w3.org/2000/svg" d="M13,44.01172H7a1,1,0,0,1,0-2h6a1,1,0,0,1,0,2Z" fill="#0cb374" data-original="#000000" style=""/><path xmlns="http://www.w3.org/2000/svg" d="M38.001,23.97949a1,1,0,0,1-.66016-1.751A9.64859,9.64859,0,0,0,41,15C41,8.38281,32.9248,3,23,3S5,8.38281,5,15a9.64551,9.64551,0,0,0,3.65918,7.22852.99988.99988,0,0,1-1.32031,1.502A11.73246,11.73246,0,0,1,3,15C3,7.28027,11.97168,1,23,1S43,7.28027,43,15a11.58034,11.58034,0,0,1-4.33887,8.73047A.99618.99618,0,0,1,38.001,23.97949Z" fill="#0cb374" data-original="#000000" style=""/><path xmlns="http://www.w3.org/2000/svg" d="M23,15a4,4,0,1,1,4-4A4.004,4.004,0,0,1,23,15Zm0-6a2,2,0,1,0,2,2A2.0026,2.0026,0,0,0,23,9Z" fill="#0cb374" data-original="#000000" style=""/><path xmlns="http://www.w3.org/2000/svg" d="M63,60H45a.99943.99943,0,0,1-1-1V36.99805a.99942.99942,0,0,1,1-1H63a.99942.99942,0,0,1,1,1V59A.99943.99943,0,0,1,63,60ZM46,58H62V37.99805H46Z" fill="#0cb374" data-original="#000000" style=""/><path xmlns="http://www.w3.org/2000/svg" d="M63,63H45a.99943.99943,0,0,1-1-1V44.99805a1,1,0,0,1,2,0V61H62V44.99805a1,1,0,0,1,2,0V62A.99943.99943,0,0,1,63,63Z" fill="#0cb374" data-original="#000000" style=""/><path xmlns="http://www.w3.org/2000/svg" d="M54,55a7,7,0,1,1,7-7A7.00849,7.00849,0,0,1,54,55Zm0-12a5,5,0,1,0,5,5A5.00588,5.00588,0,0,0,54,43Z" fill="#0cb374" data-original="#000000" style=""/><path xmlns="http://www.w3.org/2000/svg" d="M54,55c-2.23242,0-3.40039-3.52148-3.40039-7S51.76758,41,54,41s3.40039,3.52148,3.40039,7S56.23242,55,54,55Zm-.002-12c-.40235.06543-1.39844,1.89844-1.39844,5s.99609,4.93457,1.40234,5c.40235-.06543,1.39844-1.89844,1.39844-5S54.4043,43.06543,53.99805,43Z" fill="#0cb374" data-original="#000000" style=""/><path xmlns="http://www.w3.org/2000/svg" d="M54,51.40039c-3.47852,0-7-1.168-7-3.40039s3.52148-3.40039,7-3.40039S61,45.76758,61,48,57.47852,51.40039,54,51.40039Zm0-4.80078c-3.10156,0-4.93457.99609-5,1.40234.06543.40235,1.89844,1.39844,5,1.39844s4.93457-.99609,5-1.40234C58.93457,47.5957,57.10156,46.59961,54,46.59961Z" fill="#0cb374" data-original="#000000" style=""/></g></svg>
