<?xml version="1.0" encoding="UTF-8"?>
<svg width="32px" height="32px" viewBox="0 0 32 32" version="1.1" xmlns="http://www.w3.org/2000/svg" xmlns:xlink="http://www.w3.org/1999/xlink">
    <!-- Generator: Sketch 43.2 (39069) - http://www.bohemiancoding.com/sketch -->
    <title>Metacategory / Dentistry</title>
    <desc>Created with Sketch.</desc>
    <defs></defs>
    <g id="Page-1" stroke="none" stroke-width="1" fill="none" fill-rule="evenodd">
        <g id="New-meta-draft" transform="translate(-584.000000, -84.000000)">
            <g id="Slice" transform="translate(84.000000, 84.000000)"></g>
            <g id="Icon" transform="translate(51.000000, 42.000000)" stroke="#DA0000" stroke-width="2">
                <g id="Meta" transform="translate(28.000000, 0.000000)">
                    <g id="Dentistry" transform="translate(508.000000, 45.000000)">
                        <path d="M16.0047,0.9122 C17.3517,0.3042 18.7267,0.0002 19.9997,0.0002 C23.9997,0.0002 25.9997,3.0002 25.9997,7.0002 C25.9997,16.3952 20.8937,23.6022 19.4037,25.5042 C19.1557,25.8212 18.7787,26.0002 18.3777,26.0002 L17.9997,26.0002 C17.4097,26.0002 16.8927,25.6052 16.7367,25.0352 L14.2627,15.9652 C14.1077,15.3952 13.5907,15.0002 12.9997,15.0002 L12.9997,15.0002 C12.4097,15.0002 11.8927,15.3952 11.7367,15.9652 L9.2627,25.0352 C9.1077,25.6052 8.5907,26.0002 7.9997,26.0002 L7.6227,26.0002 C7.2207,26.0002 6.8437,25.8212 6.5967,25.5042 C5.1067,23.6022 -0.0003,16.3952 -0.0003,7.0002 C-0.0003,3.0002 1.9997,0.0002 5.9997,0.0002 C9.9997,0.0002 14.9997,3.0002 16.9997,9.0002" id="Stroke-1"></path>
                        <path d="M5,7 C5,9.267 5,12 7,15" id="Stroke-3"></path>
                    </g>
                </g>
            </g>
        </g>
    </g>
</svg>