<?xml version="1.0"?>
<svg xmlns="http://www.w3.org/2000/svg" xmlns:xlink="http://www.w3.org/1999/xlink" xmlns:svgjs="http://svgjs.com/svgjs" version="1.1" width="512" height="512" x="0" y="0" viewBox="0 0 512 512" style="enable-background:new 0 0 512 512" xml:space="preserve" class=""><g><path xmlns="http://www.w3.org/2000/svg" d="m0 452h71.460938l71.699218 35.851562c31.597656 15.796876 66.972656 24.148438 102.296875 24.148438 49.167969 0 97.910157-16.246094 137.242188-45.746094l91-68.25-53.996094-71.996094-75.988281 56.992188c-4.132813 3.097656-8.796875 5.445312-13.714844 6.96875v-57.96875h-56.832031c-28.539063 0-56.179688-8.367188-79.925781-24.199219-30.953126-20.636719-66.375-32.695312-103.242188-35.273437v-.527344h-90zm176.601562-119.238281c28.691407 19.128906 62.082032 29.238281 96.566407 29.238281h26.832031v30h-62.574219c-12.578125 0-24.761719-2.640625-36.210937-7.851562l-12.429688 27.304687c15.378906 7 31.746094 10.546875 48.640625 10.546875h79.289063c16.121094 0 32.101562-5.328125 45-15l51.988281-38.992188 17.996094 23.996094-67 50.25c-34.175781 25.628906-76.523438 39.746094-119.242188 39.746094-30.691406 0-61.425781-7.253906-88.878906-20.980469l-66.578125-33.289062v-125.113281c30.917969 2.519531 60.597656 12.808593 86.601562 30.144531zm-146.601562-30.761719h30v120h-30zm0 0" fill="#0b5830" data-original="#000000" style=""/><path xmlns="http://www.w3.org/2000/svg" d="m480 272h-32.007812l-34.289063-60h-53.703125v-62h90v-30h-90v-32.578125c17.460938-6.195313 30-22.867187 30-42.421875 0-24.8125-20.1875-45-45-45s-45 20.1875-45 45c0 19.554688 12.539062 36.226562 30 42.421875v3.664063c-4.945312-.707032-9.949219-1.085938-15-1.085938-58.621094 0-105 49.574219-105 107 0 57.898438 47.101562 105 105 105 36.085938 0 69.113281-18.558594 88.175781-47.960938l27.40625 47.960938h49.417969zm-135-242c8.269531 0 15 6.730469 15 15s-6.730469 15-15 15-15-6.730469-15-15 6.730469-15 15-15zm-30 242c-41.355469 0-75-33.644531-75-75 0-41.738281 34.347656-77 75-77 5.078125 0 10.09375.515625 15 1.511719v120.476562h45.003906c-13.925781 18.519531-36.015625 30.011719-60.003906 30.011719zm0 0" fill="#0b5830" data-original="#000000" style=""/></g></svg>
