<?xml version="1.0"?>
<svg xmlns="http://www.w3.org/2000/svg" xmlns:xlink="http://www.w3.org/1999/xlink" xmlns:svgjs="http://svgjs.com/svgjs" version="1.1" width="512" height="512" x="0" y="0" viewBox="0 0 64 64" style="enable-background:new 0 0 512 512" xml:space="preserve" class=""><g><g xmlns="http://www.w3.org/2000/svg"><path d="m59 29c0-3.062-1.163-5.852-3.058-7.974-.514-11.819-10.071-21.026-21.942-21.026s-21.428 9.207-21.942 21.026c-1.895 2.122-3.058 4.912-3.058 7.974 0 2.423.727 4.677 1.968 6.565-3.79 3.06-5.968 7.573-5.968 12.435 0 8.822 7.178 16 16 16 4.04 0 7.828-1.529 10.713-4.137.835.091 1.576.137 2.287.137 12.131 0 22-9.869 22-22v-1.089c1.861-2.115 3-4.879 3-7.911zm-25-27c10.103 0 18.361 7.338 19.758 17.092-1.927-1.318-4.253-2.092-6.758-2.092h-26c-2.505 0-4.832.774-6.758 2.092 1.397-9.754 9.655-17.092 19.758-17.092zm-13 17h26c5.514 0 10 4.486 10 10s-4.486 10-10 10c-4.447 0-8.4-2.991-9.613-7.272-.122-.431-.515-.728-.962-.728h-4.85c-.447 0-.84.297-.962.728-1.213 4.281-5.166 7.272-9.613 7.272-5.514 0-10-4.486-10-10s4.486-10 10-10zm2.947 38.538c-.942.291-1.928.462-2.947.462-5.514 0-10-4.486-10-10 0-1.885.533-3.692 1.516-5.259 1.386 6.366 5.53 11.78 11.431 14.797zm-16.947-9.538c0-4.153 1.825-8.01 5-10.683v.683c0 .674.039 1.339.098 2-1.994 2.205-3.098 5.021-3.098 8 0 6.617 5.383 12 12 12 4.491 0 8.572-2.488 10.651-6.492.238-.458.087-1.023-.347-1.302-1.443-.928-2.304-2.5-2.304-4.206 0-2.757 2.243-5 5-5s5 2.243 5 5c0 2.507-1.875 4.637-4.362 4.954-.35.045-.65.27-.791.594-2.226 5.135-7.269 8.452-12.847 8.452-7.72 0-14-6.28-14-14zm27 10c-.171 0-.345-.004-.522-.01.768-.958 1.437-2.009 1.978-3.148 3.198-.677 5.544-3.524 5.544-6.842 0-3.86-3.14-7-7-7s-7 3.14-7 7c0 2.07.903 3.998 2.456 5.319-.808 1.286-1.889 2.333-3.13 3.12-7.268-3.022-12.011-9.862-12.297-17.691 1.967 1.411 4.37 2.252 6.971 2.252 5.082 0 9.626-3.253 11.306-8h3.389c1.68 4.747 6.224 8 11.306 8 2.596 0 4.996-.837 6.962-2.245-.403 10.677-9.19 19.245-19.963 19.245z" fill="#1a23b3" data-original="#000000" style="" class=""/><path d="m21 37c3.557 0 6.719-2.392 7.688-5.817.365-1.286 1.552-2.183 2.887-2.183h4.85c1.336 0 2.523.897 2.887 2.183.969 3.425 4.131 5.817 7.688 5.817 4.411 0 8-3.589 8-8s-3.589-8-8-8h-26c-4.411 0-8 3.589-8 8s3.589 8 8 8zm0-14h26c3.309 0 6 2.691 6 6s-2.691 6-6 6c-2.667 0-5.037-1.794-5.765-4.362-.606-2.142-2.585-3.638-4.81-3.638h-4.85c-2.226 0-4.204 1.496-4.811 3.638-.727 2.568-3.098 4.362-5.764 4.362-3.309 0-6-2.691-6-6s2.691-6 6-6z" fill="#1a23b3" data-original="#000000" style="" class=""/><path d="m34 6c6.025 0 11.466 3.296 14.201 8.601.177.345.527.542.89.542.154 0 .311-.036.457-.111.491-.253.684-.856.431-1.347-3.08-5.974-9.202-9.685-15.979-9.685-.552 0-1 .448-1 1s.448 1 1 1z" fill="#1a23b3" data-original="#000000" style="" class=""/><path d="m34 51c1.654 0 3-1.346 3-3s-1.346-3-3-3-3 1.346-3 3 1.346 3 3 3zm0-4c.551 0 1 .449 1 1s-.449 1-1 1-1-.449-1-1 .449-1 1-1z" fill="#1a23b3" data-original="#000000" style="" class=""/></g></g></svg>
