<svg id="_x32_1_Diving_Goggles_1_" enable-background="new 0 0 512 512" height="512" viewBox="0 0 512 512" width="512" xmlns="http://www.w3.org/2000/svg"><g id="_x32_1_Diving_Goggles"><g><path d="m362.3 119.7h-216.8c-13.7 0-27.1 2.1-39.8 6.1v-93.7c0-17.7-14.4-32.1-32.2-32.1-17.7 0-32.1 14.4-32.1 32.1v137.4c-22.3 27.7-32.7 63.5-28.7 99.4 2.8 25.3 13.2 48.7 28.7 67.9v27.3c0 54.8 34.9 103 87 120.1l35.3 11.5c5.8 9.7 16.5 16.3 28.7 16.3h48.8c18.5 0 33.5-15 33.5-33.5v-28.3c0-18.5-15-33.4-33.5-33.4h-48.8c-10.5 0-19.7 4.7-25.9 12.2l-18.1-5.9c-19.8-6.5-34.5-22.1-40.1-41.4 5.4 1.6 11 2.9 16.7 3.8 38.6 5.6 74.5-4.7 102.6-26.6 16.5-12.8 40.4-12.4 58.1 1.1 23.4 17.7 51.3 27 80.7 27 74.7 0 134.9-61 133.7-136-1.2-72.4-63-131.3-137.8-131.3zm-181.9 328.2c1.3-5.9 6.3-9.8 11.9-9.8h48.8c6.7 0 12.2 5.4 12.2 12.1v28.3c0 6.7-5.4 12.2-12.2 12.2h-48.8c-5.1 0-9.5-3.2-11.3-7.7-1.4-3.7-.7-34.4-.6-35.1zm-117.6-415.8c0-6 4.9-10.8 10.8-10.8 6 0 10.8 4.8 10.8 10.8v102.4c-7.6 3.9-14.8 8.6-21.6 13.9zm78.9 411.3 17.2 5.7v22.6l-23.8-7.7c-43.2-14.1-72.3-54.2-72.3-99.8v-6.2c6.9 5.5 14.2 10.3 22 14.4 3.2 32.7 25.3 60.6 56.9 71zm224.7-77.7c-24.7 0-48.2-7.8-67.8-22.7-25.8-19.5-60.5-19.4-84.1-.9-24.5 19-55.1 27-86.3 22.3-49-7.3-88.6-48.5-94.2-97.9-7.9-68.9 46-125.5 111.5-125.5h216.8c63.1 0 115.4 49.5 116.4 110.3 1.1 63-49.5 114.4-112.3 114.4z"/><path d="m362.3 162.6h-216.8c-52.6 0-96.5 45.4-90.2 101.4 4.5 39.9 36.5 73.1 76 79 26.3 3.9 50.7-3.1 69.9-18 32.9-25.6 78.2-23.7 110.4.7 15.8 12 34.8 18.3 54.8 18.3 50.7 0 91.6-41.4 90.8-92.4-.9-49-43.4-89-94.9-89zm4.1 160.2c-15.3 0-29.8-4.9-41.9-14-39.7-30.2-95.7-32.3-136.4-.6-15.1 11.8-34.3 16.7-53.6 13.8-30.1-4.5-54.5-29.8-57.9-60.3-4.9-43.1 28.8-77.7 69-77.7h216.8c39.9 0 72.9 30.6 73.5 68.2.6 38.4-30.3 70.6-69.5 70.6z"/></g></g></svg>