<?xml version="1.0"?>
<svg xmlns="http://www.w3.org/2000/svg" xmlns:xlink="http://www.w3.org/1999/xlink" xmlns:svgjs="http://svgjs.com/svgjs" version="1.1" width="512" height="512" x="0" y="0" viewBox="0 0 512.00025 512" style="enable-background:new 0 0 512 512" xml:space="preserve" class=""><g><path xmlns="http://www.w3.org/2000/svg" d="m166.28125 138.222656h20.421875c4.140625 0 7.5-3.355468 7.5-7.5 0-4.140625-3.359375-7.5-7.5-7.5h-20.421875c-4.144531 0-7.5 3.359375-7.5 7.5 0 4.144532 3.355469 7.5 7.5 7.5zm0 0" fill="#148f0a" data-original="#000000" style="" class=""/><path xmlns="http://www.w3.org/2000/svg" d="m220.71875 166.613281h-54.4375c-4.144531 0-7.5 3.355469-7.5 7.5 0 4.140625 3.355469 7.5 7.5 7.5h54.4375c4.140625 0 7.5-3.359375 7.5-7.5 0-4.144531-3.359375-7.5-7.5-7.5zm0 0" fill="#148f0a" data-original="#000000" style="" class=""/><path xmlns="http://www.w3.org/2000/svg" d="m220.71875 197.734375h-54.4375c-4.144531 0-7.5 3.355469-7.5 7.5 0 4.140625 3.355469 7.5 7.5 7.5h54.4375c4.140625 0 7.5-3.359375 7.5-7.5 0-4.144531-3.359375-7.5-7.5-7.5zm0 0" fill="#148f0a" data-original="#000000" style="" class=""/><path xmlns="http://www.w3.org/2000/svg" d="m220.71875 228.855469h-54.4375c-4.144531 0-7.5 3.355469-7.5 7.5 0 4.140625 3.355469 7.5 7.5 7.5h54.4375c4.140625 0 7.5-3.359375 7.5-7.5 0-4.144531-3.359375-7.5-7.5-7.5zm0 0" fill="#148f0a" data-original="#000000" style="" class=""/><path xmlns="http://www.w3.org/2000/svg" d="m482.171875 307.914062 19.652344-19.652343c13.570312-13.566407 13.566406-35.644531 0-49.214844-6.574219-6.574219-15.3125-10.191406-24.609375-10.191406-9.292969 0-18.03125 3.617187-24.605469 10.191406l-21.511719 21.511719v-110.328125c0-4.140625-3.355468-7.5-7.5-7.5-4.144531 0-7.5 3.359375-7.5 7.5v156.4375c-14.347656 1.945312-25.9375 12.660156-29.1875 26.554687h-108.734375c5.28125-14.410156 2.15625-31.234375-9.390625-42.78125-1.179687-1.179687-2.421875-2.265625-3.710937-3.277344v-12.242187h71.027343c9.878907 0 17.914063-8.035156 17.914063-17.914063v-117.367187c0-9.878906-8.035156-17.914063-17.914063-17.914063h-71.027343v-70.089843h151.023437v64.066406c0 4.144531 3.355469 7.5 7.5 7.5 4.140625 0 7.5-3.355469 7.5-7.5v-64.066406h6.339844c9.585938 0 17.382812-7.796875 17.382812-17.382813v-16.871094c0-9.585937-7.796874-17.382812-17.382812-17.382812h-193.703125c-9.585937 0-17.382813 7.796875-17.382813 17.382812v16.871094c0 9.585938 7.796876 17.382813 17.382813 17.382813h6.339844v32.332031h-28.816407c-4.140624 0-7.5 3.359375-7.5 7.503906 0 4.140625 3.359376 7.5 7.5 7.5h28.816407v89.738282c0 4.140624 3.355469 7.5 7.5 7.5 4.140625 0 7.5-3.359376 7.5-7.5v-51.984376h71.027343c1.605469 0 2.910157 1.308594 2.910157 2.914063v117.363281c0 1.609375-1.304688 2.914063-2.910157 2.914063h-71.027343v-36.683594c0-4.144531-3.359375-7.5-7.5-7.5-4.144531 0-7.5 3.355469-7.5 7.5v56.539063c-3.242188-.816407-6.605469-1.242188-10.035157-1.242188-3.578124 0-7.085937.46875-10.453124 1.359375-1.957032-3.933594-4.539063-7.566406-7.660157-10.683594-15.847656-15.847656-41.636719-15.847656-57.488281 0-.160156.160157-.308594.332031-.46875.496094h-30.09375v-167.820313c0-1.605468 1.304688-2.914062 2.910156-2.914062h49.949219c4.144531 0 7.5-3.355469 7.5-7.5 0-4.140625-3.355469-7.5-7.5-7.5h-49.949219c-9.875 0-17.910156 8.039062-17.910156 17.914062v167.820313h-40.8125c-5.84375 0-11.332031 2.859375-14.675781 7.652344-3.359375 4.816406-4.152344 10.992187-2.117188 16.511719 1.015625 2.757812 2.269531 5.414062 3.742188 7.949218-1.90625 1.148438-3.726563 2.480469-5.433594 4.011719-14.011719-12.578125-35.652344-12.136719-49.125 1.335937-13.9375 13.9375-13.9375 36.609376 0 50.542969 6.964844 6.96875 16.117187 10.449219 25.269531 10.449219 8.542969 0 17.089844-3.039062 23.855469-9.113281 6.769531 6.074219 15.3125 9.113281 23.859375 9.113281 9.152344 0 18.300781-3.480469 25.269531-10.449219 8.25-8.25 11.613281-19.5625 10.09375-30.3125h46.375c7.699219 7.328125 17.746094 11.222657 27.992188 11.222657 3.488281 0 6.996093-.460938 10.445312-1.378907 1.9375 3.902344 4.511719 7.515625 7.683594 10.6875 7.925781 7.925781 18.335937 11.886719 28.746094 11.886719 10.273437 0 20.542969-3.867188 28.429687-11.589844h118.246094c3.28125 15.804688 17.3125 27.71875 34.074219 27.71875h51.023437c19.191406 0 34.804688-15.613281 34.804688-34.800781-.003906-15.582031-10.300782-28.808594-24.449219-33.226563zm-240.820313-273.660156v-16.871094c0-1.3125 1.066407-2.382812 2.382813-2.382812h193.703125c1.3125 0 2.382812 1.070312 2.382812 2.382812v16.871094c0 1.3125-1.070312 2.382813-2.382812 2.382813h-193.703125c-1.3125 0-2.382813-1.070313-2.382813-2.382813zm221.863282 215.398438c7.71875-7.71875 20.28125-7.71875 28.003906 0 7.71875 7.722656 7.71875 20.28125 0 28.003906l-14.972656 14.96875-28-28zm-25.578125 25.578125 28 28.003906-3.105469 3.105469h-31.433594v-24.566406zm-185.554688 21.304687-34.6875 34.6875c-5.148437-9.695312-3.644531-22.019531 4.507813-30.175781 5-5 11.570312-7.5 18.136718-7.5 4.148438 0 8.292969.996094 12.042969 2.988281zm-40.761719-16.71875c1.945313 1.945313 3.527344 4.140625 4.742188 6.539063-1.675781 1.226562-3.269531 2.585937-4.765625 4.082031-2.570313 2.574219-4.75 5.433594-6.515625 8.503906l-23.640625-23.636718c9.695313-5.148438 22.019531-3.644532 30.179687 4.511718zm-190.261718 67.285156c-8.085938-8.085937-8.085938-21.242187 0-29.328124 8.085937-8.085938 21.242187-8.085938 29.328125 0 .109375.109374.207031.234374.316406.347656-3.96875 9.105468-3.96875 19.53125 0 28.632812-.109375.113282-.207031.238282-.316406.347656-8.085938 8.085938-21.242188 8.085938-29.328125 0zm77.042968 0c-8.085937 8.085938-21.242187 8.085938-29.328124 0-8.085938-8.085937-8.085938-21.242187 0-29.328124 4.042968-4.042969 9.351562-6.0625 14.664062-6.0625 5.308594 0 10.621094 2.019531 14.664062 6.0625 8.082032 8.085937 8.082032 21.242187 0 29.328124zm10.605469-39.933593c-7.921875-7.921875-18.664062-11.335938-29.023437-10.25-1.792969-2.554688-3.261719-5.308594-4.335938-8.230469-.472656-1.285156.011719-2.273438.34375-2.75.324219-.460938 1.058594-1.234375 2.375-1.234375h76.675782c-1.449219 4.207031-2.207032 8.667969-2.207032 13.25 0 5.015625.910156 9.890625 2.640625 14.441406h-42.152343c-1.25-1.839843-2.683594-3.597656-4.316407-5.226562zm66.339844 8.917969c-4.84375-4.84375-7.511719-11.285157-7.511719-18.132813 0-4.273437 1.035156-8.386719 2.992188-12.050781l29.082031 29.082031c-.140625 1.386719-.21875 2.785156-.21875 4.199219 0 1.210937.0625 2.414062.167969 3.609375-8.710938 2.238281-18.03125-.222657-24.511719-6.707031zm52.953125 25.742187 34.6875-34.683594c5.148438 9.691407 3.644531 22.019531-4.507812 30.175781-8.15625 8.152344-20.484376 9.65625-30.179688 4.507813zm172.992188-.6875c0-10.917969 8.882812-19.796875 19.800781-19.796875h14.851562v39.597656h-14.851562c-10.917969 0-19.800781-8.882812-19.800781-19.800781zm70.824218 19.800781h-21.171875v-39.597656h21.171875c10.917969 0 19.800782 8.878906 19.800782 19.796875s-8.882813 19.800781-19.800782 19.800781zm0 0" fill="#148f0a" data-original="#000000" style="" class=""/></g></svg>
