<?xml version="1.0"?>
<svg xmlns="http://www.w3.org/2000/svg" xmlns:xlink="http://www.w3.org/1999/xlink" xmlns:svgjs="http://svgjs.com/svgjs" version="1.1" width="512" height="512" x="0" y="0" viewBox="0 0 508.823 508.823" style="enable-background:new 0 0 512 512" xml:space="preserve" class=""><g><g xmlns="http://www.w3.org/2000/svg"><path d="m449.59 406.358c4.143 0 7.5-3.358 7.5-7.5v-206.999c0-78.978-64.253-143.232-143.231-143.232h-49.899v-7.636c7.989-3.034 13.682-10.77 13.682-19.81-.001-11.679-9.503-21.181-21.183-21.181-7.788 0-14.931 4.258-18.639 11.113-1.971 3.643-.615 8.194 3.028 10.165 3.644 1.971 8.194.615 10.165-3.028 1.084-2.005 3.171-3.25 5.445-3.25 3.408 0 6.182 2.773 6.182 6.181s-2.773 6.182-6.182 6.182c-4.143 0-7.5 3.358-7.5 7.5v13.764h-53.995c-78.979 0-143.231 64.254-143.231 143.232v293.509c0 12.933 10.521 23.455 23.454 23.455h358.449c12.933 0 23.454-10.522 23.454-23.455v-56.51c0-4.142-3.357-7.5-7.5-7.5s-7.5 3.358-7.5 7.5v56.51c0 4.662-3.792 8.455-8.454 8.455h-358.448c-4.662 0-8.454-3.793-8.454-8.455v-293.509c0-70.707 57.524-128.232 128.231-128.232h53.995v5.214c-13.129.611-26.19 3.424-38.695 8.442l-74.234 29.794c-1.267.509-2.314 1.328-3.1 2.331-25.449 26.036-39.459 60.462-39.459 97.049 0 4.142 3.357 7.5 7.5 7.5s7.5-3.358 7.5-7.5c0-29.238 10.021-56.929 28.419-79.072 9.228 21.334 13.707 44.61 13.009 67.983l-4.299 197.922-37.129-5.542v-153.904c0-4.142-3.357-7.5-7.5-7.5s-7.5 3.358-7.5 7.5v160.368 19.143c0 6.784 5.297 12.355 11.974 12.793l25.879 4.88v19.178c0 9.308 7.572 16.88 16.881 16.88h212.43c9.308 0 16.88-7.572 16.88-16.88v-19.181l25.864-4.878c6.677-.438 11.974-6.008 11.974-12.793v-19.143-64.393c0-4.142-3.357-7.5-7.5-7.5-4.142 0-7.5 3.358-7.5 7.5v57.929l-37.129 5.542-4.3-197.982c-.698-23.321 3.782-46.589 13.01-67.922 18.398 22.142 28.419 49.833 28.419 79.072v96.604c0 4.142 3.358 7.5 7.5 7.5 4.143 0 7.5-3.358 7.5-7.5v-96.604c0-36.555-13.986-70.953-39.393-96.981-.791-1.033-1.855-1.879-3.151-2.399l-74.234-29.794c-11.208-4.498-22.864-7.218-34.614-8.175v-5.481h49.899c70.707 0 128.231 57.525 128.231 128.232v206.999c-.001 4.142 3.357 7.5 7.499 7.5zm-137.915-260.154 9.278 40.96-58.703 56.07c1.201-20.399 7.211-39.146 17.421-53.85 13.553-19.521 20.717-42.434 20.717-66.262v-23.456l28.621 25.169-15.156 14.248c-1.937 1.82-2.766 4.529-2.178 7.121zm-116.689-7.121-15.156-14.248 28.621-25.169v23.457c0 23.827 7.164 46.74 20.717 66.262 11.171 16.09 17.357 34.831 17.985 54.391l-59.268-56.611 9.279-40.959c.587-2.594-.242-5.303-2.178-7.123zm28.465-24.663h61.937v8.703c0 20.755-6.237 40.71-18.038 57.707-5.217 7.513-9.466 15.912-12.718 24.939-3.329-8.749-7.714-17.119-13.142-24.939-11.802-16.997-18.039-36.952-18.039-57.707zm61.937-15h-61.937v-10.927c20.219-6.36 41.72-6.36 61.937 0zm-176.917 303.494 36.884 5.505-.104 9.971-36.78-6.936zm37.853 47.292v-16.349l.377.071h.701c7.069 0 12.821-5.751 12.821-12.742l.208-19.973 4.463-205.456c.801-26.779-4.657-53.486-15.792-77.762l29.051-11.66-14.424 12.684c-1.586 1.395-2.511 3.395-2.546 5.508s.822 4.142 2.362 5.589l18.041 16.959-9.271 40.921c-.583 2.571.228 5.26 2.134 7.081l72.183 68.945v42.004h-9.268c-4.143 0-7.5 3.358-7.5 7.5s3.357 7.5 7.5 7.5h9.268v10.468h-9.268c-4.143 0-7.5 3.358-7.5 7.5s3.357 7.5 7.5 7.5h9.268v29.532h-9.268c-4.143 0-7.5 3.358-7.5 7.5s3.357 7.5 7.5 7.5h9.268v10.468h-9.268c-4.143 0-7.5 3.358-7.5 7.5s3.357 7.5 7.5 7.5h9.268v35.593h-98.428c-1.037-.001-1.88-.845-1.88-1.881zm217.241-31.815-.132-9.967 36.919-5.51v8.54zm-19.637-222.696 4.46 205.371-.053.001.265 20.041c0 7.069 5.752 12.821 12.821 12.821h.701l.392-.074v16.352c0 1.037-.844 1.88-1.88 1.88h-99.002v-35.593h9.209c4.143 0 7.5-3.358 7.5-7.5s-3.357-7.5-7.5-7.5h-9.209v-10.468h9.209c4.143 0 7.5-3.358 7.5-7.5s-3.357-7.5-7.5-7.5h-9.209v-29.532h9.209c4.143 0 7.5-3.358 7.5-7.5s-3.357-7.5-7.5-7.5h-9.209v-10.468h9.209c4.143 0 7.5-3.358 7.5-7.5s-3.357-7.5-7.5-7.5h-9.209v-41.832c.079-.193.162-.385.225-.585.863-.346 1.677-.856 2.391-1.538l70.14-66.994c1.906-1.821 2.717-4.509 2.134-7.081l-9.27-40.921 18.041-16.959c1.54-1.447 2.397-3.476 2.362-5.589s-.96-4.113-2.546-5.508l-14.423-12.683 29.036 11.654c-11.135 24.276-16.594 50.979-15.794 77.705z" fill="#0f7c34" data-original="#000000" style=""/></g></g></svg>
