<?xml version="1.0"?>
<svg xmlns="http://www.w3.org/2000/svg" xmlns:xlink="http://www.w3.org/1999/xlink" xmlns:svgjs="http://svgjs.com/svgjs" version="1.1" width="512" height="512" x="0" y="0" viewBox="0 0 24 24" style="enable-background:new 0 0 512 512" xml:space="preserve"><g><g xmlns="http://www.w3.org/2000/svg" id="ear2" fill="rgb(0,0,0)" fill-rule="nonzero"><path id="Path-113" d="m18 9.5c0-8.66666667-12-8.66666667-12 0 0 2.0051538.60858909 3.0218455 2.15738461 4.3232549-.08806163-.0739958.48348339.4029003.62849084.5278398 1.23827395 1.0669056 1.88144105 2.0349974 2.22383425 3.7469634.8573861 4.2869308 6.9902903 3.9432981 6.9902903-.5980581 0-.2761424-.2238576-.5-.5-.5s-.5.2238576-.5.5c0 3.2948299-4.3820262 3.5403592-5.0097097.4019419-.3906625-1.9533128-1.1569493-3.1067238-2.55167596-4.3084302-.15204983-.1310072-.73214817-.6150402-.63791561-.5358592-1.34338838-1.1288115-1.80069873-1.8927812-1.80069873-3.5576525 0-7.33333333 10-7.33333333 10 0 0 .27614237.2238576.5.5.5s.5-.22385763.5-.5z" fill="#2d14df" data-original="#000000" style=""/><path id="Path-114" d="m13.5 11.5c-.1091581 0-.1794133-.3512763.2236068-.5527864 1.0203646-.5101823 1.2763932-1.02223948 1.2763932-1.9472136 0-1.87664148-1.2961829-3-3-3-1.6121864 0-3 1.01772999-3 2.5 0 .27614237.22385763.5.5.5s.5-.22385763.5-.5c0-.85106332.8849137-1.5 2-1.5 1.1807983 0 2 .70997481 2 2 0 .57502588-.0773048.72963538-.7236068 1.0527864-1.3242526.6621263-.9672351 2.4472136.2236068 2.4472136.2761424 0 .5-.2238576.5-.5s-.2238576-.5-.5-.5z" fill="#2d14df" data-original="#000000" style=""/><path id="Path-115" d="m14 10.5c0-2.66666667-4-2.66666667-4 0 0 1.0497972.3783463 1.7036417 1.2641485 2.5768686.0601905.0593361.3176366.3094125.3845541.3754841.9645861.9523928 1.3512974 1.6877359 1.3512974 3.0476473 0 2.1666667 3 2.1666667 3 0 0-.2761424-.2238576-.5-.5-.5s-.5.2238576-.5.5c0 .8333333-1 .8333333-1 0 0-1.6647873-.5103955-2.6353197-1.6487026-3.7592374-.0706991-.0698054-.3285226-.3202485-.3851152-.3760377-.7135357-.7034059-.9661822-1.1400206-.9661822-1.8647249 0-1.33333333 2-1.33333333 2 0 0 .2761424.2238576.5.5.5s.5-.2238576.5-.5z" fill="#2d14df" data-original="#000000" style=""/></g></g></svg>
