<?xml version="1.0"?>
<svg xmlns="http://www.w3.org/2000/svg" xmlns:xlink="http://www.w3.org/1999/xlink" xmlns:svgjs="http://svgjs.com/svgjs" version="1.1" width="512" height="512" x="0" y="0" viewBox="0 0 24 24" style="enable-background:new 0 0 512 512" xml:space="preserve"><g><path xmlns="http://www.w3.org/2000/svg" d="m17.75 23.45a2.86 2.86 0 1 1 2.86-2.86 2.86 2.86 0 0 1 -2.86 2.86zm0-3.81a1 1 0 1 0 1 .95 1 1 0 0 0 -1-.95z" fill="#1a90d7" data-original="#000000" style=""/><path xmlns="http://www.w3.org/2000/svg" d="m9.16 23.45a2.86 2.86 0 1 1 2.84-2.86 2.86 2.86 0 0 1 -2.84 2.86zm0-3.81a1 1 0 1 0 .95.95 1 1 0 0 0 -.95-.95z" fill="#1a90d7" data-original="#000000" style=""/><path xmlns="http://www.w3.org/2000/svg" d="m11.07 19.64h4.77v1.91h-4.77z" fill="#1a90d7" data-original="#000000" style=""/><path xmlns="http://www.w3.org/2000/svg" d="m23.48 21.54h-3.82v-1.9h1.91v-1.91a1.91 1.91 0 0 0 -1.91-1.91h-.54l-2.31-3.82a1.89 1.89 0 0 0 -1.64-1h-6a1.9 1.9 0 0 0 -1.77 1.21l-1.13 2.8v4.59h1v1.9h-2.88v-6.82l1.26-3.14a3.77 3.77 0 0 1 3.54-2.4h6a3.78 3.78 0 0 1 3.26 1.86l1.77 3a3.83 3.83 0 0 1 3.26 3.78z" fill="#1a90d7" data-original="#000000" style=""/><path xmlns="http://www.w3.org/2000/svg" d="m11.07 13.91h8.59v1.91h-8.59z" fill="#1a90d7" data-original="#000000" style=""/><path xmlns="http://www.w3.org/2000/svg" d="m12.98 12h1.91v2.86h-1.91z" fill="#1a90d7" data-original="#000000" style=""/><path xmlns="http://www.w3.org/2000/svg" d="m5.34 18.68h-1a3.82 3.82 0 0 1 -3.77-3.82v-7.63a3.82 3.82 0 0 1 3.82-3.82h11.45v1.91h-11.45a1.9 1.9 0 0 0 -1.91 1.91v7.63a1.9 1.9 0 0 0 1.91 1.91h1z" fill="#1a90d7" data-original="#000000" style=""/><path xmlns="http://www.w3.org/2000/svg" d="m20.61 8.18h-2.86a2.86 2.86 0 0 1 -2.86-2.86v-1.91a2.86 2.86 0 0 1 2.86-2.86h2.86zm-2.86-5.73a1 1 0 0 0 -1 1v1.87a1 1 0 0 0 1 .95h1v-3.82z" fill="#1a90d7" data-original="#000000" style=""/><path xmlns="http://www.w3.org/2000/svg" d="m19.66 1.5h3.82v1.91h-3.82z" fill="#1a90d7" data-original="#000000" style=""/><path xmlns="http://www.w3.org/2000/svg" d="m19.66 5.32h3.82v1.91h-3.82z" fill="#1a90d7" data-original="#000000" style=""/></g></svg>
