<?xml version="1.0"?>
<svg xmlns="http://www.w3.org/2000/svg" xmlns:xlink="http://www.w3.org/1999/xlink" xmlns:svgjs="http://svgjs.com/svgjs" version="1.1" width="512" height="512" x="0" y="0" viewBox="0 0 512 512" style="enable-background:new 0 0 512 512" xml:space="preserve"><g><g xmlns="http://www.w3.org/2000/svg"><path d="m173.419 16.516h338.581v-16.516h-338.581c-40.977 0-74.323 33.338-74.323 74.323v33.032c0 13.659 11.115 24.774 24.774 24.774h66.065v16.516h-33.032c-9.109 0-16.516 7.407-16.516 16.516v16.516c0 9.109 7.407 16.516 16.516 16.516h33.032v33.032c-9.109 0-16.516 7.407-16.516 16.516v16.516c0 9.109 7.407 16.516 16.516 16.516v17.681c-110.525 7.664-189.935 51.729-189.935 106.191 0 60.201 97.941 107.355 222.968 107.355s222.968-47.154 222.968-107.355c0-54.462-79.41-98.527-189.935-106.19v-17.681c9.109 0 16.516-7.407 16.516-16.516h33.032v16.516h16.516v-49.548h-16.516v16.516h-33.032c0-9.109-7.407-16.516-16.516-16.516v-33.032h33.032c9.109 0 16.516-7.407 16.516-16.516v-16.516c0-9.109-7.407-16.516-16.516-16.516h-33.033v-16.516h33.032c13.659 0 24.774-11.115 24.774-24.774v-8.258h198.194v-16.517h-206.452-8.258-49.548v-16.516c0-9.109-7.407-16.516-16.516-16.516h-16.516c-9.109 0-16.516 7.407-16.516 16.516v16.516h-16.516v-16.516c0-9.109-7.407-16.516-16.516-16.516h-16.516c-9.109 0-16.516 7.407-16.516 16.516v16.516h-16.516v-8.258c-.001-31.868 25.929-57.807 57.805-57.807zm256 388.129c0 49.243-94.547 90.839-206.452 90.839-29.498 0-57.757-2.915-83.431-8.068.908-.479 1.866-.851 2.758-1.371l38.986-22.734c3.691 1.041 7.763 1.486 12.148 1.148 3.163-.289 6.07.933 8.142 3.361 6.127 7.193 13.725 11.148 21.397 11.148s15.269-3.956 21.397-11.148c2.073-2.42 4.938-3.675 8.142-3.369 9.464.735 17.59-1.833 23.015-7.251 5.417-5.426 7.994-13.593 7.251-23.007-.248-3.188.941-6.078 3.369-8.142.14-.124.239-.264.38-.388 10.876 12.66 26.764 20.274 43.801 20.274h57.806v-8.258c0-31.868-25.93-57.806-57.806-57.806h-46.708c-.661-1.453-.974-3.064-.842-4.765.743-9.422-1.833-17.59-7.251-23.015-2.296-2.296-5.079-4.096-8.258-5.335l-6.012 15.385c1.057.413 1.899.941 2.585 1.627 2.634 2.626 2.676 7.416 2.469 10.042-.669 8.465 2.659 16.491 9.117 21.999 1.998 1.701 5.351 5.128 5.351 8.836s-3.353 7.135-5.351 8.836c-6.458 5.508-9.786 13.535-9.117 22.008.206 2.61.165 7.399-2.461 10.034-2.626 2.618-7.416 2.684-10.025 2.461-8.489-.677-16.491 2.651-22.016 9.117-1.709 1.998-5.12 5.351-8.836 5.351s-7.127-3.353-8.836-5.351c-5.525-6.458-13.551-9.745-22.008-9.117-2.618.223-7.407.165-10.025-2.461-2.634-2.626-2.676-7.416-2.469-10.042.669-8.465-2.659-16.491-9.117-22-1.998-1.701-5.351-5.128-5.351-8.836s3.353-7.135 5.351-8.836c6.458-5.508 9.786-13.535 9.117-22.008-.206-2.61-.165-7.399 2.461-10.034.685-.685 1.536-1.214 2.585-1.627l-6.012-15.385c-3.179 1.239-5.962 3.039-8.258 5.335-5.054 5.062-7.515 12.569-7.234 21.19l-29.143-16.987c-10.587-6.185-22.668-9.456-34.932-9.456-18.217 0-33.032 14.815-33.032 33.032s14.815 33.032 33.032 33.032 33.032-14.815 33.032-33.032h-16.516c0 9.109-7.407 16.516-16.516 16.516s-16.516-7.407-16.516-16.516 7.407-16.516 16.516-16.516c9.34 0 18.548 2.494 26.616 7.201l29.589 17.259c-4.302 5.161-6.656 10.967-6.656 16.83 0 7.664 3.956 15.261 11.148 21.405 2.42 2.065 3.617 4.963 3.369 8.134-.553 7.036.751 13.378 3.7 18.399l-32.892 19.192c-8.068 4.699-17.276 7.193-26.616 7.193-.619 0-1.206-.099-1.8-.157-2.065-.644-4.121-1.288-6.136-1.965-5.277-2.923-8.58-8.316-8.58-14.394 0-9.109 7.407-16.516 16.516-16.516s16.516 7.407 16.516 16.516h16.516c0-18.217-14.815-33.032-33.032-33.032s-33.032 14.815-33.032 33.032c0 1.569.116 3.113.322 4.633-35.774-16.417-58.129-38.516-58.129-62.439 0-43.859 75.528-82.399 173.419-89.542v15.22c0 9.109 7.407 16.516 16.516 16.516h8.258v17.35c-18.82 3.84-33.032 20.513-33.032 40.456 0 22.767 18.523 41.29 41.29 41.29s41.29-18.523 41.29-41.29c0-19.935-14.212-36.616-33.032-40.456v-17.35h8.258c9.109 0 16.516-7.407 16.516-16.516v-15.22c97.893 7.142 173.421 45.683 173.421 89.541zm-133.846-8.258h34.75c19.943 0 36.625 14.212 40.456 33.032h-40.456c-13.741 0-26.459-6.912-34.114-18.159.652-2.18 1.082-4.385 1.082-6.615-.001-2.791-.694-5.549-1.718-8.258zm-64.347-14.997c9.588 3.419 16.516 12.503 16.516 23.255 0 13.659-11.115 24.774-24.774 24.774s-24.774-11.115-24.774-24.774c0-10.752 6.929-19.836 16.516-23.255v31.513h16.516zm8.258-51.067h-33.032v-49.548h33.032zm16.516-66.065h-66.065v-16.516l66.065-.008zm-16.516-33.032h-33.032v-33.032h33.032zm49.548-49.549h-132.129v-16.516l132.129-.008zm-49.548-33.032h-33.032v-16.516h33.032zm-24.774-82.58h16.516v16.516h-16.516zm-66.065 0h16.516v16.516h-16.516zm148.645 33.032v8.258c0 4.558-3.708 8.258-8.258 8.258h-165.161c-4.55 0-8.258-3.7-8.258-8.258v-8.258z" fill="#cf0c0c" data-original="#000000" style=""/></g></g></svg>
