<?xml version="1.0"?>
<svg xmlns="http://www.w3.org/2000/svg" xmlns:xlink="http://www.w3.org/1999/xlink" xmlns:svgjs="http://svgjs.com/svgjs" version="1.1" width="512" height="512" x="0" y="0" viewBox="0 0 512 512" style="enable-background:new 0 0 512 512" xml:space="preserve" class=""><g><g xmlns="http://www.w3.org/2000/svg" id="_21_Emergency_Call" data-name="21 Emergency Call"><g id="Outline"><path d="m249.216 391.479a35.04 35.04 0 0 0 -49.5 0 12.992 12.992 0 0 1 -18.385 0l-60.811-60.811a13.015 13.015 0 0 1 0-18.385 34.98 34.98 0 0 0 0-49.5l-41.01-41.011a34.982 34.982 0 0 0 -49.5 0 102.319 102.319 0 0 0 -10.778 132.348 598.53 598.53 0 0 0 138.625 138.637 102.328 102.328 0 0 0 132.372-10.769 35.04 35.04 0 0 0 0-49.5zm29.7 79.2a86.385 86.385 0 0 1 -111.745 9.072 582.622 582.622 0 0 1 -134.928-134.943 86.368 86.368 0 0 1 9.084-111.721 18.988 18.988 0 0 1 26.87 0l41.012 41.013a18.989 18.989 0 0 1 0 26.87 29.032 29.032 0 0 0 0 41.011l60.811 60.811a28.982 28.982 0 0 0 41.012 0 19.02 19.02 0 0 1 26.87 0l41.012 41.008a19.024 19.024 0 0 1 .001 26.875z" fill="#d91515" data-original="#000000" style="" class=""/><path d="m440 0h-288a72.081 72.081 0 0 0 -72 72v128h16v-128a56.063 56.063 0 0 1 56-56h288a56.063 56.063 0 0 1 56 56v184h-32v16h31.419a55.52 55.52 0 0 1 -4.833 16h-90.586v16h79.138a55.8 55.8 0 0 1 -39.138 16h-72v8a56.1 56.1 0 0 1 -44.792 54.873 29.756 29.756 0 0 0 -1.624-29.033l-21.15-33.84h-148.434v16h139.566l16.45 26.32a14.164 14.164 0 0 1 -12.016 21.68v16h16a72.107 72.107 0 0 0 71.559-64h56.441a72.081 72.081 0 0 0 72-72v-192a72.081 72.081 0 0 0 -72-72z" fill="#d91515" data-original="#000000" style="" class=""/><path d="m248 48v72h-72v96h72v72h96v-72h72v-96h-72v-72zm152 88v64h-72v72h-64v-72h-72v-64h72v-72h64v72z" fill="#d91515" data-original="#000000" style="" class=""/><path d="m432 256h16v16h-16z" fill="#d91515" data-original="#000000" style="" class=""/></g></g></g></svg>
