<?xml version="1.0" encoding="UTF-8"?>
<svg width="32px" height="32px" viewBox="0 0 32 32" version="1.1" xmlns="http://www.w3.org/2000/svg" xmlns:xlink="http://www.w3.org/1999/xlink">
    <!-- Generator: Sketch 44.1 (41455) - http://www.bohemiancoding.com/sketch -->
    <title>Metarubrick / Other / emergency</title>
    <desc>Created with Sketch.</desc>
    <defs></defs>
    <g id="Page-1" stroke="none" stroke-width="1" fill="none" fill-rule="evenodd">
        <g id="New-meta-draft" transform="translate(-284.000000, -3984.000000)">
            <g id="Slice" transform="translate(84.000000, 84.000000)"></g>
            <g id="Icon" transform="translate(51.000000, 42.000000)" stroke="#8345FE" stroke-width="2">
                <g id="Other" transform="translate(24.000000, 3900.000000)">
                    <g id="Emergency" transform="translate(209.000000, 43.000000)">
                        <path d="M24,24 L8,24 C6.896,24 6,24.896 6,26 L6,29 L26,29 L26,26 C26,24.896 25.104,24 24,24 Z" id="Stroke-1"></path>
                        <path d="M16,0 L16,5" id="Stroke-3"></path>
                        <path d="M4.6865,4.6865 L8.2215,8.2215" id="Stroke-5"></path>
                        <path d="M0,16 L5,16" id="Stroke-7"></path>
                        <path d="M27,16 L32,16" id="Stroke-9"></path>
                        <path d="M23.7783,8.2217 L27.3133,4.6867" id="Stroke-11"></path>
                        <path d="M9,24 L9,16 C9,12.134 12.134,9 16,9 C19.866,9 23,12.134 23,16 L23,24" id="Stroke-13"></path>
                        <path d="M16,24 L16,18" id="Stroke-15"></path>
                        <path d="M13,18 L19,18" id="Stroke-17"></path>
                    </g>
                </g>
            </g>
        </g>
    </g>
</svg>