<?xml version="1.0" encoding="UTF-8"?>
<svg width="32px" height="32px" viewBox="0 0 32 32" version="1.1" xmlns="http://www.w3.org/2000/svg" xmlns:xlink="http://www.w3.org/1999/xlink">
    <!-- Generator: Sketch 44.1 (41455) - http://www.bohemiancoding.com/sketch -->
    <title>Metarubrick / Services / estate</title>
    <desc>Created with Sketch.</desc>
    <defs></defs>
    <g id="Page-1" stroke="none" stroke-width="1" fill="none" fill-rule="evenodd">
        <g id="New-meta-draft" transform="translate(-384.000000, -1984.000000)">
            <g id="Slice" transform="translate(84.000000, 84.000000)"></g>
            <g id="Icon" transform="translate(51.000000, 42.000000)" stroke="#8345FE" stroke-width="2">
                <g id="Services" transform="translate(22.000000, 1894.000000)">
                    <g id="Estate" transform="translate(314.000000, 49.000000)">
                        <path d="M15.9951,6.0186 C17.8021,7.1726 19.0001,9.1966 19.0001,11.4996 C19.0001,11.9646 18.9491,12.4176 18.8561,12.8566 L27.0001,20.9996 L27.0001,24.9996 L22.0001,25.9996 L20.0011,24.0006 L17.0011,21.0006 L13.8561,17.8566 C13.4181,17.9496 12.9651,17.9996 12.5001,17.9996 C8.9101,17.9996 6.0001,15.0896 6.0001,11.4996 C6.0001,8.7956 7.6501,6.4776 10.0001,5.4976" id="Stroke-1"></path>
                        <path d="M11.3613,11 C12.4443,9.833 13.1083,8.272 13.1083,6.555 C13.1083,2.935 10.1743,0 6.5543,0 C2.9343,0 0.0003,2.935 0.0003,6.555" id="Stroke-3"></path>
                        <path d="M19,23 L21,21" id="Stroke-5"></path>
                        <path d="M3.0352,8 C1.2112,9.151 0.0002,11.184 0.0002,13.5 C0.0002,16.8 2.4612,19.519 5.6452,19.938 L9.0002,30 L13.0002,30 L15.0002,28 L13.0002,22" id="Stroke-7"></path>
                    </g>
                </g>
            </g>
        </g>
    </g>
</svg>