<?xml version="1.0"?>
<svg xmlns="http://www.w3.org/2000/svg" xmlns:xlink="http://www.w3.org/1999/xlink" xmlns:svgjs="http://svgjs.com/svgjs" version="1.1" width="512" height="512" x="0" y="0" viewBox="0 0 256 256" style="enable-background:new 0 0 512 512" xml:space="preserve" class=""><g><g xmlns="http://www.w3.org/2000/svg" id="examination-physical-statistic"><g><path d="m238.8 188.992c-3.094-1.345-18.851-7.932-25.11-5.589a56.836 56.836 0 0 0 -13.14 7.342c-7.24-8.125-16.291-10.394-24.55-10.185v-49.96l3.414-3.414a2 2 0 0 0 .586-1.414v-21.54a2 2 0 0 0 -.586-1.414l-3.414-3.412v-61.406a10.011 10.011 0 0 0 -10-10h-20v-2a2 2 0 0 0 -2-2h-32.2a10.019 10.019 0 0 0 -9.8-8h-12a10.019 10.019 0 0 0 -9.8 8h-32.2a2 2 0 0 0 -2 2v2h-20a10.011 10.011 0 0 0 -10 10v168.009a10.012 10.012 0 0 0 10 10h124.634c20.726 13.375 37.486 16.132 47.775 16.132a42.9 42.9 0 0 0 10.491-1.141c1.378 1.418 2.759 2.865 4.078 4.289 4.033 4.033 7.807 4.708 9.883 4.708a8.049 8.049 0 0 0 1.33-.1h13.809a2 2 0 0 0 2-2v-47.071a2 2 0 0 0 -1.2-1.834zm-66.8-8.144a52.64 52.64 0 0 0 -8 1.6v-39.88a1.98 1.98 0 0 0 .184-.151l7.816-7.817zm-16.972-13.23c-5.269-9.221-6.674-24.038-6.688-24.187a2.01 2.01 0 0 0 -.089-.426h11.749v40.716c-1.2.426-2.268.85-3.193 1.241.97-5.562 1.142-12.232-1.779-17.343zm20.972-42.672-14.059 14.06h-19.882l-14.059-14.06v-19.883l14.059-14.063h19.882l14.059 14.063zm-50.745 75.063h-93.255v-156.009h18.108a26 26 0 0 0 21.892 12h48a26 26 0 0 0 21.892-12h18.108v43h-18.77a2 2 0 0 0 -1.414.586l-15.23 15.231a2 2 0 0 0 -.586 1.414v21.54a2 2 0 0 0 .586 1.414l7.073 7.073c-1.316 4.52-6.891 23.877-8.405 32.619-1.285 7.423.79 24.479 2.001 33.132zm46.745-162.009v57.406l-7.816-7.817a1.98 1.98 0 0 0 -.184-.151v-45.438a2 2 0 0 0 -2-2h-18a25.806 25.806 0 0 0 1.918-8h20.082a6.007 6.007 0 0 1 6 6zm-122-10h32a2 2 0 0 0 2-2 6.007 6.007 0 0 1 6-6h12a6.007 6.007 0 0 1 6 6 2 2 0 0 0 2 2h32v2a22.025 22.025 0 0 1 -22 22h-48a22.025 22.025 0 0 1 -22-22zm-30 178.009v-168.009a6.007 6.007 0 0 1 6-6h20.085a25.806 25.806 0 0 0 1.915 8h-18a2 2 0 0 0 -2 2v160.009a2 2 0 0 0 2 2h95.839c.1.653.167 1.08.186 1.2a2 2 0 0 0 1.173 1.517 38.84 38.84 0 0 0 8.9 2.556 25.643 25.643 0 0 1 8.4 2.726h-118.498a6.007 6.007 0 0 1 -6-5.999zm216 29.891h-12a2.357 2.357 0 0 0 -.475.058c-.141.031-3.508.722-7.668-3.437-7.354-7.941-16.667-16.675-16.76-16.762a2 2 0 0 0 -2.734 2.92c.062.058 4.221 3.959 9.156 8.9-7.419 1.12-28.636 1.934-56.639-17.556a27.731 27.731 0 0 0 -12.023-4.663 37.34 37.34 0 0 1 -7.051-1.876c-.793-5.238-4.034-27.7-2.611-35.916 1.288-7.44 5.777-23.394 7.695-30.071l4.927 4.927a2 2 0 0 0 1.414.586h3.212a1.993 1.993 0 0 0 -.086.788c.058.642 1.494 15.825 7.2 25.809 5 8.746-1.434 24.468-1.5 24.625a2 2 0 0 0 3.693 1.538 52.507 52.507 0 0 0 1.966-5.926c4.775-2.463 30.342-14.256 44.621 7.164a2 2 0 1 0 3.328-2.219c-.207-.311-.418-.609-.63-.908a52.635 52.635 0 0 1 12.057-6.73c3.469-1.3 14.167 2.2 20.908 5z" fill="#651d8d" data-original="#000000" style="" class=""/><path d="m126.234 63.006a2 2 0 0 0 -2.73-.738c-3.914 2.248-10.093 5.892-15.922 9.732-3.739-1.313-8.5.024-12.234 1.627 1.818-4.131 1.812-6.725.1-8.305-1.787-1.651-5.226-2.394-17.18 4.619-6.154 3.611-11.707 7.61-11.94 7.778a2 2 0 0 0 2.341 3.243c10.626-7.662 21.731-13.532 24.024-12.702.082.411.153 2.469-3.9 9.143a2 2 0 0 0 2.792 2.72 33.443 33.443 0 0 1 10.67-4.462c-5.323 3.83-9.482 7.482-9.894 9.771a2.9 2.9 0 0 0 .6 2.41 6.437 6.437 0 0 0 5.166 2.183c3.2 0 6.93-1.587 9.885-3.984 4.495-3.647 5.7-8.159 3.085-11.51 4.512-2.933 9.56-6.014 14.4-8.793a2 2 0 0 0 .737-2.732zm-20.741 19.927c-3.094 2.509-7.195 3.7-8.957 2.752 1.128-1.719 5.492-5.079 11.2-8.933q.1.107.192.223c1.829 2.307-1.708 5.368-2.435 5.958z" fill="#651d8d" data-original="#000000" style="" class=""/><path d="m88 36h16a2 2 0 0 0 2-2v-6a6.007 6.007 0 0 0 -6-6h-8a6.007 6.007 0 0 0 -6 6v6a2 2 0 0 0 2 2zm2-8a2 2 0 0 1 2-2h8a2 2 0 0 1 2 2v4h-12z" fill="#651d8d" data-original="#000000" style="" class=""/><path d="m188.717 210.03c-13.029 1.858-25.456-6.58-25.581-6.666a2 2 0 0 0 -2.275 3.29c.5.346 11.209 7.648 23.95 7.648a31.551 31.551 0 0 0 4.471-.313 2 2 0 1 0 -.565-3.959z" fill="#651d8d" data-original="#000000" style="" class=""/><g fill="none" stroke="rgb(0,0,0)" stroke-linecap="round" stroke-linejoin="round" stroke-width="4"><path d="m46 106h60.276v12h-60.276z" fill="#651d8d" data-original="#000000" style="" class=""/><path d="m46 134h50.621v12h-50.621z" fill="#651d8d" data-original="#000000" style="" class=""/><path d="m46 162h68v12h-68z" fill="#651d8d" data-original="#000000" style="" class=""/></g></g></g></g></svg>
