<?xml version="1.0"?>
<svg xmlns="http://www.w3.org/2000/svg" xmlns:xlink="http://www.w3.org/1999/xlink" xmlns:svgjs="http://svgjs.com/svgjs" version="1.1" width="512" height="512" x="0" y="0" viewBox="0 0 511.977 511.977" style="enable-background:new 0 0 512 512" xml:space="preserve" class=""><g><g xmlns="http://www.w3.org/2000/svg"><path d="m497.522 14.454c-19.271-19.272-50.63-19.272-69.903 0-7.778 7.778-12.412 17.525-13.912 27.652-7.741-2.318-15.862-3.524-24.17-3.524-17.313 0-33.813 5.231-47.733 14.912l-2.523-2.522c-9.336-9.336-21.749-14.478-34.951-14.478s-25.615 5.142-34.951 14.477c-9.336 9.336-14.478 21.749-14.478 34.951 0 5.533.915 10.924 2.651 16.011l-58.704 19.568-184.37 184.373c-9.336 9.336-14.478 21.748-14.478 34.951s5.142 25.615 14.478 34.951l121.723 121.723c9.336 9.336 21.749 14.478 34.951 14.478s25.615-5.142 34.951-14.478l184.373-184.372 19.568-58.704c5.087 1.736 10.478 2.651 16.011 2.651 13.203 0 25.615-5.142 34.951-14.478s14.478-21.749 14.478-34.951-5.142-25.615-14.478-34.951l-2.523-2.522c9.68-13.92 14.912-30.42 14.912-47.733 0-8.308-1.206-16.429-3.524-24.17 10.126-1.5 19.873-6.134 27.652-13.912 19.272-19.272 19.272-50.631-.001-69.903zm-312.632 461.832c-7.575 7.575-19.901 7.575-27.477 0l-121.723-121.723c-7.575-7.575-7.575-19.901 0-27.477l179.364-179.365 60.881-20.293 108.613 108.613-20.293 60.881zm254.902-254.902c-3.669 3.669-8.548 5.69-13.737 5.69-5.19 0-10.068-2.021-13.738-5.69l-121.724-121.724c-3.669-3.669-5.69-8.548-5.69-13.738 0-5.189 2.021-10.068 5.69-13.738 3.788-3.788 8.763-5.681 13.738-5.681s9.951 1.894 13.738 5.681l121.723 121.723c7.576 7.576 7.576 19.902 0 27.477zm-76.233-146.136c7.867-4.345 16.742-6.666 25.979-6.666 14.386 0 27.91 5.602 38.083 15.775 10.172 10.172 15.774 23.696 15.774 38.082 0 9.236-2.321 18.112-6.666 25.979zm112.751-12.105c-7.575 7.576-19.902 7.576-27.476 0-7.575-7.575-7.575-19.901 0-27.477 3.788-3.788 8.763-5.681 13.738-5.681s9.951 1.894 13.738 5.681c7.575 7.576 7.575 19.903 0 27.477z" fill="#800aa1" data-original="#000000" style="" class=""/><path d="m185.85 224.014h30v49.57h-30z" transform="matrix(.707 -.707 .707 .707 -117.1 214.894)" fill="#800aa1" data-original="#000000" style="" class=""/><path d="m137.161 272.704h30v49.57h-30z" transform="matrix(.707 -.707 .707 .707 -165.79 194.726)" fill="#800aa1" data-original="#000000" style="" class=""/><path d="m234.539 175.325h30v49.57h-30z" transform="matrix(.707 -.707 .707 .707 -68.411 235.062)" fill="#800aa1" data-original="#000000" style="" class=""/><path d="m88.471 321.393h30v49.569h-30z" transform="matrix(.707 -.707 .707 .707 -214.479 174.558)" fill="#800aa1" data-original="#000000" style="" class=""/></g></g></svg>
