<?xml version="1.0"?>
<svg xmlns="http://www.w3.org/2000/svg" xmlns:xlink="http://www.w3.org/1999/xlink" xmlns:svgjs="http://svgjs.com/svgjs" version="1.1" width="512" height="512" x="0" y="0" viewBox="0 0 512 512" style="enable-background:new 0 0 512 512" xml:space="preserve" class=""><g><title xmlns="http://www.w3.org/2000/svg">a1</title><path xmlns="http://www.w3.org/2000/svg" d="M447.249,197.572a6,6,0,0,0-10.035,0l-53.769,81.984a6.137,6.137,0,0,0-.261,6.217A6.07,6.07,0,0,0,388.463,289H434.33a188.122,188.122,0,0,1-64.314,117.562c-33.183,28.453-74.868,44.732-114.366,44.732-25.76,0-52.695-6.963-77.89-20.1a193.6,193.6,0,0,1-66.346-56.918,6,6,0,1,0-9.682,7.083,205.618,205.618,0,0,0,70.48,60.458c26.9,14.026,55.754,21.439,83.438,21.439,42.321,0,86.852-17.295,122.176-47.584A201.5,201.5,0,0,0,446.432,289H496a6.1,6.1,0,0,0,5.018-9.406ZM399.573,277l42.658-65.043L484.89,277Z" fill="#7a5945" data-original="#000000" style=""/><path xmlns="http://www.w3.org/2000/svg" d="M128.816,226.227A6.07,6.07,0,0,0,123.537,223H77.67a188.122,188.122,0,0,1,64.314-117.562c33.183-28.453,74.868-44.732,114.366-44.732,25.76,0,52.695,6.963,77.89,20.1a193.6,193.6,0,0,1,66.346,56.918,6,6,0,1,0,9.682-7.083,205.618,205.618,0,0,0-70.48-60.458c-26.9-14.026-55.754-21.439-83.438-21.439-42.321,0-86.852,17.3-122.176,47.584A201.5,201.5,0,0,0,65.568,223H16a6.1,6.1,0,0,0-5.018,9.406l53.769,82a6,6,0,0,0,10.035.015l53.769-82.02A6.062,6.062,0,0,0,128.816,226.227ZM69.769,300.043,27.11,235h85.317Z" fill="#7a5945" data-original="#000000" style=""/><path xmlns="http://www.w3.org/2000/svg" d="M182.618,336.405a41.373,41.373,0,0,0-22.6,33.375c-.014.165-.021.332-.021.5v32.587A6.117,6.117,0,0,0,166,409H346a6.117,6.117,0,0,0,6-6.135V370.278c0-.166-.007-.333-.021-.5a41.373,41.373,0,0,0-22.6-33.375,5.758,5.758,0,0,0-.646-.277l-5-1.8a75.357,75.357,0,0,0,7.781-38.658L330,270.914V243.536a22.409,22.409,0,0,0,15.02-27.14,18.777,18.777,0,0,0-14.908-13.91l1.255-18.537a75.455,75.455,0,0,0-16.132-52.126c-6.4-8.094-15.14-15.083-26.711-21.364-14.887-8.082-32.883-9.488-52.038-4.063a97.453,97.453,0,0,0-23.873,10.282,5.992,5.992,0,0,0-.81.489,75.279,75.279,0,0,0-31.478,66.782l1.283,18.608A18.639,18.639,0,0,0,166.694,216.4,22.732,22.732,0,0,0,182,243.544V271l-1.69,24.663a75.137,75.137,0,0,0,7.661,38.761l-4.71,1.7A5.793,5.793,0,0,0,182.618,336.405ZM172,370.54a29.207,29.207,0,0,1,13-21.735,29.776,29.776,0,0,1,13,21.735V397H172Zm37.644-31.174c.044.125.085.251.137.373l20.266,47.288a6,6,0,0,0,8.843,2.629l16.938-11.292,16.939,11.292a6,6,0,0,0,8.842-2.629l20.266-47.288c.067-.158.125-.32.179-.483L315.21,344a41.441,41.441,0,0,0-12.122,25.776c-.013.166-.088.332-.088.5V397H210V370.278c0-.166.1-.333.087-.5a41.294,41.294,0,0,0-12.375-26.128Zm77.339,4.659-13.562,31.646-8.631-5.754ZM284,329.326v-4.154l2.632,1.084ZM271.772,312.9l.009,30.417-15.953,18.612-15.965-18.625-.009-30.414a60.387,60.387,0,0,0,31.918.01Zm-24.906,57.012-8.631,5.754-13.561-31.646ZM228,329.3l-2.655-3.1L228,325.113ZM340,370.54V397H315V370.54a30.1,30.1,0,0,1,12.5-21.285A29.417,29.417,0,0,1,340,370.54Zm-38-43.93v-2.753a6.291,6.291,0,0,0,.115-.835c-.008-.056.073-.112.064-.168a5.7,5.7,0,0,0-.14-.783c-.009-.03,0-.059-.009-.089a5.744,5.744,0,0,0-.26-.671c-.024-.054-.043-.108-.07-.16a6.127,6.127,0,0,0-.4-.678c-.025-.035-.05-.068-.074-.1a6.142,6.142,0,0,0-.464-.57c-.025-.028-.05-.058-.076-.085a5.883,5.883,0,0,0-.6-.546c-.038-.031-.079-.059-.118-.088a6.006,6.006,0,0,0-.609-.4c-.037-.021-.071-.044-.108-.065a4.441,4.441,0,0,0-.5-.3L284,312.194v-3.85A76.581,76.581,0,0,0,306.271,291.1a84.957,84.957,0,0,0,11.63-16.688l1.494,22.084a63.417,63.417,0,0,1-7.2,33.725ZM240.279,117.8c16.1-4.446,30.405-3.367,42.518,3.21,10.115,5.491,17.645,11.465,23.02,18.261a63.376,63.376,0,0,1,13.556,43.856l-1.239,17.96c-15.148-5.175-19.574-21.842-19.772-22.615a6,6,0,0,0-5.458-4.552c-30.566-1.872-46.343-7.374-56.223-18.753a5.665,5.665,0,0,0-.4-.462c-6.194-7.35-10.047-17.1-13.849-29.824A91.224,91.224,0,0,1,240.279,117.8Zm-28.093,14.548c2.968,9.326,6.206,17.331,10.5,24.108a77.2,77.2,0,0,0-30.3,28.021l-.093-1.35A63.26,63.26,0,0,1,212.186,132.344Zm-34.144,89.684a11.674,11.674,0,0,1,.309-2.676,6.655,6.655,0,0,1,6.659-5.04,7.732,7.732,0,0,1,1.376-.144c.367.069.741-.168,1.115-.168h.531a5.783,5.783,0,0,0,4.386-1.659,5.593,5.593,0,0,0,1.455-2.609c8.09-25.341,23.611-37.689,36.5-43.753,11.23,11.042,28.35,17.371,57.739,19.6,3.2,8.357,12.523,25.969,34.488,28.511a6.187,6.187,0,0,0,1.048-.095h.479a6.143,6.143,0,0,0,1.115.1,6.862,6.862,0,0,1,8.035,5.053,12.984,12.984,0,0,1,.308,2.827A11,11,0,0,1,322.812,233h-1.136a5.829,5.829,0,0,0-6,5.6c-.518,15.928-7.241,32.11-18.447,44.574-11.58,12.88-26.282,19.922-41.4,19.922s-29.818-7.119-41.4-20c-11.206-12.464-17.929-28.557-18.447-44.486a5.84,5.84,0,0,0-6-5.614h-1.182A10.957,10.957,0,0,1,178.042,222.028Zm14.248,74.465,1.524-22.105A85.574,85.574,0,0,0,205.586,291.1,77.1,77.1,0,0,0,228,308.322v3.816l-14.916,6.112a6.173,6.173,0,0,0-3.9,5.583c0,.011-.187.021-.187.032v2.869l-9.8,3.59A63.118,63.118,0,0,1,192.29,296.493Z" fill="#7a5945" data-original="#000000" style=""/></g></svg>
