<svg id="Capa_1" enable-background="new 0 0 519 519" height="512" viewBox="0 0 519 519" width="512" xmlns="http://www.w3.org/2000/svg"><path d="m470.558 488.041c3.993-1.102 6.337-5.231 5.236-9.225l-5.039-18.268c-1.102-3.993-5.232-6.334-9.224-5.236-3.993 1.102-6.337 5.231-5.236 9.225l5.039 18.268c1.098 3.979 5.215 6.34 9.224 5.236z"/><path d="m411.545 488.041c3.993-1.102 6.337-5.231 5.236-9.225l-5.039-18.268c-1.102-3.993-5.232-6.334-9.224-5.236-3.993 1.102-6.337 5.231-5.236 9.225l5.039 18.268c1.098 3.979 5.216 6.34 9.224 5.236z"/><path d="m352.533 488.041c3.993-1.102 6.337-5.231 5.236-9.225l-5.039-18.268c-1.102-3.993-5.233-6.334-9.224-5.236-3.993 1.102-6.337 5.231-5.236 9.225l5.039 18.268c1.097 3.979 5.215 6.34 9.224 5.236z"/><path d="m293.52 488.041c3.993-1.102 6.337-5.231 5.236-9.225l-5.039-18.268c-1.101-3.993-5.234-6.334-9.224-5.236-3.993 1.102-6.337 5.231-5.236 9.225l5.039 18.268c1.098 3.979 5.215 6.34 9.224 5.236z"/><path d="m234.507 488.041c3.993-1.102 6.337-5.231 5.236-9.225l-5.039-18.268c-1.101-3.993-5.231-6.334-9.224-5.236-3.993 1.102-6.337 5.231-5.236 9.225l5.039 18.268c1.098 3.979 5.216 6.34 9.224 5.236z"/><path d="m175.495 488.041c3.993-1.102 6.337-5.231 5.236-9.225l-5.039-18.268c-1.102-3.993-5.232-6.334-9.224-5.236-3.993 1.102-6.337 5.231-5.236 9.225l5.039 18.268c1.097 3.979 5.215 6.34 9.224 5.236z"/><path d="m116.482 488.041c3.993-1.102 6.337-5.231 5.236-9.225l-5.039-18.268c-1.102-3.993-5.233-6.334-9.224-5.236-3.993 1.102-6.337 5.231-5.236 9.225l5.039 18.268c1.097 3.979 5.215 6.34 9.224 5.236z"/><path d="m57.469 488.041c3.993-1.102 6.337-5.231 5.236-9.225l-5.039-18.268c-1.102-3.993-5.233-6.334-9.224-5.236-3.993 1.102-6.337 5.231-5.236 9.225l5.039 18.268c1.098 3.979 5.215 6.34 9.224 5.236z"/><path d="m502.304 395.699h-161.7c20.629-7.985 40.106-19.085 57.959-33.157 32.72-25.789 57.774-60.466 72.061-99.26l4.659 13.099c1.388 3.9 5.672 5.94 9.58 4.553 3.903-1.388 5.941-5.677 4.553-9.58l-12.202-34.308c-1.495-4.201-6.302-6.174-10.315-4.246l-30.708 14.757c-3.733 1.794-5.306 6.275-3.511 10.009 1.794 3.732 6.275 5.307 10.008 3.511l15.434-7.417c-13.016 38.003-37.051 72.044-68.844 97.103-37.298 29.398-82.174 44.938-129.778 44.938s-92.479-15.539-129.778-44.938c-31.794-25.059-55.828-59.1-68.844-97.103l15.434 7.417c3.735 1.795 8.214.223 10.008-3.511 1.794-3.733.222-8.215-3.511-10.009l-30.707-14.757c-4.016-1.933-8.823.053-10.315 4.246l-12.202 34.308c-1.388 3.903.65 8.192 4.553 9.58 3.903 1.39 8.192-.654 9.58-4.553l4.659-13.099c14.286 38.794 39.34 73.471 72.061 99.26 17.854 14.072 37.33 25.172 57.959 33.157h-161.701c-9.206 0-16.696 7.49-16.696 16.696v23.211c0 4.143 3.358 7.5 7.5 7.5h54.143c4.142 0 7.5-3.357 7.5-7.5s-3.358-7.5-7.5-7.5h-46.643v-15.711c0-.935.761-1.695 1.696-1.695h485.608c.935 0 1.696.761 1.696 1.695v15.711h-407.294c-4.142 0-7.5 3.357-7.5 7.5s3.358 7.5 7.5 7.5h414.794c4.142 0 7.5-3.357 7.5-7.5v-23.211c0-9.206-7.49-16.696-16.696-16.696z"/><path d="m511.5 500.249h-504c-4.142 0-7.5 3.357-7.5 7.5s3.358 7.5 7.5 7.5h504c4.142 0 7.5-3.357 7.5-7.5s-3.358-7.5-7.5-7.5z"/><path d="m257.703 345.04c39.891 0 125.522-41.848 131.078-116.749 3.389-45.693-6.882-80.279-18.564-94.286-3.404-4.081-7.841-5.837-12.163-4.802-4.239 1.008-7.329 4.427-8.478 9.377-4.279 18.446-11.773 37.243-20.562 51.571-8.948 14.589-15.424 18.622-17.411 19.205-6.6-9.434-2.996-22.269 3.421-42.385 7.61-23.858 17.082-53.552 5.341-88.875-13.349-40.157-42.388-63.85-54.254-72.172-4.096-2.872-9.63-2.9-13.772-.072-3.885 2.653-5.691 7.258-4.601 11.731 2.27 9.304 11.996 57.116-19.457 84.687-14.263 12.501-25.292 27.237-32.784 43.801-1.987 4.393-7.894 5.146-10.99 1.34-7.276-8.948-16.676-17.793-28.736-27.038-4.067-3.119-9.693-3.313-13.997-.483-4.038 2.654-5.902 7.331-4.75 11.915 9.647 38.402.433 65.767-5.86 94.484-4.96 22.63 1.77 45.478 19.464 66.072 27.819 32.379 76.473 52.68 107.075 52.679zm-111.887-115.54c5.73-26.136 14.816-54.148 7.885-91.594 7.782 6.478 14.094 12.729 19.168 18.968 10.131 12.46 29.717 9.925 36.295-4.622 6.603-14.6 16.361-27.621 29.003-38.702 31.43-27.55 29.168-70.305 25.967-90.323 12.476 10.111 32.092 29.809 41.995 59.602 10.2 30.688 1.914 56.665-5.397 79.585-6.513 20.417-12.664 39.701-1.288 55.731 3.522 4.963 8.911 7.148 14.781 5.987 11.244-2.216 21.704-16.269 28.498-27.667 8.168-13.703 15.036-30.276 19.656-47.312 8.011 14.638 13.988 43.68 11.44 78.028-4.802 64.731-79.491 100.593-113.019 102.763-25.983 1.684-73.759-18.216-98.797-47.358-14.709-17.122-20.155-34.982-16.187-53.086z"/><path d="m181.025 284.194c4.12-.429 7.112-4.116 6.684-8.236-1.772-17.037.308-31.996 2.448-41.769 8.728 6.948 18.069 9.75 27.053 8.104 6.461-1.183 16.416-6.574 31.217-37.061 1.544 20.368 6.816 42.064 20.905 53.446 15.444 12.478 32.85 13.954 44.968 12.904-1.871 6.863-4.397 13.637-7.515 20.144-1.79 3.735-.212 8.215 3.523 10.004 3.75 1.797 8.222.197 10.004-3.523 3.629-7.574 6.548-15.476 8.676-23.485 1.216-4.578.115-9.466-2.946-13.074-3.073-3.623-7.743-5.521-12.473-5.06-9.362.896-23.002-.036-34.813-9.577-10.49-8.475-16.123-29.238-15.862-58.468.048-5.378-3.596-9.899-8.863-10.994-5.269-1.096-10.413 1.601-12.512 6.553-13.989 33.008-23.786 42.847-27.012 43.438-4.797.873-10.001-.959-15.473-5.462-3.902-3.208-9.088-4.143-13.869-2.504-4.815 1.651-8.358 5.604-9.478 10.574-2.442 10.844-4.928 27.863-2.9 47.362.432 4.121 4.12 7.113 8.238 6.684z"/></svg>