<?xml version="1.0" encoding="UTF-8"?>
<svg width="32px" height="32px" viewBox="0 0 32 32" version="1.1" xmlns="http://www.w3.org/2000/svg" xmlns:xlink="http://www.w3.org/1999/xlink">
    <!-- Generator: Sketch 44.1 (41455) - http://www.bohemiancoding.com/sketch -->
    <title>Metarubrick / Grocery / fish</title>
    <desc>Created with Sketch.</desc>
    <defs></defs>
    <g id="Page-1" stroke="none" stroke-width="1" fill="none" fill-rule="evenodd">
        <g id="New-meta-draft" transform="translate(-484.000000, -2584.000000)">
            <g id="Slice" transform="translate(84.000000, 84.000000)"></g>
            <g id="Icon" transform="translate(51.000000, 42.000000)" stroke="#52B311" stroke-width="2">
                <g id="Grocery" transform="translate(6.000000, 2493.000000)">
                    <g id="Fish" transform="translate(428.000000, 53.000000)">
                        <path d="M15,18.4707 L15,23.9997 C18,23.9997 21,21.9997 21,18.9997 C24.803,18.9997 28.026,15.5307 29.353,13.8677 C29.776,13.3367 30,12.6787 30,11.9997 C30,11.3217 29.776,10.6627 29.353,10.1317 C28.026,8.4697 24.803,4.9997 21,4.9997 C14,4.9997 9,6.9997 6,8.9997 C4,5.9997 2,4.9997 0,4.9997 C0,7.9997 0,8.9997 1,11.9997 C0,14.9997 0,15.9997 0,18.9997 C2,18.9997 4,17.9997 6,14.9997 C8.552,16.7007 12.552,18.4037 18,18.8727" id="Stroke-1"></path>
                        <path d="M21,5 C21,3 21,2 20,0 C17,0 11,1 8,4" id="Stroke-3"></path>
                        <path d="M22,8 C22,8 21,10 21,12 C21,14 22,16 22,16" id="Stroke-5"></path>
                    </g>
                </g>
            </g>
        </g>
    </g>
</svg>