<?xml version="1.0" encoding="UTF-8"?>
<svg width="32px" height="32px" viewBox="0 0 32 32" version="1.1" xmlns="http://www.w3.org/2000/svg" xmlns:xlink="http://www.w3.org/1999/xlink">
    <!-- Generator: Sketch 43.2 (39069) - http://www.bohemiancoding.com/sketch -->
    <title>Metarubrick / Sport / Fitness</title>
    <desc>Created with Sketch.</desc>
    <defs></defs>
    <g id="Page-1" stroke="none" stroke-width="1" fill="none" fill-rule="evenodd">
        <g id="New-meta-draft" transform="translate(-84.000000, -2784.000000)">
            <g id="Slice" transform="translate(84.000000, 84.000000)"></g>
            <g id="Icon" transform="translate(51.000000, 42.000000)" stroke="#DA0000" stroke-width="2">
                <g id="Sport" transform="translate(7.000000, 2695.000000)">
                    <g id="Fitness" transform="translate(30.000000, 47.760010)">
                        <path d="M17,22.2425 L13,22.2425 C12.447,22.2425 12,22.6895 12,23.2425 L12,25.2425" id="Stroke-1"></path>
                        <path d="M20,22.2425 L23,22.2425 C23.553,22.2425 24,21.7955 24,21.2425 L24,19.2425" id="Stroke-3"></path>
                        <path d="M22,31.2425 L22,31.2425 C22,29.5855 20.657,28.2425 19,28.2425 L5,28.2425 C3.343,28.2425 2,29.5855 2,31.2425" id="Stroke-5"></path>
                        <path d="M4,28.2425 L4,24.0275 C4,21.7255 5.355,19.6395 7.459,18.7055 L11.88,16.7405 C12.618,16.4125 13.417,16.2425 14.226,16.2425 C17.415,16.2425 20,18.8275 20,22.0165 L20,22.4685 C20,25.6575 17.415,28.2425 14.226,28.2425" id="Stroke-7"></path>
                        <path d="M14,16.2425 L16.121,7.7575 C16.344,6.8675 17.144,6.2425 18.062,6.2425 L20.438,6.2425 C21.356,6.2425 22.156,5.6175 22.379,4.7275 L23.5,0.2425" id="Stroke-9"></path>
                        <path d="M5.29,9.2425 L1.71,9.2425 C0.766,9.2425 0,10.0085 0,10.9525 L0,11.9745 C0,13.1115 1.088,13.9315 2.18,13.6195 L5.76,12.5965 C6.494,12.3875 7,11.7165 7,10.9525 C7,10.0085 6.234,9.2425 5.29,9.2425 Z" id="Stroke-11"></path>
                        <path d="M7,19.2425 L6,15.2425" id="Stroke-13"></path>
                    </g>
                </g>
            </g>
        </g>
    </g>
</svg>