<?xml version="1.0" encoding="UTF-8"?>
<svg width="32px" height="32px" viewBox="0 0 32 32" version="1.1" xmlns="http://www.w3.org/2000/svg" xmlns:xlink="http://www.w3.org/1999/xlink">
    <!-- Generator: Sketch 43.2 (39069) - http://www.bohemiancoding.com/sketch -->
    <title>Metarubrick / Eat / Food_Delivery</title>
    <desc>Created with Sketch.</desc>
    <defs></defs>
    <g id="Page-1" stroke="none" stroke-width="1" fill="none" fill-rule="evenodd">
        <g id="New-meta-draft" transform="translate(-384.000000, -584.000000)">
            <g id="Slice" transform="translate(84.000000, 84.000000)"></g>
            <g id="Icon" transform="translate(51.000000, 42.000000)" stroke="#FF8D00" stroke-width="2">
                <g id="Eat" transform="translate(28.000000, 494.000000)">
                    <g id="Food_Delivery" transform="translate(306.000000, 52.000000)">
                        <path d="M22,21 C22,18.791 23.791,17 26,17 C28.209,17 30,18.791 30,21 C30,23.209 28.209,25 26,25 C23.791,25 22,23.209 22,21 Z" id="Stroke-1"></path>
                        <path d="M11,21 C11,23.209 9.209,25 7,25 C4.791,25 3,23.209 3,21" id="Stroke-3"></path>
                        <path d="M24.9316,17.1543 L21.4076,4.4653 C21.1656,3.5983 20.3776,3.0003 19.4796,3.0003 L16.9996,3.0003" id="Stroke-5"></path>
                        <path d="M7,0 L2,0 C0.896,0 0,0.896 0,2 L0,7 C0,8.104 0.896,9 2,9 L7,9 C8.104,9 9,8.104 9,7 L9,2 C9,0.896 8.104,0 7,0 Z" id="Stroke-7"></path>
                        <path d="M9,12 L9,11 C9,9.896 8.104,9 7,9" id="Stroke-9"></path>
                        <path d="M21.833,6 L27,6 C27.553,6 28,6.447 28,7 L28,10 C28,10.553 27.553,11 27,11 L23.223,11" id="Stroke-11"></path>
                        <path d="M22,21 L0,21 C0,15.478 6.268,11 14,11 L14,18" id="Stroke-13"></path>
                    </g>
                </g>
            </g>
        </g>
    </g>
</svg>