<?xml version="1.0" encoding="UTF-8"?>
<svg width="32px" height="32px" viewBox="0 0 32 32" version="1.1" xmlns="http://www.w3.org/2000/svg" xmlns:xlink="http://www.w3.org/1999/xlink">
    <!-- Generator: Sketch 44.1 (41455) - http://www.bohemiancoding.com/sketch -->
    <title>Metarubrick / Shops / footwear</title>
    <desc>Created with Sketch.</desc>
    <defs></defs>
    <g id="Page-1" stroke="none" stroke-width="1" fill="none" fill-rule="evenodd">
        <g id="New-meta-draft" transform="translate(-384.000000, -2384.000000)">
            <g id="Slice" transform="translate(84.000000, 84.000000)"></g>
            <g id="Icon" transform="translate(51.000000, 42.000000)" stroke="#52B311" stroke-width="2">
                <g id="Shops" transform="translate(27.000000, 2294.000000)">
                    <g id="Footwear" transform="translate(307.000000, 50.000000)">
                        <path d="M26,13.9989828 L23.728,13.9989828 C22.038,13.9989828 20.477,14.8959828 19.626,16.3539828 L14.579,25.0069828 C14.221,25.6209828 13.562,25.9989828 12.852,25.9989828 L10.196,25.9989828 C7.392,25.9989828 4.626,25.3389828 2.123,24.0729828 C0.821,23.4139828 0,22.0789828 0,20.6189828 C0,19.0369828 0.964,17.6129828 2.433,17.0249828 L5,15.9989828 L8.234,17.0769828 C9.908,17.6349828 11.754,17.1289828 12.909,15.7959828 L24,2.99898281 C28,3.99898281 30,6.99898281 30,10.9989828 C30,13.9989828 28,17.9989828 28,25.9989828 L23,25.9989828 L23,17.9989828" id="Page-1"></path>
                    </g>
                </g>
            </g>
        </g>
    </g>
</svg>