<?xml version="1.0"?>
<svg xmlns="http://www.w3.org/2000/svg" xmlns:xlink="http://www.w3.org/1999/xlink" xmlns:svgjs="http://svgjs.com/svgjs" version="1.1" width="512" height="512" x="0" y="0" viewBox="0 0 512 512" style="enable-background:new 0 0 512 512" xml:space="preserve"><g><g xmlns="http://www.w3.org/2000/svg"><path d="m498.5 90.214h-372.94c-4.142 0-7.5 3.358-7.5 7.5s3.358 7.5 7.5 7.5h361.596l-27.41 27.411c-1.042-.258-2.125-.411-3.245-.411h-401c-.387 0-.769.026-1.148.058l-27.058-27.058h68.265c4.142 0 7.5-3.358 7.5-7.5s-3.358-7.5-7.5-7.5h-82.06c-7.444 0-13.5 6.056-13.5 13.5v304.572c0 7.444 6.056 13.5 13.5 13.5h323.283c4.143 0 7.5-3.358 7.5-7.5s-3.357-7.5-7.5-7.5h-311.939l27.411-27.411c1.042.259 2.125.411 3.245.411h401c1.121 0 2.204-.152 3.245-.411l27.41 27.411h-120.372c-4.143 0-7.5 3.358-7.5 7.5s3.357 7.5 7.5 7.5h131.717c7.444 0 13.5-6.056 13.5-13.5v-304.572c0-7.443-6.055-13.5-13.5-13.5zm-483.5 23.919 27.6 27.6c-.389 1.259-.6 2.596-.6 3.981v220.572c0 .671.065 1.326.16 1.97l-27.16 27.161zm42 33.081h398v217.572h-398zm412.84-3.469 27.16-27.161v278.833l-27.16-27.161c.095-.645.16-1.299.16-1.97v-220.572c0-.67-.065-1.325-.16-1.969z" fill="#a3850c" data-original="#000000" style=""/></g></g></svg>
