<?xml version="1.0" encoding="UTF-8"?>
<svg width="32px" height="32px" viewBox="0 0 32 32" version="1.1" xmlns="http://www.w3.org/2000/svg" xmlns:xlink="http://www.w3.org/1999/xlink">
    <!-- Generator: Sketch 44.1 (41455) - http://www.bohemiancoding.com/sketch -->
    <title>Metarubrick / Industrial / fuel</title>
    <desc>Created with Sketch.</desc>
    <defs></defs>
    <g id="Page-1" stroke="none" stroke-width="1" fill="none" fill-rule="evenodd">
        <g id="New-meta-draft" transform="translate(-484.000000, -3584.000000)">
            <g id="Slice" transform="translate(84.000000, 84.000000)"></g>
            <g id="Icon" transform="translate(51.000000, 42.000000)" stroke="#52B311" stroke-width="2">
                <g id="Industrial" transform="translate(22.000000, 3494.000000)">
                    <g id="Fuel" transform="translate(414.290009, 50.000000)">
                        <path d="M2.7071,24 L2.7071,10 L7.7071,5 L10.7071,5 L10.7071,3 C10.7071,1.343 12.0501,0 13.7071,0 L19.7071,0 C21.3641,0 22.7071,1.343 22.7071,3 L22.7071,24 C22.7071,25.657 21.3641,27 19.7071,27 L5.7071,27 C4.0501,27 2.7071,25.657 2.7071,24 Z" id="Stroke-1"></path>
                        <path d="M13.7071,5 L19.7071,5" id="Stroke-3"></path>
                        <path d="M0.7071,6 L3.7071,3" id="Stroke-5"></path>
                        <path d="M7.7071,22 L17.7071,12" id="Stroke-7"></path>
                        <path d="M17.7071,22 L7.7071,12" id="Stroke-9"></path>
                    </g>
                </g>
            </g>
        </g>
    </g>
</svg>