<?xml version="1.0"?>
<svg xmlns="http://www.w3.org/2000/svg" xmlns:xlink="http://www.w3.org/1999/xlink" xmlns:svgjs="http://svgjs.com/svgjs" version="1.1" width="512" height="512" x="0" y="0" viewBox="0 0 512.003 512.003" style="enable-background:new 0 0 512 512" xml:space="preserve"><g>
<path xmlns="http://www.w3.org/2000/svg" d="M511.865,18.101c-0.787-4.067-4.722-6.727-8.789-5.938L372.373,37.461c-5.193-10.318-15.877-17.418-28.194-17.418  c-16.523,0-30.11,12.771-31.433,28.958L6.076,108.357c-4.066,0.787-6.725,4.722-5.938,8.789c0.694,3.585,3.834,6.076,7.355,6.076  c0.473,0,0.952-0.045,1.434-0.138l306.173-59.26c3.84,9.094,11.829,16.02,21.579,18.407v57.537  c0,13.011-10.169,23.685-22.976,24.508c-4.315-4.876-10.613-7.959-17.621-7.959h-80.161c-12.976,0-23.532,10.557-23.532,23.532  v16.548h-78.24c-18.937,0-35.276,13.497-38.853,32.093L43.324,394.742c-2.304,11.984-1.127,24.308,3.406,35.639l19.906,49.767  c4.819,12.047,16.317,19.831,29.292,19.831h320.146c12.975,0,24.473-7.784,29.292-19.832l19.906-49.766  c4.533-11.331,5.71-23.654,3.406-35.639L436.707,228.49c-3.576-18.596-19.916-32.093-38.853-32.093h-78.24v-16.548  c0-0.413-0.011-0.824-0.032-1.233c18.257-3.503,32.097-19.585,32.097-38.848V82.231c13.63-3.337,23.806-15.549,24.036-30.139  L505.927,26.89C509.993,26.103,512.652,22.168,511.865,18.101z M431.44,474.576c-2.528,6.319-8.559,10.402-15.365,10.402H95.928  c-6.806,0-12.837-4.083-15.365-10.402l-19.906-49.767c-0.656-1.639-1.219-3.306-1.69-4.992h133.422v24.564  c0,12.976,10.557,23.532,23.532,23.532h80.161c12.976,0,23.532-10.557,23.532-23.532v-24.564h133.422  c-0.471,1.687-1.034,3.353-1.69,4.993L431.44,474.576z M296.082,243.462c4.705,0,8.532,3.828,8.532,8.532v192.387  c0,4.705-3.828,8.532-8.532,8.532h-32.581V243.462H296.082z M248.501,452.913h-32.581c-4.705,0-8.532-3.828-8.532-8.532V251.994  c0-4.705,3.828-8.532,8.532-8.532h32.581V452.913z M421.223,228.462h-61.014c-12.976,0-23.532,10.557-23.532,23.532v8.015  c0,4.142,3.358,7.5,7.5,7.5s7.5-3.358,7.5-7.5v-8.015c0-4.705,3.828-8.532,8.532-8.532h64.101l24.864,129.291h-88.965  c-4.705,0-8.532-3.828-8.532-8.532v-72.147c0-4.142-3.358-7.5-7.5-7.5s-7.5,3.358-7.5,7.5v72.147  c0,12.976,10.557,23.532,23.532,23.532h91.85l1.889,9.822c0.462,2.402,0.736,4.823,0.834,7.242H319.614V251.994  c0-12.976-10.557-23.532-23.532-23.532h-80.161c-12.976,0-23.532,10.557-23.532,23.532v152.823H57.221  c0.098-2.42,0.372-4.84,0.834-7.242l1.889-9.822H71.63c4.142,0,7.5-3.358,7.5-7.5s-3.358-7.5-7.5-7.5h-8.802l24.864-129.291h64.1  c4.705,0,8.532,3.828,8.532,8.532V364.22c0,4.705-3.828,8.532-8.532,8.532h-48.098c-4.142,0-7.5,3.358-7.5,7.5s3.358,7.5,7.5,7.5  h48.098c12.976,0,23.532-10.557,23.532-23.532V251.994c0-12.976-10.557-23.532-23.532-23.532H90.78  c3.222-10.038,12.611-17.064,23.369-17.064h283.706C408.612,211.397,418.001,218.424,421.223,228.462z M207.389,196.397v-16.548  c0-4.705,3.828-8.532,8.532-8.532h80.161c4.705,0,8.532,3.828,8.532,8.532v16.548H207.389z M344.179,68.139  c-9.125,0-16.548-7.423-16.548-16.548s7.423-16.548,16.548-16.548s16.548,7.423,16.548,16.548S353.304,68.139,344.179,68.139z" fill="#a72a8e" data-original="#000000" style=""/>















</g></svg>
