<?xml version="1.0"?>
<svg xmlns="http://www.w3.org/2000/svg" xmlns:xlink="http://www.w3.org/1999/xlink" xmlns:svgjs="http://svgjs.com/svgjs" version="1.1" width="512" height="512" x="0" y="0" viewBox="0 0 480.002 480.002" style="enable-background:new 0 0 512 512" xml:space="preserve"><g><g xmlns="http://www.w3.org/2000/svg"><g><g id="ouline_18_"><path d="m310.009 196.188 19.734 6.326c4.207 1.348 8.711-.969 10.06-5.177l9.768-30.474c1.348-4.207-.969-8.71-5.176-10.059l-19.734-6.325c-3.741-6.622-9.85-11.582-17.1-13.881l-35.62-11.419c.029-.39.06-.78.06-1.178v-38.761c.021-7.604-2.837-14.934-8-20.516v-20.723c0-4.418-3.582-8-8-8h-32c-4.418 0-8 3.582-8 8v20.723c-5.163 5.582-8.021 12.912-8 20.516v20.395c-3.376-2.482-7.232-4.233-11.323-5.139l-11.816-17.024c-2.519-3.63-7.504-4.53-11.133-2.011 0 0 0 0-.001 0l-26.289 18.246c-3.63 2.519-4.53 7.504-2.01 11.134l11.816 17.023c-1.059 7.53.772 15.182 5.126 21.416l22.1 31.843c5.043 7.252 15.006 9.052 22.267 4.022l26.288-18.244c7.26-5.038 9.061-15.007 4.024-22.267l-.001-.001-3.214-4.632h15.134l-8.2 25.591c-2.686 8.414 1.944 17.414 10.352 20.12l36.911 11.832c7.234 2.342 15.086 1.858 21.977-1.356zm-112.393-24.187-22.1-31.843c-2.174-3.113-3.011-6.966-2.326-10.7l.369-2.042c.377-2.087-.091-4.239-1.3-5.982l-9.123-13.144 13.144-9.123 9.121 13.144c1.21 1.742 3.062 2.933 5.149 3.31l2.042.369c3.738.665 7.054 2.797 9.21 5.922l3.855 5.554-13.144 9.123c-3.642 2.501-4.567 7.482-2.065 11.124 2.501 3.642 7.482 4.567 11.124 2.065.022-.015.043-.03.065-.045l13.144-9.123 9.123 13.144zm58.385-80h-16c-4.418 0-8 3.582-8 8s3.582 8 8 8h16v16h-32v-38.761c-.01-3.796 1.498-7.438 4.19-10.115l1.467-1.467c1.5-1.5 2.343-3.535 2.343-5.657v-16h16v16c0 2.122.843 4.157 2.343 5.657l1.467 1.466c2.691 2.677 4.2 6.32 4.19 10.116zm36.913 90.307-6.438-2.064 4.884-15.236c1.359-4.204-.948-8.714-5.152-10.072-4.204-1.359-8.714.948-10.072 5.152-.004.012-.008.023-.011.035l-4.884 15.237-15.239-4.883 9.77-30.476 36.911 11.831c3.618 1.149 6.626 3.698 8.354 7.078l.949 1.845c.971 1.886 2.651 3.31 4.671 3.958l15.237 4.884-4.884 15.236-15.237-4.884c-2.02-.647-4.214-.465-6.1.505l-1.844.948c-3.372 1.749-7.302 2.075-10.915.906z" fill="#a9820c" data-original="#000000" style=""/><path d="m384.395 396.801-19.734-6.325c-3.741-6.622-9.85-11.582-17.1-13.881l-36.91-11.831c-8.415-2.698-17.423 1.937-20.121 10.351v.001l-9.767 30.473c-2.686 8.414 1.944 17.414 10.352 20.12l36.911 11.832c7.234 2.342 15.087 1.858 21.979-1.356l19.734 6.326c4.207 1.348 8.711-.969 10.06-5.177l9.768-30.474c1.348-4.207-.969-8.71-5.176-10.059zm-17.386 28.031-15.237-4.884c-2.019-.648-4.213-.469-6.1.5l-1.844.948c-3.371 1.746-7.301 2.07-10.912.9l-6.438-2.064 4.884-15.236c1.358-4.204-.949-8.714-5.154-10.072-4.204-1.358-8.714.949-10.072 5.154-.004.011-.007.022-.011.033l-4.884 15.237-15.241-4.871 9.77-30.476 36.911 11.831c3.618 1.149 6.626 3.698 8.354 7.078l.949 1.845c.971 1.887 2.651 3.31 4.671 3.958l15.237 4.884z" fill="#a9820c" data-original="#000000" style=""/><path d="m89.026 422.901c7.26-5.038 9.062-15.007 4.024-22.267l-.001-.001-2.395-3.451c2.211-.055 4.3-1.024 5.769-2.677l13.132-14.79c.747 1.32 1.659 2.539 2.714 3.629l54.467 55.831c6.175 6.315 16.296 6.441 22.626.281l45.811-44.691c6.325-6.17 6.451-16.3.281-22.625l-54.263-55.626 2.38-2.159c1.918-1.739 3.382-3.92 4.264-6.354h24.912l-.216.223c-6.151 6.339-6.01 16.46.315 22.625l45.879 44.623c6.339 6.149 16.459 6.008 22.625-.315l61.351-63.084c3.081-3.167 3.01-8.232-.157-11.313l-10.032-9.759c-7.13-6.921-18.518-6.763-25.453.353l-9.758 10.035-11.469-11.156 16.733-17.2c3.08-3.167 3.01-8.232-.157-11.312l-10.036-9.762c-3.351-3.279-7.855-5.11-12.543-5.1-.085 0-.172 0-.258 0-4.776.054-9.332 2.016-12.653 5.449l-2.913 3v-51.307c0-4.418-3.582-8-8-8h-14.004c-9.936.012-17.988 8.064-18 18v14h-16v-24c0-4.418-3.582-8-8-8h-14c-9.936.012-17.988 8.064-18 18v60.241c-2.459-1.868-5.166-3.385-8.043-4.509-4.642-1.816-8.165-5.702-9.519-10.5l-1.609-5.747c-.335-1.196-.944-2.297-1.778-3.217l-13.9-15.324c-2.496-2.754-5.411-5.098-8.637-6.944h27.486c3.981 0 7.356-2.927 7.919-6.868l8-56c.625-4.374-2.414-8.426-6.788-9.052-.375-.054-.753-.08-1.132-.08h-56c-4.418 0-8 3.582-7.999 8.001 0 .379.027.757.08 1.132l6.935 48.549c-3.042-2.823-7.737-2.852-10.813-.066l-23.7 21.5c-.898.816-1.598 1.827-2.045 2.956l-25.274-7.548c-4.233-1.264-8.69 1.143-9.954 5.376l-5.93 19.855c-6.545 3.871-11.381 10.077-13.536 17.369l-11.092 37.14c-2.518 8.466 2.293 17.373 10.753 19.91l20.669 6.171c-.845.239-1.644.616-2.366 1.115l-26.289 18.246c-3.63 2.519-4.53 7.504-2.01 11.134l11.816 17.023c-1.059 7.53.772 15.182 5.126 21.416l22.1 31.843c5.043 7.252 15.006 9.052 22.267 4.022zm189.358-159.437c.368-.384.875-.603 1.407-.606h.029c.521-.004 1.022.2 1.392.566l4.3 4.184-16.734 17.2c-3.08 3.167-3.01 8.232.158 11.313l22.939 22.311c3.167 3.08 8.232 3.009 11.312-.158l15.339-15.77c.77-.792 2.036-.809 2.828-.039l4.3 4.182-55.774 57.354-45.879-44.622zm-94.383-49.463c0-1.105.895-2 2-2h6v24c0 4.418 3.582 8 8 8h32c4.418 0 8-3.582 8-8v-22c0-1.105.895-2 2-2h6v59.753l-19.692 20.247h-43.433c-.071-.081-.13-.167-.2-.247l-.672-.741zm-94.935 164.689-21.8-14.417 17.3-36.512 31.324 20.715zm134.935 4.62-45.812 44.691-54.466-55.832c-.772-.79-.757-2.056.033-2.828l.001-.001 4.295-4.19 16.759 17.179c1.482 1.519 3.506 2.387 5.628 2.413h.1c2.087 0 4.092-.816 5.586-2.273l22.906-22.346c3.162-3.085 3.225-8.15.14-11.312l-15.363-15.749c-.771-.791-.756-2.057.035-2.828l4.295-4.19zm-73.224-211.309-5.714 40h-26.124l-5.714-40zm-53.75 58.841 5.375 5.926c1.425 1.571 3.416 2.512 5.535 2.616 5.119.238 9.931 2.512 13.364 6.317l12.629 13.925 1.1 3.929c2.725 9.638 9.806 17.444 19.133 21.094 2.499.975 4.739 2.515 6.543 4.5l8.916 9.831c.705 1.447 1.624 2.78 2.725 3.955l-4.2 3.808c-2.044.024-4 .836-5.461 2.266l-10.02 9.776c-1.507 1.475-2.743 3.204-3.651 5.107l-12.014-13.247c-1.8-1.989-3.115-4.369-3.841-6.952-2.723-9.637-9.802-17.443-19.128-21.092l-3.8-1.478-12.631-13.922c-3.454-3.787-5.249-8.798-4.985-13.916.103-2.119-.64-4.192-2.065-5.763l-5.374-5.926zm-23.94 60.595c2.195-7.281 1.552-15.123-1.8-21.949l4.36-14.587.986 1.086c.387 8.158 3.611 15.925 9.116 21.958l13.9 15.324c.835.92 1.871 1.633 3.029 2.083l5.563 2.161c4.64 1.815 8.163 5.698 9.518 10.493 1.4 4.974 3.933 9.556 7.4 13.387l12.114 13.355c3.033 3.348 7.342 5.253 11.859 5.244.048 0 .1-.006.144-.006.816 1.559 1.855 2.99 3.084 4.248l9.776 10.023-11.458 11.174-15.239-15.621c1.39-3.51.127-7.514-3.025-9.592l-46.71-30.89c-3.685-2.437-8.649-1.425-11.086 2.26-.209.315-.394.645-.556.987l-20.875 44.047c-.17-.041-.338-.088-.509-.126l-11.816-17.024c-.159-.229-.33-.45-.512-.661l1.736.518c8.466 2.532 17.382-2.279 19.913-10.746.001-.002.001-.004.002-.006zm-57.086 23.406 11.093-37.142c1.076-3.639 3.563-6.697 6.907-8.491l1.825-.985c1.868-1.008 3.259-2.717 3.866-4.751l4.578-15.331 15.331 4.578-4.578 15.33c-.607 2.033-.382 4.224.626 6.091l.986 1.825c1.813 3.335 2.217 7.257 1.121 10.891l-1.935 6.479-15.331-4.578c-4.219-1.313-8.703 1.043-10.015 5.262-1.313 4.219 1.043 8.703 5.262 10.015.058.018.117.036.175.052l15.331 4.578-4.578 15.335zm37.615 113.158-22.1-31.843c-2.174-3.113-3.011-6.966-2.326-10.7l.369-2.042c.377-2.087-.091-4.239-1.3-5.982l-9.123-13.144 13.144-9.123 9.121 13.144c1.21 1.742 3.062 2.933 5.149 3.31l2.042.369c2.738.489 5.271 1.77 7.287 3.686.069.073.144.142.217.213.629.621 1.2 1.298 1.706 2.023l3.855 5.554-13.144 9.123c-3.642 2.502-4.565 7.482-2.063 11.124s7.482 4.565 11.124 2.063c.021-.014.042-.029.063-.043l13.144-9.123 9.121 13.144z" fill="#a9820c" data-original="#000000" style=""/><path d="m449.101 350.051c-2.32-3.76-7.249-4.928-11.009-2.608-.322.199-.63.42-.921.663l-43.021 35.851c-3.394 2.829-3.853 7.873-1.024 11.267.242.291.505.564.786.818l42 37.9c2.956 2.668 7.423 2.756 10.482.207l30.729-25.608c3.058-2.549 3.777-6.959 1.686-10.347zm-7.625 67.362-30-27.07 28.849-24.04 21.217 34.386z" fill="#a9820c" data-original="#000000" style=""/><path d="m347.994 281.861c2.916 2.71 7.382 2.864 10.477.36l31.1-25.157c3.095-2.504 3.879-6.903 1.838-10.321l-29-48.57c-2.265-3.793-7.177-5.032-10.97-2.767-.325.194-.636.411-.93.649l-43.538 35.219c-3.435 2.778-3.968 7.816-1.19 11.251.238.295.497.572.775.83zm5.407-67.56 20.714 34.692-20.31 16.43-29.6-27.5z" fill="#a9820c" data-original="#000000" style=""/><path d="m452.659 266.443-26.015-18.633c-3.592-2.573-8.589-1.747-11.162 1.845l-7.526 10.507c-7.892 2.101-14.804 6.891-19.541 13.544l-12.046 16.817c-.724 1.009-1.204 2.173-1.4 3.4l-.939 5.894c-.795 4.919-3.848 9.182-8.25 11.518-4.566 2.417-8.511 5.859-11.524 10.055l-10.5 14.66c-5.134 7.186-3.482 17.172 3.692 22.323l26.014 18.633c2.703 1.95 5.951 2.999 9.284 3 .885 0 1.77-.073 2.643-.218 4.192-.68 7.937-3.01 10.4-6.469l10.5-14.66c3.003-4.203 4.992-9.045 5.81-14.146.795-4.919 3.849-9.182 8.251-11.518l5.278-2.786c1.099-.58 2.047-1.407 2.77-2.417l12.045-16.816c4.775-6.626 7.086-14.712 6.534-22.861l7.524-10.514c2.571-3.59 1.746-8.584-1.842-11.158zm-20.479 14.858c-1.235 1.725-1.734 3.87-1.388 5.963.85 5.055-.357 10.241-3.354 14.4l-10.946 15.283-3.608 1.9c-8.846 4.695-14.983 13.262-16.583 23.148-.425 2.649-1.458 5.163-3.017 7.346l-10.501 14.66-26.015-18.634 10.5-14.658c1.565-2.179 3.613-3.967 5.984-5.222 8.847-4.696 14.985-13.264 16.583-23.152l.642-4.029 10.945-15.282c2.974-4.175 7.493-6.986 12.552-7.809 2.094-.346 3.964-1.509 5.2-3.234l4.658-6.5 13.008 9.317z" fill="#a9820c" data-original="#000000" style=""/><path d="m448.001 316.001h16v16h-16z" fill="#a9820c" data-original="#000000" style=""/><path d="m392.001 220.001h16v16h-16z" fill="#a9820c" data-original="#000000" style=""/><path d="m.001 228.001h16v16h-16z" fill="#a9820c" data-original="#000000" style=""/><path d="m464.001 340.001h16v16h-16z" fill="#a9820c" data-original="#000000" style=""/><path d="m248.001 404.001h16v16h-16z" fill="#a9820c" data-original="#000000" style=""/><path d="m112.001 420.001h16v16h-16z" fill="#a9820c" data-original="#000000" style=""/><path d="m280.001 212.001h16v16h-16z" fill="#a9820c" data-original="#000000" style=""/><path d="m56.001 196.001h16v16h-16z" fill="#a9820c" data-original="#000000" style=""/><path d="m.001 428.001h16v16h-16z" fill="#a9820c" data-original="#000000" style=""/></g></g></g></g></svg>
