<?xml version="1.0"?>
<svg xmlns="http://www.w3.org/2000/svg" xmlns:xlink="http://www.w3.org/1999/xlink" xmlns:svgjs="http://svgjs.com/svgjs" version="1.1" width="512" height="512" x="0" y="0" viewBox="0 0 64 64" style="enable-background:new 0 0 512 512" xml:space="preserve" class=""><g><g xmlns="http://www.w3.org/2000/svg" id="Garbage_Truck" data-name="Garbage Truck"><path d="m61.288 28.535-4.848-8.078a3.013 3.013 0 0 0 -2.572-1.457h-13.868v-7a1 1 0 0 0 -1-1h-5a1 1 0 0 0 -.97.757l-.857 3.429-27.946 7.452a3 3 0 0 0 -2.227 2.899v15.463a1 1 0 0 0 .143.515l3 5a1 1 0 0 0 .857.485h2.08a6.991 6.991 0 0 0 13.84 0h20.16a6.991 6.991 0 0 0 13.84 0h3.08a3 3 0 0 0 3-3v-12.892a5.009 5.009 0 0 0 -.712-2.573zm-6.563-7.049 4.509 7.514h-15.234v-8h9.868a1 1 0 0 1 .857.486zm-50.725 19.237v-15.186a1 1 0 0 1 .743-.967l28.515-7.6a1 1 0 0 0 .712-.723l.811-3.247h3.219v32h-16.08a6.991 6.991 0 0 0 -13.84 0h-1.514zm11 10.277a5 5 0 1 1 5-5 5.006 5.006 0 0 1 -5 5zm34 0a5 5 0 1 1 5-5 5.006 5.006 0 0 1 -5 5zm10-6h-3.08a6.991 6.991 0 0 0 -13.84 0h-2.08v-24h2v9a1 1 0 0 0 1 1h16.985c0 .036.015.071.015.108v1.892h-4a2 2 0 0 0 -2 2v2a2 2 0 0 0 2 2h4v2h-3v2h3v1a1 1 0 0 1 -1 1zm1-10v2h-4v-2z" fill="#7f1aa3" data-original="#000000" style=""/><path d="m42 33h4v2h-4z" fill="#7f1aa3" data-original="#000000" style=""/><path d="m14 45h2v2h-2z" fill="#7f1aa3" data-original="#000000" style=""/><path d="m48 45h2v2h-2z" fill="#7f1aa3" data-original="#000000" style=""/><path d="m25 23h2v14h-2z" fill="#7f1aa3" data-original="#000000" style=""/><path d="m30 23h2v14h-2z" fill="#7f1aa3" data-original="#000000" style=""/><path d="m15 23h2v14h-2z" fill="#7f1aa3" data-original="#000000" style=""/><path d="m20 23h2v14h-2z" fill="#7f1aa3" data-original="#000000" style=""/></g></g></svg>
