<?xml version="1.0"?>
<svg xmlns="http://www.w3.org/2000/svg" xmlns:xlink="http://www.w3.org/1999/xlink" xmlns:svgjs="http://svgjs.com/svgjs" version="1.1" width="512" height="512" x="0" y="0" viewBox="0 0 512 512" style="enable-background:new 0 0 512 512" xml:space="preserve"><g><g xmlns="http://www.w3.org/2000/svg"><path d="m345.356 233.805-14.106-14.122v-54.041c0-8.284-6.716-15-15-15h-6.301l-39.515-139.724c-1.827-6.459-7.722-10.918-14.434-10.918s-12.607 4.459-14.434 10.918l-39.516 139.724h-6.301c-8.284 0-15 6.716-15 15v54.042l-14.106 14.122c-10.33 10.341-16.019 24.085-16.019 38.702v192.942c0 25.668 20.883 46.551 46.551 46.551h117.648c25.668 0 46.551-20.883 46.551-46.551v-192.943c.001-14.616-5.687-28.361-16.018-38.702zm-89.356-163.686 22.773 80.523h-45.546zm-45.25 110.523h90.5v30.25h-90.5zm120.625 284.807c0 9.126-7.425 16.551-16.551 16.551h-117.648c-9.126 0-16.551-7.425-16.551-16.551v-13.699h150.75zm0-43.699h-150.75v-90.5h150.75zm0-120.5h-150.75v-28.743c0-6.609 2.572-12.824 7.243-17.5l14.1-14.115h108.064l14.1 14.115c4.671 4.676 7.243 10.892 7.243 17.5z" fill="#c91e1e" data-original="#000000" style=""/><path d="m225.875 391.5h60.25c8.284 0 15-6.716 15-15s-6.716-15-15-15h-60.25c-8.284 0-15 6.716-15 15s6.716 15 15 15z" fill="#c91e1e" data-original="#000000" style=""/></g></g></svg>
