<?xml version="1.0"?>
<svg xmlns="http://www.w3.org/2000/svg" xmlns:xlink="http://www.w3.org/1999/xlink" xmlns:svgjs="http://svgjs.com/svgjs" version="1.1" width="512" height="512" x="0" y="0" viewBox="0 0 128 128" style="enable-background:new 0 0 512 512" xml:space="preserve"><g><g xmlns="http://www.w3.org/2000/svg"><path d="M123.152,103.231l-6.167-17.692a1.75,1.75,0,0,0-1.652-1.174H103.576L97.819,67.847a1.75,1.75,0,0,0-1.652-1.174H84.41L78.652,50.155A1.75,1.75,0,0,0,77,48.981H51a1.75,1.75,0,0,0-1.652,1.174L43.59,66.673H31.833a1.75,1.75,0,0,0-1.652,1.174L24.424,84.365H12.667a1.75,1.75,0,0,0-1.652,1.174L4.848,103.231A1.75,1.75,0,0,0,6.5,105.558h115a1.75,1.75,0,0,0,1.652-2.327ZM99.87,84.365H66.463L71.41,70.173H94.924Zm-16.7,14.126-3.7-10.626H86.87ZM64,80.8,60.3,70.173H67.7ZM52.243,52.481H75.757L80.7,66.673H47.3ZM33.076,70.173H56.59l4.947,14.192H28.13ZM44.833,98.491l-3.7-10.626h7.407Zm-35.87,3.567L13.91,87.865H37.424l4.946,14.193Zm38.333,0,4.947-14.193H75.757L80.7,102.058Zm38.334,0,4.946-14.193H114.09l4.947,14.193Z" fill="#e38916" data-original="#000000" style=""/><path d="M64.333,58.481h5.834a1.75,1.75,0,0,0,0-3.5H64.333a1.75,1.75,0,0,0,0,3.5Z" fill="#e38916" data-original="#000000" style=""/><path d="M64,38.427a1.749,1.749,0,0,0,1.75-1.75V24.192a1.75,1.75,0,0,0-3.5,0V36.677A1.749,1.749,0,0,0,64,38.427Z" fill="#e38916" data-original="#000000" style=""/><path d="M80.768,40.01a1.745,1.745,0,0,0,2.248-1.033l4.337-11.708a1.75,1.75,0,0,0-3.282-1.216L79.734,37.761A1.749,1.749,0,0,0,80.768,40.01Z" fill="#e38916" data-original="#000000" style=""/><path d="M96.324,43.317a1.75,1.75,0,0,0,2.438-.426l7.175-10.217a1.75,1.75,0,1,0-2.863-2.012L95.9,40.879A1.751,1.751,0,0,0,96.324,43.317Z" fill="#e38916" data-original="#000000" style=""/><path d="M44.984,38.977a1.75,1.75,0,0,0,3.282-1.216L43.929,26.053a1.75,1.75,0,0,0-3.282,1.216Z" fill="#e38916" data-original="#000000" style=""/><path d="M29.238,42.891A1.75,1.75,0,1,0,32.1,40.879L24.926,30.662a1.75,1.75,0,1,0-2.864,2.012Z" fill="#e38916" data-original="#000000" style=""/></g></g></svg>
