<svg id="Capa_1" enable-background="new 0 0 512 512" height="512" viewBox="0 0 512 512" width="512" xmlns="http://www.w3.org/2000/svg"><g><path d="m22.054 497.005h467.893c1.928 0 3.713-.794 4.989-2.07 1.275-1.275 2.069-3.061 2.069-4.988v-11.055c0-1.928-.794-3.686-2.069-4.989-1.276-1.276-3.061-2.069-4.989-2.069-155.964 0-311.929 0-467.893 0-1.928 0-3.685.793-4.961 2.069-1.304 1.304-2.098 3.062-2.098 4.989v11.055c0 1.928.794 3.713 2.098 4.988 1.276 1.276 3.033 2.07 4.961 2.07zm88.612-40.168v-93.459c0-6.464-2.665-12.359-6.917-16.64-4.28-4.28-10.176-6.917-16.64-6.917-6.491 0-12.358 2.637-16.639 6.917-4.28 4.28-6.945 10.176-6.945 16.64v93.459zm14.995-93.459v93.459h33.535v-93.459c0-10.602 4.337-20.24 11.338-27.241 6.974-6.974 16.611-11.31 27.241-11.31 10.602 0 20.24 4.337 27.242 11.31 6.973 7.001 11.311 16.64 11.311 27.241v93.459h33.533v-93.459c0-10.602 4.337-20.24 11.311-27.241 7.001-6.974 16.639-11.31 27.241-11.31 10.631 0 20.269 4.337 27.241 11.31 7.002 7.001 11.339 16.64 11.339 27.241v93.459h33.534v-93.459c0-10.602 4.338-20.24 11.311-27.241 7.002-6.974 16.64-11.31 27.241-11.31 10.63 0 20.268 4.337 27.241 11.31 7.002 7.001 11.338 16.64 11.338 27.241v93.459h24.805v-160.019h-452.898v63.016c0 4.139-3.373 7.512-7.512 7.512s-7.483-3.373-7.483-7.512v-64.348c-3.062-1.105-5.839-2.891-8.079-5.158-3.996-3.998-6.491-9.496-6.491-15.591v-30.473c0-6.066 2.495-11.565 6.491-15.563 3.969-3.997 9.496-6.491 15.563-6.491h9.496v-8.391c0-6.095 2.494-11.595 6.463-15.591 3.997-3.998 9.525-6.492 15.592-6.492h65.055c1.247-4.479 2.693-8.872 4.366-13.181 6.351-16.498 15.676-31.493 27.298-44.362 2.778-3.062 7.512-3.288 10.545-.539 3.062 2.778 3.316 7.484.539 10.545-10.432 11.537-18.766 24.945-24.434 39.686-4.706 12.217-7.483 25.285-8.249 38.325h254.554c-1.872-32.202-15.705-61.23-37.135-82.631-23.046-23.075-54.937-37.361-90.143-37.361-12.784 0-25.115 1.898-36.737 5.386-12.02 3.6-23.302 8.957-33.534 15.732-3.459 2.268-8.107 1.332-10.375-2.126-2.296-3.43-1.36-8.079 2.098-10.347 11.452-7.597 24.095-13.578 37.531-17.632 10.715-3.203 21.94-5.216 33.534-5.811v-79.908c-.001-4.138 3.343-7.512 7.482-7.512h89.916c4.139 0 7.483 3.374 7.483 7.512 0 1.531-.453 2.977-1.275 4.167l-13.153 21.855 13.352 22.168c2.126 3.543.992 8.163-2.552 10.29-1.162.708-2.494 1.076-3.855 1.076h-82.404v20.354c36.369 1.898 69.109 17.404 93.232 41.557 17.178 17.149 29.992 38.692 36.625 62.759h65.026c6.066 0 11.595 2.494 15.592 6.492 3.997 3.996 6.463 9.496 6.463 15.591v8.391h9.496c6.066 0 11.594 2.494 15.591 6.491s6.463 9.496 6.463 15.563v30.473c0 6.095-2.466 11.593-6.463 15.591-2.269 2.268-5.018 4.053-8.079 5.158v162.654c3.061 1.134 5.811 2.891 8.079 5.159 3.997 3.997 6.463 9.525 6.463 15.592v11.055c0 6.066-2.466 11.594-6.463 15.591s-9.524 6.461-15.591 6.461h-467.892c-6.066 0-11.594-2.466-15.563-6.463-3.996-3.997-6.491-9.524-6.491-15.591v-11.055c0-6.066 2.495-11.595 6.491-15.592 2.24-2.268 5.018-4.025 8.079-5.159v-64.347c0-4.139 3.345-7.483 7.483-7.483s7.512 3.345 7.512 7.483v63.043h18.965v-93.459c0-10.602 4.337-20.24 11.339-27.241 6.973-6.974 16.611-11.31 27.24-11.31 10.602 0 20.24 4.337 27.241 11.31 6.974 7.002 11.311 16.64 11.311 27.242zm317.002 93.459v-93.459c0-6.464-2.664-12.359-6.944-16.64-4.28-4.28-10.148-6.917-16.64-6.917-6.463 0-12.359 2.637-16.64 6.917-4.252 4.28-6.916 10.176-6.916 16.64v93.459zm-110.665 0v-93.459c0-6.464-2.665-12.359-6.945-16.64-4.252-4.28-10.147-6.917-16.64-6.917-6.463 0-12.359 2.637-16.611 6.917-4.28 4.28-6.945 10.176-6.945 16.64v93.459zm-110.666 0v-93.459c0-6.464-2.664-12.359-6.944-16.64-4.253-4.28-10.149-6.917-16.612-6.917-6.491 0-12.359 2.637-16.64 6.917-4.28 4.28-6.944 10.176-6.944 16.64v93.459zm111.317-441.842h-69.138v37.079h69.138l-8.787-14.543c-1.445-2.325-1.559-5.358-.057-7.853zm64.008 191.766c.822 5.046 1.36 10.234 1.644 15.45h67.153v-8.391c0-1.957-.794-3.714-2.069-4.989-1.275-1.276-3.062-2.07-4.989-2.07zm-282.929 15.45c.255-5.216.821-10.376 1.644-15.45h-61.768c-1.928 0-3.686.794-4.961 2.07-1.304 1.275-2.098 3.032-2.098 4.989v8.391zm-91.674 59.584h467.893c1.928 0 3.713-.793 4.989-2.068 1.275-1.276 2.069-3.033 2.069-4.989v-30.473c0-1.928-.794-3.685-2.069-4.961-1.276-1.275-3.061-2.098-4.989-2.098-155.964 0-311.929 0-467.893 0-1.928 0-3.685.822-4.961 2.098-1.304 1.276-2.098 3.033-2.098 4.961v30.473c0 1.956.794 3.713 2.098 4.989 1.276 1.275 3.033 2.068 4.961 2.068z"/></g></svg>