<?xml version="1.0"?>
<svg xmlns="http://www.w3.org/2000/svg" xmlns:xlink="http://www.w3.org/1999/xlink" xmlns:svgjs="http://svgjs.com/svgjs" version="1.1" width="512" height="512" x="0" y="0" viewBox="0 0 48 48" style="enable-background:new 0 0 512 512" xml:space="preserve"><g><g xmlns="http://www.w3.org/2000/svg" id="Greenhouse_with_flowers" data-name="Greenhouse with flowers"><path d="M45.88,19.72A22,22,0,0,0,14.84,2H3A1,1,0,0,0,3,4H4.28L6,9.29A21.84,21.84,0,0,0,2.12,19.72,3,3,0,0,0,6,22.85V42a3,3,0,0,0,0,6H42a3,3,0,0,0,0-6l-.09-19.17A3,3,0,0,0,45.88,19.72ZM6.39,4h5A22.09,22.09,0,0,0,7.52,7.41ZM4.11,19.93a20,20,0,0,1,39.78,0,1,1,0,0,1-2,.14,18,18,0,0,0-35.8,0A1,1,0,0,1,4.11,19.93ZM42,46H6a1,1,0,0,1,0-2H42A1,1,0,0,1,42,46ZM25,42V40h1c6.4,0,8.51-8,6-8-2.31,0-4.69-.25-7,2.11V30h.51A3.49,3.49,0,0,0,29,26.51c0-.83-.33-.51.51-.51A3.5,3.5,0,0,0,33,22.51v-3a3.48,3.48,0,0,0-4.06-3.43A3.48,3.48,0,0,0,25.51,12c-3,0-4.21-.26-5.49,1a3.43,3.43,0,0,0-1,3A3.47,3.47,0,0,0,15,19.49c0,3-.26,4.21,1,5.49a3.43,3.43,0,0,0,3,1A3.47,3.47,0,0,0,22.49,30H23V42H8V22h4a1,1,0,0,0,0-2H8.13A15.94,15.94,0,0,1,15,8.77V13a1,1,0,0,0,2,0V7.61a16,16,0,0,1,14,0V13a1,1,0,0,0,2,0V8.77A15.94,15.94,0,0,1,39.87,20H36a1,1,0,0,0,0,2h3.91L40,42Zm.1-4A5,5,0,0,1,30,34h.9A5,5,0,0,1,26,38Zm-2-16.48a1,1,0,0,1,1.7-1A1,1,0,0,1,23.15,21.52Zm3.71.35a2.73,2.73,0,0,0,0-1.74,15.44,15.44,0,0,0,.95-1.46c1-.51,1.91-1.08,2.75-.23.61.61.44,1.16.44,4.07a1.49,1.49,0,0,1-2.08,1.37C27.27,23.13,28.13,23.54,26.86,21.87Zm0-5.79a17.2,17.2,0,0,1-1.3,2.39,2.88,2.88,0,0,0-3.16,0,17.71,17.71,0,0,1-1.29-2.38,1.48,1.48,0,0,1,.31-1.66c.61-.61,1.16-.44,4.07-.44A1.49,1.49,0,0,1,26.88,16.08Zm-5.74,4.05a2.8,2.8,0,0,0,0,1.74,15.44,15.44,0,0,0-.95,1.46c-1,.52-1.91,1.08-2.75.23C16.83,23,17,22.4,17,19.49a1.49,1.49,0,0,1,2.08-1.37C20.73,18.87,19.87,18.46,21.14,20.13Zm0,5.79a17.62,17.62,0,0,1,1.29-2.38,2.91,2.91,0,0,0,3.17,0,9.55,9.55,0,0,1,1.42,3A1.49,1.49,0,0,1,25.51,28h-3A1.49,1.49,0,0,1,21.12,25.92Z" fill="#0d9771" data-original="#000000" style=""/></g></g></svg>
