<?xml version="1.0"?>
<svg xmlns="http://www.w3.org/2000/svg" xmlns:xlink="http://www.w3.org/1999/xlink" xmlns:svgjs="http://svgjs.com/svgjs" version="1.1" width="512" height="512" x="0" y="0" viewBox="0 0 512 512" style="enable-background:new 0 0 512 512" xml:space="preserve"><g><path xmlns="http://www.w3.org/2000/svg" d="m437.332031 345.847656h67.167969c4.140625 0 7.5-3.359375 7.5-7.5 0-4.144531-3.359375-7.5-7.5-7.5h-67.167969c-4.140625 0-7.5 3.355469-7.5 7.5 0 4.140625 3.359375 7.5 7.5 7.5zm0 0" fill="#cb7214" data-original="#000000" style=""/><path xmlns="http://www.w3.org/2000/svg" d="m92.582031 379.820312h-85.082031c-4.140625 0-7.5 3.355469-7.5 7.5v117.179688c0 4.140625 3.359375 7.5 7.5 7.5s7.5-3.359375 7.5-7.5v-109.679688h77.582031c4.144531 0 7.5-3.355468 7.5-7.5 0-4.144531-3.355469-7.5-7.5-7.5zm0 0" fill="#cb7214" data-original="#000000" style=""/><path xmlns="http://www.w3.org/2000/svg" d="m504.5 379.820312h-190.820312c-.933594-11.222656-4.300782-24.1875-15.199219-33.972656h103.601562c4.144531 0 7.5-3.359375 7.5-7.5 0-4.144531-3.355469-7.5-7.5-7.5h-112.746093c-4.144532 0-7.5 3.355469-7.5 7.5v9.863282c0 2.492187 1.238281 4.824218 3.304687 6.21875 9.71875 6.554687 13.867187 16.691406 13.867187 33.898437 0 11.871094-4.734374 22.929687-13.332031 31.125-8.589843 8.195313-19.871093 12.394531-31.777343 11.835937-22-1.042968-40.746094-21.152343-40.933594-43.914062-.136719-16.199219 4.148437-26.355469 13.894531-32.925781 2.066406-1.394531 3.304687-3.726563 3.304687-6.21875v-9.882813c0-4.144531-3.355468-7.5-7.5-7.5h-215.164062c-4.140625 0-7.5 3.355469-7.5 7.5 0 4.140625 3.359375 7.5 7.5 7.5h206.023438c-9.085938 8.089844-14.117188 19.300782-15.285157 33.972656h-70.738281c-4.140625 0-7.5 3.355469-7.5 7.5 0 4.140626 3.359375 7.5 7.5 7.5h71.003906c3.726563 27.703126 26.902344 50.132813 54.683594 51.449219.953125.046875 1.902344.070313 2.847656.070313 14.984375-.003906 29.09375-5.636719 39.992188-16.03125 10.011718-9.546875 16.128906-21.96875 17.617187-35.488282h183.355469v109.679688c0 4.140625 3.359375 7.5 7.5 7.5s7.5-3.359375 7.5-7.5v-117.179688c0-4.144531-3.359375-7.5-7.5-7.5zm0 0" fill="#cb7214" data-original="#000000" style=""/><path xmlns="http://www.w3.org/2000/svg" d="m296.835938 256c0-7.5625-2.058594-14.855469-5.972657-21.257812 1.25-81.515626 16.210938-137.496094 28.613281-170.195313 13.53125-35.6875 26.992188-52.070313 27.113282-52.21875 2.472656-2.933594 2.328125-7.265625-.332032-10.03125-2.664062-2.761719-6.984374-3.074219-10.011718-.714844-39.859375 31.039063-70.230469 72.503907-90.273438 123.238281-1.523437 3.851563.367188 8.207032 4.21875 9.730469 3.855469 1.523438 8.207032-.367187 9.730469-4.222656 12.699219-32.144531 29.730469-60.351563 50.855469-84.285156-1.632813 3.792969-3.289063 7.855469-4.949219 12.183593-13.109375 34.261719-28.960937 93.054688-29.992187 178.609376-.019532 1.566406.453124 3.101562 1.351562 4.386718 3.039062 4.351563 4.648438 9.460938 4.648438 14.773438 0 7.238281-2.914063 13.945312-8.207032 18.886718-5.285156 4.9375-12.191406 7.382813-19.457031 6.890626-12.824219-.875-23.121094-11.214844-23.953125-24.046876-.394531-6.105468 1.28125-11.9375 4.84375-16.859374.851562-1.171876 1.34375-2.566407 1.417969-4.015626.679687-13.269531 3.164062-40.371093 12.15625-72.773437 1.105469-3.992187-1.230469-8.125-5.222657-9.230469-3.988281-1.109375-8.125 1.226563-9.230468 5.21875-8.921875 32.160156-11.703125 59.386719-12.566406 73.910156-4.679688 7.304688-6.929688 15.996094-6.367188 24.71875 1.316406 20.304688 17.5625 38.042969 37.902344 38.042969 27.597656 0 43.683594-17.378906 43.683594-40.738281zm0 0" fill="#cb7214" data-original="#000000" style=""/><path xmlns="http://www.w3.org/2000/svg" d="m256 319.210938c-4.140625 0-7.5 3.355468-7.5 7.5v41.140624l-6.132812-6.777343c-2.777344-3.070313-7.519532-3.308594-10.589844-.53125-3.074219 2.78125-3.308594 7.523437-.53125 10.59375l19.191406 21.214843c3.023438 3.339844 8.09375 3.125 11.140625-.015624l19.175781-21.199219c2.78125-3.070313 2.542969-7.8125-.527344-10.59375-3.074218-2.777344-7.816406-2.539063-10.59375.53125l-6.132812 6.777343v-41.140624c0-4.144532-3.359375-7.5-7.5-7.5zm0 0" fill="#cb7214" data-original="#000000" style=""/><path xmlns="http://www.w3.org/2000/svg" d="m345.40625 239.855469c-2.78125-3.070313-7.523438-3.308594-10.59375-.53125-3.074219 2.78125-3.308594 7.523437-.53125 10.597656l19.195312 21.210937c2.929688 3.238282 8.214844 3.257813 11.136719-.015624l19.175781-21.195313c2.78125-3.074219 2.542969-7.816406-.527343-10.597656-3.070313-2.777344-7.8125-2.539063-10.59375.53125l-6.132813 6.777343v-41.140624c0-4.144532-3.355468-7.5-7.5-7.5-4.140625 0-7.5 3.355468-7.5 7.5v41.140624zm0 0" fill="#cb7214" data-original="#000000" style=""/><path xmlns="http://www.w3.org/2000/svg" d="m147.402344 271.132812c3.023437 3.339844 8.09375 3.125 11.136718-.019531l19.179688-21.195312c2.777344-3.070313 2.542969-7.8125-.53125-10.59375-3.070312-2.777344-7.8125-2.539063-10.589844.53125l-6.132812 6.777343v-41.144531c0-4.140625-3.359375-7.5-7.5-7.5-4.144532 0-7.5 3.359375-7.5 7.5v41.144531l-6.132813-6.777343c-2.777343-3.070313-7.519531-3.3125-10.59375-.53125-3.070312 2.78125-3.308593 7.523437-.527343 10.59375zm0 0" fill="#cb7214" data-original="#000000" style=""/></g></svg>
