<svg id="Capa_1" enable-background="new 0 0 511.975 511.975" height="512" viewBox="0 0 511.975 511.975" width="512" xmlns="http://www.w3.org/2000/svg"><g><g><path d="m509.178 212.659c-2.769-3.569-5.744-6.78-8.741-9.645v-30.424c0-9.648-7.85-17.498-17.499-17.498h-44.713l.046-1.085c.176-4.139-3.036-7.636-7.174-7.813-4.14-.182-7.636 3.036-7.813 7.174l-.073 1.724h-24.26c-4.142 0-7.5 3.357-7.5 7.5s3.358 7.5 7.5 7.5h23.621l-4.153 97.434-83.449 4.154v-8.227c3.834-.333 6.843-3.546 6.843-7.467s-3.009-7.134-6.843-7.467v-17.914c5.434 1.059 9.907 2.514 13.418 3.968 1.563.646 3.191.96 4.801.96 3.607 0 7.114-1.572 9.545-4.478 3.53-4.216 3.908-10.163.94-14.799-5.931-9.264-13.156-16.975-20.206-23.176 3.156.077 6.867.289 11.173.737 4.114.427 7.807-2.564 8.236-6.684.428-4.12-2.564-7.808-6.684-8.236-9.384-.976-16.432-.973-21.224-.712v-8.095h28.054c4.142 0 7.5-3.357 7.5-7.5s-3.358-7.5-7.5-7.5h-16.732c3.045-2.076 6.542-4.03 10.295-5.344 3.91-1.369 5.969-5.647 4.601-9.558-1.368-3.907-5.646-5.969-9.557-4.601-6.4 2.241-12.093 5.741-16.662 9.176v-2.171c0-9.649-7.85-17.499-17.499-17.499h-64.599l-.064-1.687c-.156-4.139-3.619-7.335-7.778-7.212-4.139.157-7.368 3.64-7.211 7.778l.042 1.12h-113.311l.042-1.12c.156-4.139-3.072-7.621-7.211-7.778-4.148-.121-7.622 3.072-7.778 7.212l-.064 1.687h-59.6c-9.649 0-17.499 7.85-17.499 17.499v26.091c0 4.143 3.358 7.5 7.5 7.5s7.5-3.357 7.5-7.5v-26.091c0-1.378 1.121-2.499 2.499-2.499h59.033l-1.623 42.946c-6.109.106-16.884.86-28.774 4.295-3.979 1.149-6.273 5.308-5.124 9.287.949 3.284 3.946 5.42 7.202 5.42.689 0 1.39-.096 2.085-.297 9.768-2.821 18.766-3.536 24.044-3.682l-.045 1.178c-7.475 2.935-27.594 11.681-40.03 25.111-2.814 3.039-2.631 7.785.408 10.599 1.443 1.337 3.271 1.997 5.094 1.997 2.017 0 4.027-.809 5.505-2.404 7.874-8.504 20.195-15.022 28.397-18.739l-1.235 32.679h-57.435v-43.874c0-4.143-3.358-7.5-7.5-7.5s-7.5 3.357-7.5 7.5v43.907c-3.834.333-6.843 3.546-6.843 7.467s3.009 7.134 6.843 7.467v18.408c-9.755 7.029-21.556 17.446-30.448 31.335-2.968 4.636-2.59 10.583.94 14.799 2.432 2.905 5.938 4.478 9.545 4.478 1.609 0 3.238-.313 4.8-.96.376-.156.78-.311 1.179-.466-3.032 3.747-6.185 8.349-9.252 14.032-1.967 3.646-.606 8.195 3.039 10.162 1.133.611 2.352.9 3.555.9 2.668 0 5.251-1.427 6.607-3.939 3.464-6.419 6.962-11.075 10.034-14.428v31.605c0 9.649 7.85 17.499 17.499 17.499h49.707l-.042 1.12c-.156 4.139 3.072 7.621 7.211 7.778.097.003.192.005.288.005 4.011 0 7.337-3.174 7.49-7.217l.064-1.687h34.946c4.142 0 7.5-3.357 7.5-7.5s-3.358-7.5-7.5-7.5h-34.379l4.096-108.391h27.617c-.222 7.107-.076 15.571.676 25.632.411 5.501 4.297 10.029 9.67 11.269.948.219 1.898.324 2.837.324 4.366 0 8.468-2.292 10.747-6.2 5.06-8.678 12.44-19.695 22.451-31.024h49.774l4.096 108.391h-61.659c-4.142 0-7.5 3.357-7.5 7.5s3.358 7.5 7.5 7.5h62.225l.064 1.687c.153 4.043 3.478 7.217 7.49 7.217.095 0 .192-.002.288-.005 4.139-.157 7.368-3.64 7.211-7.778l-.042-1.12h7.299v1.403c0 4.143 3.358 7.5 7.5 7.5s7.5-3.357 7.5-7.5v-1.403h128.269l-.046 1.084c-.176 4.139 3.036 7.636 7.174 7.813.109.005.217.007.325.007 3.995 0 7.316-3.151 7.488-7.181l.073-1.723h54.592c9.649 0 17.499-7.85 17.499-17.499v-90.931c3.996-.35 7.035-3.795 6.834-7.836-.189-3.788-3.161-6.795-6.834-7.096v-29.664c3.644-.448 7.012-2.413 9.199-5.583 3.28-4.754 3.096-11.026-.457-15.608zm-71.592-42.567h45.353c1.377 0 2.499 1.121 2.499 2.498v18.548c-5.708-3.741-9.847-5.688-10.213-5.858-3.757-1.74-8.217-.104-9.957 3.655s-.104 8.217 3.655 9.956c.148.069 13.432 6.309 24.64 18.511-6.83-1.666-14.134-2.324-26.554-.497-4.098.603-6.932 4.413-6.329 8.511.603 4.099 4.413 6.933 8.512 6.329 7.276-1.07 12.116-1.15 16.247-.626v33.071l-51.972 2.587zm-120.114-29.996c1.378 0 2.499 1.121 2.499 2.499v33.881c-2.818-1.565-4.632-2.42-4.92-2.554-3.756-1.741-8.204-.105-9.947 3.647-1.744 3.753-.114 8.211 3.636 9.96.243.113 22.24 10.534 37.823 30.498-11.102-3.336-26.948-5.63-47.474-2.611-4.098.603-6.932 4.413-6.329 8.512.603 4.098 4.415 6.938 8.512 6.328 6.872-1.009 13.098-1.344 18.701-1.22v19.451h-62.435l-4.096-108.391zm-217.26 231.781h-50.274c-1.378 0-2.499-1.121-2.499-2.499v-43.418c5.148-.025 10.786.327 16.958 1.234 4.095.601 7.909-2.23 8.512-6.328.603-4.099-2.231-7.909-6.329-8.512-20.528-3.021-36.373-.726-47.475 2.612 15.583-19.965 37.581-30.386 37.823-30.499 3.752-1.743 5.384-6.196 3.646-9.952-1.74-3.758-6.196-5.396-9.957-3.655-.224.104-1.368.642-3.178 1.605v-8.979h56.869zm60.522-136.715c-4.352-2.508-9.869-.109-11.039 4.776-.559 2.333-1.107 5.161-1.572 8.549h-28.238l4.096-108.391h114.447l4.096 108.391h-34.379c2.955-2.667 6.049-5.306 9.325-7.881 3.215-2.527 4.081-7.203 1.67-10.505-2.514-3.442-7.357-4.096-10.686-1.488-21.689 16.983-36.745 36.369-46.367 51.486-.896-19.359.769-30.762 2.186-36.675.778-3.239-.653-6.599-3.539-8.262zm101.464 136.715-4.096-108.391h61.868v73.579c-5.233-1.348-8.758-1.853-9.121-1.903-4.09-.554-7.874 2.3-8.444 6.398-.569 4.099 2.293 7.885 6.39 8.461.095.013 4.716.69 11.174 2.627v16.729c0 1.378-1.121 2.499-2.499 2.499h-55.272zm72.573 0c.118-.818.2-1.648.2-2.499v-10.778c2.946 1.507 5.894 3.255 8.694 5.283 1.329.963 2.868 1.427 4.393 1.427 2.323 0 4.614-1.076 6.081-3.102 2.43-3.355 1.68-8.044-1.675-10.474-5.69-4.121-11.777-7.269-17.492-9.655v-6.111c5.814 1 15.051 3.16 21.907 6.877 1.136.615 2.36.907 3.568.907 2.663 0 5.242-1.421 6.6-3.927 1.974-3.641.623-8.193-3.019-10.168-10.473-5.677-23.589-8.072-29.056-8.872v-34.088l82.808-4.122-3.806 89.3h-79.203zm148.167 0h-53.953l3.838-90.049 52.613-2.619v90.17c.001 1.377-1.12 2.498-2.498 2.498z"/><path d="m140.321 320.994-1.522 9.234c-.673 4.087 2.094 7.946 6.181 8.62.413.067.823.101 1.229.101 3.605 0 6.785-2.607 7.391-6.281l1.522-9.234c.673-4.087-2.094-7.946-6.181-8.62-4.086-.667-7.946 2.093-8.62 6.18z"/><path d="m169.652 316.78c-4.092-.641-7.93 2.155-8.572 6.246l-1.139 7.26c-.642 4.093 2.154 7.931 6.247 8.572.394.062.785.092 1.172.092 3.629 0 6.82-2.641 7.4-6.338l1.139-7.26c.641-4.093-2.155-7.931-6.247-8.572z"/><path d="m216.032 164.87c-.674-4.087-4.537-6.85-8.62-6.181-4.087.674-6.854 4.533-6.18 8.62l1.521 9.233c.606 3.674 3.786 6.281 7.391 6.281.405 0 .816-.033 1.229-.101 4.087-.674 6.854-4.533 6.181-8.62z"/><path d="m195.274 166.902c-.642-4.092-4.476-6.887-8.571-6.247-4.092.642-6.889 4.479-6.248 8.571l1.139 7.26c.58 3.698 3.771 6.339 7.4 6.339.386 0 .778-.03 1.171-.092 4.092-.642 6.889-4.479 6.248-8.571z"/><path d="m290.558 281.303c-.674-4.087-4.535-6.85-8.62-6.181-4.087.674-6.854 4.533-6.181 8.62l1.522 9.234c.606 3.674 3.786 6.281 7.391 6.281.405 0 .816-.033 1.229-.101 4.087-.674 6.854-4.533 6.181-8.62z"/><path d="m367.811 240.067c-.674 4.087 2.093 7.946 6.18 8.62.413.067.823.101 1.229.101 3.605 0 6.785-2.607 7.391-6.281l1.522-9.233c.673-4.087-2.094-7.946-6.181-8.62-4.085-.668-7.946 2.093-8.62 6.181z"/><path d="m395.199 248.696c.394.062.785.092 1.172.092 3.629 0 6.82-2.641 7.4-6.338l1.139-7.26c.642-4.093-2.154-7.931-6.247-8.572-4.094-.638-7.93 2.154-8.572 6.246l-1.139 7.26c-.642 4.092 2.155 7.93 6.247 8.572z"/></g></g></svg>