<?xml version="1.0"?>
<svg xmlns="http://www.w3.org/2000/svg" xmlns:xlink="http://www.w3.org/1999/xlink" xmlns:svgjs="http://svgjs.com/svgjs" version="1.1" width="512" height="512" x="0" y="0" viewBox="0 0 128 128" style="enable-background:new 0 0 512 512" xml:space="preserve"><g><path xmlns="http://www.w3.org/2000/svg" d="m126.822 32.431c-.187-.27-.494-.431-.822-.431h-76c-15.703 0-30.142 9.899-35.926 24.624l-13 32c-.125.308-.089.658.097.935.185.275.496.441.829.441h76c16.046 0 31.232-10.13 36.937-24.648l12-32c.114-.308.072-.652-.115-.921zm-13.753 32.204c-5.404 13.757-19.825 23.365-35.069 23.365h-74.514l12.445-30.635c5.49-13.975 19.182-23.365 34.069-23.365h74.557z" fill="#2786cb" data-original="#000000" style=""/><path xmlns="http://www.w3.org/2000/svg" d="m18.822 57.178-11.741 27.428c-.132.309-.101.664.084.944s.499.45.835.45h68.772c14.468 0 28.18-8.713 33.351-21.205l10.807-27.429c.122-.308.083-.655-.104-.929s-.495-.437-.826-.437h-68.772c-14.139 0-27.164 8.515-32.406 21.178zm32.406-19.178h67.303l-10.262 26.046c-4.864 11.749-17.815 19.954-31.497 19.954h-67.256l11.15-26.046c4.941-11.935 17.223-19.954 30.562-19.954z" fill="#2786cb" data-original="#000000" style=""/><path xmlns="http://www.w3.org/2000/svg" d="m41 80c9.925 0 18-8.075 18-18s-8.075-18-18-18-18 8.075-18 18 8.075 18 18 18zm0-34c8.822 0 16 7.178 16 16s-7.178 16-16 16-16-7.178-16-16 7.178-16 16-16z" fill="#2786cb" data-original="#000000" style=""/><path xmlns="http://www.w3.org/2000/svg" d="m82 80c11.028 0 20-8.972 20-20s-8.972-20-20-20-20 8.972-20 20 8.972 20 20 20zm0-38c9.925 0 18 8.075 18 18s-8.075 18-18 18-18-8.075-18-18 8.075-18 18-18z" fill="#2786cb" data-original="#000000" style=""/><path xmlns="http://www.w3.org/2000/svg" d="m41 76c7.72 0 14-6.28 14-14s-6.28-14-14-14-14 6.28-14 14 6.28 14 14 14zm0-26c6.617 0 12 5.383 12 12s-5.383 12-12 12-12-5.383-12-12 5.383-12 12-12z" fill="#2786cb" data-original="#000000" style=""/><path xmlns="http://www.w3.org/2000/svg" d="m82 76c8.822 0 16-7.178 16-16s-7.178-16-16-16-16 7.178-16 16 7.178 16 16 16zm0-30c7.72 0 14 6.28 14 14s-6.28 14-14 14-14-6.28-14-14 6.28-14 14-14z" fill="#2786cb" data-original="#000000" style=""/><path xmlns="http://www.w3.org/2000/svg" d="m82 69c4.962 0 9-4.037 9-9s-4.038-9-9-9-9 4.037-9 9 4.038 9 9 9zm0-16c3.86 0 7 3.141 7 7s-3.14 7-7 7-7-3.141-7-7 3.14-7 7-7z" fill="#2786cb" data-original="#000000" style=""/><path xmlns="http://www.w3.org/2000/svg" d="m41 70c4.411 0 8-3.589 8-8s-3.589-8-8-8-8 3.589-8 8 3.589 8 8 8zm0-14c3.309 0 6 2.691 6 6s-2.691 6-6 6-6-2.691-6-6 2.691-6 6-6z" fill="#2786cb" data-original="#000000" style=""/></g></svg>
