<?xml version="1.0" encoding="UTF-8"?>
<svg width="32px" height="32px" viewBox="0 0 32 32" version="1.1" xmlns="http://www.w3.org/2000/svg" xmlns:xlink="http://www.w3.org/1999/xlink">
    <!-- Generator: Sketch 43.2 (39069) - http://www.bohemiancoding.com/sketch -->
    <title>Metarubrick / Medicine / Hospital</title>
    <desc>Created with Sketch.</desc>
    <defs></defs>
    <g id="Page-1" stroke="none" stroke-width="1" fill="none" fill-rule="evenodd">
        <g id="New-meta-draft" transform="translate(-484.000000, -1384.000000)">
            <g id="Slice" transform="translate(84.000000, 84.000000)"></g>
            <g id="Icon" transform="translate(51.000000, 42.000000)" stroke-width="2" stroke="#DA0000">
                <g id="Medicine" transform="translate(27.000000, 1295.000000)">
                    <g id="Hospital" transform="translate(406.450012, 49.800049)">
                        <polyline id="Stroke-1" points="30.5547 10.2018 15.5547 0.2018 0.5547 10.2018"></polyline>
                        <path d="M4.5547,12.2018 L4.5547,24.2018 C4.5547,25.3058 5.4507,26.2018 6.5547,26.2018 L24.5547,26.2018 C25.6587,26.2018 26.5547,25.3058 26.5547,24.2018 L26.5547,12.2018" id="Stroke-3"></path>
                        <path d="M7.5547,17.2018 L10.5547,17.2018 L11.8057,20.5388 C11.9557,20.9378 12.3367,21.2018 12.7627,21.2018 L12.7747,21.2018 C13.2357,21.2018 13.6387,20.8928 13.7597,20.4488 L16.3497,10.9548 C16.4707,10.5108 16.8737,10.2018 17.3347,10.2018 C17.7667,10.2018 18.1517,10.4728 18.2967,10.8798 L20.5547,17.2018 L23.5547,17.2018" id="Stroke-5"></path>
                    </g>
                </g>
            </g>
        </g>
    </g>
</svg>