<?xml version="1.0" encoding="UTF-8"?>
<svg width="32px" height="32px" viewBox="0 0 32 32" version="1.1" xmlns="http://www.w3.org/2000/svg" xmlns:xlink="http://www.w3.org/1999/xlink">
    <!-- Generator: Sketch 43.2 (39069) - http://www.bohemiancoding.com/sketch -->
    <title>Metarubrick / Tourism / Hostels</title>
    <desc>Created with Sketch.</desc>
    <defs></defs>
    <g id="Page-1" stroke="none" stroke-width="1" fill="none" fill-rule="evenodd">
        <g id="New-meta-draft" transform="translate(-284.000000, -2184.000000)">
            <g id="Slice" transform="translate(84.000000, 84.000000)"></g>
            <g id="Icon" transform="translate(51.000000, 42.000000)" stroke="#FF8D00" stroke-width="2">
                <g id="Tourism" transform="translate(17.000000, 2096.000000)">
                    <g id="Hostels" transform="translate(219.000000, 48.000000)">
                        <path d="M0,28 L0,0" id="Stroke-1"></path>
                        <path d="M0,23 L22,23" id="Stroke-3"></path>
                        <path d="M26,28 L26,20 C26,18.896 25.104,18 24,18 L11,18 L11,23" id="Stroke-5"></path>
                        <path d="M8,19 L3,19" id="Stroke-7"></path>
                        <path d="M0,10 L22,10" id="Stroke-9"></path>
                        <path d="M26,15 L26,7 C26,5.896 25.104,5 24,5 L11,5 L11,10" id="Stroke-11"></path>
                        <path d="M8,5 L3,5" id="Stroke-13"></path>
                    </g>
                </g>
            </g>
        </g>
    </g>
</svg>