<?xml version="1.0" encoding="UTF-8"?>
<svg width="32px" height="32px" viewBox="0 0 32 32" version="1.1" xmlns="http://www.w3.org/2000/svg" xmlns:xlink="http://www.w3.org/1999/xlink">
    <!-- Generator: Sketch 43.2 (39069) - http://www.bohemiancoding.com/sketch -->
    <title>Metacategory / Hotels</title>
    <desc>Created with Sketch.</desc>
    <defs></defs>
    <g id="Page-1" stroke="none" stroke-width="1" fill="none" fill-rule="evenodd">
        <g id="New-meta-draft" transform="translate(-784.000000, -84.000000)">
            <g id="Slice" transform="translate(84.000000, 84.000000)"></g>
            <g id="Icon" transform="translate(51.000000, 42.000000)" stroke="#FF8D00" stroke-width="2">
                <g id="Meta" transform="translate(28.000000, 0.000000)">
                    <g id="Hotels" transform="translate(706.000000, 48.000000)">
                        <path d="M0,0 L0,21" id="Stroke-1"></path>
                        <polyline id="Stroke-3" points="0 16 30 16 30 21"></polyline>
                        <path d="M11,8.5 C11,10.433 9.433,12 7.5,12 C5.567,12 4,10.433 4,8.5 C4,6.567 5.567,5 7.5,5 C9.433,5 11,6.567 11,8.5 Z" id="Stroke-5"></path>
                        <path d="M15,13 L15,6.796 C15,5.804 15.804,5 16.795,5 C16.932,5 17.067,5.016 17.199,5.046 L27.675,7.463 C29.036,7.777 30,8.989 30,10.387 L30,13" id="Stroke-7"></path>
                    </g>
                </g>
            </g>
        </g>
    </g>
</svg>