<?xml version="1.0" encoding="UTF-8"?>
<svg width="32px" height="32px" viewBox="0 0 32 32" version="1.1" xmlns="http://www.w3.org/2000/svg" xmlns:xlink="http://www.w3.org/1999/xlink">
    <!-- Generator: Sketch 44.1 (41455) - http://www.bohemiancoding.com/sketch -->
    <title>Metarubrick / Services / housing</title>
    <desc>Created with Sketch.</desc>
    <defs></defs>
    <g id="Page-1" stroke="none" stroke-width="1" fill="none" fill-rule="evenodd">
        <g id="New-meta-draft" transform="translate(-684.000000, -1984.000000)">
            <g id="Slice" transform="translate(84.000000, 84.000000)"></g>
            <g id="Icon" transform="translate(51.000000, 42.000000)" stroke="#8345FE" stroke-width="2">
                <g id="Services" transform="translate(22.000000, 1894.000000)">
                    <g id="Housing" transform="translate(612.000000, 51.000000)">
                        <path d="M8,21 L8,16 C8,14.896 8.896,14 10,14 L11.809,14 C12.847,15.792 14.78,17 17,17 C19.22,17 21.153,15.792 22.191,14 L29,14" id="Stroke-1"></path>
                        <path d="M29,8 L22.191,8 C21.153,6.208 19.22,5 17,5 C14.78,5 12.847,6.208 11.809,8 L10,8 C5.582,8 2,11.582 2,16 L2,21" id="Stroke-3"></path>
                        <path d="M0,21 L10,21" id="Stroke-5"></path>
                        <path d="M17,5 L17,0" id="Stroke-7"></path>
                        <path d="M10,0 L24,0" id="Stroke-9"></path>
                        <path d="M5,24 L5,27" id="Stroke-11"></path>
                    </g>
                </g>
            </g>
        </g>
    </g>
</svg>