<?xml version="1.0"?>
<svg xmlns="http://www.w3.org/2000/svg" xmlns:xlink="http://www.w3.org/1999/xlink" xmlns:svgjs="http://svgjs.com/svgjs" version="1.1" width="512" height="512" x="0" y="0" viewBox="0 0 512.114 512.114" style="enable-background:new 0 0 512 512" xml:space="preserve"><g><path xmlns="http://www.w3.org/2000/svg" d="m437.077 75.037c-100.046-100.045-261.986-100.054-362.04 0-100.046 100.046-100.053 261.987 0 362.04 100.046 100.046 261.986 100.054 362.04 0 100.046-100.046 100.054-261.986 0-362.04zm-181.02 405.02c-123.51 0-224-100.49-224-224s100.49-224 224-224 224 100.49 224 224-100.49 224-224 224z" fill="#105226" data-original="#000000" style=""/><path xmlns="http://www.w3.org/2000/svg" d="m101.107 248.057h53.73c7.419 0 13.865-5.1 15.571-12.32 3.95-16.715 12.683-31.815 25.254-43.668 5.397-5.088 6.589-13.219 2.879-19.643l-26.862-46.519c-10.465-18.158-35.241-21.488-50.242-6.748-24.954 24.542-42.713 55.328-51.358 89.029-5.179 20.184 10.124 39.869 31.028 39.869zm42.769-106.082c.167-.06-.936-1.845 20.974 36.097-9.628 11.228-17.06 24.078-21.967 37.985h-41.776c-.1-.083 8.19-40.074 42.769-74.082z" fill="#105226" data-original="#000000" style=""/><path xmlns="http://www.w3.org/2000/svg" d="m299.732 347.705c-3.708-6.422-11.346-9.453-18.45-7.324-16.125 4.834-33.871 4.971-50.45 0-7.105-2.13-14.741.901-18.45 7.324l-26.881 46.542c-10.48 18.149-.978 41.285 19.297 46.883 33.516 9.274 69.269 9.201 102.517 0 20.282-5.6 29.776-28.735 19.297-46.885zm-.942 62.582c-27.527 7.618-57.384 7.771-85.465 0-.174-.058-1.72 2.746 20.796-36.237 14.41 2.669 29.472 2.669 43.882-.001 22.467 38.838 20.973 36.089 20.787 36.238z" fill="#105226" data-original="#000000" style=""/><path xmlns="http://www.w3.org/2000/svg" d="m316.451 192.069c12.572 11.854 21.305 26.954 25.255 43.668 1.707 7.22 8.152 12.32 15.571 12.32h53.73c20.913 0 36.206-19.692 31.028-39.866-8.645-33.702-26.404-64.489-51.364-89.037-15.003-14.743-39.783-11.385-50.229 6.741l-26.87 46.53c-3.71 6.425-2.518 14.556 2.879 19.644zm51.682-50.132c1.107.394 31.328 29.199 42.883 74.119-3.598 0-36.865.001-41.785.001-4.907-13.907-12.338-26.757-21.967-37.985z" fill="#105226" data-original="#000000" style=""/><path xmlns="http://www.w3.org/2000/svg" d="m411.007 264.057h-53.73c-7.419 0-13.865 5.1-15.571 12.32-3.95 16.714-12.683 31.814-25.255 43.668-5.397 5.088-6.589 13.219-2.879 19.643l26.863 46.517c10.453 18.139 35.227 21.504 50.242 6.749 24.955-24.543 42.714-55.33 51.358-89.029 5.179-20.18-10.121-39.868-31.028-39.868zm-42.769 106.083c-.166.059.915 1.808-20.974-36.097 9.626-11.226 17.056-24.072 21.964-37.976l41.778.034c-7.211 28.011-21.997 53.61-42.768 74.039z" fill="#105226" data-original="#000000" style=""/><path xmlns="http://www.w3.org/2000/svg" d="m195.663 320.045c-12.572-11.853-21.305-26.953-25.254-43.668-1.707-7.22-8.152-12.32-15.571-12.32h-53.73c-9.977 0-19.208 4.523-25.326 12.41-10.831 13.962-5.272 29.611-5.703 27.456 8.646 33.703 26.405 64.49 51.364 89.037 14.99 14.73 39.773 11.403 50.229-6.742l26.87-46.53c3.71-6.423 2.518-14.554-2.879-19.643zm-51.681 50.133c-1.171-.416-31.361-29.306-42.884-74.119.1-.029 4.727-.001 41.786-.001 4.907 13.906 12.34 26.758 21.967 37.985z" fill="#105226" data-original="#000000" style=""/><path xmlns="http://www.w3.org/2000/svg" d="m212.382 164.41c3.708 6.421 11.346 9.455 18.45 7.324 16.125-4.834 33.871-4.971 50.45 0 7.134 2.138 14.756-.929 18.45-7.324l26.882-46.542c10.498-18.183.938-41.295-19.289-46.88-33.383-9.238-69.139-9.242-102.526-.002-20.281 5.6-29.775 28.738-19.297 46.884.1.098-1.5-2.598 26.88 46.54zm.943-62.582c27.527-7.618 57.384-7.771 85.465 0 .175.058 1.723-2.751-20.795 36.237-14.078-2.608-29.049-2.746-43.874 0-22.546-39.035-20.934-36.129-20.796-36.237z" fill="#105226" data-original="#000000" style=""/><ellipse xmlns="http://www.w3.org/2000/svg" cx="216.06" cy="216.06" rx="16" ry="16" transform="matrix(.5 -.866 .866 .5 -79.083 295.143)" fill="#105226" data-original="#000000" style=""/><ellipse xmlns="http://www.w3.org/2000/svg" cx="296.057" cy="296.057" rx="16" ry="16" transform="matrix(.5 -.866 .866 .5 -108.364 404.422)" fill="#105226" data-original="#000000" style=""/><ellipse xmlns="http://www.w3.org/2000/svg" cx="296.06" cy="216.055" rx="16" ry="16" transform="matrix(.866 -.5 .5 .866 -68.363 176.975)" fill="#105226" data-original="#000000" style=""/><ellipse xmlns="http://www.w3.org/2000/svg" cx="216.06" cy="296.06" rx="16" ry="16" transform="matrix(.866 -.5 .5 .866 -119.083 147.694)" fill="#105226" data-original="#000000" style=""/><path xmlns="http://www.w3.org/2000/svg" d="m280.057 256.057c0 13.23-10.77 24-24 24s-24-10.77-24-24 10.77-24 24-24 24 10.77 24 24z" fill="#105226" data-original="#000000" style=""/></g></svg>
