<?xml version="1.0"?>
<svg xmlns="http://www.w3.org/2000/svg" xmlns:xlink="http://www.w3.org/1999/xlink" xmlns:svgjs="http://svgjs.com/svgjs" version="1.1" width="512" height="512" x="0" y="0" viewBox="0 0 64 64" style="enable-background:new 0 0 512 512" xml:space="preserve"><g><g xmlns="http://www.w3.org/2000/svg" id="Hydro_Power-2" data-name="Hydro Power"><path d="M63,59.76a7.2558,7.2558,0,0,0-4.4165,1.3974,5.6861,5.6861,0,0,1-6.6763,0,7.6711,7.6711,0,0,0-8.83.001,5.6821,5.6821,0,0,1-6.6723-.001,7.6687,7.6687,0,0,0-8.8286.001,5.6805,5.6805,0,0,1-6.67,0A7.2431,7.2431,0,0,0,16.4937,59.76a7.2455,7.2455,0,0,0-4.4131,1.3984A5.3387,5.3387,0,0,1,8.7471,62.24a5.3414,5.3414,0,0,1-3.3345-1.082A7.2428,7.2428,0,0,0,1,59.76a1,1,0,0,0,0,2,5.3418,5.3418,0,0,1,3.3345,1.082A7.2426,7.2426,0,0,0,8.7471,64.24a7.2423,7.2423,0,0,0,4.4121-1.3984,5.3414,5.3414,0,0,1,3.3345-1.082,5.3413,5.3413,0,0,1,3.3344,1.082A7.2428,7.2428,0,0,0,24.2407,64.24a7.246,7.246,0,0,0,4.4136-1.3984,5.6822,5.6822,0,0,1,6.6724.001,7.6687,7.6687,0,0,0,8.8286-.001,5.6844,5.6844,0,0,1,6.6738.001,7.6771,7.6771,0,0,0,8.8325,0A5.3434,5.3434,0,0,1,63,61.76a1,1,0,0,0,0-2Z" fill="#091c81" data-original="#000000" style=""/><path d="M63,10H58a1,1,0,0,0-1,1v5H7V11a1,1,0,0,0-1-1H1a1,1,0,0,0-1,1V47.76a1,1,0,0,0,1,1c3.4351,0,3.5764,2.48,7.75,2.48a7.2257,7.2257,0,0,0,4.4053-1.3955c.2874-.1842.5595-.3539.8447-.5054v.5377A4.2755,4.2755,0,0,1,10.7573,54.03a1,1,0,1,0,.4854,1.9394A6.2718,6.2718,0,0,0,16,49.877V33a4,4,0,0,1,8,0V49.877c0,.1043.0208.2037.0259.3069a.9083.9083,0,0,0-.0117.112.9337.9337,0,0,0,.03.1021A6.2556,6.2556,0,0,0,28.7573,55.97a1,1,0,1,0,.4854-1.9394,4.264,4.264,0,0,1-3.0756-3.0178,8.0149,8.0149,0,0,0,2.4965-1.1736,5.68,5.68,0,0,1,6.664.0019,7.9872,7.9872,0,0,0,2.5046,1.1746A4.264,4.264,0,0,1,34.7573,54.03a1,1,0,1,0,.4854,1.9394,6.2552,6.2552,0,0,0,4.7141-5.5812.9161.9161,0,0,0,.029-.0965.94.94,0,0,0-.0116-.1087c.005-.103.0258-.2022.0258-.3063V33a4,4,0,0,1,8,0V49.877A6.2718,6.2718,0,0,0,52.7573,55.97a1,1,0,1,0,.4854-1.9394A4.2755,4.2755,0,0,1,50,49.877v-.5312c.28.15.5482.3161.8311.497a7.6716,7.6716,0,0,0,8.8276.001A5.3433,5.3433,0,0,1,63,48.76a1,1,0,0,0,1-1V11A1,1,0,0,0,63,10Zm-4,2h3V46.8145a6.9436,6.9436,0,0,0-3,1.0771ZM2,12H5V47.8984a7.0011,7.0011,0,0,0-3-1.0839ZM20,27a6.0066,6.0066,0,0,0-6,6v4.6793a9,9,0,1,1,12,0V33A6.0066,6.0066,0,0,0,20,27Zm24,0a6.0066,6.0066,0,0,0-6,6v4.6793a9,9,0,1,1,12,0V33A6.0066,6.0066,0,0,0,44,27Zm7.9087,21.1582A9.0692,9.0692,0,0,0,50,47.1607V40.19a11,11,0,1,0-12,0v8.7818a6.9623,6.9623,0,0,1-1.5952-.8159,7.6648,7.6648,0,0,0-8.8179-.003A7.0372,7.0372,0,0,1,26,48.9678V40.19a11,11,0,1,0-12,0v6.9671a8.9707,8.9707,0,0,0-1.9238,1.0036A5.3193,5.3193,0,0,1,8.75,49.24,5.4091,5.4091,0,0,1,7,48.9821V18H57V48.98a5.8013,5.8013,0,0,1-5.0913-.8221Z" fill="#091c81" data-original="#000000" style=""/><path d="M26,9h3v4a1,1,0,0,0,1.6587.7529l8-7A1,1,0,0,0,38,5H35V1A1.0006,1.0006,0,0,0,33.3413.2471l-8,7A1,1,0,0,0,26,9Zm7-5.7959V6a1,1,0,0,0,1,1h1.3384L31,10.7959V8a1,1,0,0,0-1-1H28.6616Z" fill="#091c81" data-original="#000000" style=""/></g></g></svg>
