<?xml version="1.0"?>
<svg xmlns="http://www.w3.org/2000/svg" xmlns:xlink="http://www.w3.org/1999/xlink" xmlns:svgjs="http://svgjs.com/svgjs" version="1.1" width="512" height="512" x="0" y="0" viewBox="0 0 493.975 493.975" style="enable-background:new 0 0 512 512" xml:space="preserve"><g><g xmlns="http://www.w3.org/2000/svg"><g id="Ice_Cream"><path d="m163.676 59.158h-12.231c-6.558 0-11.874-5.316-11.874-11.874s5.316-11.874 11.874-11.874h12.231c6.558 0 11.874 5.316 11.874 11.874s-5.316 11.874-11.874 11.874z" fill="#9b11b7" data-original="#000000" style=""/><path d="m105.159 59.158h-12.254c-6.558 0-11.874-5.316-11.874-11.874s5.316-11.874 11.874-11.874h12.254c6.558 0 11.874 5.316 11.874 11.874s-5.316 11.874-11.874 11.874z" fill="#9b11b7" data-original="#000000" style=""/><path d="m128.29 94.544c-6.558 0-11.874-5.316-11.874-11.874v-12.255c0-6.558 5.316-11.874 11.874-11.874s11.874 5.316 11.874 11.874v12.255c.001 6.558-5.316 11.874-11.874 11.874z" fill="#9b11b7" data-original="#000000" style=""/><path d="m128.29 36.003c-6.558 0-11.874-5.316-11.874-11.874v-12.255c0-6.558 5.316-11.874 11.874-11.874s11.874 5.316 11.874 11.874v12.254c.001 6.559-5.316 11.875-11.874 11.875z" fill="#9b11b7" data-original="#000000" style=""/><path d="m185.596 464.171c-1.42.002-2.829-.256-4.156-.76l-79.345-29.781c-5.484-2.056-8.65-7.803-7.457-13.537l32.536-156.742c1.312-6.427 7.585-10.574 14.012-9.262s10.574 7.585 9.262 14.012l-30.47 146.863 69.798 26.124c6.138 2.308 9.243 9.156 6.935 15.294-1.741 4.629-6.169 7.695-11.114 7.695v.094z" fill="#9b11b7" data-original="#000000" style=""/><path d="m264.941 252.949c-1.426.001-2.84-.249-4.18-.736l-68.135-25.601c-6.139-2.307-9.246-9.153-6.939-15.292s9.153-9.246 15.292-6.939c.002.001.004.002.006.002l68.112 25.577c6.138 2.308 9.243 9.156 6.935 15.294-1.738 4.621-6.154 7.685-11.091 7.695z" fill="#9b11b7" data-original="#000000" style=""/><path d="m241.192 316.144c-1.427-.01-2.841-.267-4.18-.76l-125.418-47.023c-6.143-2.297-9.26-9.139-6.963-15.281.002-.004.003-.009.005-.013l23.749-63.172c2.267-6.154 9.093-9.305 15.247-7.038.008.003.016.006.024.009l14.249 5.367c6.145 2.302 9.26 9.149 6.958 15.294s-9.149 9.26-15.294 6.958l-3.182-1.187-15.389 40.943 114.327 42.914c6.152 2.273 9.296 9.102 7.023 15.254-1.731 4.685-6.208 7.786-11.203 7.759z" fill="#9b11b7" data-original="#000000" style=""/><path d="m264.917 493.975c-1.428 0-2.844-.257-4.18-.76l-79.297-29.805c-6.199-2.139-9.491-8.899-7.351-15.098 2.139-6.199 8.899-9.491 15.098-7.351.198.068.395.142.589.221l69.798 26.124 73.621-130.618c3.125-5.766 10.332-7.907 16.098-4.782s7.907 10.332 4.782 16.098c-.063.116-.128.231-.195.345l-78.585 139.596c-2.113 3.738-6.082 6.045-10.378 6.03z" fill="#9b11b7" data-original="#000000" style=""/><path d="m366.633 363.357c-1.42-.003-2.827-.26-4.156-.76l-125.465-47.213c-6.145-2.308-9.255-9.161-6.947-15.306s9.161-9.255 15.306-6.947l114.327 42.938 15.365-40.919-114.303-42.938c-6.145-2.302-9.26-9.149-6.958-15.294s9.149-9.26 15.294-6.958l125.441 47.118c6.143 2.297 9.26 9.139 6.963 15.281-.002.004-.003.009-.005.013l-23.749 63.172c-1.108 2.955-3.347 5.348-6.222 6.65-1.53.724-3.196 1.121-4.891 1.163z" fill="#9b11b7" data-original="#000000" style=""/><path d="m153.796 211.198h-.594c-6.533-.32-11.576-5.863-11.281-12.397 1.092-23.583 12.896-64.122 50.205-66.117 21.354 1.273 42.083 7.694 60.417 18.714 22.918 10.948 46.595 22.253 63.267 16.078 6.145-2.295 12.987.825 15.282 6.97s-.825 12.987-6.97 15.282c-26.124 9.761-54.432-3.824-81.815-16.909-14.928-8.895-31.583-14.498-48.851-16.434-25.364 1.425-27.786 43.104-27.81 43.532-.315 6.316-5.526 11.277-11.85 11.281z" fill="#9b11b7" data-original="#000000" style=""/><path d="m377.867 193.292c-6.558.079-11.938-5.172-12.017-11.73-.046-3.788 1.719-7.371 4.75-9.644 14.289-13.036 19.461-33.32 13.157-51.606-3.723-15-11.061-28.861-21.374-40.373-2.195 9.389-7.159 17.903-14.249 24.438-12.225 11.472-29.954 14.9-45.574 8.811-46.453-17.479-74.239-11.661-84.76-.404-6.651 7.775-7.723 18.882-2.684 27.786 2.708 5.974.061 13.013-5.913 15.722-5.974 2.708-13.013.061-15.722-5.913-9.164-17.628-6.388-39.097 6.958-53.815 20.733-22.158 61.011-24.176 110.456-5.605 7.256 2.861 15.512 1.269 21.184-4.085 6.829-6.419 9.473-16.131 6.84-25.126-1.762-6.317 1.93-12.866 8.247-14.628 1.698-.474 3.481-.563 5.218-.262 24.604 4.299 46.999 37.998 54.409 67.945 9.119 27.416.515 57.62-21.683 76.115-2.088 1.565-4.634 2.4-7.243 2.374z" fill="#9b11b7" data-original="#000000" style=""/><path d="m367.298 291.422c-6.558.028-11.897-5.266-11.925-11.824-.024-5.581 3.842-10.425 9.289-11.64 13.191-3.179 22.76-14.599 23.583-28.142 3.284-17.755-2.863-35.944-16.244-48.068-5.712-3.233-7.722-10.485-4.489-16.197s10.485-7.722 16.197-4.489c22.212 16.842 33.05 44.754 28.024 72.173-2.022 23.358-18.927 42.722-41.798 47.878-.864.205-1.749.309-2.637.309z" fill="#9b11b7" data-original="#000000" style=""/><path d="m218.607 439.804c-4.663.008-8.899-2.714-10.829-6.958l-45.004-99.151c-2.926-5.869-.541-12.999 5.328-15.925s12.999-.541 15.925 5.328c.129.259.248.522.358.789l45.004 99.151c2.697 5.962.063 12.982-5.89 15.698-1.534.706-3.203 1.071-4.892 1.068z" fill="#9b11b7" data-original="#000000" style=""/><path d="m259.621 398.98c-4.663.008-8.899-2.714-10.829-6.958l-20.543-45.289c-2.926-5.869-.541-12.999 5.328-15.925s12.999-.541 15.925 5.328c.129.259.248.522.358.789l20.566 45.265c2.709 5.972.064 13.01-5.908 15.719-.002.001-.004.002-.005.002-1.533.709-3.203 1.074-4.892 1.069z" fill="#9b11b7" data-original="#000000" style=""/></g></g></g></svg>
