<?xml version="1.0"?>
<svg xmlns="http://www.w3.org/2000/svg" xmlns:xlink="http://www.w3.org/1999/xlink" xmlns:svgjs="http://svgjs.com/svgjs" version="1.1" width="512" height="512" x="0" y="0" viewBox="0 0 512 512" style="enable-background:new 0 0 512 512" xml:space="preserve"><g><g xmlns="http://www.w3.org/2000/svg"><path d="m181 437c0 41.355 33.645 75 75 75s75-33.645 75-75v-62c0-34.042 14.306-67.296 39.25-91.236 19.021-18.256 33.542-40.997 41.991-65.763 9.001-26.385 11.1-54.019 6.236-82.133-6.39-36.939-25.741-70.982-54.489-95.857-29.819-25.801-68.17-40.01-107.988-40.011-39.673 0-77.945 14.154-107.767 39.855-28.876 24.886-48.306 58.984-54.711 96.013-4.863 28.115-2.765 55.749 6.236 82.133 8.449 24.766 22.969 47.506 41.991 65.763 24.944 23.939 39.251 57.186 39.251 91.214zm-18.477-174.881c-32.917-31.591-47.292-75.745-39.44-121.138 11.124-64.306 67.023-110.98 132.917-110.981 65.894 0 121.793 46.675 132.917 110.981 7.852 45.394-6.523 89.547-39.44 121.138-27.139 26.047-44.082 61.077-47.732 97.878l-91.488-.017c-3.652-36.789-20.595-71.814-47.734-97.861zm138.477 127.878v47.003c0 24.813-20.187 45-45 45s-45-20.187-45-45v-47.019z" fill="#d91e6d" data-original="#000000" style=""/><path d="m241 135c0-8.271 6.729-15 15-15s15 6.729 15 15c0 4.821-2.232 9.229-6.125 12.095-14.95 11.007-23.875 28.651-23.875 47.197v15.708h30v-15.708c0-9.049 4.36-17.662 11.662-23.039 11.483-8.454 18.338-22.007 18.338-36.253 0-24.813-20.187-45-45-45s-45 20.187-45 45v15h30z" fill="#d91e6d" data-original="#000000" style=""/><path d="m33.487 46.258h30v62.459h-30z" transform="matrix(.707 -.707 .707 .707 -40.59 56.981)" fill="#d91e6d" data-original="#000000" style=""/><path d="m0 150h61.058v30h-61.058z" fill="#d91e6d" data-original="#000000" style=""/><path d="m17.606 237.187h62.414v30h-62.414z" transform="matrix(.707 -.707 .707 .707 -164.026 108.38)" fill="#d91e6d" data-original="#000000" style=""/><path d="m432.284 62.487h62.458v30h-62.458z" transform="matrix(.707 -.707 .707 .707 80.965 350.444)" fill="#d91e6d" data-original="#000000" style=""/><path d="m450.941 150h61.059v30h-61.059z" fill="#d91e6d" data-original="#000000" style=""/><path d="m448.187 220.98h30v62.414h-30z" transform="matrix(.707 -.707 .707 .707 -42.655 401.398)" fill="#d91e6d" data-original="#000000" style=""/><path d="m241 240h30v30h-30z" fill="#d91e6d" data-original="#000000" style=""/></g></g></svg>
