<?xml version="1.0"?>
<svg xmlns="http://www.w3.org/2000/svg" xmlns:xlink="http://www.w3.org/1999/xlink" xmlns:svgjs="http://svgjs.com/svgjs" version="1.1" width="512" height="512" x="0" y="0" viewBox="0 0 512.019 512.019" style="enable-background:new 0 0 512 512" xml:space="preserve"><g><g xmlns="http://www.w3.org/2000/svg" id="XMLID_2314_"><g id="XMLID_1055_"><path id="XMLID_1056_" d="m341.34 55.369c2.64 0 5.22-1.07 7.08-2.93 1.859-1.86 2.92-4.44 2.92-7.07 0-2.64-1.061-5.21-2.92-7.07-1.86-1.86-4.44-2.93-7.08-2.93-2.63 0-5.21 1.07-7.07 2.93s-2.93 4.43-2.93 7.07c0 2.63 1.069 5.21 2.93 7.07s4.44 2.93 7.07 2.93z" fill="#08541f" data-original="#000000" style=""/><path id="XMLID_1059_" d="m256.009 220.7c5.522 0 10-4.477 10-10v-9.501c18.561-4.579 30.462-20.375 33.081-35.951 3.393-20.18-7.155-37.723-26.872-44.692-2.043-.722-4.125-1.473-6.209-2.248v-38.77c5.199 1.739 8.609 4.164 8.771 4.282 4.398 3.289 10.635 2.415 13.958-1.971 3.335-4.402 2.471-10.675-1.932-14.01-.527-.399-8.712-6.47-20.798-8.984v-8.155c0-5.523-4.478-10-10-10s-10 4.477-10 10v8.088c-1.296.272-2.605.593-3.93.991-13.032 3.916-22.771 15.049-25.416 29.056-2.421 12.821 1.709 25.204 10.778 32.317 4.71 3.694 10.558 7.069 18.567 10.629v50.508c-6.631-.546-10.941-2.239-18.206-6.993-4.623-3.023-10.819-1.727-13.843 2.894-3.023 4.622-1.729 10.819 2.894 13.843 11.381 7.445 19.176 9.709 29.155 10.303v8.364c.002 5.523 4.48 10 10.002 10zm23.358-58.769c-1.177 7.002-5.708 14.403-13.357 18.132v-40.477c14.928 5.548 14.006 18.48 13.357 22.345zm-39.582-56.517c-3.121-2.447-4.482-7.499-3.469-12.869.893-4.727 3.907-10.355 9.693-12.923v29.855c-2.326-1.307-4.436-2.66-6.224-4.063z" fill="#08541f" data-original="#000000" style=""/><path id="XMLID_1063_" d="m384.081 444.519c-9.061 0-17.851 2.098-25.822 6.12-10.468-9.584-22.055-17.545-34.457-23.758 16.831-5.605 32.425-15.049 45.329-27.953 29.188-29.188 40.696-72.119 30.035-112.043-.923-3.458-3.624-6.158-7.081-7.081-39.928-10.662-82.857.848-112.044 30.034-5.264 5.264-9.944 10.981-14.031 17.041v-65.945c30.057-2.287 59.469-14.893 82.406-37.829 18.917-18.917 31.427-42.784 36.177-69.018 4.638-25.621 1.623-51.738-8.72-75.53-2.202-5.065-8.093-7.385-13.157-5.184-5.065 2.202-7.387 8.093-5.185 13.158 18.255 41.991 9.125 90.049-23.258 122.432-21.58 21.58-49.917 32.368-78.264 32.366-28.34-.002-56.689-10.791-78.264-32.366-43.155-43.154-43.155-113.372 0-156.526 32.383-32.383 80.442-41.512 122.434-23.257 5.067 2.203 10.956-.118 13.158-5.184 2.202-5.065-.119-10.956-5.184-13.158-23.793-10.343-49.912-13.359-75.531-8.72-26.235 4.75-50.102 17.259-69.02 36.177-50.952 50.953-50.952 133.859 0 184.812 22.937 22.936 52.349 35.542 82.406 37.828v65.945c-4.088-6.06-8.767-11.777-14.031-17.041-29.187-29.188-72.118-40.696-112.044-30.034-3.457.923-6.158 3.623-7.081 7.081-10.661 39.924.848 82.855 30.035 112.043 12.905 12.905 28.498 22.348 45.328 27.953-12.402 6.214-23.988 14.174-34.456 23.758-7.972-4.022-16.762-6.12-25.822-6.12-31.706 0-57.5 25.794-57.5 57.5 0 5.522 4.478 10 10 10h351.143c5.522 0 10-4.478 10-10 .001-31.707-25.793-57.501-57.499-57.501zm-89.898-120.538c22.763-22.766 55.632-32.533 87.004-26.198 6.336 31.371-3.435 64.239-26.199 87.003-19.758 19.76-47.127 29.72-74.527 27.865l43.152-43.152c3.905-3.905 3.905-10.237 0-14.143-3.906-3.904-10.236-3.904-14.143 0l-43.152 43.152c-1.855-27.398 8.107-54.77 27.865-74.527zm-163.351-26.198c31.37-6.333 64.243 3.436 87.004 26.198 19.759 19.758 29.72 47.129 27.865 74.527l-43.152-43.152c-3.906-3.904-10.236-3.904-14.143 0-3.905 3.905-3.905 10.237 0 14.143l43.155 43.155c-2.164.147-4.328.225-6.489.225-25.185-.002-49.845-9.896-68.041-28.093-22.765-22.764-32.535-55.632-26.199-87.003zm-39.04 194.236c4.388-15.839 18.931-27.5 36.146-27.5 7.745 0 15.185 2.351 21.515 6.797 3.997 2.806 9.435 2.316 12.865-1.159 24.943-25.273 58.217-39.192 93.691-39.192s68.748 13.919 93.691 39.192c3.432 3.477 8.869 3.966 12.865 1.159 6.33-4.446 13.77-6.797 21.515-6.797 17.216 0 31.759 11.661 36.146 27.5z" fill="#08541f" data-original="#000000" style=""/></g></g></g></svg>
