<?xml version="1.0"?>
<svg xmlns="http://www.w3.org/2000/svg" xmlns:xlink="http://www.w3.org/1999/xlink" xmlns:svgjs="http://svgjs.com/svgjs" version="1.1" width="512" height="512" x="0" y="0" viewBox="0 0 511 512" style="enable-background:new 0 0 512 512" xml:space="preserve"><g><path xmlns="http://www.w3.org/2000/svg" d="m203.671875 96c0-4.417969-3.582031-8-8-8h-112c-4.417969 0-8 3.582031-8 8v82.335938c.636719 22.472656 14.78125 42.332031 35.808594 50.28125 18.011719 7.679687 38.375 7.679687 56.382812 0 21.03125-7.949219 35.175781-27.808594 35.808594-50.28125zm-16 82.335938c-.710937 16.046874-11.015625 30.085937-26.113281 35.574218-13.980469 5.960938-29.789063 5.960938-43.773438 0-15.097656-5.488281-25.402344-19.527344-26.113281-35.574218v-42.335938h64c4.417969 0 8-3.582031 8-8s-3.582031-8-8-8h-64v-16h96zm0 0" fill="#0d3472" data-original="#000000" style=""/><path xmlns="http://www.w3.org/2000/svg" d="m171.671875 456h-42.046875l-22.289062-74.296875c-1.265626-4.230469-5.726563-6.636719-9.960938-5.367187-4.230469 1.269531-6.632812 5.726562-5.367188 9.960937l24 80c1.015626 3.382813 4.128907 5.703125 7.664063 5.703125h48c4.417969 0 8-3.582031 8-8s-3.582031-8-8-8zm0 0" fill="#0d3472" data-original="#000000" style=""/><path xmlns="http://www.w3.org/2000/svg" d="m211.671875 456h-8c-4.417969 0-8 3.582031-8 8s3.582031 8 8 8h8c4.417969 0 8-3.582031 8-8s-3.582031-8-8-8zm0 0" fill="#0d3472" data-original="#000000" style=""/><path xmlns="http://www.w3.org/2000/svg" d="m499.183594 282.246094-65.910156-85.671875c-6.730469-8.65625-19.144532-10.355469-27.953126-3.820313l-104 78.007813c-3.238281 2.425781-4.152343 6.890625-2.128906 10.398437 1.144532 1.980469 3.082032 3.378906 5.324219 3.835938 2.242187.460937 4.574219-.0625 6.40625-1.4375l84.199219-63.152344 43.4375 56.472656c2.695312 3.503906 7.71875 4.15625 11.222656 1.460938 3.5-2.695313 4.15625-7.71875 1.460938-11.21875l-43.320313-56.3125 7.007813-5.25c1.792968-1.328125 4.320312-.972656 5.679687.800781l65.894531 85.640625c1.292969 1.691406 1.070313 4.09375-.511718 5.519531l-6.726563 6.03125-8.160156-10.613281c-2.695313-3.503906-7.71875-4.15625-11.222657-1.460938-3.5 2.695313-4.152343 7.71875-1.457031 11.21875l8.894531 11.570313-191.648437 171.8125v-470.078125c0-4.417969-3.582031-8-8-8h-40c0-4.417969-3.582031-8-8-8h-24c-4.417969 0-8 3.582031-8 8h-32c0-4.417969-3.582031-8-8-8h-24c-4.417969 0-8 3.582031-8 8h-40c-4.417969 0-8 3.582031-8 8v29.785156l-57.503906 95.816406c-9.664063 16.089844-12.21875 35.472657-7.054688 53.519532l88.871094 311.078125c.980469 3.433593 4.117187 5.800781 7.6875 5.800781h168c1.015625-.007812 2.023437-.210938 2.960937-.601562.378907-.1875.742188-.410157 1.085938-.65625.453125-.222657.886719-.492188 1.289062-.796876l223.664063-200.511718c7.78125-7.03125 8.875-18.851563 2.511719-27.1875zm-295.511719-266.246094h8v32h-8zm-48 8h32v16h-32zm-24-8h8v32h-8zm-48 8h32v16h-32zm176 472h-153.96875l-87.207031-305.246094c-3.917969-13.789062-1.96875-28.585937 5.382812-40.890625l56.320313-93.863281h35.472656c0 4.417969 3.582031 8 8 8h24c4.417969 0 8-3.582031 8-8h32c0 4.417969 3.582031 8 8 8h24c4.417969 0 8-3.582031 8-8h32zm0-456h-32v-16h32zm0 0" fill="#0d3472" data-original="#000000" style=""/></g></svg>
