<?xml version="1.0"?>
<svg xmlns="http://www.w3.org/2000/svg" xmlns:xlink="http://www.w3.org/1999/xlink" xmlns:svgjs="http://svgjs.com/svgjs" version="1.1" width="512" height="512" x="0" y="0" viewBox="0 0 512 512" style="enable-background:new 0 0 512 512" xml:space="preserve" class=""><g><g xmlns="http://www.w3.org/2000/svg" id="Out_line" data-name="Out line"><path d="M496,171.64648A151.00718,151.00718,0,0,0,451.48047,64.166L447.834,60.51953A151.00718,151.00718,0,0,0,340.35352,16,36.41132,36.41132,0,0,0,304.417,46.8457h-.001L289.08228,152H264a23.98682,23.98682,0,0,0-14.64307,42.99561L228.35254,216H200a23.98682,23.98682,0,0,0-14.64307,42.99561L164.35254,280H136a23.98682,23.98682,0,0,0-14.64307,42.99561L100.35254,344H72a23.98835,23.98835,0,0,0-14.54272,43.07471,8.01165,8.01165,0,0,0-.84595,1.5249L48.55591,408H48a23.98256,23.98256,0,0,0-16.59766,41.31055l-14.791,35.62109a8.00041,8.00041,0,0,0,10.45605,10.457L121.92822,456H152a23.98682,23.98682,0,0,0,14.64307-42.99561L187.64746,392H216a23.98682,23.98682,0,0,0,14.64307-42.99561L251.64746,328H280a23.98682,23.98682,0,0,0,14.64307-42.99561L315.64746,264H344a23.98342,23.98342,0,0,0,16.72607-41.188L465.1543,207.583h0A36.41151,36.41151,0,0,0,496,171.64648ZM264,168h28.68652l16,16H264a8,8,0,0,1,0-16Zm2.98145,32H328a8.00066,8.00066,0,0,0,5.65723-13.65723l-29.16187-29.16186,7.96411-54.61524A151.43286,151.43286,0,0,0,348.51953,159.834l3.64649,3.64649A151.43087,151.43087,0,0,0,409.43335,199.54L350.8457,208.084a7.98663,7.98663,0,0,0-5.69922,3.78907L341.019,216H250.98145ZM38.81348,473.18652l7.17431-17.27734C46.65186,455.96484,47.32178,456,48,456H80.20459ZM152,440H48a8,8,0,0,1,0-16H152a8,8,0,0,1,0,16Zm-2.98145-32H65.88037l4.89893-11.79883L74.981,392h90.03759ZM216,376H72a8,8,0,0,1,0-16H216a8,8,0,0,1,0,16Zm-2.98145-32h-90.0371l16-16h90.0371ZM280,312H136a8,8,0,0,1,0-16H280a8,8,0,0,1,0,16Zm-2.98145-32h-90.0371l16-16h90.0371ZM344,248H200a8,8,0,0,1,0-16H344a8,8,0,0,1,0,16Zm115.64648-56a135.10575,135.10575,0,0,1-96.166-39.834l-3.64649-3.64649A135.10575,135.10575,0,0,1,320,52.35352,20.377,20.377,0,0,1,340.35352,32a135.10575,135.10575,0,0,1,96.166,39.834l3.64649,3.64649A135.10575,135.10575,0,0,1,480,171.64648,20.377,20.377,0,0,1,459.64648,192Z" fill="#9b115f" data-original="#000000" style=""/><path d="M431.58984,90.53027a8.00047,8.00047,0,0,0-10.12011-10.12011l-20.28809,6.76269L356.4375,57.34375A7.99964,7.99964,0,0,0,345.34375,68.4375l29.8291,44.74414-6.76269,20.28809a8.00047,8.00047,0,0,0,10.12011,10.12011l20.28809-6.76269,44.74414,29.8291a7.99964,7.99964,0,0,0,11.09375-11.09375l-29.8291-44.74414ZM404.4375,121.34375a8.00266,8.00266,0,0,0-6.96777-.93359l-8.82032,2.94043,2.94043-8.82032a8.00257,8.00257,0,0,0-.93359-6.96777l-9.81152-14.71777,14.71777,9.81152a8.00941,8.00941,0,0,0,6.96777.93359l8.82032-2.94043-2.94043,8.82032a8.00257,8.00257,0,0,0,.93359,6.96777l9.81152,14.71777Z" fill="#9b115f" data-original="#000000" style=""/></g></g></svg>
