<?xml version="1.0"?>
<svg xmlns="http://www.w3.org/2000/svg" xmlns:xlink="http://www.w3.org/1999/xlink" xmlns:svgjs="http://svgjs.com/svgjs" version="1.1" width="512" height="512" x="0" y="0" viewBox="0 0 512 512" style="enable-background:new 0 0 512 512" xml:space="preserve" class=""><g><g xmlns="http://www.w3.org/2000/svg"><g id="XMLID_1_"><path d="m477.93 84.18v78.77c0 5.41-2.21 10.34-5.78 13.91s-8.49 5.79-13.91 5.79c-5.22 0-10.14-2.07-13.88-5.81-6.21-6.11-5.71-13.59-5.81-13.89h-14.77v128c0 13.59-11.03 24.62-24.62 24.62-13.58 0-24.61-11.03-24.61-24.62v-128h-14.77c0 5.22-2.07 10.15-5.81 13.89-6.11 6.2-13.59 5.71-13.88 5.81-10.83 0-19.7-8.87-19.7-19.7v-78.77c0-10.83 8.87-19.69 19.7-19.69s19.69 8.86 19.69 19.69h78.77c0-10.83 8.86-19.69 19.69-19.69s19.69 8.86 19.69 19.69zm-9.84 78.77v-78.77c0-5.41-4.43-9.84-9.85-9.84s-9.85 4.43-9.85 9.84v78.77c0 5.42 4.43 9.85 9.85 9.85 2.71 0 5.17-1.11 6.96-2.89 1.78-1.79 2.89-4.25 2.89-6.96zm-29.54-9.84v-59.08h-78.77v59.08zm-24.62 137.84v-128h-29.54v128c0 8.18 6.6 14.77 14.77 14.77 8.18 0 14.77-6.59 14.77-14.77zm-64-128v-78.77c0-5.41-4.43-9.84-9.84-9.84-5.42 0-9.85 4.43-9.85 9.84v78.77c0 5.42 4.43 9.85 9.85 9.85 5.41 0 9.84-4.43 9.84-9.85z" fill="#db197d" data-original="#000000" style="" class=""/><path d="m465.62 428.8c4.08 0 7.39 3.31 7.39 7.38 0 4.08-3.31 7.39-7.39 7.39-4.07 0-7.38-3.31-7.38-7.39 0-4.07 3.31-7.38 7.38-7.38z" fill="#db197d" data-original="#000000" style="" class=""/><path d="m448.39 335.26c16.25 0 29.54 13.29 29.54 29.54s-13.29 29.54-29.54 29.54c-16.24 0-29.53-13.29-29.53-29.54s13.29-29.54 29.53-29.54zm19.7 29.54c0-10.83-8.87-19.69-19.7-19.69s-19.69 8.86-19.69 19.69 8.86 19.69 19.69 19.69 19.7-8.86 19.7-19.69z" fill="#db197d" data-original="#000000" style="" class=""/><path d="m450.86 231.88c4.07 0 7.38 3.3 7.38 7.38s-3.31 7.39-7.38 7.39c-4.08 0-7.39-3.31-7.39-7.39s3.31-7.38 7.39-7.38z" fill="#db197d" data-original="#000000" style="" class=""/><path d="m403.89 442.49v19.69c0 2.76-2.17 4.92-4.92 4.92-16.35 0-345.7 0-360.08 0-2.75 0-4.92-2.16-4.92-4.92v-19.69c0-29.54 17.23-79.56 48.25-92.85l52.87-22.65c9.35-3.94 17.23-8.86 25.01-15.06 11.42-8.96 15.75-15.86 17.72-18.22.94-1.18 2.31-1.77 3.69-1.77.8 0 1.6.19 2.32.59v-21.86c-21.17-12.21-35.55-35.15-35.55-61.34v-70.6c-10.63-9.55-15.95-20.58-18.7-29.34-4.34-13.88-3.16-25.21-3.06-25.7.3-2.46 2.46-4.33 4.93-4.33 116.67 0 109.49-.1 110.37.1.69.1 17.04 3.25 31.9 17.03 13.69 12.61 28.66 36.83 22.35 80.64-.39 2.86-3.25 4.83-6.1 4.04v28.16c0 26.88-14.97 50.21-37.02 62.23v21.95l.1-.09c2.06-2.07 5.71-1.88 7.48.59 5.22 7.18 9.85 11.61 16.05 16.83 7.97 6.7 16.84 12.11 26.39 16.25l52.87 22.65c31.02 13.29 48.25 63.31 48.05 92.75zm-9.65 14.86v-14.77c0-22.15-9.75-51-24.22-69.02l-115.99 83.79zm-138.93-13.19 107.91-77.88c-3.64-3.25-7.38-5.81-11.32-7.58l-36.04-15.46zm-13.78 3.84 65.18-108.6c-4.93-2.37-16.15-5.91-29.93-15.95l-24.32 52.28c-1.58 3.45-6.31 3.94-8.47.89l-17.04-23.24zm46.08-284.06c1.47-26-5.42-46.28-20.48-60.26-11.62-10.83-24.23-14.08-26.59-14.57h-104.27c.1 10.73 3.55 38.1 34.66 52.77 1.67.59 16.84 5.91 36.43 5.91 19 0 35.74-4.92 49.92-14.57 2.17-1.48 5.02-.99 6.6.98zm-7.49 45.29v-38.89l-21.26-26.49c-14.97 9.16-32.3 13.79-51.6 13.79-22.55 0-39.38-6.4-40.07-6.7-.79-.29-5.02-2.36-8.96-4.82v63.21c0 44.31 46.08 73.94 86.45 55.24.69-.59 1.47-.99 2.46-1.19 19.59-10.14 32.98-30.62 32.98-54.15zm-33.08 154.88 21.76-46.87c-4.73-4.13-8.76-7.87-12.8-12.9-5.91 5.91-24.62 24.52-30.42 30.43zm-3.94-60.85v-27.27c-15.95 5.71-33.38 5.51-49.23-.59v26.68l25.21 25.21zm-10.04 154.09-13.88-90.68-13.99 90.68zm-41.95-93.34 21.47-29.24c-.1-.1-12.21-12.21-30.43-30.43-4.13 5.12-8.27 9.06-12.8 12.9zm5.52 83.99 14.47-94.62-17.03 23.24c-.99 1.37-2.76 2.16-4.43 1.96-1.68-.19-3.25-1.28-3.94-2.85l-24.32-52.28c-13.88 10.04-25.01 13.58-29.93 15.95zm-152.72 9.35h140.21l-115.98-83.79c-14.48 18.12-24.23 46.97-24.23 69.02zm138.93-13.09-60.55-100.92-36.04 15.45c-3.94 1.68-7.68 4.24-11.32 7.49z" fill="#db197d" data-original="#000000" style="" class=""/><path d="m322.86 241.72c4.07 0 7.38 3.31 7.38 7.39s-3.31 7.38-7.38 7.38c-4.08 0-7.39-3.3-7.39-7.38s3.31-7.39 7.39-7.39z" fill="#db197d" data-original="#000000" style="" class=""/><path d="m288.39 49.72c4.08 0 7.39 3.31 7.39 7.39s-3.31 7.38-7.39 7.38c-4.07 0-7.38-3.3-7.38-7.38s3.31-7.39 7.38-7.39z" fill="#db197d" data-original="#000000" style="" class=""/><path d="m234.04 222.42c1.97 1.97 1.97 5.03 0 7-9.65 9.64-25.2 9.64-34.85 0-1.97-1.97-1.97-5.03 0-7 1.97-1.96 5.02-1.96 6.99 0 5.71 5.72 15.16 5.72 20.87 0 1.97-1.96 5.02-1.96 6.99 0z" fill="#db197d" data-original="#000000" style="" class=""/><path d="m125.93 246.65c4.08 0 7.39 3.3 7.39 7.38s-3.31 7.39-7.39 7.39-7.38-3.31-7.38-7.39 3.3-7.38 7.38-7.38z" fill="#db197d" data-original="#000000" style="" class=""/><path d="m84.09 118.65c21.76 0 39.38 17.62 39.38 39.38s-17.62 39.39-39.38 39.39-39.39-17.63-39.39-39.39 17.63-39.38 39.39-39.38zm29.53 39.38c0-16.25-13.29-29.54-29.53-29.54-16.35 0-29.54 13.29-29.54 29.54s13.29 29.54 29.54 29.54c16.24 0 29.53-13.29 29.53-29.54z" fill="#db197d" data-original="#000000" style="" class=""/><path d="m86.55 74.34c4.08 0 7.38 3.3 7.38 7.38s-3.3 7.39-7.38 7.39-7.39-3.31-7.39-7.39 3.31-7.38 7.39-7.38z" fill="#db197d" data-original="#000000" style="" class=""/><path d="m71.78 305.72c4.08 0 7.38 3.31 7.38 7.39s-3.3 7.38-7.38 7.38-7.39-3.3-7.39-7.38 3.31-7.39 7.39-7.39z" fill="#db197d" data-original="#000000" style="" class=""/></g></g></g></svg>
