<?xml version="1.0" encoding="UTF-8"?>
<svg width="32px" height="32px" viewBox="0 0 32 32" version="1.1" xmlns="http://www.w3.org/2000/svg" xmlns:xlink="http://www.w3.org/1999/xlink">
    <!-- Generator: Sketch 43.2 (39069) - http://www.bohemiancoding.com/sketch -->
    <title>Metarubrick / Entertainment / Karaoke</title>
    <desc>Created with Sketch.</desc>
    <defs></defs>
    <g id="Page-1" stroke="none" stroke-width="1" fill="none" fill-rule="evenodd">
        <g id="New-meta-draft" transform="translate(-484.000000, -1184.000000)">
            <g id="Slice" transform="translate(84.000000, 84.000000)"></g>
            <g id="Icon" transform="translate(51.000000, 42.000000)" stroke="#FF8D00" stroke-width="2">
                <g id="Entertainment-" transform="translate(22.000000, 1093.000000)">
                    <g id="karaoke" transform="translate(411.290009, 50.000000)">
                        <path d="M0.7071,30 L2.7071,28" id="Stroke-1"></path>
                        <path d="M7.0938,18.3867 L12.3738,23.6667" id="Stroke-3"></path>
                        <path d="M14.7071,9 L3.8251,22.603 C3.1881,23.398 3.2521,24.545 3.9731,25.266 L5.4381,26.731 C6.1601,27.453 7.3101,27.516 8.1051,26.876 L21.7151,15.939 C22.3551,16.019 23.0201,16.021 23.6991,15.94 C27.3311,15.503 30.2701,12.52 30.6591,8.883 C31.2081,3.764 26.9221,-0.514 21.8001,0.05 C18.2311,0.442 15.2891,3.284 14.7891,6.839 C14.3891,9.686 15.4881,12.298 17.4121,13.997" id="Stroke-4"></path>
                        <path d="M15.7071,4 L26.7071,15" id="Stroke-6"></path>
                        <path d="M25.7071,1 L22.7071,4" id="Stroke-8"></path>
                        <path d="M29.7071,5 L26.7071,8" id="Stroke-10"></path>
                    </g>
                </g>
            </g>
        </g>
    </g>
</svg>