<?xml version="1.0"?>
<svg xmlns="http://www.w3.org/2000/svg" xmlns:xlink="http://www.w3.org/1999/xlink" xmlns:svgjs="http://svgjs.com/svgjs" version="1.1" width="512" height="512" x="0" y="0" viewBox="0 0 512 512" style="enable-background:new 0 0 512 512" xml:space="preserve" class=""><g><g xmlns="http://www.w3.org/2000/svg"><path d="m45.041 224.916 14.884 1.905c.585-4.573 1.356-9.25 2.356-14.297l-14.72-2.916c-1.066 5.386-1.891 10.393-2.52 15.308z" fill="#890e25" data-original="#000000" style=""/><path d="m70.147 184.999-13.962-5.497c-1.781 4.524-3.411 9.404-4.983 14.92l14.431 4.113c1.437-5.042 2.913-9.47 4.514-13.536z" fill="#890e25" data-original="#000000" style=""/><path d="m282.055 435.961h15.006v15.41h-15.006z" fill="#890e25" data-original="#000000" style=""/><path d="m500.911 106.424c0-24.501-8.574-48.384-24.145-67.251l-11.573 9.551c13.356 16.185 20.712 36.676 20.712 57.7 0 50.02-40.694 90.714-90.714 90.714s-90.714-40.694-90.714-90.714 40.694-90.714 90.714-90.714c21.722 0 42.735 7.796 59.168 21.951l9.793-11.369c-19.156-16.5-43.647-25.587-68.961-25.587-58.294 0-105.72 47.426-105.72 105.72 0 25.977 9.423 49.791 25.024 68.217-3.398 13.462-2.029 26.991 4.051 39.354 5.076 10.42 8.578 21.961 10.455 34.397h-39.301c-12.278 0-22.267-9.99-22.267-22.268v-226.125h-44.532s.032 228.246.062 229.055c-1.44 10.897-10.785 19.336-22.069 19.336h-38.066c1.876-12.435 5.377-23.972 10.443-34.372 8.916-18.131 7.641-39.031-3.501-57.34-13.129-21.575-37.57-35.31-63.695-35.843-23.27-.748-42.807 6.567-58.157 21.741-33.589 33.197-37.448 94.744-36.76 128.476l15.002-.307c-.639-31.325 2.707-88.243 32.306-117.497 12.309-12.165 28.176-18.02 47.215-17.413 21.136.431 40.782 11.407 51.271 28.643 8.421 13.839 9.462 29.482 2.842 42.942-6.052 12.422-10.118 26.177-12.125 40.969h-29.807v-14.634h-15.006l.006 59.651c.132 16.57 13.649 30.011 30.25 30.011v-15.006c-8.327 0-15.106-6.71-15.238-15.006h29.623c1.762 14.014 5.709 27.364 11.767 39.735 28.269 71.172-84.272 104.663-116.468 32.185-7.941-18.568-14.077-49.167-16.02-79.896l-14.976.949c2.102 33.01 8.52 64.711 17.342 85.18 31.661 72.754 143.755 62.081 149.752-14.556.631-10.582-1.439-20.83-6.154-30.458-5.057-10.327-8.441-21.451-10.102-33.135h30.879v218.59h44.391v-229.795c2.592-1.724 5.066-3.639 7.409-5.725 2.314 2.062 4.769 3.969 7.354 5.697v229.823h44.391v-46.028h-15.006v31.022h-14.379v-207.331c4.588 1.607 9.4 2.726 14.379 3.295v127.997h15.006v-127.547h32.132c-1.662 11.684-5.046 22.809-10.103 33.135-4.716 9.629-6.786 19.877-6.15 30.527 6.049 76.683 118.359 87.199 149.839 14.279 19.414-52.316 26.419-126.174 5.571-188.679 20.055-19.252 32.56-46.315 32.56-76.246zm-248.483-91.418v211.118c0 20.553 16.72 37.274 37.273 37.274h83.032v15.006h-83.045c-27.548 0-50.135-21.627-51.689-48.794.107-1.148-.092-214.603-.092-214.603h14.521zm-24.575 236.816c1.964 4.801 4.473 9.32 7.447 13.488-9.429 8.375-21.656 13.092-34.394 13.092h-83.045v-15.006h83.032c10.597.001 20.167-4.451 26.96-11.574zm-4.952 245.172h-14.379v-204.034c4.926-.567 9.744-1.686 14.379-3.305zm226.133-131.666c-32.209 72.506-144.76 38.949-116.469-32.185 6.055-12.363 10.001-25.706 11.767-39.735h28.37c-.132 8.296-6.911 15.006-15.237 15.006v15.006c16.601 0 30.117-13.441 30.249-30.011h.024v-59.651h-15.006v14.634h-28.572c-2.008-14.792-6.075-28.55-12.136-40.994-3.066-6.235-4.506-12.881-4.31-19.653 18.321 15.229 41.848 24.399 67.478 24.399 22.616 0 43.594-7.142 60.804-19.284 17.952 55.304 8.701 135.848-6.962 172.468z" fill="#890e25" data-original="#000000" style=""/><path d="m417.731 158.528v-30.065h30.065v-45.08h-30.065v-30.064h-45.08v30.065h-30.065v45.08h30.065v30.065h45.08zm-60.139-45.07v-15.069h30.065v-30.065h15.069v30.065h30.065v15.069h-30.065v30.065h-15.069v-30.065z" fill="#890e25" data-original="#000000" style=""/><path d="m342.703 53.319h15.006v15.006h-15.006z" fill="#890e25" data-original="#000000" style=""/></g></g></svg>
