<?xml version="1.0"?>
<svg xmlns="http://www.w3.org/2000/svg" xmlns:xlink="http://www.w3.org/1999/xlink" xmlns:svgjs="http://svgjs.com/svgjs" version="1.1" width="512" height="512" x="0" y="0" viewBox="0 0 512 512" style="enable-background:new 0 0 512 512" xml:space="preserve" class=""><g><g xmlns="http://www.w3.org/2000/svg"><g><path d="m481.652 373.055c-3.248-31.576-30.191-56.055-62.152-56.055h-.65l-5.067-22.804c-4.454-20.04-20.8-34.541-40.734-36.861v-25.379c13.525-.767 24.294-12.01 24.294-25.723v-27.975c0-11.425-7.669-21.609-18.649-24.765l-123.464-35.489c-2.314-.666-4.71-1.003-7.119-1.003-14.208 0-25.768 11.56-25.768 25.768v63.464c0 13.713 10.769 24.956 24.293 25.723v25.044h-37.671l-89.194-215.331c-10.484-25.313-34.962-41.669-62.362-41.669h-29.909c-15.163 0-27.5 12.336-27.5 27.5s12.337 27.5 27.5 27.5h29.909c5.073 0 9.606 3.029 11.549 7.716l10.075 24.323h-35.156c-9.203 0-17.751 4.569-22.864 12.221-5.114 7.653-6.064 17.299-2.542 25.803l79.503 191.937h-.474c-53.762 0-97.5 43.738-97.5 97.5s43.738 97.5 97.5 97.5c44.215 0 81.644-29.587 93.545-70h166.324c3.785 39.227 36.928 70 77.131 70 42.733 0 77.5-34.766 77.5-77.5 0-25.003-11.913-47.264-30.348-61.445zm-244.31-166.823v-63.464c0-5.938 4.83-10.768 10.768-10.768 1.007 0 2.008.141 2.975.419l123.464 35.489c4.589 1.319 7.794 5.575 7.794 10.349v27.975c0 5.938-4.831 10.768-10.769 10.768h-123.465c-5.937 0-10.767-4.831-10.767-10.768zm24.293 25.768h96.413v25h-96.413zm-228.151-124.406c2.358-3.53 6.146-5.555 10.393-5.555h41.369l16.121 38.919c1.585 3.826 5.97 5.644 9.799 4.059 3.827-1.585 5.645-5.973 4.059-9.799l-32.41-78.242c-4.271-10.312-14.244-16.976-25.406-16.976h-29.909c-6.893 0-12.5-5.607-12.5-12.5s5.607-12.5 12.5-12.5h29.909c21.311 0 40.35 12.721 48.504 32.409l86.815 209.591h-27.06l-38.97-94.081c-1.585-3.826-5.972-5.645-9.799-4.059s-5.645 5.973-4.059 9.799l36.704 88.611c-20.202 2.099-36.829 16.686-41.327 36.925l-1.206 5.428-74.682-180.3c-1.625-3.923-1.204-8.198 1.155-11.729zm64.016 389.406c-45.49 0-82.5-37.009-82.5-82.5s37.01-82.5 82.5-82.5 82.5 37.009 82.5 82.5-37.01 82.5-82.5 82.5zm51.903-165h145.439c4.143 0 7.5-3.358 7.5-7.5s-3.357-7.5-7.5-7.5h-176.326l4.344-19.55c3.33-14.984 16.377-25.45 31.727-25.45h212.826c15.35 0 28.396 10.465 31.727 25.45l4.344 19.55h-78.642c-4.143 0-7.5 3.358-7.5 7.5s3.357 7.5 7.5 7.5h94.658c20.145 0 37.674 12.79 44.479 30.84-9.094-3.755-19.046-5.84-29.479-5.84-40.203 0-73.345 30.773-77.131 70h-163.168c.526-4.094.799-8.266.799-12.5 0-34.698-18.223-65.216-45.597-82.5zm285.097 165c-34.463 0-62.5-28.038-62.5-62.5s28.037-62.5 62.5-62.5 62.5 28.038 62.5 62.5-28.037 62.5-62.5 62.5z" fill="#530c62" data-original="#000000" style=""/><path d="m434.5 407c-15.163 0-27.5 12.336-27.5 27.5s12.337 27.5 27.5 27.5 27.5-12.336 27.5-27.5-12.337-27.5-27.5-27.5zm0 40c-6.893 0-12.5-5.607-12.5-12.5s5.607-12.5 12.5-12.5 12.5 5.607 12.5 12.5-5.607 12.5-12.5 12.5z" fill="#530c62" data-original="#000000" style=""/><path d="m97.5 387c-15.163 0-27.5 12.336-27.5 27.5s12.337 27.5 27.5 27.5 27.5-12.336 27.5-27.5-12.337-27.5-27.5-27.5zm0 40c-6.893 0-12.5-5.607-12.5-12.5s5.607-12.5 12.5-12.5 12.5 5.607 12.5 12.5-5.607 12.5-12.5 12.5z" fill="#530c62" data-original="#000000" style=""/></g></g></g></svg>
