<?xml version="1.0" encoding="UTF-8"?>
<svg width="32px" height="32px" viewBox="0 0 32 32" version="1.1" xmlns="http://www.w3.org/2000/svg" xmlns:xlink="http://www.w3.org/1999/xlink">
    <!-- Generator: Sketch 44.1 (41455) - http://www.bohemiancoding.com/sketch -->
    <title>Metarubrick / Services / lawyer</title>
    <desc>Created with Sketch.</desc>
    <defs></defs>
    <g id="Page-1" stroke="none" stroke-width="1" fill="none" fill-rule="evenodd">
        <g id="New-meta-draft" transform="translate(-484.000000, -1984.000000)">
            <g id="Slice" transform="translate(84.000000, 84.000000)"></g>
            <g id="Icon" transform="translate(51.000000, 42.000000)" stroke="#8345FE" stroke-width="2">
                <g id="Services" transform="translate(22.000000, 1894.000000)">
                    <g id="Lawyer" transform="translate(412.000000, 50.609985)">
                        <path d="M0,26.3867 L19,26.3867" id="Stroke-1"></path>
                        <path d="M3,25.3867 L3,23.3867 C3,22.2827 3.896,21.3867 5,21.3867 L14,21.3867 C15.104,21.3867 16,22.2827 16,23.3867 L16,25.3867" id="Stroke-3"></path>
                        <polygon id="Stroke-5" points="17 7.3867 11 3.3867 7 9.3867 13 13.3867"></polygon>
                        <path d="M15,10.3867 L27,18.3867" id="Stroke-7"></path>
                        <path d="M11,16.3867 L5,12.3867" id="Stroke-9"></path>
                        <path d="M19,4.3867 L13,0.3867" id="Stroke-11"></path>
                        <path d="M28.5,16.1865 L25.5,20.5865" id="Stroke-13"></path>
                    </g>
                </g>
            </g>
        </g>
    </g>
</svg>