<?xml version="1.0"?>
<svg xmlns="http://www.w3.org/2000/svg" xmlns:xlink="http://www.w3.org/1999/xlink" xmlns:svgjs="http://svgjs.com/svgjs" version="1.1" width="512" height="512" x="0" y="0" viewBox="0 0 512 512" style="enable-background:new 0 0 512 512" xml:space="preserve"><g><path xmlns="http://www.w3.org/2000/svg" d="m0 247.207031c0 119.511719 76.441406 225.289063 190.214844 263.210938l4.738281 1.582031 4.742187-1.582031c113.773438-37.921875 190.214844-143.699219 190.214844-263.210938v-187.222656h-14.996094c-24.808593 0-44.988281-20.179687-44.988281-44.988281v-14.996094h-269.941406v14.996094c0 24.808594-20.179687 44.988281-44.988281 44.988281h-14.996094zm29.992188-158.734375c29.335937-5.980468 52.5-29.144531 58.480468-58.480468h212.964844c5.980469 29.335937 29.144531 52.5 58.480469 58.480468v158.734375c0 104.914063-66.078125 197.96875-164.964844 233.125-98.882813-35.15625-164.960937-128.210937-164.960937-233.125zm0 0" fill="#c70d0d" data-original="#000000" style=""/><path xmlns="http://www.w3.org/2000/svg" d="m188.824219 445.585938 6.128906 2.746093 6.132813-2.746093c77.277343-34.613282 128.839843-111.03125 128.839843-198.386719v-136.960938c-3.523437-2.582031-28.617187-12.957031-45.917969-42.78125l-4.335937-7.472656h-169.433594l-4.335937 7.472656c-17.230469 29.699219-42.167969 40.035157-45.917969 42.78125v136.964844c0 87.394531 51.601563 163.789063 128.839844 198.382813zm-21.1875-143.65625h42.316406v-29.992188h-37.371094l20.105469-121.972656h4.539062l26.667969 161.804687-28.9375 28.9375-28.941406-28.9375zm34.816406-181.957032h-14.996094l-22.496093-29.992187h59.988281zm-112.472656 127.230469v-120.023437c14.6875-9.851563 27.347656-22.511719 37.199219-37.199219h.289062l36.652344 48.867187-30.203125 183.238282 61.035156 61.039062 61.039063-61.039062-30.203126-183.238282 36.652344-48.867187h.289063c9.851562 14.6875 22.511719 27.347656 37.199219 37.199219v120.019531c0 71.398437-40.984376 136.667969-104.976563 168.136719-63.988281-31.46875-104.972656-96.734376-104.972656-168.132813zm0 0" fill="#c70d0d" data-original="#000000" style=""/></g></svg>
