<?xml version="1.0"?>
<svg xmlns="http://www.w3.org/2000/svg" xmlns:xlink="http://www.w3.org/1999/xlink" xmlns:svgjs="http://svgjs.com/svgjs" version="1.1" width="512" height="512" x="0" y="0" viewBox="0 0 512.264 512.264" style="enable-background:new 0 0 512 512" xml:space="preserve" class=""><g><g xmlns="http://www.w3.org/2000/svg"><path d="m471.021 194.599c-.001 0-.001 0-.001 0l-181.419-181.418c-8.499-8.5-19.799-13.181-31.819-13.181s-23.321 4.681-31.82 13.181l-34.525 34.525c-2.813 2.813-4.393 6.628-4.393 10.606 0 3.979 1.58 7.794 4.393 10.606l223.845 223.845c2.929 2.929 6.768 4.394 10.606 4.394s7.678-1.465 10.606-4.394l34.526-34.525c17.545-17.546 17.545-46.093.001-63.639zm-21.214 42.426-23.919 23.919-202.631-202.631 23.918-23.919c2.834-2.833 6.6-4.394 10.607-4.394 4.006 0 7.773 1.56 10.606 4.394l181.418 181.418c5.849 5.848 5.849 15.365.001 21.213z" fill="#e71616" data-original="#000000" style=""/><path d="m359.649 348.49h-15v-47.776c0-8.284-6.716-15-15-15h-18.031v-9.372c0-24.83-12.809-47.838-37.042-66.536-18.388-14.189-43.897-26.121-71.828-33.599-4.855-1.302-10.041-.081-13.81 3.247-3.768 3.329-5.618 8.323-4.927 13.304l.551 3.97c1.04 7.495-1.118 14.771-6.076 20.487s-11.855 8.881-19.421 8.911l-10.751.043c-30.67.124-55.622 25.177-55.622 55.847v3.698h-19.608c-8.284 0-15 6.716-15 15v47.776h-15c-8.284 0-15 6.716-15 15v103.773c0 24.813 20.187 45 45 45h256.565c24.814 0 45-20.187 45-45v-103.773c0-8.284-6.716-15-15-15zm-236.957-66.474c0-14.194 11.548-25.789 25.743-25.847l10.751-.043c16.112-.065 31.407-7.083 41.964-19.255 6.442-7.428 10.735-16.332 12.6-25.77 16.575 6.059 31.267 13.788 42.5 22.456 16.833 12.989 25.369 27.384 25.369 42.785v9.372h-158.927zm-34.608 33.698h226.565v32.776h-226.565zm256.565 151.55c0 8.271-6.729 15-15 15h-256.565c-8.271 0-15-6.729-15-15v-88.774h286.565z" fill="#e71616" data-original="#000000" style=""/><path d="m233.716 415.377h-58.143c-8.284 0-15 6.716-15 15s6.716 15 15 15h58.143c8.284 0 15-6.716 15-15s-6.716-15-15-15z" fill="#e71616" data-original="#000000" style=""/></g></g></svg>
