<?xml version="1.0"?>
<svg xmlns="http://www.w3.org/2000/svg" xmlns:xlink="http://www.w3.org/1999/xlink" xmlns:svgjs="http://svgjs.com/svgjs" version="1.1" width="512" height="512" x="0" y="0" viewBox="0 0 100 100" style="enable-background:new 0 0 512 512" xml:space="preserve"><g><path xmlns="http://www.w3.org/2000/svg" d="m30.753418 90h38.493164c3.0507812 0 5.5332031-2.4824219 5.5332031-5.5332031v-36.4853516h2.9946289c.5522461 0 1-.4477539 1-1v-10.2084961c0-.5522461-.4477539-1-1-1h-9.8132324c1.0407104-1.833374 2.0042725-3.7799072 2.619873-5.3178711 1.5493164-3.8691406 2.3618164-7.5317383 2.484375-11.1982422.0205078-.6157227-.0009766-1.2670898-.0673828-2.0488281-.1713867-2.0307617-.578125-4.3232422-2.2988281-5.9321289-.9643555-.9013672-2.1635742-1.3383789-3.4677734-1.2680664-2.1777344.1186523-3.7788086 1.2983398-5.1083984 2.3950195-2.3300781 1.9208984-3.9667969 4.3891602-5.1323242 6.3251953-.84375 1.4013672-1.5395508 2.8901367-2.1259766 4.1757812-.9121094 1.9995117-1.6010742 4.0356445-2.0424805 6.0292969-.0377808.1547241-.8722534 3.5834351-1.0374146 6.8398438h-3.4837646c-.1652222-3.2559814-.9992676-6.6835938-1.0320435-6.8173828-.4467773-2.0161133-1.1357422-4.0522461-2.0478516-6.0517578-.5864258-1.2856445-1.2822266-2.7744141-2.1259766-4.1757812-1.1655273-1.9360352-2.8022461-4.4042969-5.1323242-6.3251953-1.3295898-1.0966797-2.9306641-2.2763672-5.1079102-2.3950195-1.296875-.0727539-2.5048828.3662109-3.46875 1.2680664-1.7197266 1.6083984-2.1269531 3.9008789-2.2988281 5.9321289-.0659178.7841796-.0874022 1.4350585-.0668944 2.048828.1220703 3.6650391.9345703 7.328125 2.484375 11.1982422.6185303 1.5455322 1.5794678 3.4868774 2.6195068 5.3178711h-9.8988037c-.5522461 0-1 .4477539-1 1v10.2084961c0 .5522461.4477539 1 1 1h2.9946289v36.4853516c0 3.0507812 2.4824219 5.5332031 5.5332032 5.5332031zm42.0263672-5.5332031c0 1.9482422-1.584961 3.5332031-3.5332032 3.5332031h-38.493164c-1.9482422 0-3.5332031-1.5849609-3.5332031-3.5332031v-25.203125h45.5595703zm0-27.203125h-45.5595704v-9.2822266h45.5595703v9.2822266zm-18.0097657-27.8754883c.4160156-1.8798828 1.0600586-3.7822266 1.9140625-5.6542969.5634766-1.2353516 1.230957-2.6630859 2.0205078-3.9746094 1.0830078-1.7988281 2.5947266-4.0854492 4.690918-5.8134766 1.3837891-1.1411133 2.5263672-1.8637695 3.9448242-1.940918.762207-.0488281 1.4204102.1972656 1.9931641.7319336 1.2216797 1.1420898 1.5253906 2.9047852 1.6713867 4.6401367.0600586.7016602.0795898 1.277832.0615234 1.8134766-.1142578 3.4296875-.8803711 6.871582-2.3417969 10.5214844-.6965332 1.7399292-1.8685303 4.0390015-3.0803833 6.0610352h-11.8554076c.1688842-3.0394287.9676513-6.3288574.9812011-6.3847656zm-23.4086914.3237305c-1.4619141-3.6513672-2.2280273-7.0927734-2.3417969-10.5214844-.0180664-.5336914.0014648-1.1103516.0610352-1.8139648.1464844-1.7348633.4506836-3.4975586 1.671875-4.6396484.5712891-.534668 1.2226562-.7792969 1.9936523-.7319336 1.4179688.0771484 2.5605469.7998047 3.9443359 1.940918 2.0961914 1.7280273 3.6079102 4.0146484 4.690918 5.8134766.7895508 1.3115234 1.4570312 2.7392578 2.0205078 3.9746094.8540039 1.8720703 1.4980469 3.7744141 1.9194336 5.6767578.0085449.0351562.8070068 3.322998.9758301 6.3623047h-11.8535156c-1.2125244-2.0213015-2.3817749-4.3110964-3.0822754-6.0610353zm-8.1357422 16.2695312v-8.2084961h53.5488281v8.2084961z" fill="#4c9d08" data-original="#000000" style=""/></g></svg>
