<?xml version="1.0" encoding="UTF-8"?>
<svg width="32px" height="32px" viewBox="0 0 32 32" version="1.1" xmlns="http://www.w3.org/2000/svg" xmlns:xlink="http://www.w3.org/1999/xlink">
    <!-- Generator: Sketch 44.1 (41455) - http://www.bohemiancoding.com/sketch -->
    <title>Metarubrick / Beauty / manicure</title>
    <desc>Created with Sketch.</desc>
    <defs></defs>
    <g id="Page-1" stroke="none" stroke-width="1" fill="none" fill-rule="evenodd">
        <g id="New-meta-draft" transform="translate(-184.000000, -984.000000)">
            <g id="Slice" transform="translate(84.000000, 84.000000)"></g>
            <g id="Icon" transform="translate(51.000000, 42.000000)" stroke="#8345FE" stroke-width="2">
                <g id="Beauty" transform="translate(0.000000, 893.000000)">
                    <g id="Manicure" transform="translate(140.139999, 50.000000)">
                        <path d="M3.8623,12 L4.7383,1.867 C4.8073,0.816 5.6803,0 6.7333,0 L10.9913,0 C12.0443,0 12.9173,0.816 12.9863,1.867 L13.8623,12" id="Stroke-1"></path>
                        <path d="M8.8623,15 L2.0003,15 C0.8423,15 -0.0727,15.979 0.0053,17.133 L0.6753,27.199 C0.7803,28.775 2.0903,30 3.6693,30 L14.0553,30 C15.6343,30 16.9443,28.775 17.0493,27.199 L17.7193,17.133 C17.7973,15.979 16.8823,15 15.7243,15 L8.8623,15 Z" id="Stroke-3"></path>
                        <path d="M8.8623,20 L5.9313,20 C5.3523,20 4.8943,20.489 4.9333,21.066 L5.2623,26" id="Stroke-5"></path>
                    </g>
                </g>
            </g>
        </g>
    </g>
</svg>