<?xml version="1.0"?>
<svg xmlns="http://www.w3.org/2000/svg" xmlns:xlink="http://www.w3.org/1999/xlink" xmlns:svgjs="http://svgjs.com/svgjs" version="1.1" width="512" height="512" x="0" y="0" viewBox="0 0 64 64" style="enable-background:new 0 0 512 512" xml:space="preserve" class=""><g><g xmlns="http://www.w3.org/2000/svg"><path d="m44.998 28h-1v-25c0-1.654-1.346-3-3-3h-28c-1.654 0-3 1.346-3 3v25h-1c-.552 0-1 .448-1 1v32c0 1.654 1.346 3 3 3h32c1.654 0 3-1.346 3-3v-32c0-.552-.448-1-1-1zm-33-25c0-.551.449-1 1-1h28c.551 0 1 .449 1 1v25h-4v-7.789c.173-.4.564-1.353.957-2.651.476-1.57 1.043-3.962 1.043-6.44 0-3.046-1.546-6.12-5-6.12-1.708 0-3.081.758-3.966 2.187-.011.018-.02.037-.031.056-.808-1.326-2.12-2.243-4.003-2.243-1.708 0-3.081.758-3.966 2.187-.011.018-.02.037-.031.056-.808-1.326-2.12-2.243-4.003-2.243-1.708 0-3.081.758-3.966 2.187-.9 1.428-1.034 3.077-1.034 3.933 0 4.227 1.596 8.163 2 9.092v7.788h-4zm22 25v-7h2v7zm-4 0v-7.789c.173-.4.869-2.257.998-2.792.408 1.371.822 2.378 1.002 2.793v7.788zm-4 0v-7h2v7zm-4 0v-7.789c.173-.4.974-2.638.998-2.792.408 1.371.822 2.378 1.002 2.793v7.788zm-4 0v-7h2v7zm3.043-11.02c-.263.867-.524 1.564-.707 2.02h-2.673c-.513-1.279-1.663-4.519-1.663-7.88 0-1.089.265-2.134.73-2.873.52-.839 1.262-1.247 2.27-1.247 2.916 0 3 3.698 3 4.12 0 2.233-.521 4.42-.957 5.86zm8 0c-.263.867-.524 1.564-.707 2.02h-2.673c-.513-1.279-1.663-4.519-1.663-7.88 0-1.089.265-2.134.73-2.873.52-.839 1.262-1.247 2.27-1.247 2.916 0 3 3.698 3 4.12 0 2.233-.521 4.42-.957 5.86zm8 0c-.263.867-.524 1.564-.707 2.02h-2.673c-.513-1.279-1.663-4.519-1.663-7.88 0-1.089.265-2.134.73-2.873.52-.839 1.262-1.247 2.27-1.247 2.916 0 3 3.698 3 4.12 0 2.233-.521 4.42-.957 5.86zm5.957 45.02h-32c-.551 0-1-.449-1-1v-3h6c.552 0 1-.448 1-1s-.448-1-1-1h-6v-26h34v26h-6c-.552 0-1 .448-1 1s.448 1 1 1h6v3c0 .551-.449 1-1 1z" fill="#9b770a" data-original="#000000" style=""/><path d="m59.998 13.12c0-3.046-1.546-6.12-5-6.12-1.708 0-3.081.758-3.966 2.187-.9 1.428-1.034 3.077-1.034 3.933 0 4.227 1.596 8.163 2 9.092v35.788c0 .552.448 1 1 1h4c.552 0 1-.448 1-1v-35.789c.173-.4.564-1.353.957-2.651.475-1.57 1.043-3.962 1.043-6.44zm-4 43.88h-2v-34h2zm1.043-38.02c-.263.867-.524 1.564-.707 2.02h-2.673c-.513-1.279-1.663-4.519-1.663-7.88 0-1.089.265-2.134.73-2.873.52-.839 1.262-1.247 2.27-1.247 2.916 0 3 3.698 3 4.12 0 2.233-.521 4.42-.957 5.86z" fill="#9b770a" data-original="#000000" style=""/><path d="m36.998 49.33c0-8.029-8.97-15.766-9.352-16.091-.373-.318-.924-.318-1.297 0-.382.326-9.352 8.062-9.352 16.091 0 5.948 4.904 8.363 9.509 8.645h.983c4.605-.282 9.509-2.697 9.509-8.645zm-9.693 6.653c-.177.015-.293.017-.305.017-.017 0-.132-.002-.309-.017-1.38-.118-3.694-.687-3.694-3.164 0-2.817 2.725-5.781 4-7.013 1.275 1.232 4 4.196 4 7.013.001 2.478-2.314 3.047-3.692 3.164zm5.546-1.894c.093-.39.146-.811.146-1.269 0-4.594-5.139-8.953-5.358-9.136-.371-.312-.913-.312-1.284 0-.219.184-5.358 4.542-5.358 9.136 0 .458.053.879.146 1.269-1.222-.988-2.146-2.48-2.146-4.758 0-5.941 5.99-12.084 8-13.979 2.011 1.892 8 8.027 8 13.979.001 2.278-.924 3.77-2.146 4.758z" fill="#9b770a" data-original="#000000" style=""/><circle cx="12.998" cy="34" r="1" fill="#9b770a" data-original="#000000" style=""/><path d="m12.998 37c-.552 0-1 .448-1 1v8c0 .552.448 1 1 1s1-.448 1-1v-8c0-.552-.448-1-1-1z" fill="#9b770a" data-original="#000000" style=""/></g></g></svg>
