<?xml version="1.0" encoding="UTF-8"?>
<svg width="32px" height="32px" viewBox="0 0 32 32" version="1.1" xmlns="http://www.w3.org/2000/svg" xmlns:xlink="http://www.w3.org/1999/xlink">
    <!-- Generator: Sketch 43.2 (39069) - http://www.bohemiancoding.com/sketch -->
    <title>Metarubrick / Medicine / Medical_goods</title>
    <desc>Created with Sketch.</desc>
    <defs></defs>
    <g id="Page-1" stroke="none" stroke-width="1" fill="none" fill-rule="evenodd">
        <g id="New-meta-draft" transform="translate(-584.000000, -1384.000000)">
            <g id="Slice" transform="translate(84.000000, 84.000000)"></g>
            <g id="Icon" transform="translate(51.000000, 42.000000)" stroke="#DA0000" stroke-width="2">
                <g id="Medicine" transform="translate(27.000000, 1295.000000)">
                    <g id="Medical-goods" transform="translate(507.000000, 48.000000)">
                        <path d="M5.0003,21.9998 L6.3583,20.6428 C6.7763,20.2238 7.0623,19.6898 7.1783,19.1088 L7.8223,15.8908 C7.9383,15.3098 8.2243,14.7758 8.6423,14.3568 L21.5503,1.4498 C23.4833,-0.4832 26.6173,-0.4832 28.5503,1.4498 C30.4833,3.3828 30.4833,6.5168 28.5503,8.4498 L15.6423,21.3568 C15.2243,21.7758 14.6903,22.0618 14.1093,22.1778 L10.8913,22.8218 C10.3103,22.9378 9.7763,23.2238 9.3583,23.6428 L8.0003,24.9998" id="Stroke-1"></path>
                        <path d="M17.0003,19.9998 L13.0003,15.9998" id="Stroke-3"></path>
                        <path d="M21.0003,15.9998 L17.0003,11.9998" id="Stroke-5"></path>
                        <path d="M25.0003,11.9998 L21.0003,7.9998" id="Stroke-7"></path>
                        <path d="M6.0003,26.9998 L3.6213,29.3788 C2.7923,30.2068 1.4493,30.2068 0.6213,29.3788 C-0.2077,28.5508 -0.2077,27.2068 0.6213,26.3788 L3.0003,23.9998 L6.0003,26.9998 Z" id="Stroke-9"></path>
                    </g>
                </g>
            </g>
        </g>
    </g>
</svg>