<?xml version="1.0"?>
<svg xmlns="http://www.w3.org/2000/svg" xmlns:xlink="http://www.w3.org/1999/xlink" xmlns:svgjs="http://svgjs.com/svgjs" version="1.1" width="512" height="512" x="0" y="0" viewBox="0 0 100 100" style="enable-background:new 0 0 512 512" xml:space="preserve"><g><g xmlns="http://www.w3.org/2000/svg" id="Layer_6_copy_4" data-name="Layer 6 copy 4"><path d="m7.34 62a2.84 2.84 0 0 0 1.38 2c3 1.78 7.21 2.07 9.47 2.08v17.3a1.5 1.5 0 0 0 1 1.42c.39.13 8.79 3 17.09-.76v10.96a1.5 1.5 0 0 0 1.5 1.5h39.68a1.5 1.5 0 0 0 1.54-1.5v-14.76c14-27.15 16.87-47.78 8.63-61.3-6.1-9.94-18.32-15.44-34.44-15.44-11.69 0-20.69 3.5-26.75 10.4-9.44 10.81-8.64 26.3-8.31 29.77-3.22 3.75-11.52 13.93-10.79 18.33zm13.48-16.86a1.5 1.5 0 0 0 .35-1.14c0-.17-2.08-17.16 7.54-28.09 5.47-6.26 13.7-9.41 24.48-9.41 15 0 26.34 5 31.84 14 7.58 12.44 4.5 32.74-8.9 58.69a1.5 1.5 0 0 0 -.17.69v13.62h-36.68v-11.11a18.41 18.41 0 0 0 1.8-1.39 1.5 1.5 0 1 0 -2-2.27 17.18 17.18 0 0 1 -2.08 1.56c-6.2 3.82-13.22 2.61-15.78 2v-17.72a1.51 1.51 0 0 0 -.48-1.1 1.55 1.55 0 0 0 -1.13-.4c-.06 0-5.8.4-9.29-1.6-.46-1.47 3.68-8.47 10.5-16.33zm56.7-24.63a1.5 1.5 0 1 1 2.14-2.1 23.76 23.76 0 0 1 7 16 35.63 35.63 0 0 1 -1.62 13.08 1.52 1.52 0 0 1 -1.42 1 1.67 1.67 0 0 1 -.49-.08 1.5 1.5 0 0 1 -.93-1.91 32.6 32.6 0 0 0 1.47-12 20.9 20.9 0 0 0 -6.15-13.99zm-10.39-8a1.49 1.49 0 0 1 1.87-.99 26.64 26.64 0 0 1 4.82 2.33 1.5 1.5 0 1 1 -1.55 2.57 24.33 24.33 0 0 0 -4.22-2.06 1.49 1.49 0 0 1 -.92-1.9zm-12.79 47.84a23.59 23.59 0 1 0 -23.59-23.59 23.61 23.61 0 0 0 23.59 23.59zm0-44.17a20.59 20.59 0 1 1 -20.59 20.58 20.61 20.61 0 0 1 20.59-20.58zm-12.22 26.15h6.65v6.67a1.5 1.5 0 0 0 1.5 1.5h8.14a1.51 1.51 0 0 0 1.5-1.5v-6.67h6.64a1.5 1.5 0 0 0 1.5-1.5v-8.14a1.5 1.5 0 0 0 -1.5-1.5h-6.64v-6.64a1.5 1.5 0 0 0 -1.5-1.5h-8.14a1.5 1.5 0 0 0 -1.5 1.5v6.64h-6.65a1.51 1.51 0 0 0 -1.5 1.5v8.14a1.5 1.5 0 0 0 1.5 1.5zm1.5-8.14h6.65a1.5 1.5 0 0 0 1.5-1.5v-6.64h5.14v6.64a1.5 1.5 0 0 0 1.5 1.5h6.64v5.14h-6.64a1.5 1.5 0 0 0 -1.5 1.5v6.65h-5.14v-6.65a1.51 1.51 0 0 0 -1.5-1.5h-6.65z" fill="#1b838d" data-original="#000000" style=""/></g></g></svg>
