<?xml version="1.0"?>
<svg xmlns="http://www.w3.org/2000/svg" xmlns:xlink="http://www.w3.org/1999/xlink" xmlns:svgjs="http://svgjs.com/svgjs" version="1.1" width="512" height="512" x="0" y="0" viewBox="0 0 511.998 511.998" style="enable-background:new 0 0 512 512" xml:space="preserve" class=""><g><g xmlns="http://www.w3.org/2000/svg"><path d="m435.077 76.896c-2.93-2.928-7.678-2.928-10.607 0l-162.071 162.07c-2.929 2.93-2.929 7.678 0 10.607 2.928 2.929 7.677 2.928 10.607 0l162.071-162.07c2.929-2.929 2.929-7.677 0-10.607zm57.869 124.675c-4.143 0-7.5 3.357-7.5 7.5 0 38.334-31.186 69.521-69.519 69.521-4.143 0-7.5 3.357-7.5 7.5s3.357 7.5 7.5 7.5c46.604 0 84.519-37.916 84.519-84.521 0-4.143-3.357-7.5-7.5-7.5zm-190.042-160.042c-30.058 0-54.511 24.454-54.511 54.513 0 4.143 3.358 7.5 7.5 7.5s7.5-3.357 7.5-7.5c0-21.787 17.726-39.513 39.512-39.513 4.143 0 7.5-3.357 7.5-7.5s-3.358-7.5-7.501-7.5zm-77.018 62.013c4.142 0 7.5-3.357 7.5-7.5 0-38.334 31.186-69.521 69.518-69.521 4.143 0 7.5-3.357 7.5-7.5s-3.357-7.5-7.5-7.5c-46.604 0-84.518 37.916-84.518 84.521 0 4.142 3.358 7.5 7.5 7.5zm284.475-15.771c-6.346-19.092-16.479-36.096-30.118-50.539-19.227-20.36-41.035-30.583-55.945-35.574-11.073-3.706-23.336-1.098-32.001 6.811l-91.855 83.826c-3.06 2.792-3.276 7.536-.484 10.596 2.791 3.059 7.535 3.276 10.596.484l91.855-83.826c4.648-4.242 11.211-5.646 17.128-3.666 13.284 4.446 32.708 13.547 49.801 31.648 12.126 12.841 21.14 27.972 26.79 44.972 1.953 5.876.538 12.405-3.693 17.042l-206.932 226.775-35.919-35.921c-2.928-2.929-7.677-2.93-10.606-.001s-2.929 7.678 0 10.606l32.89 32.892-47.745 15.916-71.952-71.955 15.915-47.747 45.707 45.709c1.464 1.465 3.384 2.197 5.303 2.197s3.839-.732 5.303-2.196c2.929-2.929 2.929-7.678 0-10.606l-48.737-48.74 108.792-99.282c3.06-2.792 3.276-7.536.484-10.596-2.792-3.059-7.534-3.276-10.596-.484l-114.59 104.573c-.355.576-.489-.174-2.06 3.168l-20.659 61.979-126.056 126.062c-14.625 14.625-14.625 38.42 0 53.044l36.071 36.073c7.084 7.085 16.503 10.986 26.521 10.986s19.438-3.901 26.521-10.986c39.583-39.589 83.523-88.266 126.056-126.063l61.976-20.659c1.207-.63.446.243 3.168-2.06l212.223-232.574c7.889-8.643 10.513-20.86 6.848-31.884zm-399.66 381.416-23.993-23.994 10.612-10.612 23.993 23.994zm53.046-53.048-23.993-23.994 10.612-10.612 23.993 23.994zm21.218-21.218-24.345-24.347c-5.654-5.653-14.854-5.654-20.509.001l-11.316 11.316c-5.654 5.654-5.654 14.854 0 20.508l24.346 24.347-21.222 21.223-24.345-24.347c-5.654-5.654-14.854-5.653-20.509.001l-11.315 11.316c-5.654 5.654-5.654 14.854 0 20.508l24.346 24.347-10.611 10.611c-4.251 4.252-9.903 6.593-15.915 6.593s-11.664-2.341-15.915-6.592l-36.071-36.074c-8.776-8.775-8.776-23.055 0-31.831l122.006-122.012 67.902 67.904zm230.963-131.337c30.058 0 54.512-24.454 54.512-54.513 0-4.143-3.357-7.5-7.5-7.5s-7.5 3.357-7.5 7.5c0 21.787-17.725 39.513-39.512 39.513-4.143 0-7.5 3.357-7.5 7.5s3.357 7.5 7.5 7.5zm-212.963-36.487c-.077 3.396 1.256 6.723 3.658 9.123l69.131 69.136c2.337 2.336 5.546 3.661 8.845 3.661.094 0 .188-.001.281-.003 3.396-.078 6.658-1.563 8.947-4.071l183.372-200.957c3.219-3.527 4.145-8.678 2.357-13.121-4.96-12.327-12.067-23.441-21.128-33.039-10.424-11.042-22.973-19.553-37.379-25.397-4.417-1.792-9.554-.864-13.093 2.363l-200.921 183.357c-2.509 2.29-3.993 5.552-4.07 8.948zm213.929-180.154c11.778 5.004 22.064 12.106 30.633 21.185 7.413 7.854 13.306 16.902 17.528 26.915l-180.544 197.856-65.431-65.435z" fill="#461a95" data-original="#000000" style="" class=""/></g></g></svg>
