<?xml version="1.0" encoding="UTF-8"?>
<svg width="32px" height="32px" viewBox="0 0 32 32" version="1.1" xmlns="http://www.w3.org/2000/svg" xmlns:xlink="http://www.w3.org/1999/xlink">
    <!-- Generator: Sketch 44.1 (41455) - http://www.bohemiancoding.com/sketch -->
    <title>Metarubrick / Industrial / metall</title>
    <desc>Created with Sketch.</desc>
    <defs></defs>
    <g id="Page-1" stroke="none" stroke-width="1" fill="none" fill-rule="evenodd">
        <g id="New-meta-draft" transform="translate(-84.000000, -3584.000000)">
            <g id="Slice" transform="translate(84.000000, 84.000000)"></g>
            <g id="Icon" transform="translate(51.000000, 42.000000)" stroke="#52B311" stroke-width="2">
                <g id="Industrial" transform="translate(22.000000, 3494.000000)">
                    <g id="Metall" transform="translate(12.000000, 56.000000)">
                        <path d="M6,0 L0,0 C0,4.418 3.582,8 8,8 L10.5,8 C11.881,8 13,9.119 13,10.5 C13,11.881 11.881,13 10.5,13 C9.671,13 9,13.672 9,14.5 L9,18 L27,18 L27,14.5 C27,13.672 26.329,13 25.5,13 C24.119,13 23,11.881 23,10.5 C23,8.015 25.015,6 27.5,6 C28.881,6 30,4.881 30,3.5 L30,0 L9,0 L9,4" id="Stroke-1"></path>
                        <path d="M16,13 L20,13" id="Stroke-3"></path>
                    </g>
                </g>
            </g>
        </g>
    </g>
</svg>