<?xml version="1.0"?>
<svg xmlns="http://www.w3.org/2000/svg" xmlns:xlink="http://www.w3.org/1999/xlink" xmlns:svgjs="http://svgjs.com/svgjs" version="1.1" width="512" height="512" x="0" y="0" viewBox="0 0 512 512" style="enable-background:new 0 0 512 512" xml:space="preserve"><g><path xmlns="http://www.w3.org/2000/svg" d="m512 80v116c0 11.046875-8.953125 20-20 20s-20-8.953125-20-20v-116c0-22.054688-17.945312-40-40-40h-352c-22.054688 0-40 17.945312-40 40v116c0 11.046875-8.953125 20-20 20s-20-8.953125-20-20v-116c0-44.113281 35.886719-80 80-80h352c44.113281 0 80 35.886719 80 80zm-20 196c-11.046875 0-20 8.953125-20 20 0 22.054688-17.945312 40-40 40h-199c-11.046875 0-20 8.953125-20 20s8.953125 20 20 20h199c44.113281 0 80-35.886719 80-80 0-11.046875-8.953125-20-20-20zm-230.882812-20.355469c-11 1.015625-19.089844 10.753907-18.074219 21.753907.960937 10.375 9.675781 18.160156 19.894531 18.160156.613281 0 1.238281-.027344 1.863281-.085938 25.375-2.34375 48.804688-14.765625 65.972657-34.972656 16.914062-19.902344 26.226562-45.695312 26.226562-72.621094 0-59.554687-45.308594-108-101-108s-101 48.445313-101 108c0 4.484375.261719 9.003906.773438 13.429688 1.273437 10.96875 11.207031 18.835937 22.171874 17.558594 10.972657-1.273438 18.835938-11.199219 17.5625-22.171876-.335937-2.898437-.507812-5.867187-.507812-8.816406 0-37.496094 27.363281-68 61-68s61 30.503906 61 68c0 35.101563-24.546875 64.867188-55.882812 67.765625zm173.882812-68.644531c0-11.046875-8.953125-20-20-20s-20 8.953125-20 20 8.953125 20 20 20 20-8.953125 20-20zm-318 0c0-11.046875-8.953125-20-20-20s-20 8.953125-20 20 8.953125 20 20 20 20-8.953125 20-20zm36 149h-133c-11.046875 0-20 8.953125-20 20s8.953125 20 20 20h133c11.046875 0 20-8.953125 20-20s-8.953125-20-20-20zm30-80h-163c-11.046875 0-20 8.953125-20 20s8.953125 20 20 20h163c11.046875 0 20-8.953125 20-20s-8.953125-20-20-20zm-60 160h-103c-11.046875 0-20 8.953125-20 20s8.953125 20 20 20h103c11.046875 0 20-8.953125 20-20s-8.953125-20-20-20zm0 0" fill="#111999" data-original="#000000" style=""/></g></svg>
