<?xml version="1.0"?>
<svg xmlns="http://www.w3.org/2000/svg" xmlns:xlink="http://www.w3.org/1999/xlink" xmlns:svgjs="http://svgjs.com/svgjs" version="1.1" width="512" height="512" x="0" y="0" viewBox="0 0 300 300" style="enable-background:new 0 0 512 512" xml:space="preserve" class=""><g><g xmlns="http://www.w3.org/2000/svg"><path d="m65.698 99.999c7.719 0 14-6.281 14-14s-6.281-14-14-14-14 6.281-14 14 6.281 14 14 14zm0-20c3.309 0 6 2.691 6 6s-2.691 6-6 6-6-2.691-6-6 2.691-6 6-6z" fill="#3b0e72" data-original="#000000" style=""/><path d="m248.026 202.113c-2.362 0-4.276 1.915-4.276 4.276 0 2.362 1.914 4.277 4.276 4.277s4.276-1.915 4.276-4.277-1.914-4.276-4.276-4.276z" fill="#3b0e72" data-original="#000000" style=""/><path d="m252.026 38.113c-2.362 0-4.276 1.915-4.276 4.276 0 2.362 1.914 4.277 4.276 4.277s4.276-1.915 4.276-4.277-1.914-4.276-4.276-4.276z" fill="#3b0e72" data-original="#000000" style=""/><path d="m213.594 90.62c.781.781 1.805 1.172 2.828 1.172s2.047-.391 2.828-1.172l3.068-3.068 3.068 3.068c.781.781 1.805 1.172 2.828 1.172s2.047-.391 2.828-1.172c1.562-1.562 1.562-4.094 0-5.656l-3.068-3.068 3.068-3.068c1.562-1.562 1.562-4.094 0-5.656s-4.094-1.562-5.656 0l-3.068 3.068-3.068-3.068c-1.562-1.562-4.094-1.562-5.656 0s-1.562 4.094 0 5.656l3.068 3.068-3.068 3.068c-1.562 1.562-1.562 4.093 0 5.656z" fill="#3b0e72" data-original="#000000" style=""/><path d="m135.698 227.999c2.209 0 4-1.791 4-4v-12c0-2.209-1.791-4-4-4s-4 1.791-4 4v12c0 2.209 1.791 4 4 4z" fill="#3b0e72" data-original="#000000" style=""/><path d="m159.698 207.999c-2.209 0-4 1.791-4 4v12c0 2.209 1.791 4 4 4s4-1.791 4-4v-12c0-2.209-1.791-4-4-4z" fill="#3b0e72" data-original="#000000" style=""/><path d="m247.698 255.999h-24v-96h16c2.209 0 4-1.791 4-4v-20c0-2.209-1.791-4-4-4h-63.96c10.561-17.118 19.905-36.996 19.772-48.549-.146-12.82-5.277-24.816-14.447-33.779-9.17-8.959-21.307-13.754-34.102-13.668-12.82.148-24.814 5.279-33.777 14.447-8.961 9.17-13.814 21.281-13.668 34.102.165 14.275 12.534 35.221 20.647 47.447h-64.465c-2.209 0-4 1.791-4 4v20c0 2.209 1.791 4 4 4h16v96h-24c-2.209 0-4 1.791-4 4s1.791 4 4 4h200c2.209 0 4-1.791 4-4s-1.791-4-4-4zm-12-116v12h-73.868c2.79-3.49 5.762-7.57 8.747-12zm-116.791-83.957c7.467-7.641 17.463-11.916 28.148-12.039.156-.002.314-.004.471-.004 10.51 0 20.418 4.037 27.945 11.395 7.643 7.467 11.918 17.463 12.039 28.148.232 20.221-30.594 63.426-39.178 71.643-8.771-8.018-40.584-50.502-40.816-70.727-.123-10.682 3.922-20.776 11.391-28.416zm-59.209 83.957h65.993c2.516 3.514 5.781 7.913 9.126 12h-75.119zm20 20h8v8c0 2.209 1.791 4 4 4s4-1.791 4-4v-8h8v8c0 2.209 1.791 4 4 4s4-1.791 4-4v-8h8v8c0 2.209 1.791 4 4 4s4-1.791 4-4v-8h8v8c0 2.209 1.791 4 4 4s4-1.791 4-4v-6.519c1.866 1.563 3.498 2.515 4.709 2.515h.027c.851-.01 1.958-.52 3.264-1.455v5.458c0 2.209 1.791 4 4 4s4-1.791 4-4v-8h8v8c0 2.209 1.791 4 4 4s4-1.791 4-4v-8h8v8c0 2.209 1.791 4 4 4s4-1.791 4-4v-8h8v8c0 2.209 1.791 4 4 4s4-1.791 4-4v-8h8v96h-28v-68c0-2.209-1.791-4-4-4h-72c-2.209 0-4 1.791-4 4v68h-28zm72 32h28v64h-28zm-8 64h-28v-64h28z" fill="#3b0e72" data-original="#000000" style=""/><path d="m179.698 83.999c0-17.645-14.355-32-32-32s-32 14.355-32 32 14.355 32 32 32 32-14.356 32-32zm-56 0c0-13.234 10.766-24 24-24s24 10.766 24 24-10.766 24-24 24-24-10.766-24-24z" fill="#3b0e72" data-original="#000000" style=""/><path d="m151.698 99.999v-20h4c2.209 0 4-1.791 4-4s-1.791-4-4-4h-4v-4c0-2.209-1.791-4-4-4s-4 1.791-4 4v4h-4c-2.209 0-4 1.791-4 4s1.791 4 4 4h4v20c0 2.209 1.791 4 4 4s4-1.791 4-4z" fill="#3b0e72" data-original="#000000" style=""/></g></g></svg>
