<?xml version="1.0"?>
<svg xmlns="http://www.w3.org/2000/svg" xmlns:xlink="http://www.w3.org/1999/xlink" xmlns:svgjs="http://svgjs.com/svgjs" version="1.1" width="512" height="512" x="0" y="0" viewBox="0 0 60 60" style="enable-background:new 0 0 512 512" xml:space="preserve" class=""><g><g xmlns="http://www.w3.org/2000/svg" id="Page-1" fill="none" fill-rule="evenodd"><g id="003---Borrowing-for-Mortgage" fill="rgb(0,0,0)" fill-rule="nonzero"><path id="Shape" d="m3 60h40c1.6568542 0 3-1.3431458 3-3v-22c0-1.6568542-1.3431458-3-3-3h-40c-1.65685425 0-3 1.3431458-3 3v22c0 1.6568542 1.34314575 3 3 3zm10-14c0-6.617 4.486-12 10-12s10 5.383 10 12-4.486 12-10 12-10-5.383-10-12zm.166 8h-3.266c-.4037626-1.9625893-1.93741073-3.4962374-3.9-3.9v-8.2c1.96258927-.4037626 3.4962374-1.9374107 3.9-3.9h3.267c-2.8879529 4.9423831-2.8879529 11.0576169 0 16zm19.668-16h3.266c.4037626 1.9625893 1.9374107 3.4962374 3.9 3.9v8.2c-1.9625893.4037626-3.4962374 1.9374107-3.9 3.9h-3.266c2.8879529-4.9423831 2.8879529-11.0576169 0-16zm10.166-4c.5522847 0 1 .4477153 1 1v22c0 .5522847-.4477153 1-1 1h-13.851c.8220179-.5744873 1.5717629-1.2460009 2.233-2h5.618c.5522847 0 1-.4477153 1-1 0-1.6568542 1.3431458-3 3-3 .5522847 0 1-.4477153 1-1v-10c0-.5522847-.4477153-1-1-1-1.6568542 0-3-1.3431458-3-3 0-.5522847-.4477153-1-1-1h-5.618c-.6612371-.7539991-1.4109821-1.4255127-2.233-2zm-41 1c0-.5522847.44771525-1 1-1h13.851c-.8220179.5744873-1.5717629 1.2460009-2.233 2h-5.618c-.55228475 0-1 .4477153-1 1 0 1.6568542-1.34314575 3-3 3-.55228475 0-1 .4477153-1 1v10c0 .5522847.44771525 1 1 1 1.65685425 0 3 1.3431458 3 3 0 .5522847.44771525 1 1 1h5.618c.6612371.7539991 1.4109821 1.4255127 2.233 2h-13.851c-.55228475 0-1-.4477153-1-1z" fill="#640b0b" data-original="#000000" style=""/><path id="Shape" d="m19 49.5c0-.5522847-.4477153-1-1-1s-1 .4477153-1 1c0 2.237 2.121 4.041 5 4.422v1.078c0 .5522847.4477153 1 1 1s1-.4477153 1-1v-1.047c3.019-.3 5.278-2.145 5.278-4.453s-2.259-4.154-5.278-4.453v-4.988c1.846.248 3.278 1.264 3.278 2.441 0 .5522847.4477153 1 1 1s1-.4477153 1-1c0-2.308-2.259-4.154-5.278-4.453v-1.047c0-.5522847-.4477153-1-1-1s-1 .4477153-1 1v1.078c-2.879.381-5 2.185-5 4.422s2.121 4.041 5 4.422v4.965c-1.707-.308-3-1.271-3-2.387zm8.278 0c0 1.177-1.432 2.193-3.278 2.441v-4.882c1.846.248 3.278 1.264 3.278 2.441zm-8.278-7c0-1.116 1.293-2.079 3-2.387v4.774c-1.707-.308-3-1.271-3-2.387z" fill="#640b0b" data-original="#000000" style=""/><path id="Shape" d="m20.16 22.982v6.018c0 .5522847.4477153 1 1 1s1-.4477153 1-1v-7.42l16-14.686 16 14.686v23.42c0 .5522847-.4477153 1-1 1h-4.16c-.5522847 0-1 .4477153-1 1s.4477153 1 1 1h4.16c1.6568542 0 3-1.3431458 3-3v-22.018c1.3388093.4009831 2.7768668-.1782807 3.4639271-1.3953042.6870602-1.2170234.4400749-2.7475639-.5949271-3.6866958l-4.869-4.464v-9.436c0-1.1045695-.8954305-2-2-2h-5c-1.1045695 0-2 .8954305-2 2v1.175l-4.67-4.286c-1.3401372-1.19108043-3.3626366-1.18029951-4.69.025l-18.509 16.991c-1.0310618.9397599-1.2755178 2.4675077-.5891709 3.6820714s2.1211949 1.7933409 3.4581709 1.3949286zm27-18.982h5v7.6l-5-4.589zm-28.516 15.378 18.5-16.978c.5630142-.51645866 1.4242523-.52722414 2-.025l13.3 12.207.021.019 5.208 4.78c.1957837.1793093.3122293.4291127.3236718.6943526.0114424.2652398-.0830576.5241434-.2626718.7196474-.3788354.395071-1.0015266.4219529-1.413.061l-17.485-16.056c-.3825472-.35140982-.9704528-.35140982-1.353 0l-17.483 16.051c-.4067577.3736206-1.0393794.3467577-1.413-.06s-.3467577-1.0393794.06-1.413z" fill="#640b0b" data-original="#000000" style=""/><path id="Shape" d="m31 21c0 3.8659932 3.1340068 7 7 7s7-3.1340068 7-7-3.1340068-7-7-7c-3.8641657.0044086-6.9955914 3.1358343-7 7zm6-4.9v3.9h-3.9c.404488-1.9621984 1.9378016-3.495512 3.9-3.9zm-3.9 5.9h3.9v3.9c-1.9621984-.404488-3.495512-1.9378016-3.9-3.9zm5.9 3.9v-3.9h3.9c-.404488 1.9621984-1.9378016 3.495512-3.9 3.9zm3.9-5.9h-3.9v-3.9c1.9621984.404488 3.495512 1.9378016 3.9 3.9z" fill="#640b0b" data-original="#000000" style=""/></g></g></g></svg>
