<?xml version="1.0"?>
<svg xmlns="http://www.w3.org/2000/svg" xmlns:xlink="http://www.w3.org/1999/xlink" xmlns:svgjs="http://svgjs.com/svgjs" version="1.1" width="512" height="512" x="0" y="0" viewBox="0 0 64 64" style="enable-background:new 0 0 512 512" xml:space="preserve"><g><g xmlns="http://www.w3.org/2000/svg"><path d="m32 0c-17.645 0-32 14.355-32 32s14.355 32 32 32 32-14.355 32-32-14.355-32-32-32zm0 62c-16.542 0-30-13.458-30-30s13.458-30 30-30 30 13.458 30 30-13.458 30-30 30z" fill="#d51212" data-original="#000000" style=""/><path d="m32 5c-6.264 0-12.36 2.188-17.167 6.159-.217.18-.348.442-.362.724-.013.281.093.555.292.754l36.6 36.6c.595.501 1.17.255 1.478-.07 3.972-4.807 6.159-10.903 6.159-17.167 0-14.888-12.112-27-27-27zm-5.368 14.079c.01-.004.02-.008.03-.012.951-.395 1.961-.685 3.004-.86.481-.081.834-.498.834-.986v-2.721c0-.827.673-1.5 1.5-1.5s1.5.673 1.5 1.5v2.72c0 .488.353.905.834.986 1.023.172 2.04.467 3.027.879.973.398 1.894.906 2.738 1.508.396.284.94.238 1.286-.105l1.935-1.925c.561-.565 1.542-.572 2.116.007.283.28.438.655.438 1.055s-.156.774-.444 1.06l-1.92 1.93c-.344.346-.388.889-.105 1.286.603.844 1.11 1.765 1.511 2.744.41.981.705 1.998.876 3.021.081.481.498.834.986.834h2.72c.827 0 1.5.673 1.5 1.5s-.673 1.5-1.5 1.5h-2.72c-.488 0-.905.353-.986.834-.175 1.039-.464 2.047-.859 3-.006.013-.01.026-.016.04-.242.588-.544 1.157-.874 1.715l-15.02-15.021c.603-.298 1.121-.733 1.467-1.259.346-.514.897-.809 1.51-.809s1.164.295 1.504.8c.846 1.285 2.45 1.944 3.929 1.631.549-.106 1.083.028 1.511.379.423.348.666.855.666 1.39 0 .111-.013.234-.039.354-.055.259-.081.509-.081.766 0 1.284.639 2.471 1.71 3.176.169.111.36.165.549.165.325 0 .644-.158.836-.45.304-.461.176-1.082-.286-1.385-.5-.329-.81-.905-.81-1.505 0-.12.012-.229.038-.354.054-.256.082-.514.082-.766 0-1.136-.509-2.206-1.396-2.935-.885-.728-2.04-1.019-3.18-.793-.757.16-1.463-.17-1.866-.781-.712-1.06-1.897-1.692-3.167-1.692s-2.455.632-3.175 1.7c-.269.409-.827.692-1.401.769l-2.513-2.513c.558-.331 1.129-.634 1.721-.877zm25.35 27.948-6.49-6.49c.313-.493.596-.996.849-1.512l2.827 1.169c.125.051.254.076.382.076.393 0 .765-.233.925-.618.211-.511-.032-1.095-.542-1.307l-2.814-1.164c.188-.55.357-1.108.485-1.682h1.896c1.93 0 3.5-1.57 3.5-3.5s-1.57-3.5-3.5-3.5h-1.898c-.128-.568-.3-1.128-.492-1.682l2.821-1.163c.51-.21.754-.795.543-1.306s-.795-.756-1.306-.543l-2.824 1.164c-.255-.524-.527-1.038-.837-1.527l1.336-1.343c.665-.658 1.031-1.538 1.031-2.476s-.366-1.817-1.024-2.469c-1.316-1.33-3.64-1.325-4.946-.005l-1.348 1.341c-.49-.31-1.003-.583-1.526-.837l1.164-2.823c.211-.511-.033-1.095-.543-1.306-.512-.212-1.096.033-1.306.543l-1.163 2.822c-.555-.192-1.115-.364-1.682-.492v-1.897c0-1.93-1.57-3.5-3.5-3.5s-3.5 1.57-3.5 3.5v1.897c-.574.128-1.133.297-1.682.485l-1.164-2.814c-.211-.51-.795-.751-1.307-.542-.51.211-.753.796-.542 1.307l1.169 2.827c-.517.253-1.02.536-1.512.849l-6.49-6.49c4.304-3.244 9.598-5.019 15.028-5.019 13.785 0 25 11.215 25 25 0 5.43-1.775 10.724-5.018 15.027z" fill="#d51212" data-original="#000000" style=""/><path d="m12.637 14.763c-.199-.199-.474-.304-.754-.292-.281.014-.544.145-.724.362-3.971 4.807-6.159 10.903-6.159 17.167 0 14.888 12.112 27 27 27 6.264 0 12.36-2.188 17.167-6.159.217-.18.348-.442.362-.724.013-.281-.093-.555-.292-.754zm24.731 30.158c-.01.004-.02.008-.03.012-.951.395-1.961.685-3.004.86-.481.081-.834.498-.834.986v2.72c0 .827-.673 1.5-1.5 1.5s-1.5-.673-1.5-1.5v-2.72c0-.488-.353-.905-.834-.986-1.023-.172-2.04-.467-3.027-.879-.973-.398-1.894-.906-2.738-1.508-.398-.285-.941-.24-1.286.105l-1.931 1.921c-.578.577-1.542.586-2.12-.003-.283-.28-.438-.655-.438-1.055s.156-.774.444-1.06l1.92-1.93c.344-.346.388-.889.105-1.286-.603-.844-1.11-1.765-1.511-2.744-.41-.981-.705-1.998-.876-3.021-.081-.481-.498-.834-.986-.834h-2.722c-.827 0-1.5-.673-1.5-1.5s.673-1.5 1.5-1.5h2.72c.488 0 .905-.353.986-.834.175-1.039.464-2.047.859-3 .006-.013.01-.026.016-.04.242-.588.544-1.157.874-1.715l15.033 15.033c-.609.3-1.14.733-1.478 1.248-.346.514-.897.809-1.51.809s-1.164-.295-1.504-.8c-.846-1.285-2.453-1.948-3.929-1.631-.547.106-1.083-.027-1.511-.379-.423-.348-.666-.855-.666-1.39 0-.111.013-.234.039-.354.055-.259.081-.509.081-.766 0-1.284-.639-2.471-1.701-3.169-.514-.347-.809-.898-.809-1.511 0-.552-.448-1-1-1s-1 .448-1 1c0 1.27.632 2.455 1.7 3.175.5.329.81.905.81 1.505 0 .12-.012.229-.038.354-.054.256-.082.514-.082.766 0 1.136.509 2.206 1.396 2.935.885.728 2.041 1.019 3.18.793.757-.159 1.464.17 1.866.781.713 1.059 1.898 1.691 3.168 1.691s2.455-.632 3.175-1.7c.247-.375.852-.692 1.399-.771l2.516 2.516c-.559.33-1.13.633-1.722.876zm-5.368 12.079c-13.785 0-25-11.215-25-25 0-5.43 1.775-10.724 5.018-15.027l6.49 6.49c-.313.493-.596.996-.849 1.512l-2.827-1.169c-.511-.209-1.095.032-1.307.542-.211.511.032 1.095.542 1.307l2.814 1.164c-.188.55-.357 1.108-.485 1.682h-1.896c-1.93 0-3.5 1.57-3.5 3.5s1.57 3.5 3.5 3.5h1.898c.128.568.3 1.128.492 1.682l-2.821 1.163c-.51.21-.754.795-.543 1.306.159.386.532.619.925.619.127 0 .256-.024.381-.076l2.824-1.164c.255.524.527 1.038.837 1.527l-1.336 1.343c-.665.658-1.031 1.538-1.031 2.476s.366 1.817 1.021 2.465c.648.661 1.55 1.04 2.475 1.04.931 0 1.811-.367 2.475-1.031l1.348-1.341c.49.31 1.003.583 1.526.837l-1.164 2.823c-.211.511.033 1.095.543 1.306.125.052.254.076.381.076.393 0 .766-.233.925-.619l1.163-2.822c.555.192 1.115.364 1.682.492v1.897c0 1.93 1.57 3.5 3.5 3.5s3.5-1.57 3.5-3.5v-1.897c.574-.128 1.133-.297 1.682-.485l1.164 2.814c.16.385.532.618.925.618.127 0 .257-.025.382-.076.51-.211.753-.796.542-1.307l-1.169-2.827c.517-.253 1.02-.536 1.512-.849l6.49 6.49c-4.305 3.244-9.599 5.019-15.029 5.019z" fill="#d51212" data-original="#000000" style=""/><circle cx="28" cy="37" r="1" fill="#d51212" data-original="#000000" style=""/><circle cx="36" cy="27" r="1" fill="#d51212" data-original="#000000" style=""/><circle cx="42" cy="33" r="1" fill="#d51212" data-original="#000000" style=""/></g></g></svg>
