<?xml version="1.0"?>
<svg xmlns="http://www.w3.org/2000/svg" xmlns:xlink="http://www.w3.org/1999/xlink" xmlns:svgjs="http://svgjs.com/svgjs" version="1.1" width="512" height="512" x="0" y="0" viewBox="0 0 512 512" style="enable-background:new 0 0 512 512" xml:space="preserve"><g><g xmlns="http://www.w3.org/2000/svg"><path d="m509.069 238.93c-1.859-1.86-4.439-2.93-7.069-2.93h-38.5v-170c0-5.523-4.478-10-10-10h-395c-5.523 0-10 4.477-10 10v170h-38.5c-2.63 0-5.21 1.07-7.07 2.93s-2.93 4.44-2.93 7.07v160c0 3.53 1.8 6.72 4.82 8.55l66 40c1.58.96 3.33 1.45 5.18 1.45h360c1.85 0 3.6-.49 5.18-1.45l66-40c3.021-1.83 4.82-5.02 4.82-8.55v-35c0-5.51-4.49-10-10-10s-9.99 4.48-10 9.99v.01 29.37l-46 27.879v-62.249c0-5.523-4.478-10-10-10h-151.72c1.11-3.13 1.72-6.494 1.72-10 0-16.542-13.458-30-30-30s-30 13.458-30 30c0 3.506.61 6.87 1.72 10h-151.72c-5.523 0-10 4.477-10 10v62.249l-46-27.879v-144.37h472v25c0 5.51 4.49 10 10 10s10-4.49 10-10v-35c0-2.63-1.07-5.21-2.931-7.07zm-263.069 107.07c0-5.514 4.486-10 10-10s10 4.486 10 10-4.486 10-10 10-10-4.486-10-10zm-160 30h340v60h-340zm-17.5-140v-160h375v160z" fill="#cd1515" data-original="#000000" style=""/><circle cx="502" cy="326" r="10" fill="#cd1515" data-original="#000000" style=""/><path d="m199.5 276c-5.523 0-10 4.477-10 10s4.477 10 10 10h34c5.523 0 10-4.477 10-10s-4.477-10-10-10z" fill="#cd1515" data-original="#000000" style=""/><path d="m357.5 276c-5.522 0-10 4.477-10 10s4.478 10 10 10h34c5.522 0 10-4.477 10-10s-4.478-10-10-10z" fill="#cd1515" data-original="#000000" style=""/><path d="m164.5 286c0-5.523-4.477-10-10-10h-34c-5.523 0-10 4.477-10 10s4.477 10 10 10h34c5.523 0 10-4.477 10-10z" fill="#cd1515" data-original="#000000" style=""/><path d="m278.5 276c-5.522 0-10 4.477-10 10s4.478 10 10 10h34c5.522 0 10-4.477 10-10s-4.478-10-10-10z" fill="#cd1515" data-original="#000000" style=""/><circle cx="121" cy="326" r="10" fill="#cd1515" data-original="#000000" style=""/><circle cx="76" cy="326" r="10" fill="#cd1515" data-original="#000000" style=""/><path d="m391.5 396h-34c-5.522 0-10 4.477-10 10s4.478 10 10 10h34c5.522 0 10-4.477 10-10s-4.478-10-10-10z" fill="#cd1515" data-original="#000000" style=""/><path d="m312.5 396h-34c-5.522 0-10 4.477-10 10s4.478 10 10 10h34c5.522 0 10-4.477 10-10s-4.478-10-10-10z" fill="#cd1515" data-original="#000000" style=""/><path d="m154.5 396h-34c-5.523 0-10 4.477-10 10s4.477 10 10 10h34c5.523 0 10-4.477 10-10s-4.477-10-10-10z" fill="#cd1515" data-original="#000000" style=""/><path d="m233.5 396h-34c-5.523 0-10 4.477-10 10s4.477 10 10 10h34c5.523 0 10-4.477 10-10s-4.477-10-10-10z" fill="#cd1515" data-original="#000000" style=""/><path d="m408.7 152.206c3.031-4.685 4.8-10.262 4.8-16.25 0-16.518-13.409-29.956-29.891-29.956h-25.109c-5.522 0-10 4.477-10 10v90c0 2.66 1.06 5.21 2.945 7.087 1.874 1.866 4.411 2.913 7.055 2.913h.046c.24-.001 24.155-.11 30.699-.11 18.889 0 34.255-15.676 34.255-34.945 0-11.901-5.866-22.426-14.8-28.739zm-40.2-26.206h15.109c5.454 0 9.891 4.466 9.891 9.956s-4.437 9.956-9.891 9.956c-2.808 0-9.385.023-15.109.046zm20.745 69.89c-3.782 0-13.287.036-20.745.067v-29.957h20.745c7.86 0 14.255 6.704 14.255 14.945s-6.395 14.945-14.255 14.945z" fill="#cd1515" data-original="#000000" style=""/><path d="m318.5 116c-5.522 0-10 4.477-10 10v31.72c-3.13-1.11-6.494-1.72-10-1.72-16.542 0-30 13.458-30 30s13.458 30 30 30c4.626 0 9.01-1.054 12.926-2.932 1.81 1.811 4.311 2.932 7.074 2.932 5.522 0 10-4.477 10-10v-80c0-5.523-4.478-10-10-10zm-20 80c-5.514 0-10-4.486-10-10s4.486-10 10-10 10 4.486 10 10-4.486 10-10 10z" fill="#cd1515" data-original="#000000" style=""/><path d="m158.5 131c0-19.299-15.701-35-35-35-16.688 0-31.131 11.871-34.343 28.227-1.064 5.419 2.466 10.675 7.885 11.74 5.417 1.065 10.675-2.466 11.74-7.885 1.375-7 7.565-12.082 14.718-12.082 8.271 0 15 6.729 15 15s-6.729 15-15 15c-5.523 0-10 4.477-10 10 0 5.348 4.46 9.716 9.741 9.987 8.271 0 15.259 6.742 15.259 15.013s-6.729 15-15 15c-7.443 0-13.829-5.544-14.855-12.897-.096-.688-.145-1.396-.145-2.103 0-5.523-4.477-10-10-10s-10 4.477-10 10c0 1.629.114 3.269.337 4.869 2.397 17.177 17.299 30.131 34.663 30.131 19.299 0 35-15.701 35-35 0-9.786-4.042-18.642-10.539-25 6.497-6.358 10.539-15.214 10.539-25z" fill="#cd1515" data-original="#000000" style=""/><path d="m238.503 196.024c-.046 0-.092 0-.138.001-9.766.132-20.172.216-28.516.225 5.125-7.342 12.587-18.254 23.053-34.369 5.722-8.809 9.445-17.098 11.067-24.636.219-.936.69-4.206.673-5.897 0-19.353-14.934-35.097-33.29-35.097-15.806 0-29.458 11.762-32.613 28.029-1.036 5.342 2.243 10.759 7.551 11.956 5.579 1.258 11.033-2.386 12.048-7.96 1.27-6.968 6.744-12.025 13.015-12.025 5.38 0 10.024 3.651 12.112 8.886.988 2.476 1.229 5.189.915 7.836-.039.327-.093.646-.172.965-1.226 4.949-3.94 10.679-8.078 17.049-14.43 22.218-23.042 34.369-27.668 40.896-5.795 8.178-7.964 11.237-6.26 16.657.99 3.147 3.373 5.604 6.537 6.741 1.407.505 36.967.917 49.897.742 5.522-.075 9.938-4.612 9.864-10.134-.075-5.477-4.537-9.865-9.997-9.865z" fill="#cd1515" data-original="#000000" style=""/></g></g></svg>
