<?xml version="1.0"?>
<svg xmlns="http://www.w3.org/2000/svg" xmlns:xlink="http://www.w3.org/1999/xlink" xmlns:svgjs="http://svgjs.com/svgjs" version="1.1" width="512" height="512" x="0" y="0" viewBox="0 0 512 512.08755" style="enable-background:new 0 0 512 512" xml:space="preserve"><g><path xmlns="http://www.w3.org/2000/svg" d="m221.910156 469.347656c0 4.710938-3.820312 8.53125-8.53125 8.53125-4.714844 0-8.535156-3.820312-8.535156-8.53125 0-4.714844 3.820312-8.535156 8.535156-8.535156 4.710938 0 8.53125 3.820312 8.53125 8.535156zm0 0" fill="#097228" data-original="#000000" style=""/><path xmlns="http://www.w3.org/2000/svg" d="m358.445312 366.945312c0 4.714844-3.820312 8.535157-8.535156 8.535157-4.710937 0-8.53125-3.820313-8.53125-8.535157 0-4.710937 3.820313-8.53125 8.53125-8.53125 4.714844 0 8.535156 3.820313 8.535156 8.53125zm0 0" fill="#097228" data-original="#000000" style=""/><path xmlns="http://www.w3.org/2000/svg" d="m474.722656 327.136719c5.0625-11.617188 7.757813-24.128907 7.929688-36.800781-.042969-3.859376-2.667969-7.210938-6.40625-8.171876-1.511719-.386718-37.378906-9.328124-60.550782 8.847657-4.132812 3.285156-7.703124 7.214843-10.582031 11.636719-3.433593-9.375-8.230469-18.1875-14.242187-26.15625-1.828125-2.4375-4.820313-3.714844-7.847656-3.351563-3.027344.363281-5.628907 2.316406-6.828126 5.121094-1.195312 2.800781-.808593 6.03125 1.023438 8.472656 10.253906 13.355469 16.101562 29.574219 16.722656 46.402344-.261718 1.621093-.488281 3.167969-.652344 4.59375-.632812-.421875-1.253906-.828125-1.933593-1.28125-10.039063-7.773438-22.347657-12.046875-35.042969-12.171875-17.40625-1.265625-34.199219 6.683594-44.246094 20.949218-9.496094-6.828124-20.011718-12.105468-31.160156-15.632812-.839844-2.132812-2.511719-3.832031-4.628906-4.707031l-36.234375-14.484375c-7.492188-2.976563-16.046875-.328125-20.539063 6.367187l-6.125 9.1875v-31.324219c46.519532-9.933593 83.992188-44.320312 97.875-89.820312h13.058594c14.128906-.015625 25.582031-11.46875 25.597656-25.601562-.015625-10.824219-6.859375-20.464844-17.078125-24.042969.011719-2.671875.011719-5.179688.011719-5.820313-1.289062-83.605468-69.992188-150.398437-153.601562-149.3359372-83.605469-1.0624998-152.308594 65.7304692-153.597657 149.3359372 0 .640625 0 3.136719.011719 5.800782-3.570312 1.210937-6.808594 3.234374-9.460938 5.910156-4.90625 4.761718-7.660156 11.316406-7.617187 18.152344.015625 14.132812 11.46875 25.585937 25.597656 25.601562h13.050781c13.882813 45.5 51.359376 79.886719 97.882813 89.820312v31.324219l-6.125-9.1875c-4.496094-6.683593-13.039063-9.335937-20.53125-6.375l-36.242187 14.492188c-2.046876.859375-3.675782 2.488281-4.527344 4.535156-46.269532 14.433594-77.746094 57.320313-77.6406252 105.789063v51.203124c.015625 14.128907 11.4687502 25.582032 25.6015622 25.597657h307.199219c5.855469-.042969 11.511719-2.125 15.996094-5.886719 5.988281 3.585938 12.785156 5.609375 19.757812 5.886719 10.359375.5625 20.640625-2.039063 29.484375-7.457031 4.238281-3.476563 10.34375-3.476563 14.582031 0 8.847657 5.417968 19.132813 8.019531 29.492188 7.457031 28.5 0 69.886719-42.414063 69.886719-108.882813 0-43.105468-12.253907-68.097656-37.320313-75.992187zm-48.496094-22.691407c11.574219-9.074218 29.277344-8.277343 38.917969-6.984374-1.042969 9.683593-4.507812 27.042968-16.085937 36.117187h-.007813c-11.386719 7.0625-25.015625 9.585937-38.179687 7.074219.09375-1.722656.132812-3.640625.117187-5.675782 1.308594-11.65625 6.710938-22.476562 15.238281-30.53125zm-192.523437 21.800782 27.050781 10.816406-48.484375 83.109375-22.46875-28.085937zm-28.859375-172.632813h59.734375v8.53125c-.015625 14.132813-11.46875 25.585938-25.601563 25.601563h-8.53125c-14.132812-.015625-25.585937-11.46875-25.601562-25.601563zm69.484375-13.96875c-2.855469-2.015625-6.257813-3.097656-9.75-3.097656h-59.734375c-2.230469 0-4.4375.441406-6.496094 1.300781-11.59375-7.394531-26.429687-7.359375-37.992187.085938-2.117188-.917969-4.402344-1.386719-6.710938-1.386719h-59.734375c-3.492187 0-6.894531 1.082031-9.75 3.097656l-20.894531 7.917969c.257813-.972656.449219-1.988281.734375-2.941406 7.464844-17.007813 27.648438-56.105469 58.609375-64.839844 16.011719-4.511719 33.394531-.285156 51.742187 12.554688.058594.042968.128907.042968.1875.085937.578126.339844 1.195313.605469 1.835938.796875.398438.191406.8125.347656 1.238281.476562 1.085938.039063 2.175781.039063 3.261719 0 .425781-.128906.839844-.285156 1.238281-.476562.640625-.191406 1.257813-.457031 1.835938-.796875.058593-.039063.128906-.039063.1875-.085937 18.34375-12.839844 35.730469-17.074219 51.742187-12.554688 30.90625 8.714844 51.082032 47.699219 58.582032 64.765625l.015624.035156c.296876.980469.484376 1.984375.753907 2.984375zm-180.417969 13.96875h59.734375v8.53125c-.015625 14.132813-11.46875 25.585938-25.601562 25.601563h-8.53125c-14.132813-.015625-25.585938-11.46875-25.601563-25.601563zm230.402344 34.132813h-9.53125c.070312-.539063.203125-1.050782.261719-1.589844.480469-4.324219.722656-8.667969.734375-13.019531 0-.804688-.097656-1.644531-.117188-2.457031h8.652344c2.300781-.003907 4.5.941406 6.082031 2.617187 1.585938 1.554687 2.46875 3.691406 2.449219 5.914063-.003906 4.714843-3.820312 8.53125-8.53125 8.535156zm-145.070312-170.667969c74.1875-1.074219 135.253906 58.085937 136.535156 132.269531v4.265625h-1.71875c-.128906-.785156-.175782-1.546875-.320313-2.332031-.84375-4.175781-1.859375-8.226562-3.027343-12.019531-.046876-.160157-.167969-.273438-.230469-.429688-.0625-.160156-.035157-.328125-.101563-.476562-10.238281-23.542969-32.933594-64.585938-69.867187-75-21.171875-5.234375-43.578125-.898438-61.269531 11.859375-17.6875-12.765625-40.09375-17.105469-61.265626-11.863282-36.933593 10.417969-59.625 51.457032-69.867187 75-.0625.144532-.042969.320313-.097656.472657-.054688.148437-.1875.269531-.238281.4375-1.21875 4.003906-2.238282 8.066406-3.050782 12.175781-.132812.726562-.179687 1.449219-.296875 2.171875h-1.714843c0-2.019531 0-3.753906 0-4.265625 1.28125-74.183594 62.347656-133.339844 136.53125-132.265625zm-145.066407 170.667969c-4.710937-.003906-8.527343-3.820313-8.53125-8.535156-.003906-2.300782.941407-4.5 2.617188-6.082032 1.582031-1.601562 3.75-2.488281 6-2.449218h8.5625c-.015625.816406-.113281 1.648437-.113281 2.457031.011718 4.367187.257812 8.726562.734374 13.066406.058594.523437.1875 1.023437.253907 1.542969zm26.234375-3.410156c-.410156-3.71875-.621094-7.457032-.632812-11.199219 0-2.007813.160156-4.058594.289062-6.105469l16.777344-6.355469v1.46875c.027344 23.554688 19.113281 42.640625 42.667969 42.667969h8.53125c23.554687-.027344 42.640625-19.113281 42.667969-42.667969v-8.53125c-.027344-.632812-.09375-1.265625-.191407-1.890625 5.390625-3.109375 12.007813-3.1875 17.46875-.207031-.113281.691406-.183593 1.394531-.210937 2.097656v8.53125c.027344 23.554688 19.113281 42.640625 42.667968 42.667969h8.53125c23.554688-.027344 42.640626-19.113281 42.667969-42.667969v-1.46875l16.777344 6.355469c.128906 2.046875.289063 4.101562.289063 6.105469-.011719 3.726562-.222657 7.449219-.632813 11.152343-6.257813 55.480469-57.351563 97.324219-118.835937 97.324219-61.480469 0-112.574219-41.84375-118.832032-97.277343zm101.765625 113.257812c5.664063.6875 11.363281 1.050781 17.066407 1.085938 5.707031-.035157 11.40625-.398438 17.070312-1.085938v53.964844l-17.070312 25.601562-17.066407-25.601562zm-37.390625 28.648438 43.902344 65.851562-22.46875 28.078125-48.484375-83.109375zm-107.675781 160.171874v-51.203124c-.089844-41.078126 26.636719-77.410157 65.878906-89.5625l54.75 93.867187c1.417969 2.433594 3.945313 4.007813 6.753907 4.210937.203124.011719.410156.019532.617187.019532 2.59375 0 5.046875-1.175782 6.667969-3.199219l18.933594-23.667969v78.066406h-145.066407c-4.710937-.003906-8.53125-3.820312-8.535156-8.53125zm170.667969 8.53125v-78.066406l18.933594 23.667969c1.621093 2.023437 4.074218 3.199219 6.667968 3.199219.207032 0 .414063-.007813.625-.023438 2.804688-.203125 5.332032-1.777344 6.75-4.210937l54.703125-93.777344c10.476563 3.300781 20.285157 8.417969 28.988281 15.121094-4.15625 13.695312-6.089843 27.964843-5.734374 42.273437-1.074219 34.019532 11.539062 67.050782 35.007812 91.699219-.289062.054687-.582031.09375-.875.117187zm254.378906 0c-7.34375.53125-14.664062-1.273437-20.917969-5.15625-9.558593-6.546874-22.15625-6.546874-31.714843 0-6.257813 3.882813-13.582032 5.691407-20.925782 5.15625-5.996094-.46875-11.710937-2.753906-16.378906-6.550781-.152344-.109375-.242188-.273437-.402344-.375l-.132812-.046875c-17.253906-12.816406-35.90625-42.777344-35.90625-84.84375 0-54.300781 19.484375-61.78125 40.535156-61.78125 9.292969.15625 18.269531 3.414063 25.507812 9.25 5.464844 4.539063 12.207032 7.269532 19.289063 7.816406h.019531c2.171875-.050781 4.328125-.378906 6.414063-.976562 4.542969.636719 9.128906.960938 13.71875.96875 13.679687.542969 27.160156-3.464844 38.324219-11.390625 1.863281-1.488281 3.605468-3.121094 5.214843-4.878906 11.488281 1.75 30.175781 9.535156 30.175781 60.992187 0 56.957032-34.199218 91.816406-52.820312 91.816406zm0 0" fill="#097228" data-original="#000000" style=""/><path xmlns="http://www.w3.org/2000/svg" d="m349.910156 401.078125c0-4.710937-3.820312-8.53125-8.53125-8.53125-4.714844 0-8.535156 3.820313-8.535156 8.53125 0 1.476563.109375 36.359375 9.433594 55.019531 1.363281 2.726563 4.078125 4.519532 7.121094 4.699219 3.042968.183594 5.953124-1.269531 7.632812-3.816406 1.679688-2.542969 1.875-5.792969.511719-8.519531-5.296875-15.222657-7.878907-31.261719-7.632813-47.382813zm0 0" fill="#097228" data-original="#000000" style=""/></g></svg>
