<?xml version="1.0" encoding="UTF-8"?>
<svg width="32px" height="32px" viewBox="0 0 32 32" version="1.1" xmlns="http://www.w3.org/2000/svg" xmlns:xlink="http://www.w3.org/1999/xlink">
    <!-- Generator: Sketch 43.2 (39069) - http://www.bohemiancoding.com/sketch -->
    <title>Metarubrick / Automotive / Oil</title>
    <desc>Created with Sketch.</desc>
    <defs></defs>
    <g id="Page-1" stroke="none" stroke-width="1" fill="none" fill-rule="evenodd">
        <g id="New-meta-draft" transform="translate(-384.000000, -1584.000000)">
            <g id="Slice" transform="translate(84.000000, 84.000000)"></g>
            <g id="Icon" transform="translate(51.000000, 42.000000)" stroke-width="2" stroke="#319CFE">
                <g id="Automotive" transform="translate(21.000000, 1494.000000)">
                    <g id="Oil" transform="translate(319.000000, 49.000000)">
                        <polyline id="Stroke-1" points="3 3 3 0 8 0 8 3"></polyline>
                        <path d="M0,26 L0,8 C0,6.896 0.896,6 2,6 L9.758,6 C10.553,6 11.316,6.316 11.879,6.879 L17.121,12.121 C17.684,12.684 18,13.447 18,14.242 L18,26 C18,28.209 16.209,30 14,30 L4,30 C1.791,30 0,28.209 0,26 Z" id="Stroke-3"></path>
                        <path d="M12,21 C12,18 9,15 9,15 C9,15 6,18 6,21 C6,22.657 7.343,24 9,24 C10.657,24 12,22.657 12,21 Z" id="Stroke-5"></path>
                    </g>
                </g>
            </g>
        </g>
    </g>
</svg>