<?xml version="1.0"?>
<svg xmlns="http://www.w3.org/2000/svg" xmlns:xlink="http://www.w3.org/1999/xlink" xmlns:svgjs="http://svgjs.com/svgjs" version="1.1" width="512" height="512" x="0" y="0" viewBox="0 0 512.025 512.025" style="enable-background:new 0 0 512 512" xml:space="preserve"><g><g xmlns="http://www.w3.org/2000/svg"><path d="m433.083 113.235c-31.11-67.262-99.023-113.222-177.07-113.222-107.523 0-195 87.477-195 195 0 38.951 16.173 68.79 31.813 97.647 14.495 26.746 28.188 52.009 28.188 83.353v136h210v-46c0-24.813 20.187-45 45-45h75v-96.974l60.966-32.314c-4.614-10.436-74.215-167.897-78.897-178.49zm40.163 165.066-52.233 27.686v85.026h-45c-41.355 0-75 33.645-75 75v16h-150v-106c0-38.951-16.173-68.79-31.813-97.647-14.495-26.746-28.188-52.009-28.188-83.353 0-90.981 74.019-165 165-165 64.06 0 122.843 37.564 149.79 95.704z" fill="#d31212" data-original="#000000" style=""/><path d="m480.206 4.406-40.606 40.607 30 30-19.394 19.393 21.213 21.213 40.606-40.606-30-30 19.394-19.394z" fill="#d31212" data-original="#000000" style=""/><path d="m40.606 115.619 21.213-21.213-19.393-19.393 30-30-40.607-40.607-21.213 21.213 19.394 19.394-30 30z" fill="#d31212" data-original="#000000" style=""/><path d="m256.013 60.013c-74.439 0-135 60.561-135 135v15h92.58c6.192 17.459 22.865 30 42.42 30s36.228-12.541 42.42-30h92.58v-15c0-74.44-60.561-135-135-135zm0 30c23.55 0 45.31 7.798 62.845 20.942l-43.456 43.456c-5.875-2.817-12.45-4.398-19.389-4.398-19.555 0-36.228 12.541-42.42 30h-61.512c7.301-50.817 51.127-90 103.932-90zm0 120c-8.271 0-15-6.729-15-15s6.729-15 15-15 15 6.729 15 15-6.729 15-15 15zm42.42-30c-.532-1.5-1.135-2.967-1.818-4.389l43.456-43.456c10.302 13.744 17.321 30.082 19.873 47.845z" fill="#d31212" data-original="#000000" style=""/></g></g></svg>
