<?xml version="1.0"?>
<svg xmlns="http://www.w3.org/2000/svg" xmlns:xlink="http://www.w3.org/1999/xlink" xmlns:svgjs="http://svgjs.com/svgjs" version="1.1" width="512" height="512" x="0" y="0" viewBox="0 0 512 512" style="enable-background:new 0 0 512 512" xml:space="preserve" class=""><g><path xmlns="http://www.w3.org/2000/svg" d="m424.184 188.943-13.95-.26v-9.632c0-8.52-6.932-15.451-15.451-15.451h-17.193v-7.079c0-10.712-8.715-19.427-19.427-19.427h-13.323v-37.223c0-14.719-11.975-26.694-26.694-26.694-4.192 0-8.16.974-11.694 2.704v-49.187c-.002-14.719-11.977-26.694-26.697-26.694s-26.694 11.975-26.694 26.694v24.552c-3.534-1.73-7.502-2.704-11.694-2.704s-8.16.974-11.694 2.704v-24.552c-.001-14.719-11.976-26.694-26.696-26.694s-26.694 11.975-26.694 26.694v24.552c-3.534-1.73-7.502-2.704-11.694-2.704-14.72 0-26.695 11.975-26.695 26.695v14.545c0 4.142 3.357 7.5 7.5 7.5s7.5-3.358 7.5-7.5v-14.545c0-6.449 5.246-11.695 11.695-11.695 6.448 0 11.694 5.246 11.694 11.695v61.857h-23.39v-14.626c0-4.142-3.357-7.5-7.5-7.5s-7.5 3.358-7.5 7.5v14.626h-13.322c-10.713 0-19.428 8.715-19.428 19.427v7.079h-17.193c-8.521 0-15.452 6.931-15.452 15.451v33.985c0 8.52 6.932 15.451 15.452 15.451h17.193v7.079c0 10.712 8.715 19.427 19.428 19.427h119.647c4.143 0 7.5-3.358 7.5-7.5s-3.357-7.5-7.5-7.5h-119.647c-2.441 0-4.428-1.986-4.428-4.427v-79.045c0-2.441 1.986-4.427 4.428-4.427h233.591c2.44 0 4.427 1.986 4.427 4.427v79.045c0 2.441-1.986 4.427-4.427 4.427h-81.258c-4.143 0-7.5 3.358-7.5 7.5s3.357 7.5 7.5 7.5h81.258c10.712 0 19.427-8.715 19.427-19.427v-7.079h17.193c8.52 0 15.451-6.931 15.451-15.451v-9.351l13.714.256c.286.007.555.17.555.453v73.996c0 .17-.094.323-.242.4l-180.661 69.029c-.064.025-.129.05-.193.077-5.794 2.4-9.538 8.003-9.538 14.275v23.442h-23.333c-4.143 0-7.5 3.358-7.5 7.5s3.357 7.5 7.5 7.5h7.584l-6.419 79.218c-.669 8.26 2.169 16.491 7.787 22.583s13.594 9.586 21.881 9.586 16.262-3.494 21.88-9.586 8.457-14.323 7.787-22.583l-2.048-25.273c-.336-4.127-3.927-7.204-8.081-6.87-4.129.335-7.204 3.953-6.87 8.082l2.048 25.273c.337 4.157-1.034 8.136-3.862 11.202s-6.683 4.755-10.854 4.755c-4.172 0-8.026-1.689-10.855-4.755-2.828-3.066-4.199-7.044-3.862-11.202l6.518-80.43h16.398l1.829 22.574c.318 3.923 3.6 6.895 7.468 6.895.202 0 .407-.008.613-.025 4.129-.334 7.204-3.953 6.87-8.081l-1.731-21.363h7.583c4.143 0 7.5-3.358 7.5-7.5s-3.357-7.5-7.5-7.5h-23.332v-23.442c0-.17.094-.323.242-.4l180.66-69.029c.065-.024.129-.05.192-.076 5.795-2.4 9.54-8.003 9.54-14.276v-73.996c.001-8.46-6.865-15.378-15.317-15.451zm-336.234 24.545c-.249 0-.452-.203-.452-.451v-33.985c0-.249.203-.451.452-.451h17.193v34.888h-17.193zm230.195-125.312c6.448 0 11.694 5.246 11.694 11.694v37.224h-23.389v-37.223c0-6.449 5.246-11.695 11.695-11.695zm-50.085-61.482c0-6.448 5.246-11.694 11.694-11.694 6.449 0 11.695 5.246 11.695 11.694v110.4h-23.39v-110.4zm-26.694 36.848c6.448 0 11.694 5.246 11.694 11.695v61.857h-23.389v-61.857c.001-6.448 5.247-11.695 11.695-11.695zm-50.083-36.848c0-6.448 5.246-11.694 11.694-11.694s11.694 5.246 11.694 11.694v110.4h-23.389v-110.4zm203.95 186.343c0 .249-.202.451-.451.451h-17.193v-34.888h17.193c.249 0 .451.203.451.451z" fill="#bd1616" data-original="#000000" style=""/></g></svg>
