<svg xmlns="http://www.w3.org/2000/svg" width="32" height="32" viewBox="0 0 32 32">
    <path fill="#319CFE" fill-rule="evenodd" d="M31.047 9.105l-.895 1.79L16.69 4.164a1.566 1.566 0 0 0-1.378 0l-13.464 6.73-.895-1.789 13.464-6.73a3.604 3.604 0 0 1 3.168 0l13.463 6.73zM20 23h4v-2h-4v2zM8 23h4v-2H8v2zm2-4h12v-2H10v2zm16 8c0 .552-.449 1-1 1h-2v-2H9v2H7c-.552 0-1-.448-1-1v-5.764c0-.998.554-1.896 1.447-2.341l.455-.227.853-5.12a.997.997 0 0 1 .81-.82c1.564-.271 4.481-.727 6.435-.727 1.954 0 4.87.456 6.435.728a.997.997 0 0 1 .81.819l.852 5.12.455.227A2.604 2.604 0 0 1 26 21.236V27zm-.092-9.63l-.692-4.15a2.998 2.998 0 0 0-2.438-2.463c-1.989-.345-4.78-.756-6.778-.756-1.999 0-4.789.412-6.779.757a2.998 2.998 0 0 0-2.438 2.462l-.692 4.15a4.588 4.588 0 0 0-2.09 3.866V27c0 1.654 1.344 3 3 3h2c1.102 0 2-.898 2-2h10c0 1.102.896 2 2 2h2c1.653 0 3-1.346 3-3v-5.764c0-1.58-.79-3.02-2.093-3.866z"/>
</svg>
