<svg width="32" height="32" viewBox="0 0 32 32" fill="none" xmlns="http://www.w3.org/2000/svg">
<path fill-rule="evenodd" clip-rule="evenodd" d="M12 17V19H7.99998V17H12ZM18 15H9.99998V13H20L18 15ZM24 13H23.8194L23.245 9.548C23.175 9.129 22.849 8.801 22.435 8.729C20.87 8.457 17.954 8.001 16 8.001C14.046 8.001 11.129 8.457 9.56498 8.728C9.14998 8.8 8.82498 9.13 8.75498 9.548L7.90198 14.668L7.44698 14.895C6.55398 15.34 5.99998 16.238 5.99998 17.236V23C5.99998 23.552 6.44798 24 6.99998 24H8.99998V22H15C15 22.6874 15.0771 23.3568 15.223 24H11.001C11.001 25.102 10.103 26 9.00098 26H7.00098C5.34498 26 4.00098 24.654 4.00098 23V17.236C4.00098 15.655 4.78898 14.216 6.09098 13.37L6.78298 9.22C6.99098 7.965 7.97098 6.976 9.22098 6.758C11.211 6.413 14.001 6.001 16 6.001C17.998 6.001 20.789 6.412 22.778 6.757C24.028 6.975 25.008 7.964 25.216 9.22L25.836 13H24ZM24 17C21.2386 17 19 19.2386 19 22C19 24.7614 21.2386 27 24 27C26.7614 27 29 24.7614 29 22C29 19.2386 26.7614 17 24 17ZM17 22C17 18.134 20.134 15 24 15C27.866 15 31 18.134 31 22C31 25.866 27.866 29 24 29C20.134 29 17 25.866 17 22ZM26.8682 19.4961L24.8682 22.9961C24.6049 23.4569 24.0275 23.6318 23.5528 23.3944L20.5528 21.8944L21.4472 20.1056L23.6011 21.1825L25.1318 18.5039L26.8682 19.4961Z" fill="#319CFE"/>
</svg>
