<?xml version="1.0"?>
<svg xmlns="http://www.w3.org/2000/svg" xmlns:xlink="http://www.w3.org/1999/xlink" xmlns:svgjs="http://svgjs.com/svgjs" version="1.1" width="512" height="512" x="0" y="0" viewBox="0 0 135.47 135.47" style="enable-background:new 0 0 512 512" xml:space="preserve" class=""><g><g xmlns="http://www.w3.org/2000/svg" stroke-linecap="round" stroke-width="1.007" transform="matrix(.993 0 0 .993 815.03 813.28)"><path d="m-742.71-810.51c-24.28 0-44.06 19.75-44.06 44.04 0 7.41 1.87 14.63 5.36 21.08l-13.65 2.85a3.199 3.1989 0 0 0 -1.38 5.6l8.42 6.96-18.26 18.09a3.199 3.1989 0 0 0 .21 4.75l17.78 14.63a3.199 3.1989 0 0 0 4.72-.72l13.97-21.61 9.33 7.67a3.199 3.1989 0 0 0 5.22-2.48l-.02-14.55c3.99 1.17 8.18 1.79 12.36 1.79 24.31 0 44.09-19.76 44.09-44.06 0-24.29-19.78-44.04-44.09-44.04zm0 6.4c20.88 0 37.7 16.82 37.7 37.64 0 20.84-16.82 37.66-37.7 37.66-4.21 0-8.39-.72-12.39-2.11l-.03-16.04a3.199 3.1989 0 0 0 -3.86-3.12l-15.81 3.3c-3.62-5.91-5.57-12.71-5.57-19.69 0-20.82 16.82-37.64 37.66-37.64zm-18.81 61.09.05 26.6-6.85-5.62a3.199 3.1989 0 0 0 -4.72.72l-13.94 21.59-12.29-10.1 18.26-18.1a3.199 3.1989 0 0 0 -.21-4.75l-6.03-4.95z" stroke-linejoin="round" stroke-width=".267" paint-order="fill markers stroke" fill="#0b9b14" data-original="#000000" style="" class=""/><path d="m-743.05-790.38a3.2163 3.1813 0 0 0 -3.23 3.17v2.5c-3.68 1.04-6.71 3.68-7.75 7.55l-.03.02v.03c-.83 3.36.16 6.88 2.53 9.44 2.4 2.63 5.44 3.65 7.86 4.47 2.4.8 4.22 1.5 5.18 2.35.88.99 1.22 2.34.96 3.49-.78 2.72-3.98 4.19-7.73 2.8-1.34-.69-2.3-1.97-2.48-3.12a3.2163 3.1813 0 0 0 -3.71-2.61 3.2163 3.1813 0 0 0 -2.64 3.65c.59 3.44 2.88 6.29 6.03 7.84l.13.08.13.05c.51.19 1.02.35 1.52.51v2.45a3.2163 3.1813 0 0 0 3.23 3.17 3.2163 3.1813 0 0 0 3.2-3.17v-2.32c4.02-.88 7.41-3.6 8.55-7.7v-.08c.86-3.36-.13-6.91-2.56-9.47l-.13-.13c-2.4-2.26-5.28-3.04-7.6-3.81s-4.07-1.52-5.17-2.72l-.02-.03c-.96-1.01-1.31-2.42-1.04-3.59.77-2.7 3.97-4.19 7.75-2.8 1.34.69 2.27 1.97 2.46 3.12a3.2163 3.1813 0 0 0 3.7 2.61 3.2163 3.1813 0 0 0 2.64-3.65c-.56-3.42-2.88-6.29-6.02-7.87l-.14-.05-.1-.05c-.78-.3-1.55-.51-2.32-.67v-2.29a3.2163 3.1813 0 0 0 -3.2-3.17z" stroke-width="1.07" fill="#0b9b14" data-original="#000000" style="" class=""/></g></g></svg>
