<?xml version="1.0"?>
<svg xmlns="http://www.w3.org/2000/svg" xmlns:xlink="http://www.w3.org/1999/xlink" xmlns:svgjs="http://svgjs.com/svgjs" version="1.1" width="512" height="512" x="0" y="0" viewBox="0 0 128 128" style="enable-background:new 0 0 512 512" xml:space="preserve"><g><path xmlns="http://www.w3.org/2000/svg" d="m102.314 63.1a38.314 38.314 0 1 0 -65.095 27.374c-.033.353-.054.709-.054 1.07a11.73 11.73 0 1 0 8.889-11.32 24.815 24.815 0 1 1 35.89 0 11.661 11.661 0 1 0 8.891 11.321c0-.361-.021-.717-.054-1.07a38.446 38.446 0 0 0 11.533-27.375zm-45.314 28.444a8.169 8.169 0 1 1 -8.169-8.169 8.178 8.178 0 0 1 8.169 8.169zm22.165 8.168a8.169 8.169 0 1 1 8.168-8.168 8.178 8.178 0 0 1 -8.166 8.168zm6.192-18.04a28.044 28.044 0 0 0 6.957-18.572 28.314 28.314 0 1 0 -49.676 18.574 11.725 11.725 0 0 0 -4.338 4.883 34.814 34.814 0 1 1 51.4 0 11.731 11.731 0 0 0 -4.341-4.885z" fill="#16bfa7" data-original="#000000" style=""/></g></svg>
