<?xml version="1.0"?>
<svg xmlns="http://www.w3.org/2000/svg" xmlns:xlink="http://www.w3.org/1999/xlink" xmlns:svgjs="http://svgjs.com/svgjs" version="1.1" width="512" height="512" x="0" y="0" viewBox="0 0 512 512" style="enable-background:new 0 0 512 512" xml:space="preserve" class=""><g><path xmlns="http://www.w3.org/2000/svg" d="m503.298 354.549h-31.31c-2.777-5.628-8.576-9.509-15.265-9.509h-30.722c-6.689 0-12.489 3.881-15.266 9.509h-5.34v-76.319c0-38.468-31.296-69.764-69.764-69.764h-1.275c.006-.184.01-.368.01-.553v-17.304c0-8.576-6.977-15.553-15.553-15.553h-7.349v-12.675c0-6.829-5.557-12.386-12.386-12.386h-21.818v-25.765h5.813c6.829 0 12.386-5.557 12.386-12.386v-12.85h42.14c12.697 0 23.027-10.33 23.027-23.026 0-12.697-10.33-23.027-23.027-23.027h-8.587c-4.143 0-7.5 3.357-7.5 7.5s3.357 7.5 7.5 7.5h8.587c4.427 0 8.027 3.601 8.027 8.027s-3.601 8.026-8.027 8.026c-54.386 0-108.814 0-163.195 0-4.427 0-8.027-3.601-8.027-8.026 0-4.427 3.601-8.027 8.027-8.027h119.608c4.143 0 7.5-3.357 7.5-7.5s-3.357-7.5-7.5-7.5h-119.61c-12.697 0-23.027 10.33-23.027 23.027 0 12.696 10.33 23.026 23.027 23.026h42.14v12.852c0 6.829 5.557 12.386 12.386 12.386h5.813v25.765h-21.818c-6.829 0-12.386 5.557-12.386 12.386v12.675h-7.349c-8.576 0-15.553 6.977-15.553 15.553v17.304c0 .185.003.369.01.553h-.289c-38.469 0-69.765 31.296-69.765 69.765v76.318h-6.326c-2.777-5.628-8.577-9.509-15.266-9.509h-30.722c-6.689 0-12.488 3.881-15.265 9.509h-32.512c-4.143 0-7.5 3.357-7.5 7.5v80c0 4.143 3.357 7.5 7.5 7.5h32.511c2.777 5.629 8.577 9.511 15.266 9.511h30.722c6.69 0 12.49-3.882 15.267-9.511h31.56c38.469 0 69.765-31.296 69.765-69.765v-76.318h56.42c4.143 0 7.5-3.357 7.5-7.5s-3.357-7.5-7.5-7.5h-61.611c-5.409 0-9.81 4.4-9.81 9.81v81.509c0 30.197-24.567 54.765-54.765 54.765h-29.815v-65h9.771c5.409 0 9.81-4.401 9.81-9.811v-81.511c0-30.197 24.567-54.765 54.765-54.765h158.275c30.197 0 54.764 24.567 54.764 54.764v81.509c0 5.409 4.4 9.811 9.809 9.811l8.786.001v64.999h-28.83c-30.197 0-54.765-24.567-54.765-54.765v-81.509c0-5.409-4.401-9.81-9.811-9.81h-21.573c-4.143 0-7.5 3.357-7.5 7.5s3.357 7.5 7.5 7.5h16.384v76.318c0 38.469 31.296 69.765 69.765 69.765h30.575c2.777 5.629 8.577 9.511 15.267 9.511h30.722c6.69 0 12.49-3.882 15.266-9.511h31.309c4.799 0 8.702-3.903 8.702-8.702v-77.596c-.001-4.798-3.904-8.701-8.703-8.701zm-488.298 15h23.267v65h-23.267zm38.267 72.5v-79.998c0-1.108.902-2.011 2.011-2.011h7.861v84.02h-7.861c-1.109 0-2.011-.903-2.011-2.011zm32.732 2.011h-7.86v-84.02h7.86c1.109 0 2.012.902 2.012 2.011v79.998c0 1.108-.903 2.011-2.012 2.011zm145.543-345.066h48.916v10.237c-14.9 0-34.075 0-48.916 0zm18.198 25.237h12.52v25.765h-12.52zm-34.204 40.765h80.928v10.061h-80.928zm-22.348 43.47c-.305 0-.553-.248-.553-.553v-17.304c0-.305.248-.553.553-.553h125.625c.305 0 .553.248.553.553v17.304c0 .305-.248.553-.553.553zm263.535 235.594h-7.861v-23.742c0-4.143-3.357-7.5-7.5-7.5s-7.5 3.357-7.5 7.5v23.742h-7.86c-1.109 0-2.012-.902-2.012-2.011v-79.998c0-1.108.902-2.011 2.012-2.011h7.86v25.277c0 4.143 3.357 7.5 7.5 7.5s7.5-3.357 7.5-7.5v-25.277h7.861c1.108 0 2.011.902 2.011 2.011v79.998c-.001 1.108-.903 2.011-2.011 2.011zm40.277-9.511h-23.267v-65h23.267z" fill="#b7119d" data-original="#000000" style="" class=""/></g></svg>
