<?xml version="1.0"?>
<svg xmlns="http://www.w3.org/2000/svg" xmlns:xlink="http://www.w3.org/1999/xlink" xmlns:svgjs="http://svgjs.com/svgjs" version="1.1" width="512" height="512" x="0" y="0" viewBox="0 0 512 512" style="enable-background:new 0 0 512 512" xml:space="preserve"><g><g xmlns="http://www.w3.org/2000/svg"><path d="m286.436 378.394c-8.13 8.129-18.939 12.606-30.436 12.606s-22.305-4.477-30.435-12.606c-5.858-5.859-15.355-5.857-21.213 0s-5.858 15.355 0 21.213c13.795 13.795 32.138 21.393 51.648 21.393s37.853-7.598 51.648-21.394c5.858-5.857 5.858-15.355 0-21.213-5.857-5.857-15.355-5.857-21.212.001z" fill="#141eb1" data-original="#000000" style=""/><path d="m198.334 210.394c-5.857-5.857-15.355-5.857-21.213 0-10.126 10.125-26.603 10.125-36.729 0-5.857-5.857-15.355-5.857-21.213 0s-5.858 15.355 0 21.213c10.911 10.912 25.244 16.367 39.577 16.367s28.666-5.455 39.577-16.367c5.859-5.858 5.859-15.356.001-21.213z" fill="#141eb1" data-original="#000000" style=""/><path d="m371.607 210.394c-10.126 10.125-26.603 10.125-36.729 0-5.857-5.857-15.355-5.857-21.213 0s-5.858 15.355 0 21.213c10.911 10.912 25.244 16.367 39.577 16.367s28.666-5.455 39.577-16.367c5.858-5.857 5.858-15.355 0-21.213-5.857-5.858-15.355-5.858-21.212 0z" fill="#141eb1" data-original="#000000" style=""/><path d="m256 145c8.284 0 15-6.716 15-15v-25c0-8.284-6.716-15-15-15s-15 6.716-15 15v25c0 8.284 6.716 15 15 15z" fill="#141eb1" data-original="#000000" style=""/><path d="m256 230c8.284 0 15-6.716 15-15v-25c0-8.284-6.716-15-15-15s-15 6.716-15 15v25c0 8.284 6.716 15 15 15z" fill="#141eb1" data-original="#000000" style=""/><path d="m256 350c8.284 0 15-6.716 15-15v-60c0-8.284-6.716-15-15-15s-15 6.716-15 15v60c0 8.284 6.716 15 15 15z" fill="#141eb1" data-original="#000000" style=""/><path d="m179.807 315.232c-8.337-1.422-16.333-2.99-23.766-4.662-8.081-1.814-16.108 3.261-17.925 11.344-1.818 8.082 3.261 16.107 11.343 17.926 7.94 1.785 16.454 3.456 25.305 4.965.854.146 1.702.216 2.54.216 7.177 0 13.521-5.168 14.769-12.48 1.391-8.168-4.1-15.917-12.266-17.309z" fill="#141eb1" data-original="#000000" style=""/><path d="m355.96 310.57c-7.433 1.672-15.429 3.24-23.766 4.662-8.166 1.392-13.657 9.142-12.265 17.308 1.247 7.313 7.591 12.48 14.769 12.48.837 0 1.687-.07 2.539-.216 8.851-1.509 17.364-3.18 25.305-4.965 8.082-1.817 13.161-9.844 11.344-17.926s-9.84-13.157-17.926-11.343z" fill="#141eb1" data-original="#000000" style=""/><path d="m460.494 206.418c-.665-10.321-1.99-20.617-3.992-30.743-9.482-48.791-34.413-93.23-70.2-125.135-36.558-32.591-82.833-50.54-130.302-50.54-47.468 0-93.744 17.949-130.302 50.54-35.787 31.904-60.718 76.344-70.191 125.088-2.008 10.159-3.335 20.466-4.001 30.79-29.386 6.23-51.506 32.368-51.506 63.582 0 35.841 29.159 65 65 65 2.509 0 4.999-.157 7.468-.44 14.36 39.873 35.033 77.559 59.148 107.124 37.523 46.002 80.534 70.316 124.384 70.316s86.86-24.314 124.384-70.316c24.117-29.566 44.791-67.254 59.149-107.124 2.469.283 4.959.44 7.468.44 35.841 0 65-29.159 65-65-.001-31.214-22.121-57.352-51.507-63.582zm-430.494 63.582c0-14.534 8.906-27.024 21.517-32.308 1.147 18.521 4.225 38.013 9.208 58.163.748 3.033 1.541 6.064 2.368 9.091-18.415-.994-33.093-16.287-33.093-34.946zm393.28 13.945c-3.955 3.07-8.688 6.03-14.141 8.827-7.371 3.782-10.281 12.822-6.5 20.193 2.101 4.094 5.825 6.804 9.983 7.764-13.236 38.059-32.701 74.059-55.486 101.992-19.471 23.87-49.383 51.773-86.137 57.993v-13.714c0-8.284-6.716-15-15-15s-15 6.716-15 15v13.715c-36.753-6.22-66.665-34.123-86.136-57.993-22.784-27.932-42.249-63.93-55.486-101.993 4.157-.96 7.881-3.67 9.981-7.763 3.781-7.37.872-16.411-6.499-20.192-5.452-2.798-10.185-5.757-14.14-8.827-5.123-22.02-7.72-42.982-7.72-62.375 0-13.406 1.325-26.906 3.947-40.174 16.003-82.336 80.357-143.481 156.054-150.683v14.285c0 8.284 6.716 15 15 15s15-6.716 15-15v-14.285c75.697 7.203 140.052 68.35 156.062 150.731 2.612 13.217 3.938 26.718 3.938 40.126 0 19.388-2.596 40.346-7.72 62.373zm25.627 21.001c.826-3.024 1.619-6.051 2.366-9.081 4.984-20.154 8.062-39.645 9.21-58.161 12.624 5.291 21.517 17.773 21.517 32.296 0 18.659-14.678 33.952-33.093 34.946z" fill="#141eb1" data-original="#000000" style=""/></g></g></svg>
