<?xml version="1.0"?>
<svg xmlns="http://www.w3.org/2000/svg" xmlns:xlink="http://www.w3.org/1999/xlink" xmlns:svgjs="http://svgjs.com/svgjs" version="1.1" width="512" height="512" x="0" y="0" viewBox="0 0 512 512" style="enable-background:new 0 0 512 512" xml:space="preserve"><g><g xmlns="http://www.w3.org/2000/svg" id="OUTLINE"><path d="M491.06152,48.60889a7.99918,7.99918,0,0,0-8.71875,1.73437l-176,176A8.00038,8.00038,0,0,0,312,240H488a8.00008,8.00008,0,0,0,8-8V56A8.00015,8.00015,0,0,0,491.06152,48.60889ZM331.31348,224,480,75.314V112h-8v16h8v24h-8v16h8v24h-8v16h8v16Z" fill="#c97810" data-original="#000000" style=""/><path d="M451.06152,136.60889a7.99954,7.99954,0,0,0-8.71875,1.73437l-56,56A8.00038,8.00038,0,0,0,392,208h56a8.00008,8.00008,0,0,0,8-8V144A8.00015,8.00015,0,0,0,451.06152,136.60889ZM440,192H411.31348L440,163.31348Z" fill="#c97810" data-original="#000000" style=""/><path d="M216.84473,91.57764,227.05566,112H216v16h16V240h16V128h16V240h16V128h16V112H284.94434l10.21093-20.42236a8.00053,8.00053,0,0,0,0-7.15528l-32-64a7.99971,7.99971,0,0,0-14.31054,0l-32,64A8.00053,8.00053,0,0,0,216.84473,91.57764ZM248,57.88867V88h16V57.88867L279.05566,88l-11.99975,24H244.94409L232.94434,88Z" fill="#c97810" data-original="#000000" style=""/><path d="M47.0293,186.34326A24,24,0,0,0,88,169.37256V163.314l4-4L165.37207,232.686a24.97074,24.97074,0,0,0,35.31445-35.31348L127.314,124l4-4h6.05909a24,24,0,0,0,16.9707-40.97021L128.9707,53.65674A24,24,0,0,0,88,70.62744V76.686L44.686,120H38.627a24,24,0,0,0-16.9707,40.97021ZM189.37207,208.686a8.97038,8.97038,0,1,1-12.68555,12.68652L103.314,148,116,135.314ZM106.34375,64.97021a8.00771,8.00771,0,0,1,11.3125,0L143.0293,90.34326A8,8,0,0,1,137.37305,104H131.314L104,76.686v-6.0586A7.94677,7.94677,0,0,1,106.34375,64.97021ZM96,91.31348,116.68652,112,80,148.68652,59.31348,128ZM32.9707,138.34326A7.94524,7.94524,0,0,1,38.627,136H44.686L72,163.314v6.0586a8,8,0,0,1-13.65625,5.65723l-25.373-25.373A8.00889,8.00889,0,0,1,32.9707,138.34326Z" fill="#c97810" data-original="#000000" style=""/><path d="M32,256a224.9794,224.9794,0,0,1,6.56836-54.0752l-15.5293-3.8496A240.726,240.726,0,0,0,50.5625,380.14355l13.68555-8.2871A223.61592,223.61592,0,0,1,32,256Z" fill="#c97810" data-original="#000000" style=""/><path d="M452.2207,364.13232l14.00586,7.73536A240.23943,240.23943,0,0,0,496,256H480A224.18762,224.18762,0,0,1,452.2207,364.13232Z" fill="#c97810" data-original="#000000" style=""/><path d="M421.51855,82.20752a238.10848,238.10848,0,0,0-132.4248-63.94336l-2.1875,15.84961A222.20126,222.20126,0,0,1,410.4834,93.79248Z" fill="#c97810" data-original="#000000" style=""/><path d="M225.09375,34.11377l-2.1875-15.84961a238.11038,238.11038,0,0,0-74.49707,23.14648l7.18164,14.29786A222.14734,222.14734,0,0,1,225.09375,34.11377Z" fill="#c97810" data-original="#000000" style=""/><path d="M446.32617,387.06689A40.01167,40.01167,0,0,0,416,369.38623V272a8.00044,8.00044,0,0,0-6.26465-7.80957l-26.37207-5.86035a207.0642,207.0642,0,0,0-94.64941,1.24512l-58.71778,14.67968a189.68585,189.68585,0,0,1-106.165-4.07715l-17.30078-5.76709A8.00022,8.00022,0,0,0,96,272V396.82874l-30.7832-4.736-2.4336,15.814,89.73633,13.80615a40.02495,40.02495,0,0,0,31.68848-8.80615L212.2207,389.5625A24.04812,24.04812,0,0,1,227.58594,384h67.043A24.04166,24.04166,0,0,1,272,400H240a7.99986,7.99986,0,0,0-3.15137,15.353l42.3584,18.15381a39.92836,39.92836,0,0,0,33.64551-.98877l89.459-44.7295a24.05473,24.05473,0,0,1,25.42774,2.49317l-134.05567,84.6665a24.00937,24.00937,0,0,1-16.209,3.4668l-95.81836-13.688a39.98389,39.98389,0,0,0-11.3125,0L62.86816,480.08057l2.26368,15.83886,107.47363-15.35351a24.03,24.03,0,0,1,6.78906,0l95.81641,13.688a40.0142,40.0142,0,0,0,27.0166-5.77832l142.04394-89.71143a7.99979,7.99979,0,0,0,2.38672-11.19873ZM283.69385,368h-55.3877A31.69961,31.69961,0,0,1,224,352a32,32,0,0,1,64,0A31.70026,31.70026,0,0,1,283.69385,368ZM384,379.05566V360H368v27.05566l-62.30371,31.15186a23.94859,23.94859,0,0,1-20.18652.59326l-7.56348-3.2417A40.06492,40.06492,0,0,0,312,376a8.00008,8.00008,0,0,0-8-8h-2.73047a48.00091,48.00091,0,1,0-89.28662,3.18066,39.96025,39.96025,0,0,0-10.00439,6.09034l-28.01368,23.34423a24.01406,24.01406,0,0,1-19.01269,5.28321L144,404.21338V376H128v25.752l-16-2.46167V283.09961l6.77148,2.25684A205.68412,205.68412,0,0,0,233.877,289.77734l58.71778-14.67968a190.95374,190.95374,0,0,1,87.29785-1.14844L400,278.41748v93.03a39.99926,39.99926,0,0,0-4.84473,2.03052Z" fill="#c97810" data-original="#000000" style=""/><path d="M184.00293,328l-.00586-16H183.917a190.20035,190.20035,0,0,1-45.98144-5.647A8.0002,8.0002,0,0,0,128,314.11523V352h16V324.0957A206.23511,206.23511,0,0,0,183.917,328Z" fill="#c97810" data-original="#000000" style=""/><path d="M377.50781,289.18994a206.10372,206.10372,0,0,0-49.93945-3.39306l.86328,15.97656a190.17039,190.17039,0,0,1,39.56836,2V336h16V297.04639A7.99934,7.99934,0,0,0,377.50781,289.18994Z" fill="#c97810" data-original="#000000" style=""/><path d="M160.96582,358.60938l-1.93164,15.88281A206.68416,206.68416,0,0,0,183.9541,375.999q4.19238,0,8.37207-.1709l-.65234-15.98632A190.52684,190.52684,0,0,1,160.96582,358.60938Z" fill="#c97810" data-original="#000000" style=""/><path d="M319.24512,334.41553l1.50976,15.92871a190.49349,190.49349,0,0,1,30.707-.41651l1.07618-15.96386A206.7187,206.7187,0,0,0,319.24512,334.41553Z" fill="#c97810" data-original="#000000" style=""/></g></g></svg>
