<?xml version="1.0"?>
<svg xmlns="http://www.w3.org/2000/svg" xmlns:xlink="http://www.w3.org/1999/xlink" xmlns:svgjs="http://svgjs.com/svgjs" version="1.1" width="512" height="512" x="0" y="0" viewBox="0 0 64 64" style="enable-background:new 0 0 512 512" xml:space="preserve" class=""><g><g xmlns="http://www.w3.org/2000/svg"><path d="m14.001 35h2c0-2.206-1.794-4-4-4s-4 1.794-4 4h2c0-1.103.897-2 2-2s2 .897 2 2z" fill="#9ba70a" data-original="#000000" style=""/><path d="m22.001 31c-2.206 0-4 1.794-4 4h2c0-1.103.897-2 2-2s2 .897 2 2h2c0-2.206-1.794-4-4-4z" fill="#9ba70a" data-original="#000000" style=""/><path d="m20.001 38.838c-.432 1.293-1.637 2.162-3 2.162s-2.569-.869-3-2.16l-.051-.154-1.898.627.052.156c.703 2.112 2.672 3.53 4.897 3.53s4.193-1.418 4.896-3.527l.052-.154-1.896-.638z" fill="#9ba70a" data-original="#000000" style=""/><path d="m54.409 11.009c-1.753-5.933-7.156-10.009-13.409-10.009-5.505 0-10.398 3.155-12.691 8.097-.432-.058-.868-.097-1.309-.097-3.986 0-7.579 2.384-9.157 6h-4.88c-6.597 0-11.963 5.367-11.963 11.963 0 1.799.43 3.566 1.208 5.181-.743.727-1.207 1.737-1.207 2.856 0 2.206 1.794 4 4 4h.059c.432 3.886 3.345 7.035 7.118 7.814-.724.867-1.178 1.968-1.178 3.184v6.002c0 3.86 3.141 7 7 7h6.999 18.001c2.206 0 4-1.794 4-4v-.908l1.94-10.671c.04-.221.06-.444.06-.669 0-2.069-1.684-3.752-3.752-3.752h-2.115l-2 14h-6.133v-1c0-1.654-1.346-3-3-3h-5.078c-.339-2.723-2.037-5.115-4.499-6.341 3.478-.974 6.11-3.982 6.519-7.66h.059c2.206 0 4-1.794 4-4 0-1.091-.442-2.08-1.153-2.803l.037-.061c.576-.959.928-2.03 1.055-3.136h2.06v11h2v-10.999h2v9h2v-9h2v12h2v-12h2v10h2v-10h2v12h2v-12h1c.338 0 .671-.022 1-.059v10.059h2v-10.525c3.49-1.239 6-4.565 6-8.475 0-4.825-3.817-8.776-8.591-8.991zm-51.408 23.991c0-1.103.897-2 2-2v4c-1.103 0-2-.897-2-2zm41.866 10h.381c.966 0 1.752.786 1.752 1.752 0 .105-.01.211-.027.313l-1.808 9.935h-2.012zm-12.867 10c.552 0 1 .449 1 1v1h-4v-1c0-.352-.072-.685-.184-1zm-3 5v-1h11.847 4.153c0 1.103-.897 2-2 2h-14.184c.112-.314.184-.648.184-1zm-2.998-5c.551.002.998.45.998 1v4c0 .551-.448 1-1 1h-8c-2.757 0-5-2.243-5-5v-6.001c0-1.649 1.338-2.99 2.986-2.998h.014.014c1.648.008 2.986 1.349 2.986 2.998l-.001 3.698-1.831 2.748 1.664 1.109 1.702-2.554h5.466zm-1.088-2h-3.915l.001-3.001c0-.694-.143-1.355-.4-1.956l.367.138c2.095.785 3.589 2.654 3.947 4.819zm-4.913-8h-1.819-2.167c-.005 0-.01-.001-.014-.001s-.011.001-.015.001h-1.985c-3.859 0-7-3.14-7-7l-.001-10.162c0-1.565 1.273-2.838 2.838-2.838.562 0 1.106.165 1.574.477 3.458 2.305 7.482 3.523 11.637 3.523h2.951c.351 0 .688-.061 1-.171l.001 9.171c0 3.859-3.141 7-7 7zm9-8v-4c1.103 0 2 .897 2 2s-.897 2-2 2zm-.957-15.542 1.249 1.249c1.101 1.101 1.707 2.565 1.707 4.122v1.28c0 1.057-.287 2.094-.83 2.999l-.044.073c-.359-.106-.732-.181-1.125-.181h-.001v-5c0-1.654-1.346-3-3-3h-1v2h1c.552 0 1 .449 1 1s-.448 1-1 1h-2.951c-3.759 0-7.399-1.102-10.527-3.188-.798-.531-1.726-.812-2.684-.812-2.668 0-4.838 2.17-4.838 4.838v3.162c-.367 0-.715.066-1.053.159-.61-1.313-.947-2.742-.947-4.196 0-5.493 4.47-9.963 9.963-9.963h18.229c.997 0 1.808.811 1.808 1.808 0 .831-.563 1.552-1.369 1.754zm25.956 5.542h-21v-.171c0-1.526-.434-2.985-1.243-4.237l.358-.089c1.698-.426 2.885-1.945 2.885-3.695 0-2.1-1.708-3.808-3.808-3.808h-11.1c1.411-2.435 4.026-4 6.907-4 2.272 0 4.445.972 5.963 2.667l1.49-1.334c-1.138-1.271-2.575-2.209-4.153-2.762 2.034-4.024 6.121-6.571 10.701-6.571 5.591 0 10.389 3.802 11.669 9.247l.19.807.981-.046c.054-.004.106-.008.16-.008 3.859 0 7 3.14 7 7s-3.141 7-7 7z" fill="#9ba70a" data-original="#000000" style=""/><path d="m35 42h2v2h-2z" fill="#9ba70a" data-original="#000000" style=""/><path d="m39 40h2v2h-2z" fill="#9ba70a" data-original="#000000" style=""/><path d="m47 41h2v2h-2z" fill="#9ba70a" data-original="#000000" style=""/><path d="m51 43h2v2h-2z" fill="#9ba70a" data-original="#000000" style=""/><path d="m55 41h2v2h-2z" fill="#9ba70a" data-original="#000000" style=""/><path d="m41 5c-.749 0-1.496.083-2.222.248l.443 1.95c.581-.131 1.178-.198 1.779-.198 3.762 0 6.971 2.559 7.802 6.222l1.951-.443c-1.04-4.58-5.051-7.779-9.753-7.779z" fill="#9ba70a" data-original="#000000" style=""/></g></g></svg>
