<?xml version="1.0"?>
<svg xmlns="http://www.w3.org/2000/svg" xmlns:xlink="http://www.w3.org/1999/xlink" xmlns:svgjs="http://svgjs.com/svgjs" version="1.1" width="512" height="512" x="0" y="0" viewBox="0 0 512 512" style="enable-background:new 0 0 512 512" xml:space="preserve" class=""><g><g xmlns="http://www.w3.org/2000/svg"><path d="m391 76v90c0 64.1-45 117.66-105 131.375v-252.375c0-8.286 6.716-15 15-15h45v-30h-180v30h45c8.284 0 15 6.714 15 15v252.375c-60-13.715-105-67.275-105-131.375v-90c0-24.853-20.147-45-45-45h-76v30h46c8.284 0 15 6.714 15 15v90c0 97.467 71.585 177.993 165 192.457v108.543c0 8.284-6.716 15-15 15h-45v30h180v-30h-45c-8.284 0-15-6.716-15-15v-108.543c93.415-14.464 165-94.99 165-192.457v-90c0-8.286 6.716-15 15-15h46v-30h-76c-24.853 0-45 20.147-45 45z" fill="#076411" data-original="#000000" style="" class=""/></g></g></svg>
