<?xml version="1.0"?>
<svg xmlns="http://www.w3.org/2000/svg" xmlns:xlink="http://www.w3.org/1999/xlink" xmlns:svgjs="http://svgjs.com/svgjs" version="1.1" width="512" height="512" x="0" y="0" viewBox="0 0 295.239 295.239" style="enable-background:new 0 0 512 512" xml:space="preserve"><g>
<g xmlns="http://www.w3.org/2000/svg">
	<g>
		<g>
			<path d="M278.871,285.715v-0.001l-54.848-90.338v-0.005c-11.748-19.343-30.79-33.548-52.59-39.605v-51.005h38.971     c1.971,5.529,7.21,9.524,13.41,9.524c7.876,0,14.286-6.41,14.286-14.286c0-7.876-6.41-14.286-14.286-14.286     c-6.2,0-11.438,3.995-13.41,9.524h-38.976h-4.762v-52.38c0-5.933-2.786-11.176-7.052-14.671c2.876-3,4.671-7.048,4.671-11.519     C164.286,7.476,156.81,0,147.619,0s-16.667,7.476-16.667,16.667c0,4.471,1.795,8.519,4.671,11.519     c-4.267,3.495-7.052,8.738-7.052,14.671v52.381h-4.762H84.838c-1.971-5.529-7.21-9.524-13.41-9.524     c-7.876,0-14.286,6.41-14.286,14.286s6.41,14.286,14.286,14.286c6.2,0,11.438-3.995,13.41-9.524h38.971v51.005     c-21.805,6.052-40.848,20.262-52.595,39.61l-54.848,90.338H4.762v9.524h5.824h274.067h5.824v-9.524H278.871z M223.81,95.238     c2.624,0,4.762,2.133,4.762,4.762c0,2.629-2.138,4.762-4.762,4.762c-2.624,0-4.762-2.133-4.762-4.762     C219.048,97.371,221.186,95.238,223.81,95.238z M71.429,104.762c-2.624,0-4.762-2.133-4.762-4.762     c0-2.629,2.138-4.762,4.762-4.762c2.624,0,4.762,2.133,4.762,4.762C76.191,102.629,74.052,104.762,71.429,104.762z      M147.619,9.524c3.938,0,7.143,3.205,7.143,7.143s-3.205,7.143-7.143,7.143s-7.143-3.205-7.143-7.143     S143.681,9.524,147.619,9.524z M138.095,42.857c0-5.252,4.271-9.524,9.524-9.524s9.524,4.271,9.524,9.524v52.381h-19.048V42.857z      M133.333,153.367v-48.605h28.571v48.605v18.062h-9.524V123.81h-9.523v47.619h-9.524V153.367z M27.51,285.714l51.848-85.395     c10.043-16.538,26.024-28.957,44.452-34.738v5.848h-9.524v9.524h9.524h47.619h9.524v-9.524h-9.524v-5.848     c18.429,5.781,34.414,18.2,44.452,34.738v-0.005l51.848,85.4H27.51z" fill="#1e3db9" data-original="#000000" style=""/>
			<circle cx="100" cy="200" r="4.762" fill="#1e3db9" data-original="#000000" style=""/>
			<circle cx="147.619" cy="247.619" r="4.762" fill="#1e3db9" data-original="#000000" style=""/>
			<circle cx="219.048" cy="233.333" r="4.762" fill="#1e3db9" data-original="#000000" style=""/>
			<circle cx="171.429" cy="195.238" r="4.762" fill="#1e3db9" data-original="#000000" style=""/>
			<circle cx="195.238" cy="276.19" r="4.762" fill="#1e3db9" data-original="#000000" style=""/>
			<circle cx="76.19" cy="247.619" r="4.762" fill="#1e3db9" data-original="#000000" style=""/>
			<circle cx="114.286" cy="261.905" r="4.762" fill="#1e3db9" data-original="#000000" style=""/>
			<circle cx="123.81" cy="228.571" r="4.762" fill="#1e3db9" data-original="#000000" style=""/>
			<circle cx="228.571" cy="261.905" r="4.762" fill="#1e3db9" data-original="#000000" style=""/>
			<circle cx="47.619" cy="276.19" r="4.762" fill="#1e3db9" data-original="#000000" style=""/>
			<circle cx="142.857" cy="190.476" r="4.762" fill="#1e3db9" data-original="#000000" style=""/>
		</g>
	</g>
</g>
<g xmlns="http://www.w3.org/2000/svg">
</g>
<g xmlns="http://www.w3.org/2000/svg">
</g>
<g xmlns="http://www.w3.org/2000/svg">
</g>
<g xmlns="http://www.w3.org/2000/svg">
</g>
<g xmlns="http://www.w3.org/2000/svg">
</g>
<g xmlns="http://www.w3.org/2000/svg">
</g>
<g xmlns="http://www.w3.org/2000/svg">
</g>
<g xmlns="http://www.w3.org/2000/svg">
</g>
<g xmlns="http://www.w3.org/2000/svg">
</g>
<g xmlns="http://www.w3.org/2000/svg">
</g>
<g xmlns="http://www.w3.org/2000/svg">
</g>
<g xmlns="http://www.w3.org/2000/svg">
</g>
<g xmlns="http://www.w3.org/2000/svg">
</g>
<g xmlns="http://www.w3.org/2000/svg">
</g>
<g xmlns="http://www.w3.org/2000/svg">
</g>
</g></svg>
