<?xml version="1.0"?>
<svg xmlns="http://www.w3.org/2000/svg" xmlns:xlink="http://www.w3.org/1999/xlink" xmlns:svgjs="http://svgjs.com/svgjs" version="1.1" width="512" height="512" x="0" y="0" viewBox="0 0 512 512" style="enable-background:new 0 0 512 512" xml:space="preserve" class=""><g><g xmlns="http://www.w3.org/2000/svg" id="_x32_1_Rake"><g><path d="m386.338 397.932h-94.554c-7.47 0-13.582-6.06-13.582-13.582v-18.075c6.321-2.142 10.918-8.097 10.918-15.15v-35c0-8.045-5.903-14.679-13.635-15.881v-275.511c0-10.761-8.724-19.485-19.485-19.485s-19.485 8.724-19.485 19.485v275.511c-7.679 1.202-13.635 7.836-13.635 15.881v35c0 7.105 4.702 13.112 11.127 15.254v17.97c0 7.523-6.112 13.582-13.634 13.582h-94.763c-12.485 0-22.672 10.187-22.672 22.672v66.501c0 10.814 8.828 19.642 19.642 19.642 10.866 0 19.642-8.828 19.642-19.642v-33.851c0-3.657 2.978-6.635 6.687-6.635 3.657 0 6.635 2.978 6.635 6.635v33.851c0 12.903 9.769 19.433 19.694 19.642 10.187.209 20.53-6.373 20.53-19.642v-33.851c0-3.657 2.978-6.635 6.687-6.635 3.657 0 6.635 2.978 6.635 6.635v33.851c0 13.112 10.082 19.642 20.164 19.642 10.03 0 20.112-6.53 20.112-19.642v-33.851c0-3.657 2.978-6.635 6.687-6.635 3.657 0 6.635 2.978 6.635 6.635v33.851c0 13.948 11.388 20.478 22.045 19.538 9.403-.784 18.179-7.314 18.179-19.538v-33.851c0-3.657 2.978-6.635 6.635-6.635 3.709 0 6.687 2.978 6.687 6.635v33.851c0 13.06 10.082 19.485 20.112 19.485 10.082 0 20.164-6.53 20.164-19.485v-33.851c0-3.657 2.978-6.635 6.635-6.635 3.709 0 6.686 2.978 6.686 6.635v33.851c0 10.866 8.776 19.642 19.59 19.642s19.642-8.776 19.642-19.642v-66.501c-.001-12.484-10.188-22.671-22.725-22.671zm-153.01-46.806v-35c0-3.135 2.56-5.694 5.694-5.694h33.956c3.134 0 5.694 2.56 5.694 5.694v35c0 3.135-2.56 5.642-5.694 5.642h-33.956c-3.134 0-5.694-2.508-5.694-5.642zm165.286 135.979c0 5.067-4.127 9.194-9.194 9.194-5.015 0-9.142-4.127-9.142-9.194v-33.851c0-9.403-7.679-17.082-17.134-17.082-9.403 0-17.082 7.679-17.082 17.082v33.851c0 5.903-4.493 8.933-9.142 9.194-5.015.261-10.239-2.821-10.239-9.194v-33.851c0-9.403-7.679-17.082-17.135-17.082-9.403 0-17.082 7.679-17.082 17.082v33.851c0 5.485-3.866 8.515-8.149 9.09-5.276.731-11.179-2.299-11.179-9.09v-33.851c0-9.403-7.679-17.082-17.082-17.082-9.455 0-17.135 7.679-17.135 17.082v33.851c0 6.425-5.276 9.455-10.343 9.194-4.597-.261-9.037-3.343-9.037-9.194v-33.851c0-9.403-7.679-17.082-17.082-17.082-9.455 0-17.135 7.679-17.135 17.082v33.851c0 6.321-5.119 9.403-10.082 9.194-4.701-.209-9.246-3.239-9.246-9.194v-33.851c0-9.403-7.679-17.082-17.082-17.082-9.455 0-17.135 7.679-17.135 17.082v33.851c0 5.067-4.127 9.194-9.194 9.194s-9.194-4.127-9.194-9.194v-66.501c0-6.739 5.485-12.224 12.224-12.224h94.763c13.269 0 24.082-10.761 24.082-24.03v-17.135h23.299v17.135c0 13.269 10.761 24.03 24.03 24.03h94.554c6.739 0 12.276 5.485 12.276 12.224v66.501z" fill="#a3187a" data-original="#000000" style="" class=""/></g></g></g></svg>
