<?xml version="1.0"?>
<svg xmlns="http://www.w3.org/2000/svg" xmlns:xlink="http://www.w3.org/1999/xlink" xmlns:svgjs="http://svgjs.com/svgjs" version="1.1" width="512" height="512" x="0" y="0" viewBox="0 0 128 128" style="enable-background:new 0 0 512 512" xml:space="preserve"><g><g xmlns="http://www.w3.org/2000/svg"><path d="m64 1c-34.738 0-63 28.262-63 63s28.262 63 63 63 63-28.262 63-63-28.262-63-63-63zm0 124c-33.636 0-61-27.364-61-61s27.364-61 61-61 61 27.364 61 61-27.364 61-61 61z" fill="#dd1212" data-original="#000000" style=""/><path d="m72.414 47.09c-.501-.229-1.095-.006-1.324.497l-15 33c-.229.502-.006 1.095.497 1.324.133.06.274.089.413.089.38 0 .743-.218.911-.586l15-33c.228-.503.006-1.096-.497-1.324z" fill="#dd1212" data-original="#000000" style=""/><path d="m50.414 47.09c-.501-.229-1.096-.006-1.324.497l-15 33c-.229.502-.006 1.095.497 1.324.133.06.274.089.413.089.38 0 .743-.218.911-.586l15-33c.228-.503.006-1.096-.497-1.324z" fill="#dd1212" data-original="#000000" style=""/><path d="m94.414 47.09c-.5-.229-1.095-.006-1.324.497l-15 33c-.229.502-.006 1.095.497 1.324.133.06.274.089.413.089.38 0 .743-.218.911-.586l15-33c.228-.503.006-1.096-.497-1.324z" fill="#dd1212" data-original="#000000" style=""/><path d="m119.958 82.66c1.963-5.869 3.042-12.139 3.042-18.66s-1.079-12.791-3.042-18.66c-.008-.022-.005-.044-.014-.066-.004-.009-.012-.014-.016-.023-7.854-23.366-29.949-40.251-55.928-40.251s-48.074 16.885-55.928 40.252c-.004.009-.012.014-.016.023-.009.022-.006.044-.014.066-1.963 5.868-3.042 12.138-3.042 18.659s1.079 12.791 3.042 18.66c.008.022.005.044.014.066.005.011.013.018.018.029 7.856 23.363 29.949 40.245 55.926 40.245s48.07-16.882 55.926-40.246c.005-.01.013-.018.018-.029.01-.021.007-.044.014-.065zm1.042-18.66c0 4.459-.531 8.794-1.504 12.961-4.59-2.663-7.496-7.619-7.496-12.961s2.907-10.298 7.495-12.962c.974 4.168 1.505 8.503 1.505 12.962zm-2.008-14.967c-5.487 2.942-8.992 8.721-8.992 14.967s3.505 12.025 8.992 14.966c-.179.658-.357 1.317-.56 1.966-6.369-3.223-10.432-9.749-10.432-16.932s4.063-13.709 10.433-16.932c.202.648.38 1.307.559 1.965zm-111.992 14.967c0-4.459.531-8.794 1.505-12.962 4.588 2.664 7.495 7.62 7.495 12.962s-2.906 10.298-7.496 12.961c-.973-4.167-1.504-8.502-1.504-12.961zm2.008 14.966c5.487-2.941 8.992-8.72 8.992-14.966s-3.505-12.025-8.992-14.967c.179-.658.357-1.317.559-1.965 6.37 3.223 10.433 9.749 10.433 16.932s-4.063 13.709-10.433 16.932c-.202-.649-.38-1.308-.559-1.966zm54.992 42.034c-24.829 0-45.988-15.963-53.786-38.161 7.185-3.515 11.786-10.803 11.786-18.839s-4.601-15.324-11.786-18.839c7.798-22.198 28.957-38.161 53.786-38.161s45.988 15.963 53.786 38.161c-7.185 3.515-11.786 10.803-11.786 18.839s4.601 15.324 11.786 18.839c-7.798 22.198-28.957 38.161-53.786 38.161z" fill="#dd1212" data-original="#000000" style=""/></g></g></svg>
