<?xml version="1.0"?>
<svg xmlns="http://www.w3.org/2000/svg" xmlns:xlink="http://www.w3.org/1999/xlink" xmlns:svgjs="http://svgjs.com/svgjs" version="1.1" width="512" height="512" x="0" y="0" viewBox="0 0 512.009 512.009" style="enable-background:new 0 0 512 512" xml:space="preserve" class=""><g>
<g xmlns="http://www.w3.org/2000/svg">
	<g>
		<g>
			<path d="M500.29,216.752l-14.563-48.828c-2.591-8.67-11.723-13.614-20.385-11.022c-8.67,2.583-13.605,11.706-11.022,20.376     l14.563,48.837c1.429,4.757,1.074,8.892-0.976,11.652c-2.059,2.751-5.91,4.269-10.88,4.269H54.991     c-4.961,0-8.83-1.518-10.88-4.269c-2.05-2.76-2.405-6.896-0.985-11.652l22.35-74.963h68.049     c17.392,24.784,46.177,41.018,78.688,41.018c17.709,0,34.31-4.821,48.57-13.212c13.916,8.571,30.044,13.212,46.503,13.212     c31.354,0,58.948-16.373,74.698-41.018h76.746c9.052,0,16.382-7.339,16.382-16.382c0-9.043-7.33-16.382-16.382-16.382h-64.099     c0.817-4.824,1.248-9.777,1.249-14.829c0-48.863-39.731-88.612-88.586-88.612c-12.1,0-23.641,2.441-34.158,6.853     C256.065,7.828,234.451,0,212.213,0c-52.972,0-96.076,43.104-96.076,96.085c0,7.676,0.91,15.142,2.618,22.302H53.343     c-7.085-0.033-13.649,4.561-15.782,11.697l-25.843,86.678c-4.384,14.705-2.156,29.499,6.123,40.592     c8.271,11.093,21.805,17.456,37.149,17.456h402.035c15.335,0,28.878-6.372,37.149-17.465     C502.446,246.251,504.674,231.457,500.29,216.752z M212.213,32.774c11.474,0,22.407,3.011,31.985,8.639     c-15.763,16.005-25.507,37.956-25.507,62.144c0,10.303,1.766,20.447,5.271,30.138c3.062,8.52,12.451,12.921,20.971,9.851     c8.511-3.071,12.921-12.46,9.842-20.971c-2.201-6.115-3.328-12.522-3.328-19.018c0-30.786,25.044-55.839,55.839-55.839     c30.786,0,55.83,25.044,55.83,55.839c0,8.266-1.819,16.11-5.054,23.175c-0.348,0.617-0.657,1.258-0.924,1.921     c-9.205,18.217-28.086,30.743-49.851,30.743c-6.912,0-13.587-1.237-19.842-3.617c13.042-16.406,20.845-37.154,20.845-59.694     c0-9.017-1.251-17.944-3.718-26.544c-2.494-8.697-11.528-13.72-20.269-11.226c-8.697,2.503-13.72,11.572-11.226,20.27     c1.624,5.662,2.449,11.546,2.449,17.501c0,34.913-28.399,63.311-63.311,63.311c-34.913,0-63.32-28.399-63.32-63.311     C148.893,61.172,177.3,32.774,212.213,32.774z" fill="#cba81d" data-original="#000000" style="" class=""/>
			<path d="M452.633,284.563c-9.052,0-16.382,7.339-16.382,16.391v178.281h-98.303V373.583c0-43.902-35.232-77.005-81.948-77.005     c-46.725,0-81.957,33.111-81.957,77.005v105.652H76.485V300.954c0-9.052-7.33-16.391-16.382-16.391s-16.382,7.339-16.382,16.391     v194.663c0,9.052,7.33,16.382,16.382,16.382h130.146c0.06,0.001,0.117,0.009,0.177,0.009s0.117-0.008,0.177-0.009h85.126     c9.052,0,16.391-7.321,16.391-16.374s-7.33-16.391-16.382-16.391h-68.929V373.583c0-29.029,24.751-44.231,49.201-44.231     c24.432,0,49.183,15.202,49.183,44.231v122.034c0,9.052,7.33,16.382,16.382,16.382h131.068c9.043,0,16.374-7.33,16.374-16.374     V300.954C469.016,291.902,461.685,284.563,452.633,284.563z" fill="#cba81d" data-original="#000000" style="" class=""/>
		</g>
	</g>
</g>
<g xmlns="http://www.w3.org/2000/svg">
</g>
<g xmlns="http://www.w3.org/2000/svg">
</g>
<g xmlns="http://www.w3.org/2000/svg">
</g>
<g xmlns="http://www.w3.org/2000/svg">
</g>
<g xmlns="http://www.w3.org/2000/svg">
</g>
<g xmlns="http://www.w3.org/2000/svg">
</g>
<g xmlns="http://www.w3.org/2000/svg">
</g>
<g xmlns="http://www.w3.org/2000/svg">
</g>
<g xmlns="http://www.w3.org/2000/svg">
</g>
<g xmlns="http://www.w3.org/2000/svg">
</g>
<g xmlns="http://www.w3.org/2000/svg">
</g>
<g xmlns="http://www.w3.org/2000/svg">
</g>
<g xmlns="http://www.w3.org/2000/svg">
</g>
<g xmlns="http://www.w3.org/2000/svg">
</g>
<g xmlns="http://www.w3.org/2000/svg">
</g>
</g></svg>
