<?xml version="1.0" encoding="UTF-8"?>
<svg width="32px" height="32px" viewBox="0 0 32 32" version="1.1" xmlns="http://www.w3.org/2000/svg" xmlns:xlink="http://www.w3.org/1999/xlink">
    <!-- Generator: Sketch 44.1 (41455) - http://www.bohemiancoding.com/sketch -->
    <title>Metarubrick / Renovation / decoration</title>
    <desc>Created with Sketch.</desc>
    <defs></defs>
    <g id="Page-1" stroke="none" stroke-width="1" fill="none" fill-rule="evenodd">
        <g id="New-meta-draft" transform="translate(-84.000000, -3384.000000)">
            <g id="Slice" transform="translate(84.000000, 84.000000)"></g>
            <g id="Icon" transform="translate(51.000000, 42.000000)" stroke="#52B311" stroke-width="2">
                <g id="Renovation" transform="translate(12.000000, 3294.000000)">
                    <g id="Decoration" transform="translate(24.000000, 50.000000)">
                        <path d="M0,6.75 L0,2.25 C0,1.008 0.985,0 2.2,0 L19.8,0 C21.015,0 22,1.008 22,2.25 L22,6.75 C22,7.992 21.015,9 19.8,9 L2.2,9 C0.985,9 0,7.992 0,6.75 Z" id="Stroke-1"></path>
                        <path d="M14,19 L10,19 L10,26 C10,27.104 10.896,28 12,28 C13.104,28 14,27.104 14,26 L14,19 Z" id="Stroke-3"></path>
                        <path d="M12,19 L12,13 L21,13 C24,13 26,10.153 26,7.474 L26,4" id="Stroke-5"></path>
                        <path d="M8,1 L8,4" id="Stroke-7"></path>
                        <path d="M12,1 L12,6" id="Stroke-9"></path>
                    </g>
                </g>
            </g>
        </g>
    </g>
</svg>