<?xml version="1.0"?>
<svg xmlns="http://www.w3.org/2000/svg" xmlns:xlink="http://www.w3.org/1999/xlink" xmlns:svgjs="http://svgjs.com/svgjs" version="1.1" width="512" height="512" x="0" y="0" viewBox="0 0 512 512" style="enable-background:new 0 0 512 512" xml:space="preserve"><g><g xmlns="http://www.w3.org/2000/svg"><path d="m333.28 61.28c-30.371 5.64-54.36 29.629-60 60-30.371 5.64-54.36 29.629-60 60-34.823 6.467-61.28 37.053-61.28 73.72v15h-33.574c-23.647 0-46.544-9.333-62.819-25.607l-10.038-10.037-10.574 9.469c-1.431 1.279-34.995 31.788-34.995 71.175 0 39.226 33.371 70.671 34.792 71.991l10.593 9.838 10.222-10.222c16.661-16.661 40.144-26.607 62.819-26.607h33.574v33.574c0 23.65-9.333 46.547-25.606 62.819l-10.038 10.038 9.47 10.576c1.278 1.428 31.787 34.993 71.174 34.993s69.896-33.565 71.175-34.994l9.47-10.576-10.038-10.038c-16.274-16.271-25.607-39.168-25.607-62.818v-43.718c35.443-16.883 60-53.053 60-94.855v-.041c14.719-11.075 25.229-27.438 28.72-46.239 30.371-5.64 54.36-29.629 60-60 30.371-5.64 54.36-29.629 60-60 34.823-6.468 61.28-37.054 61.28-73.721v-15h-105c-36.668 0-67.253 26.458-73.72 61.28zm-151.28 193.72c0-24.813 20.187-45.01 45-45.01h72.43c-6.191 17.461-22.873 30.01-42.43 30.01-14.05 0-30.905 0-45 0v15c0 8.271-6.729 15-15 15h-15zm54.114 210.796c-9.083 7.208-23.541 16.204-39.114 16.204-15.578 0-30.039-9-39.115-16.202 15.462-20.439 24.115-46.015 24.115-72.224v-33.574h15c5.093 0 10.099-.372 15-1.076v34.65c0 26.209 8.652 51.784 24.114 72.222zm34.379-195.796c-6.97 34.191-37.274 60-73.493 60h-78.574c-25.739 0-51.283 8.945-72.097 24.926-7.266-9.391-16.329-24.25-16.329-39.926 0-15.578 9.001-30.04 16.202-39.116 20.44 15.462 46.017 24.116 72.224 24.116h78.574c19.557 0 36.239-12.539 42.43-30zm46.507-90h-72.43c6.19-17.461 22.873-30.01 42.43-30.01h72.43c-6.191 17.461-22.873 30.01-42.43 30.01zm60-60h-72.43c6.19-17.461 22.873-30.01 42.43-30.01l72.43.01c-6.191 17.461-22.873 30-42.43 30zm60-60h-72.43c6.19-17.461 22.873-30 42.43-30.01h72.43c-6.191 17.471-22.873 30.01-42.43 30.01z" fill="#e9b311" data-original="#000000" style=""/></g></g></svg>
