<?xml version="1.0"?>
<svg xmlns="http://www.w3.org/2000/svg" xmlns:xlink="http://www.w3.org/1999/xlink" xmlns:svgjs="http://svgjs.com/svgjs" version="1.1" width="512" height="512" x="0" y="0" viewBox="0 0 512 512" style="enable-background:new 0 0 512 512" xml:space="preserve"><g><g xmlns="http://www.w3.org/2000/svg" id="_x34_1_safe_deposit_box_2_"><path d="m376.615 224.454h-15.55c-1.62-20.953-9.971-40.047-22.883-55.124l11.031-11.031c2.929-2.93 2.929-7.678 0-10.607-2.928-2.928-7.677-2.928-10.606 0l-11.032 11.031c-15.078-12.913-34.171-21.263-55.124-22.883v-15.551c0-4.143-3.358-7.5-7.5-7.5s-7.5 3.357-7.5 7.5v15.551c-20.953 1.62-40.046 9.971-55.124 22.883l-11.031-11.031c-2.929-2.928-7.678-2.928-10.606 0-2.929 2.93-2.929 7.678 0 10.607l11.031 11.031c-12.913 15.078-21.263 34.172-22.883 55.124h-15.55c-4.142 0-7.5 3.357-7.5 7.5s3.358 7.5 7.5 7.5h15.55c1.62 20.953 9.97 40.046 22.883 55.124l-11.031 11.031c-2.929 2.93-2.929 7.678 0 10.607 1.464 1.464 3.384 2.196 5.303 2.196s3.839-.732 5.303-2.196l11.031-11.031c15.078 12.913 34.171 21.263 55.124 22.883v15.551c0 4.143 3.358 7.5 7.5 7.5s7.5-3.357 7.5-7.5v-15.551c20.953-1.62 40.047-9.97 55.124-22.883l11.031 11.031c1.464 1.464 3.384 2.196 5.303 2.196s3.839-.732 5.303-2.196c2.929-2.93 2.929-7.678 0-10.607l-11.031-11.03c12.913-15.077 21.263-34.171 22.883-55.124h15.55c4.142 0 7.5-3.357 7.5-7.5.001-4.144-3.357-7.501-7.499-7.501zm-111.665 88.903c-44.886 0-81.404-36.518-81.404-81.403 0-44.887 36.518-81.404 81.404-81.404 44.887 0 81.404 36.518 81.404 81.404s-36.517 81.403-81.404 81.403z" fill="#a31974" data-original="#000000" style=""/><path d="m316.322 224.454h-13.213c-3.506-17.868-19.279-31.392-38.158-31.392-21.445 0-38.891 17.446-38.891 38.892 0 21.444 17.446 38.891 38.891 38.891 18.879 0 34.653-13.524 38.158-31.391h13.213c4.142 0 7.5-3.357 7.5-7.5s-3.358-7.5-7.5-7.5zm-51.372 31.391c-13.174 0-23.891-10.718-23.891-23.891 0-13.174 10.717-23.892 23.891-23.892s23.891 10.718 23.891 23.892c0 13.173-10.717 23.891-23.891 23.891z" fill="#a31974" data-original="#000000" style=""/><path d="m455.454 0h-398.908c-17.92 0-32.5 14.579-32.5 32.5v183.11c0 4.143 3.358 7.5 7.5 7.5s7.5-3.357 7.5-7.5v-24.858h30.393v82.403h-30.393v-24.858c0-4.143-3.358-7.5-7.5-7.5s-7.5 3.357-7.5 7.5v183.11c0 17.921 14.58 32.5 32.5 32.5h12.893v30.593c0 9.649 7.851 17.5 17.5 17.5h44.365c9.649 0 17.5-7.851 17.5-17.5v-30.593h214.393v30.593c0 9.649 7.851 17.5 17.5 17.5h44.365c9.649 0 17.5-7.851 17.5-17.5v-30.593h12.893c17.92 0 32.5-14.579 32.5-32.5v-54.004c0-4.143-3.358-7.5-7.5-7.5s-7.5 3.357-7.5 7.5v54.004c0 9.649-7.851 17.5-17.5 17.5h-398.909c-9.649 0-17.5-7.851-17.5-17.5v-62.847h30.393v32.454c0 9.65 7.851 17.5 17.5 17.5h338.122c9.649 0 17.5-7.85 17.5-17.5v-112.859h30.393v56.561c0 4.143 3.358 7.5 7.5 7.5s7.5-3.357 7.5-7.5v-312.216c0-17.921-14.58-32.5-32.5-32.5zm-321.65 494.5c0 1.379-1.122 2.5-2.5 2.5h-44.365c-1.379 0-2.5-1.121-2.5-2.5v-30.593h49.365zm293.757 0c0 1.379-1.121 2.5-2.5 2.5h-44.365c-1.378 0-2.5-1.121-2.5-2.5v-30.593h49.365zm-388.515-384.153h37.893 15.971c1.378 0 2.5 1.121 2.5 2.5v60.405c0 1.379-1.122 2.5-2.5 2.5h-15.971-37.893zm0 177.808h37.893 15.971c1.378 0 2.5 1.121 2.5 2.5v60.405c0 1.379-1.122 2.5-2.5 2.5h-15.971-37.893zm388.515 112.86c0 1.379-1.121 2.5-2.5 2.5h-338.122c-1.379 0-2.5-1.121-2.5-2.5v-32.455h8.471c9.649 0 17.5-7.85 17.5-17.5v-60.405c0-9.649-7.851-17.5-17.5-17.5h-8.471v-82.403h8.471c9.649 0 17.5-7.851 17.5-17.5v-60.405c0-9.649-7.851-17.5-17.5-17.5h-8.471v-32.454c0-1.379 1.121-2.5 2.5-2.5h104.978c4.142 0 7.5-3.357 7.5-7.5s-3.358-7.5-7.5-7.5h-104.978c-9.649 0-17.5 7.851-17.5 17.5v32.454h-30.393v-62.847c0-9.649 7.851-17.5 17.5-17.5h398.907c9.649 0 17.5 7.851 17.5 17.5v143.252h-30.393v-112.859c0-9.649-7.851-17.5-17.5-17.5h-200.456c-4.142 0-7.5 3.357-7.5 7.5s3.358 7.5 7.5 7.5h200.457c1.379 0 2.5 1.121 2.5 2.5zm15-127.86v-82.403h30.393v82.403z" fill="#a31974" data-original="#000000" style=""/></g></g></svg>
