<?xml version="1.0" encoding="UTF-8"?>
<svg width="32px" height="32px" viewBox="0 0 32 32" version="1.1" xmlns="http://www.w3.org/2000/svg" xmlns:xlink="http://www.w3.org/1999/xlink">
    <!-- Generator: Sketch 44.1 (41455) - http://www.bohemiancoding.com/sketch -->
    <title>Metarubrick / Other / safety</title>
    <desc>Created with Sketch.</desc>
    <defs></defs>
    <g id="Page-1" stroke="none" stroke-width="1" fill="none" fill-rule="evenodd">
        <g id="New-meta-draft" transform="translate(-184.000000, -3984.000000)">
            <g id="Slice" transform="translate(84.000000, 84.000000)"></g>
            <g id="Icon" transform="translate(51.000000, 42.000000)" stroke="#8345FE" stroke-width="2">
                <g id="Other" transform="translate(24.000000, 3900.000000)">
                    <g id="Safety" transform="translate(115.000000, 43.000000)">
                        <path d="M18,15 L2,15 C0.896,15 0,15.896 0,17 L0,24 C0,27.313 2.687,30 6,30 L14,30 C17.313,30 20,27.313 20,24 L20,17 C20,15.896 19.104,15 18,15 Z" id="Stroke-1"></path>
                        <path d="M18,15 L18,8 C18,3.582 14.418,0 10,0 C5.582,0 2,3.582 2,8 L2,10 L7,10 L7,8 C7,6.343 8.343,5 10,5 C11.657,5 13,6.343 13,8 L13,12" id="Stroke-3"></path>
                        <path d="M10,26 L10,21" id="Stroke-5"></path>
                    </g>
                </g>
            </g>
        </g>
    </g>
</svg>