<?xml version="1.0"?>
<svg xmlns="http://www.w3.org/2000/svg" xmlns:xlink="http://www.w3.org/1999/xlink" xmlns:svgjs="http://svgjs.com/svgjs" version="1.1" width="512" height="512" x="0" y="0" viewBox="0 0 512.073 512.073" style="enable-background:new 0 0 512 512" xml:space="preserve" class=""><g><g xmlns="http://www.w3.org/2000/svg"><path d="m489.633 187.669c2.598-12.066 2.053-24.208-1.661-35.634-12.061-37.12-51.865-57.406-88.991-45.342-15.286 4.967-29.957 11.807-43.728 20.33 3.851-15.729 5.823-31.798 5.823-47.871 0-38.942-31.682-70.624-70.624-70.624-12.005 0-23.711 3.229-34.376 9.417-10.665-6.188-22.371-9.417-34.376-9.417-38.942 0-70.624 31.682-70.624 70.624 0 16.073 1.972 32.141 5.823 47.871-13.77-8.522-28.441-15.363-43.728-20.33-37.114-12.061-76.927 8.211-88.99 45.34-3.714 11.425-4.259 23.565-1.663 35.63-38.753 35.023-25.767 102.01 25.76 118.75 15.288 4.968 31.175 8.057 47.326 9.256-12.362 10.463-23.398 22.3-32.847 35.304-22.943 31.577-15.961 75.701 15.622 98.647 9.713 7.058 21.08 11.326 33.348 12.588 4.991 11.274 12.563 20.767 22.275 27.826 31.569 22.937 75.69 15.976 98.647-15.625 9.448-13.004 17.297-27.162 23.427-42.15 6.131 14.989 13.979 29.146 23.427 42.15 22.942 31.578 67.065 38.571 98.649 15.625 9.711-7.058 17.283-16.55 22.273-27.825 12.267-1.262 23.636-5.53 33.347-12.587 31.577-22.941 38.57-67.066 15.623-98.647-9.448-13.005-20.485-24.842-32.847-35.305 16.147-1.199 32.04-4.289 47.324-9.255 51.469-16.722 64.372-83.781 25.761-118.746zm-233.557 120.859c-24.813 0-45-20.187-45-45s20.187-45 45-45 45 20.187 45 45-20.187 45-45 45zm-34.376-270c11.069 0 19.717 5.045 25.023 9.276 5.471 4.364 13.233 4.365 18.706 0 5.306-4.232 13.955-9.277 25.023-9.277 22.4 0 40.624 18.224 40.624 40.624 0 70.625-40.705 109.857-43.957 116.13-5.075-2.318-10.442-4.103-16.043-5.244v-76.509c0-8.284-6.716-15-15-15s-15 6.716-15 15v76.509c-5.601 1.142-10.968 2.927-16.043 5.244-3.142-6.059-43.957-45.824-43.957-116.13 0-22.399 18.224-40.623 40.624-40.623zm-164.152 239.353c-31.063-10.091-38.143-53.234-9.527-72.119 5.842-3.855 8.241-11.239 5.781-17.792-2.386-6.354-4.512-16.138-1.09-26.666 6.937-21.348 29.83-33.022 51.188-26.081 67.166 21.823 91.912 72.672 96.872 77.704-3.795 4.144-7.118 8.722-9.915 13.637l-72.804-23.656c-7.88-2.561-16.342 1.752-18.901 9.63-2.56 7.879 1.751 16.341 9.63 18.901l72.781 23.648c-.649 5.766-.65 11.102 0 16.878-6.732 1.117-57.159 27.641-124.015 5.916zm150.83 178.895c-13.196 18.162-38.575 22.187-56.742 8.989-8.955-6.508-12.988-15.674-14.793-22.218-1.866-6.761-8.158-11.309-15.134-10.994-6.781.304-16.743-.697-25.697-7.203-18.163-13.196-22.186-38.577-8.986-56.743 41.511-57.136 97.512-64.954 103.83-68.116 2.797 4.916 6.12 9.493 9.915 13.637l-44.999 61.936c-4.869 6.702-3.384 16.083 3.318 20.952 6.672 4.848 16.061 3.414 20.952-3.318l44.989-61.923c5.075 2.318 10.442 4.103 16.043 5.244-1.018 6.75 8.632 62.872-32.696 119.757zm216.748-88.168c13.197 18.164 9.18 43.544-8.987 56.744-8.953 6.505-18.923 7.509-25.695 7.202-6.997-.316-13.272 4.247-15.134 10.994-1.807 6.543-5.839 15.709-14.792 22.216-18.162 13.196-43.547 9.179-56.743-8.988-41.513-57.135-31.653-112.838-32.699-119.756 5.601-1.142 10.968-2.926 16.042-5.244l44.989 61.923c4.884 6.721 14.268 8.174 20.952 3.318 6.702-4.869 8.188-14.25 3.319-20.952l-44.999-61.936c3.795-4.144 7.118-8.722 9.915-13.637 6.105 3.055 62.504 11.234 103.832 68.116zm29.477-90.726c-67.148 21.817-117.113-4.772-124.014-5.915.649-5.766.65-11.102 0-16.878l72.781-23.648c7.879-2.56 12.191-11.022 9.631-18.901s-11.025-12.191-18.9-9.63l-72.804 23.655c-2.797-4.916-6.12-9.493-9.915-13.638 4.792-4.861 30.004-55.976 96.872-77.704 21.351-6.938 44.249 4.725 51.188 26.083 3.421 10.525 1.295 20.31-1.091 26.664-2.46 6.553-.062 13.937 5.781 17.792 28.368 18.722 21.545 62.025-9.529 72.12z" fill="#dd1171" data-original="#000000" style="" class=""/></g></g></svg>
