<?xml version="1.0" encoding="UTF-8"?>
<svg width="32px" height="32px" viewBox="0 0 32 32" version="1.1" xmlns="http://www.w3.org/2000/svg" xmlns:xlink="http://www.w3.org/1999/xlink">
    <!-- Generator: Sketch 44.1 (41455) - http://www.bohemiancoding.com/sketch -->
    <title>Metarubrick / B2B / sales_equip</title>
    <desc>Created with Sketch.</desc>
    <defs></defs>
    <g id="Page-1" stroke="none" stroke-width="1" fill="none" fill-rule="evenodd">
        <g id="New-meta-draft" transform="translate(-584.000000, -3784.000000)">
            <g id="Slice" transform="translate(84.000000, 84.000000)"></g>
            <g id="Icon" transform="translate(51.000000, 42.000000)" stroke="#8345FE" stroke-width="2">
                <g id="B2B" transform="translate(12.000000, 3693.000000)">
                    <g id="Sales-equip" transform="translate(521.000000, 52.000000)">
                        <path d="M31,9.25 C31,11.321 29.321,13 27.25,13 C25.179,13 23.5,11.321 23.5,9.25 C23.5,11.321 21.821,13 19.75,13 C17.679,13 16,11.321 16,9.25 C16,11.321 14.321,13 12.25,13 C10.179,13 8.5,11.321 8.5,9.25 C8.5,11.321 6.821,13 4.75,13 C2.679,13 1,11.321 1,9.25 L1,6 L3,0 L29,0 L31,6 L31,9.25 Z" id="Stroke-1"></path>
                        <path d="M5,6 L27,6" id="Stroke-3"></path>
                        <path d="M0,26 L32,26" id="Stroke-5"></path>
                        <path d="M5,16 L5,25" id="Stroke-7"></path>
                        <path d="M27,16 L27,25" id="Stroke-9"></path>
                        <path d="M6,21 L26,21" id="Stroke-11"></path>
                    </g>
                </g>
            </g>
        </g>
    </g>
</svg>