<?xml version="1.0" encoding="UTF-8"?>
<svg width="32px" height="32px" viewBox="0 0 32 32" version="1.1" xmlns="http://www.w3.org/2000/svg" xmlns:xlink="http://www.w3.org/1999/xlink">
    <!-- Generator: Sketch 43.2 (39069) - http://www.bohemiancoding.com/sketch -->
    <title>Metarubrick / Entertainment / Sauna</title>
    <desc>Created with Sketch.</desc>
    <defs></defs>
    <g id="Page-1" stroke="none" stroke-width="1" fill="none" fill-rule="evenodd">
        <g id="New-meta-draft" transform="translate(-184.000000, -1184.000000)">
            <g id="Slice" transform="translate(84.000000, 84.000000)"></g>
            <g id="Icon" transform="translate(51.000000, 42.000000)" stroke="#FF8D00" stroke-width="2">
                <g id="Entertainment-" transform="translate(22.000000, 1093.000000)">
                    <g id="Sauna" transform="translate(111.000000, 50.000000)">
                        <path d="M16,5 L16,0" id="Stroke-1"></path>
                        <path d="M22,5 L22,2" id="Stroke-3"></path>
                        <path d="M10,5 L10,2" id="Stroke-5"></path>
                        <path d="M6,28 L26,28" id="Stroke-7"></path>
                        <path d="M7,23 L5.025,11.15 C5.008,11.051 5,10.949 5,10.848 C5,9.827 5.827,9 6.847,9 L25.153,9 C26.173,9 27,9.827 27,10.848 C27,10.949 26.992,11.051 26.975,11.15 L25,23 L7,23 Z" id="Stroke-9"></path>
                        <path d="M12,9 L12,23" id="Stroke-11"></path>
                        <path d="M20,9 L20,23" id="Stroke-13"></path>
                        <path d="M5.3335,13 L0.0005,13" id="Stroke-15"></path>
                        <path d="M32,13 L26.667,13" id="Stroke-17"></path>
                    </g>
                </g>
            </g>
        </g>
    </g>
</svg>