<?xml version="1.0"?>
<svg xmlns="http://www.w3.org/2000/svg" xmlns:xlink="http://www.w3.org/1999/xlink" xmlns:svgjs="http://svgjs.com/svgjs" version="1.1" width="512" height="512" x="0" y="0" viewBox="0 0 512 512" style="enable-background:new 0 0 512 512" xml:space="preserve"><g><g xmlns="http://www.w3.org/2000/svg"><path d="m376 286c6.939 0 13.514-1.581 19.389-4.397l30.004 30.004 21.213-21.213-30.004-30.004c2.817-5.875 4.398-12.451 4.398-19.39 0-24.813-20.187-45-45-45s-45 20.187-45 45 20.187 45 45 45zm0-60c8.271 0 15 6.729 15 15s-6.729 15-15 15-15-6.729-15-15 6.729-15 15-15z" fill="#2091d5" data-original="#000000" style=""/><path d="m0 136v240h512v-240zm30 30h241v180h-241zm452 180h-181v-180h181z" fill="#2091d5" data-original="#000000" style=""/><path d="m60 286h60v30h-60z" fill="#2091d5" data-original="#000000" style=""/></g></g></svg>
