<?xml version="1.0" encoding="UTF-8"?>
<svg width="32px" height="32px" viewBox="0 0 32 32" version="1.1" xmlns="http://www.w3.org/2000/svg" xmlns:xlink="http://www.w3.org/1999/xlink">
    <!-- Generator: Sketch 43.2 (39069) - http://www.bohemiancoding.com/sketch -->
    <title>Metarubrick / Sport / Section</title>
    <desc>Created with Sketch.</desc>
    <defs></defs>
    <g id="Page-1" stroke="none" stroke-width="1" fill="none" fill-rule="evenodd">
        <g id="New-meta-draft" transform="translate(-284.000000, -2784.000000)">
            <g id="Slice" transform="translate(84.000000, 84.000000)"></g>
            <g id="Icon" transform="translate(51.000000, 42.000000)" stroke="#DA0000" stroke-width="2">
                <g id="Sport" transform="translate(7.000000, 2695.000000)">
                    <g id="Page-1" transform="translate(227.000000, 49.000000)">
                        <path d="M11,11 C6.6,11 3,14.6 3,19 C3,23.4 6.6,27 11,27 C15.4,27 19,23.4 19,19 C19,17.9 18.8,16.9 18.4,16" id="Stroke-1"></path>
                        <path d="M11,11 L18,11 L18,13 L22,13 L22,11 L29,11 L29,16 C26.867,16 24.256,17.346 22,19.057" id="Stroke-3"></path>
                        <path d="M11,15 C8.8,15 7,16.8 7,19" id="Stroke-5"></path>
                        <path d="M3,19 L0,19" id="Stroke-7"></path>
                        <path d="M20,0 L20,7" id="Stroke-9"></path>
                        <path d="M16,7 L12,1" id="Stroke-11"></path>
                        <path d="M24,7 L28,1" id="Stroke-13"></path>
                    </g>
                </g>
            </g>
        </g>
    </g>
</svg>