<?xml version="1.0" encoding="UTF-8"?>
<svg width="32px" height="32px" viewBox="0 0 32 32" version="1.1" xmlns="http://www.w3.org/2000/svg" xmlns:xlink="http://www.w3.org/1999/xlink">
    <!-- Generator: Sketch 44.1 (41455) - http://www.bohemiancoding.com/sketch -->
    <title>Metarubrick / Main / services</title>
    <desc>Created with Sketch.</desc>
    <defs></defs>
    <g id="Page-1" stroke="none" stroke-width="1" fill="none" fill-rule="evenodd">
        <g id="New-meta-draft" transform="translate(-784.000000, -284.000000)">
            <g id="Slice" transform="translate(84.000000, 84.000000)"></g>
            <g id="Icon" transform="translate(51.000000, 42.000000)" stroke="#8345FE" stroke-width="2">
                <g id="1st-Lvl" transform="translate(20.000000, 200.000000)">
                    <g id="Services" transform="translate(715.000000, 44.000000)">
                        <path d="M0,14 L28,14" id="Stroke-1"></path>
                        <path d="M11,9 L11,0.415" id="Stroke-3"></path>
                        <path d="M17,0.4148 L17,8.9998" id="Stroke-5"></path>
                        <path d="M3,14 L3,11 C3,4.925 7.925,0 14,0 C20.075,0 25,4.925 25,11 L25,14" id="Stroke-7"></path>
                        <path d="M5,17 L5,19 C5,23.971 9.029,28 14,28 C18.971,28 23,23.971 23,19 L23,17" id="Stroke-9"></path>
                    </g>
                </g>
            </g>
        </g>
    </g>
</svg>