<?xml version="1.0" encoding="UTF-8"?>
<svg width="32px" height="32px" viewBox="0 0 32 32" version="1.1" xmlns="http://www.w3.org/2000/svg" xmlns:xlink="http://www.w3.org/1999/xlink">
    <!-- Generator: Sketch 44.1 (41455) - http://www.bohemiancoding.com/sketch -->
    <title>Metarubrick / B2B / services_equip</title>
    <desc>Created with Sketch.</desc>
    <defs></defs>
    <g id="Page-1" stroke="none" stroke-width="1" fill="none" fill-rule="evenodd">
        <g id="New-meta-draft" transform="translate(-684.000000, -3784.000000)">
            <g id="Slice" transform="translate(84.000000, 84.000000)"></g>
            <g id="Icon" transform="translate(51.000000, 42.000000)" stroke="#8345FE" stroke-width="2">
                <g id="B2B" transform="translate(12.000000, 3693.000000)">
                    <g id="Services-equip" transform="translate(621.000000, 53.000000)">
                        <path d="M20,5 L20,2 C20,0.896 19.104,0 18,0 L16,0 L14,0 C12.896,0 12,0.896 12,2 L12,5" id="Stroke-1"></path>
                        <path d="M3,5 L29,5" id="Stroke-3"></path>
                        <path d="M4,8 L4,20 C4,22.209 5.791,24 8,24 L24,24 C26.209,24 28,22.209 28,20 L28,8" id="Stroke-5"></path>
                        <path d="M4,11 L0,11" id="Stroke-7"></path>
                        <path d="M32,11 L28,11" id="Stroke-9"></path>
                        <path d="M9,8 L9,18" id="Stroke-11"></path>
                    </g>
                </g>
            </g>
        </g>
    </g>
</svg>