<?xml version="1.0"?>
<svg xmlns="http://www.w3.org/2000/svg" xmlns:xlink="http://www.w3.org/1999/xlink" xmlns:svgjs="http://svgjs.com/svgjs" version="1.1" width="512" height="512" x="0" y="0" viewBox="0 0 512 512" style="enable-background:new 0 0 512 512" xml:space="preserve"><g><g xmlns="http://www.w3.org/2000/svg"><g><path d="m496.42 464.67h-10.68v-232.53c0-4.142-3.358-7.5-7.5-7.5s-7.5 3.358-7.5 7.5v129.5h-126.43v-152.11c0-4.142-3.358-7.5-7.5-7.5h-151.52c-4.142 0-7.5 3.358-7.5 7.5v20.21c0 3.661-2.979 6.64-6.64 6.64h-92.94c-3.662 0-6.64-2.979-6.64-6.64v-80.82c0-29.285 23.825-53.11 53.11-53.11h292.95c29.285 0 53.11 23.825 53.11 53.11v48.22c0 4.142 3.358 7.5 7.5 7.5s7.5-3.358 7.5-7.5v-48.22c0-36.736-29.239-66.754-65.665-68.048v-65.872h4.622c4.142 0 7.5-3.358 7.5-7.5s-3.358-7.5-7.5-7.5h-80.813c-4.142 0-7.5 3.358-7.5 7.5s3.358 7.5 7.5 7.5h4.622v33.488h-216.327v-17.325h8.663c4.142 0 7.5-3.358 7.5-7.5s-3.358-7.5-7.5-7.5h-32.325c-4.142 0-7.5 3.358-7.5 7.5s3.358 7.5 7.5 7.5h8.663v50.07c-34.04 3.747-60.61 32.667-60.61 67.687v80.82c0 11.449 8.938 20.844 20.203 21.587v10.734c0 11.934 9.708 21.642 21.642 21.642h18.764v49.069c0 4.142 3.358 7.5 7.5 7.5s7.5-3.358 7.5-7.5v-49.069h18.764c11.934 0 21.643-9.708 21.643-21.642v-10.734c11.265-.742 20.205-10.137 20.205-21.587v-12.71h136.52v144.61h-129.221c-4.142 0-7.5 3.358-7.5 7.5s3.358 7.5 7.5 7.5h270.65v88.03h-429.48v-55.13c0-18.141 14.764-32.9 32.91-32.9h90.92c4.142 0 7.5-3.358 7.5-7.5s-3.358-7.5-7.5-7.5h-90.92c-26.418 0-47.91 21.488-47.91 47.9v55.13h-10.68c-8.591 0-15.58 6.994-15.58 15.59v16.16c0 8.591 6.989 15.58 15.58 15.58h380.87c4.142 0 7.5-3.358 7.5-7.5s-3.358-7.5-7.5-7.5h-380.87c-.32 0-.58-.26-.58-.58v-16.16c0-.325.26-.59.58-.59h480.84c.32 0 .58.265.58.59v16.16c0 .32-.26.58-.58.58h-64.97c-4.142 0-7.5 3.358-7.5 7.5s3.358 7.5 7.5 7.5h64.97c8.591 0 15.58-6.989 15.58-15.58v-16.16c0-8.596-6.989-15.59-15.58-15.59zm-91.345-449.67v65.81h-41.569v-65.81zm-56.569 48.488v17.322h-216.327v-17.322zm-197.563 205.215h-52.528c-3.663 0-6.642-2.979-6.642-6.642v-10.681h65.813v10.681c-.001 3.663-2.981 6.642-6.643 6.642z" fill="#0e4c26" data-original="#000000" style=""/><path d="m407.524 203.548c-15.275 0-27.703 12.428-27.703 27.703s12.428 27.703 27.703 27.703 27.703-12.428 27.703-27.703-12.427-27.703-27.703-27.703zm0 40.406c-7.004 0-12.703-5.699-12.703-12.703s5.699-12.703 12.703-12.703 12.703 5.699 12.703 12.703-5.698 12.703-12.703 12.703z" fill="#0e4c26" data-original="#000000" style=""/><path d="m407.524 284.866c-15.275 0-27.703 12.428-27.703 27.704 0 15.275 12.428 27.703 27.703 27.703s27.703-12.428 27.703-27.703c.001-15.277-12.427-27.704-27.703-27.704zm0 40.406c-7.004 0-12.703-5.699-12.703-12.703 0-7.005 5.699-12.704 12.703-12.704s12.703 5.699 12.703 12.704c.001 7.005-5.698 12.703-12.703 12.703z" fill="#0e4c26" data-original="#000000" style=""/><path d="m188.9 140.841v16.163c0 4.142 3.358 7.5 7.5 7.5s7.5-3.358 7.5-7.5v-16.163c0-4.142-3.358-7.5-7.5-7.5s-7.5 3.358-7.5 7.5z" fill="#0e4c26" data-original="#000000" style=""/><path d="m221.226 140.841v16.163c0 4.142 3.358 7.5 7.5 7.5s7.5-3.358 7.5-7.5v-16.163c0-4.142-3.358-7.5-7.5-7.5s-7.5 3.358-7.5 7.5z" fill="#0e4c26" data-original="#000000" style=""/><path d="m253.551 140.841v16.163c0 4.142 3.358 7.5 7.5 7.5s7.5-3.358 7.5-7.5v-16.163c0-4.142-3.358-7.5-7.5-7.5s-7.5 3.358-7.5 7.5z" fill="#0e4c26" data-original="#000000" style=""/><path d="m285.876 140.841v16.163c0 4.142 3.358 7.5 7.5 7.5s7.5-3.358 7.5-7.5v-16.163c0-4.142-3.358-7.5-7.5-7.5s-7.5 3.358-7.5 7.5z" fill="#0e4c26" data-original="#000000" style=""/><path d="m318.201 140.841v16.163c0 4.142 3.358 7.5 7.5 7.5s7.5-3.358 7.5-7.5v-16.163c0-4.142-3.358-7.5-7.5-7.5s-7.5 3.358-7.5 7.5z" fill="#0e4c26" data-original="#000000" style=""/></g></g></g></svg>
