<?xml version="1.0"?>
<svg xmlns="http://www.w3.org/2000/svg" xmlns:xlink="http://www.w3.org/1999/xlink" xmlns:svgjs="http://svgjs.com/svgjs" version="1.1" width="512" height="512" x="0" y="0" viewBox="0 0 512 512" style="enable-background:new 0 0 512 512" xml:space="preserve"><g><g xmlns="http://www.w3.org/2000/svg"><g><path d="m303.684 391.215c23.874 0 47.749-9.088 65.924-27.263 36.351-36.351 36.351-95.499 0-131.85-17.609-17.609-41.022-27.307-65.925-27.307s-48.315 9.698-65.925 27.308c-17.609 17.609-27.307 41.022-27.307 65.925s9.698 48.315 27.307 65.925c18.176 18.174 42.051 27.262 65.926 27.262zm55.345-148.535c30.518 30.518 30.518 80.174 0 110.692-15.26 15.26-35.299 22.89-55.346 22.888-20.041-.001-40.089-7.631-55.346-22.888-1.74-1.74-3.379-3.552-4.932-5.421 23.575-6.12 45.194-18.413 62.871-36.09 21.859-21.857 35.496-49.741 39.385-79.903 4.776 3.048 9.265 6.619 13.368 10.722zm-110.692 0c10.571-10.571 23.639-17.723 37.867-20.954-1.714 17.384-9.189 34.301-22.476 47.588-10.589 10.589-23.682 17.756-37.941 20.977 1.754-17.984 9.605-34.665 22.55-47.611zm-22.564 62.884c18.278-3.43 35.098-12.235 48.534-25.671 16.692-16.692 25.687-38.191 27.049-60.081.775-.023 1.548-.057 2.326-.057 9.618 0 18.964 1.743 27.7 5.043-2.494 28.897-14.936 55.734-35.686 76.484-17.041 17.041-38.191 28.465-61.211 33.393-4.77-8.979-7.736-18.833-8.712-29.111z" fill="#eb0c0c" data-original="#000000" style=""/><path d="m401.577 200.133c-17.996-17.997-40.075-30.428-64.148-36.43-3.248-8.358-7.306-16.411-12.185-24.048l24.142-24.142-.655 4.359c-1.157 7.706.425 15.662 4.835 22.086 4.778 6.959 12.052 11.505 20.354 12.753 1.488.223 3.002.336 4.498.336 14.751 0 27.53-11.015 29.724-25.619l14.205-94.552c1.423-9.462-1.785-19.111-8.585-25.844-.072-.076-.144-.151-.218-.225-7.549-7.548-18.481-10.468-28.671-7.887-2.377.602-4.752 1.215-7.162 1.667l-80.419 15.083c-16.305 3.058-27.082 18.812-24.024 35.117 2.686 14.32 15.163 24.376 29.208 24.541l-19.779 19.78c-22.132-14.139-47.691-21.581-74.314-21.581-36.979 0-71.745 14.401-97.894 40.549-25.916 25.916-40.552 61.253-40.549 97.904.003 36.976 14.403 71.737 40.549 97.883 17.988 17.989 40.063 30.389 64.124 36.393 3.256 8.37 7.322 16.436 12.209 24.086l-13.392 13.392-10.62-10.621c-11.731-11.73-30.818-11.729-42.548 0-11.73 11.73-11.73 30.817 0 42.548l10.62 10.62-32.36 32.36c-5.683 5.682-8.812 13.237-8.812 21.274s3.13 15.592 8.812 21.274 13.237 8.812 21.274 8.812 15.592-3.13 21.275-8.813l3.244-3.245c2.921-2.922 2.92-7.658-.001-10.579-2.924-2.922-7.66-2.92-10.58.001l-3.243 3.244c-5.903 5.872-15.514 5.876-21.39 0-2.857-2.857-4.43-6.655-4.43-10.695s1.573-7.838 4.43-10.695l37.65-37.65c1.403-1.403 2.191-3.305 2.191-5.29s-.788-3.887-2.191-5.29l-15.91-15.91c-5.897-5.897-5.897-15.492 0-21.39 5.897-5.895 15.492-5.897 21.39 0l15.91 15.91c2.921 2.921 7.658 2.921 10.579 0l23.031-23.031c2.573-2.573 2.922-6.625.824-9.6-14.636-20.76-22.373-45.291-22.373-70.943 0-32.984 12.844-63.992 36.167-87.315s54.331-36.167 87.314-36.167c32.984 0 63.993 12.844 87.315 36.167 48.145 48.145 48.145 126.483 0 174.629-23.283 23.283-54.292 36.105-87.315 36.106-25.605 0-50.134-7.724-70.935-22.337-2.974-2.089-7.02-1.739-9.59.831l-23.05 23.05c-1.403 1.403-2.191 3.305-2.191 5.29s.788 3.887 2.191 5.29l15.91 15.91c2.857 2.857 4.43 6.655 4.43 10.695 0 8.284-6.892 15.124-15.125 15.125-4.04 0-7.838-1.573-10.695-4.43l-15.91-15.91c-2.921-2.921-7.658-2.921-10.579 0l-9.558 9.558c-2.922 2.921-2.922 7.658 0 10.579 2.921 2.921 7.658 2.921 10.579 0l4.269-4.269 10.62 10.62c5.682 5.683 13.238 8.812 21.274 8.812s15.591-3.13 21.274-8.812 8.812-13.237 8.812-21.274-3.13-15.592-8.812-21.274l-10.621-10.62 13.418-13.417c22.163 14.116 47.712 21.545 74.288 21.545 37.02 0 71.786-14.379 97.894-40.488 53.979-53.978 53.979-141.808.001-195.786zm-97.894-40.55c-6.313 0-12.558.43-18.71 1.256-3.115-4.501-6.66-8.791-10.665-12.796-17.609-17.609-41.022-27.307-65.925-27.307-6.705 0-13.394.712-19.881 2.114-4.038.873-6.604 4.855-5.73 8.893.873 4.037 4.853 6.601 8.893 5.73 5.45-1.179 11.075-1.776 16.719-1.776 20.907 0 40.563 8.142 55.346 22.925 1.744 1.744 3.381 3.554 4.921 5.417-23.571 6.121-45.185 18.419-62.86 36.093-21.858 21.857-35.5 49.738-39.39 79.899-4.776-3.043-9.261-6.617-13.363-10.718-14.784-14.784-22.925-34.439-22.925-55.346 0-20.906 8.142-40.561 22.926-55.346 3.234-3.234 6.752-6.195 10.457-8.801 3.379-2.377 4.192-7.043 1.816-10.422s-7.042-4.192-10.422-1.816c-4.408 3.099-8.59 6.619-12.43 10.46-17.609 17.61-27.307 41.022-27.307 65.924 0 24.903 9.698 48.316 27.307 65.925 6.813 6.813 14.498 12.437 22.799 16.776-.004.453-.017.904-.017 1.357 0 11.283 1.351 22.37 3.967 33.09-17.938-5.979-34.38-16.074-48.14-29.834-22.915-22.915-35.715-53.25-36.155-85.589-.447-32.842 12.289-64.716 35.288-88.165 23.418-23.876 54.788-37.042 88.182-37.042 25.652 0 50.184 7.736 70.944 22.373 2.975 2.097 7.028 1.748 9.6-.825l40.299-40.299c2.102-2.102 2.967-5.242 1.949-8.035-1.276-3.497-4.854-5.48-8.416-4.809l-17.132 3.213c-8.2 1.535-16.117-3.882-17.654-12.077-1.538-8.197 3.881-16.116 12.078-17.654 0 0 84.649-15.908 84.737-15.924 1.395-.262 2.776-.603 4.178-.827 5.607-.895 12.34.978 15.805 5.756 2.321 3.201 3.369 7.358 2.781 11.273-.001.005-14.204 94.547-14.206 94.553-1.221 8.125-9.079 13.924-17.202 12.71-4.131-.621-7.755-2.865-10.158-6.302-2.295-3.283-3.08-7.389-2.485-11.351.959-6.385 3.131-20.841 4.014-26.716.434-2.89-.687-5.875-3.094-7.534-3.026-2.084-7.027-1.666-9.552.859l-44.554 44.553c-2.557 2.557-2.946 6.595-.86 9.55 3.942 5.585 7.362 11.451 10.282 17.533-5.293-.604-10.649-.921-16.055-.921z" fill="#eb0c0c" data-original="#000000" style=""/></g></g></g></svg>
