<?xml version="1.0"?>
<svg xmlns="http://www.w3.org/2000/svg" xmlns:xlink="http://www.w3.org/1999/xlink" xmlns:svgjs="http://svgjs.com/svgjs" version="1.1" width="512" height="512" x="0" y="0" viewBox="0 0 682.66669 682.66669" style="enable-background:new 0 0 512 512" xml:space="preserve"><g><path xmlns="http://www.w3.org/2000/svg" d="m345 268.664062h-18.75v-18.75h18.75zm-31.25 0h-18.75v-18.75h18.75zm0 0" fill="#0d2b72" data-original="#000000" style=""/><path xmlns="http://www.w3.org/2000/svg" d="m621.382812 37.5h-44.914062v-28.257812l-9.242188-9.242188h-50.035156l-9.246094 9.242188v28.257812h-375.890624v-28.257812l-9.246094-9.242188h-50.035156l-9.242188 9.242188v28.257812h-44.914062l-18.617188 18.617188v280.332031l18.617188 18.621093h602.765624l18.617188-18.621093v-280.332031zm-94.6875-18.75h31.023438v18.75h-31.023438zm-444.414062 0h31.019531v18.75h-31.019531zm538.96875 309.9375-7.632812 7.632812h-587.234376l-7.632812-7.632812v-264.804688l7.632812-7.632812h587.234376l7.632812 7.632812zm0 0" fill="#0d2b72" data-original="#000000" style=""/><path xmlns="http://www.w3.org/2000/svg" d="m508.664062 93.75h75.085938v205.070312h-527.5v-205.070312h427.414062v-18.75h-446.164062v242.570312h565v-242.570312h-93.835938zm0 0" fill="#0d2b72" data-original="#000000" style=""/><path xmlns="http://www.w3.org/2000/svg" d="m113.304688 621.25h-31.023438v-240.554688h-18.75v259.304688h68.523438v-259.304688h-18.75zm0 0" fill="#0d2b72" data-original="#000000" style=""/><path xmlns="http://www.w3.org/2000/svg" d="m557.71875 621.25h-31.023438v-240.554688h-18.75v259.304688h68.523438v-259.304688h-18.75zm0 0" fill="#0d2b72" data-original="#000000" style=""/></g></svg>
