<?xml version="1.0"?>
<svg xmlns="http://www.w3.org/2000/svg" xmlns:xlink="http://www.w3.org/1999/xlink" xmlns:svgjs="http://svgjs.com/svgjs" version="1.1" width="512" height="512" x="0" y="0" viewBox="0 0 512 512" style="enable-background:new 0 0 512 512" xml:space="preserve"><g><path xmlns="http://www.w3.org/2000/svg" d="m219.890625 184.523438h-97.957031c-4.148438 0-7.507813 3.359374-7.507813 7.503906 0 4.148437 3.359375 7.507812 7.507813 7.507812h13.09375v11.703125h-9.875c-7.703125 0-14.128906 5.597657-15.417969 12.941407h-54.6875v-14.515626c0-5.585937 4.542969-10.128906 10.128906-10.128906h21.726563c4.148437 0 7.507812-3.359375 7.507812-7.507812 0-4.144532-3.359375-7.503906-7.507812-7.503906h-21.726563c-13.863281 0-25.140625 11.277343-25.140625 25.140624v106c0 13.863282 11.277344 25.144532 25.140625 25.144532h154.714844c13.863281 0 25.140625-11.28125 25.140625-25.144532v-106c0-13.863281-11.277344-25.140624-25.140625-25.140624zm-95.375 42.367187c0-.351563.285156-.640625.636719-.640625h34.757812c.355469 0 .640625.289062.640625.640625v71.546875c0 .351562-.285156.640625-.640625.640625h-34.757812c-.351563 0-.636719-.289063-.636719-.640625zm-69.46875 12.300781h54.457031v15.96875h-54.457031zm0 30.980469h54.457031v15.964844h-54.457031zm79.980469 55.621094h-69.851563c-5.585937 0-10.128906-4.542969-10.128906-10.128907v-14.515624h54.691406c1.285157 7.34375 7.710938 12.941406 15.414063 12.941406h9.875zm94.992187-10.128907c0 5.585938-4.542969 10.128907-10.128906 10.128907h-69.851563v-11.703125h9.871094c7.707032 0 14.128906-5.597656 15.417969-12.9375h54.691406zm0-29.527343h-54.457031v-15.96875h54.457031zm0-30.976563h-54.457031v-15.96875h54.457031zm0-30.980468h-54.691406c-1.289063-7.34375-7.710937-12.941407-15.417969-12.941407h-9.871094v-11.703125h69.851563c5.585937 0 10.128906 4.542969 10.128906 10.128906zm0 0" fill="#d71e1e" data-original="#000000" style=""/><path xmlns="http://www.w3.org/2000/svg" d="m506.355469 56.917969-51.273438-51.273438c-3.640625-3.640625-8.480469-5.644531-13.625-5.644531h-277.699219c-10.625 0-19.269531 8.644531-19.269531 19.269531v43.785157c0 4.144531 3.359375 7.503906 7.507813 7.503906 4.144531 0 7.503906-3.359375 7.503906-7.503906v-43.785157c0-2.347656 1.910156-4.257812 4.257812-4.257812h277.699219c1.136719 0 2.207031.441406 3.007813 1.246093l51.277344 51.277344c.804687.800782 1.246093 1.871094 1.246093 3.007813v146.539062c0 2.347657-1.910156 4.253907-4.257812 4.253907h-125.21875v-6.304688c0-5.144531-2.003907-9.984375-5.644531-13.625l-5.089844-5.089844h7.601562c13.863282 0 25.140625-11.277344 25.140625-25.140625v-106c0-13.863281-11.277343-25.144531-25.140625-25.144531h-154.714844c-13.863281 0-25.140624 11.28125-25.140624 25.144531v79.3125h-25.023438v-46.40625c0-4.144531-3.359375-7.507812-7.503906-7.507812-4.148438 0-7.507813 3.363281-7.507813 7.507812v46.40625h-125.21875c-10.625 0-19.269531 8.644531-19.269531 19.269531v197.8125c0 10.625 8.644531 19.269532 19.269531 19.269532h328.972657c10.625 0 19.269531-8.644532 19.269531-19.269532v-125.21875h125.21875c10.625 0 19.269531-8.644531 19.269531-19.269531v-146.539062c0-5.144531-2.003906-9.984375-5.644531-13.625zm-131.847657 84.730469h-8.265624c-4.148438 0-7.507813 3.359374-7.507813 7.507812 0 4.144531 3.359375 7.503906 7.507813 7.503906h8.265624v14.515625c0 5.585938-4.542968 10.128907-10.128906 10.128907h-22.613281l-22.492187-22.488282c.230468-.703125.410156-1.421875.542968-2.152344h11.394532c4.148437 0 7.507812-3.363281 7.507812-7.507812s-3.359375-7.507812-7.507812-7.507812h-11.15625v-15.964844h54.453124zm0-30.980469h-54.457031v-15.964844h54.457031zm-79.980468-55.621094h69.851562c5.585938 0 10.128906 4.542969 10.128906 10.128906v14.515625h-54.691406c-1.289062-7.34375-7.710937-12.941406-15.417968-12.941406h-9.871094zm10.511718 27.355469v63.847656c-1.527343-.707031-3.113281-1.191406-4.714843-1.472656-2.246094-.390625-.777344-.289063-31.320313-.289063v-62.089843c0-.351563.285156-.636719.636719-.636719h34.757813c.355468 0 .640624.285156.640624.640625zm-105.503906-17.226563c0-5.585937 4.542969-10.132812 10.128906-10.132812h69.851563v11.707031h-9.875c-7.703125 0-14.125 5.597656-15.414063 12.9375h-54.691406zm0 29.527344h54.457032v15.964844h-54.457032zm0 30.976563h54.457032v18.808593h-54.457032zm152.964844 235.890624c0 2.347657-1.910156 4.257813-4.257812 4.257813h-328.972657c-2.347656 0-4.257812-1.910156-4.257812-4.257813v-197.8125c0-2.347656 1.910156-4.257812 4.257812-4.257812h277.699219c1.132812 0 2.203125.441406 3.007812 1.25 13.40625 13.40625 9.132813 9.132812 51.277344 51.273438.804688.804687 1.246094 1.875 1.246094 3.011718zm0 0" fill="#d71e1e" data-original="#000000" style=""/></g></svg>
