<?xml version="1.0"?>
<svg xmlns="http://www.w3.org/2000/svg" xmlns:xlink="http://www.w3.org/1999/xlink" xmlns:svgjs="http://svgjs.com/svgjs" version="1.1" width="512" height="512" x="0" y="0" viewBox="0 0 512 512" style="enable-background:new 0 0 512 512" xml:space="preserve" class=""><g><g xmlns="http://www.w3.org/2000/svg"><path d="m504.5 406.977h-9.073v-211.097c0-10.212-8.309-18.521-18.521-18.521h-.247v-57.329c0-16.546-13.461-30.007-30.007-30.007h-34.006c-16.546 0-30.007 13.461-30.007 30.007v57.329h-9.67c-10.212 0-18.521 8.309-18.521 18.521v42.284c0 10.895-1.769 21.6-5.257 31.817-1.339 3.92.755 8.183 4.675 9.521 3.92 1.343 8.183-.755 9.521-4.675 4.022-11.781 6.062-24.116 6.062-36.663v-42.284c0-1.941 1.579-3.521 3.521-3.521h103.937c1.941 0 3.521 1.579 3.521 3.521v211.097h-448.855v-42.381c0-4.143-3.357-7.5-7.5-7.5s-7.5 3.357-7.5 7.5v42.381h-9.073c-4.143 0-7.5 3.357-7.5 7.5s3.357 7.5 7.5 7.5h497c4.143 0 7.5-3.357 7.5-7.5s-3.357-7.5-7.5-7.5zm-91.854-301.954h34.006c8.274 0 15.007 6.732 15.007 15.007v13.661h-64.02v-13.661c.001-8.274 6.733-15.007 15.007-15.007zm-15.006 43.668h64.02v28.668h-64.02z" fill="#dd651d" data-original="#000000" style=""/><path d="m24.073 342.108c4.143 0 7.5-3.357 7.5-7.5v-138.728c0-1.941 1.58-3.521 3.521-3.521h103.936c1.941 0 3.521 1.579 3.521 3.521v42.284c0 62.556 50.893 113.448 113.448 113.448 36.22 0 70.563-17.527 91.87-46.885 2.433-3.353 1.688-8.042-1.665-10.476-3.354-2.432-8.042-1.688-10.476 1.665-18.493 25.482-48.299 40.695-79.729 40.695-54.284 0-98.448-44.164-98.448-98.448v-42.283c0-10.212-8.309-18.521-18.521-18.521h-9.669v-57.329c0-16.546-13.461-30.007-30.007-30.007h-34.006c-16.546 0-30.007 13.461-30.007 30.007v57.329h-.246c-10.213 0-18.521 8.309-18.521 18.521v138.729c-.001 4.142 3.357 7.499 7.499 7.499zm41.275-237.085h34.007c8.274 0 15.007 6.732 15.007 15.007v13.661h-64.021v-13.661c0-8.274 6.732-15.007 15.007-15.007zm-15.007 43.668h64.021v28.668h-64.021z" fill="#dd651d" data-original="#000000" style=""/></g></g></svg>
