<?xml version="1.0"?>
<svg xmlns="http://www.w3.org/2000/svg" xmlns:xlink="http://www.w3.org/1999/xlink" xmlns:svgjs="http://svgjs.com/svgjs" version="1.1" width="512" height="512" x="0" y="0" viewBox="0 0 509 509" style="enable-background:new 0 0 512 512" xml:space="preserve" class=""><g><path xmlns="http://www.w3.org/2000/svg" d="m472.185 486.342c-22.23-37.437-44.449-74.881-66.669-112.324 42.02-40.921 65.771-96.72 65.771-156.018 0-58.229-22.676-112.975-63.851-154.149s-95.919-63.851-154.149-63.851-112.974 22.676-154.149 63.851-63.851 95.92-63.851 154.149c0 60.014 24.314 116.455 67.287 157.504-17.75 30-35.765 60.334-53.233 89.746l-12.525 21.092c-2.753 4.636-2.806 10.393-.139 15.078 2.667 4.687 7.645 7.58 13.036 7.58h409.574c5.392 0 10.369-2.894 13.036-7.58s2.615-10.442-.138-15.078zm-343.921-95.342h252.444c5.539 9.333 11.079 18.666 16.618 27.999h-285.647c5.538-9.34 11.074-18.685 16.585-27.999zm100.701-116.078h48.644c7.336 19.639 16.768 38.416 29.157 55.396l22.386 30.682h-21.73c-.358-1.01-.821-1.999-1.412-2.945l-16.422-26.297c-8.407-13.461-21.568-21.15-36.166-21.15-.146 0-.292 0-.439.002-14.958.157-27.816 7.918-36.205 21.852l-17.184 28.538h-22.173l22.386-30.683c12.389-16.98 21.822-35.757 29.158-55.395zm9.535-30c7.381-27.574 11.623-55.899 14.787-82.666 3.164 26.766 7.406 55.092 14.787 82.666zm33.98 116.078h-37.867l7.866-13.064c4.371-7.26 9.225-7.312 10.82-7.328 1.579-.029 6.403-.067 10.843 7.041zm-207.193-143c0-103.664 84.336-188 188-188s188 84.336 188 188c0 55.339-23.976 107.16-65.969 143h-9.718c-.467-1.238-1.09-2.437-1.908-3.558l-32.691-44.807c-8.429-11.553-15.335-24.272-21.067-37.714h18.516c8.284 0 15-6.716 15-15s-6.716-15-15-15h-29.17c-10.652-36.262-15.162-75.226-18.82-109.86h2.766c8.284 0 15-6.716 15-15s-6.716-15-15-15h-13.567v-31.061c0-8.284-6.716-15-15-15s-15 6.716-15 15v31.062h-13.566c-8.284 0-15 6.716-15 15s6.716 15 15 15h.02c-3.658 34.634-8.167 73.598-18.82 109.86h-26.425c-8.284 0-15 6.716-15 15s6.716 15 15 15h15.771c-5.732 13.442-12.638 26.161-21.067 37.714l-32.691 44.807c-.817 1.12-1.441 2.32-1.908 3.558h-9.718c-41.992-35.842-65.968-87.662-65.968-143.001zm10.779 261c5.887-9.912 11.837-19.931 17.815-30.001h321.25c5.936 10 11.869 20.001 17.806 30.001z" fill="#1499b7" data-original="#000000" style="" class=""/></g></svg>
