<?xml version="1.0"?>
<svg xmlns="http://www.w3.org/2000/svg" xmlns:xlink="http://www.w3.org/1999/xlink" xmlns:svgjs="http://svgjs.com/svgjs" version="1.1" width="512" height="512" x="0" y="0" viewBox="0 0 512 512" style="enable-background:new 0 0 512 512" xml:space="preserve" class=""><g>
<g xmlns="http://www.w3.org/2000/svg">
	<g>
		<g>
			<path d="M405.488,417.402c-14.84,0-26.914,12.074-26.914,26.914c0,14.84,12.074,26.914,26.914,26.914     c14.84,0,26.914-12.074,26.914-26.914C432.402,429.476,420.329,417.402,405.488,417.402z M405.488,456.23     c-6.569,0-11.914-5.345-11.914-11.914c0-6.569,5.345-11.914,11.914-11.914c6.569,0,11.914,5.345,11.914,11.914     C417.402,450.885,412.058,456.23,405.488,456.23z" fill="#34cbb6" data-original="#000000" style=""/>
			<path d="M485.086,458.172c-14.84,0-26.914,12.074-26.914,26.914c0,14.84,12.074,26.914,26.914,26.914     c14.84,0,26.914-12.074,26.914-26.914C512,470.246,499.926,458.172,485.086,458.172z M485.086,497     c-6.569,0-11.914-5.345-11.914-11.914c0-6.569,5.345-11.914,11.914-11.914c6.569,0,11.914,5.345,11.914,11.914     C497,491.655,491.655,497,485.086,497z" fill="#34cbb6" data-original="#000000" style=""/>
			<path d="M460.5,344.786l-9.161-9.162h25.823c1.989,0,3.897-0.79,5.303-2.197l19.219-19.219c2.929-2.929,2.929-7.678,0-10.606     c-2.929-2.929-7.678-2.929-10.606,0l-17.022,17.022H437.61l16.709-16.709c2.929-2.929,2.929-7.678,0-10.606     c-2.928-2.929-7.677-2.929-10.606,0l-27.316,27.315h-20.881v-4.576l12.821-12.82c2.929-2.929,2.929-7.677,0-10.606     c-2.928-2.929-7.677-2.929-10.606,0l-2.214,2.214v-4.095c0.141-0.121,0.282-0.242,0.415-0.375l41.431-41.432h37.663     c4.142,0,7.5-3.358,7.5-7.5c0-4.142-3.358-7.5-7.5-7.5h-22.663l14.121-14.121h27.956c4.142,0,7.5-3.358,7.5-7.5     c0-4.142-3.358-7.5-7.5-7.5h-12.956l18.259-18.259c1.407-1.406,2.197-3.314,2.197-5.303v-27.18c0-4.142-3.358-7.5-7.5-7.5     c-4.142,0-7.5,3.358-7.5,7.5v24.073l-25.771,25.771v-23.63c0-4.142-3.358-7.5-7.5-7.5c-4.142,0-7.5,3.358-7.5,7.5v38.631     l-17.212,17.212c-0.003,0.003-0.006,0.005-0.008,0.008l-0.78,0.78v-24.602c0-4.142-3.358-7.5-7.5-7.5c-4.142,0-7.5,3.358-7.5,7.5     v39.603l-17.652,17.652V150.193c0-15.375-12.509-27.885-27.885-27.885h-2.692v-20.982c6.625-2.395,11.381-8.729,11.381-16.17     V65.742c0-3.599-1.11-6.942-3.006-9.707c1.896-2.765,3.006-6.108,3.006-9.707v-9.707C376.32,16.428,359.892,0,339.699,0H230.543     c-20.193,0-36.621,16.428-36.621,36.621v9.707c0,3.599,1.11,6.942,3.006,9.707c-1.896,2.765-3.006,6.108-3.006,9.707v19.414     c0,7.441,4.756,13.775,11.381,16.17v20.982h-2.692c-15.375,0-27.885,12.509-27.885,27.885v141.976     c-4.8-3.371-10.504-5.195-16.491-5.195h-21.201c-7.687,0-14.914,2.994-20.349,8.429l-27.141,27.141     c-2.929,2.929-2.929,7.678,0,10.606c2.929,2.929,7.678,2.929,10.606,0l27.141-27.141c2.603-2.603,6.063-4.036,9.743-4.036h21.201     c3.681,0,7.14,1.433,9.743,4.036l66.253,66.253c-7.454-0.303-12.488,1.751-15.044,6.178c-5.212,9.027,3.232,22.024,25.111,38.696     c-10.068,7.672-17.283,14.563-21.639,20.65h-24.03c-2.926-11.695-13.52-20.385-26.109-20.385s-23.183,8.69-26.109,20.385H28.778     c-7.597,0-13.778-6.181-13.778-13.778c0-3.68,1.433-7.14,4.036-9.743l59.449-59.449c2.929-2.929,2.929-7.678,0-10.606     c-2.929-2.929-7.678-2.929-10.606,0l-59.45,59.45C2.994,409.095,0,416.322,0,424.009c0,15.869,12.91,28.778,28.778,28.778     h118.201c3.559,10.701,13.659,18.443,25.541,18.443s21.982-7.742,25.541-18.443h19.93c0.245,1.06,0.637,2.076,1.196,3.045     c5.211,9.026,20.69,8.212,46.066-2.399c3.499,27.282,10.533,41.094,20.956,41.094c10.423,0,17.457-13.812,20.956-41.094     c25.376,10.612,40.855,11.426,46.067,2.399c4.617-7.996-1.494-19.113-18.158-33.137h12.173c26.616,0,48.27-21.654,48.27-48.27     v-32.228l20.059,20.059c1.464,1.464,3.384,2.197,5.303,2.197s3.839-0.732,5.303-2.197c2.929-2.929,2.929-7.678,0-10.606     l-16.025-16.025h19.971l19.768,19.768c1.464,1.465,3.384,2.197,5.303,2.197s3.839-0.732,5.303-2.197     C463.429,352.464,463.429,347.715,460.5,344.786z M172.52,456.23c-6.569,0-11.914-5.345-11.914-11.914     c0-6.569,5.345-11.914,11.914-11.914c6.569,0,11.914,5.345,11.914,11.914C184.434,450.885,179.089,456.23,172.52,456.23z      M208.922,65.742c0-1.217,0.99-2.207,2.207-2.207h116.703c4.142,0,7.5-3.358,7.5-7.5c0-4.142-3.358-7.5-7.5-7.5H211.129     c-1.217,0-2.207-0.99-2.207-2.207v-9.707c0-11.922,9.699-21.621,21.621-21.621h109.155c11.922,0,21.621,9.699,21.621,21.621     v9.707c0,1.217-0.99,2.207-2.207,2.207c-4.142,0-7.5,3.358-7.5,7.5c0,4.142,3.358,7.5,7.5,7.5c1.217,0,2.207,0.99,2.207,2.207     v19.414c0,1.217-0.99,2.207-2.207,2.207H211.129c-1.217,0-2.207-0.99-2.207-2.207V65.742z M189.725,150.194     c0.002-7.105,5.782-12.885,12.886-12.885h10.192c4.142,0,7.5-3.358,7.5-7.5v-27.445h129.635v27.445c0,4.142,3.358,7.5,7.5,7.5     h10.192c7.104,0,12.885,5.78,12.885,12.885v32.63c-3.909-2.067-8.358-3.243-13.079-3.243c-8.12,0-15.447,3.466-20.579,8.995     c-5.131-5.529-12.458-8.995-20.579-8.995c-8.12,0-15.447,3.466-20.579,8.995c-5.131-5.529-12.458-8.995-20.579-8.995     c-8.121,0-15.448,3.466-20.579,8.995c-5.131-5.529-12.458-8.995-20.579-8.995c-8.121,0-15.448,3.466-20.579,8.995     c-5.131-5.529-12.458-8.995-20.579-8.995c-4.721,0-9.17,1.176-13.079,3.243V150.194z M311.09,410.99     c-2.006,1.403-3.202,3.697-3.202,6.146c0,2.449,1.195,4.743,3.202,6.146c16.254,11.368,23.872,19.446,26.937,23.77     c-5.279-0.492-16.085-3.049-34.056-11.443c-2.218-1.036-4.803-0.923-6.924,0.3c-2.121,1.224-3.51,3.407-3.722,5.846     c-1.717,19.76-4.905,30.396-7.117,35.213c-2.212-4.816-5.4-15.453-7.117-35.213c-0.212-2.439-1.601-4.622-3.722-5.846     c-1.157-0.668-2.452-1.005-3.75-1.005c-1.081,0-2.165,0.234-3.173,0.705c-17.973,8.394-28.777,10.951-34.054,11.443     c3.065-4.324,10.683-12.403,26.938-23.77c2.006-1.403,3.202-3.697,3.202-6.146c0-2.449-1.195-4.743-3.202-6.146     c-16.254-11.366-23.872-19.446-26.937-23.77c5.277,0.493,16.083,3.05,34.054,11.443c2.219,1.036,4.804,0.925,6.924-0.3     c2.121-1.224,3.51-3.407,3.722-5.846c1.717-19.76,4.905-30.396,7.117-35.213c2.212,4.816,5.4,15.453,7.117,35.213     c0.212,2.439,1.601,4.622,3.722,5.846c2.119,1.224,4.704,1.336,6.924,0.3c17.971-8.394,28.777-10.951,34.054-11.443     C334.962,391.544,327.344,399.623,311.09,410.99z M347.246,407.696h-7.747c13.293-12.206,17.915-22.01,13.732-29.254     c-5.212-9.025-20.689-8.212-46.067,2.399c-3.499-27.282-10.533-41.094-20.956-41.094c-10.423,0-17.457,13.812-20.956,41.094     c-0.747-0.313-1.484-0.615-2.214-0.91c-0.175-0.219-0.36-0.433-0.563-0.635l-72.75-72.75V207.66     c0-7.211,5.867-13.079,13.079-13.079c7.211,0,13.079,5.867,13.079,13.079c0,4.142,3.358,7.5,7.5,7.5c4.142,0,7.5-3.358,7.5-7.5     c0-7.211,5.867-13.079,13.079-13.079c7.211,0,13.079,5.867,13.079,13.079c0,4.142,3.358,7.5,7.5,7.5c4.142,0,7.5-3.358,7.5-7.5     c0-7.211,5.867-13.079,13.079-13.079c7.212,0,13.079,5.867,13.079,13.079c0,4.142,3.358,7.5,7.5,7.5c4.142,0,7.5-3.358,7.5-7.5     c0-7.211,5.867-13.079,13.079-13.079c7.212,0,13.079,5.867,13.079,13.079c0,4.142,3.358,7.5,7.5,7.5c4.142,0,7.5-3.358,7.5-7.5     c0-7.211,5.867-13.079,13.079-13.079c7.212,0,13.079,5.867,13.079,13.079v166.766h0.001     C380.516,392.771,365.591,407.696,347.246,407.696z" fill="#34cbb6" data-original="#000000" style=""/>
			<path d="M309.389,271.797h-48.535c-4.142,0-7.5,3.358-7.5,7.5c0,4.142,3.358,7.5,7.5,7.5h48.535c4.142,0,7.5-3.358,7.5-7.5     C316.889,275.155,313.531,271.797,309.389,271.797z" fill="#34cbb6" data-original="#000000" style=""/>
			<path d="M323.656,242.676h-77.07c-9.649,0-17.5,7.851-17.5,17.5v38.242c0,9.649,7.851,17.5,17.5,17.5h77.07     c9.649,0,17.5-7.851,17.5-17.5v-38.242C341.156,250.526,333.306,242.676,323.656,242.676z M326.156,298.418     c0,1.378-1.122,2.5-2.5,2.5h-77.07c-1.378,0-2.5-1.122-2.5-2.5v-38.242c0-1.378,1.122-2.5,2.5-2.5h77.07     c1.378,0,2.5,1.122,2.5,2.5V298.418z" fill="#34cbb6" data-original="#000000" style=""/>
		</g>
	</g>
</g>
<g xmlns="http://www.w3.org/2000/svg">
</g>
<g xmlns="http://www.w3.org/2000/svg">
</g>
<g xmlns="http://www.w3.org/2000/svg">
</g>
<g xmlns="http://www.w3.org/2000/svg">
</g>
<g xmlns="http://www.w3.org/2000/svg">
</g>
<g xmlns="http://www.w3.org/2000/svg">
</g>
<g xmlns="http://www.w3.org/2000/svg">
</g>
<g xmlns="http://www.w3.org/2000/svg">
</g>
<g xmlns="http://www.w3.org/2000/svg">
</g>
<g xmlns="http://www.w3.org/2000/svg">
</g>
<g xmlns="http://www.w3.org/2000/svg">
</g>
<g xmlns="http://www.w3.org/2000/svg">
</g>
<g xmlns="http://www.w3.org/2000/svg">
</g>
<g xmlns="http://www.w3.org/2000/svg">
</g>
<g xmlns="http://www.w3.org/2000/svg">
</g>
</g></svg>
