<?xml version="1.0" encoding="UTF-8"?>
<svg width="32px" height="32px" viewBox="0 0 32 32" version="1.1" xmlns="http://www.w3.org/2000/svg" xmlns:xlink="http://www.w3.org/1999/xlink">
    <!-- Generator: Sketch 43.2 (39069) - http://www.bohemiancoding.com/sketch -->
    <title>Metarubrick / Main / Sport</title>
    <desc>Created with Sketch.</desc>
    <defs></defs>
    <g id="Page-1" stroke="none" stroke-width="1" fill="none" fill-rule="evenodd">
        <g id="New-meta-draft" transform="translate(-184.000000, -384.000000)">
            <g id="Slice" transform="translate(84.000000, 84.000000)"></g>
            <g id="Icon" transform="translate(51.000000, 42.000000)" stroke="#DA0000" stroke-width="2">
                <g id="1st-Lvl" transform="translate(20.000000, 200.000000)">
                    <g id="Sport" transform="translate(114.000000, 145.000000)">
                        <path d="M24.0019,3.4073 C23.6869,3.0103 23.3349,2.6363 22.9459,2.2893 C18.8379,-1.3677 12.1469,-0.5567 8.0009,4.1013 C4.4939,8.0403 3.9439,13.4633 6.3389,17.2563 L0.9389,21.6753 C-0.2331,22.6343 -0.3211,24.3953 0.7499,25.4663 C1.8209,26.5363 3.5819,26.4493 4.5409,25.2773 L8.9299,19.9123 C13.0609,22.6553 19.0509,21.6423 22.8779,17.3443" id="Stroke-1"></path>
                        <path d="M6.6716,7.8872 L19.3626,20.5782" id="Stroke-3"></path>
                        <path d="M21,10.7156 C21,13.2006 23.015,15.2156 25.5,15.2156 C27.985,15.2156 30,13.2006 30,10.7156 C30,8.2306 27.985,6.2156 25.5,6.2156 C23.015,6.2156 21,8.2306 21,10.7156 Z" id="Stroke-5"></path>
                    </g>
                </g>
            </g>
        </g>
    </g>
</svg>