<?xml version="1.0" encoding="UTF-8"?>
<svg width="32px" height="32px" viewBox="0 0 32 32" version="1.1" xmlns="http://www.w3.org/2000/svg" xmlns:xlink="http://www.w3.org/1999/xlink">
    <!-- Generator: Sketch 43.2 (39069) - http://www.bohemiancoding.com/sketch -->
    <title>Metarubrick / Sport / Stadiums</title>
    <desc>Created with Sketch.</desc>
    <defs></defs>
    <g id="Page-1" stroke="none" stroke-width="1" fill="none" fill-rule="evenodd">
        <g id="New-meta-draft" transform="translate(-384.000000, -2784.000000)">
            <g id="Slice" transform="translate(84.000000, 84.000000)"></g>
            <g id="Icon" transform="translate(51.000000, 42.000000)" stroke="#DA0000" stroke-width="2">
                <g id="Sport" transform="translate(7.000000, 2695.000000)">
                    <g id="Stadiums" transform="translate(329.000000, 50.000000)">
                        <path d="M17,5 L9,5 C8.447,5 8,4.553 8,4 L8,1 C8,0.447 8.447,0 9,0 L17,0 C17.553,0 18,0.447 18,1 L18,4 C18,4.553 17.553,5 17,5 Z" id="Stroke-1"></path>
                        <path d="M13,5 L13,9" id="Stroke-3"></path>
                        <path d="M22,14.0254 C19.664,14.6294 16.493,15.0004 13,15.0004 C9.509,15.0004 6.338,14.6294 4.003,14.0264" id="Stroke-5"></path>
                        <path d="M26,12.5 L24,22.5 C23.687,24.067 20.521,25.433 16,25.859 L16,23 C16,21.343 14.657,20 13,20 C11.343,20 10,21.343 10,23 L10,25.859 C5.479,25.433 2.313,24.067 2,22.5 L0,12.5 C0,10.567 5.82,9 13,9 C20.18,9 26,10.567 26,12.5 Z" id="Stroke-7"></path>
                    </g>
                </g>
            </g>
        </g>
    </g>
</svg>