<?xml version="1.0" encoding="UTF-8"?>
<svg width="32px" height="32px" viewBox="0 0 32 32" version="1.1" xmlns="http://www.w3.org/2000/svg" xmlns:xlink="http://www.w3.org/1999/xlink">
    <!-- Generator: Sketch 43.2 (39069) - http://www.bohemiancoding.com/sketch -->
    <title>Metarubrick / Entertainment / Steam_cocktails</title>
    <desc>Created with Sketch.</desc>
    <defs></defs>
    <g id="Page-1" stroke="none" stroke-width="1" fill="none" fill-rule="evenodd">
        <g id="New-meta-draft" transform="translate(-284.000000, -1184.000000)">
            <g id="Slice" transform="translate(84.000000, 84.000000)"></g>
            <g id="Icon" transform="translate(51.000000, 42.000000)" stroke="#FF8D00" stroke-width="2">
                <g id="Entertainment-" transform="translate(22.000000, 1093.000000)">
                    <g id="Steam-Cocktails" transform="translate(214.000000, 50.000000)">
                        <path d="M19,0 C19,2.762 16.313,5 13,5 C9.687,5 7,2.762 7,0 L19,0 Z" id="Stroke-1"></path>
                        <path d="M16,16.376 L16,16 L10,16 L10,16.376 C10,17.688 9.364,18.885 8.378,19.752 C6.921,21.032 6,22.907 6,25 C6,26.96 6.808,28.73 8.105,30 L17.895,30 C19.192,28.73 20,26.96 20,25 C20,22.907 19.079,21.032 17.622,19.752 C16.636,18.885 16,17.688 16,16.376 Z" id="Stroke-3"></path>
                        <path d="M13,5 L13,16" id="Stroke-5"></path>
                        <path d="M10,10 L16,10" id="Stroke-7"></path>
                        <path d="M22.5,28 C24.709,28 26,26.209 26,24 L26,21.657 C26,20.596 25.578,19.578 24.828,18.828 C23.267,17.267 20.733,17.267 19.172,18.828 L18,20" id="Stroke-9"></path>
                        <path d="M0,15 L0,24 C0,26.209 1.291,28 3.5,28" id="Stroke-11"></path>
                        <path d="M0,13 L0,7" id="Stroke-13"></path>
                    </g>
                </g>
            </g>
        </g>
    </g>
</svg>