<?xml version="1.0"?>
<svg xmlns="http://www.w3.org/2000/svg" xmlns:xlink="http://www.w3.org/1999/xlink" xmlns:svgjs="http://svgjs.com/svgjs" version="1.1" width="512" height="512" x="0" y="0" viewBox="0 0 512 512" style="enable-background:new 0 0 512 512" xml:space="preserve" class=""><g><path xmlns="http://www.w3.org/2000/svg" d="m255.953125 512c-27.066406 0-52.507813-10.539062-71.648437-29.675781l-154.675782-154.675781c-39.503906-39.507813-39.503906-103.789063 0-143.296876l154.675782-154.675781c19.140624-19.136719 44.582031-29.675781 71.648437-29.675781s52.507813 10.539062 71.648437 29.675781l17.878907 17.882813c2.980469 2.980468 2.980469 7.8125 0 10.792968-2.980469 2.980469-7.8125 2.980469-10.792969 0l-17.878906-17.882812c-16.257813-16.253906-37.867188-25.207031-60.855469-25.207031s-44.601563 8.953125-60.855469 25.207031l-154.675781 154.675781c-33.554687 33.554688-33.554687 88.15625 0 121.710938l154.675781 154.675781c16.253906 16.253906 37.867188 25.203125 60.855469 25.203125s44.597656-8.949219 60.855469-25.203125l154.675781-154.675781c33.554687-33.558594 33.554687-88.15625 0-121.710938l-115.210937-115.207031c-2.980469-2.980469-2.980469-7.8125 0-10.792969 2.984374-2.980469 7.8125-2.980469 10.792968 0l115.210938 115.207031c39.503906 39.507813 39.503906 103.789063 0 143.296876l-154.675782 154.675781c-19.140624 19.136719-44.582031 29.675781-71.648437 29.675781zm0 0" fill="#0f7632" data-original="#000000" style="" class=""/><path xmlns="http://www.w3.org/2000/svg" d="m255.953125 434.648438c-43.074219 0-84.679687-15.542969-117.148437-43.765626-3.179688-2.765624-3.519532-7.585937-.753907-10.769531 2.765625-3.179687 7.585938-3.515625 10.765625-.75 29.695313 25.808594 67.742188 40.023438 107.136719 40.023438 90.09375 0 163.386719-73.292969 163.386719-163.386719s-73.292969-163.386719-163.386719-163.386719c-90.089844 0-163.386719 73.292969-163.386719 163.386719 0 37.636719 12.4375 73.007812 35.964844 102.28125 2.640625 3.285156 2.121094 8.089844-1.164062 10.726562-3.285157 2.644532-8.089844 2.121094-10.730469-1.164062-25.363281-31.558594-39.332031-71.277344-39.332031-111.84375 0-98.507812 80.140624-178.648438 178.648437-178.648438s178.652344 80.140626 178.652344 178.648438-80.144531 178.648438-178.652344 178.648438zm0 0" fill="#0f7632" data-original="#000000" style="" class=""/><path xmlns="http://www.w3.org/2000/svg" d="m255.953125 404.140625c-81.6875 0-148.140625-66.457031-148.140625-148.140625s66.453125-148.140625 148.140625-148.140625c81.683594 0 148.140625 66.457031 148.140625 148.140625s-66.457031 148.140625-148.140625 148.140625zm0-281.019531c-73.269531 0-132.878906 59.609375-132.878906 132.878906s59.609375 132.878906 132.878906 132.878906 132.878906-59.609375 132.878906-132.878906-59.609375-132.878906-132.878906-132.878906zm0 0" fill="#0f7632" data-original="#000000" style="" class=""/><path xmlns="http://www.w3.org/2000/svg" d="m255.953125 303.632812c-26.265625 0-47.632813-21.367187-47.632813-47.632812s21.367188-47.632812 47.632813-47.632812 47.632813 21.367187 47.632813 47.632812-21.367188 47.632812-47.632813 47.632812zm0-80.003906c-17.847656 0-32.371094 14.523438-32.371094 32.371094s14.523438 32.371094 32.371094 32.371094 32.371094-14.523438 32.371094-32.371094-14.523438-32.371094-32.371094-32.371094zm0 0" fill="#0f7632" data-original="#000000" style="" class=""/><path xmlns="http://www.w3.org/2000/svg" d="m255.953125 67.859375c-13.347656 0-24.207031-10.859375-24.207031-24.207031s10.859375-24.207032 24.207031-24.207032 24.207031 10.859376 24.207031 24.207032-10.859375 24.207031-24.207031 24.207031zm0-33.148437c-4.933594 0-8.945313 4.011718-8.945313 8.941406 0 4.933594 4.011719 8.945312 8.945313 8.945312 4.929687 0 8.945313-4.011718 8.945313-8.945312 0-4.929688-4.015626-8.941406-8.945313-8.941406zm0 0" fill="#0f7632" data-original="#000000" style="" class=""/><path xmlns="http://www.w3.org/2000/svg" d="m255.953125 492.554688c-13.347656 0-24.207031-10.859376-24.207031-24.207032s10.859375-24.207031 24.207031-24.207031 24.207031 10.859375 24.207031 24.207031-10.859375 24.207032-24.207031 24.207032zm0-33.152344c-4.933594 0-8.945313 4.011718-8.945313 8.945312s4.011719 8.945313 8.945313 8.945313c4.929687 0 8.945313-4.011719 8.945313-8.945313s-4.015626-8.945312-8.945313-8.945312zm0 0" fill="#0f7632" data-original="#000000" style="" class=""/><path xmlns="http://www.w3.org/2000/svg" d="m468.300781 280.207031c-13.347656 0-24.207031-10.859375-24.207031-24.207031s10.859375-24.207031 24.207031-24.207031c13.347657 0 24.207031 10.859375 24.207031 24.207031s-10.859374 24.207031-24.207031 24.207031zm0-33.152343c-4.933593 0-8.945312 4.011718-8.945312 8.945312s4.011719 8.945312 8.945312 8.945312c4.929688 0 8.941407-4.011718 8.941407-8.945312s-4.011719-8.945312-8.941407-8.945312zm0 0" fill="#0f7632" data-original="#000000" style="" class=""/><path xmlns="http://www.w3.org/2000/svg" d="m43.605469 280.207031c-13.347657 0-24.207031-10.859375-24.207031-24.207031s10.859374-24.207031 24.207031-24.207031c13.347656 0 24.207031 10.859375 24.207031 24.207031s-10.859375 24.207031-24.207031 24.207031zm0-33.152343c-4.933594 0-8.945313 4.011718-8.945313 8.945312s4.011719 8.945312 8.945313 8.945312c4.933593 0 8.945312-4.011718 8.945312-8.945312s-4.011719-8.945312-8.945312-8.945312zm0 0" fill="#0f7632" data-original="#000000" style="" class=""/></g></svg>
