<?xml version="1.0"?>
<svg xmlns="http://www.w3.org/2000/svg" xmlns:xlink="http://www.w3.org/1999/xlink" xmlns:svgjs="http://svgjs.com/svgjs" version="1.1" width="512" height="512" x="0" y="0" viewBox="0 0 511.969 511.969" style="enable-background:new 0 0 512 512" xml:space="preserve" class=""><g><g xmlns="http://www.w3.org/2000/svg" id="XMLID_2016_"><g id="XMLID_972_"><path id="XMLID_1322_" d="m509.409 401.138-78.366-214.889c15.194-13.93 24.739-33.928 24.739-56.117 0-41.987-34.159-76.146-76.146-76.146-41.988 0-76.147 34.159-76.147 76.146 0 22.189 9.545 42.187 24.739 56.117l-43.663 119.729-43.662-119.729c15.194-13.93 24.738-33.928 24.738-56.117 0-41.987-34.159-76.146-76.146-76.146-41.988 0-76.147 34.159-76.147 76.146 0 22.189 9.545 42.187 24.738 56.117l-27.619 75.737h-60.467c-27.57 0-50 22.43-50 50v96c0 27.57 22.43 50 50 50h284.676c5.522 0 10-4.478 10-10s-4.478-10-10-10h-19.228c6.834-11.001 8.285-24.603 3.82-36.847l-24.059-65.974 50.012-137.14c10.344 5.265 22.034 8.254 34.415 8.254s24.07-2.989 34.414-8.254l76.57 209.966c2.533 6.946 1.555 14.404-2.685 20.463-4.239 6.058-10.911 9.532-18.305 9.532h-44.996c-5.522 0-10 4.478-10 10s4.478 10 10 10h44.996c13.807 0 26.775-6.754 34.691-18.066 7.917-11.314 9.819-25.812 5.088-38.782zm-376.062-271.007c0-30.959 25.188-56.146 56.147-56.146s56.146 25.188 56.146 56.146-25.187 56.146-56.146 56.146-56.147-25.187-56.147-56.146zm-113.347 277.853v-96c0-16.542 13.458-30 30-30h96c16.542 0 30 13.458 30 30v96c0 16.542-13.458 30-30 30h-96c-16.542 0-30-13.458-30-30zm277.794 20.468c-4.239 6.058-10.911 9.532-18.305 9.532h-93.516c6.292-8.362 10.027-18.752 10.027-30v-96c0-27.57-22.43-50-50-50h-14.246l23.326-63.961c10.344 5.265 22.034 8.254 34.414 8.254 12.381 0 24.07-2.989 34.414-8.254l76.57 209.966c2.534 6.946 1.555 14.404-2.684 20.463zm25.694-298.321c0-30.959 25.188-56.146 56.147-56.146s56.146 25.188 56.146 56.146-25.188 56.146-56.146 56.146c-30.959 0-56.147-25.187-56.147-56.146z" fill="#158911" data-original="#000000" style=""/><path id="XMLID_1329_" d="m131 316.984c-2.63 0-5.21 1.069-7.07 2.93-1.86 1.86-2.93 4.44-2.93 7.07s1.07 5.21 2.93 7.069c1.86 1.86 4.44 2.931 7.07 2.931s5.21-1.07 7.07-2.931c1.86-1.859 2.93-4.439 2.93-7.069s-1.07-5.21-2.93-7.07-4.44-2.93-7.07-2.93z" fill="#158911" data-original="#000000" style=""/><path id="XMLID_1400_" d="m131 382.984c-2.63 0-5.21 1.069-7.07 2.93-1.86 1.86-2.93 4.44-2.93 7.07s1.07 5.21 2.93 7.069c1.86 1.86 4.44 2.931 7.07 2.931s5.21-1.07 7.07-2.931c1.86-1.859 2.93-4.439 2.93-7.069s-1.07-5.21-2.93-7.07-4.44-2.93-7.07-2.93z" fill="#158911" data-original="#000000" style=""/><path id="XMLID_1401_" d="m65 382.984c-2.63 0-5.21 1.069-7.07 2.93-1.86 1.86-2.93 4.44-2.93 7.07s1.07 5.21 2.93 7.069c1.86 1.86 4.44 2.931 7.07 2.931s5.21-1.07 7.07-2.931c1.86-1.859 2.93-4.439 2.93-7.069s-1.07-5.21-2.93-7.07-4.44-2.93-7.07-2.93z" fill="#158911" data-original="#000000" style=""/><path id="XMLID_1426_" d="m65 316.984c-2.63 0-5.21 1.069-7.07 2.93-1.86 1.86-2.93 4.44-2.93 7.07s1.07 5.21 2.93 7.069c1.86 1.86 4.44 2.931 7.07 2.931s5.21-1.07 7.07-2.931c1.86-1.859 2.93-4.439 2.93-7.069s-1.07-5.21-2.93-7.07-4.44-2.93-7.07-2.93z" fill="#158911" data-original="#000000" style=""/><path id="XMLID_1486_" d="m98 349.984c-2.63 0-5.21 1.069-7.07 2.93-1.86 1.86-2.93 4.44-2.93 7.07s1.07 5.21 2.93 7.069c1.86 1.86 4.44 2.931 7.07 2.931s5.21-1.07 7.07-2.931c1.86-1.859 2.93-4.439 2.93-7.069s-1.07-5.21-2.93-7.07-4.44-2.93-7.07-2.93z" fill="#158911" data-original="#000000" style=""/><path id="XMLID_1487_" d="m379.64 437.984c-2.64 0-5.21 1.069-7.07 2.93-1.869 1.86-2.939 4.44-2.939 7.07s1.07 5.21 2.939 7.069c1.86 1.86 4.44 2.931 7.07 2.931s5.2-1.07 7.07-2.931c1.859-1.859 2.93-4.439 2.93-7.069s-1.07-5.21-2.93-7.07c-1.87-1.86-4.44-2.93-7.07-2.93z" fill="#158911" data-original="#000000" style=""/></g></g></g></svg>
