<?xml version="1.0"?>
<svg xmlns="http://www.w3.org/2000/svg" xmlns:xlink="http://www.w3.org/1999/xlink" xmlns:svgjs="http://svgjs.com/svgjs" version="1.1" width="512" height="512" x="0" y="0" viewBox="0 0 52 60" style="enable-background:new 0 0 512 512" xml:space="preserve" class=""><g><g xmlns="http://www.w3.org/2000/svg" id="Page-1" fill="none" fill-rule="evenodd"><g id="026---Parking-Fine" fill="rgb(0,0,0)" fill-rule="nonzero"><path id="Shape" d="m9.329 3.891-6.463-3.104c-.61960479-.29763783-1.34864266-.2562301-1.93056101.10965157-.58191836.36588168-.93516824 1.00496331-.93543899 1.69234843v55.411c0 1.1045695.8954305 2 2 2h48c1.1045695 0 2-.8954305 2-2v-55.411c-.0011217-.68674704-.3545131-1.32489174-.9360174-1.69023475s-1.3097878-.40678466-1.9289826-.10976525l-6.472 3.102-7.472-3.585c-.5469152-.26350645-1.1840848-.26350645-1.731 0l-7.466 3.585-7.469-3.585c-.5463346-.26451078-1.1836654-.26451078-1.73 0zm8.331-1.782 7.469 3.585c.5464362.26406741 1.1835638.26406741 1.73 0l7.467-3.584 7.474 3.584c.5464362.26406741 1.1835638.26406741 1.73 0l6.47-3.11v55.416h-48v-55.411l6.464 3.1c.54623248.26495572 1.18376752.26495572 1.73 0z" fill="#c10e0e" data-original="#000000" style=""/><path id="Shape" d="m18 40h1c1.6568542 0 3-1.3431458 3-3v-7h5.5c2.9059736-.0060151 5.6804028-1.2121156 7.667-3.333 1.9987405-2.1189373 3.0179599-4.9785548 2.81-7.884-.4837538-5.5907192-5.2019115-9.85944539-10.813-9.783h-9.164c-1.6568542 0-3 1.3431458-3 3v25c0 1.6568542 1.3431458 3 3 3zm-1-28c0-.5522847.4477153-1 1-1h9.164c4.5593681-.0792444 8.4062835 3.3753869 8.816 7.917.1686137 2.3519542-.6557745 4.666987-2.273 6.383-1.608224 1.7173234-3.8542246 2.6943174-6.207 2.7h-6.5c-.5522847 0-1 .4477153-1 1v8c0 .5522847-.4477153 1-1 1h-1c-.5522847 0-1-.4477153-1-1z" fill="#c10e0e" data-original="#000000" style=""/><path id="Shape" d="m21 25h6.5c3.0375661 0 5.5-2.4624339 5.5-5.5s-2.4624339-5.5-5.5-5.5h-6.5c-.5522847 0-1 .4477153-1 1v9c0 .5522847.4477153 1 1 1zm1-9h5.5c1.9329966 0 3.5 1.5670034 3.5 3.5s-1.5670034 3.5-3.5 3.5h-5.5z" fill="#c10e0e" data-original="#000000" style=""/><path id="Shape" d="m9 44v10c0 .5522847.44771525 1 1 1 .5522847 0 1-.4477153 1-1v-4h4c.5522847 0 1-.4477153 1-1s-.4477153-1-1-1h-4v-3h4c.5522847 0 1-.4477153 1-1s-.4477153-1-1-1h-5c-.55228475 0-1 .4477153-1 1z" fill="#c10e0e" data-original="#000000" style=""/><path id="Shape" d="m37 44v10c0 .5522847.4477153 1 1 1h5c.5522847 0 1-.4477153 1-1s-.4477153-1-1-1h-4v-3h4c.5522847 0 1-.4477153 1-1s-.4477153-1-1-1h-4v-3h4c.5522847 0 1-.4477153 1-1s-.4477153-1-1-1h-5c-.5522847 0-1 .4477153-1 1z" fill="#c10e0e" data-original="#000000" style=""/><path id="Shape" d="m23 45c.5522847 0 1-.4477153 1-1s-.4477153-1-1-1h-4c-.5522847 0-1 .4477153-1 1s.4477153 1 1 1h1v8h-1c-.5522847 0-1 .4477153-1 1s.4477153 1 1 1h4c.5522847 0 1-.4477153 1-1s-.4477153-1-1-1h-1v-8z" fill="#c10e0e" data-original="#000000" style=""/><path id="Shape" d="m33 43c-.5522847 0-1 .4477153-1 1v6.39l-4.143-6.905c-.2315033-.385003-.6913367-.5683703-1.1242424-.448313s-.7326155.514068-.7327576.963313v10c0 .5522847.4477153 1 1 1s1-.4477153 1-1v-6.39l4.143 6.905c.1807575.3008613.5060146.4849332.857.485.0902035-.0000943.1799927-.0122007.267-.036.4332476-.1200348.7331364-.5144315.733-.964v-10c0-.5522847-.4477153-1-1-1z" fill="#c10e0e" data-original="#000000" style=""/></g></g></g></svg>
