<?xml version="1.0"?>
<svg xmlns="http://www.w3.org/2000/svg" xmlns:xlink="http://www.w3.org/1999/xlink" xmlns:svgjs="http://svgjs.com/svgjs" version="1.1" width="512" height="512" x="0" y="0" viewBox="0 0 511.747 511.747" style="enable-background:new 0 0 512 512" xml:space="preserve" class=""><g><g xmlns="http://www.w3.org/2000/svg"><path d="m131.687 461.483c44.895 0 81.42-36.525 81.42-81.42 0-44.901-36.525-81.43-81.42-81.43-10.878 0-21.444 2.113-31.405 6.282-3.821 1.599-5.623 5.993-4.023 9.813 1.599 3.822 5.994 5.623 9.813 4.023 8.117-3.396 16.735-5.119 25.615-5.119 36.624 0 66.42 29.8 66.42 66.43 0 36.624-29.796 66.42-66.42 66.42s-66.42-29.796-66.42-66.42c0-17.297 6.612-33.677 18.618-46.123 2.875-2.981 2.79-7.729-.191-10.605-2.981-2.875-7.729-2.79-10.605.191-14.717 15.256-22.822 35.335-22.822 56.537 0 44.896 36.525 81.421 81.42 81.421z" fill="#5c810b" data-original="#000000" style="" class=""/><path d="m131.687 427.826c26.338 0 47.766-21.428 47.766-47.766s-21.428-47.766-47.766-47.766-47.766 21.428-47.766 47.766 21.428 47.766 47.766 47.766zm0-80.532c18.067 0 32.766 14.699 32.766 32.766s-14.699 32.766-32.766 32.766-32.766-14.699-32.766-32.766 14.699-32.766 32.766-32.766z" fill="#5c810b" data-original="#000000" style="" class=""/><path d="m131.687 50.262c-44.897 0-81.424 36.527-81.424 81.424s36.527 81.424 81.424 81.424 81.424-36.527 81.424-81.424-36.527-81.424-81.424-81.424zm0 147.849c-36.626 0-66.424-29.798-66.424-66.424s29.798-66.424 66.424-66.424 66.424 29.798 66.424 66.424-29.798 66.424-66.424 66.424z" fill="#5c810b" data-original="#000000" style="" class=""/><path d="m131.687 83.921c-26.338 0-47.766 21.428-47.766 47.766s21.428 47.766 47.766 47.766 47.766-21.428 47.766-47.766c0-26.339-21.428-47.766-47.766-47.766zm0 80.531c-18.067 0-32.766-14.699-32.766-32.766s14.699-32.766 32.766-32.766 32.766 14.699 32.766 32.766c0 18.068-14.699 32.766-32.766 32.766z" fill="#5c810b" data-original="#000000" style="" class=""/><path d="m464.607 248.373h-169.094c-16.617 0-31.243 8.651-39.64 21.677-3.659-5.677-8.5-10.518-14.177-14.177 13.027-8.397 21.677-23.022 21.677-39.64v-169.094c0-25.992-21.147-47.139-47.14-47.139h-169.093c-25.993 0-47.14 21.147-47.14 47.139v169.094c0 16.617 8.651 31.243 21.677 39.64-13.026 8.397-21.677 23.023-21.677 39.64v169.094c0 25.993 21.147 47.139 47.14 47.139h169.094c16.617 0 31.243-8.65 39.64-21.677 8.397 13.026 23.022 21.677 39.64 21.677h169.094c25.993 0 47.14-21.146 47.14-47.139v-169.094c-.001-25.993-21.148-47.14-47.141-47.14zm32.14 47.14v12.708c-23.171-3.305-41.543-21.677-44.848-44.848h12.708c17.722 0 32.14 14.418 32.14 32.14zm-421.781-47.14c-3.474-31.452-28.514-56.491-59.966-59.965v-113.442c31.452-3.474 56.492-28.513 59.966-59.966h113.442c3.474 31.452 28.513 56.492 59.966 59.966v113.442c-31.452 3.474-56.492 28.513-59.966 59.966h-113.442zm113.441 15c3.474 31.452 28.513 56.492 59.966 59.966v113.442c-31.452 3.474-56.492 28.513-59.966 59.966h-113.441c-3.474-31.453-28.514-56.492-59.966-59.966v-113.442c31.452-3.474 56.492-28.513 59.966-59.966zm74.966 59.966c31.452-3.474 56.492-28.513 59.966-59.966h113.442c3.474 31.452 28.513 56.492 59.966 59.966v113.442c-31.452 3.474-56.492 28.513-59.966 59.966h-113.442c-3.474-31.452-28.513-56.492-59.966-59.966zm32.14-59.966h12.708c-3.305 23.171-21.677 41.543-44.848 44.848v-12.708c0-17.722 14.418-32.14 32.14-32.14zm-47.14 32.14v12.708c-23.171-3.305-41.543-21.677-44.848-44.848h12.708c17.722 0 32.14 14.418 32.14 32.14zm-32.14-47.14h-12.708c3.305-23.171 21.677-41.543 44.848-44.848v12.708c0 17.722-14.418 32.14-32.14 32.14zm32.14-201.234v12.709c-23.171-3.305-41.543-21.677-44.848-44.848h12.708c17.722 0 32.14 14.418 32.14 32.139zm-201.233-32.139h12.708c-3.305 23.171-21.677 41.543-44.848 44.848v-12.709c0-17.721 14.418-32.139 32.14-32.139zm-32.14 201.234v-12.708c23.171 3.305 41.543 21.677 44.848 44.848h-12.708c-17.722-.001-32.14-14.419-32.14-32.14zm32.14 47.139h12.708c-3.305 23.171-21.677 41.543-44.848 44.848v-12.708c0-17.722 14.418-32.14 32.14-32.14zm-32.14 201.234v-12.709c23.171 3.305 41.543 21.677 44.848 44.848h-12.708c-17.722 0-32.14-14.417-32.14-32.139zm201.233 32.139h-12.708c3.305-23.171 21.677-41.543 44.848-44.848v12.709c0 17.722-14.418 32.139-32.14 32.139zm47.14-32.139v-12.709c23.171 3.305 41.543 21.677 44.848 44.848h-12.708c-17.722 0-32.14-14.417-32.14-32.139zm201.234 32.139h-12.708c3.305-23.171 21.677-41.543 44.848-44.848v12.709c0 17.722-14.418 32.139-32.14 32.139z" fill="#5c810b" data-original="#000000" style="" class=""/><path d="m380.06 461.484c44.897 0 81.424-36.527 81.424-81.424s-36.526-81.424-81.424-81.424-81.424 36.527-81.424 81.424 36.527 81.424 81.424 81.424zm0-147.849c36.626 0 66.424 29.798 66.424 66.424s-29.797 66.424-66.424 66.424-66.424-29.798-66.424-66.424 29.798-66.424 66.424-66.424z" fill="#5c810b" data-original="#000000" style="" class=""/><path d="m380.06 427.826c26.338 0 47.766-21.428 47.766-47.766s-21.428-47.766-47.766-47.766-47.766 21.428-47.766 47.766 21.428 47.766 47.766 47.766zm0-80.532c18.067 0 32.766 14.699 32.766 32.766s-14.699 32.766-32.766 32.766-32.766-14.699-32.766-32.766 14.699-32.766 32.766-32.766z" fill="#5c810b" data-original="#000000" style="" class=""/><path d="m298.625 148.87c5.787 0 11.573-2.203 15.979-6.608l76.032-76.032c4.268-4.268 6.619-9.943 6.619-15.979s-2.351-11.71-6.618-15.979c-4.268-4.268-9.943-6.619-15.979-6.619s-11.71 2.351-15.979 6.619l-76.032 76.032c-8.811 8.811-8.811 23.147 0 31.958 4.405 4.406 10.191 6.608 15.978 6.608zm-5.372-27.959 76.032-76.032c1.435-1.435 3.343-2.225 5.372-2.225s3.937.79 5.372 2.225 2.225 3.343 2.225 5.372-.79 3.937-2.225 5.372l-76.032 76.032c-2.962 2.962-7.782 2.962-10.744-.001-1.435-1.435-2.225-3.342-2.225-5.372s.79-3.936 2.225-5.371z" fill="#5c810b" data-original="#000000" style="" class=""/><path d="m369.484 197.143c-8.811 8.811-8.811 23.147 0 31.958 4.406 4.405 10.192 6.607 15.979 6.607s11.573-2.203 15.979-6.608l76.032-76.032c8.811-8.811 8.811-23.147 0-31.958-4.268-4.268-9.943-6.619-15.979-6.619s-11.71 2.351-15.979 6.619zm92.011-67.651c2.029 0 3.937.79 5.372 2.225 2.962 2.962 2.962 7.782 0 10.745l-76.032 76.032c-2.962 2.961-7.782 2.962-10.744 0s-2.962-7.782 0-10.745l76.032-76.032c1.435-1.435 3.342-2.225 5.372-2.225z" fill="#5c810b" data-original="#000000" style="" class=""/><path d="m412.23 88.766 18.575-18.575c2.967-2.962 7.788-2.964 10.749-.005 1.44 1.44 2.233 3.35 2.233 5.377 0 2.025-.79 3.928-2.233 5.367l-112.256 112.254c-1.431 1.434-3.336 2.224-5.363 2.224-2.03 0-3.939-.792-5.376-2.228-1.434-1.434-2.223-3.34-2.223-5.367 0-2.033.79-3.943 2.223-5.377l73-73c2.929-2.929 2.929-7.678 0-10.606-2.929-2.929-7.678-2.929-10.606 0l-73 73c-4.267 4.267-6.616 9.943-6.616 15.983 0 6.034 2.35 11.707 6.617 15.974 4.271 4.27 9.946 6.621 15.982 6.621 6.039 0 11.713-2.353 15.974-6.622l112.24-112.24c4.279-4.265 6.636-9.94 6.636-15.982 0-6.034-2.354-11.71-6.627-15.983-8.803-8.803-23.136-8.805-31.957 0l-18.58 18.58c-2.929 2.929-2.929 7.678 0 10.606 2.93 2.929 7.679 2.928 10.608-.001z" fill="#5c810b" data-original="#000000" style="" class=""/></g></g></svg>
