<?xml version="1.0" encoding="UTF-8"?>
<svg width="32px" height="32px" viewBox="0 0 32 32" version="1.1" xmlns="http://www.w3.org/2000/svg" xmlns:xlink="http://www.w3.org/1999/xlink">
    <!-- Generator: Sketch 43.2 (39069) - http://www.bohemiancoding.com/sketch -->
    <title>Metarubrick / Carservice / Tire</title>
    <desc>Created with Sketch.</desc>
    <defs></defs>
    <g id="Page-1" stroke="none" stroke-width="1" fill="none" fill-rule="evenodd">
        <g id="New-meta-draft" transform="translate(-284.000000, -784.000000)">
            <g id="Slice" transform="translate(84.000000, 84.000000)"></g>
            <g id="Icon" transform="translate(51.000000, 42.000000)" stroke="#319CFE" stroke-width="2">
                <g id="Car-Service" transform="translate(14.000000, 697.000000)">
                    <g id="tire" transform="translate(222.000000, 48.000000)">
                        <path d="M3,3 L3,5 C3,8 0,11 0,16 C0,21 1.5,22.5 3,24 L13,24 L23,24 C24.5,22.5 26,21 26,16 C26,11 23,8 23,5 L23,3" id="Stroke-1"></path>
                        <path d="M3,24 L3,27" id="Stroke-3"></path>
                        <path d="M13,24 L13,27" id="Stroke-5"></path>
                        <path d="M8,24 L8,27" id="Stroke-7"></path>
                        <path d="M18,24 L18,27" id="Stroke-9"></path>
                        <path d="M23,24 L23,27" id="Stroke-11"></path>
                        <path d="M15.4707,10.0527 L15.9447,1.0527 C15.9747,0.4807 15.5187,-0.0003 14.9467,-0.0003 L11.0537,-0.0003 C10.4817,-0.0003 10.0257,0.4807 10.0557,1.0527 L10.5297,10.0527 C10.5567,10.5837 10.9957,10.9997 11.5277,10.9997 L14.4727,10.9997 C15.0037,10.9997 15.4437,10.5837 15.4707,10.0527 Z" id="Stroke-13"></path>
                        <path d="M10.8447,16.0527 L10.9497,18.0527 C10.9787,18.5837 11.4167,18.9997 11.9487,18.9997 L14.0507,18.9997 C14.5827,18.9997 15.0217,18.5837 15.0497,18.0527 L15.1557,16.0527 C15.1857,15.4807 14.7297,14.9997 14.1567,14.9997 L11.8437,14.9997 C11.2707,14.9997 10.8147,15.4807 10.8447,16.0527 Z" id="Stroke-15"></path>
                    </g>
                </g>
            </g>
        </g>
    </g>
</svg>