<?xml version="1.0"?>
<svg xmlns="http://www.w3.org/2000/svg" xmlns:xlink="http://www.w3.org/1999/xlink" xmlns:svgjs="http://svgjs.com/svgjs" version="1.1" width="512" height="512" x="0" y="0" viewBox="0 0 60 60" style="enable-background:new 0 0 512 512" xml:space="preserve"><g><g xmlns="http://www.w3.org/2000/svg" id="Page-1" fill="none" fill-rule="evenodd"><g id="052---Toll-Road" fill="rgb(0,0,0)" fill-rule="nonzero"><path id="Shape" d="m17 22c-1.6561003.0018187-2.9981813 1.3438997-3 3v10c0 1.6568542 1.3431458 2.9999999 3 2.9999999s3-1.3431457 3-2.9999999v-10c-.0018187-1.6561003-1.3438997-2.9981813-3-3zm1 13c0 .5522847-.4477153 1-1 1s-1-.4477153-1-1v-10c0-.5522847.4477153-1 1-1s1 .4477153 1 1z" fill="#5a0606" data-original="#000000" style=""/><path id="Shape" d="m42 24c-2.7780921.0023733-5.5173332.6527376-8 1.8994v-22.8994c-.0018187-1.65610033-1.3438997-2.99818129-3-3h-28c-1.65610033.00181871-2.99818129 1.34389967-3 3v54c.00181871 1.6561003 1.34389967 2.9981813 3 3h28c1.2633766-.00384 2.388526-.7999175 2.8126-1.99 6.6355979 3.3950586 14.6775104 2.3471729 20.2215391-2.6349279 5.5440286-4.9821009 7.4421388-12.8667441 4.7728335-19.8260825-2.6693053-6.9593385-9.3532774-11.5522611-16.8069726-11.5489896zm-24-22v11c0 .5522847-.4477153 1-1 1s-1-.4477153-1-1v-11zm-2 56v-11c0-.5522847.4477153-1 1-1s1 .4477153 1 1v11zm16-1c-.0004962.5520791-.4479209.9995038-1 1h-11v-11c0-1.6568542-1.3431458-3-3-3s-3 1.3431458-3 3v11h-11c-.55207909-.0004962-.9995038-.4479209-1-1v-54c.0004962-.55207909.44792091-.9995038 1-1h11v11c0 1.6568542 1.3431458 3 3 3s3-1.3431458 3-3v-11h11c.5520791.0004962.9995038.44792091 1 1v24.0438c-4.9984945 3.3352718-8.0003967 8.9471247-8.0003967 14.9562s3.0019022 11.6209282 8.0003967 14.9562zm10 1c-8.836556 0-16-7.163444-16-16s7.163444-16 16-16 16 7.163444 16 16c-.0100847 8.8323754-7.1676246 15.9899153-16 16z" fill="#5a0606" data-original="#000000" style=""/><path id="Shape" d="m31.5908 34.1592c-.464433-.2986384-1.0830156-.1643391-1.3818.3-2.929007 4.5719725-2.9465125 10.4261926-.0449 15.0156.1908513.3021395.5283946.47951.8854808.4652977.3570861-.0142123.6794651-.2178482.8457-.5342.1662348-.3163518.1510705-.6973582-.0397808-.9994977-2.4866381-3.9316316-2.4729542-8.9471953.0351-12.8652.1436827-.2229715.19282-.4939208.1365854-.7531478-.0562347-.2592271-.2132268-.4854603-.4363854-.6288522z" fill="#5a0606" data-original="#000000" style=""/><path id="Shape" d="m52.4092 34.1592c-.2231356.1433583-.3801298.3695393-.4364001.6287202-.0562703.259181-.0072006.5301001.1364001.7530798 2.5080542 3.9180047 2.5217381 8.9335684.0351 12.8652-.2950305.4670672-.1555672 1.0848695.3115 1.3799s1.0848695.1555672 1.3799-.3115c2.9016733-4.5893686 2.8842459-10.4435886-.0447-15.0156-.2992572-.4636811-.917292-.597772-1.3818-.2998z" fill="#5a0606" data-original="#000000" style=""/><path id="Shape" d="m46 37c0 .5522847.4477153 1 1 1s1-.4477153 1-1c-.0048552-2.9248268-2.1163934-5.420665-5-5.91v-1.09c0-.5522847-.4477153-1-1-1s-1 .4477153-1 1v1.09c-2.8868556.4840427-5.0015629 2.9828457-5.0015629 5.91s2.1147073 5.4259573 5.0015629 5.91v7.948c-1.7615409-.4532902-2.994659-2.03908-3-3.858 0-.5522847-.4477153-1-1-1s-1 .4477153-1 1c.0048552 2.9248268 2.1163934 5.420665 5 5.91v1.09c0 .5522847.4477153 1 1 1s1-.4477153 1-1v-1.09c2.8868556-.4840427 5.0015629-2.9828457 5.0015629-5.91s-2.1147073-5.4259573-5.0015629-5.91v-7.948c1.7615409.4532902 2.994659 2.03908 3 3.858zm-8 0c.005341-1.81892 1.2384591-3.4047098 3-3.858v7.716c-1.7615409-.4532902-2.994659-2.03908-3-3.858zm8 10c-.005341 1.81892-1.2384591 3.4047098-3 3.858v-7.716c1.7615409.4532902 2.994659 2.03908 3 3.858z" fill="#5a0606" data-original="#000000" style=""/><path id="Shape" d="m5 4c-.55228475 0-1 .44771525-1 1v1c0 .55228475.44771525 1 1 1s1-.44771525 1-1v-1c0-.55228475-.44771525-1-1-1z" fill="#5a0606" data-original="#000000" style=""/><path id="Shape" d="m5 9c-.55228475 0-1 .44771525-1 1v21c0 .5522847.44771525 1 1 1s1-.4477153 1-1v-21c0-.55228475-.44771525-1-1-1z" fill="#5a0606" data-original="#000000" style=""/></g></g></g></svg>
