<?xml version="1.0" encoding="UTF-8"?>
<svg width="32px" height="32px" viewBox="0 0 32 32" version="1.1" xmlns="http://www.w3.org/2000/svg" xmlns:xlink="http://www.w3.org/1999/xlink">
    <!-- Generator: Sketch 44.1 (41455) - http://www.bohemiancoding.com/sketch -->
    <title>Metarubrick / Renovation / tools</title>
    <desc>Created with Sketch.</desc>
    <defs></defs>
    <g id="Page-1" stroke="none" stroke-width="1" fill="none" fill-rule="evenodd">
        <g id="New-meta-draft" transform="translate(-684.000000, -3384.000000)">
            <g id="Slice" transform="translate(84.000000, 84.000000)"></g>
            <g id="Icon" transform="translate(51.000000, 42.000000)" stroke="#52B311" stroke-width="2">
                <g id="Renovation" transform="translate(12.000000, 3294.000000)">
                    <g id="Tools" transform="translate(622.000000, 51.000000)">
                        <path d="M12,15 L10,21 L15,21 L15,24 C15,25.104 14.104,26 13,26 L3,26 C1.896,26 1,25.104 1,24 L1,21 L4,21 L7,12 L7,10 L5,10 C2.238,10 0,7.762 0,5 C0,2.238 2.238,0 5,0 L19,0 L19,10 L12,10" id="Stroke-1"></path>
                        <path d="M15,10 L15,15" id="Stroke-3"></path>
                        <path d="M14,3 L14,7" id="Stroke-5"></path>
                        <path d="M31,5 L25,5" id="Stroke-7"></path>
                        <polyline id="Stroke-9" points="19 8 23 8 25 6 25 4 23 2 19 2"></polyline>
                    </g>
                </g>
            </g>
        </g>
    </g>
</svg>