<?xml version="1.0" encoding="UTF-8"?>
<svg width="32px" height="32px" viewBox="0 0 32 32" version="1.1" xmlns="http://www.w3.org/2000/svg" xmlns:xlink="http://www.w3.org/1999/xlink">
    <!-- Generator: Sketch 43.2 (39069) - http://www.bohemiancoding.com/sketch -->
    <title>Metarubrick / Main / Tourism</title>
    <desc>Created with Sketch.</desc>
    <defs></defs>
    <g id="Page-1" stroke="none" stroke-width="1" fill="none" fill-rule="evenodd">
        <g id="New-meta-draft" transform="translate(-884.000000, -284.000000)">
            <g id="Slice" transform="translate(84.000000, 84.000000)"></g>
            <g id="Icon" transform="translate(51.000000, 42.000000)" stroke="#FF8D00" stroke-width="2">
                <g id="1st-Lvl" transform="translate(20.000000, 200.000000)">
                    <g id="Tourism" transform="translate(816.000000, 46.000000)">
                        <path d="M7,20 L7,24" id="Stroke-1"></path>
                        <path d="M19,6 L19,24" id="Stroke-3"></path>
                        <path d="M9,3 L9,1.5 C9,0.672 9.672,0 10.5,0 L15.5,0 C16.328,0 17,0.672 17,1.5 L17,3" id="Stroke-5"></path>
                        <path d="M7,11 L9,11 L9,17 L5,17 L5,11 L7,11 L7,6 L3,6 C1.343,6 0,7.343 0,9 L0,21 C0,22.657 1.343,24 3,24 L23,24 C24.657,24 26,22.657 26,21 L26,9 C26,7.343 24.657,6 23,6 L10,6" id="Stroke-7"></path>
                    </g>
                </g>
            </g>
        </g>
    </g>
</svg>