<?xml version="1.0"?>
<svg xmlns="http://www.w3.org/2000/svg" xmlns:xlink="http://www.w3.org/1999/xlink" xmlns:svgjs="http://svgjs.com/svgjs" version="1.1" width="512" height="512" x="0" y="0" viewBox="0 0 32 32" style="enable-background:new 0 0 512 512" xml:space="preserve" class=""><g><path xmlns="http://www.w3.org/2000/svg" id="XMLID_213_" d="m24.358 9.047c-.571-.665-1.401-1.047-2.278-1.047h-4.08c-1.103 0-2 .897-2 2v8h-2v-9c0-.371-.226-.71-.504-.868l-7-4c-.251-.144-.653-.179-.989.017-.339.195-.507.551-.507.851v6h-2v-1c0-.552-.447-1-1-1s-1 .448-1 1v1c0 1.103.897 2 2 2h2c1.103 0 2-.897 2-2v-4.277l4.367 2.496-3.074 3.074c-.188.187-.293.442-.293.707v5h-4c-1.103 0-2 .897-2 2v3c0 1.103.897 2 2 2h1c0 2.206 1.794 4 4 4s4-1.794 4-4h5c0 2.206 1.794 4 4 4s4-1.794 4-4h2c1.103 0 2-.897 2-2v-7c0-.239-.085-.47-.241-.651zm-14.358 4.367 2-2v6.586h-2zm-1 13.586c-1.103 0-2-.897-2-2 0-1.009.86-2 2-2 1.135 0 2 .987 2 2 0 1.103-.897 2-2 2zm13 0c-1.103 0-2-.897-2-2 0-1.009.86-2 2-2 1.135 0 2 .987 2 2 0 1.103-.897 2-2 2zm6-4h-2.549c-.716-1.243-2.091-2-3.451-2-1.391 0-2.75.783-3.451 2h-6.098c-.684-1.188-2.03-2-3.451-2-1.36 0-2.736.758-3.451 2h-1.549v-3h13c.553 0 1-.448 1-1v-9h4.08c.293 0 .569.127.76.349l5.16 6.021z" fill="#d11313" data-original="#000000" style=""/><path xmlns="http://www.w3.org/2000/svg" id="XMLID_224_" d="m22.223 12.12 2.712 3.4c.158.198.008.48-.255.48h-4.361c-.176 0-.319-.134-.319-.3v-3.4c0-.166.143-.3.319-.3h1.649c.1 0 .195.044.255.12z" fill="#d11313" data-original="#000000" style=""/></g></svg>
