<?xml version="1.0"?>
<svg xmlns="http://www.w3.org/2000/svg" xmlns:xlink="http://www.w3.org/1999/xlink" xmlns:svgjs="http://svgjs.com/svgjs" version="1.1" width="512" height="512" x="0" y="0" viewBox="0 0 128 128" style="enable-background:new 0 0 512 512" xml:space="preserve"><g><path xmlns="http://www.w3.org/2000/svg" d="m96 33c0-5.374-1.924-10.925-3.785-16.293-.827-2.386-1.607-4.642-2.215-6.849v-5.858c0-1.654-1.346-3-3-3h-46c-1.654 0-3 1.346-3 3v5.859c-.608 2.207-1.388 4.462-2.215 6.849-1.861 5.367-3.785 10.918-3.785 16.262l-1 33.03c0 12.03 1.241 48.166 4.036 58.267.445 1.609 2.098 2.733 4.02 2.733h12.944c2.062 0 3.855-1.765 3.998-3.935 3.045-46.29 5.136-70.784 6.972-81.82.25-.991.608-1.711 1.03-2.085.422.372.776 1.076 1.014 2.004 1.853 11.117 3.943 35.611 6.988 81.901.143 2.17 1.935 3.935 3.998 3.935h12.944c1.922 0 3.574-1.124 4.02-2.733 2.795-10.101 4.036-46.237 4.036-58.297zm-56-29c0-.552.448-1 1-1h46c.552 0 1 .448 1 1v5h-18.747c-.561-.793-1.071-1.603-1.261-3.124-.069-.548-.567-.93-1.116-.868-.548.068-.937.568-.868 1.116.157 1.254.493 2.149.884 2.876h-5.727c.362-.705.671-1.568.819-2.752.068-.548-.32-1.048-.868-1.116-.552-.064-1.048.321-1.116.868-.18 1.442-.647 2.245-1.173 3h-18.827zm-3.036 119.733c-2.615-9.45-3.964-44.751-3.964-57.703l1-33.03c0-5.038 1.868-10.427 3.675-15.638.763-2.202 1.481-4.292 2.076-6.362h1.918c-.55 1.844-1.199 3.73-1.884 5.707-1.861 5.368-3.785 10.919-3.785 16.263l-1 33.03c0 10.974 1.973 46.588 4.501 59h-.445c-.866 0-1.863-.436-2.092-1.267zm37.034-.798c-3.051-46.36-5.147-70.913-7.028-82.18-.496-1.964-1.373-3.204-2.605-3.687-.234-.092-.494-.092-.729 0-1.232.482-2.109 1.723-2.622 3.768-1.864 11.186-3.961 35.738-7.012 82.099-.072 1.1-1.008 2.065-2.002 2.065h-10.454c-2.545-11.83-4.546-47.95-4.546-58.97l1-33.03c0-5.038 1.868-10.427 3.675-15.638.763-2.202 1.481-4.292 2.076-6.362h13.834c-.34.759-.585 1.699-.585 3 0 2.102.265 3.181.521 4.225.244.996.476 1.937.472 3.896-.003 1.786-.536 2.514-1.212 3.434-.7.954-1.494 2.036-1.765 4.198-.068.548.32 1.048.868 1.116.042.005.084.008.125.008.497 0 .928-.37.991-.876.206-1.646.756-2.396 1.393-3.263.748-1.02 1.596-2.174 1.6-4.613.004-2.202-.267-3.308-.529-4.376-.239-.972-.464-1.889-.464-3.749 0-1.468.364-2.242.87-3h8.334c.463.72.788 1.488.788 2.876 0 1.86-.225 2.777-.463 3.748-.262 1.068-.533 2.174-.529 4.376.004 2.439.852 3.594 1.6 4.613.637.867 1.187 1.616 1.393 3.263.063.506.494.876.991.876.041 0 .083-.003.125-.008.548-.068.937-.568.868-1.116-.271-2.162-1.064-3.244-1.765-4.198-.676-.92-1.209-1.647-1.212-3.434-.004-1.959.228-2.899.472-3.896.256-1.044.521-2.123.521-4.225 0-1.229-.216-2.139-.527-2.876h13.783c.595 2.07 1.313 4.161 2.076 6.362 1.807 5.212 3.675 10.601 3.675 15.669l1 32.97c0 11.049-2.001 47.17-4.546 59h-10.454c-.994 0-1.93-.965-2.002-2.065zm17.038.798c-.229.831-1.226 1.267-2.092 1.267h-.445c2.528-12.412 4.501-48.027 4.501-59.03l-1-32.97c0-5.374-1.924-10.925-3.785-16.293-.685-1.977-1.334-3.863-1.884-5.707h1.918c.595 2.07 1.313 4.161 2.076 6.362 1.807 5.211 3.675 10.6 3.675 15.668l1 32.97c0 12.982-1.349 48.283-3.964 57.733z" fill="#c70e0e" data-original="#000000" style=""/></g></svg>
