<?xml version="1.0" encoding="UTF-8"?>
<svg width="32px" height="32px" viewBox="0 0 32 32" version="1.1" xmlns="http://www.w3.org/2000/svg" xmlns:xlink="http://www.w3.org/1999/xlink">
    <!-- Generator: Sketch 44.1 (41455) - http://www.bohemiancoding.com/sketch -->
    <title>Metarubrick / Services / trucking</title>
    <desc>Created with Sketch.</desc>
    <defs></defs>
    <g id="Page-1" stroke="none" stroke-width="1" fill="none" fill-rule="evenodd">
        <g id="New-meta-draft" transform="translate(-184.000000, -1984.000000)">
            <g id="Slice" transform="translate(84.000000, 84.000000)"></g>
            <g id="Icon" transform="translate(51.000000, 42.000000)" stroke="#8345FE" stroke-width="2">
                <g id="Services" transform="translate(22.000000, 1894.000000)">
                    <g id="Trucking" transform="translate(112.000000, 54.000000)">
                        <path d="M10,18 C10,16.343 8.657,15 7,15 C5.343,15 4,16.343 4,18 C4,19.657 5.343,21 7,21 C8.657,21 10,19.657 10,18 Z" id="Stroke-1"></path>
                        <path d="M26,18 C26,16.343 24.657,15 23,15 C21.343,15 20,16.343 20,18 C20,19.657 21.343,21 23,21 C24.657,21 26,19.657 26,18 Z" id="Stroke-3"></path>
                        <path d="M10,18 L20,18" id="Stroke-5"></path>
                        <path d="M26,18 L28,18 C29.104,18 30,17.104 30,16 L30,10 L27.553,5.105 C27.214,4.428 26.521,4 25.764,4 L21,4" id="Stroke-7"></path>
                        <path d="M4,18 L2,18 C0.896,18 0,17.104 0,16 L0,2 C0,0.896 0.896,0 2,0 L16,0 C17.104,0 18,0.896 18,2 L18,13" id="Stroke-9"></path>
                        <path d="M5,8 L13,8" id="Stroke-11"></path>
                    </g>
                </g>
            </g>
        </g>
    </g>
</svg>