<?xml version="1.0"?>
<svg xmlns="http://www.w3.org/2000/svg" xmlns:xlink="http://www.w3.org/1999/xlink" xmlns:svgjs="http://svgjs.com/svgjs" version="1.1" width="512" height="512" x="0" y="0" viewBox="0 0 64 64" style="enable-background:new 0 0 512 512" xml:space="preserve" class=""><g><g xmlns="http://www.w3.org/2000/svg" id="Layer_18" data-name="Layer 18"><path d="M13,44a3,3,0,1,0,3,3A3,3,0,0,0,13,44Zm0,4a1,1,0,1,1,1-1A1,1,0,0,1,13,48Z" fill="#d59a0d" data-original="#000000" style=""/><path d="M37,44a3,3,0,1,0,3,3A3,3,0,0,0,37,44Zm0,4a1,1,0,1,1,1-1A1,1,0,0,1,37,48Z" fill="#d59a0d" data-original="#000000" style=""/><path d="M53,44a3,3,0,1,0,3,3A3,3,0,0,0,53,44Zm0,4a1,1,0,1,1,1-1A1,1,0,0,1,53,48Z" fill="#d59a0d" data-original="#000000" style=""/><path d="M11,34h2a1,1,0,0,0,0-2H11a1,1,0,0,0,0,2Z" fill="#d59a0d" data-original="#000000" style=""/><path d="M63,38a1,1,0,0,0,1-1V19a1,1,0,0,0-1-1H55a1,1,0,0,0,0,2h7V36H22V14a1,1,0,0,0-1-1H16V12h7.438a1,1,0,0,1,.971.758l1.242,4.97A3,3,0,0,0,28.562,20H51a1,1,0,0,0,0-2H28.562a1,1,0,0,1-.971-.758l-1.242-4.97A3,3,0,0,0,23.438,10H15a1,1,0,0,0-1,1v3a1,1,0,0,0,1,1h5V36H18V19a3,3,0,0,0-3-3H6.562a3,3,0,0,0-2.911,2.272L.148,32.28A5.052,5.052,0,0,0,0,33.492V45a3,3,0,0,0,3,3H6.08a6.991,6.991,0,0,0,13.84,0H30.08a6.991,6.991,0,0,0,13.84,0h2.16a6.991,6.991,0,0,0,13.84,0H61a3,3,0,0,0,3-3V41a1,1,0,0,0-1-1H62V38ZM30.08,46H19.92a6.981,6.981,0,0,0-1.938-3.909c0-.032.018-.059.018-.091H32.111A6.978,6.978,0,0,0,30.08,46ZM2,45V33.492a3.015,3.015,0,0,1,.089-.727L4.78,22H11a1,1,0,0,1,1,1v2.636a2.994,2.994,0,0,1-2.485,2.955l-4.686.815a1,1,0,1,0,.342,1.97l4.686-.814A4.991,4.991,0,0,0,14,25.636V23a3,3,0,0,0-3-3H5.28l.311-1.242A1,1,0,0,1,6.562,18H15a1,1,0,0,1,1,1V40.685A6.974,6.974,0,0,0,6.08,46H3A1,1,0,0,1,2,45Zm11,7a5,5,0,1,1,5-5A5.006,5.006,0,0,1,13,52Zm24,0a5,5,0,1,1,5-5A5.006,5.006,0,0,1,37,52Zm9.08-6H43.92a6.978,6.978,0,0,0-2.031-4h6.222A6.978,6.978,0,0,0,46.08,46ZM53,52a5,5,0,1,1,5-5A5.006,5.006,0,0,1,53,52Zm9-7a1,1,0,0,1-1,1H59.92a6.978,6.978,0,0,0-2.031-4H62Zm-2-5H18V38H60Z" fill="#d59a0d" data-original="#000000" style=""/><path d="M25,22a1,1,0,0,0-1,1V33a1,1,0,0,0,1,1h4a1,1,0,0,0,1-1V23a1,1,0,0,0-1-1Zm3,10H26V24h2Z" fill="#d59a0d" data-original="#000000" style=""/><path d="M35,30a1,1,0,0,0-1,1v2a1,1,0,0,0,1,1h4a1,1,0,0,0,1-1V23a1,1,0,0,0-1-1H35a1,1,0,0,0-1,1v4a1,1,0,0,0,2,0V24h2v8H36V31A1,1,0,0,0,35,30Z" fill="#d59a0d" data-original="#000000" style=""/><path d="M45,22a1,1,0,0,0-1,1V33a1,1,0,0,0,1,1h4a1,1,0,0,0,1-1V23a1,1,0,0,0-1-1Zm3,10H46V24h2Z" fill="#d59a0d" data-original="#000000" style=""/><path d="M55,34h4a1,1,0,0,0,1-1V23a1,1,0,0,0-1-1H55a1,1,0,0,0-1,1V33A1,1,0,0,0,55,34Zm1-10h2v8H56Z" fill="#d59a0d" data-original="#000000" style=""/></g></g></svg>
