<?xml version="1.0"?>
<svg xmlns="http://www.w3.org/2000/svg" xmlns:xlink="http://www.w3.org/1999/xlink" xmlns:svgjs="http://svgjs.com/svgjs" version="1.1" width="512" height="512" x="0" y="0" viewBox="0 0 512 512" style="enable-background:new 0 0 512 512" xml:space="preserve"><g><g xmlns="http://www.w3.org/2000/svg"><path d="m372.454 297.55c0-76.3-62.075-138.375-138.375-138.375s-138.375 62.075-138.375 138.375 62.075 138.376 138.375 138.376 138.375-62.075 138.375-138.376zm-256.75 0c0-65.272 53.103-118.375 118.375-118.375s118.375 53.103 118.375 118.375c0 65.273-53.103 118.376-118.375 118.376s-118.375-53.103-118.375-118.376z" fill="#d91313" data-original="#000000" style=""/><path d="m332.454 297.55c0-54.244-44.131-98.375-98.375-98.375-54.245 0-98.375 44.131-98.375 98.375 0 54.245 44.131 98.376 98.375 98.376s98.375-44.131 98.375-98.376zm-135.337 69.09c10.679-11.35 17.533-23.301 21.914-33.624 2.736 1.165 5.636 2.015 8.651 2.521 4.598 9.649 9.149 23.444 9.175 40.318-.924.032-1.846.071-2.778.071-13.359 0-25.943-3.367-36.962-9.286zm36.962-87.618c10.216 0 18.527 8.312 18.527 18.528s-8.311 18.528-18.527 18.528-18.528-8.312-18.528-18.528c.001-10.216 8.312-18.528 18.528-18.528zm22.714 93.536c-.473-15.599-4.076-28.901-8.278-39.296 2.807-1.139 5.447-2.599 7.881-4.335 10.082 3.574 23.06 10.109 34.998 22.003-9.317 9.996-21.202 17.562-34.601 21.628zm46.376-38.046c-11.351-10.679-23.301-17.533-33.624-21.913 1.165-2.736 2.014-5.635 2.521-8.649 9.649-4.598 23.444-9.15 40.318-9.177.033.924.071 1.846.071 2.777-.001 13.359-3.368 25.943-9.286 36.962zm5.917-59.675c-15.599.473-28.901 4.076-39.296 8.279-1.138-2.806-2.598-5.447-4.334-7.88 3.574-10.082 10.11-23.061 22.003-34.998 9.997 9.316 17.562 21.2 21.627 34.599zm-38.044-46.375c-10.679 11.351-17.533 23.301-21.913 33.624-2.736-1.165-5.635-2.015-8.65-2.522-4.603-9.655-9.159-23.454-9.186-40.318.927-.033 1.852-.071 2.786-.071 13.359 0 25.944 3.368 36.963 9.287zm-59.684-5.916c.473 15.593 4.081 28.896 8.287 39.293-2.806 1.138-5.446 2.598-7.88 4.334-10.082-3.574-23.062-10.111-34.999-22.003 9.315-9.994 21.196-17.558 34.592-21.624zm-46.368 38.041c11.351 10.679 23.301 17.533 33.624 21.914-1.166 2.736-2.015 5.636-2.522 8.652-9.654 4.603-23.453 9.158-40.318 9.185-.033-.927-.071-1.852-.071-2.787.001-13.36 3.368-25.945 9.287-36.964zm-5.916 59.685c15.594-.473 28.896-4.08 39.294-8.286 1.139 2.807 2.599 5.447 4.335 7.881-3.575 10.081-10.11 23.059-22.004 34.997-9.994-9.314-17.558-21.196-21.625-34.592z" fill="#d91313" data-original="#000000" style=""/><circle cx="234.079" cy="502" r="10" fill="#d91313" data-original="#000000" style=""/><path d="m482.37 71.62h-41.55c-5.522 0-10 4.477-10 10v1.48c-10.462 0-28.238 0-48.959 0v-21.626c4.965-.585 8.819-4.801 8.819-9.924v-41.55c0-5.523-4.478-10-10-10h-97.237c-5.523 0-10 4.477-10 10v41.55c0 5.123 3.854 9.339 8.819 9.924v21.626l-44.495.001c-1.337 0-2.56 0-3.689.067v-.066c-118.248 0-214.45 96.202-214.45 214.449 0 48.99 16.951 96.895 47.729 134.891 30.33 37.441 72.778 63.845 119.525 74.346.738.166 1.475.245 2.201.245 4.575 0 8.703-3.16 9.747-7.81 1.21-5.389-2.177-10.738-7.565-11.949-87.862-19.738-151.635-99.528-151.635-189.724 0-107.22 87.23-194.449 194.45-194.449h.044c1.641-.001 83.815-.001 143.878-.001h52.819v56.08h-5.006c-12.358.001-30.933.004-32.427-.003-2.243-.045-4.456.65-6.335 2.117-4.302 3.359-5.116 9.547-1.829 13.904.131.173.263.339.395.497 27.675 34.366 42.91 77.627 42.91 121.855 0 91.469-62.206 169.453-151.273 189.642-5.386 1.221-8.763 6.577-7.542 11.963 1.053 4.643 5.176 7.792 9.744 7.792.732 0 1.476-.081 2.22-.249 46.652-10.575 89.002-37.001 119.248-74.41 30.697-37.968 47.604-85.818 47.604-134.736 0-42.125-12.536-83.46-35.62-118.369l12.908-.001c1.76 0 3.441 0 5.004-.001v1.477c0 5.523 4.478 10 10 10h41.55c5.522 0 10-4.477 10-10v-99.038c-.002-5.523-4.479-10-10.002-10zm-188.926-51.62h77.237v21.55h-77.237zm8.819 63.1v-21.55h59.599v21.55zm170.107 87.557h-21.55v-79.037h21.55z" fill="#d91313" data-original="#000000" style=""/></g></g></svg>
