<?xml version="1.0"?>
<svg xmlns="http://www.w3.org/2000/svg" xmlns:xlink="http://www.w3.org/1999/xlink" xmlns:svgjs="http://svgjs.com/svgjs" version="1.1" width="512" height="512" x="0" y="0" viewBox="0 0 48 48" style="enable-background:new 0 0 512 512" xml:space="preserve" class=""><g><g xmlns="http://www.w3.org/2000/svg" id="Line"><path d="m45.47 12.12-15-8a1.16 1.16 0 0 0 -.67-.12 1 1 0 0 0 -.44.2l-5.36 4.5-5.36-4.47a1 1 0 0 0 -.43-.2 1 1 0 0 0 -.68.09l-15 8a1 1 0 0 0 -.47 1.23l3 8a1 1 0 0 0 1.1.64l4.84-.81v23.82a1 1 0 0 0 1 1h24a1 1 0 0 0 1-1v-23.82l4.84.81a1 1 0 0 0 1.1-.64l3-8a1 1 0 0 0 -.47-1.23zm-21.47 10.62 2 13.05-2 3.27-2-3.27zm0-8.41-1.64-2.18 1.64-1 1.64 1zm-4.2-3-.49-4 3 2.48zm5.92-1.48 3-2.48-.49 4zm15.63 10-5.19-.85a1 1 0 0 0 -1.16 1v24h-22v-24a1 1 0 0 0 -1.16-1l-5.19.87-2.41-6.4 6.22-3.31.65 1.29a1 1 0 0 0 1.34.44 1 1 0 0 0 .44-1.34l-.67-1.34 5-2.64.78 6.55a1 1 0 0 0 1.5.74l1.13-.68 2.37 3.09-3 19.58a1 1 0 0 0 .13.66l3 5a1 1 0 0 0 1.72 0l3-5a1 1 0 0 0 .13-.66l-2.93-19.58 2.31-3.09 1.13.68a1.06 1.06 0 0 0 1 0 1 1 0 0 0 .55-.78l.82-6.55 5 2.64-.67 1.34a1 1 0 0 0 .44 1.34 1 1 0 0 0 1.34-.44l.65-1.29 6.22 3.31z" fill="#931628" data-original="#000000" style="" class=""/><path d="m32 20h-3a1 1 0 0 0 0 2h3a1 1 0 0 0 0-2z" fill="#931628" data-original="#000000" style="" class=""/></g></g></svg>
