<?xml version="1.0"?>
<svg xmlns="http://www.w3.org/2000/svg" xmlns:xlink="http://www.w3.org/1999/xlink" xmlns:svgjs="http://svgjs.com/svgjs" version="1.1" width="512" height="512" x="0" y="0" viewBox="0 0 514.079 514.079" style="enable-background:new 0 0 512 512" xml:space="preserve"><g><g xmlns="http://www.w3.org/2000/svg"><path d="m202.438 275.376 79.569-149.222v65.101c0 4.143 3.357 7.5 7.5 7.5s7.5-3.357 7.5-7.5v-32.158l11.849 4.443c.868.325 1.758.479 2.633.479 3.036 0 5.895-1.857 7.023-4.868 1.454-3.879-.511-8.202-4.389-9.656l-17.116-6.418v-43.448c15.774-22.909 39.399-39.76 66.471-47.028l41.312-11.092-40.351 58.728c-2.346 3.414-1.479 8.083 1.935 10.429 1.298.892 2.776 1.319 4.24 1.319 2.388 0 4.734-1.138 6.188-3.254l12.646-18.406 6.655 14.418c1.266 2.744 3.979 4.359 6.814 4.359 1.052 0 2.12-.223 3.138-.692 3.762-1.735 5.403-6.191 3.667-9.952l-10.38-22.489c-.004-.009-.009-.017-.013-.025l27.776-40.427 77.368-20.772c4.001-1.074 6.373-5.188 5.299-9.188-1.074-4.001-5.191-6.374-9.188-5.299l-140.994 37.856c-35.333 9.486-65.469 33.44-82.681 65.721l-87.707 164.482c-1.949 3.655-.565 8.198 3.089 10.147 1.125.6 2.332.884 3.522.884 2.682.001 5.276-1.442 6.625-3.972z" fill="#d70d0d" data-original="#000000" style=""/><path d="m502.992 189.849-117.683-7.284c-7.729-.47-14.968 3.958-18.063 11.032l-2.873 6.567c-8.78 20.067-19.256 39.337-31.247 57.596l-21.37-21.37c-2.93-2.928-7.678-2.928-10.607 0-2.929 2.93-2.929 7.678 0 10.607l23.351 23.351c-12.484 17.487-26.392 33.949-41.58 49.165v-22.976c0-1.975-.778-3.869-2.167-5.273l-11.913-12.048c-2.912-2.944-7.661-2.972-10.606-.06s-2.972 7.661-.06 10.606l9.746 9.856v34.13c-6.879 6.197-13.975 12.16-21.292 17.856l-42.961 33.444c-3.948 3.075-5.597 8.167-4.199 12.974l7.59 26.095c4.675 16.074 1.415 33.624-8.719 46.946-2.508 3.297-1.869 8.003 1.428 10.511 1.357 1.032 2.952 1.53 4.535 1.53 2.263 0 4.5-1.02 5.975-2.959 12.999-17.089 17.181-39.6 11.184-60.218l-7.048-24.234 41.431-32.253c30.255-23.553 57.001-51.369 79.405-82.346l20.927 20.927-.495.495c-2.922 2.925-4.334 7.115-3.776 11.208l2.021 14.891c.39 2.87 1.731 5.58 3.78 7.629l65.01 65.01c-2.188 2.937-1.958 7.107.708 9.774 1.465 1.464 3.385 2.196 5.304 2.196s3.839-.732 5.304-2.196l15.979-15.979 16.293 16.293-20.251 20.251c-2.929 2.93-2.929 7.678 0 10.607 1.465 1.464 3.385 2.196 5.304 2.196s3.839-.732 5.304-2.196l50.673-50.673c2.929-2.93 2.929-7.678 0-10.607-2.93-2.928-7.678-2.928-10.607 0l-19.814 19.814-16.293-16.293 15.17-15.17c2.929-2.93 2.929-7.678 0-10.607-2.379-2.378-5.958-2.824-8.789-1.34l-10.584-10.585c-2.929-2.93-7.678-2.929-10.606-.001-2.93 2.929-2.93 7.678-.001 10.606l10.346 10.346-22.893 22.893-44.761-44.76 22.893-22.893 11.814 11.814c2.93 2.928 7.678 2.928 10.607 0 2.929-2.93 2.929-7.678 0-10.607l-32.001-32.001c-2.049-2.048-4.758-3.391-7.626-3.779l-14.891-2.021c-4.099-.556-8.288.856-11.211 3.778l-1.301 1.301-22.837-22.836c13.172-19.727 24.635-40.611 34.169-62.403l2.873-6.566c.582-1.329 1.941-2.146 3.396-2.074l117.683 7.284c4.115.252 7.692-2.888 7.948-7.022.252-4.135-2.891-7.693-7.026-7.949zm-124.893 111.463 13.506 1.833 9.179 9.179-22.893 22.894-9.179-9.179-1.833-13.507 5.191-5.191c.005-.005.011-.009.016-.014s.009-.01.014-.016z" fill="#d70d0d" data-original="#000000" style=""/><path d="m184.286 293.479c-3.659-1.95-8.198-.564-10.147 3.089l-50.888 95.434c-1.575 2.954-3.666 5.551-6.215 7.72l-63.929 54.392-35.16 15.466c-11.458 5.04-16.849 18.115-12.271 29.768 3.539 9.009 12.326 14.733 21.691 14.733 1.755 0 3.53-.201 5.295-.619l58.423-13.844c7.454-1.766 15.348-1.836 22.829-.204l27.681 6.035c13.436 2.93 27.299 1.734 40.088-3.454 3.839-1.558 5.688-5.932 4.131-9.77s-5.934-5.686-9.77-4.131c-9.978 4.049-20.784 4.98-31.254 2.698l-27.68-6.035c-9.661-2.105-19.855-2.016-29.483.265l-58.423 13.844c-3.968.94-8.077-1.213-9.567-5.003-1.622-4.131.288-8.767 4.35-10.553l36.164-15.91c.666-.293 1.286-.682 1.841-1.153l64.764-55.102c3.964-3.372 7.219-7.408 9.68-11.994v19.455c0 .444-.173.861-.487 1.176l-10.371 10.372c-2.929 2.929-2.929 7.678.001 10.606 1.464 1.464 3.384 2.196 5.303 2.196s3.839-.732 5.304-2.197l10.369-10.37c2.833-2.832 4.508-6.506 4.817-10.457l5.568 4.331c1.368 1.064 2.99 1.58 4.6 1.58 2.234 0 4.446-.994 5.925-2.896 2.543-3.27 1.954-7.981-1.315-10.524l-14.713-11.444v-29.954l35.939-67.4c1.947-3.654.564-8.197-3.09-10.146z" fill="#d70d0d" data-original="#000000" style=""/></g></g></svg>
