<?xml version="1.0"?>
<svg xmlns="http://www.w3.org/2000/svg" xmlns:xlink="http://www.w3.org/1999/xlink" xmlns:svgjs="http://svgjs.com/svgjs" version="1.1" width="512" height="512" x="0" y="0" viewBox="0 0 64 64" style="enable-background:new 0 0 512 512" xml:space="preserve"><g><g xmlns="http://www.w3.org/2000/svg" id="_02_Video_Streming" data-name="02 Video Streming"><path d="m59 7h-54a3.0033 3.0033 0 0 0 -3 3v36a3.0033 3.0033 0 0 0 3 3h20.0969l-4.2839 4.644a2.0109 2.0109 0 0 0 1.4702 3.356h19.4336a2.0111 2.0111 0 0 0 1.47-3.3564l-4.2836-4.6436h20.0968a3.0033 3.0033 0 0 0 3-3v-36a3.0033 3.0033 0 0 0 -3-3zm-54 2h54a1.0013 1.0013 0 0 1 1 1v29h-56v-29a1.0013 1.0013 0 0 1 1-1zm36.7256 46h-.0088-19.4341l5.5352-6h8.3647zm17.2744-8h-54a1.0013 1.0013 0 0 1 -1-1v-5h56v5a1.0013 1.0013 0 0 1 -1 1z" fill="#21d3cb" data-original="#000000" style=""/><path d="m30 44a2 2 0 1 0 4 0 2 2 0 1 0 -4 0z" fill="#21d3cb" data-original="#000000" style=""/><path d="m14 37h36a3.0033 3.0033 0 0 0 3-3v-20a3.0033 3.0033 0 0 0 -3-3h-36a3.0033 3.0033 0 0 0 -3 3v20a3.0033 3.0033 0 0 0 3 3zm2-10h-3v-2h3zm0-4h-3v-2h3zm0 6v2h-3v-2zm0-10h-3v-2h3zm-3 15v-1h3v2h-2a1.0013 1.0013 0 0 1 -1-1zm35-9h3v2h-3zm3-2h-3v-2h3zm-3 6h3v2h-3zm3-10h-3v-2h3zm-1 16h-2v-2h3v1a1.0013 1.0013 0 0 1 -1 1zm1-21v1h-3v-2h2a1.0013 1.0013 0 0 1 1 1zm-5-1v22h-28v-22zm-32 0h2v2h-3v-1a1.0013 1.0013 0 0 1 1-1z" fill="#21d3cb" data-original="#000000" style=""/><path d="m28.5728 33.1567 9.8584-6.542a3.0189 3.0189 0 0 0 .0625-5.1914l-9.9209-6.58a3.0153 3.0153 0 0 0 -4.5328 2.5767v13.16a2.9893 2.9893 0 0 0 4.5328 2.5767zm-2.5328-15.7367a.9633.9633 0 0 1 1.4628-.8862l9.9483 6.5947a.988.988 0 0 1 -.0625 1.7813l-9.8586 6.5419c-.8762.3061-1.3266.0424-1.49-.8716z" fill="#21d3cb" data-original="#000000" style=""/></g></g></svg>
