<?xml version="1.0"?>
<svg xmlns="http://www.w3.org/2000/svg" xmlns:xlink="http://www.w3.org/1999/xlink" xmlns:svgjs="http://svgjs.com/svgjs" version="1.1" width="512" height="512" x="0" y="0" viewBox="0 0 512 512" style="enable-background:new 0 0 512 512" xml:space="preserve"><g><g xmlns="http://www.w3.org/2000/svg"><path d="m83.5 228.554v143c0 6.341 5.159 11.5 11.5 11.5h84c3.6 0 7.038-1.719 9.2-4.6l25.801-34.4c9.862-13.149 25.563-21 41.999-21s32.137 7.851 42 21l25.801 34.401c2.161 2.879 5.6 4.599 9.199 4.599h84c6.341 0 11.5-5.159 11.5-11.5v-143c0-6.341-5.159-11.5-11.5-11.5h-322c-6.341 0-11.5 5.158-11.5 11.5zm15 3.5h315v136h-78.75l-24.75-33c-12.682-16.906-32.868-27-54-27s-41.318 10.093-53.999 26.999l-24.751 33.001h-78.75zm406 71.74c4.143 0 7.5-3.358 7.5-7.5v-41.244c0-9.649-7.851-17.5-17.5-17.5h-6v-7.77c0-58.95-47.96-106.91-106.91-106.91h-61.41v-1.424c0-12.407-10.094-22.5-22.5-22.5h-83.36c-12.406 0-22.5 10.093-22.5 22.5v1.424h-61.41c-58.95 0-106.91 47.959-106.91 106.91v7.77h-6c-9.649 0-17.5 7.851-17.5 17.5v90c0 9.649 7.851 17.5 17.5 17.5h36v13.004c0 20.678 16.822 37.5 37.5 37.5h92.5c10.175 0 19.895-4.86 26-13l28.5-38c4.227-5.635 10.956-9 18-9s13.773 3.365 18 9l28.5 38c6.105 8.14 15.825 13 26 13h92.5c20.678 0 37.5-16.822 37.5-37.5v-13.004h36c9.649 0 17.5-7.851 17.5-17.5v-13.756c0-4.142-3.357-7.5-7.5-7.5s-7.5 3.358-7.5 7.5v13.756c0 1.378-1.121 2.5-2.5 2.5h-36v-95h36c1.379 0 2.5 1.122 2.5 2.5v41.244c0 4.142 3.357 7.5 7.5 7.5zm-297.68-182.348c0-4.136 3.364-7.5 7.5-7.5h83.359c4.136 0 7.5 3.364 7.5 7.5v17.854c0 4.136-3.364 7.5-7.5 7.5h-83.359c-4.136 0-7.5-3.364-7.5-7.5zm-153.32 226.104h-36c-1.379 0-2.5-1.122-2.5-2.5v-90c0-1.378 1.121-2.5 2.5-2.5h36zm420-110h-15v-12.996c0-20.678-16.822-37.5-37.5-37.5h-252.035c-4.143 0-7.5 3.358-7.5 7.5s3.357 7.5 7.5 7.5h252.035c12.406 0 22.5 10.093 22.5 22.5v151c0 12.407-10.094 22.5-22.5 22.5h-92.5c-5.479 0-10.712-2.617-14-7l-28.5-38c-7.045-9.393-18.26-15-30-15s-22.955 5.607-30 15l-28.5 38c-3.288 4.384-8.521 7-14 7h-92.5c-12.406 0-22.5-10.093-22.5-22.5v-151c0-12.407 10.094-22.5 22.5-22.5h42.965c4.143 0 7.5-3.358 7.5-7.5s-3.357-7.5-7.5-7.5h-42.965c-20.678 0-37.5 16.822-37.5 37.5v12.996h-15v-7.77c0-50.679 41.23-91.91 91.91-91.91h61.41v1.431c0 12.407 10.094 22.5 22.5 22.5h83.359c12.406 0 22.5-10.093 22.5-22.5v-1.431h61.41c50.68 0 91.91 41.23 91.91 91.91v7.77z" fill="#eb0b0b" data-original="#000000" style=""/></g></g></svg>
