<?xml version="1.0"?>
<svg xmlns="http://www.w3.org/2000/svg" xmlns:xlink="http://www.w3.org/1999/xlink" xmlns:svgjs="http://svgjs.com/svgjs" version="1.1" width="512" height="512" x="0" y="0" viewBox="0 0 60 60" style="enable-background:new 0 0 512 512" xml:space="preserve" class=""><g><path xmlns="http://www.w3.org/2000/svg" d="M13,50a3,3,0,1,0,3,3A3,3,0,0,0,13,50Zm0,4a1,1,0,1,1,1-1A1,1,0,0,1,13,54Z" fill="#762121" data-original="#000000" style="" class=""/><path xmlns="http://www.w3.org/2000/svg" d="M47,50a3,3,0,1,0,3,3A3,3,0,0,0,47,50Zm0,4a1,1,0,1,1,1-1A1,1,0,0,1,47,54Z" fill="#762121" data-original="#000000" style="" class=""/><path xmlns="http://www.w3.org/2000/svg" d="M59,46.275V41a3,3,0,0,0-3-3H46.385L37.2,29.7a2.931,2.931,0,0,0-1.9-.7H29.762l3.322-2.769a1,1,0,0,1,.64-.231H44a4,4,0,0,0,4-4V4a4,4,0,0,0-4-4H10A4,4,0,0,0,6,4V22a4,4,0,0,0,4,4H20.276a1,1,0,0,1,.64.232L24.237,29H14.91a2.925,2.925,0,0,0-2.3,1.151L6.511,38H3.074A2.077,2.077,0,0,0,1,40.074v6.211a2.152,2.152,0,0,0-1,1.84v3.8A2.077,2.077,0,0,0,2.074,54H6.08a6.978,6.978,0,0,0,2.031,4H1a1,1,0,0,0,0,2H59a1,1,0,0,0,0-2H51.889a6.978,6.978,0,0,0,2.031-4h4.006A2.077,2.077,0,0,0,60,51.926v-3.87A2.069,2.069,0,0,0,59,46.275ZM20.276,24H10a2,2,0,0,1-2-2V4a2,2,0,0,1,2-2H44a2,2,0,0,1,2,2V22a2,2,0,0,1-2,2H33.724a3.005,3.005,0,0,0-1.921.7l-4.8,4-4.8-4A3,3,0,0,0,20.276,24ZM57,41v1H55a1,1,0,0,1-1-1V40h2A1,1,0,0,1,57,41ZM35.88,31.207,43.4,38H25V31H35.3A.9.9,0,0,1,35.88,31.207Zm-21.693.176A.935.935,0,0,1,14.91,31H23v7H9.044ZM8,53a5,5,0,1,1,5,5A5.006,5.006,0,0,1,8,53Zm9.889,5a6.978,6.978,0,0,0,2.031-4H40.08a6.978,6.978,0,0,0,2.031,4ZM47,58a5,5,0,1,1,5-5A5.006,5.006,0,0,1,47,58Zm11-6.074a.077.077,0,0,1-.074.074H53.92a6.991,6.991,0,0,0-13.84,0H19.92A6.991,6.991,0,0,0,6.08,52H2.074A.077.077,0,0,1,2,51.926v-3.8c0-.076.031-.121.009-.125H4a1,1,0,0,0,0-2H3V40.074A.077.077,0,0,1,3.074,40H23v9a1,1,0,0,0,2,0V40H52v1a3,3,0,0,0,3,3h2v2H56a1,1,0,0,0,0,2h1.751a.883.883,0,0,0,.249.056Z" fill="#762121" data-original="#000000" style="" class=""/><path xmlns="http://www.w3.org/2000/svg" d="M11,11a1,1,0,0,0-1,1v2a1,1,0,0,0,2,0V12A1,1,0,0,0,11,11Z" fill="#762121" data-original="#000000" style="" class=""/><path xmlns="http://www.w3.org/2000/svg" d="M43,15a1,1,0,0,0,1-1V12a1,1,0,0,0-2,0v2A1,1,0,0,0,43,15Z" fill="#762121" data-original="#000000" style="" class=""/><path xmlns="http://www.w3.org/2000/svg" d="M39,15a1,1,0,0,0,1-1V12a1,1,0,0,0-2,0v2A1,1,0,0,0,39,15Z" fill="#762121" data-original="#000000" style="" class=""/><path xmlns="http://www.w3.org/2000/svg" d="M15,9a1,1,0,0,0-1,1v6a1,1,0,0,0,2,0V10A1,1,0,0,0,15,9Z" fill="#762121" data-original="#000000" style="" class=""/><path xmlns="http://www.w3.org/2000/svg" d="M19,10a1,1,0,0,0-1,1v4a1,1,0,0,0,2,0V11A1,1,0,0,0,19,10Z" fill="#762121" data-original="#000000" style="" class=""/><path xmlns="http://www.w3.org/2000/svg" d="M28,21V5a1,1,0,0,0-2,0V21a1,1,0,0,0,2,0Z" fill="#762121" data-original="#000000" style="" class=""/><path xmlns="http://www.w3.org/2000/svg" d="M35,19a1,1,0,0,0,1-1V8a1,1,0,0,0-2,0V18A1,1,0,0,0,35,19Z" fill="#762121" data-original="#000000" style="" class=""/><path xmlns="http://www.w3.org/2000/svg" d="M31,17a1,1,0,0,0,1-1V10a1,1,0,0,0-2,0v6A1,1,0,0,0,31,17Z" fill="#762121" data-original="#000000" style="" class=""/><path xmlns="http://www.w3.org/2000/svg" d="M23,7a1,1,0,0,0-1,1V18a1,1,0,0,0,2,0V8A1,1,0,0,0,23,7Z" fill="#762121" data-original="#000000" style="" class=""/><path xmlns="http://www.w3.org/2000/svg" d="M34,42H31a1,1,0,0,0,0,2h3a1,1,0,0,0,0-2Z" fill="#762121" data-original="#000000" style="" class=""/></g></svg>
