<?xml version="1.0"?>
<svg xmlns="http://www.w3.org/2000/svg" xmlns:xlink="http://www.w3.org/1999/xlink" xmlns:svgjs="http://svgjs.com/svgjs" version="1.1" width="512" height="512" x="0" y="0" viewBox="0 0 512 512" style="enable-background:new 0 0 512 512" xml:space="preserve"><g><g xmlns="http://www.w3.org/2000/svg"><path d="m471.627 220.16c-.04-1.003-.275-2.008-.706-2.916l-39.918-84.366c-1.24-2.621-3.88-4.292-6.779-4.292h-105.114l34.835-51.681c2.315-3.435 1.408-8.095-2.026-10.411l-96.733-65.213c-1.649-1.112-3.675-1.522-5.625-1.143-1.953.38-3.675 1.521-4.786 3.17l-18.705 27.749c-2.315 3.435-1.408 8.096 2.026 10.411 3.437 2.314 8.097 1.408 10.411-2.027l14.513-21.529 84.295 56.827-63.641 94.416h-9.407l-37.625-.004-51.958-35.027 41.796-62.005c2.315-3.435 1.408-8.096-2.026-10.411-3.435-2.314-8.096-1.407-10.411 2.027l-43.715 64.85h-72.552c-2.899 0-5.539 1.671-6.779 4.292l-39.918 84.366c-.469.995-.721 2.107-.721 3.208v205.777c0 4.142 3.357 7.5 7.5 7.5s7.5-3.358 7.5-7.5v-198.277h401.283v269.049h-401.283v-31.228c0-4.142-3.357-7.5-7.5-7.5s-7.5 3.358-7.5 7.5v38.728c0 4.142 3.357 7.5 7.5 7.5h416.283c4.143 0 7.5-3.358 7.5-7.5v-284.049c0-.098-.011-.194-.014-.291zm-411.923-7.209 32.82-69.366h69.36l37.93 25.57h-53.347c-4.143 0-7.5 3.358-7.5 7.5s3.357 7.5 7.5 7.5h219.066c4.143 0 7.5-3.358 7.5-7.5s-3.357-7.5-7.5-7.5h-73.77l17.236-25.57h110.476l32.82 69.366z" fill="#8f1799" data-original="#000000" style=""/><path d="m416.833 465c0 4.142 3.357 7.5 7.5 7.5s7.5-3.358 7.5-7.5v-40.667c0-4.142-3.357-7.5-7.5-7.5s-7.5 3.358-7.5 7.5z" fill="#8f1799" data-original="#000000" style=""/><path d="m424.333 396.5c4.143 0 7.5-3.358 7.5-7.5v-120.667c0-4.142-3.357-7.5-7.5-7.5s-7.5 3.358-7.5 7.5v120.667c0 4.142 3.357 7.5 7.5 7.5z" fill="#8f1799" data-original="#000000" style=""/></g></g></svg>
