<?xml version="1.0"?>
<svg xmlns="http://www.w3.org/2000/svg" xmlns:xlink="http://www.w3.org/1999/xlink" xmlns:svgjs="http://svgjs.com/svgjs" version="1.1" width="512" height="512" x="0" y="0" viewBox="0 0 511.725 511.725" style="enable-background:new 0 0 512 512" xml:space="preserve"><g><g xmlns="http://www.w3.org/2000/svg"><path d="m341.675 181.24c-3.421 2.336-4.301 7.002-1.965 10.423 13.502 19.778 20.639 42.902 20.639 66.873 0 65.571-53.346 118.917-118.917 118.917s-118.917-53.346-118.917-118.917c0-65.57 53.346-118.916 118.917-118.916 28.807 0 56.622 10.483 78.321 29.519 3.114 2.731 7.852 2.422 10.584-.691 2.731-3.114 2.421-7.853-.692-10.584-24.436-21.438-55.764-33.243-88.212-33.243-73.842 0-133.917 60.074-133.917 133.916s60.075 133.917 133.917 133.917 133.917-60.076 133.917-133.918c0-27.001-8.04-53.05-23.251-75.33-2.335-3.421-7.002-4.301-10.424-1.966z" fill="#187cd3" data-original="#000000" style=""/><path d="m325.84 215.75c-1.873-3.696-6.387-5.171-10.081-3.299l-54.211 27.48c-5.012-5.415-12.173-8.813-20.116-8.813-5.986 0-11.526 1.934-16.039 5.201l-29.221-23.066c-3.252-2.567-7.967-2.011-10.534 1.239-2.566 3.252-2.012 7.968 1.24 10.534l29.211 23.059c-1.334 3.223-2.074 6.751-2.074 10.45 0 15.118 12.299 27.418 27.417 27.418s27.417-12.3 27.417-27.418c0-1.79-.178-3.537-.507-5.232l54.198-27.474c3.696-1.872 5.173-6.385 3.3-10.079zm-84.407 55.204c-6.847 0-12.417-5.57-12.417-12.418 0-6.847 5.57-12.417 12.417-12.417s12.417 5.57 12.417 12.417c.001 6.848-5.57 12.418-12.417 12.418z" fill="#187cd3" data-original="#000000" style=""/><path d="m414.972 229.631h-12.175c-5.754-32.208-20.948-61.186-42.606-83.963v-40.768c0-12.58-10.234-22.814-22.814-22.814h-10.727v-13.507c0-4.143-3.358-7.5-7.5-7.5s-7.5 3.357-7.5 7.5v41.863c-21.296-10.138-45.104-15.822-70.217-15.822s-48.922 5.684-70.217 15.822v-83.072c0-6.821 5.549-12.37 12.371-12.37h115.693c6.821 0 12.371 5.549 12.371 12.37v9.246c0 4.143 3.358 7.5 7.5 7.5s7.5-3.357 7.5-7.5v-9.246c-.001-15.092-12.279-27.37-27.371-27.37h-115.694c-15.092 0-27.371 12.278-27.371 27.37v54.715h-10.725c-12.58 0-22.814 10.234-22.814 22.814v40.768c-27.969 29.414-45.159 69.171-45.159 112.868s17.189 83.454 45.159 112.869v40.77c0 12.579 10.234 22.813 22.814 22.813h10.727v10.152c0 4.143 3.358 7.5 7.5 7.5s7.5-3.357 7.5-7.5v-38.51c21.296 10.138 45.104 15.822 70.217 15.822s48.922-5.684 70.217-15.822v74.26c0 8.73-7.103 15.834-15.833 15.834h-108.769c-8.73 0-15.833-7.104-15.833-15.834v-3.788c0-4.143-3.358-7.5-7.5-7.5s-7.5 3.357-7.5 7.5v3.788c0 17.002 13.832 30.834 30.833 30.834h108.768c17.001 0 30.833-13.832 30.833-30.834v-45.902h10.726c12.58 0 22.814-10.234 22.814-22.813v-40.77c22.85-24.03 38.494-54.966 43.459-89.311h11.322c10.607 0 19.236-8.629 19.236-19.235v-13.992c.001-10.606-8.628-19.235-19.235-19.235zm-88.322-132.546h10.726c4.309 0 7.814 3.506 7.814 7.814v26.837c-5.857-4.802-12.05-9.208-18.541-13.174v-21.477zm-181.16 0h10.726v21.478c-6.49 3.966-12.683 8.372-18.541 13.174v-26.837c0-4.309 3.506-7.815 7.815-7.815zm10.726 322.903h-10.727c-4.309 0-7.814-3.505-7.814-7.813v-26.838c5.857 4.802 12.05 9.208 18.541 13.174zm181.16 0h-10.726v-21.478c6.49-3.966 12.683-8.372 18.541-13.174v26.838c0 4.309-3.505 7.814-7.815 7.814zm-95.943-12.535c-82.113 0-148.917-66.804-148.917-148.917 0-82.112 66.804-148.916 148.917-148.916s148.917 66.804 148.917 148.916c0 82.113-66.804 148.917-148.917 148.917zm177.775-144.595c0 2.335-1.9 4.235-4.236 4.235h-9.844c.146-2.834.222-5.687.222-8.558 0-4.684-.209-9.32-.596-13.905h10.218c2.336 0 4.236 1.9 4.236 4.235z" fill="#187cd3" data-original="#000000" style=""/></g></g></svg>
