<?xml version="1.0"?>
<svg xmlns="http://www.w3.org/2000/svg" xmlns:xlink="http://www.w3.org/1999/xlink" xmlns:svgjs="http://svgjs.com/svgjs" version="1.1" width="512" height="512" x="0" y="0" viewBox="0 0 64 64" style="enable-background:new 0 0 512 512" xml:space="preserve" class=""><g><g xmlns="http://www.w3.org/2000/svg" id="Water_Cooler-Refrigerator-Water-Cooler-Household" data-name="Water Cooler-Refrigerator-Water-Cooler-Household"><path d="m31.177 38.432c-.655.947-2.177 3.29-2.177 4.568a3 3 0 0 0 6 0c0-1.278-1.522-3.621-2.177-4.568a1.038 1.038 0 0 0 -1.646 0zm.823 5.568a1 1 0 0 1 -1-1 7.457 7.457 0 0 1 1-2.147 7.462 7.462 0 0 1 1 2.147 1 1 0 0 1 -1 1z" fill="#2978cb" data-original="#000000" style=""/><path d="m43 26h-6v-2.52l2.37-1.9a6.959 6.959 0 0 0 2.63-5.46v-8.3a3 3 0 0 0 -1-5.82h-18a3 3 0 0 0 -1 5.82v8.3a6.959 6.959 0 0 0 2.63 5.46l2.37 1.9v2.52h-6a3.009 3.009 0 0 0 -3 3v32a1 1 0 0 0 1 1h26a1 1 0 0 0 1-1v-32a3.009 3.009 0 0 0 -3-3zm-3-14h-16v-4h16zm-18-7a1 1 0 0 1 1-1h18a1 1 0 0 1 0 2h-18a1 1 0 0 1 -1-1zm3.88 15.02a4.952 4.952 0 0 1 -1.88-3.9v-2.12h16v2.12a4.952 4.952 0 0 1 -1.88 3.9l-2.47 1.98h-7.3zm9.12 3.98v2h-6v-2zm-11 4h16v4h-16zm9 6v2h-2v-2zm-9 0h5v3a1 1 0 0 0 1 1h4a1 1 0 0 0 1-1v-3h5v22h-3.18a3 3 0 0 0 .18-1v-6a1 1 0 0 0 -1-1h-8a1 1 0 0 0 -1 1v6a3 3 0 0 0 .18 1h-3.18zm11 16v5a1 1 0 0 1 -1 1h-4a1 1 0 0 1 -1-1v-5zm-15-21a1 1 0 0 1 1-1h1v28h-2zm24 31h-24v-2h24zm0-4h-2v-28h1a1 1 0 0 1 1 1z" fill="#2978cb" data-original="#000000" style=""/></g></g></svg>
