<?xml version="1.0"?>
<svg xmlns="http://www.w3.org/2000/svg" xmlns:xlink="http://www.w3.org/1999/xlink" xmlns:svgjs="http://svgjs.com/svgjs" version="1.1" width="512" height="512" x="0" y="0" viewBox="0 0 512.001 512.001" style="enable-background:new 0 0 512 512" xml:space="preserve" class=""><g><g xmlns="http://www.w3.org/2000/svg"><path d="m354.237 512.001c-2.627 0-5.125-1.386-6.49-3.743-1.703-2.94-1.215-6.658 1.188-9.062 40.452-40.452 59.293-88.486 59.293-151.166 0-4.143 3.358-7.5 7.5-7.5s7.5 3.357 7.5 7.5c0 55.335-14.643 101.473-44.629 140.194 32.246-13.699 56.308-34.807 70.361-61.981 17.198-33.255 19.608-75.531 6.969-122.257l-46.375-171.45c-.521-1.926-.253-3.98.745-5.709s2.644-2.987 4.573-3.499c4.002-1.062 8.13 1.319 9.191 5.323.045.171.084.343.118.515l46.228 170.904c13.635 50.407 10.825 96.42-8.125 133.063-19.632 37.962-56.316 65.144-106.087 78.606-.652.177-1.309.262-1.96.262zm-196.473 0c-.65 0-1.308-.085-1.959-.261-49.771-13.463-86.455-40.645-106.087-78.606-18.95-36.644-21.76-82.656-8.125-133.063l46.171-170.695c.041-.255.095-.51.163-.762 20.433-75.726 89.547-128.614 168.073-128.614 33.715 0 66.423 9.654 94.588 27.918 27.429 17.787 49.248 42.798 63.096 72.328 1.759 3.75.144 8.217-3.606 9.975-3.751 1.763-8.216.146-9.975-3.605-12.657-26.99-32.601-49.852-57.677-66.111-25.728-16.686-55.614-25.505-86.426-25.505-71.508 0-134.473 47.98-153.391 116.783-.041.252-.095.504-.162.753l-46.375 171.45c-12.639 46.726-10.229 89.002 6.969 122.257 14.053 27.175 38.115 48.282 70.361 61.981-29.986-38.722-44.629-84.859-44.629-140.194 0-4.143 3.358-7.5 7.5-7.5s7.5 3.357 7.5 7.5c0 62.68 18.841 110.714 59.293 151.166 2.403 2.403 2.89 6.121 1.188 9.062-1.365 2.357-3.863 3.743-6.49 3.743zm151.474-.001c-1.919 0-3.839-.732-5.303-2.196-2.929-2.93-2.929-7.678 0-10.607 22.858-22.857 38.814-48.133 48.372-77.107-19.472-7.938-43.224-13.284-69.076-15.521-4.127-.356-7.183-3.991-6.826-8.118.357-4.126 3.991-7.186 8.119-6.825 26.679 2.308 51.381 7.805 71.954 15.976 4.537-18.325 6.75-38.088 6.75-59.569v-186.225c0-18.049-3.557-35.544-10.34-51.685-8.077 38.553-34.497 71.22-71.741 86.751l-132.373 55.199v58.27c0 4.143-3.358 7.5-7.5 7.5s-7.5-3.357-7.5-7.5v-63.096c-.002-.112-.002-.226 0-.338v-85.102c0-39.614 15.406-76.837 43.381-104.812 2.929-2.928 7.678-2.928 10.606 0 2.929 2.93 2.929 7.678 0 10.607-25.141 25.141-38.987 58.597-38.987 94.204v74.014l36.398-15.178c28.148-11.782 51.796-31.248 68.398-56.302 16.542-24.964 25.285-54.227 25.285-84.623 0-4.143 3.358-7.5 7.5-7.5s7.5 3.357 7.5 7.5c0 33.354-9.606 65.48-27.78 92.908-5.015 7.567-10.61 14.668-16.733 21.259l26.032-10.855c38.839-16.197 64.24-53.684 65.085-95.821-4.722-6.963-10.14-13.527-16.218-19.605-2.929-2.93-2.929-7.678 0-10.607 2.929-2.928 7.678-2.928 10.606 0 27.975 27.975 43.381 65.197 43.381 104.812v186.222c0 66.002-20.832 118.919-63.687 161.773-1.464 1.465-3.384 2.197-5.303 2.197zm-106.475 0c-1.919 0-3.839-.732-5.303-2.196-42.854-42.854-63.687-95.771-63.687-161.773 0-4.143 3.358-7.5 7.5-7.5s7.5 3.357 7.5 7.5c0 21.481 2.213 41.243 6.75 59.568 27.934-11.101 63.193-17.177 100.283-17.198h.004c4.141 0 7.498 3.354 7.5 7.496s-3.354 7.502-7.496 7.504c-35.869.021-69.74 5.924-96.121 16.688 9.557 28.975 25.514 54.251 48.372 77.108 2.929 2.93 2.929 7.678 0 10.607-1.463 1.464-3.382 2.196-5.302 2.196z" fill="#d18e0d" data-original="#000000" style=""/></g></g></svg>
